<svg xmlns="http://www.w3.org/2000/svg" xmlns:xlink="http://www.w3.org/1999/xlink" contentStyleType="text/css" data-diagram-type="DESCRIPTION" height="502px" preserveAspectRatio="none" style="width:1131px;height:502px;" version="1.1" viewBox="0 0 1131 502" width="1131px" zoomAndPan="magnify"><title>Mister, Mister</title><defs><filter height="300%" id="f139p1kc5wb9pa" width="300%" x="-1" y="-1"><feGaussianBlur result="blurOut" stdDeviation="2"/><feColorMatrix in="blurOut" result="blurOut2" type="matrix" values="0 0 0 0 0 0 0 0 0 0 0 0 0 0 0 0 0 0 .4 0"/><feOffset dx="4" dy="4" in="blurOut2" result="blurOut3"/><feBlend in="SourceGraphic" in2="blurOut3" mode="normal"/></filter></defs><g><text fill="#4682B4" font-family="sans-serif" font-size="14" font-weight="bold" lengthAdjust="spacing" textLength="90.248" x="511.2793" y="25.1074">Mister, Mister</text><rect fill="none" height="456.8496" style="stroke:#A80036;stroke-width:1;" width="1125.8066" x="0" y="39.6211"/><path d="M75.3584,39.6211 L75.3584,51.2422 L65.3584,61.2422 L0,61.2422" fill="none" style="stroke:#A80036;stroke-width:1;"/><text fill="#4682B4" font-family="sans-serif" font-size="14" lengthAdjust="spacing" textLength="65.3584" x="3" y="55.7285">characters</text><!--entity yahya--><g class="entity" data-entity="yahya" data-source-line="9" data-uid="ent0002" id="entity_yahya"><ellipse cx="903.4204" cy="219.8633" fill="#00FF00" filter="url(#f139p1kc5wb9pa)" rx="8" ry="8" style="stroke:#A80036;stroke-width:2;"/><path d="M903.4204,227.8633 L903.4204,254.8633 M890.4204,235.8633 L916.4204,235.8633 M903.4204,254.8633 L890.4204,269.8633 M903.4204,254.8633 L916.4204,269.8633" fill="none" filter="url(#f139p1kc5wb9pa)" style="stroke:#A80036;stroke-width:2;"/><text fill="#4682B4" font-family="sans-serif" font-size="14" lengthAdjust="spacing" textLength="39.6963" x="869.5654" y="291.9707">Yahya</text><text fill="#4682B4" font-family="sans-serif" font-size="14" lengthAdjust="spacing" textLength="3.8896" x="909.2617" y="291.9707">&#160;</text><text fill="#4682B4" font-family="sans-serif" font-size="14" lengthAdjust="spacing" textLength="24.124" x="913.1514" y="291.9707">Bas</text><text fill="#4682B4" font-family="sans-serif" font-size="14" font-style="italic" lengthAdjust="spacing" textLength="84.8408" x="861" y="206.3496">&#171;protagonist&#187;</text></g><!--entity mother--><g class="entity" data-entity="mother" data-source-line="11" data-uid="ent0003" id="entity_mother"><ellipse cx="710.248" cy="161.2422" fill="#B8860B" filter="url(#f139p1kc5wb9pa)" rx="8" ry="8" style="stroke:#A80036;stroke-width:2;"/><path d="M710.248,169.2422 L710.248,196.2422 M697.248,177.2422 L723.248,177.2422 M710.248,196.2422 L697.248,211.2422 M710.248,196.2422 L723.248,211.2422" fill="none" filter="url(#f139p1kc5wb9pa)" style="stroke:#A80036;stroke-width:2;"/><text fill="#4682B4" font-family="sans-serif" font-size="14" lengthAdjust="spacing" textLength="42.0205" x="662" y="233.3496">Estella</text><text fill="#4682B4" font-family="sans-serif" font-size="14" lengthAdjust="spacing" textLength="3.8896" x="704.0205" y="233.3496">&#160;</text><text fill="#4682B4" font-family="sans-serif" font-size="14" lengthAdjust="spacing" textLength="50.5859" x="707.9102" y="233.3496">Stevens</text></g><!--entity sadaf--><g class="entity" data-entity="sadaf" data-source-line="12" data-uid="ent0004" id="entity_sadaf"><ellipse cx="489.5239" cy="82.2422" fill="#B8860B" filter="url(#f139p1kc5wb9pa)" rx="8" ry="8" style="stroke:#A80036;stroke-width:2;"/><path d="M489.5239,90.2422 L489.5239,117.2422 M476.5239,98.2422 L502.5239,98.2422 M489.5239,117.2422 L476.5239,132.2422 M489.5239,117.2422 L502.5239,132.2422" fill="none" filter="url(#f139p1kc5wb9pa)" style="stroke:#A80036;stroke-width:2;"/><text fill="#4682B4" font-family="sans-serif" font-size="14" lengthAdjust="spacing" textLength="43.5723" x="447.5" y="154.3496">Mother</text><text fill="#4682B4" font-family="sans-serif" font-size="14" lengthAdjust="spacing" textLength="3.8896" x="491.0723" y="154.3496">&#160;</text><text fill="#4682B4" font-family="sans-serif" font-size="14" lengthAdjust="spacing" textLength="36.5859" x="494.9619" y="154.3496">Sadaf</text></g><!--entity miriam--><g class="entity" data-entity="miriam" data-source-line="13" data-uid="ent0005" id="entity_miriam"><ellipse cx="489.7275" cy="203.2422" fill="#B8860B" filter="url(#f139p1kc5wb9pa)" rx="8" ry="8" style="stroke:#A80036;stroke-width:2;"/><path d="M489.7275,211.2422 L489.7275,238.2422 M476.7275,219.2422 L502.7275,219.2422 M489.7275,238.2422 L476.7275,253.2422 M489.7275,238.2422 L502.7275,253.2422" fill="none" filter="url(#f139p1kc5wb9pa)" style="stroke:#A80036;stroke-width:2;"/><text fill="#4682B4" font-family="sans-serif" font-size="14" lengthAdjust="spacing" textLength="43.5723" x="445" y="275.3496">Mother</text><text fill="#4682B4" font-family="sans-serif" font-size="14" lengthAdjust="spacing" textLength="3.8896" x="488.5723" y="275.3496">&#160;</text><text fill="#4682B4" font-family="sans-serif" font-size="14" lengthAdjust="spacing" textLength="41.9932" x="492.4619" y="275.3496">Miriam</text></g><!--entity uncle--><g class="entity" data-entity="uncle" data-source-line="21" data-uid="ent0010" id="entity_uncle"><ellipse cx="597.8413" cy="367.2422" fill="#228B22" filter="url(#f139p1kc5wb9pa)" rx="8" ry="8" style="stroke:#A80036;stroke-width:2;"/><path d="M597.8413,375.2422 L597.8413,402.2422 M584.8413,383.2422 L610.8413,383.2422 M597.8413,402.2422 L584.8413,417.2422 M597.8413,402.2422 L610.8413,417.2422" fill="none" filter="url(#f139p1kc5wb9pa)" style="stroke:#A80036;stroke-width:2;"/><text fill="#4682B4" font-family="sans-serif" font-size="14" lengthAdjust="spacing" textLength="22.5586" x="564" y="439.3496">Sisi</text><text fill="#4682B4" font-family="sans-serif" font-size="14" lengthAdjust="spacing" textLength="3.8896" x="586.5586" y="439.3496">&#160;</text><text fill="#4682B4" font-family="sans-serif" font-size="14" lengthAdjust="spacing" textLength="41.2344" x="590.4482" y="439.3496">Gamal</text></g><!--entity father--><g class="entity" data-entity="father" data-source-line="27" data-uid="ent0013" id="entity_father"><ellipse cx="1080.9033" cy="210.2422" fill="#228B22" filter="url(#f139p1kc5wb9pa)" rx="8" ry="8" style="stroke:#A80036;stroke-width:2;"/><path d="M1080.9033,218.2422 L1080.9033,245.2422 M1067.9033,226.2422 L1093.9033,226.2422 M1080.9033,245.2422 L1067.9033,260.2422 M1080.9033,245.2422 L1093.9033,260.2422" fill="none" filter="url(#f139p1kc5wb9pa)" style="stroke:#A80036;stroke-width:2;"/><text fill="#4682B4" font-family="sans-serif" font-size="14" lengthAdjust="spacing" textLength="49.793" x="1042" y="282.3496">Marwan</text><text fill="#4682B4" font-family="sans-serif" font-size="14" lengthAdjust="spacing" textLength="3.8896" x="1091.793" y="282.3496">&#160;</text><text fill="#4682B4" font-family="sans-serif" font-size="14" lengthAdjust="spacing" textLength="24.124" x="1095.6826" y="282.3496">Bas</text></g><g class="entity" data-entity="house" data-source-line="31" data-uid="ent0015" id="entity_house"><ellipse cx="308.5163" cy="312.2552" fill="#FEFECE" filter="url(#f139p1kc5wb9pa)" rx="75.5163" ry="61.0131" style="stroke:#A80036;stroke-width:1;"/><text fill="#4682B4" font-family="sans-serif" font-size="14" font-style="italic" lengthAdjust="spacing" textLength="71.6064" x="266.9907" y="279.8168">&#171;instituton&#187;</text><text fill="#4682B4" font-family="sans-serif" font-size="14" lengthAdjust="spacing" textLength="39.6963" x="261.5459" y="298.4379">refuge</text><text fill="#4682B4" font-family="sans-serif" font-size="14" lengthAdjust="spacing" textLength="3.8896" x="301.2422" y="298.4379">&#160;</text><text fill="#4682B4" font-family="sans-serif" font-size="14" lengthAdjust="spacing" textLength="38.9102" x="305.1318" y="298.4379">center</text><text fill="#4682B4" font-family="sans-serif" font-size="14" lengthAdjust="spacing" textLength="16.3379" x="262.332" y="317.059">for</text><text fill="#4682B4" font-family="sans-serif" font-size="14" lengthAdjust="spacing" textLength="3.8896" x="278.6699" y="317.059">&#160;</text><text fill="#4682B4" font-family="sans-serif" font-size="14" lengthAdjust="spacing" textLength="45.1309" x="282.5595" y="317.059">women</text><text fill="#4682B4" font-family="sans-serif" font-size="14" lengthAdjust="spacing" textLength="3.8896" x="327.6904" y="317.059">&#160;</text><text fill="#4682B4" font-family="sans-serif" font-size="14" lengthAdjust="spacing" textLength="11.6758" x="331.58" y="317.059">of</text><text fill="#4682B4" font-family="sans-serif" font-size="14" lengthAdjust="spacing" textLength="21.0068" x="274.7768" y="335.68">low</text><text fill="#4682B4" font-family="sans-serif" font-size="14" lengthAdjust="spacing" textLength="3.8896" x="295.7837" y="335.68">&#160;</text><text fill="#4682B4" font-family="sans-serif" font-size="14" lengthAdjust="spacing" textLength="11.6758" x="299.6733" y="335.68">to</text><text fill="#4682B4" font-family="sans-serif" font-size="14" lengthAdjust="spacing" textLength="3.8896" x="311.3491" y="335.68">&#160;</text><text fill="#4682B4" font-family="sans-serif" font-size="14" lengthAdjust="spacing" textLength="15.5723" x="315.2387" y="335.68">no</text><text fill="#4682B4" font-family="sans-serif" font-size="14" lengthAdjust="spacing" textLength="42.0205" x="281.7837" y="354.3011">means</text></g><!--entity aneesa--><g class="entity" data-entity="aneesa" data-source-line="33" data-uid="ent0016" id="entity_aneesa"><ellipse cx="53.4722" cy="400.2422" fill="#B8860B" filter="url(#f139p1kc5wb9pa)" rx="8" ry="8" style="stroke:#A80036;stroke-width:2;"/><path d="M53.4722,408.2422 L53.4722,435.2422 M40.4722,416.2422 L66.4722,416.2422 M53.4722,435.2422 L40.4722,450.2422 M53.4722,435.2422 L66.4722,450.2422" fill="none" filter="url(#f139p1kc5wb9pa)" style="stroke:#A80036;stroke-width:2;"/><text fill="#4682B4" font-family="sans-serif" font-size="14" lengthAdjust="spacing" textLength="43.5723" x="6" y="472.3496">Mother</text><text fill="#4682B4" font-family="sans-serif" font-size="14" lengthAdjust="spacing" textLength="3.8896" x="49.5723" y="472.3496">&#160;</text><text fill="#4682B4" font-family="sans-serif" font-size="14" lengthAdjust="spacing" textLength="47.4824" x="53.4619" y="472.3496">Aneesa</text></g><!--entity shahnaz--><g class="entity" data-entity="shahnaz" data-source-line="42" data-uid="ent0022" id="entity_shahnaz"><ellipse cx="53.6343" cy="121.2422" fill="#B8860B" filter="url(#f139p1kc5wb9pa)" rx="8" ry="8" style="stroke:#A80036;stroke-width:2;"/><path d="M53.6343,129.2422 L53.6343,156.2422 M40.6343,137.2422 L66.6343,137.2422 M53.6343,156.2422 L40.6343,171.2422 M53.6343,156.2422 L66.6343,171.2422" fill="none" filter="url(#f139p1kc5wb9pa)" style="stroke:#A80036;stroke-width:2;"/><text fill="#4682B4" font-family="sans-serif" font-size="14" lengthAdjust="spacing" textLength="43.5723" x="31.8481" y="193.3496">Mother</text><text fill="#4682B4" font-family="sans-serif" font-size="14" lengthAdjust="spacing" textLength="55.2686" x="26" y="211.9707">Shahnaz</text></g><!--entity sofyiia--><g class="entity" data-entity="sofyiia" data-source-line="43" data-uid="ent0023" id="entity_sofyiia"><ellipse cx="53.686" cy="279.2422" fill="#B8860B" filter="url(#f139p1kc5wb9pa)" rx="8" ry="8" style="stroke:#A80036;stroke-width:2;"/><path d="M53.686,287.2422 L53.686,314.2422 M40.686,295.2422 L66.686,295.2422 M53.686,314.2422 L40.686,329.2422 M53.686,314.2422 L66.686,329.2422" fill="none" filter="url(#f139p1kc5wb9pa)" style="stroke:#A80036;stroke-width:2;"/><text fill="#4682B4" font-family="sans-serif" font-size="14" lengthAdjust="spacing" textLength="43.5723" x="7" y="351.3496">Mother</text><text fill="#4682B4" font-family="sans-serif" font-size="14" lengthAdjust="spacing" textLength="3.8896" x="50.5723" y="351.3496">&#160;</text><text fill="#4682B4" font-family="sans-serif" font-size="14" lengthAdjust="spacing" textLength="45.9102" x="54.4619" y="351.3496">Sofiyya</text></g><!--link sadaf to mother--><g class="link" data-entity-1="sadaf" data-entity-2="mother" data-source-line="15" data-uid="lnk6" id="link_sadaf_mother"><path d="M531.6,130.1022 C568.56,143.4622 617.2074,161.0522 655.9874,175.0722" fill="none" id="sadaf-to-mother" style="stroke:#A80036;stroke-width:1;"/><polygon fill="#A80036" points="661.63,177.1122,654.5261,170.2906,656.9279,175.4122,651.8062,177.814,661.63,177.1122" style="stroke:#A80036;stroke-width:1;"/><text fill="#4682B4" font-family="sans-serif" font-size="13" lengthAdjust="spacing" textLength="31.8081" x="582.5" y="139.2705">doula</text></g><!--link miriam to mother--><g class="link" data-entity-1="miriam" data-entity-2="mother" data-source-line="16" data-uid="lnk7" id="link_miriam_mother"><path d="M534.19,227.8422 C571.18,220.7322 618.1877,211.694 656.0877,204.414" fill="none" id="miriam-to-mother" style="stroke:#A80036;stroke-width:1;"/><polygon fill="#A80036" points="661.98,203.2822,652.387,201.0517,657.0698,204.2254,653.8961,208.9081,661.98,203.2822" style="stroke:#A80036;stroke-width:1;"/><text fill="#4682B4" font-family="sans-serif" font-size="13" lengthAdjust="spacing" textLength="31.8081" x="582.5" y="207.2705">doula</text></g><!--link sadaf to yahya--><g class="link" data-entity-1="sadaf" data-entity-2="yahya" data-source-line="18" data-uid="lnk8" id="link_sadaf_yahya"><path d="M531.75,110.1122 C585.92,105.1022 682.95,102.1822 758,133.2422 C796.02,148.9722 828.3443,173.2675 855.2943,197.2075" fill="none" id="sadaf-to-yahya" style="stroke:#A80036;stroke-width:1;"/><polygon fill="#A80036" points="859.78,201.1922,855.7079,192.2246,856.0419,197.8716,850.3949,198.2056,859.78,201.1922" style="stroke:#A80036;stroke-width:1;"/><text fill="#4682B4" font-family="sans-serif" font-size="13" lengthAdjust="spacing" textLength="73.7026" x="673.5" y="107.2705">other mother</text></g><!--link miriam to yahya--><g class="link" data-entity-1="miriam" data-entity-2="yahya" data-source-line="19" data-uid="lnk9" id="link_miriam_yahya"><path d="M534.14,248.3422 C568.56,257.2322 617.93,268.5422 662,273.2422 C704.43,277.7622 715.56,277.6022 758,273.2422 C792.66,269.6822 825.4499,262.8599 854.0299,255.9099" fill="none" id="miriam-to-yahya" style="stroke:#A80036;stroke-width:1;"/><polygon fill="#A80036" points="859.86,254.4922,850.1697,252.7321,855.0016,255.6736,852.06,260.5055,859.86,254.4922" style="stroke:#A80036;stroke-width:1;"/><text fill="#4682B4" font-family="sans-serif" font-size="13" lengthAdjust="spacing" textLength="73.7026" x="673.5" y="269.2705">other mother</text></g><!--link uncle to yahya--><g class="link" data-entity-1="uncle" data-entity-2="yahya" data-source-line="22" data-uid="lnk11" id="link_uncle_yahya"><path d="M632.39,394.4222 C679.97,384.8422 768.35,362.1622 830,317.2422 C840.32,309.7222 846.2062,304.8833 855.5262,295.7433" fill="none" id="uncle-to-yahya" style="stroke:#A80036;stroke-width:1;"/><polygon fill="#A80036" points="859.81,291.5422,850.5836,294.9879,856.2402,295.0431,856.185,300.6997,859.81,291.5422" style="stroke:#A80036;stroke-width:1;"/><text fill="#4682B4" font-family="sans-serif" font-size="13" lengthAdjust="spacing" textLength="31.0781" x="694.5" y="354.2705">uncle</text></g><!--link mother to yahya--><g class="link" data-entity-1="mother" data-entity-2="yahya" data-source-line="25" data-uid="lnk12" id="link_mother_yahya"><path d="M758.34,206.3522 C789.46,214.3222 824.0271,223.1657 854.1371,230.8657" fill="none" id="mother-to-yahya" style="stroke:#A80036;stroke-width:1;"/><polygon fill="#A80036" points="859.95,232.3522,852.2216,226.2471,855.1059,231.1134,850.2396,233.9977,859.95,232.3522" style="stroke:#A80036;stroke-width:1;"/><text fill="#4682B4" font-family="sans-serif" font-size="13" lengthAdjust="spacing" textLength="40.46" x="789" y="211.2705">mother</text></g><!--reverse link yahya to father--><g class="link" data-entity-1="yahya" data-entity-2="father" data-source-line="29" data-uid="lnk14" id="link_yahya_father"><path d="M953.43,243.2422 C982.35,243.2422 1014.15,243.2422 1041.99,243.2422" fill="none" id="yahya-backto-father" style="stroke:#A80036;stroke-width:1;"/><polygon fill="#A80036" points="947.43,243.2422,956.43,247.2422,952.43,243.2422,956.43,239.2422,947.43,243.2422" style="stroke:#A80036;stroke-width:1;"/><text fill="#4682B4" font-family="sans-serif" font-size="13" lengthAdjust="spacing" textLength="33.2427" x="978" y="239.2705">father</text></g><!--link aneesa to house--><g class="link" data-entity-1="aneesa" data-entity-2="house" data-source-line="35" data-uid="lnk17" id="link_aneesa_house"><path d="M101.2,410.9122 C141.03,391.8522 198.71,364.2722 242.96,343.1122" fill="none" id="aneesa-house" style="stroke:#A80036;stroke-width:1;"/></g><!--link house to mother--><g class="link" data-entity-1="house" data-entity-2="mother" data-source-line="37" data-uid="lnk18" id="link_house_mother"><path d="M384.1,315.3222 C428.55,315.1022 485.56,311.2022 534,296.2422 C580.54,281.8722 627.94,253.2022 661.65,229.9022" fill="none" id="house-mother" style="stroke:#A80036;stroke-width:1;"/></g><!--link house to sadaf--><g class="link" data-entity-1="house" data-entity-2="sadaf" data-source-line="38" data-uid="lnk19" id="link_house_sadaf"><path d="M353.98,263.2922 C383.28,231.0422 421.29,189.2122 449.43,158.2422" fill="none" id="house-sadaf" style="stroke:#A80036;stroke-width:1;"/></g><!--link house to miriam--><g class="link" data-entity-1="house" data-entity-2="miriam" data-source-line="39" data-uid="lnk20" id="link_house_miriam"><path d="M375.64,284.1622 C398.75,274.3522 424.09,263.5922 444.89,254.7622" fill="none" id="house-miriam" style="stroke:#A80036;stroke-width:1;"/></g><!--link house to uncle--><g class="link" data-entity-1="house" data-entity-2="uncle" data-source-line="40" data-uid="lnk21" id="link_house_uncle"><path d="M373.98,342.8922 C387.05,348.4622 400.83,353.8722 414,358.2422 C465.21,375.2222 526.69,387.8022 563.76,394.5722" fill="none" id="house-uncle" style="stroke:#A80036;stroke-width:1;"/></g><!--link shahnaz to house--><g class="link" data-entity-1="shahnaz" data-entity-2="house" data-source-line="45" data-uid="lnk24" id="link_shahnaz_house"><path d="M81.1,178.9022 C120.17,201.9222 194.17,245.4922 246.93,276.5722" fill="none" id="shahnaz-house" style="stroke:#A80036;stroke-width:1;"/><text fill="#4682B4" font-family="sans-serif" font-size="13" lengthAdjust="spacing" textLength="70.8208" x="132" y="208.2705">second floor</text></g><!--link sofyiia to house--><g class="link" data-entity-1="sofyiia" data-entity-2="house" data-source-line="46" data-uid="lnk25" id="link_sofyiia_house"><path d="M100.02,312.2422 C136.87,312.2422 189.53,312.2422 232.58,312.2422" fill="none" id="sofyiia-house" style="stroke:#A80036;stroke-width:1;"/><text fill="#4682B4" font-family="sans-serif" font-size="13" lengthAdjust="spacing" textLength="70.8208" x="132" y="308.2705">second floor</text></g><!--link shahnaz to sofyiia--><g class="link" data-entity-1="shahnaz" data-entity-2="sofyiia" data-source-line="48" data-uid="lnk26" id="link_shahnaz_sofyiia"><path d="M53.5,221.4922 C53.5,239.0322 53.5,246.3822 53.5,263.1422" fill="none" id="shahnaz-sofyiia" style="stroke:#A80036;stroke-width:1;"/><polygon fill="#A80036" points="53.5,215.4922,49.5,224.4922,53.5,220.4922,57.5,224.4922,53.5,215.4922" style="stroke:#A80036;stroke-width:1;"/><polygon fill="#A80036" points="53.5,269.1422,57.5,260.1422,53.5,264.1422,49.5,260.1422,53.5,269.1422" style="stroke:#A80036;stroke-width:1;"/><text fill="#4682B4" font-family="sans-serif" font-size="13" lengthAdjust="spacing" textLength="47.7026" x="17.5" y="247.7705">together</text></g><!--SRC=[TLDDYzmm3BthLsYNERJGJ0wzcMcWXMLF0uKvzLJKYHoRElPWEntINrybpiV0Ta_HntkI_AGy7L8U7N-dRF0BFfkSRqdLTQJxiRFP3B-6nF4QV6QVZzVGry7nxy_rpP7FG-ygwwzkQ3dLaNMg3LERwfwihwradm6U5W3kVGHAhVNTSO90jjandctA73yjNuIfX8xKCruDHRfAC060-a5c9Fn6II4b76VlTBh5aAaBNiXDWuUU7FzyY0dlHSewHtZ9_8TzOVSX6-brq3mHG9sBVw6Mz0n8a_KcVxRHKbygp2Pk42YCgchMuWhRC4XVMA3_IsqioPKNAIoG1RcJtqM0kjXayPLaZdcqGMJd8WKK-v5S8YBemd_CxINF5E_aDxKr5RtAKnVjgsgDgzK0-237C7IoEpaQ2UWGyHvwzXWqkd377D07x9by-ZXLDa6kJFPeVP9p67BmJGERu5yzSw9v19hDNU_5bo5A2O3o5QMsTwoHPPsxNrJT_LcKlUt5aF7qjrn2iT_UIj1s7CjiAUZHseVXLj8sdSB4yYkrg5q84LR2U_cjm4csiuALYDVnr1pW7m00]--></g></svg>