<svg xmlns="http://www.w3.org/2000/svg" xmlns:xlink="http://www.w3.org/1999/xlink" contentStyleType="text/css" height="1107px" preserveAspectRatio="none" style="width:1885px;height:1107px;background:#FFF5EE;" version="1.1" viewBox="0 0 1885 1107" width="1885px" zoomAndPan="magnify"><title>River East, River West</title><defs><filter height="300%" id="f1gd40knqb2rzc" width="300%" x="-1" y="-1"><feGaussianBlur result="blurOut" stdDeviation="2.0"/><feColorMatrix in="blurOut" result="blurOut2" type="matrix" values="0 0 0 0 0 0 0 0 0 0 0 0 0 0 0 0 0 0 .4 0"/><feOffset dx="4.0" dy="4.0" in="blurOut2" result="blurOut3"/><feBlend in="SourceGraphic" in2="blurOut3" mode="normal"/></filter></defs><g><rect fill="#FFF5EE" height="1107" style="stroke:none;stroke-width:1.0;" width="1885" x="0" y="0"/><text fill="#A52A2A" font-family="sans-serif" font-size="14" font-weight="bold" lengthAdjust="spacing" textLength="148.6201" x="861.25" y="25.1074">River East, River West</text><!--entity Sloan--><g id="elem_Sloan"><ellipse cx="1107.4033" cy="333.6211" fill="#FFC0CB" filter="url(#f1gd40knqb2rzc)" rx="8" ry="8" style="stroke:#A80036;stroke-width:2.0;"/><path d="M1107.4033,341.6211 L1107.4033,368.6211 M1094.4033,349.6211 L1120.4033,349.6211 M1107.4033,368.6211 L1094.4033,383.6211 M1107.4033,368.6211 L1120.4033,383.6211 " fill="none" filter="url(#f1gd40knqb2rzc)" style="stroke:#A80036;stroke-width:2.0;"/><text fill="#A52A2A" font-family="sans-serif" font-size="14" lengthAdjust="spacing" textLength="35.8066" x="1089.5" y="405.7285">Sloan</text></g><!--entity Alva--><g id="elem_Alva"><ellipse cx="1107.5" cy="495.6211" fill="#FFC0CB" filter="url(#f1gd40knqb2rzc)" rx="8" ry="8" style="stroke:#A80036;stroke-width:2.0;"/><path d="M1107.5,503.6211 L1107.5,530.6211 M1094.5,511.6211 L1120.5,511.6211 M1107.5,530.6211 L1094.5,545.6211 M1107.5,530.6211 L1120.5,545.6211 " fill="none" filter="url(#f1gd40knqb2rzc)" style="stroke:#A80036;stroke-width:2.0;"/><text fill="#A52A2A" font-family="sans-serif" font-size="14" lengthAdjust="spacing" textLength="27.2344" x="1093.8828" y="567.7285">Alva</text></g><!--entity Fang--><g id="elem_Fang"><ellipse cx="1107.686" cy="193.6211" fill="#FFC0CB" filter="url(#f1gd40knqb2rzc)" rx="8" ry="8" style="stroke:#A80036;stroke-width:2.0;"/><path d="M1107.686,201.6211 L1107.686,228.6211 M1094.686,209.6211 L1120.686,209.6211 M1107.686,228.6211 L1094.686,243.6211 M1107.686,228.6211 L1120.686,243.6211 " fill="none" filter="url(#f1gd40knqb2rzc)" style="stroke:#A80036;stroke-width:2.0;"/><text fill="#A52A2A" font-family="sans-serif" font-size="14" lengthAdjust="spacing" textLength="51.3721" x="1082" y="265.7285">Lu Fang</text></g><!--entity Li--><g id="elem_Li"><ellipse cx="837.0137" cy="440.6211" fill="#FEFECE" filter="url(#f1gd40knqb2rzc)" rx="8" ry="8" style="stroke:#A80036;stroke-width:2.0;"/><path d="M837.0137,448.6211 L837.0137,475.6211 M824.0137,456.6211 L850.0137,456.6211 M837.0137,475.6211 L824.0137,490.6211 M837.0137,475.6211 L850.0137,490.6211 " fill="none" filter="url(#f1gd40knqb2rzc)" style="stroke:#A80036;stroke-width:2.0;"/><text fill="#A52A2A" font-family="sans-serif" font-size="14" lengthAdjust="spacing" textLength="56.0273" x="809" y="512.7285">Li Xinwei</text></g><g id="elem_&#1089;&#1074;&#1072;&#1076;&#1100;&#1073;&#1072;"><ellipse cx="1332.4204" cy="348.462" fill="#FEFECE" filter="url(#f1gd40knqb2rzc)" rx="49.9204" ry="16.3409" style="stroke:#A80036;stroke-width:1.0;"/><text fill="#A52A2A" font-family="sans-serif" font-size="14" lengthAdjust="spacing" textLength="53.4912" x="1302.6748" y="353.2657">&#1089;&#1074;&#1072;&#1076;&#1100;&#1073;&#1072;</text></g><!--entity Feng--><g id="elem_Feng"><ellipse cx="1578.9551" cy="311.6211" fill="#FEFECE" filter="url(#f1gd40knqb2rzc)" rx="8" ry="8" style="stroke:#A80036;stroke-width:2.0;"/><path d="M1578.9551,319.6211 L1578.9551,346.6211 M1565.9551,327.6211 L1591.9551,327.6211 M1578.9551,346.6211 L1565.9551,361.6211 M1578.9551,346.6211 L1591.9551,361.6211 " fill="none" filter="url(#f1gd40knqb2rzc)" style="stroke:#A80036;stroke-width:2.0;"/><text fill="#A52A2A" font-family="sans-serif" font-size="14" lengthAdjust="spacing" textLength="31.9102" x="1563" y="383.7285">Feng</text></g><g id="elem_&#1096;&#1082;&#1086;&#1083;&#1072;"><ellipse cx="487.1929" cy="570.8398" fill="#FEFECE" filter="url(#f1gd40knqb2rzc)" rx="40.6929" ry="16.2187" style="stroke:#A80036;stroke-width:1.0;"/><text fill="#A52A2A" font-family="sans-serif" font-size="14" lengthAdjust="spacing" textLength="41.0977" x="464.2907" y="575.462">&#1096;&#1082;&#1086;&#1083;&#1072;</text></g><!--entity Zhang--><g id="elem_Zhang"><ellipse cx="189.1411" cy="537.6211" fill="#FEFECE" filter="url(#f1gd40knqb2rzc)" rx="8" ry="8" style="stroke:#A80036;stroke-width:2.0;"/><path d="M189.1411,545.6211 L189.1411,572.6211 M176.1411,553.6211 L202.1411,553.6211 M189.1411,572.6211 L176.1411,587.6211 M189.1411,572.6211 L202.1411,587.6211 " fill="none" filter="url(#f1gd40knqb2rzc)" style="stroke:#A80036;stroke-width:2.0;"/><text fill="#A52A2A" font-family="sans-serif" font-size="14" lengthAdjust="spacing" textLength="76.2822" x="151" y="609.7285">Zhang Shao</text></g><!--entity Gao--><g id="elem_Gao"><ellipse cx="188.917" cy="416.6211" fill="#FEFECE" filter="url(#f1gd40knqb2rzc)" rx="8" ry="8" style="stroke:#A80036;stroke-width:2.0;"/><path d="M188.917,424.6211 L188.917,451.6211 M175.917,432.6211 L201.917,432.6211 M188.917,451.6211 L175.917,466.6211 M188.917,451.6211 L201.917,466.6211 " fill="none" filter="url(#f1gd40knqb2rzc)" style="stroke:#A80036;stroke-width:2.0;"/><text fill="#A52A2A" font-family="sans-serif" font-size="14" lengthAdjust="spacing" textLength="77.834" x="150" y="488.7285">Gao Xiaofan</text></g><!--entity Song--><g id="elem_Song"><ellipse cx="487.0688" cy="650.6211" fill="#FEFECE" filter="url(#f1gd40knqb2rzc)" rx="8" ry="8" style="stroke:#A80036;stroke-width:2.0;"/><path d="M487.0688,658.6211 L487.0688,685.6211 M474.0688,666.6211 L500.0688,666.6211 M487.0688,685.6211 L474.0688,700.6211 M487.0688,685.6211 L500.0688,700.6211 " fill="none" filter="url(#f1gd40knqb2rzc)" style="stroke:#A80036;stroke-width:2.0;"/><text fill="#A52A2A" font-family="sans-serif" font-size="14" lengthAdjust="spacing" textLength="59.1377" x="457.5" y="722.7285">Ms. Song</text></g><!--entity Liu--><g id="elem_Liu"><ellipse cx="837" cy="300.6211" fill="#FEFECE" filter="url(#f1gd40knqb2rzc)" rx="8" ry="8" style="stroke:#A80036;stroke-width:2.0;"/><path d="M837,308.6211 L837,335.6211 M824,316.6211 L850,316.6211 M837,335.6211 L824,350.6211 M837,335.6211 L850,350.6211 " fill="none" filter="url(#f1gd40knqb2rzc)" style="stroke:#A80036;stroke-width:2.0;"/><text fill="#A52A2A" font-family="sans-serif" font-size="14" lengthAdjust="spacing" textLength="18.6826" x="827.6587" y="372.7285">Liu</text></g><!--entity Teng--><g id="elem_Teng"><ellipse cx="34.0171" cy="356.6211" fill="#FEFECE" filter="url(#f1gd40knqb2rzc)" rx="8" ry="8" style="stroke:#A80036;stroke-width:2.0;"/><path d="M34.0171,364.6211 L34.0171,391.6211 M21.0171,372.6211 L47.0171,372.6211 M34.0171,391.6211 L21.0171,406.6211 M34.0171,391.6211 L47.0171,406.6211 " fill="none" filter="url(#f1gd40knqb2rzc)" style="stroke:#A80036;stroke-width:2.0;"/><text fill="#A52A2A" font-family="sans-serif" font-size="14" lengthAdjust="spacing" textLength="56.0342" x="6" y="428.7285">Teng Xin</text></g><!--entity Doggy--><g id="elem_Doggy"><ellipse cx="34.2344" cy="477.6211" fill="#FEFECE" filter="url(#f1gd40knqb2rzc)" rx="8" ry="8" style="stroke:#A80036;stroke-width:2.0;"/><path d="M34.2344,485.6211 L34.2344,512.6211 M21.2344,493.6211 L47.2344,493.6211 M34.2344,512.6211 L21.2344,527.6211 M34.2344,512.6211 L47.2344,527.6211 " fill="none" filter="url(#f1gd40knqb2rzc)" style="stroke:#A80036;stroke-width:2.0;"/><text fill="#A52A2A" font-family="sans-serif" font-size="14" lengthAdjust="spacing" textLength="40.4688" x="14" y="549.7285">Doggy</text></g><!--entity Ciyi--><g id="elem_Ciyi"><ellipse cx="1107.5" cy="53.6211" fill="#FEFECE" filter="url(#f1gd40knqb2rzc)" rx="8" ry="8" style="stroke:#A80036;stroke-width:2.0;"/><path d="M1107.5,61.6211 L1107.5,88.6211 M1094.5,69.6211 L1120.5,69.6211 M1107.5,88.6211 L1094.5,103.6211 M1107.5,88.6211 L1120.5,103.6211 " fill="none" filter="url(#f1gd40knqb2rzc)" style="stroke:#A80036;stroke-width:2.0;"/><text fill="#A52A2A" font-family="sans-serif" font-size="14" lengthAdjust="spacing" textLength="23.3311" x="1095.8345" y="125.7285">Ciyi</text></g><g id="elem_Qingdao"><ellipse cx="837.0991" cy="222.8409" fill="#FEFECE" filter="url(#f1gd40knqb2rzc)" rx="74.0991" ry="17.2198" style="stroke:#A80036;stroke-width:1.0;"/><text fill="#A52A2A" font-family="sans-serif" font-size="14" lengthAdjust="spacing" textLength="91.8545" x="788.1719" y="227.6446">Qingdao, 1985</text></g><!--entity Huang--><g id="elem_Huang"><ellipse cx="487.1274" cy="61.6211" fill="#FEFECE" filter="url(#f1gd40knqb2rzc)" rx="8" ry="8" style="stroke:#A80036;stroke-width:2.0;"/><path d="M487.1274,69.6211 L487.1274,96.6211 M474.1274,77.6211 L500.1274,77.6211 M487.1274,96.6211 L474.1274,111.6211 M487.1274,96.6211 L500.1274,111.6211 " fill="none" filter="url(#f1gd40knqb2rzc)" style="stroke:#A80036;stroke-width:2.0;"/><text fill="#A52A2A" font-family="sans-serif" font-size="14" lengthAdjust="spacing" textLength="41.2549" x="466.5" y="133.7285">Huang</text></g><!--entity Qi--><g id="elem_Qi"><ellipse cx="836.9551" cy="94.6211" fill="#FEFECE" filter="url(#f1gd40knqb2rzc)" rx="8" ry="8" style="stroke:#A80036;stroke-width:2.0;"/><path d="M836.9551,102.6211 L836.9551,129.6211 M823.9551,110.6211 L849.9551,110.6211 M836.9551,129.6211 L823.9551,144.6211 M836.9551,129.6211 L849.9551,144.6211 " fill="none" filter="url(#f1gd40knqb2rzc)" style="stroke:#A80036;stroke-width:2.0;"/><text fill="#A52A2A" font-family="sans-serif" font-size="14" lengthAdjust="spacing" textLength="45.9102" x="814" y="166.7285">Xiao Qi</text></g><!--entity Jim--><g id="elem_Jim"><ellipse cx="487" cy="182.6211" fill="#FEFECE" filter="url(#f1gd40knqb2rzc)" rx="8" ry="8" style="stroke:#A80036;stroke-width:2.0;"/><path d="M487,190.6211 L487,217.6211 M474,198.6211 L500,198.6211 M487,217.6211 L474,232.6211 M487,217.6211 L500,232.6211 " fill="none" filter="url(#f1gd40knqb2rzc)" style="stroke:#A80036;stroke-width:2.0;"/><text fill="#A52A2A" font-family="sans-serif" font-size="14" lengthAdjust="spacing" textLength="21.7725" x="476.1138" y="254.7285">Jim</text></g><!--entity Wang--><g id="elem_Wang"><ellipse cx="487.0791" cy="303.6211" fill="#FEFECE" filter="url(#f1gd40knqb2rzc)" rx="8" ry="8" style="stroke:#A80036;stroke-width:2.0;"/><path d="M487.0791,311.6211 L487.0791,338.6211 M474.0791,319.6211 L500.0791,319.6211 M487.0791,338.6211 L474.0791,353.6211 M487.0791,338.6211 L500.0791,353.6211 " fill="none" filter="url(#f1gd40knqb2rzc)" style="stroke:#A80036;stroke-width:2.0;"/><text fill="#A52A2A" font-family="sans-serif" font-size="14" lengthAdjust="spacing" textLength="80.1582" x="447" y="375.7285">Auntie Wang</text></g><!--entity Yu--><g id="elem_Yu"><ellipse cx="487.0273" cy="424.6211" fill="#FEFECE" filter="url(#f1gd40knqb2rzc)" rx="8" ry="8" style="stroke:#A80036;stroke-width:2.0;"/><path d="M487.0273,432.6211 L487.0273,459.6211 M474.0273,440.6211 L500.0273,440.6211 M487.0273,459.6211 L474.0273,474.6211 M487.0273,459.6211 L500.0273,474.6211 " fill="none" filter="url(#f1gd40knqb2rzc)" style="stroke:#A80036;stroke-width:2.0;"/><text fill="#A52A2A" font-family="sans-serif" font-size="14" lengthAdjust="spacing" textLength="77.0547" x="448.5" y="496.7285">Yu Chentian</text></g><!--entity Lu Min--><g id="elem_Lu Min"><ellipse cx="1332.5103" cy="63.6211" fill="#FEFECE" filter="url(#f1gd40knqb2rzc)" rx="8" ry="8" style="stroke:#A80036;stroke-width:2.0;"/><path d="M1332.5103,71.6211 L1332.5103,98.6211 M1319.5103,79.6211 L1345.5103,79.6211 M1332.5103,98.6211 L1319.5103,113.6211 M1332.5103,98.6211 L1345.5103,113.6211 " fill="none" filter="url(#f1gd40knqb2rzc)" style="stroke:#A80036;stroke-width:2.0;"/><text fill="#A52A2A" font-family="sans-serif" font-size="14" lengthAdjust="spacing" textLength="42.0205" x="1311.5" y="135.7285">Lu Min</text></g><g id="elem_new_school"><ellipse cx="1579.2295" cy="699.767" fill="#FEFECE" filter="url(#f1gd40knqb2rzc)" rx="71.2295" ry="16.6459" style="stroke:#A80036;stroke-width:1.0;"/><text fill="#A52A2A" font-family="sans-serif" font-size="14" lengthAdjust="spacing" textLength="83.3096" x="1534.5747" y="704.5707">&#1085;&#1086;&#1074;&#1072;&#1103; &#1096;&#1082;&#1086;&#1083;&#1072;</text></g><!--entity Steward--><g id="elem_Steward"><ellipse cx="1840.4551" cy="784.6211" fill="#FEFECE" filter="url(#f1gd40knqb2rzc)" rx="8" ry="8" style="stroke:#A80036;stroke-width:2.0;"/><path d="M1840.4551,792.6211 L1840.4551,819.6211 M1827.4551,800.6211 L1853.4551,800.6211 M1840.4551,819.6211 L1827.4551,834.6211 M1840.4551,819.6211 L1853.4551,834.6211 " fill="none" filter="url(#f1gd40knqb2rzc)" style="stroke:#A80036;stroke-width:2.0;"/><text fill="#A52A2A" font-family="sans-serif" font-size="14" lengthAdjust="spacing" textLength="73.9102" x="1803.5" y="856.7285">Ms Steward</text></g><!--entity Zoey--><g id="elem_Zoey"><ellipse cx="1332.562" cy="666.6211" fill="#FEFECE" filter="url(#f1gd40knqb2rzc)" rx="8" ry="8" style="stroke:#A80036;stroke-width:2.0;"/><path d="M1332.562,674.6211 L1332.562,701.6211 M1319.562,682.6211 L1345.562,682.6211 M1332.562,701.6211 L1319.562,716.6211 M1332.562,701.6211 L1345.562,716.6211 " fill="none" filter="url(#f1gd40knqb2rzc)" style="stroke:#A80036;stroke-width:2.0;"/><text fill="#A52A2A" font-family="sans-serif" font-size="14" lengthAdjust="spacing" textLength="31.124" x="1317" y="738.7285">Zoey</text></g><g id="elem_zoey_home"><ellipse cx="1578.9295" cy="938.4729" fill="#FEFECE" filter="url(#f1gd40knqb2rzc)" rx="50.9295" ry="16.3518" style="stroke:#A80036;stroke-width:1.0;"/><text fill="#A52A2A" font-family="sans-serif" font-size="14" lengthAdjust="spacing" textLength="54.8447" x="1548.5071" y="943.2766">&#1044;&#1086;&#1084; &#1047;&#1086;&#1080;</text></g><!--entity Ashley--><g id="elem_Ashley"><ellipse cx="1840.5103" cy="663.6211" fill="#FEFECE" filter="url(#f1gd40knqb2rzc)" rx="8" ry="8" style="stroke:#A80036;stroke-width:2.0;"/><path d="M1840.5103,671.6211 L1840.5103,698.6211 M1827.5103,679.6211 L1853.5103,679.6211 M1840.5103,698.6211 L1827.5103,713.6211 M1840.5103,698.6211 L1853.5103,713.6211 " fill="none" filter="url(#f1gd40knqb2rzc)" style="stroke:#A80036;stroke-width:2.0;"/><text fill="#A52A2A" font-family="sans-serif" font-size="14" lengthAdjust="spacing" textLength="42.0205" x="1819.5" y="735.7285">Ashley</text></g><!--entity korean--><g id="elem_korean"><ellipse cx="1840.5601" cy="524.2422" fill="#FEFECE" filter="url(#f1gd40knqb2rzc)" rx="8" ry="8" style="stroke:#A80036;stroke-width:2.0;"/><path d="M1840.5601,532.2422 L1840.5601,559.2422 M1827.5601,540.2422 L1853.5601,540.2422 M1840.5601,559.2422 L1827.5601,574.2422 M1840.5601,559.2422 L1853.5601,574.2422 " fill="none" filter="url(#f1gd40knqb2rzc)" style="stroke:#A80036;stroke-width:2.0;"/><text fill="#A52A2A" font-family="sans-serif" font-size="14" lengthAdjust="spacing" textLength="40.4688" x="1820.3257" y="596.3496">Jiyoon</text><text fill="#A52A2A" font-family="sans-serif" font-size="14" font-style="italic" lengthAdjust="spacing" textLength="75.1201" x="1803" y="510.7285">&#171;&#1082;&#1086;&#1088;&#1077;&#1103;&#1085;&#1082;&#1072;&#187;</text></g><!--entity Feng_driver--><g id="elem_Feng_driver"><ellipse cx="1840.4551" cy="1026.6211" fill="#FEFECE" filter="url(#f1gd40knqb2rzc)" rx="8" ry="8" style="stroke:#A80036;stroke-width:2.0;"/><path d="M1840.4551,1034.6211 L1840.4551,1061.6211 M1827.4551,1042.6211 L1853.4551,1042.6211 M1840.4551,1061.6211 L1827.4551,1076.6211 M1840.4551,1061.6211 L1853.4551,1076.6211 " fill="none" filter="url(#f1gd40knqb2rzc)" style="stroke:#A80036;stroke-width:2.0;"/><text fill="#A52A2A" font-family="sans-serif" font-size="14" lengthAdjust="spacing" textLength="31.9102" x="1824.5" y="1098.7285">Feng</text></g><!--entity Julia--><g id="elem_Julia"><ellipse cx="1107.5" cy="779.6211" fill="#FEFECE" filter="url(#f1gd40knqb2rzc)" rx="8" ry="8" style="stroke:#A80036;stroke-width:2.0;"/><path d="M1107.5,787.6211 L1107.5,814.6211 M1094.5,795.6211 L1120.5,795.6211 M1107.5,814.6211 L1094.5,829.6211 M1107.5,814.6211 L1120.5,829.6211 " fill="none" filter="url(#f1gd40knqb2rzc)" style="stroke:#A80036;stroke-width:2.0;"/><text fill="#A52A2A" font-family="sans-serif" font-size="14" lengthAdjust="spacing" textLength="28.793" x="1093.1035" y="851.7285">Julia</text></g><!--entity girlie--><g id="elem_girlie"><ellipse cx="1840.3345" cy="905.6211" fill="#FEFECE" filter="url(#f1gd40knqb2rzc)" rx="8" ry="8" style="stroke:#A80036;stroke-width:2.0;"/><path d="M1840.3345,913.6211 L1840.3345,940.6211 M1827.3345,921.6211 L1853.3345,921.6211 M1840.3345,940.6211 L1827.3345,955.6211 M1840.3345,940.6211 L1853.3345,955.6211 " fill="none" filter="url(#f1gd40knqb2rzc)" style="stroke:#A80036;stroke-width:2.0;"/><text fill="#A52A2A" font-family="sans-serif" font-size="14" lengthAdjust="spacing" textLength="32.6689" x="1824" y="977.7285">Girlie</text></g><!--entity Daniel--><g id="elem_Daniel"><ellipse cx="836.8447" cy="779.6211" fill="#FEFECE" filter="url(#f1gd40knqb2rzc)" rx="8" ry="8" style="stroke:#A80036;stroke-width:2.0;"/><path d="M836.8447,787.6211 L836.8447,814.6211 M823.8447,795.6211 L849.8447,795.6211 M836.8447,814.6211 L823.8447,829.6211 M836.8447,814.6211 L849.8447,829.6211 " fill="none" filter="url(#f1gd40knqb2rzc)" style="stroke:#A80036;stroke-width:2.0;"/><text fill="#A52A2A" font-family="sans-serif" font-size="14" lengthAdjust="spacing" textLength="39.6895" x="817" y="851.7285">Daniel</text></g><!--entity Gabe--><g id="elem_Gabe"><ellipse cx="1332.624" cy="806.6211" fill="#FEFECE" filter="url(#f1gd40knqb2rzc)" rx="8" ry="8" style="stroke:#A80036;stroke-width:2.0;"/><path d="M1332.624,814.6211 L1332.624,841.6211 M1319.624,822.6211 L1345.624,822.6211 M1332.624,841.6211 L1319.624,856.6211 M1332.624,841.6211 L1345.624,856.6211 " fill="none" filter="url(#f1gd40knqb2rzc)" style="stroke:#A80036;stroke-width:2.0;"/><text fill="#A52A2A" font-family="sans-serif" font-size="14" lengthAdjust="spacing" textLength="34.248" x="1315.5" y="878.7285">Gabe</text></g><!--entity Su--><g id="elem_Su"><ellipse cx="1578.8379" cy="779.6211" fill="#FEFECE" filter="url(#f1gd40knqb2rzc)" rx="8" ry="8" style="stroke:#A80036;stroke-width:2.0;"/><path d="M1578.8379,787.6211 L1578.8379,814.6211 M1565.8379,795.6211 L1591.8379,795.6211 M1578.8379,814.6211 L1565.8379,829.6211 M1578.8379,814.6211 L1591.8379,829.6211 " fill="none" filter="url(#f1gd40knqb2rzc)" style="stroke:#A80036;stroke-width:2.0;"/><text fill="#A52A2A" font-family="sans-serif" font-size="14" lengthAdjust="spacing" textLength="39.6758" x="1559" y="851.7285">Ms Su</text></g><g id="elem_banquet"><ellipse cx="487.1101" cy="812.7431" fill="#FEFECE" filter="url(#f1gd40knqb2rzc)" rx="106.1101" ry="23.622" style="stroke:#A80036;stroke-width:1.0;"/><text fill="#A52A2A" font-family="sans-serif" font-size="14" lengthAdjust="spacing" textLength="172.0059" x="401.1072" y="816.54">&#1092;&#1080;&#1083;&#1072;&#1085;&#1090;&#1088;&#1086;&#1087;&#1080;&#1095;&#1077;&#1089;&#1082;&#1080;&#1081; &#1073;&#1072;&#1085;&#1082;&#1077;&#1090;</text></g><!--entity Charles Zhe--><g id="elem_Charles Zhe"><ellipse cx="189.1274" cy="658.6211" fill="#FEFECE" filter="url(#f1gd40knqb2rzc)" rx="8" ry="8" style="stroke:#A80036;stroke-width:2.0;"/><path d="M189.1274,666.6211 L189.1274,693.6211 M176.1274,674.6211 L202.1274,674.6211 M189.1274,693.6211 L176.1274,708.6211 M189.1274,693.6211 L202.1274,708.6211 " fill="none" filter="url(#f1gd40knqb2rzc)" style="stroke:#A80036;stroke-width:2.0;"/><text fill="#A52A2A" font-family="sans-serif" font-size="14" lengthAdjust="spacing" textLength="76.2549" x="151" y="730.7285">Charles Zhe</text></g><!--entity Lily--><g id="elem_Lily"><ellipse cx="189.1895" cy="779.6211" fill="#FEFECE" filter="url(#f1gd40knqb2rzc)" rx="8" ry="8" style="stroke:#A80036;stroke-width:2.0;"/><path d="M189.1895,787.6211 L189.1895,814.6211 M176.1895,795.6211 L202.1895,795.6211 M189.1895,814.6211 L176.1895,829.6211 M189.1895,814.6211 L202.1895,829.6211 " fill="none" filter="url(#f1gd40knqb2rzc)" style="stroke:#A80036;stroke-width:2.0;"/><text fill="#A52A2A" font-family="sans-serif" font-size="14" lengthAdjust="spacing" textLength="58.3789" x="160" y="851.7285">Xi Lipeng</text></g><!--entity Alice Fan--><g id="elem_Alice Fan"><ellipse cx="189.1792" cy="900.6211" fill="#FEFECE" filter="url(#f1gd40knqb2rzc)" rx="8" ry="8" style="stroke:#A80036;stroke-width:2.0;"/><path d="M189.1792,908.6211 L189.1792,935.6211 M176.1792,916.6211 L202.1792,916.6211 M189.1792,935.6211 L176.1792,950.6211 M189.1792,935.6211 L202.1792,950.6211 " fill="none" filter="url(#f1gd40knqb2rzc)" style="stroke:#A80036;stroke-width:2.0;"/><text fill="#A52A2A" font-family="sans-serif" font-size="14" lengthAdjust="spacing" textLength="58.3584" x="160" y="972.7285">Alice Fan</text></g><!--entity Ms. McCoy--><g id="elem_Ms. McCoy"><ellipse cx="1579" cy="553.6211" fill="#FEFECE" filter="url(#f1gd40knqb2rzc)" rx="8" ry="8" style="stroke:#A80036;stroke-width:2.0;"/><path d="M1579,561.6211 L1579,588.6211 M1566,569.6211 L1592,569.6211 M1579,588.6211 L1566,603.6211 M1579,588.6211 L1592,603.6211 " fill="none" filter="url(#f1gd40knqb2rzc)" style="stroke:#A80036;stroke-width:2.0;"/><text fill="#A52A2A" font-family="sans-serif" font-size="14" lengthAdjust="spacing" textLength="70" x="1544" y="625.7285">Ms. McCoy</text></g><!--entity "Old Two"--><g id="elem_&quot;Old Two&quot;"><ellipse cx="1332.5317" cy="193.6211" fill="#FEFECE" filter="url(#f1gd40knqb2rzc)" rx="8" ry="8" style="stroke:#A80036;stroke-width:2.0;"/><path d="M1332.5317,201.6211 L1332.5317,228.6211 M1319.5317,209.6211 L1345.5317,209.6211 M1332.5317,228.6211 L1319.5317,243.6211 M1332.5317,228.6211 L1345.5317,243.6211 " fill="none" filter="url(#f1gd40knqb2rzc)" style="stroke:#A80036;stroke-width:2.0;"/><text fill="#A52A2A" font-family="sans-serif" font-size="14" lengthAdjust="spacing" textLength="62.0635" x="1301.5" y="265.7285">"Old Two"</text></g><g id="elem_&#1061;&#1072;&#1081;&#1085;&#1072;&#1085;&#1100;"><ellipse cx="1332.4085" cy="468.478" fill="#FEFECE" filter="url(#f1gd40knqb2rzc)" rx="51.4085" ry="16.3569" style="stroke:#A80036;stroke-width:1.0;"/><text fill="#A52A2A" font-family="sans-serif" font-size="14" lengthAdjust="spacing" textLength="55.4873" x="1301.6649" y="473.2817">&#1061;&#1072;&#1081;&#1085;&#1072;&#1085;&#1100;</text></g><!--entity Su Lin--><g id="elem_Su Lin"><ellipse cx="1578.8481" cy="432.6211" fill="#FEFECE" filter="url(#f1gd40knqb2rzc)" rx="8" ry="8" style="stroke:#A80036;stroke-width:2.0;"/><path d="M1578.8481,440.6211 L1578.8481,467.6211 M1565.8481,448.6211 L1591.8481,448.6211 M1578.8481,467.6211 L1565.8481,482.6211 M1578.8481,467.6211 L1591.8481,482.6211 " fill="none" filter="url(#f1gd40knqb2rzc)" style="stroke:#A80036;stroke-width:2.0;"/><text fill="#A52A2A" font-family="sans-serif" font-size="14" lengthAdjust="spacing" textLength="39.6963" x="1559" y="504.7285">Su Lin</text></g><!--link Sloan to Alva--><g id="link_Sloan_Alva"><path d="M1107.5,409.8711 C1107.5,433.1811 1107.5,455.8711 1107.5,479.2111 " fill="none" id="Sloan-to-Alva" style="stroke:#0000FF;stroke-width:1.0;"/><polygon fill="#0000FF" points="1107.5,485.2111,1111.5,476.2111,1107.5,480.2111,1103.5,476.2111,1107.5,485.2111" style="stroke:#0000FF;stroke-width:1.0;"/><text fill="#228B22" font-family="sans-serif" font-size="13" lengthAdjust="spacing" textLength="28.8945" x="1081" y="453.1494">&#1084;&#1072;&#1090;&#1100;</text></g><!--link Fang to Sloan--><g id="link_Fang_Sloan"><path d="M1107.5,269.8711 C1107.5,286.9111 1107.5,300.4411 1107.5,317.4711 " fill="none" id="Fang-to-Sloan" style="stroke:#0000FF;stroke-width:1.0;"/><polygon fill="#0000FF" points="1107.5,323.4711,1111.5,314.4711,1107.5,318.4711,1103.5,314.4711,1107.5,323.4711" style="stroke:#0000FF;stroke-width:1.0;"/><text fill="#228B22" font-family="sans-serif" font-size="13" lengthAdjust="spacing" textLength="70.6812" x="1060" y="302.1494">&#1074; &#1080;&#1090;&#1086;&#1075;&#1077; &#1084;&#1091;&#1078;</text></g><!--link Fang to ???????--><g id="link_Fang_&#1089;&#1074;&#1072;&#1076;&#1100;&#1073;&#1072;"><path d="M1133.22,240.1411 C1175.74,263.4111 1262.34,310.7811 1305.64,334.4711 " fill="none" id="Fang-&#1089;&#1074;&#1072;&#1076;&#1100;&#1073;&#1072;" style="stroke:#0000FF;stroke-width:1.0;"/><text fill="#228B22" font-family="sans-serif" font-size="13" lengthAdjust="spacing" textLength="36.8672" x="1189" y="255.6494">&#1078;&#1077;&#1085;&#1080;&#1093;</text></g><!--link Sloan to ???????--><g id="link_Sloan_&#1089;&#1074;&#1072;&#1076;&#1100;&#1073;&#1072;"><path d="M1125.63,365.2411 C1159.08,362.5411 1234.16,356.4811 1283.81,352.4711 " fill="none" id="Sloan-&#1089;&#1074;&#1072;&#1076;&#1100;&#1073;&#1072;" style="stroke:#0000FF;stroke-width:1.0;"/><text fill="#228B22" font-family="sans-serif" font-size="13" lengthAdjust="spacing" textLength="48.2295" x="1183" y="350.6494">&#1085;&#1077;&#1074;&#1077;&#1089;&#1090;&#1072;</text></g><!--link Alva to ???????--><g id="link_Alva_&#1089;&#1074;&#1072;&#1076;&#1100;&#1073;&#1072;"><path d="M1122.83,513.7111 C1133.56,502.7911 1148.77,487.8211 1163,475.6211 C1213.62,432.2311 1277.43,386.3511 1310.09,363.4411 " fill="none" id="Alva-&#1089;&#1074;&#1072;&#1076;&#1100;&#1073;&#1072;" style="stroke:#0000FF;stroke-width:1.0;"/><text fill="#228B22" font-family="sans-serif" font-size="13" lengthAdjust="spacing" textLength="82.3164" x="1166" y="403.6494">&#1076;&#1086;&#1095;&#1100; &#1085;&#1077;&#1074;&#1077;&#1089;&#1090;&#1099;</text></g><!--link ??????? to Feng--><g id="link_&#1089;&#1074;&#1072;&#1076;&#1100;&#1073;&#1072;_Feng"><path d="M1382.68,347.8211 C1438.88,346.9011 1527.62,345.4411 1562.85,344.8711 " fill="none" id="&#1089;&#1074;&#1072;&#1076;&#1100;&#1073;&#1072;-Feng" style="stroke:#0000FF;stroke-width:1.0;"/><text fill="#228B22" font-family="sans-serif" font-size="13" lengthAdjust="spacing" textLength="31.1987" x="1430.5" y="341.6494">&#1075;&#1086;&#1089;&#1090;&#1100;</text></g><!--link Li to Alva--><g id="link_Li_Alva"><path d="M865.22,479.2011 C921.62,490.7511 1043.6421,515.7469 1086.4021,524.5069 " fill="none" id="Li-to-Alva" style="stroke:#0000FF;stroke-width:1.0;"/><polygon fill="#0000FF" points="1092.28,525.7111,1084.2659,519.9862,1087.3817,524.7076,1082.6603,527.8234,1092.28,525.7111" style="stroke:#0000FF;stroke-width:1.0;"/><text fill="#228B22" font-family="sans-serif" font-size="13" lengthAdjust="spacing" textLength="96.7256" x="948.5" y="491.6494">&#1083;&#1091;&#1095;&#1096;&#1072;&#1103; &#1087;&#1086;&#1076;&#1088;&#1091;&#1075;&#1072;</text></g><!--link ????? to Alva--><g id="link_&#1096;&#1082;&#1086;&#1083;&#1072;_Alva"><path d="M527.73,570.1811 C602.75,569.0811 770.38,565.4111 911,553.6211 C979.2,547.9011 1060.16,535.8611 1092.32,530.8611 " fill="none" id="&#1096;&#1082;&#1086;&#1083;&#1072;-Alva" style="stroke:#0000FF;stroke-width:1.0;"/><text fill="#228B22" font-family="sans-serif" font-size="13" lengthAdjust="spacing" textLength="125.563" x="774.5" y="549.6494">&#1086;&#1090;&#1074;&#1077;&#1090;&#1089;&#1090;&#1074;&#1077;&#1085;&#1085;&#1072;&#1103; &#1079;&#1072; &#1044;&#1047;</text></g><!--link ????? to Li--><g id="link_&#1096;&#1082;&#1086;&#1083;&#1072;_Li"><path d="M520.43,561.5811 C588.59,542.5811 745.67,498.8011 808.9,481.1711 " fill="none" id="&#1096;&#1082;&#1086;&#1083;&#1072;-Li" style="stroke:#0000FF;stroke-width:1.0;"/></g><!--link Zhang to ?????--><g id="link_Zhang_&#1096;&#1082;&#1086;&#1083;&#1072;"><path d="M227.19,570.6211 C283.24,570.6211 388.92,570.6211 446.37,570.6211 " fill="none" id="Zhang-&#1096;&#1082;&#1086;&#1083;&#1072;" style="stroke:#0000FF;stroke-width:1.0;"/><text fill="#228B22" font-family="sans-serif" font-size="13" lengthAdjust="spacing" textLength="91.8442" x="259" y="566.6494">&#1086;&#1076;&#1085;&#1086;&#1082;&#1083;&#1072;&#1089;&#1089;&#1085;&#1080;&#1094;&#1072;</text></g><!--link Liu to Li--><g id="link_Liu_Li"><path d="M837,376.8711 C837,393.9111 837,407.4411 837,424.4711 " fill="none" id="Liu-to-Li" style="stroke:#0000FF;stroke-width:1.0;"/><polygon fill="#0000FF" points="837,430.4711,841,421.4711,837,425.4711,833,421.4711,837,430.4711" style="stroke:#0000FF;stroke-width:1.0;"/><text fill="#228B22" font-family="sans-serif" font-size="13" lengthAdjust="spacing" textLength="59.9663" x="795" y="409.1494">superviser</text></g><!--link ????? to Song--><g id="link_&#1096;&#1082;&#1086;&#1083;&#1072;_Song"><path d="M487,586.7711 C487,600.7911 487,621.7411 487,640.5811 " fill="none" id="&#1096;&#1082;&#1086;&#1083;&#1072;-Song" style="stroke:#0000FF;stroke-width:1.0;"/><text fill="#228B22" font-family="sans-serif" font-size="13" lengthAdjust="spacing" textLength="77.1938" x="436" y="619.1494">&#1091;&#1095;&#1080;&#1090;&#1077;&#1083;&#1100;&#1085;&#1080;&#1094;&#1072;</text></g><!--link Gao to ?????--><g id="link_Gao_&#1096;&#1082;&#1086;&#1083;&#1072;"><path d="M228.09,465.1911 C288.52,489.8911 404.95,537.4911 458.19,559.2511 " fill="none" id="Gao-&#1096;&#1082;&#1086;&#1083;&#1072;" style="stroke:#0000FF;stroke-width:1.0;"/><text fill="#228B22" font-family="sans-serif" font-size="13" lengthAdjust="spacing" textLength="40.6313" x="284.5" y="474.6494">&#1091;&#1095;&#1077;&#1085;&#1080;&#1082;</text></g><!--link Teng to Gao--><g id="link_Teng_Gao"><path d="M62,400.2111 C86.36,409.7611 116.8846,421.7295 144.2046,432.4495 " fill="none" id="Teng-to-Gao" style="stroke:#0000FF;stroke-width:1.0;"/><polygon fill="#0000FF" points="149.79,434.6411,142.873,427.63,145.1355,432.8147,139.9508,435.0772,149.79,434.6411" style="stroke:#0000FF;stroke-width:1.0;"/><text fill="#228B22" font-family="sans-serif" font-size="13" lengthAdjust="spacing" textLength="26.0571" x="93" y="407.6494">&#1076;&#1088;&#1091;&#1075;</text></g><!--link Doggy to Gao--><g id="link_Doggy_Gao"><path d="M54.07,503.0211 C77.94,493.5011 113.8162,479.1922 144.3062,467.0422 " fill="none" id="Doggy-to-Gao" style="stroke:#0000FF;stroke-width:1.0;"/><polygon fill="#0000FF" points="149.88,464.8211,140.0386,464.4369,145.2352,466.672,143.0001,471.8686,149.88,464.8211" style="stroke:#0000FF;stroke-width:1.0;"/><text fill="#228B22" font-family="sans-serif" font-size="13" lengthAdjust="spacing" textLength="26.0571" x="93" y="473.6494">&#1076;&#1088;&#1091;&#1075;</text></g><!--link Ciyi to Fang--><g id="link_Ciyi_Fang"><path d="M1107.5,129.8711 C1107.5,146.9111 1107.5,158.4411 1107.5,175.4711 " fill="none" id="Ciyi-to-Fang" style="stroke:#0000FF;stroke-width:1.0;"/><polygon fill="#0000FF" points="1107.5,183.4711,1110.5,175.4711,1104.5,175.4711,1107.5,183.4711" style="stroke:#0000FF;stroke-width:1.0;"/><text fill="#228B22" font-family="sans-serif" font-size="13" lengthAdjust="spacing" textLength="30.3354" x="1080" y="162.1494">&#1078;&#1077;&#1085;&#1072;</text></g><!--link Qingdao to Ciyi--><g id="link_Qingdao_Ciyi"><path d="M893.79,211.6911 C948.27,200.2411 1026.57,181.4711 1052,163.6211 C1069.29,151.4811 1083,132.0311 1092.34,115.7111 " fill="none" id="Qingdao-Ciyi" style="stroke:#0000FF;stroke-width:1.0;"/></g><!--link Qingdao to Fang--><g id="link_Qingdao_Fang"><path d="M911.01,223.7111 C967.85,224.5511 1043.32,225.6811 1081.74,226.2511 " fill="none" id="Qingdao-Fang" style="stroke:#0000FF;stroke-width:1.0;"/></g><!--link Qingdao to Sloan--><g id="link_Qingdao_Sloan"><path d="M866.99,238.1711 C922.99,268.2011 1044.49,333.3611 1089.38,357.4411 " fill="none" id="Qingdao-Sloan" style="stroke:#0000FF;stroke-width:1.0;"/></g><!--link Huang to Qingdao--><g id="link_Huang_Qingdao"><path d="M507.71,101.8711 C563.35,122.3411 722.44,180.8511 796.8,208.2011 " fill="none" id="Huang-Qingdao" style="stroke:#0000FF;stroke-width:1.0;"/><text fill="#228B22" font-family="sans-serif" font-size="13" lengthAdjust="spacing" textLength="105.4092" x="625.5" y="143.6494">&#1087;&#1088;&#1086;&#1076;&#1072;&#1074;&#1077;&#1094; &#1084;&#1086;&#1083;&#1086;&#1082;&#1072;</text></g><!--link Qi to Qingdao--><g id="link_Qi_Qingdao"><path d="M837,170.8511 C837,182.4111 837,193.9811 837,205.5511 " fill="none" id="Qi-Qingdao" style="stroke:#0000FF;stroke-width:1.0;"/></g><!--link Qi to Fang--><g id="link_Qi_Fang"><path d="M860.23,134.0111 C899.52,145.5511 983.54,171.3011 1052,199.6211 C1061.95,203.7411 1067.2751,206.1547 1076.5151,210.8247 " fill="none" id="Qi-to-Fang" style="stroke:#0000FF;stroke-width:1.0;"/><polygon fill="#0000FF" points="1081.87,213.5311,1075.6419,205.9015,1077.4076,211.2757,1072.0333,213.0414,1081.87,213.5311" style="stroke:#0000FF;stroke-width:1.0;"/><text fill="#228B22" font-family="sans-serif" font-size="13" lengthAdjust="spacing" textLength="109.5986" x="942" y="155.6494">&#1074;&#1099;&#1077;&#1079;&#1076;&#1085;&#1086;&#1081; &#1082;&#1086;&#1083;&#1083;&#1077;&#1075;&#1072;</text></g><!--link Wang to Qingdao--><g id="link_Wang_Qingdao"><path d="M527.24,323.7611 C593.19,302.1611 725.68,258.7611 793.65,236.4911 " fill="none" id="Wang-Qingdao" style="stroke:#0000FF;stroke-width:1.0;"/><text fill="#228B22" font-family="sans-serif" font-size="13" lengthAdjust="spacing" textLength="108.272" x="624" y="255.6494">&#1089;&#1086;&#1089;&#1077;&#1076;&#1082;&#1072; &#1089; 1 &#1101;&#1090;&#1072;&#1078;&#1072;</text></g><!--link Yu to ?????--><g id="link_Yu_&#1096;&#1082;&#1086;&#1083;&#1072;"><path d="M487,501.0911 C487,519.8011 487,540.5211 487,554.4311 " fill="none" id="Yu-&#1096;&#1082;&#1086;&#1083;&#1072;" style="stroke:#0000FF;stroke-width:1.0;"/><text fill="#228B22" font-family="sans-serif" font-size="13" lengthAdjust="spacing" textLength="153.0483" x="398" y="533.1494">&#1080;&#1079; &#1087;&#1072;&#1088;&#1072;&#1083;&#1083;&#1077;&#1083;&#1100;&#1085;&#1086;&#1075;&#1086; &#1082;&#1083;&#1072;&#1089;&#1089;&#1072;</text></g><!--link Jim to Qingdao--><g id="link_Jim_Qingdao"><path d="M502.07,215.9011 C545.31,216.7711 678.38,219.4511 762.9,221.1511 " fill="none" id="Jim-Qingdao" style="stroke:#0000FF;stroke-width:1.0;"/><text fill="#228B22" font-family="sans-serif" font-size="13" lengthAdjust="spacing" textLength="49.8037" x="653.5" y="214.6494">&#1087;&#1080;&#1074;&#1086;&#1074;&#1072;&#1088;</text></g><!--link Fang to Lu Min--><g id="link_Fang_Lu Min"><path d="M1133.22,212.2111 C1177.67,186.3011 1265.0965,135.3329 1306.0765,111.4429 " fill="none" id="Fang-to-Lu Min" style="stroke:#0000FF;stroke-width:1.0;"/><polygon fill="#0000FF" points="1311.26,108.4211,1301.4702,109.4981,1306.9404,110.9393,1305.4993,116.4095,1311.26,108.4211" style="stroke:#0000FF;stroke-width:1.0;"/><text fill="#228B22" font-family="sans-serif" font-size="13" lengthAdjust="spacing" textLength="23.0229" x="1195.5" y="142.6494">&#1089;&#1099;&#1085;</text></g><!--link Ciyi to Lu Min--><g id="link_Ciyi_Lu Min"><path d="M1122.79,87.2611 C1161.24,88.9911 1261.006,93.4626 1305.436,95.4526 " fill="none" id="Ciyi-to-Lu Min" style="stroke:#0000FF;stroke-width:1.0;"/><polygon fill="#0000FF" points="1311.43,95.7211,1302.618,91.3224,1306.435,95.4974,1302.26,99.3144,1311.43,95.7211" style="stroke:#0000FF;stroke-width:1.0;"/><text fill="#228B22" font-family="sans-serif" font-size="13" lengthAdjust="spacing" textLength="23.0229" x="1195.5" y="85.6494">&#1089;&#1099;&#1085;</text></g><!--link Alva to new_school--><g id="link_Alva_new_school"><path d="M1122.71,533.2311 C1148.41,541.5911 1204.28,559.9711 1251,576.6211 C1357.27,614.4911 1481.74,662.2611 1541.86,685.5511 " fill="none" id="Alva-new_school" style="stroke:#0000FF;stroke-width:1.0;"/></g><!--link new_school to Steward--><g id="link_new_school_Steward"><path d="M1612.34,714.3311 C1660.98,736.4411 1752.66,778.1311 1803.41,801.2111 " fill="none" id="new_school-Steward" style="stroke:#0000FF;stroke-width:1.0;"/><text fill="#228B22" font-family="sans-serif" font-size="13" lengthAdjust="spacing" textLength="77.1938" x="1688" y="743.6494">&#1091;&#1095;&#1080;&#1090;&#1077;&#1083;&#1100;&#1085;&#1080;&#1094;&#1072;</text></g><!--link Alva to Zoey--><g id="link_Alva_Zoey"><path d="M1122.56,551.2211 C1132.59,566.1511 1147.08,585.4911 1163,599.6211 C1213.12,644.1011 1280.4074,676.8813 1311.2874,690.7613 " fill="none" id="Alva-to-Zoey" style="stroke:#0000FF;stroke-width:1.0;"/><polygon fill="#0000FF" points="1316.76,693.2211,1310.191,685.883,1312.1995,691.1712,1306.9112,693.1797,1316.76,693.2211" style="stroke:#0000FF;stroke-width:1.0;"/><text fill="#228B22" font-family="sans-serif" font-size="13" lengthAdjust="spacing" textLength="86.7534" x="1164" y="595.6494">&#1085;&#1086;&#1074;&#1072;&#1103; &#1087;&#1086;&#1076;&#1088;&#1091;&#1075;&#1072;</text></g><!--link Zoey to new_school--><g id="link_Zoey_new_school"><path d="M1348.06,699.6211 C1378.85,699.6211 1452.3,699.6211 1507.96,699.6211 " fill="none" id="Zoey-new_school" style="stroke:#0000FF;stroke-width:1.0;"/></g><!--link Zoey to zoey_home--><g id="link_Zoey_zoey_home"><path d="M1348.26,714.7011 C1378.1,745.1011 1447.89,815.7711 1508,873.6211 C1525.81,890.7511 1546.6,909.9611 1560.87,923.0311 " fill="none" id="Zoey-zoey_home" style="stroke:#0000FF;stroke-width:1.0;"/></g><!--link new_school to Ashley--><g id="link_new_school_Ashley"><path d="M1650.22,698.8111 C1707.11,698.1511 1783.49,697.2711 1819.34,696.8511 " fill="none" id="new_school-Ashley" style="stroke:#0000FF;stroke-width:1.0;"/><text fill="#228B22" font-family="sans-serif" font-size="13" lengthAdjust="spacing" textLength="91.8442" x="1681" y="692.6494">&#1086;&#1076;&#1085;&#1086;&#1082;&#1083;&#1072;&#1089;&#1089;&#1085;&#1080;&#1094;&#1072;</text></g><!--link new_school to korean--><g id="link_new_school_korean"><path d="M1606.31,684.2111 C1652.83,656.9611 1749.67,600.2311 1802.75,569.1411 " fill="none" id="new_school-korean" style="stroke:#0000FF;stroke-width:1.0;"/></g><!--link Julia to Zoey--><g id="link_Julia_Zoey"><path d="M1122.81,806.1611 C1148.65,794.4211 1204.74,768.5511 1251,744.6211 C1274.32,732.5511 1295.6082,720.4886 1311.6282,711.2086 " fill="none" id="Julia-to-Zoey" style="stroke:#0000FF;stroke-width:1.0;"/><polygon fill="#0000FF" points="1316.82,708.2011,1307.0273,709.2511,1312.4935,710.7073,1311.0373,716.1735,1316.82,708.2011" style="stroke:#0000FF;stroke-width:1.0;"/><text fill="#228B22" font-family="sans-serif" font-size="13" lengthAdjust="spacing" textLength="28.8945" x="1193" y="740.6494">&#1084;&#1072;&#1090;&#1100;</text></g><!--link Julia to zoey_home--><g id="link_Julia_zoey_home"><path d="M1122.55,821.9311 C1151.06,840.3411 1218.36,881.2811 1281,900.6211 C1365.19,926.6211 1468.09,934.8511 1528.02,937.4411 " fill="none" id="Julia-zoey_home" style="stroke:#0000FF;stroke-width:1.0;"/></g><!--link zoey_home to Feng_driver--><g id="link_zoey_home_Feng_driver"><path d="M1608.76,952.0311 C1663.79,977.6911 1782.24,1032.9211 1824.3,1052.5311 " fill="none" id="zoey_home-Feng_driver" style="stroke:#0000FF;stroke-width:1.0;"/><text fill="#228B22" font-family="sans-serif" font-size="13" lengthAdjust="spacing" textLength="56.5259" x="1698.5" y="983.6494">&#1074;&#1086;&#1076;&#1080;&#1090;&#1077;&#1083;&#1100;</text></g><!--link zoey_home to girlie--><g id="link_zoey_home_girlie"><path d="M1630.03,938.6211 C1689.83,938.6211 1786.51,938.6211 1823.97,938.6211 " fill="none" id="zoey_home-girlie" style="stroke:#0000FF;stroke-width:1.0;"/><text fill="#228B22" font-family="sans-serif" font-size="13" lengthAdjust="spacing" textLength="56.6084" x="1698.5" y="934.6494">&#1089;&#1083;&#1091;&#1078;&#1072;&#1085;&#1082;&#1072;</text></g><!--link korean to Ashley--><g id="link_korean_Ashley"><path d="M1840.5,599.8711 C1840.5,617.4111 1840.5,630.7611 1840.5,647.5211 " fill="none" id="korean-to-Ashley" style="stroke:#0000FF;stroke-width:1.0;"/><polygon fill="#0000FF" points="1840.5,653.5211,1844.5,644.5211,1840.5,648.5211,1836.5,644.5211,1840.5,653.5211" style="stroke:#0000FF;stroke-width:1.0;"/><text fill="#228B22" font-family="sans-serif" font-size="13" lengthAdjust="spacing" textLength="47.5566" x="1804.5" y="632.1494">&#1087;&#1086;&#1076;&#1088;&#1091;&#1075;&#1072;</text></g><!--link Daniel to zoey_home--><g id="link_Daniel_zoey_home"><path d="M857.16,819.0411 C918.21,839.2211 1113.96,901.7011 1281,930.6211 C1339.44,940.7411 1354.74,939.1711 1414,941.6211 C1452.41,943.2111 1495.92,942.2811 1528.46,941.0611 " fill="none" id="Daniel-zoey_home" style="stroke:#0000FF;stroke-width:1.0;"/></g><!--link Daniel to Zoey--><g id="link_Daniel_Zoey"><path d="M857.18,806.2111 C907.03,789.7611 1045.02,745.7111 1163,721.6211 C1219.37,710.1111 1281.6527,703.8928 1310.9827,701.3328 " fill="none" id="Daniel-to-Zoey" style="stroke:#0000FF;stroke-width:1.0;"/><polygon fill="#0000FF" points="1316.96,700.8111,1307.6463,697.6088,1311.9789,701.2459,1308.3419,705.5785,1316.96,700.8111" style="stroke:#0000FF;stroke-width:1.0;"/><text fill="#228B22" font-family="sans-serif" font-size="13" lengthAdjust="spacing" textLength="27.8599" x="1094" y="724.6494">&#1086;&#1090;&#1077;&#1094;</text></g><!--link Daniel to Julia--><g id="link_Daniel_Julia"><path d="M857.31,812.6211 C908.65,812.6211 1041.68,812.6211 1086.42,812.6211 " fill="none" id="Daniel-to-Julia" style="stroke:#0000FF;stroke-width:1.0;"/><polygon fill="#0000FF" points="1092.42,812.6211,1083.42,808.6211,1087.42,812.6211,1083.42,816.6211,1092.42,812.6211" style="stroke:#0000FF;stroke-width:1.0;"/><text fill="#228B22" font-family="sans-serif" font-size="13" lengthAdjust="spacing" textLength="24.1338" x="984.5" y="808.6494">&#1084;&#1091;&#1078;</text></g><!--reverse link Zoey to Gabe--><g id="link_Zoey_Gabe"><path d="M1332.5,748.8711 C1332.5,765.9111 1332.5,779.4411 1332.5,796.4711 " fill="none" id="Zoey-backto-Gabe" style="stroke:#0000FF;stroke-width:1.0;"/><polygon fill="#0000FF" points="1332.5,742.8711,1328.5,751.8711,1332.5,747.8711,1336.5,751.8711,1332.5,742.8711" style="stroke:#0000FF;stroke-width:1.0;"/><text fill="#228B22" font-family="sans-serif" font-size="13" lengthAdjust="spacing" textLength="26.0571" x="1307" y="775.1494">&#1076;&#1088;&#1091;&#1075;</text></g><!--link new_school to Su--><g id="link_new_school_Su"><path d="M1579,716.3311 C1579,730.3411 1579,750.9911 1579,769.5811 " fill="none" id="new_school-Su" style="stroke:#0000FF;stroke-width:1.0;"/><text fill="#228B22" font-family="sans-serif" font-size="13" lengthAdjust="spacing" textLength="121.3354" x="1506" y="748.3994">&#1087;&#1086;&#1084;&#1086;&#1097;&#1085;&#1080;&#1082; &#1090;&#1088;&#1077;&#1085;&#1077;&#1085;&#1088;&#1072;</text></g><!--link banquet to Daniel--><g id="link_banquet_Daniel"><path d="M593.36,812.6211 C672.78,812.6211 774.92,812.6211 816.8,812.6211 " fill="none" id="banquet-Daniel" style="stroke:#0000FF;stroke-width:1.0;"/><text fill="#228B22" font-family="sans-serif" font-size="13" lengthAdjust="spacing" textLength="55.4087" x="650.5" y="808.6494">&#1076;&#1080;&#1088;&#1077;&#1082;&#1090;&#1086;&#1088;</text></g><!--link banquet to Alva--><g id="link_banquet_Alva"><path d="M536.77,791.8311 C635.14,749.6211 863.94,650.0511 1052,557.6211 C1065.85,550.8111 1081.36,542.4911 1092.29,536.5111 " fill="none" id="banquet-Alva" style="stroke:#0000FF;stroke-width:1.0;"/></g><!--link banquet to Zoey--><g id="link_banquet_Zoey"><path d="M545.11,832.3611 C659.43,868.7911 923.41,937.3011 1133,873.6211 C1217.85,847.8411 1287.84,761.6211 1316.95,721.0611 " fill="none" id="banquet-Zoey" style="stroke:#0000FF;stroke-width:1.0;"/></g><!--link Charles Zhe to banquet--><g id="link_Charles Zhe_banquet"><path d="M227.19,706.8211 C279.9,728.3711 376.5,767.8611 435.61,792.0211 " fill="none" id="Charles Zhe-banquet" style="stroke:#0000FF;stroke-width:1.0;"/><text fill="#228B22" font-family="sans-serif" font-size="13" lengthAdjust="spacing" textLength="55.4087" x="277" y="716.6494">&#1076;&#1080;&#1088;&#1077;&#1082;&#1090;&#1086;&#1088;</text></g><!--link Lily to banquet--><g id="link_Lily_banquet"><path d="M218.11,812.6211 C255.27,812.6211 322.81,812.6211 380.78,812.6211 " fill="none" id="Lily-banquet" style="stroke:#0000FF;stroke-width:1.0;"/></g><!--link Alice Fan to banquet--><g id="link_Alice Fan_banquet"><path d="M218.11,922.1311 C268.04,901.7211 372.83,858.8811 435.53,833.2511 " fill="none" id="Alice Fan-banquet" style="stroke:#0000FF;stroke-width:1.0;"/><text fill="#228B22" font-family="sans-serif" font-size="13" lengthAdjust="spacing" textLength="55.4087" x="277" y="864.6494">&#1076;&#1080;&#1088;&#1077;&#1082;&#1090;&#1086;&#1088;</text></g><!--link Ms. McCoy to new_school--><g id="link_Ms. McCoy_new_school"><path d="M1579,629.7311 C1579,648.3211 1579,668.9511 1579,682.9511 " fill="none" id="Ms. McCoy-new_school" style="stroke:#0000FF;stroke-width:1.0;"/><text fill="#228B22" font-family="sans-serif" font-size="13" lengthAdjust="spacing" textLength="61.1279" x="1536" y="661.8994">&#1080;&#1089;&#1090;&#1086;&#1088;&#1080;&#1095;&#1082;&#1072;</text></g><!--link Fang to "Old Two"--><g id="link_Fang_&quot;Old Two&quot;"><path d="M1133.22,226.6211 C1174.38,226.6211 1250.84,226.6211 1295.35,226.6211 " fill="none" id="Fang-to-&quot;Old Two&quot;" style="stroke:#0000FF;stroke-width:1.0;"/><polygon fill="#0000FF" points="1301.35,226.6211,1292.35,222.6211,1296.35,226.6211,1292.35,230.6211,1301.35,226.6211" style="stroke:#0000FF;stroke-width:1.0;"/><text fill="#228B22" font-family="sans-serif" font-size="13" lengthAdjust="spacing" textLength="27.8599" x="1193.5" y="222.6494">&#1073;&#1088;&#1072;&#1090;</text></g><!--link Alva to ???????--><g id="link_Alva_&#1061;&#1072;&#1081;&#1085;&#1072;&#1085;&#1100;"><path d="M1122.79,524.7811 C1156.53,515.7011 1242.1,492.6711 1292.58,479.0911 " fill="none" id="Alva-&#1061;&#1072;&#1081;&#1085;&#1072;&#1085;&#1100;" style="stroke:#0000FF;stroke-width:1.0;"/></g><!--link ??????? to Su Lin--><g id="link_&#1061;&#1072;&#1081;&#1085;&#1072;&#1085;&#1100;_Su Lin"><path d="M1384.16,468.0011 C1438.43,467.3311 1521.77,466.3111 1558.95,465.8511 " fill="none" id="&#1061;&#1072;&#1081;&#1085;&#1072;&#1085;&#1100;-Su Lin" style="stroke:#0000FF;stroke-width:1.0;"/><text fill="#228B22" font-family="sans-serif" font-size="13" lengthAdjust="spacing" textLength="62.9116" x="1415" y="462.6494">&#1073;&#1072;&#1088;&#1084;&#1077;&#1085;&#1096;&#1072;</text></g><!--SRC=[XLPRJnj757wVNp5A7WfIg9I7IkqAMOf8qwe2LIsHQFA2rlRO7h7iqBs0w1EGDaqKH-b3fVo2lXk30x6nynTc_r6_SsPllZHz09yvz_lPG7KIcHWPwMulaMqTgLQYJIZY0ntAoCIAeIC_yWzbqsyTT2EJXksM2KmaO-N7FHK4DPQswlXfa7HCc3YU-yt8d8Gr3Zy2eg05gLearKGx9b9nqesK2eL8T18e-RC-Lf7yre-J1pcy1nOXlDt0-A4dxn_fy03FHy6nNxssK_d43xkUz6C6AeAMl-ZmH6acRMiXM8_SQ4ZI83rfx-mWkyZwGWYM1CMnW3IKzZQxi3DxPKTWp5xO3wBasv1hsRaTse6zplhsqWxMIUI37TaffFue3Arccu9jQ4VPETGF1Blo7vpNTfRzcVNdHB8ty6A96Ggy9ugo0B4hY9tdSI496xM09zaBQ7o5iDz9-mdHNMTd2EqAZa3fApi6Qf8hB6Hcy9ECNx37GmvowZJSs86qVzltIxAKRUzvZvArs_CDLu2VG7_d6nJ6DnsgAV1u0xiJVobtJLv70hY2QLwxL0YdZJDLiqN-8KzJ_1yJ1ZwUSn5UKaWGfA8Y2PwCqoCL7UjOHOkXiZa95aeELts4HFKhDUJnic7cvehRCPnzYlHJmx77z13UOzFjdlAR8I6OX-f16gd0Blk2oQi8qBkbJrq74q2r_qc7tRPl7iY7ttpzrJfHSemGn8A06suGofP423aBXS5wQc_YhR-vUM7u-xGOAuQ4HqM3BS-P5DuF-f1X_68eqp3HIkuLCdiiyYoLMpq5IbxhPoYaO7LagJ0AHpzbPrp80RVQInfDIZHLTG3dPCdCZoh0OVO68TxaBV1HvWMQ04bDlRTa2Us1wG3vcbJZAH_Ax2sD8fA5HC7ZvHQxjJSqBWCuESYrkmQXzJ2JjTQ31gHZCJWe689tI1hA7TAGjBjsg6F8BGGopGkuaYI-a6nmoADNEIZjN-pCa3R3saeMRf9GdUp7hPunWIYNJXs72PIxYJhnexQRGGSBKJ5nTpZqPwR5UswKwte2IcCDVhe5MBYuk8AOOy6lDIoOcRsJzZr-RZcKty2stpE7gfAeeURzzHx5lO3yaTxdDWMQ-TGOrwG7E4rOtvkRb3-KV9Iz0oEwfT5OrEvO8UwMBvqW0FljYCuNbAQ1zjsC48JTfwD0AyPq6KIx46KkF-LLAaZrw4gGHxSoniF04PObcUTrzjm4JEYSePKvAY7oWEbESB9SpyvLndliXre5RfanA8JxdVUln5NXqFt0IDT9BZ2llAku2KsL7uDcKTND3NxDhKDkKdSKTjFvOW1H-8tTaRrsYraYasUy1F57uqlB_tTG9XG-4sSqdxJAaPWnA5WYbtbkSFIuuPf- -6kgy2cI0nHp7WwVwLksCQRl1GnuoSGdj2xZ1iBRwlbHeEWY8cYW2uuLkh1qSRwEYkxQri6fe7yrCVeWqYr5A_7_jBapkzFQCXY8-fZnakFxJWrFsU36g3RLlH-3jdnwOkxn5yObPJAxg1R9clq7AVj8jmPPxQ_JsCvZU1PHecstr2Z5K7B7PS7tYFWN]--></g></svg>