<svg xmlns="http://www.w3.org/2000/svg" xmlns:xlink="http://www.w3.org/1999/xlink" contentStyleType="text/css" height="788px" preserveAspectRatio="none" style="width:1467px;height:788px;" version="1.1" viewBox="0 0 1467 788" width="1467px" zoomAndPan="magnify"><defs><filter height="300%" id="f1nyz3xofox213" width="300%" x="-1" y="-1"><feGaussianBlur result="blurOut" stdDeviation="2.0"/><feColorMatrix in="blurOut" result="blurOut2" type="matrix" values="0 0 0 0 0 0 0 0 0 0 0 0 0 0 0 0 0 0 .4 0"/><feOffset dx="4.0" dy="4.0" in="blurOut2" result="blurOut3"/><feBlend in="SourceGraphic" in2="blurOut3" mode="normal"/></filter></defs><g><text fill="#A52A2A" font-family="sans-serif" font-size="14" font-weight="bold" lengthAdjust="spacing" textLength="148.6201" x="652.645" y="25.1074">River East, River West</text><!--entity Sloan--><g id="elem_Sloan"><ellipse cx="1017.4033" cy="339.6211" fill="#FEFECE" filter="url(#f1nyz3xofox213)" rx="8" ry="8" style="stroke:#A80036;stroke-width:2.0;"/><path d="M1017.4033,347.6211 L1017.4033,374.6211 M1004.4033,355.6211 L1030.4033,355.6211 M1017.4033,374.6211 L1004.4033,389.6211 M1017.4033,374.6211 L1030.4033,389.6211 " fill="none" filter="url(#f1nyz3xofox213)" style="stroke:#A80036;stroke-width:2.0;"/><text fill="#A52A2A" font-family="sans-serif" font-size="14" lengthAdjust="spacing" textLength="35.8066" x="999.5" y="411.7285">Sloan</text></g><!--entity Alva--><g id="elem_Alva"><ellipse cx="1017.5" cy="479.6211" fill="#FEFECE" filter="url(#f1nyz3xofox213)" rx="8" ry="8" style="stroke:#A80036;stroke-width:2.0;"/><path d="M1017.5,487.6211 L1017.5,514.6211 M1004.5,495.6211 L1030.5,495.6211 M1017.5,514.6211 L1004.5,529.6211 M1017.5,514.6211 L1030.5,529.6211 " fill="none" filter="url(#f1nyz3xofox213)" style="stroke:#A80036;stroke-width:2.0;"/><text fill="#A52A2A" font-family="sans-serif" font-size="14" lengthAdjust="spacing" textLength="27.2344" x="1003.8828" y="551.7285">Alva</text></g><!--entity Fang--><g id="elem_Fang"><ellipse cx="1017.686" cy="199.6211" fill="#FEFECE" filter="url(#f1nyz3xofox213)" rx="8" ry="8" style="stroke:#A80036;stroke-width:2.0;"/><path d="M1017.686,207.6211 L1017.686,234.6211 M1004.686,215.6211 L1030.686,215.6211 M1017.686,234.6211 L1004.686,249.6211 M1017.686,234.6211 L1030.686,249.6211 " fill="none" filter="url(#f1nyz3xofox213)" style="stroke:#A80036;stroke-width:2.0;"/><text fill="#A52A2A" font-family="sans-serif" font-size="14" lengthAdjust="spacing" textLength="51.3721" x="992" y="271.7285">Lu Fang</text></g><!--entity Li--><g id="elem_Li"><ellipse cx="760.0137" cy="706.6211" fill="#FEFECE" filter="url(#f1nyz3xofox213)" rx="8" ry="8" style="stroke:#A80036;stroke-width:2.0;"/><path d="M760.0137,714.6211 L760.0137,741.6211 M747.0137,722.6211 L773.0137,722.6211 M760.0137,741.6211 L747.0137,756.6211 M760.0137,741.6211 L773.0137,756.6211 " fill="none" filter="url(#f1nyz3xofox213)" style="stroke:#A80036;stroke-width:2.0;"/><text fill="#A52A2A" font-family="sans-serif" font-size="14" lengthAdjust="spacing" textLength="56.0273" x="732" y="778.7285">Li Xinwei</text></g><g id="elem_&#1089;&#1074;&#1072;&#1076;&#1100;&#1073;&#1072;"><ellipse cx="1153.9204" cy="372.462" fill="#FEFECE" filter="url(#f1nyz3xofox213)" rx="49.9204" ry="16.3409" style="stroke:#A80036;stroke-width:1.0;"/><text fill="#A52A2A" font-family="sans-serif" font-size="14" lengthAdjust="spacing" textLength="53.4912" x="1124.1748" y="377.2657">&#1089;&#1074;&#1072;&#1076;&#1100;&#1073;&#1072;</text></g><!--entity Feng--><g id="elem_Feng"><ellipse cx="1444.9551" cy="278.6211" fill="#FEFECE" filter="url(#f1nyz3xofox213)" rx="8" ry="8" style="stroke:#A80036;stroke-width:2.0;"/><path d="M1444.9551,286.6211 L1444.9551,313.6211 M1431.9551,294.6211 L1457.9551,294.6211 M1444.9551,313.6211 L1431.9551,328.6211 M1444.9551,313.6211 L1457.9551,328.6211 " fill="none" filter="url(#f1nyz3xofox213)" style="stroke:#A80036;stroke-width:2.0;"/><text fill="#A52A2A" font-family="sans-serif" font-size="14" lengthAdjust="spacing" textLength="31.9102" x="1429" y="350.7285">Feng</text></g><!--entity Lu--><g id="elem_Lu"><ellipse cx="1445" cy="399.6211" fill="#FEFECE" filter="url(#f1nyz3xofox213)" rx="8" ry="8" style="stroke:#A80036;stroke-width:2.0;"/><path d="M1445,407.6211 L1445,434.6211 M1432,415.6211 L1458,415.6211 M1445,434.6211 L1432,449.6211 M1445,434.6211 L1458,449.6211 " fill="none" filter="url(#f1nyz3xofox213)" style="stroke:#A80036;stroke-width:2.0;"/><text fill="#A52A2A" font-family="sans-serif" font-size="14" lengthAdjust="spacing" textLength="15.5723" x="1437.2139" y="471.7285">Lu</text></g><g id="elem_&#1096;&#1082;&#1086;&#1083;&#1072;"><ellipse cx="520.1929" cy="643.8398" fill="#FEFECE" filter="url(#f1nyz3xofox213)" rx="40.6929" ry="16.2187" style="stroke:#A80036;stroke-width:1.0;"/><text fill="#A52A2A" font-family="sans-serif" font-size="14" lengthAdjust="spacing" textLength="41.0977" x="497.2907" y="648.462">&#1096;&#1082;&#1086;&#1083;&#1072;</text></g><!--entity Zhang--><g id="elem_Zhang"><ellipse cx="520.1411" cy="485.6211" fill="#FEFECE" filter="url(#f1nyz3xofox213)" rx="8" ry="8" style="stroke:#A80036;stroke-width:2.0;"/><path d="M520.1411,493.6211 L520.1411,520.6211 M507.1411,501.6211 L533.1411,501.6211 M520.1411,520.6211 L507.1411,535.6211 M520.1411,520.6211 L533.1411,535.6211 " fill="none" filter="url(#f1nyz3xofox213)" style="stroke:#A80036;stroke-width:2.0;"/><text fill="#A52A2A" font-family="sans-serif" font-size="14" lengthAdjust="spacing" textLength="76.2822" x="482" y="557.7285">Zhang Shao</text></g><!--entity Gao--><g id="elem_Gao"><ellipse cx="248.417" cy="489.6211" fill="#FEFECE" filter="url(#f1nyz3xofox213)" rx="8" ry="8" style="stroke:#A80036;stroke-width:2.0;"/><path d="M248.417,497.6211 L248.417,524.6211 M235.417,505.6211 L261.417,505.6211 M248.417,524.6211 L235.417,539.6211 M248.417,524.6211 L261.417,539.6211 " fill="none" filter="url(#f1nyz3xofox213)" style="stroke:#A80036;stroke-width:2.0;"/><text fill="#A52A2A" font-family="sans-serif" font-size="14" lengthAdjust="spacing" textLength="77.834" x="209.5" y="561.7285">Gao Xiaofan</text></g><!--entity Song--><g id="elem_Song"><ellipse cx="248.5688" cy="610.6211" fill="#FEFECE" filter="url(#f1nyz3xofox213)" rx="8" ry="8" style="stroke:#A80036;stroke-width:2.0;"/><path d="M248.5688,618.6211 L248.5688,645.6211 M235.5688,626.6211 L261.5688,626.6211 M248.5688,645.6211 L235.5688,660.6211 M248.5688,645.6211 L261.5688,660.6211 " fill="none" filter="url(#f1nyz3xofox213)" style="stroke:#A80036;stroke-width:2.0;"/><text fill="#A52A2A" font-family="sans-serif" font-size="14" lengthAdjust="spacing" textLength="59.1377" x="219" y="682.7285">Ms. Song</text></g><!--entity Liu--><g id="elem_Liu"><ellipse cx="760" cy="514.6211" fill="#FEFECE" filter="url(#f1nyz3xofox213)" rx="8" ry="8" style="stroke:#A80036;stroke-width:2.0;"/><path d="M760,522.6211 L760,549.6211 M747,530.6211 L773,530.6211 M760,549.6211 L747,564.6211 M760,549.6211 L773,564.6211 " fill="none" filter="url(#f1nyz3xofox213)" style="stroke:#A80036;stroke-width:2.0;"/><text fill="#A52A2A" font-family="sans-serif" font-size="14" lengthAdjust="spacing" textLength="18.6826" x="750.6587" y="586.7285">Liu</text></g><!--entity Teng--><g id="elem_Teng"><ellipse cx="44.5171" cy="417.6211" fill="#FEFECE" filter="url(#f1nyz3xofox213)" rx="8" ry="8" style="stroke:#A80036;stroke-width:2.0;"/><path d="M44.5171,425.6211 L44.5171,452.6211 M31.5171,433.6211 L57.5171,433.6211 M44.5171,452.6211 L31.5171,467.6211 M44.5171,452.6211 L57.5171,467.6211 " fill="none" filter="url(#f1nyz3xofox213)" style="stroke:#A80036;stroke-width:2.0;"/><text fill="#A52A2A" font-family="sans-serif" font-size="14" lengthAdjust="spacing" textLength="56.0342" x="16.5" y="489.7285">Teng Xin</text></g><!--entity Doggy--><g id="elem_Doggy"><ellipse cx="44.7344" cy="538.6211" fill="#FEFECE" filter="url(#f1nyz3xofox213)" rx="8" ry="8" style="stroke:#A80036;stroke-width:2.0;"/><path d="M44.7344,546.6211 L44.7344,573.6211 M31.7344,554.6211 L57.7344,554.6211 M44.7344,573.6211 L31.7344,588.6211 M44.7344,573.6211 L57.7344,588.6211 " fill="none" filter="url(#f1nyz3xofox213)" style="stroke:#A80036;stroke-width:2.0;"/><text fill="#A52A2A" font-family="sans-serif" font-size="14" lengthAdjust="spacing" textLength="40.4688" x="24.5" y="610.7285">Doggy</text></g><!--entity Ciyi--><g id="elem_Ciyi"><ellipse cx="1017.5" cy="59.6211" fill="#FEFECE" filter="url(#f1nyz3xofox213)" rx="8" ry="8" style="stroke:#A80036;stroke-width:2.0;"/><path d="M1017.5,67.6211 L1017.5,94.6211 M1004.5,75.6211 L1030.5,75.6211 M1017.5,94.6211 L1004.5,109.6211 M1017.5,94.6211 L1030.5,109.6211 " fill="none" filter="url(#f1nyz3xofox213)" style="stroke:#A80036;stroke-width:2.0;"/><text fill="#A52A2A" font-family="sans-serif" font-size="14" lengthAdjust="spacing" textLength="23.3311" x="1005.8345" y="131.7285">Ciyi</text></g><g id="elem_Qingdao"><ellipse cx="760.0991" cy="232.8409" fill="#FEFECE" filter="url(#f1nyz3xofox213)" rx="74.0991" ry="17.2198" style="stroke:#A80036;stroke-width:1.0;"/><text fill="#A52A2A" font-family="sans-serif" font-size="14" lengthAdjust="spacing" textLength="91.8545" x="711.1719" y="237.6446">Qingdao, 1985</text></g><!--entity Huang--><g id="elem_Huang"><ellipse cx="248.6274" cy="150.6211" fill="#FEFECE" filter="url(#f1nyz3xofox213)" rx="8" ry="8" style="stroke:#A80036;stroke-width:2.0;"/><path d="M248.6274,158.6211 L248.6274,185.6211 M235.6274,166.6211 L261.6274,166.6211 M248.6274,185.6211 L235.6274,200.6211 M248.6274,185.6211 L261.6274,200.6211 " fill="none" filter="url(#f1nyz3xofox213)" style="stroke:#A80036;stroke-width:2.0;"/><text fill="#A52A2A" font-family="sans-serif" font-size="14" lengthAdjust="spacing" textLength="41.2549" x="228" y="222.7285">Huang</text></g><!--entity Qi--><g id="elem_Qi"><ellipse cx="519.9551" cy="53.6211" fill="#FEFECE" filter="url(#f1nyz3xofox213)" rx="8" ry="8" style="stroke:#A80036;stroke-width:2.0;"/><path d="M519.9551,61.6211 L519.9551,88.6211 M506.9551,69.6211 L532.9551,69.6211 M519.9551,88.6211 L506.9551,103.6211 M519.9551,88.6211 L532.9551,103.6211 " fill="none" filter="url(#f1nyz3xofox213)" style="stroke:#A80036;stroke-width:2.0;"/><text fill="#A52A2A" font-family="sans-serif" font-size="14" lengthAdjust="spacing" textLength="45.9102" x="497" y="125.7285">Xiao Qi</text></g><!--entity Jim--><g id="elem_Jim"><ellipse cx="520" cy="263.6211" fill="#FEFECE" filter="url(#f1nyz3xofox213)" rx="8" ry="8" style="stroke:#A80036;stroke-width:2.0;"/><path d="M520,271.6211 L520,298.6211 M507,279.6211 L533,279.6211 M520,298.6211 L507,313.6211 M520,298.6211 L533,313.6211 " fill="none" filter="url(#f1nyz3xofox213)" style="stroke:#A80036;stroke-width:2.0;"/><text fill="#A52A2A" font-family="sans-serif" font-size="14" lengthAdjust="spacing" textLength="21.7725" x="509.1138" y="335.7285">Jim</text></g><!--entity Wang--><g id="elem_Wang"><ellipse cx="248.5791" cy="360.6211" fill="#FEFECE" filter="url(#f1nyz3xofox213)" rx="8" ry="8" style="stroke:#A80036;stroke-width:2.0;"/><path d="M248.5791,368.6211 L248.5791,395.6211 M235.5791,376.6211 L261.5791,376.6211 M248.5791,395.6211 L235.5791,410.6211 M248.5791,395.6211 L261.5791,410.6211 " fill="none" filter="url(#f1nyz3xofox213)" style="stroke:#A80036;stroke-width:2.0;"/><text fill="#A52A2A" font-family="sans-serif" font-size="14" lengthAdjust="spacing" textLength="80.1582" x="208.5" y="432.7285">Auntie Wang</text></g><!--entity Yu--><g id="elem_Yu"><ellipse cx="44.5273" cy="707.6211" fill="#FEFECE" filter="url(#f1nyz3xofox213)" rx="8" ry="8" style="stroke:#A80036;stroke-width:2.0;"/><path d="M44.5273,715.6211 L44.5273,742.6211 M31.5273,723.6211 L57.5273,723.6211 M44.5273,742.6211 L31.5273,757.6211 M44.5273,742.6211 L57.5273,757.6211 " fill="none" filter="url(#f1nyz3xofox213)" style="stroke:#A80036;stroke-width:2.0;"/><text fill="#A52A2A" font-family="sans-serif" font-size="14" lengthAdjust="spacing" textLength="77.0547" x="6" y="779.7285">Yu Chentian</text></g><!--link Sloan to Alva--><g id="link_Sloan_Alva"><path d="M1017.5,415.8711 C1017.5,432.9111 1017.5,446.4411 1017.5,463.4711 " fill="none" id="Sloan-to-Alva" style="stroke:#0000FF;stroke-width:1.0;"/><polygon fill="#0000FF" points="1017.5,469.4711,1021.5,460.4711,1017.5,464.4711,1013.5,460.4711,1017.5,469.4711" style="stroke:#0000FF;stroke-width:1.0;"/><text fill="#228B22" font-family="sans-serif" font-size="13" lengthAdjust="spacing" textLength="28.8945" x="991" y="448.1494">&#1084;&#1072;&#1090;&#1100;</text></g><!--link Fang to Sloan--><g id="link_Fang_Sloan"><path d="M1017.5,275.8711 C1017.5,292.9111 1017.5,306.4411 1017.5,323.4711 " fill="none" id="Fang-to-Sloan" style="stroke:#0000FF;stroke-width:1.0;"/><polygon fill="#0000FF" points="1017.5,329.4711,1021.5,320.4711,1017.5,324.4711,1013.5,320.4711,1017.5,329.4711" style="stroke:#0000FF;stroke-width:1.0;"/><text fill="#228B22" font-family="sans-serif" font-size="13" lengthAdjust="spacing" textLength="36.8672" x="987" y="308.1494">&#1078;&#1077;&#1085;&#1080;&#1093;</text></g><!--link Fang to ???????--><g id="link_Fang_&#1089;&#1074;&#1072;&#1076;&#1100;&#1073;&#1072;"><path d="M1043.17,258.3011 C1070.77,287.0311 1114.64,332.6911 1137.69,356.6911 " fill="none" id="Fang-&#1089;&#1074;&#1072;&#1076;&#1100;&#1073;&#1072;" style="stroke:#0000FF;stroke-width:1.0;"/></g><!--link Sloan to ???????--><g id="link_Sloan_&#1089;&#1074;&#1072;&#1076;&#1100;&#1073;&#1072;"><path d="M1035.53,372.6211 C1052.64,372.6211 1079.82,372.6211 1103.73,372.6211 " fill="none" id="Sloan-&#1089;&#1074;&#1072;&#1076;&#1100;&#1073;&#1072;" style="stroke:#0000FF;stroke-width:1.0;"/></g><!--link Alva to ???????--><g id="link_Alva_&#1089;&#1074;&#1072;&#1076;&#1100;&#1073;&#1072;"><path d="M1032.64,497.9011 C1058.13,471.3711 1111.59,415.7311 1137.82,388.4211 " fill="none" id="Alva-&#1089;&#1074;&#1072;&#1076;&#1100;&#1073;&#1072;" style="stroke:#0000FF;stroke-width:1.0;"/></g><!--link ??????? to Feng--><g id="link_&#1089;&#1074;&#1072;&#1076;&#1100;&#1073;&#1072;_Feng"><path d="M1191.8,361.6511 C1205.04,357.8911 1220.13,353.8311 1234,350.6211 C1306.43,333.8411 1394.22,319.4211 1428.88,313.9611 " fill="none" id="&#1089;&#1074;&#1072;&#1076;&#1100;&#1073;&#1072;-Feng" style="stroke:#0000FF;stroke-width:1.0;"/><text fill="#228B22" font-family="sans-serif" font-size="13" lengthAdjust="spacing" textLength="31.1987" x="1301" y="315.6494">&#1075;&#1086;&#1089;&#1090;&#1100;</text></g><!--link ??????? to Lu--><g id="link_&#1089;&#1074;&#1072;&#1076;&#1100;&#1073;&#1072;_Lu"><path d="M1177.11,387.5011 C1192.4,396.9911 1213.59,408.5911 1234,414.6211 C1305.24,435.6511 1395.55,434.6511 1429.88,433.3311 " fill="none" id="&#1089;&#1074;&#1072;&#1076;&#1100;&#1073;&#1072;-Lu" style="stroke:#0000FF;stroke-width:1.0;"/><text fill="#228B22" font-family="sans-serif" font-size="13" lengthAdjust="spacing" textLength="31.1987" x="1301.0815" y="369.6494">&#1075;&#1086;&#1089;&#1090;&#1100;</text><path d="M1239,378.9121 L1239,405.9121 L1390,405.9121 L1390,388.9121 L1380,378.9121 L1239,378.9121 " fill="#FBFB77" filter="url(#f1nyz3xofox213)" style="stroke:#A80036;stroke-width:1.0;"/><path d="M1380,378.9121 L1380,388.9121 L1390,388.9121 L1380,378.9121 " fill="#FBFB77" style="stroke:#A80036;stroke-width:1.0;"/><text fill="#A52A2A" font-family="sans-serif" font-size="13" lengthAdjust="spacing" textLength="130.3618" x="1245" y="397.9404">&#1080;&#1083;&#1080; &#1101;&#1090;&#1086; &#1089;&#1072;&#1084; Lu Fang?</text></g><!--link Li to Alva--><g id="link_Li_Alva"><path d="M788.01,740.6111 C830.69,740.6611 913.83,734.3611 962,688.6211 C998.42,654.0411 1010.0696,601.651 1014.0896,561.681 " fill="none" id="Li-to-Alva" style="stroke:#0000FF;stroke-width:1.0;"/><polygon fill="#0000FF" points="1014.69,555.7111,1009.8094,564.2656,1014.1896,560.686,1017.7693,565.0662,1014.69,555.7111" style="stroke:#0000FF;stroke-width:1.0;"/><text fill="#228B22" font-family="sans-serif" font-size="13" lengthAdjust="spacing" textLength="96.7256" x="865" y="684.6494">&#1083;&#1091;&#1095;&#1096;&#1072;&#1103; &#1087;&#1086;&#1076;&#1088;&#1091;&#1075;&#1072;</text></g><!--link ????? to Alva--><g id="link_&#1096;&#1082;&#1086;&#1083;&#1072;_Alva"><path d="M560.74,643.8511 C621.12,643.1811 739,637.7811 834,608.6211 C901.08,588.0311 972.42,542.7011 1002.18,522.5811 " fill="none" id="&#1096;&#1082;&#1086;&#1083;&#1072;-Alva" style="stroke:#0000FF;stroke-width:1.0;"/></g><!--link ????? to Li--><g id="link_&#1096;&#1082;&#1086;&#1083;&#1072;_Li"><path d="M549.24,655.0111 C595.41,673.6311 686.47,710.3711 731.9,728.6911 " fill="none" id="&#1096;&#1082;&#1086;&#1083;&#1072;-Li" style="stroke:#0000FF;stroke-width:1.0;"/></g><!--link Zhang to Alva--><g id="link_Zhang_Alva"><path d="M558.07,509.6111 C591.33,502.0211 641.6,491.7611 686,487.6211 C751.49,481.5211 768.37,483.1511 834,487.6211 C897.17,491.9311 965.8941,503.4724 996.4641,508.9524 " fill="none" id="Zhang-to-Alva" style="stroke:#0000FF;stroke-width:1.0;"/><polygon fill="#0000FF" points="1002.37,510.0111,994.217,504.4858,997.4485,509.1289,992.8054,512.3603,1002.37,510.0111" style="stroke:#0000FF;stroke-width:1.0;"/><text fill="#228B22" font-family="sans-serif" font-size="13" lengthAdjust="spacing" textLength="136.6396" x="692" y="479.6494">&#1087;&#1088;&#1086;&#1089;&#1090;&#1086; &#1086;&#1076;&#1085;&#1086;&#1082;&#1083;&#1072;&#1089;&#1089;&#1085;&#1080;&#1094;&#1072;</text></g><!--link Zhang to ?????--><g id="link_Zhang_&#1096;&#1082;&#1086;&#1083;&#1072;"><path d="M520,561.7711 C520,584.4911 520,610.9811 520,627.5311 " fill="none" id="Zhang-&#1096;&#1082;&#1086;&#1083;&#1072;" style="stroke:#0000FF;stroke-width:1.0;"/><text fill="#228B22" font-family="sans-serif" font-size="13" lengthAdjust="spacing" textLength="49.6196" x="483" y="600.1494">&#1091;&#1095;&#1077;&#1085;&#1080;&#1094;&#1072;</text></g><!--link Liu to Li--><g id="link_Liu_Li"><path d="M760,590.9011 C760,622.4511 760,659.0211 760,690.5311 " fill="none" id="Liu-to-Li" style="stroke:#0000FF;stroke-width:1.0;"/><polygon fill="#0000FF" points="760,696.5311,764,687.5311,760,691.5311,756,687.5311,760,696.5311" style="stroke:#0000FF;stroke-width:1.0;"/><text fill="#228B22" font-family="sans-serif" font-size="13" lengthAdjust="spacing" textLength="59.9663" x="718" y="649.1494">superviser</text></g><!--link Song to ?????--><g id="link_Song_&#1096;&#1082;&#1086;&#1083;&#1072;"><path d="M278.09,643.6211 C326.45,643.6211 424.49,643.6211 479.43,643.6211 " fill="none" id="Song-&#1096;&#1082;&#1086;&#1083;&#1072;" style="stroke:#0000FF;stroke-width:1.0;"/><text fill="#228B22" font-family="sans-serif" font-size="13" lengthAdjust="spacing" textLength="77.1938" x="357" y="639.6494">&#1091;&#1095;&#1080;&#1090;&#1077;&#1083;&#1100;&#1085;&#1080;&#1094;&#1072;</text></g><!--link Gao to ?????--><g id="link_Gao_&#1096;&#1082;&#1086;&#1083;&#1072;"><path d="M287.54,539.7011 C342.97,564.5811 444.53,610.1811 492.53,631.7411 " fill="none" id="Gao-&#1096;&#1082;&#1086;&#1083;&#1072;" style="stroke:#0000FF;stroke-width:1.0;"/><text fill="#228B22" font-family="sans-serif" font-size="13" lengthAdjust="spacing" textLength="40.6313" x="375.5" y="567.6494">&#1091;&#1095;&#1077;&#1085;&#1080;&#1082;</text></g><!--link Teng to Gao--><g id="link_Teng_Gao"><path d="M72.74,460.3311 C107.96,472.8811 163.8184,492.7963 203.6784,507.0063 " fill="none" id="Teng-to-Gao" style="stroke:#0000FF;stroke-width:1.0;"/><polygon fill="#0000FF" points="209.33,509.0211,202.1958,502.2312,204.6203,507.3421,199.5094,509.7667,209.33,509.0211" style="stroke:#0000FF;stroke-width:1.0;"/><text fill="#228B22" font-family="sans-serif" font-size="13" lengthAdjust="spacing" textLength="26.0571" x="114" y="471.6494">&#1076;&#1088;&#1091;&#1075;</text></g><!--link Doggy to Gao--><g id="link_Doggy_Gao"><path d="M64.5,567.0111 C97.5,559.0111 160.1692,543.8059 203.3592,533.3259 " fill="none" id="Doggy-to-Gao" style="stroke:#0000FF;stroke-width:1.0;"/><polygon fill="#0000FF" points="209.19,531.9111,199.5006,530.1461,204.331,533.0901,201.387,537.9205,209.19,531.9111" style="stroke:#0000FF;stroke-width:1.0;"/><text fill="#228B22" font-family="sans-serif" font-size="13" lengthAdjust="spacing" textLength="26.0571" x="114" y="543.6494">&#1076;&#1088;&#1091;&#1075;</text></g><!--link Ciyi to Fang--><g id="link_Ciyi_Fang"><path d="M1017.5,135.8711 C1017.5,152.9111 1017.5,164.4411 1017.5,181.4711 " fill="none" id="Ciyi-to-Fang" style="stroke:#0000FF;stroke-width:1.0;"/><polygon fill="#0000FF" points="1017.5,189.4711,1020.5,181.4711,1014.5,181.4711,1017.5,189.4711" style="stroke:#0000FF;stroke-width:1.0;"/><text fill="#228B22" font-family="sans-serif" font-size="13" lengthAdjust="spacing" textLength="30.3354" x="990" y="168.1494">&#1078;&#1077;&#1085;&#1072;</text></g><!--link Qingdao to Ciyi--><g id="link_Qingdao_Ciyi"><path d="M789.81,216.8311 C844.63,186.8011 962.05,122.4511 1002.48,100.3011 " fill="none" id="Qingdao-Ciyi" style="stroke:#0000FF;stroke-width:1.0;"/></g><!--link Qingdao to Fang--><g id="link_Qingdao_Fang"><path d="M834.22,232.6211 C887.3,232.6211 955.85,232.6211 991.88,232.6211 " fill="none" id="Qingdao-Fang" style="stroke:#0000FF;stroke-width:1.0;"/></g><!--link Qingdao to Sloan--><g id="link_Qingdao_Sloan"><path d="M789.81,248.4111 C843.32,277.7311 956.5,339.7411 999.47,363.2911 " fill="none" id="Qingdao-Sloan" style="stroke:#0000FF;stroke-width:1.0;"/></g><!--link Huang to Qingdao--><g id="link_Huang_Qingdao"><path d="M269.16,185.5111 C338.56,192.1911 574.2,214.8511 691.51,226.1311 " fill="none" id="Huang-Qingdao" style="stroke:#0000FF;stroke-width:1.0;"/><text fill="#228B22" font-family="sans-serif" font-size="13" lengthAdjust="spacing" textLength="105.4092" x="467.5" y="201.6494">&#1087;&#1088;&#1086;&#1076;&#1072;&#1074;&#1077;&#1094; &#1084;&#1086;&#1083;&#1086;&#1082;&#1072;</text></g><!--link Qi to Qingdao--><g id="link_Qi_Qingdao"><path d="M543.31,98.4311 C570.36,112.9211 617.14,138.5311 656,162.6211 C684.3,180.1611 715.83,201.9311 736.45,216.4911 " fill="none" id="Qi-Qingdao" style="stroke:#0000FF;stroke-width:1.0;"/></g><!--link Qi to Fang--><g id="link_Qi_Fang"><path d="M543.47,92.5611 C570.27,99.6511 616.43,111.9111 656,122.6211 C792.14,159.4611 829.84,157.4011 962,206.6211 C972.02,210.3511 977.3237,212.5976 986.5537,217.1276 " fill="none" id="Qi-to-Fang" style="stroke:#0000FF;stroke-width:1.0;"/><polygon fill="#0000FF" points="991.94,219.7711,985.623,212.215,987.4515,217.5682,982.0983,219.3966,991.94,219.7711" style="stroke:#0000FF;stroke-width:1.0;"/><text fill="#228B22" font-family="sans-serif" font-size="13" lengthAdjust="spacing" textLength="109.5986" x="705.5" y="126.6494">&#1074;&#1099;&#1077;&#1079;&#1076;&#1085;&#1086;&#1081; &#1082;&#1086;&#1083;&#1083;&#1077;&#1075;&#1072;</text></g><!--link Wang to Qingdao--><g id="link_Wang_Qingdao"><path d="M288.6,398.7511 C351.3,405.4111 477.2,412.2011 575,375.6211 C648.13,348.2611 715.58,280.8811 744.34,249.3711 " fill="none" id="Wang-Qingdao" style="stroke:#0000FF;stroke-width:1.0;"/><text fill="#228B22" font-family="sans-serif" font-size="13" lengthAdjust="spacing" textLength="108.272" x="466" y="371.6494">&#1089;&#1086;&#1089;&#1077;&#1076;&#1082;&#1072; &#1089; 1 &#1101;&#1090;&#1072;&#1078;&#1072;</text></g><!--link Yu to ?????--><g id="link_Yu_&#1096;&#1082;&#1086;&#1083;&#1072;"><path d="M83.27,742.2611 C137.67,743.7411 240.91,743.2511 326,723.6211 C389.97,708.8611 459.96,674.9811 495.48,656.4011 " fill="none" id="Yu-&#1096;&#1082;&#1086;&#1083;&#1072;" style="stroke:#0000FF;stroke-width:1.0;"/><text fill="#228B22" font-family="sans-serif" font-size="13" lengthAdjust="spacing" textLength="153.0483" x="172" y="719.6494">&#1080;&#1079; &#1087;&#1072;&#1088;&#1072;&#1083;&#1083;&#1077;&#1083;&#1100;&#1085;&#1086;&#1075;&#1086; &#1082;&#1083;&#1072;&#1089;&#1089;&#1072;</text></g><!--link Jim to Qingdao--><g id="link_Jim_Qingdao"><path d="M535.18,292.8111 C569.1,283.6911 656.22,260.2611 711.23,245.4711 " fill="none" id="Jim-Qingdao" style="stroke:#0000FF;stroke-width:1.0;"/><text fill="#228B22" font-family="sans-serif" font-size="13" lengthAdjust="spacing" textLength="49.8037" x="606" y="257.6494">&#1087;&#1080;&#1074;&#1086;&#1074;&#1072;&#1088;</text></g><!--SRC=[VLJDJXH14BxtKrJYHHBMX8E9pW5ZK3G63uh9YhU6xPtjC7IJ-O5muoSYYMjybN45MLbSNg7xZVogPvOTTpUUfhh-l_gg9b7Td79BgOvxENLqgdPoROt8ThMXr6OgIFiobNkqBNTsuzGMfhDZ4vjIdagJmQHCtl3ggAuiahnhJLwvFTXExQ5fUCWKYeajATIigH7QjQdAyZXLoWYHwpnHz5uVg9HUoYnVhkKsN8I8DXChJGJXUN8W-RjHqBeqSKGo2mAhD7tKvb3feDpGGeGeQgqIHr54xjQL_jJtXH0SmvRA1QPVxihzSKF_MTnRM_JGdxY1AzsbxxiVhboQP5nW2IKM6OIOLR5RjAwuUnJ-wSR-97Irq6-ZcF4oDbTa3INQxB9bw4PkIFwRFtLZGeRItL8zdMUC1MDfDKOmycV-Yx_08BwJktDZL3lsPyXVSgCNxWQgKLsSO-QKFDZeKuydjDcJDWmxFA5-9IquaBOBibYFDxHliqUqQMkoM0Xa5JLDXH1LjcQNT_wu0WnCt2Ee6QCBz03bII3g71tNWVHFZn4nn9fEzi882kOQauWeA_PLUg0pbM8_x8Jc-V0XQbzXMlrf6aRN-aynTmDW7y0hxs50nmyHlR1nV1JUGH8Y-31SpWYqDGKYc1SPa7TD7rMBpG8lrJjjuewqoxJozCdZ9RRK6Y7O1O1Nmn9CbniGQXU64V8qtk6A6k-mwYZykfZSMP14n0IZLbIL5D4RlHTaV76VXScrelOafXr2jWfQw-5Nekkzs0Bf8gH3fTQayNlYmNU9IxZovtooF6aclqHtDFKEhod4WVyAaDVrgloccg8HbBpRxVbQs2Ei6EoNd1nFMgdEgCIyC2iqtPgd6pHVy-6KQBIi2rHRCkOZfSQM8WTcGZC0aM00tm5d47y1]--></g></svg>