<svg xmlns="http://www.w3.org/2000/svg" xmlns:xlink="http://www.w3.org/1999/xlink" contentStyleType="text/css" height="467px" preserveAspectRatio="none" style="width:1280px;height:467px;" version="1.1" viewBox="0 0 1280 467" width="1280px" zoomAndPan="magnify"><defs><filter height="300%" id="f45gr544hhvsb" width="300%" x="-1" y="-1"><feGaussianBlur result="blurOut" stdDeviation="2.0"/><feColorMatrix in="blurOut" result="blurOut2" type="matrix" values="0 0 0 0 0 0 0 0 0 0 0 0 0 0 0 0 0 0 .4 0"/><feOffset dx="4.0" dy="4.0" in="blurOut2" result="blurOut3"/><feBlend in="SourceGraphic" in2="blurOut3" mode="normal"/></filter></defs><g><text fill="#A52A2A" font-family="sans-serif" font-size="14" font-weight="bold" lengthAdjust="spacing" textLength="148.6201" x="559.145" y="25.1074">River East, River West</text><!--entity Sloan--><g id="elem_Sloan"><ellipse cx="830.4033" cy="193.6211" fill="#FEFECE" filter="url(#f45gr544hhvsb)" rx="8" ry="8" style="stroke:#A80036;stroke-width:2.0;"/><path d="M830.4033,201.6211 L830.4033,228.6211 M817.4033,209.6211 L843.4033,209.6211 M830.4033,228.6211 L817.4033,243.6211 M830.4033,228.6211 L843.4033,243.6211 " fill="none" filter="url(#f45gr544hhvsb)" style="stroke:#A80036;stroke-width:2.0;"/><text fill="#A52A2A" font-family="sans-serif" font-size="14" lengthAdjust="spacing" textLength="35.8066" x="812.5" y="265.7285">Sloan</text></g><!--entity Alva--><g id="elem_Alva"><ellipse cx="830.5" cy="333.6211" fill="#FEFECE" filter="url(#f45gr544hhvsb)" rx="8" ry="8" style="stroke:#A80036;stroke-width:2.0;"/><path d="M830.5,341.6211 L830.5,368.6211 M817.5,349.6211 L843.5,349.6211 M830.5,368.6211 L817.5,383.6211 M830.5,368.6211 L843.5,383.6211 " fill="none" filter="url(#f45gr544hhvsb)" style="stroke:#A80036;stroke-width:2.0;"/><text fill="#A52A2A" font-family="sans-serif" font-size="14" lengthAdjust="spacing" textLength="27.2344" x="816.8828" y="405.7285">Alva</text></g><!--entity Fang--><g id="elem_Fang"><ellipse cx="830.686" cy="53.6211" fill="#FEFECE" filter="url(#f45gr544hhvsb)" rx="8" ry="8" style="stroke:#A80036;stroke-width:2.0;"/><path d="M830.686,61.6211 L830.686,88.6211 M817.686,69.6211 L843.686,69.6211 M830.686,88.6211 L817.686,103.6211 M830.686,88.6211 L843.686,103.6211 " fill="none" filter="url(#f45gr544hhvsb)" style="stroke:#A80036;stroke-width:2.0;"/><text fill="#A52A2A" font-family="sans-serif" font-size="14" lengthAdjust="spacing" textLength="51.3721" x="805" y="125.7285">Lu Fang</text></g><!--entity Li--><g id="elem_Li"><ellipse cx="578.0137" cy="333.6211" fill="#FEFECE" filter="url(#f45gr544hhvsb)" rx="8" ry="8" style="stroke:#A80036;stroke-width:2.0;"/><path d="M578.0137,341.6211 L578.0137,368.6211 M565.0137,349.6211 L591.0137,349.6211 M578.0137,368.6211 L565.0137,383.6211 M578.0137,368.6211 L591.0137,383.6211 " fill="none" filter="url(#f45gr544hhvsb)" style="stroke:#A80036;stroke-width:2.0;"/><text fill="#A52A2A" font-family="sans-serif" font-size="14" lengthAdjust="spacing" textLength="56.0273" x="550" y="405.7285">Li Xinwei</text></g><g id="elem_&#1089;&#1074;&#1072;&#1076;&#1100;&#1073;&#1072;"><ellipse cx="966.9204" cy="226.462" fill="#FEFECE" filter="url(#f45gr544hhvsb)" rx="49.9204" ry="16.3409" style="stroke:#A80036;stroke-width:1.0;"/><text fill="#A52A2A" font-family="sans-serif" font-size="14" lengthAdjust="spacing" textLength="53.4912" x="937.1748" y="231.2657">&#1089;&#1074;&#1072;&#1076;&#1100;&#1073;&#1072;</text></g><!--entity Feng--><g id="elem_Feng"><ellipse cx="1257.9551" cy="132.6211" fill="#FEFECE" filter="url(#f45gr544hhvsb)" rx="8" ry="8" style="stroke:#A80036;stroke-width:2.0;"/><path d="M1257.9551,140.6211 L1257.9551,167.6211 M1244.9551,148.6211 L1270.9551,148.6211 M1257.9551,167.6211 L1244.9551,182.6211 M1257.9551,167.6211 L1270.9551,182.6211 " fill="none" filter="url(#f45gr544hhvsb)" style="stroke:#A80036;stroke-width:2.0;"/><text fill="#A52A2A" font-family="sans-serif" font-size="14" lengthAdjust="spacing" textLength="31.9102" x="1242" y="204.7285">Feng</text></g><!--entity Lu--><g id="elem_Lu"><ellipse cx="1258" cy="253.6211" fill="#FEFECE" filter="url(#f45gr544hhvsb)" rx="8" ry="8" style="stroke:#A80036;stroke-width:2.0;"/><path d="M1258,261.6211 L1258,288.6211 M1245,269.6211 L1271,269.6211 M1258,288.6211 L1245,303.6211 M1258,288.6211 L1271,303.6211 " fill="none" filter="url(#f45gr544hhvsb)" style="stroke:#A80036;stroke-width:2.0;"/><text fill="#A52A2A" font-family="sans-serif" font-size="14" lengthAdjust="spacing" textLength="15.5723" x="1250.2139" y="325.7285">Lu</text></g><g id="elem_&#1096;&#1082;&#1086;&#1083;&#1072;"><ellipse cx="407.6929" cy="366.8398" fill="#FEFECE" filter="url(#f45gr544hhvsb)" rx="40.6929" ry="16.2187" style="stroke:#A80036;stroke-width:1.0;"/><text fill="#A52A2A" font-family="sans-serif" font-size="14" lengthAdjust="spacing" textLength="41.0977" x="384.7907" y="371.462">&#1096;&#1082;&#1086;&#1083;&#1072;</text></g><!--entity Zhang--><g id="elem_Zhang"><ellipse cx="407.6411" cy="150.6211" fill="#FEFECE" filter="url(#f45gr544hhvsb)" rx="8" ry="8" style="stroke:#A80036;stroke-width:2.0;"/><path d="M407.6411,158.6211 L407.6411,185.6211 M394.6411,166.6211 L420.6411,166.6211 M407.6411,185.6211 L394.6411,200.6211 M407.6411,185.6211 L420.6411,200.6211 " fill="none" filter="url(#f45gr544hhvsb)" style="stroke:#A80036;stroke-width:2.0;"/><text fill="#A52A2A" font-family="sans-serif" font-size="14" lengthAdjust="spacing" textLength="76.2822" x="369.5" y="222.7285">Zhang Shao</text></g><!--entity Gao--><g id="elem_Gao"><ellipse cx="188.917" cy="241.6211" fill="#FEFECE" filter="url(#f45gr544hhvsb)" rx="8" ry="8" style="stroke:#A80036;stroke-width:2.0;"/><path d="M188.917,249.6211 L188.917,276.6211 M175.917,257.6211 L201.917,257.6211 M188.917,276.6211 L175.917,291.6211 M188.917,276.6211 L201.917,291.6211 " fill="none" filter="url(#f45gr544hhvsb)" style="stroke:#A80036;stroke-width:2.0;"/><text fill="#A52A2A" font-family="sans-serif" font-size="14" lengthAdjust="spacing" textLength="77.834" x="150" y="313.7285">Gao Xiaofan</text></g><!--entity Song--><g id="elem_Song"><ellipse cx="189.0688" cy="362.6211" fill="#FEFECE" filter="url(#f45gr544hhvsb)" rx="8" ry="8" style="stroke:#A80036;stroke-width:2.0;"/><path d="M189.0688,370.6211 L189.0688,397.6211 M176.0688,378.6211 L202.0688,378.6211 M189.0688,397.6211 L176.0688,412.6211 M189.0688,397.6211 L202.0688,412.6211 " fill="none" filter="url(#f45gr544hhvsb)" style="stroke:#A80036;stroke-width:2.0;"/><text fill="#A52A2A" font-family="sans-serif" font-size="14" lengthAdjust="spacing" textLength="59.1377" x="159.5" y="434.7285">Ms. Song</text></g><!--entity Liu--><g id="elem_Liu"><ellipse cx="578" cy="193.6211" fill="#FEFECE" filter="url(#f45gr544hhvsb)" rx="8" ry="8" style="stroke:#A80036;stroke-width:2.0;"/><path d="M578,201.6211 L578,228.6211 M565,209.6211 L591,209.6211 M578,228.6211 L565,243.6211 M578,228.6211 L591,243.6211 " fill="none" filter="url(#f45gr544hhvsb)" style="stroke:#A80036;stroke-width:2.0;"/><text fill="#A52A2A" font-family="sans-serif" font-size="14" lengthAdjust="spacing" textLength="18.6826" x="568.6587" y="265.7285">Liu</text></g><!--entity Teng--><g id="elem_Teng"><ellipse cx="34.0171" cy="181.6211" fill="#FEFECE" filter="url(#f45gr544hhvsb)" rx="8" ry="8" style="stroke:#A80036;stroke-width:2.0;"/><path d="M34.0171,189.6211 L34.0171,216.6211 M21.0171,197.6211 L47.0171,197.6211 M34.0171,216.6211 L21.0171,231.6211 M34.0171,216.6211 L47.0171,231.6211 " fill="none" filter="url(#f45gr544hhvsb)" style="stroke:#A80036;stroke-width:2.0;"/><text fill="#A52A2A" font-family="sans-serif" font-size="14" lengthAdjust="spacing" textLength="56.0342" x="6" y="253.7285">Teng Xin</text></g><!--entity Doggy--><g id="elem_Doggy"><ellipse cx="34.2344" cy="302.6211" fill="#FEFECE" filter="url(#f45gr544hhvsb)" rx="8" ry="8" style="stroke:#A80036;stroke-width:2.0;"/><path d="M34.2344,310.6211 L34.2344,337.6211 M21.2344,318.6211 L47.2344,318.6211 M34.2344,337.6211 L21.2344,352.6211 M34.2344,337.6211 L47.2344,352.6211 " fill="none" filter="url(#f45gr544hhvsb)" style="stroke:#A80036;stroke-width:2.0;"/><text fill="#A52A2A" font-family="sans-serif" font-size="14" lengthAdjust="spacing" textLength="40.4688" x="14" y="374.7285">Doggy</text></g><!--link Sloan to Alva--><g id="link_Sloan_Alva"><path d="M830.5,269.8711 C830.5,286.9111 830.5,300.4411 830.5,317.4711 " fill="none" id="Sloan-to-Alva" style="stroke:#0000FF;stroke-width:1.0;"/><polygon fill="#0000FF" points="830.5,323.4711,834.5,314.4711,830.5,318.4711,826.5,314.4711,830.5,323.4711" style="stroke:#0000FF;stroke-width:1.0;"/><text fill="#A52A2A" font-family="sans-serif" font-size="13" lengthAdjust="spacing" textLength="28.8945" x="804" y="302.1494">&#1084;&#1072;&#1090;&#1100;</text></g><!--link Fang to Sloan--><g id="link_Fang_Sloan"><path d="M830.5,129.8711 C830.5,146.9111 830.5,160.4411 830.5,177.4711 " fill="none" id="Fang-to-Sloan" style="stroke:#0000FF;stroke-width:1.0;"/><polygon fill="#0000FF" points="830.5,183.4711,834.5,174.4711,830.5,178.4711,826.5,174.4711,830.5,183.4711" style="stroke:#0000FF;stroke-width:1.0;"/><text fill="#A52A2A" font-family="sans-serif" font-size="13" lengthAdjust="spacing" textLength="36.8672" x="800" y="162.1494">&#1078;&#1077;&#1085;&#1080;&#1093;</text></g><!--link Fang to ???????--><g id="link_Fang_&#1089;&#1074;&#1072;&#1076;&#1100;&#1073;&#1072;"><path d="M856.17,112.3011 C883.77,141.0311 927.64,186.6911 950.69,210.6911 " fill="none" id="Fang-&#1089;&#1074;&#1072;&#1076;&#1100;&#1073;&#1072;" style="stroke:#0000FF;stroke-width:1.0;"/></g><!--link Sloan to ???????--><g id="link_Sloan_&#1089;&#1074;&#1072;&#1076;&#1100;&#1073;&#1072;"><path d="M848.53,226.6211 C865.64,226.6211 892.82,226.6211 916.73,226.6211 " fill="none" id="Sloan-&#1089;&#1074;&#1072;&#1076;&#1100;&#1073;&#1072;" style="stroke:#0000FF;stroke-width:1.0;"/></g><!--link Alva to ???????--><g id="link_Alva_&#1089;&#1074;&#1072;&#1076;&#1100;&#1073;&#1072;"><path d="M845.64,351.9011 C871.13,325.3711 924.59,269.7311 950.82,242.4211 " fill="none" id="Alva-&#1089;&#1074;&#1072;&#1076;&#1100;&#1073;&#1072;" style="stroke:#0000FF;stroke-width:1.0;"/></g><!--link ??????? to Feng--><g id="link_&#1089;&#1074;&#1072;&#1076;&#1100;&#1073;&#1072;_Feng"><path d="M1004.8,215.6511 C1018.04,211.8911 1033.13,207.8311 1047,204.6211 C1119.43,187.8411 1207.22,173.4211 1241.88,167.9611 " fill="none" id="&#1089;&#1074;&#1072;&#1076;&#1100;&#1073;&#1072;-Feng" style="stroke:#0000FF;stroke-width:1.0;"/><text fill="#A52A2A" font-family="sans-serif" font-size="13" lengthAdjust="spacing" textLength="31.1987" x="1114" y="169.6494">&#1075;&#1086;&#1089;&#1090;&#1100;</text></g><!--link ??????? to Lu--><g id="link_&#1089;&#1074;&#1072;&#1076;&#1100;&#1073;&#1072;_Lu"><path d="M990.11,241.5011 C1005.4,250.9911 1026.59,262.5911 1047,268.6211 C1118.24,289.6511 1208.55,288.6511 1242.88,287.3311 " fill="none" id="&#1089;&#1074;&#1072;&#1076;&#1100;&#1073;&#1072;-Lu" style="stroke:#0000FF;stroke-width:1.0;"/><text fill="#A52A2A" font-family="sans-serif" font-size="13" lengthAdjust="spacing" textLength="31.1987" x="1114.0815" y="223.6494">&#1075;&#1086;&#1089;&#1090;&#1100;</text><path d="M1052,232.9121 L1052,259.9121 L1203,259.9121 L1203,242.9121 L1193,232.9121 L1052,232.9121 " fill="#FBFB77" filter="url(#f45gr544hhvsb)" style="stroke:#A80036;stroke-width:1.0;"/><path d="M1193,232.9121 L1193,242.9121 L1203,242.9121 L1193,232.9121 " fill="#FBFB77" style="stroke:#A80036;stroke-width:1.0;"/><text fill="#A52A2A" font-family="sans-serif" font-size="13" lengthAdjust="spacing" textLength="130.3618" x="1058" y="251.9404">&#1080;&#1083;&#1080; &#1101;&#1090;&#1086; &#1089;&#1072;&#1084; Lu Fang?</text></g><!--link Li to Alva--><g id="link_Li_Alva"><path d="M606.28,366.6211 C659.42,366.6211 769.08,366.6211 809.34,366.6211 " fill="none" id="Li-to-Alva" style="stroke:#0000FF;stroke-width:1.0;"/><polygon fill="#0000FF" points="815.34,366.6211,806.34,362.6211,810.34,366.6211,806.34,370.6211,815.34,366.6211" style="stroke:#0000FF;stroke-width:1.0;"/><text fill="#A52A2A" font-family="sans-serif" font-size="13" lengthAdjust="spacing" textLength="96.7256" x="678" y="362.6494">&#1083;&#1091;&#1095;&#1096;&#1072;&#1103; &#1087;&#1086;&#1076;&#1088;&#1091;&#1075;&#1072;</text></g><!--link ????? to Alva--><g id="link_&#1096;&#1082;&#1086;&#1083;&#1072;_Alva"><path d="M425.62,381.1011 C444.59,396.1011 476.76,418.6011 509,427.6211 C625.19,460.1211 769.91,396.3111 815.24,373.9611 " fill="none" id="&#1096;&#1082;&#1086;&#1083;&#1072;-Alva" style="stroke:#0000FF;stroke-width:1.0;"/></g><!--link ????? to Li--><g id="link_&#1096;&#1082;&#1086;&#1083;&#1072;_Li"><path d="M448.01,366.6211 C479.33,366.6211 522.27,366.6211 549.83,366.6211 " fill="none" id="&#1096;&#1082;&#1086;&#1083;&#1072;-Li" style="stroke:#0000FF;stroke-width:1.0;"/></g><!--link Zhang to Alva--><g id="link_Zhang_Alva"><path d="M445.9,170.2611 C494.5,155.2011 580.93,136.3711 647,165.6211 C728.67,201.7811 786.4608,289.3273 812.5208,335.0873 " fill="none" id="Zhang-to-Alva" style="stroke:#0000FF;stroke-width:1.0;"/><polygon fill="#0000FF" points="815.49,340.3011,814.512,330.5009,813.0156,335.9563,807.5603,334.4599,815.49,340.3011" style="stroke:#0000FF;stroke-width:1.0;"/><text fill="#A52A2A" font-family="sans-serif" font-size="13" lengthAdjust="spacing" textLength="136.6396" x="510" y="146.6494">&#1087;&#1088;&#1086;&#1089;&#1090;&#1086; &#1086;&#1076;&#1085;&#1086;&#1082;&#1083;&#1072;&#1089;&#1089;&#1085;&#1080;&#1094;&#1072;</text></g><!--link Zhang to ?????--><g id="link_Zhang_&#1096;&#1082;&#1086;&#1083;&#1072;"><path d="M407.5,226.8311 C407.5,266.4211 407.5,322.9111 407.5,350.3811 " fill="none" id="Zhang-&#1096;&#1082;&#1086;&#1083;&#1072;" style="stroke:#0000FF;stroke-width:1.0;"/><text fill="#A52A2A" font-family="sans-serif" font-size="13" lengthAdjust="spacing" textLength="49.6196" x="370.5" y="294.1494">&#1091;&#1095;&#1077;&#1085;&#1080;&#1094;&#1072;</text></g><!--link Liu to Li--><g id="link_Liu_Li"><path d="M578,269.8711 C578,286.9111 578,300.4411 578,317.4711 " fill="none" id="Liu-to-Li" style="stroke:#0000FF;stroke-width:1.0;"/><polygon fill="#0000FF" points="578,323.4711,582,314.4711,578,318.4711,574,314.4711,578,323.4711" style="stroke:#0000FF;stroke-width:1.0;"/><text fill="#A52A2A" font-family="sans-serif" font-size="13" lengthAdjust="spacing" textLength="59.9663" x="536" y="302.1494">superviser</text></g><!--link Song to ?????--><g id="link_Song_&#1096;&#1082;&#1086;&#1083;&#1072;"><path d="M218.75,391.7711 C257.4,386.5911 326.18,377.3811 368.9,371.6611 " fill="none" id="Song-&#1096;&#1082;&#1086;&#1083;&#1072;" style="stroke:#0000FF;stroke-width:1.0;"/><text fill="#A52A2A" font-family="sans-serif" font-size="13" lengthAdjust="spacing" textLength="77.1938" x="259" y="371.6494">&#1091;&#1095;&#1080;&#1090;&#1077;&#1083;&#1100;&#1085;&#1080;&#1094;&#1072;</text></g><!--link Gao to ?????--><g id="link_Gao_&#1096;&#1082;&#1086;&#1083;&#1072;"><path d="M228.21,290.8611 C271.54,309.2711 341.13,338.8411 379.29,355.0611 " fill="none" id="Gao-&#1096;&#1082;&#1086;&#1083;&#1072;" style="stroke:#0000FF;stroke-width:1.0;"/><text fill="#A52A2A" font-family="sans-serif" font-size="13" lengthAdjust="spacing" textLength="40.6313" x="277.5" y="299.6494">&#1091;&#1095;&#1077;&#1085;&#1080;&#1082;</text></g><!--link Teng to Gao--><g id="link_Teng_Gao"><path d="M62,225.2111 C86.36,234.7611 116.8846,246.7295 144.2046,257.4495 " fill="none" id="Teng-to-Gao" style="stroke:#0000FF;stroke-width:1.0;"/><polygon fill="#0000FF" points="149.79,259.6411,142.873,252.63,145.1355,257.8147,139.9508,260.0772,149.79,259.6411" style="stroke:#0000FF;stroke-width:1.0;"/><text fill="#A52A2A" font-family="sans-serif" font-size="13" lengthAdjust="spacing" textLength="26.0571" x="93" y="232.6494">&#1076;&#1088;&#1091;&#1075;</text></g><!--link Doggy to Gao--><g id="link_Doggy_Gao"><path d="M54.07,328.0211 C77.94,318.5011 113.8162,304.1922 144.3062,292.0422 " fill="none" id="Doggy-to-Gao" style="stroke:#0000FF;stroke-width:1.0;"/><polygon fill="#0000FF" points="149.88,289.8211,140.0386,289.4369,145.2352,291.672,143.0001,296.8686,149.88,289.8211" style="stroke:#0000FF;stroke-width:1.0;"/><text fill="#A52A2A" font-family="sans-serif" font-size="13" lengthAdjust="spacing" textLength="26.0571" x="93" y="298.6494">&#1076;&#1088;&#1091;&#1075;</text></g><!--SRC=[VLBDRXCn4BxFKup41IJ20_W0Ge9o2HU21EBc9ix6oc9NNZiLjwOLq4CGhxByj8gQahx2-8sOSJOGseZJZhzlVhzlQpEE63q6MqqYZcmmmsYzWsPg7GRVc18TwQ3Vuw4UJglWaniDVUq3ng1TmvHnSIThPCOwrN7iNToatJiC_jZjPEZ0m9Qham68DjO6NzcP2VXSD_5X5xynJGHGWzfhfpXuMi-qVFi93xIh5Egc109PV6lTiR45x5k0KeMznoXLg92kgSsdUG40KYFC9eMfIxgWNxJC7-4FsyFxUKxVgQMVUK7Vg7smxRY7AIFs4G2t8KbJ1qQsvy4_Q9tdPQkzUVrqAylvQD0xhAsR2hEa5IqnVycdj4RkqD8rTkeyaLjObjwE1AjybZ_dSnRYAz8DhNdQIJxZ_gqiUavN3AswuL9p1nHXrRk9A3IOQ5_4Ba-6NsZF7cW_PhC4vpUZBvj7EF2TMH8Kir9dKmBOTDlTyYQVR0xccsH7jcRDM_0E3CwBKPzuuwuG_zbHePpOsIbPB44Ihra9XKqwCc5c6nFu__1Rc- -MBtds1Qkr-Dj6hklzPnXTyM6lsLVv3yjryW3rp5VLX_8k4K39aNEb8r_RMG25taV0Rm00]--></g></svg>