<svg xmlns="http://www.w3.org/2000/svg" xmlns:xlink="http://www.w3.org/1999/xlink" contentStyleType="text/css" height="607px" preserveAspectRatio="none" style="width:1323px;height:607px;" version="1.1" viewBox="0 0 1323 607" width="1323px" zoomAndPan="magnify"><defs><filter height="300%" id="f1rt67acgwlx1" width="300%" x="-1" y="-1"><feGaussianBlur result="blurOut" stdDeviation="2.0"/><feColorMatrix in="blurOut" result="blurOut2" type="matrix" values="0 0 0 0 0 0 0 0 0 0 0 0 0 0 0 0 0 0 .4 0"/><feOffset dx="4.0" dy="4.0" in="blurOut2" result="blurOut3"/><feBlend in="SourceGraphic" in2="blurOut3" mode="normal"/></filter></defs><g><text fill="#A52A2A" font-family="sans-serif" font-size="14" font-weight="bold" lengthAdjust="spacing" textLength="148.6201" x="580.645" y="25.1074">River East, River West</text><!--entity Sloan--><g id="elem_Sloan"><ellipse cx="830.4033" cy="333.6211" fill="#FEFECE" filter="url(#f1rt67acgwlx1)" rx="8" ry="8" style="stroke:#A80036;stroke-width:2.0;"/><path d="M830.4033,341.6211 L830.4033,368.6211 M817.4033,349.6211 L843.4033,349.6211 M830.4033,368.6211 L817.4033,383.6211 M830.4033,368.6211 L843.4033,383.6211 " fill="none" filter="url(#f1rt67acgwlx1)" style="stroke:#A80036;stroke-width:2.0;"/><text fill="#A52A2A" font-family="sans-serif" font-size="14" lengthAdjust="spacing" textLength="35.8066" x="812.5" y="405.7285">Sloan</text></g><!--entity Alva--><g id="elem_Alva"><ellipse cx="830.5" cy="473.6211" fill="#FEFECE" filter="url(#f1rt67acgwlx1)" rx="8" ry="8" style="stroke:#A80036;stroke-width:2.0;"/><path d="M830.5,481.6211 L830.5,508.6211 M817.5,489.6211 L843.5,489.6211 M830.5,508.6211 L817.5,523.6211 M830.5,508.6211 L843.5,523.6211 " fill="none" filter="url(#f1rt67acgwlx1)" style="stroke:#A80036;stroke-width:2.0;"/><text fill="#A52A2A" font-family="sans-serif" font-size="14" lengthAdjust="spacing" textLength="27.2344" x="816.8828" y="545.7285">Alva</text></g><!--entity Fang--><g id="elem_Fang"><ellipse cx="830.686" cy="193.6211" fill="#FEFECE" filter="url(#f1rt67acgwlx1)" rx="8" ry="8" style="stroke:#A80036;stroke-width:2.0;"/><path d="M830.686,201.6211 L830.686,228.6211 M817.686,209.6211 L843.686,209.6211 M830.686,228.6211 L817.686,243.6211 M830.686,228.6211 L843.686,243.6211 " fill="none" filter="url(#f1rt67acgwlx1)" style="stroke:#A80036;stroke-width:2.0;"/><text fill="#A52A2A" font-family="sans-serif" font-size="14" lengthAdjust="spacing" textLength="51.3721" x="805" y="265.7285">Lu Fang</text></g><!--entity Li--><g id="elem_Li"><ellipse cx="578.0137" cy="473.6211" fill="#FEFECE" filter="url(#f1rt67acgwlx1)" rx="8" ry="8" style="stroke:#A80036;stroke-width:2.0;"/><path d="M578.0137,481.6211 L578.0137,508.6211 M565.0137,489.6211 L591.0137,489.6211 M578.0137,508.6211 L565.0137,523.6211 M578.0137,508.6211 L591.0137,523.6211 " fill="none" filter="url(#f1rt67acgwlx1)" style="stroke:#A80036;stroke-width:2.0;"/><text fill="#A52A2A" font-family="sans-serif" font-size="14" lengthAdjust="spacing" textLength="56.0273" x="550" y="545.7285">Li Xinwei</text></g><g id="elem_&#1089;&#1074;&#1072;&#1076;&#1100;&#1073;&#1072;"><ellipse cx="988.4204" cy="366.462" fill="#FEFECE" filter="url(#f1rt67acgwlx1)" rx="49.9204" ry="16.3409" style="stroke:#A80036;stroke-width:1.0;"/><text fill="#A52A2A" font-family="sans-serif" font-size="14" lengthAdjust="spacing" textLength="53.4912" x="958.6748" y="371.2657">&#1089;&#1074;&#1072;&#1076;&#1100;&#1073;&#1072;</text></g><!--entity Feng--><g id="elem_Feng"><ellipse cx="1300.9551" cy="272.6211" fill="#FEFECE" filter="url(#f1rt67acgwlx1)" rx="8" ry="8" style="stroke:#A80036;stroke-width:2.0;"/><path d="M1300.9551,280.6211 L1300.9551,307.6211 M1287.9551,288.6211 L1313.9551,288.6211 M1300.9551,307.6211 L1287.9551,322.6211 M1300.9551,307.6211 L1313.9551,322.6211 " fill="none" filter="url(#f1rt67acgwlx1)" style="stroke:#A80036;stroke-width:2.0;"/><text fill="#A52A2A" font-family="sans-serif" font-size="14" lengthAdjust="spacing" textLength="31.9102" x="1285" y="344.7285">Feng</text></g><!--entity Lu--><g id="elem_Lu"><ellipse cx="1301" cy="393.6211" fill="#FEFECE" filter="url(#f1rt67acgwlx1)" rx="8" ry="8" style="stroke:#A80036;stroke-width:2.0;"/><path d="M1301,401.6211 L1301,428.6211 M1288,409.6211 L1314,409.6211 M1301,428.6211 L1288,443.6211 M1301,428.6211 L1314,443.6211 " fill="none" filter="url(#f1rt67acgwlx1)" style="stroke:#A80036;stroke-width:2.0;"/><text fill="#A52A2A" font-family="sans-serif" font-size="14" lengthAdjust="spacing" textLength="15.5723" x="1293.2139" y="465.7285">Lu</text></g><g id="elem_&#1096;&#1082;&#1086;&#1083;&#1072;"><ellipse cx="407.6929" cy="506.8398" fill="#FEFECE" filter="url(#f1rt67acgwlx1)" rx="40.6929" ry="16.2187" style="stroke:#A80036;stroke-width:1.0;"/><text fill="#A52A2A" font-family="sans-serif" font-size="14" lengthAdjust="spacing" textLength="41.0977" x="384.7907" y="511.462">&#1096;&#1082;&#1086;&#1083;&#1072;</text></g><!--entity Zhang--><g id="elem_Zhang"><ellipse cx="407.6411" cy="290.6211" fill="#FEFECE" filter="url(#f1rt67acgwlx1)" rx="8" ry="8" style="stroke:#A80036;stroke-width:2.0;"/><path d="M407.6411,298.6211 L407.6411,325.6211 M394.6411,306.6211 L420.6411,306.6211 M407.6411,325.6211 L394.6411,340.6211 M407.6411,325.6211 L420.6411,340.6211 " fill="none" filter="url(#f1rt67acgwlx1)" style="stroke:#A80036;stroke-width:2.0;"/><text fill="#A52A2A" font-family="sans-serif" font-size="14" lengthAdjust="spacing" textLength="76.2822" x="369.5" y="362.7285">Zhang Shao</text></g><!--entity Gao--><g id="elem_Gao"><ellipse cx="188.917" cy="381.6211" fill="#FEFECE" filter="url(#f1rt67acgwlx1)" rx="8" ry="8" style="stroke:#A80036;stroke-width:2.0;"/><path d="M188.917,389.6211 L188.917,416.6211 M175.917,397.6211 L201.917,397.6211 M188.917,416.6211 L175.917,431.6211 M188.917,416.6211 L201.917,431.6211 " fill="none" filter="url(#f1rt67acgwlx1)" style="stroke:#A80036;stroke-width:2.0;"/><text fill="#A52A2A" font-family="sans-serif" font-size="14" lengthAdjust="spacing" textLength="77.834" x="150" y="453.7285">Gao Xiaofan</text></g><!--entity Song--><g id="elem_Song"><ellipse cx="189.0688" cy="502.6211" fill="#FEFECE" filter="url(#f1rt67acgwlx1)" rx="8" ry="8" style="stroke:#A80036;stroke-width:2.0;"/><path d="M189.0688,510.6211 L189.0688,537.6211 M176.0688,518.6211 L202.0688,518.6211 M189.0688,537.6211 L176.0688,552.6211 M189.0688,537.6211 L202.0688,552.6211 " fill="none" filter="url(#f1rt67acgwlx1)" style="stroke:#A80036;stroke-width:2.0;"/><text fill="#A52A2A" font-family="sans-serif" font-size="14" lengthAdjust="spacing" textLength="59.1377" x="159.5" y="574.7285">Ms. Song</text></g><!--entity Liu--><g id="elem_Liu"><ellipse cx="578" cy="333.6211" fill="#FEFECE" filter="url(#f1rt67acgwlx1)" rx="8" ry="8" style="stroke:#A80036;stroke-width:2.0;"/><path d="M578,341.6211 L578,368.6211 M565,349.6211 L591,349.6211 M578,368.6211 L565,383.6211 M578,368.6211 L591,383.6211 " fill="none" filter="url(#f1rt67acgwlx1)" style="stroke:#A80036;stroke-width:2.0;"/><text fill="#A52A2A" font-family="sans-serif" font-size="14" lengthAdjust="spacing" textLength="18.6826" x="568.6587" y="405.7285">Liu</text></g><!--entity Teng--><g id="elem_Teng"><ellipse cx="34.0171" cy="321.6211" fill="#FEFECE" filter="url(#f1rt67acgwlx1)" rx="8" ry="8" style="stroke:#A80036;stroke-width:2.0;"/><path d="M34.0171,329.6211 L34.0171,356.6211 M21.0171,337.6211 L47.0171,337.6211 M34.0171,356.6211 L21.0171,371.6211 M34.0171,356.6211 L47.0171,371.6211 " fill="none" filter="url(#f1rt67acgwlx1)" style="stroke:#A80036;stroke-width:2.0;"/><text fill="#A52A2A" font-family="sans-serif" font-size="14" lengthAdjust="spacing" textLength="56.0342" x="6" y="393.7285">Teng Xin</text></g><!--entity Doggy--><g id="elem_Doggy"><ellipse cx="34.2344" cy="442.6211" fill="#FEFECE" filter="url(#f1rt67acgwlx1)" rx="8" ry="8" style="stroke:#A80036;stroke-width:2.0;"/><path d="M34.2344,450.6211 L34.2344,477.6211 M21.2344,458.6211 L47.2344,458.6211 M34.2344,477.6211 L21.2344,492.6211 M34.2344,477.6211 L47.2344,492.6211 " fill="none" filter="url(#f1rt67acgwlx1)" style="stroke:#A80036;stroke-width:2.0;"/><text fill="#A52A2A" font-family="sans-serif" font-size="14" lengthAdjust="spacing" textLength="40.4688" x="14" y="514.7285">Doggy</text></g><!--entity Ciyi--><g id="elem_Ciyi"><ellipse cx="830.5" cy="53.6211" fill="#FEFECE" filter="url(#f1rt67acgwlx1)" rx="8" ry="8" style="stroke:#A80036;stroke-width:2.0;"/><path d="M830.5,61.6211 L830.5,88.6211 M817.5,69.6211 L843.5,69.6211 M830.5,88.6211 L817.5,103.6211 M830.5,88.6211 L843.5,103.6211 " fill="none" filter="url(#f1rt67acgwlx1)" style="stroke:#A80036;stroke-width:2.0;"/><text fill="#A52A2A" font-family="sans-serif" font-size="14" lengthAdjust="spacing" textLength="23.3311" x="818.8345" y="125.7285">Ciyi</text></g><g id="elem_Qingdao"><ellipse cx="988.4784" cy="156.8168" fill="#FEFECE" filter="url(#f1rt67acgwlx1)" rx="71.4784" ry="16.6957" style="stroke:#A80036;stroke-width:1.0;"/><text fill="#A52A2A" font-family="sans-serif" font-size="14" lengthAdjust="spacing" textLength="84.0684" x="943.4442" y="161.6205">Qindao, 1985</text></g><!--link Sloan to Alva--><g id="link_Sloan_Alva"><path d="M830.5,409.8711 C830.5,426.9111 830.5,440.4411 830.5,457.4711 " fill="none" id="Sloan-to-Alva" style="stroke:#0000FF;stroke-width:1.0;"/><polygon fill="#0000FF" points="830.5,463.4711,834.5,454.4711,830.5,458.4711,826.5,454.4711,830.5,463.4711" style="stroke:#0000FF;stroke-width:1.0;"/><text fill="#228B22" font-family="sans-serif" font-size="13" lengthAdjust="spacing" textLength="28.8945" x="804" y="442.1494">&#1084;&#1072;&#1090;&#1100;</text></g><!--link Fang to Sloan--><g id="link_Fang_Sloan"><path d="M830.5,269.8711 C830.5,286.9111 830.5,300.4411 830.5,317.4711 " fill="none" id="Fang-to-Sloan" style="stroke:#0000FF;stroke-width:1.0;"/><polygon fill="#0000FF" points="830.5,323.4711,834.5,314.4711,830.5,318.4711,826.5,314.4711,830.5,323.4711" style="stroke:#0000FF;stroke-width:1.0;"/><text fill="#228B22" font-family="sans-serif" font-size="13" lengthAdjust="spacing" textLength="36.8672" x="800" y="302.1494">&#1078;&#1077;&#1085;&#1080;&#1093;</text></g><!--link Fang to ???????--><g id="link_Fang_&#1089;&#1074;&#1072;&#1076;&#1100;&#1073;&#1072;"><path d="M856.22,248.8011 C888.01,277.3311 942.41,326.1511 970.14,351.0411 " fill="none" id="Fang-&#1089;&#1074;&#1072;&#1076;&#1100;&#1073;&#1072;" style="stroke:#0000FF;stroke-width:1.0;"/></g><!--link Sloan to ???????--><g id="link_Sloan_&#1089;&#1074;&#1072;&#1076;&#1100;&#1073;&#1072;"><path d="M848.79,366.6211 C870.21,366.6211 907.61,366.6211 938.18,366.6211 " fill="none" id="Sloan-&#1089;&#1074;&#1072;&#1076;&#1100;&#1073;&#1072;" style="stroke:#0000FF;stroke-width:1.0;"/></g><!--link Alva to ???????--><g id="link_Alva_&#1089;&#1074;&#1072;&#1076;&#1100;&#1073;&#1072;"><path d="M845.62,493.9511 C874.27,468.2411 939.15,410.0111 970.25,382.1011 " fill="none" id="Alva-&#1089;&#1074;&#1072;&#1076;&#1100;&#1073;&#1072;" style="stroke:#0000FF;stroke-width:1.0;"/></g><!--link ??????? to Feng--><g id="link_&#1089;&#1074;&#1072;&#1076;&#1100;&#1073;&#1072;_Feng"><path d="M1030.51,357.3311 C1048.71,353.2911 1070.39,348.5911 1090,344.6211 C1162.87,329.8811 1250.41,314.3111 1284.94,308.2511 " fill="none" id="&#1089;&#1074;&#1072;&#1076;&#1100;&#1073;&#1072;-Feng" style="stroke:#0000FF;stroke-width:1.0;"/><text fill="#228B22" font-family="sans-serif" font-size="13" lengthAdjust="spacing" textLength="31.1987" x="1157" y="309.6494">&#1075;&#1086;&#1089;&#1090;&#1100;</text></g><!--link ??????? to Lu--><g id="link_&#1089;&#1074;&#1072;&#1076;&#1100;&#1073;&#1072;_Lu"><path d="M1016.44,380.5811 C1036.25,390.1711 1064.11,402.2611 1090,408.6211 C1161.96,426.2811 1251.48,427.2611 1285.75,426.9011 " fill="none" id="&#1089;&#1074;&#1072;&#1076;&#1100;&#1073;&#1072;-Lu" style="stroke:#0000FF;stroke-width:1.0;"/><text fill="#228B22" font-family="sans-serif" font-size="13" lengthAdjust="spacing" textLength="31.1987" x="1157.0815" y="363.6494">&#1075;&#1086;&#1089;&#1090;&#1100;</text><path d="M1095,372.9121 L1095,399.9121 L1246,399.9121 L1246,382.9121 L1236,372.9121 L1095,372.9121 " fill="#FBFB77" filter="url(#f1rt67acgwlx1)" style="stroke:#A80036;stroke-width:1.0;"/><path d="M1236,372.9121 L1236,382.9121 L1246,382.9121 L1236,372.9121 " fill="#FBFB77" style="stroke:#A80036;stroke-width:1.0;"/><text fill="#A52A2A" font-family="sans-serif" font-size="13" lengthAdjust="spacing" textLength="130.3618" x="1101" y="391.9404">&#1080;&#1083;&#1080; &#1101;&#1090;&#1086; &#1089;&#1072;&#1084; Lu Fang?</text></g><!--link Li to Alva--><g id="link_Li_Alva"><path d="M606.28,506.6211 C659.42,506.6211 769.08,506.6211 809.34,506.6211 " fill="none" id="Li-to-Alva" style="stroke:#0000FF;stroke-width:1.0;"/><polygon fill="#0000FF" points="815.34,506.6211,806.34,502.6211,810.34,506.6211,806.34,510.6211,815.34,506.6211" style="stroke:#0000FF;stroke-width:1.0;"/><text fill="#228B22" font-family="sans-serif" font-size="13" lengthAdjust="spacing" textLength="96.7256" x="678" y="502.6494">&#1083;&#1091;&#1095;&#1096;&#1072;&#1103; &#1087;&#1086;&#1076;&#1088;&#1091;&#1075;&#1072;</text></g><!--link ????? to Alva--><g id="link_&#1096;&#1082;&#1086;&#1083;&#1072;_Alva"><path d="M425.62,521.1011 C444.59,536.1011 476.76,558.6011 509,567.6211 C625.19,600.1211 769.91,536.3111 815.24,513.9611 " fill="none" id="&#1096;&#1082;&#1086;&#1083;&#1072;-Alva" style="stroke:#0000FF;stroke-width:1.0;"/></g><!--link ????? to Li--><g id="link_&#1096;&#1082;&#1086;&#1083;&#1072;_Li"><path d="M448.01,506.6211 C479.33,506.6211 522.27,506.6211 549.83,506.6211 " fill="none" id="&#1096;&#1082;&#1086;&#1083;&#1072;-Li" style="stroke:#0000FF;stroke-width:1.0;"/></g><!--link Zhang to Alva--><g id="link_Zhang_Alva"><path d="M445.89,310.5311 C494.48,295.7911 580.92,277.4611 647,306.6211 C728.49,342.5811 786.3552,429.6862 812.4652,475.2162 " fill="none" id="Zhang-to-Alva" style="stroke:#0000FF;stroke-width:1.0;"/><polygon fill="#0000FF" points="815.45,480.4211,814.4427,470.6239,812.9626,476.0837,807.5028,474.6037,815.45,480.4211" style="stroke:#0000FF;stroke-width:1.0;"/><text fill="#228B22" font-family="sans-serif" font-size="13" lengthAdjust="spacing" textLength="136.6396" x="510" y="286.6494">&#1087;&#1088;&#1086;&#1089;&#1090;&#1086; &#1086;&#1076;&#1085;&#1086;&#1082;&#1083;&#1072;&#1089;&#1089;&#1085;&#1080;&#1094;&#1072;</text></g><!--link Zhang to ?????--><g id="link_Zhang_&#1096;&#1082;&#1086;&#1083;&#1072;"><path d="M407.5,366.8311 C407.5,406.4211 407.5,462.9111 407.5,490.3811 " fill="none" id="Zhang-&#1096;&#1082;&#1086;&#1083;&#1072;" style="stroke:#0000FF;stroke-width:1.0;"/><text fill="#228B22" font-family="sans-serif" font-size="13" lengthAdjust="spacing" textLength="49.6196" x="370.5" y="434.1494">&#1091;&#1095;&#1077;&#1085;&#1080;&#1094;&#1072;</text></g><!--link Liu to Li--><g id="link_Liu_Li"><path d="M578,409.8711 C578,426.9111 578,440.4411 578,457.4711 " fill="none" id="Liu-to-Li" style="stroke:#0000FF;stroke-width:1.0;"/><polygon fill="#0000FF" points="578,463.4711,582,454.4711,578,458.4711,574,454.4711,578,463.4711" style="stroke:#0000FF;stroke-width:1.0;"/><text fill="#228B22" font-family="sans-serif" font-size="13" lengthAdjust="spacing" textLength="59.9663" x="536" y="442.1494">superviser</text></g><!--link Song to ?????--><g id="link_Song_&#1096;&#1082;&#1086;&#1083;&#1072;"><path d="M218.75,531.7711 C257.4,526.5911 326.18,517.3811 368.9,511.6611 " fill="none" id="Song-&#1096;&#1082;&#1086;&#1083;&#1072;" style="stroke:#0000FF;stroke-width:1.0;"/><text fill="#228B22" font-family="sans-serif" font-size="13" lengthAdjust="spacing" textLength="77.1938" x="259" y="511.6494">&#1091;&#1095;&#1080;&#1090;&#1077;&#1083;&#1100;&#1085;&#1080;&#1094;&#1072;</text></g><!--link Gao to ?????--><g id="link_Gao_&#1096;&#1082;&#1086;&#1083;&#1072;"><path d="M228.21,430.8611 C271.54,449.2711 341.13,478.8411 379.29,495.0611 " fill="none" id="Gao-&#1096;&#1082;&#1086;&#1083;&#1072;" style="stroke:#0000FF;stroke-width:1.0;"/><text fill="#228B22" font-family="sans-serif" font-size="13" lengthAdjust="spacing" textLength="40.6313" x="277.5" y="439.6494">&#1091;&#1095;&#1077;&#1085;&#1080;&#1082;</text></g><!--link Teng to Gao--><g id="link_Teng_Gao"><path d="M62,365.2111 C86.36,374.7611 116.8846,386.7295 144.2046,397.4495 " fill="none" id="Teng-to-Gao" style="stroke:#0000FF;stroke-width:1.0;"/><polygon fill="#0000FF" points="149.79,399.6411,142.873,392.63,145.1355,397.8147,139.9508,400.0772,149.79,399.6411" style="stroke:#0000FF;stroke-width:1.0;"/><text fill="#228B22" font-family="sans-serif" font-size="13" lengthAdjust="spacing" textLength="26.0571" x="93" y="372.6494">&#1076;&#1088;&#1091;&#1075;</text></g><!--link Doggy to Gao--><g id="link_Doggy_Gao"><path d="M54.07,468.0211 C77.94,458.5011 113.8162,444.1922 144.3062,432.0422 " fill="none" id="Doggy-to-Gao" style="stroke:#0000FF;stroke-width:1.0;"/><polygon fill="#0000FF" points="149.88,429.8211,140.0386,429.4369,145.2352,431.672,143.0001,436.8686,149.88,429.8211" style="stroke:#0000FF;stroke-width:1.0;"/><text fill="#228B22" font-family="sans-serif" font-size="13" lengthAdjust="spacing" textLength="26.0571" x="93" y="438.6494">&#1076;&#1088;&#1091;&#1075;</text></g><!--link Ciyi to Fang--><g id="link_Ciyi_Fang"><path d="M830.5,129.8711 C830.5,146.9111 830.5,158.4411 830.5,175.4711 " fill="none" id="Ciyi-to-Fang" style="stroke:#0000FF;stroke-width:1.0;"/><polygon fill="#0000FF" points="830.5,183.4711,833.5,175.4711,827.5,175.4711,830.5,183.4711" style="stroke:#0000FF;stroke-width:1.0;"/><text fill="#228B22" font-family="sans-serif" font-size="13" lengthAdjust="spacing" textLength="30.3354" x="803" y="162.1494">&#1078;&#1077;&#1085;&#1072;</text></g><!--link Ciyi to Qingdao--><g id="link_Ciyi_Qingdao"><path d="M845.62,92.9611 C870.14,103.9611 921.22,126.8811 954.92,142.0011 " fill="none" id="Ciyi-Qingdao" style="stroke:#0000FF;stroke-width:1.0;"/></g><!--link Fang to Qingdao--><g id="link_Fang_Qingdao"><path d="M856.22,215.5311 C882.85,203.5811 925.36,184.5011 954.76,171.3111 " fill="none" id="Fang-Qingdao" style="stroke:#0000FF;stroke-width:1.0;"/></g><!--SRC=[VLBDRXCn4BxxAKRYGgKk4WSayA485Seb721886vkrhknijYLrvkgjwOLq4CGhx85MaLDIL_1VYDclBljaaQSF9xlczzl2favS0QioiSEKcNbo2cZMJbH6gmfPRGEX1MVOL-C9harbKv7fZ0Md1MwH4XgrsEbCXDLuJAZNKDxi6_DeUunX4L7XnMLN8TwePcnidIvbL8pvfGh9BnJKsdXbIZTTcj_G0fZV5WOeJaQBugfe7TGmPxGEGTHHeDS2ZugVIXLT0uKOp4AaXsWAE3WhtqTJiASCKOnX3GKX2xzXV_Z5-4BkqKJU1Xc_gUl_Uymz-U-tkeoRa1YYKq0O-ikel4zITrZuLz-5MQngusyGRN6qiP9C1eAfIU4BFpIBo1y3oT-1PYXzjVGRkSvpO9hINehM8RJy2sSuI9-WB_nAwns74unVqsDdlahT2tRuXHppqcBvP_6jA7XM9YuxFX5zsjXK0DXCXIB_FX7xvlo4GnDAnOPKQogbQbYhCdMx_8c73S3uqpK8qgpmYwm1tJEeb1ViUCs4FxfaGEDsCf9B5n1HLhZ9ZYKrO6qKrLAY_TXEfdlXo-mzWLkQtwNXgPB_bFCN-5Wxr5NkiCu7NqOVsdo_2Z-eyLOvD2ub16dRILW4Tu4ODvTTTGSDXbqL6-LJeNPXiVFdZxP8W0TUKeB9mREknDluEwswmv9RgdTdNV_lm00]--></g></svg>