<svg xmlns="http://www.w3.org/2000/svg" xmlns:xlink="http://www.w3.org/1999/xlink" contentStyleType="text/css" height="754px" preserveAspectRatio="none" style="width:1198px;height:754px;" version="1.1" viewBox="0 0 1198 754" width="1198px" zoomAndPan="magnify"><title>The Vegetarian</title><defs><filter height="300%" id="f185rfe8hp6dkk" width="300%" x="-1" y="-1"><feGaussianBlur result="blurOut" stdDeviation="2"/><feColorMatrix in="blurOut" result="blurOut2" type="matrix" values="0 0 0 0 0 0 0 0 0 0 0 0 0 0 0 0 0 0 .4 0"/><feOffset dx="4" dy="4" in="blurOut2" result="blurOut3"/><feBlend in="SourceGraphic" in2="blurOut3" mode="normal"/></filter></defs><g><text fill="#4682B4" font-family="sans-serif" font-size="14" font-weight="bold" lengthAdjust="spacing" textLength="100.3652" x="539.6247" y="25.1074">The Vegetarian</text><rect fill="none" height="675.8496" style="stroke:#A80036;stroke-width:1;" width="1192.6147" x="0" y="39.6211"/><path d="M75.3584,39.6211 L75.3584,51.2422 L65.3584,61.2422 L0,61.2422 " fill="none" style="stroke:#A80036;stroke-width:1;"/><text fill="#4682B4" font-family="sans-serif" font-size="14" lengthAdjust="spacing" textLength="65.3584" x="3" y="55.7285">characters</text><!--entity narrator--><g id="elem_narrator"><ellipse cx="218.4204" cy="448.3633" fill="#FF00FF" filter="url(#f185rfe8hp6dkk)" rx="8" ry="8" style="stroke:#A80036;stroke-width:2;"/><path d="M218.4204,456.3633 L218.4204,483.3633 M205.4204,464.3633 L231.4204,464.3633 M218.4204,483.3633 L205.4204,498.3633 M218.4204,483.3633 L231.4204,498.3633 " fill="none" filter="url(#f185rfe8hp6dkk)" style="stroke:#A80036;stroke-width:2;"/><text fill="#4682B4" font-family="sans-serif" font-size="14" lengthAdjust="spacing" textLength="16.3242" x="183.793" y="520.4707">Mr</text><text fill="#4682B4" font-family="sans-serif" font-size="14" lengthAdjust="spacing" textLength="3.8896" x="200.1172" y="520.4707">&#160;</text><text fill="#4682B4" font-family="sans-serif" font-size="14" lengthAdjust="spacing" textLength="49.041" x="204.0068" y="520.4707">Cheong</text><text fill="#4682B4" font-family="sans-serif" font-size="14" font-style="italic" lengthAdjust="spacing" textLength="84.8408" x="176" y="434.8496">&#171;protagonist&#187;</text></g><g id="elem_GMN3"><path d="M192.5,357.2422 L192.5,384.5332 A0,0 0 0 0 192.5,384.5332 L214.5,384.5332 L218.5,419.6622 L222.5,384.5332 L244.5654,384.5332 A0,0 0 0 0 244.5654,384.5332 L244.5654,367.2422 L234.5654,357.2422 L192.5,357.2422 A0,0 0 0 0 192.5,357.2422 " fill="#FBFB77" filter="url(#f185rfe8hp6dkk)" style="stroke:#A80036;stroke-width:1;"/><path d="M234.5654,357.2422 L234.5654,367.2422 L244.5654,367.2422 L234.5654,357.2422 " fill="#FBFB77" style="stroke:#A80036;stroke-width:1;"/><text fill="#4682B4" font-family="sans-serif" font-size="13" lengthAdjust="spacing" textLength="23.8418" x="198.5" y="376.2705">Part</text><text fill="#4682B4" font-family="sans-serif" font-size="13" lengthAdjust="spacing" textLength="3.6118" x="222.3418" y="376.2705">&#160;</text><text fill="#4682B4" font-family="sans-serif" font-size="13" lengthAdjust="spacing" textLength="3.6118" x="225.9536" y="376.2705">I</text></g><!--entity vegetarian--><g id="elem_vegetarian"><ellipse cx="461.7515" cy="438.7422" fill="#FEFECE" filter="url(#f185rfe8hp6dkk)" rx="8" ry="8" style="stroke:#A80036;stroke-width:2;"/><path d="M461.7515,446.7422 L461.7515,473.7422 M448.7515,454.7422 L474.7515,454.7422 M461.7515,473.7422 L448.7515,488.7422 M461.7515,473.7422 L474.7515,488.7422 " fill="none" filter="url(#f185rfe8hp6dkk)" style="stroke:#A80036;stroke-width:2;"/><text fill="#4682B4" font-family="sans-serif" font-size="14" lengthAdjust="spacing" textLength="68.5029" x="427.5" y="510.8496">Yeong-hue</text></g><g id="elem_GMN7"><path d="M407,366.2422 L407,393.5332 A0,0 0 0 0 407,393.5332 L458,393.5332 L462,428.6222 L466,393.5332 L516.8926,393.5332 A0,0 0 0 0 516.8926,393.5332 L516.8926,376.2422 L506.8926,366.2422 L407,366.2422 A0,0 0 0 0 407,366.2422 " fill="#FBFB77" filter="url(#f185rfe8hp6dkk)" style="stroke:#A80036;stroke-width:1;"/><path d="M506.8926,366.2422 L506.8926,376.2422 L516.8926,376.2422 L506.8926,366.2422 " fill="#FBFB77" style="stroke:#A80036;stroke-width:1;"/><text fill="#4682B4" font-family="sans-serif" font-size="13" lengthAdjust="spacing" textLength="22.4009" x="413" y="385.2705">The</text><text fill="#4682B4" font-family="sans-serif" font-size="13" lengthAdjust="spacing" textLength="3.6118" x="435.4009" y="385.2705">&#160;</text><text fill="#4682B4" font-family="sans-serif" font-size="13" lengthAdjust="spacing" textLength="62.8799" x="439.0127" y="385.2705">Vegetarian</text></g><!--entity sister--><g id="elem_sister"><ellipse cx="218.4204" cy="246.3633" fill="#FF00FF" filter="url(#f185rfe8hp6dkk)" rx="8" ry="8" style="stroke:#A80036;stroke-width:2;"/><path d="M218.4204,254.3633 L218.4204,281.3633 M205.4204,262.3633 L231.4204,262.3633 M218.4204,281.3633 L205.4204,296.3633 M218.4204,281.3633 L231.4204,296.3633 " fill="none" filter="url(#f185rfe8hp6dkk)" style="stroke:#A80036;stroke-width:2;"/><text fill="#4682B4" font-family="sans-serif" font-size="14" lengthAdjust="spacing" textLength="38.9102" x="198.9653" y="318.4707">In-hye</text><text fill="#4682B4" font-family="sans-serif" font-size="14" font-style="italic" lengthAdjust="spacing" textLength="84.8408" x="176" y="232.8496">&#171;protagonist&#187;</text></g><g id="elem_GMN12"><path d="M189,155.2422 L189,182.5332 A0,0 0 0 0 189,182.5332 L214.5,182.5332 L218.5,217.6622 L222.5,182.5332 L248.2891,182.5332 A0,0 0 0 0 248.2891,182.5332 L248.2891,165.2422 L238.2891,155.2422 L189,155.2422 A0,0 0 0 0 189,155.2422 " fill="#FBFB77" filter="url(#f185rfe8hp6dkk)" style="stroke:#A80036;stroke-width:1;"/><path d="M238.2891,155.2422 L238.2891,165.2422 L248.2891,165.2422 L238.2891,155.2422 " fill="#FBFB77" style="stroke:#A80036;stroke-width:1;"/><text fill="#4682B4" font-family="sans-serif" font-size="13" lengthAdjust="spacing" textLength="23.8418" x="195" y="174.2705">Part</text><text fill="#4682B4" font-family="sans-serif" font-size="13" lengthAdjust="spacing" textLength="3.6118" x="218.8418" y="174.2705">&#160;</text><text fill="#4682B4" font-family="sans-serif" font-size="13" lengthAdjust="spacing" textLength="10.8354" x="222.4536" y="174.2705">III</text></g><!--entity brother--><g id="elem_brother"><ellipse cx="218.3584" cy="568.7422" fill="#FEFECE" filter="url(#f185rfe8hp6dkk)" rx="8" ry="8" style="stroke:#A80036;stroke-width:2;"/><path d="M218.3584,576.7422 L218.3584,603.7422 M205.3584,584.7422 L231.3584,584.7422 M218.3584,603.7422 L205.3584,618.7422 M218.3584,603.7422 L231.3584,618.7422 " fill="none" filter="url(#f185rfe8hp6dkk)" style="stroke:#A80036;stroke-width:2;"/><text fill="#4682B4" font-family="sans-serif" font-size="14" lengthAdjust="spacing" textLength="60.7168" x="188" y="640.8496">Yeong-ho</text></g><!--entity nephew--><g id="elem_nephew"><ellipse cx="462.2275" cy="245.7422" fill="#FEFECE" filter="url(#f185rfe8hp6dkk)" rx="8" ry="8" style="stroke:#A80036;stroke-width:2;"/><path d="M462.2275,253.7422 L462.2275,280.7422 M449.2275,261.7422 L475.2275,261.7422 M462.2275,280.7422 L449.2275,295.7422 M462.2275,280.7422 L475.2275,295.7422 " fill="none" filter="url(#f185rfe8hp6dkk)" style="stroke:#A80036;stroke-width:2;"/><text fill="#4682B4" font-family="sans-serif" font-size="14" lengthAdjust="spacing" textLength="40.4551" x="442" y="317.8496">Ji-woo</text></g><g id="elem_studio"><ellipse cx="894.516" cy="153.7166" fill="#E6E6FA" filter="url(#f185rfe8hp6dkk)" rx="47.516" ry="28.9744" style="stroke:#A80036;stroke-width:1;"/><text fill="#4682B4" font-family="sans-serif" font-size="14" font-style="italic" lengthAdjust="spacing" textLength="63.8271" x="862.6024" y="150.729">&#171;location&#187;</text><text fill="#4682B4" font-family="sans-serif" font-size="14" lengthAdjust="spacing" textLength="39.6963" x="874.6678" y="169.3501">Studio</text></g><!--entity he--><g id="elem_he"><ellipse cx="681.793" cy="165.3633" fill="#FF00FF" filter="url(#f185rfe8hp6dkk)" rx="8" ry="8" style="stroke:#A80036;stroke-width:2;"/><path d="M681.793,173.3633 L681.793,200.3633 M668.793,181.3633 L694.793,181.3633 M681.793,200.3633 L668.793,215.3633 M681.793,200.3633 L694.793,215.3633 " fill="none" filter="url(#f185rfe8hp6dkk)" style="stroke:#A80036;stroke-width:2;"/><text fill="#4682B4" font-family="sans-serif" font-size="14" lengthAdjust="spacing" textLength="85.5859" x="639" y="237.4707">brother-in-law</text><text fill="#4682B4" font-family="sans-serif" font-size="14" font-style="italic" lengthAdjust="spacing" textLength="84.8408" x="639.3726" y="151.8496">&#171;protagonist&#187;</text></g><g id="elem_GMN23"><path d="M654,74.2422 L654,101.5332 A0,0 0 0 0 654,101.5332 L678,101.5332 L682,136.6622 L686,101.5332 L709.6772,101.5332 A0,0 0 0 0 709.6772,101.5332 L709.6772,84.2422 L699.6772,74.2422 L654,74.2422 A0,0 0 0 0 654,74.2422 " fill="#FBFB77" filter="url(#f185rfe8hp6dkk)" style="stroke:#A80036;stroke-width:1;"/><path d="M699.6772,74.2422 L699.6772,84.2422 L709.6772,84.2422 L699.6772,74.2422 " fill="#FBFB77" style="stroke:#A80036;stroke-width:1;"/><text fill="#4682B4" font-family="sans-serif" font-size="13" lengthAdjust="spacing" textLength="23.8418" x="660" y="93.2705">Part</text><text fill="#4682B4" font-family="sans-serif" font-size="13" lengthAdjust="spacing" textLength="3.6118" x="683.8418" y="93.2705">&#160;</text><text fill="#4682B4" font-family="sans-serif" font-size="13" lengthAdjust="spacing" textLength="7.2236" x="687.4536" y="93.2705">II</text></g><!--entity J--><g id="elem_J"><ellipse cx="1109.5" cy="150.7422" fill="#FEFECE" filter="url(#f185rfe8hp6dkk)" rx="8" ry="8" style="stroke:#A80036;stroke-width:2;"/><path d="M1109.5,158.7422 L1109.5,185.7422 M1096.5,166.7422 L1122.5,166.7422 M1109.5,185.7422 L1096.5,200.7422 M1109.5,185.7422 L1122.5,200.7422 " fill="none" filter="url(#f185rfe8hp6dkk)" style="stroke:#A80036;stroke-width:2;"/><text fill="#4682B4" font-family="sans-serif" font-size="14" lengthAdjust="spacing" textLength="7" x="1106" y="222.8496">J</text></g><g id="elem_mstudio"><ellipse cx="1109.3073" cy="307.6271" fill="#E6E6FA" filter="url(#f185rfe8hp6dkk)" rx="70.3073" ry="27.885" style="stroke:#A80036;stroke-width:1;"/><text fill="#4682B4" font-family="sans-serif" font-size="14" font-style="italic" lengthAdjust="spacing" textLength="63.8271" x="1071.6533" y="302.1217">&#171;location&#187;</text><text fill="#4682B4" font-family="sans-serif" font-size="14" lengthAdjust="spacing" textLength="47.4824" x="1059.2017" y="320.7428">another</text><text fill="#4682B4" font-family="sans-serif" font-size="14" lengthAdjust="spacing" textLength="3.8896" x="1106.6841" y="320.7428">&#160;</text><text fill="#4682B4" font-family="sans-serif" font-size="14" lengthAdjust="spacing" textLength="37.3584" x="1110.5738" y="320.7428">studio</text></g><!--entity M--><g id="elem_M"><ellipse cx="894.5" cy="298.7422" fill="#FEFECE" filter="url(#f185rfe8hp6dkk)" rx="8" ry="8" style="stroke:#A80036;stroke-width:2;"/><path d="M894.5,306.7422 L894.5,333.7422 M881.5,314.7422 L907.5,314.7422 M894.5,333.7422 L881.5,348.7422 M894.5,333.7422 L907.5,348.7422 " fill="none" filter="url(#f185rfe8hp6dkk)" style="stroke:#A80036;stroke-width:2;"/><text fill="#4682B4" font-family="sans-serif" font-size="14" lengthAdjust="spacing" textLength="11.6621" x="888.6689" y="370.8496">M</text></g><!--entity P--><g id="elem_P"><ellipse cx="682.1792" cy="304.3633" fill="#F08080" filter="url(#f185rfe8hp6dkk)" rx="8" ry="8" style="stroke:#A80036;stroke-width:2;"/><path d="M682.1792,312.3633 L682.1792,339.3633 M669.1792,320.3633 L695.1792,320.3633 M682.1792,339.3633 L669.1792,354.3633 M682.1792,339.3633 L695.1792,354.3633 " fill="none" filter="url(#f185rfe8hp6dkk)" style="stroke:#A80036;stroke-width:2;"/><text fill="#4682B4" font-family="sans-serif" font-size="14" lengthAdjust="spacing" textLength="9.3379" x="677.5103" y="376.4707">P</text><text fill="#4682B4" font-family="sans-serif" font-size="14" font-style="italic" lengthAdjust="spacing" textLength="30.3584" x="667" y="290.8496">&#171;ex&#187;</text></g><g id="elem_family"><ellipse cx="60.5074" cy="436.7982" fill="#FFE0E0" filter="url(#f185rfe8hp6dkk)" rx="54.5074" ry="28.056" style="stroke:#A80036;stroke-width:1;"/><text fill="#4682B4" font-family="sans-serif" font-size="14" font-style="italic" lengthAdjust="spacing" textLength="51.3789" x="29.6234" y="431.867">&#171;group&#187;</text><text fill="#4682B4" font-family="sans-serif" font-size="14" lengthAdjust="spacing" textLength="24.1104" x="23.0336" y="450.4881">Kim</text><text fill="#4682B4" font-family="sans-serif" font-size="14" lengthAdjust="spacing" textLength="3.8896" x="47.1439" y="450.4881">&#160;</text><text fill="#4682B4" font-family="sans-serif" font-size="14" lengthAdjust="spacing" textLength="36.5586" x="51.0336" y="450.4881">family</text></g><g id="elem_hospital"><ellipse cx="682.2083" cy="537.7089" fill="#FEFECE" filter="url(#f185rfe8hp6dkk)" rx="64.2083" ry="51.9667" style="stroke:#A80036;stroke-width:1;"/><text fill="#4682B4" font-family="sans-serif" font-size="14" font-style="italic" lengthAdjust="spacing" textLength="66.9307" x="643.9913" y="514.5809">&#171;istitution&#187;</text><text fill="#4682B4" font-family="sans-serif" font-size="14" lengthAdjust="spacing" textLength="73.9375" x="640.4879" y="533.202">Ch&#8217;ukseong</text><text fill="#4682B4" font-family="sans-serif" font-size="14" lengthAdjust="spacing" textLength="67.6826" x="643.6153" y="551.8231">Psychiatric</text><text fill="#4682B4" font-family="sans-serif" font-size="14" lengthAdjust="spacing" textLength="50.5791" x="652.1671" y="570.4442">Hospital</text></g><!--entity doctor--><g id="elem_doctor"><ellipse cx="894.5688" cy="620.7422" fill="#FEFECE" filter="url(#f185rfe8hp6dkk)" rx="8" ry="8" style="stroke:#A80036;stroke-width:2;"/><path d="M894.5688,628.7422 L894.5688,655.7422 M881.5688,636.7422 L907.5688,636.7422 M894.5688,655.7422 L881.5688,670.7422 M894.5688,655.7422 L907.5688,670.7422 " fill="none" filter="url(#f185rfe8hp6dkk)" style="stroke:#A80036;stroke-width:2;"/><text fill="#4682B4" font-family="sans-serif" font-size="14" lengthAdjust="spacing" textLength="18.6621" x="851" y="692.8496">Dr.</text><text fill="#4682B4" font-family="sans-serif" font-size="14" lengthAdjust="spacing" textLength="3.8896" x="869.6621" y="692.8496">&#160;</text><text fill="#4682B4" font-family="sans-serif" font-size="14" lengthAdjust="spacing" textLength="28.7861" x="873.5518" y="692.8496">Park</text><text fill="#4682B4" font-family="sans-serif" font-size="14" lengthAdjust="spacing" textLength="3.8896" x="902.3379" y="692.8496">&#160;</text><text fill="#4682B4" font-family="sans-serif" font-size="14" lengthAdjust="spacing" textLength="31.9102" x="906.2275" y="692.8496">In-ho</text></g><!--entity Hee-joo--><g id="elem_Hee-joo"><ellipse cx="894.5137" cy="499.7422" fill="#FEFECE" filter="url(#f185rfe8hp6dkk)" rx="8" ry="8" style="stroke:#A80036;stroke-width:2;"/><path d="M894.5137,507.7422 L894.5137,534.7422 M881.5137,515.7422 L907.5137,515.7422 M894.5137,534.7422 L881.5137,549.7422 M894.5137,534.7422 L907.5137,549.7422 " fill="none" filter="url(#f185rfe8hp6dkk)" style="stroke:#A80036;stroke-width:2;"/><text fill="#4682B4" font-family="sans-serif" font-size="14" lengthAdjust="spacing" textLength="49.0273" x="870" y="571.8496">Hee-joo</text></g><!--reverse link narrator to vegetarian--><g id="link_narrator_vegetarian"><path d="M267.02,471.7422 C314.08,471.7422 383.9,471.7422 427.41,471.7422 " fill="none" id="narrator-backto-vegetarian" style="stroke:#A80036;stroke-width:1;"/><polygon fill="#A80036" points="261.02,471.7422,270.02,475.7422,266.02,471.7422,270.02,467.7422,261.02,471.7422" style="stroke:#A80036;stroke-width:1;"/><text fill="#4682B4" font-family="sans-serif" font-size="13" lengthAdjust="spacing" textLength="23.1182" x="322.5" y="467.7705">wife</text></g><!--link sister to vegetarian--><g id="link_sister_vegetarian"><path d="M261.02,304.4722 C308.08,343.8322 379.2975,403.4029 422.8075,439.7929 " fill="none" id="sister-to-vegetarian" style="stroke:#A80036;stroke-width:1;"/><polygon fill="#A80036" points="427.41,443.6422,423.0725,434.7999,423.5746,440.4344,417.9401,440.9365,427.41,443.6422" style="stroke:#A80036;stroke-width:1;"/><text fill="#4682B4" font-family="sans-serif" font-size="13" lengthAdjust="spacing" textLength="31.0591" x="318.5" y="331.7705">sister</text></g><!--link brother to vegetarian--><g id="link_brother_vegetarian"><path d="M249.11,585.8022 C294.2,561.5322 374.5467,518.276 421.9767,492.746 " fill="none" id="brother-to-vegetarian" style="stroke:#A80036;stroke-width:1;"/><polygon fill="#A80036" points="427.26,489.9022,417.4392,490.6457,422.8573,492.272,421.231,497.6901,427.26,489.9022" style="stroke:#A80036;stroke-width:1;"/><text fill="#4682B4" font-family="sans-serif" font-size="13" lengthAdjust="spacing" textLength="84.5508" x="292" y="513.7705">yonger brother</text></g><!--reverse link sister to nephew--><g id="link_sister_nephew"><path d="M267.0158,271.5156 C319.8758,273.4856 403.02,276.5822 441.9,278.0322 " fill="none" id="sister-backto-nephew" style="stroke:#A80036;stroke-width:1;"/><polygon fill="#A80036" points="261.02,271.2922,269.8648,275.6246,266.0165,271.4784,270.1627,267.6301,261.02,271.2922" style="stroke:#A80036;stroke-width:1;"/><text fill="#4682B4" font-family="sans-serif" font-size="13" lengthAdjust="spacing" textLength="20.96" x="324" y="268.7705">son</text></g><!--link nephew to he--><g id="link_nephew_he"><path d="M482.35,270.7522 C517.25,256.3422 585.9841,227.972 633.1641,208.492 " fill="none" id="nephew-to-he" style="stroke:#A80036;stroke-width:1;"/><polygon fill="#A80036" points="638.71,206.2022,628.8646,205.9397,634.0884,208.1104,631.9177,213.3342,638.71,206.2022" style="stroke:#A80036;stroke-width:1;"/><text fill="#4682B4" font-family="sans-serif" font-size="13" lengthAdjust="spacing" textLength="20.96" x="557.5" y="224.7705">son</text></g><!--link sister to he--><g id="link_sister_he"><path d="M261.28,255.0422 C270.98,251.8122 281.31,248.5322 291,245.7422 C341.97,231.0722 354.78,226.9922 407,217.7422 C468.67,206.8222 484.72,208.3222 547,201.7422 C577.68,198.5022 606.3765,195.7058 632.7665,193.2158 " fill="none" id="sister-to-he" style="stroke:#A80036;stroke-width:1;"/><polygon fill="#A80036" points="638.74,192.6522,629.404,189.5153,633.7621,193.1219,630.1555,197.4799,638.74,192.6522" style="stroke:#A80036;stroke-width:1;"/><text fill="#4682B4" font-family="sans-serif" font-size="13" lengthAdjust="spacing" textLength="23.1182" x="450.5" y="201.7705">wife</text></g><!--link he to studio--><g id="link_he_studio"><path d="M725.09,181.7422 C760.85,175.8022 812.03,167.2922 848.57,161.2122 " fill="none" id="he-studio" style="stroke:#A80036;stroke-width:1;"/></g><!--link studio to J--><g id="link_studio_J"><path d="M940.93,160.1422 C989.32,166.9522 1063.1,177.3522 1094.04,181.7022 " fill="none" id="studio-J" style="stroke:#A80036;stroke-width:1;"/></g><!--link he to mstudio--><g id="link_he_mstudio"><path d="M725.35,200.5922 C802.18,222.0722 964.57,267.4922 1051.22,291.7222 " fill="none" id="he-mstudio" style="stroke:#A80036;stroke-width:1;"/></g><!--link M to mstudio--><g id="link_M_mstudio"><path d="M909.81,330.1322 C936.3,327.1422 994.53,320.5822 1041.15,315.3322 " fill="none" id="M-mstudio" style="stroke:#A80036;stroke-width:1;"/><text fill="#4682B4" font-family="sans-serif" font-size="13" lengthAdjust="spacing" textLength="35.4072" x="973" y="315.7705">owner</text></g><!--reverse link he to M--><g id="link_he_M"><path d="M729.6131,241.594 C744.5531,256.814 757.94,268.5222 776,280.7422 C810.08,303.7922 856.26,320.1622 879.26,327.4722 " fill="none" id="he-backto-M" style="stroke:#A80036;stroke-width:1;"/><polygon fill="#A80036" points="725.41,237.3122,728.86,246.537,728.9126,240.8804,734.5692,240.9329,725.41,237.3122" style="stroke:#A80036;stroke-width:1;"/><text fill="#4682B4" font-family="sans-serif" font-size="13" lengthAdjust="spacing" textLength="32.519" x="780.5" y="276.7705">friend</text></g><!--link vegetarian to mstudio--><g id="link_vegetarian_mstudio"><path d="M496.64,469.6122 C575.99,463.8622 780.34,444.6622 942,391.7422 C988.15,376.6322 1037.39,350.3922 1070.24,331.2522 " fill="none" id="vegetarian-mstudio" style="stroke:#A80036;stroke-width:1;"/></g><!--link J to mstudio--><g id="link_J_mstudio"><path d="M1109.5,226.8222 C1109.5,244.4322 1109.5,262.0422 1109.5,279.6522 " fill="none" id="J-mstudio" style="stroke:#A80036;stroke-width:1;"/></g><!--reverse link he to P--><g id="link_he_P"><path d="M682,247.0022 C682,258.5422 682,264.0822 682,275.6222 " fill="none" id="he-backto-P" style="stroke:#A80036;stroke-width:1;"/><polygon fill="#A80036" points="682,241.0022,678,250.0022,682,246.0022,686,250.0022,682,241.0022" style="stroke:#A80036;stroke-width:1;"/></g><!--link family to sister--><g id="link_family_sister"><path d="M85.19,411.3822 C109.23,385.6522 146.92,345.2922 175.94,314.2322 " fill="none" id="family-sister" style="stroke:#A80036;stroke-width:1;"/></g><!--link family to brother--><g id="link_family_brother"><path d="M85.19,461.8022 C112.72,490.9222 158.17,538.9922 187.98,570.5222 " fill="none" id="family-brother" style="stroke:#A80036;stroke-width:1;"/></g><!--link vegetarian to hospital--><g id="link_vegetarian_hospital"><path d="M496.58,481.9122 C529.91,492.0022 581.67,507.6722 621.89,519.8422 " fill="none" id="vegetarian-hospital" style="stroke:#A80036;stroke-width:1;"/><text fill="#4682B4" font-family="sans-serif" font-size="13" lengthAdjust="spacing" textLength="39.0317" x="548" y="495.7705">patient</text></g><!--link hospital to doctor--><g id="link_hospital_doctor"><path d="M735.3,566.5622 C770.86,586.1622 817.31,611.7622 850.67,630.1422 " fill="none" id="hospital-doctor" style="stroke:#A80036;stroke-width:1;"/><text fill="#4682B4" font-family="sans-serif" font-size="13" lengthAdjust="spacing" textLength="36.1309" x="778.5" y="588.7705">doctor</text></g><!--link hospital to Hee-joo--><g id="link_hospital_Hee-joo"><path d="M746.16,536.2422 C787.82,535.2522 840.01,534.0122 869.77,533.3022 " fill="none" id="hospital-Hee-joo" style="stroke:#A80036;stroke-width:1;"/><text fill="#4682B4" font-family="sans-serif" font-size="13" lengthAdjust="spacing" textLength="39.0317" x="777" y="530.7705">patient</text></g><rect fill="none" height="30.6211" id="_legend" rx="7.5" ry="7.5" style="stroke:#000000;stroke-width:1;" width="341.9229" x="418.8459" y="708.3496"/><text fill="#4682B4" font-family="sans-serif" font-size="14" lengthAdjust="spacing" textLength="329.9229" x="424.8459" y="729.457">only named characters shown (except brother-in-law)</text><!--SRC=[ZLInZjim3Dtr5RoWG9B1yT1DIBDSKLokE210Ym8TTJPZgP4bGwBhozRVwE_rIqhPJkoxTEXacU-HV7oYVVSkqjdYGP663x3GH4sKUHvKjwaCwVQvZHWAxmWTRGfVvzxYwNtUMEMehMrcN67R4cCUy1XpZQgCUQsComsZ2o7kHW9CVPYgIkEgJQ88CcGHlcg4RrWXgM2K4wd2CQWQeT0gg88mH24i4rm94hopPt0CbpCSelQTWnM-5DWGF0TF6WCBpApgra88-HJWNgDtbGGLEJy4HJx0TjimLrNUcKYxdN2U4CWttEYW0i6UKx-dj4otsAV-d9JEo6zc45E3B9kb05CxSqIkkdUPFWyb8_V6_z2oPpKZDyjsyx9oh26MC_oguOAEVamZ-Rxzw9OGu-6s-9dP7ByIXNmqMUU7T8UDnWwkqjB4OumRUpPZ2KzSmDjKh5RX9CJg2xMbyUj- -lx8qrjVA3BUyUZozGtsVTZX6uU6DaaleqEtMzTUcTRpqXM0u2DB7TkBySaH-IXvcfLoWnjnabh_GojJXq8NC2sRd0TuPpkNR4iJfFeCIpW6anPQY9dJKv988gOt8GzokyKNddce0XnWZPzD3KTL6tlkzGr7bbS5tpQ9F4RIdCE2J87hRIxXa-Megu028dzhgtlzvzVlzXJJbi0XdWjj50LJm8EFZI5brzo3wnbgHnFI_OoOM7mCc-Jz2TAE-qK2Ir_m9huTzfB2TZHi9_zcUBnBZF4XYz5B-XoK3uZPZxI4K_PV]--></g></svg>