<svg xmlns="http://www.w3.org/2000/svg" xmlns:xlink="http://www.w3.org/1999/xlink" contentStyleType="text/css" height="648px" preserveAspectRatio="none" style="width:848px;height:648px;" version="1.1" viewBox="0 0 848 648" width="848px" zoomAndPan="magnify"><title>The Vegetarian</title><defs><filter height="300%" id="fhsk8u3fncvrr" width="300%" x="-1" y="-1"><feGaussianBlur result="blurOut" stdDeviation="2"/><feColorMatrix in="blurOut" result="blurOut2" type="matrix" values="0 0 0 0 0 0 0 0 0 0 0 0 0 0 0 0 0 0 .4 0"/><feOffset dx="4" dy="4" in="blurOut2" result="blurOut3"/><feBlend in="SourceGraphic" in2="blurOut3" mode="normal"/></filter></defs><g><text fill="#4682B4" font-family="sans-serif" font-size="14" font-weight="bold" lengthAdjust="spacing" textLength="100.3652" x="364.3174" y="25.1074">The Vegetarian</text><rect fill="none" height="566.4707" style="stroke:#A80036;stroke-width:1;" width="842" x="0" y="39.6211"/><path d="M75.3584,39.6211 L75.3584,51.2422 L65.3584,61.2422 L0,61.2422 " fill="none" style="stroke:#A80036;stroke-width:1;"/><text fill="#4682B4" font-family="sans-serif" font-size="14" lengthAdjust="spacing" textLength="65.3584" x="3" y="55.7285">characters</text><!--entity narrator--><g id="elem_narrator"><ellipse cx="674.4204" cy="513.877" fill="#FF00FF" filter="url(#fhsk8u3fncvrr)" rx="8" ry="8" style="stroke:#A80036;stroke-width:2;"/><path d="M674.4204,521.877 L674.4204,548.877 M661.4204,529.877 L687.4204,529.877 M674.4204,548.877 L661.4204,563.877 M674.4204,548.877 L687.4204,563.877 " fill="none" filter="url(#fhsk8u3fncvrr)" style="stroke:#A80036;stroke-width:2;"/><text fill="#4682B4" font-family="sans-serif" font-size="14" lengthAdjust="spacing" textLength="16.3242" x="639.793" y="585.9844">Mr</text><text fill="#4682B4" font-family="sans-serif" font-size="14" lengthAdjust="spacing" textLength="3.8896" x="656.1172" y="585.9844">&#160;</text><text fill="#4682B4" font-family="sans-serif" font-size="14" lengthAdjust="spacing" textLength="49.041" x="660.0068" y="585.9844">Cheong</text><text fill="#4682B4" font-family="sans-serif" font-size="14" font-style="italic" lengthAdjust="spacing" textLength="84.8408" x="632" y="500.3633">&#171;protagonist&#187;</text></g><g id="elem_GMN3"><path d="M648.5,422.7559 L648.5,450.0469 A0,0 0 0 0 648.5,450.0469 L670.5,450.0469 L674.5,485.1759 L678.5,450.0469 L700.5654,450.0469 A0,0 0 0 0 700.5654,450.0469 L700.5654,432.7559 L690.5654,422.7559 L648.5,422.7559 A0,0 0 0 0 648.5,422.7559 " fill="#FBFB77" filter="url(#fhsk8u3fncvrr)" style="stroke:#A80036;stroke-width:1;"/><path d="M690.5654,422.7559 L690.5654,432.7559 L700.5654,432.7559 L690.5654,422.7559 " fill="#FBFB77" style="stroke:#A80036;stroke-width:1;"/><text fill="#4682B4" font-family="sans-serif" font-size="13" lengthAdjust="spacing" textLength="23.8418" x="654.5" y="441.7842">Part</text><text fill="#4682B4" font-family="sans-serif" font-size="13" lengthAdjust="spacing" textLength="3.6118" x="678.3418" y="441.7842">&#160;</text><text fill="#4682B4" font-family="sans-serif" font-size="13" lengthAdjust="spacing" textLength="3.6118" x="681.9536" y="441.7842">I</text></g><!--entity vegetarian--><g id="elem_vegetarian"><ellipse cx="454.7515" cy="414.2559" fill="#FEFECE" filter="url(#fhsk8u3fncvrr)" rx="8" ry="8" style="stroke:#A80036;stroke-width:2;"/><path d="M454.7515,422.2559 L454.7515,449.2559 M441.7515,430.2559 L467.7515,430.2559 M454.7515,449.2559 L441.7515,464.2559 M454.7515,449.2559 L467.7515,464.2559 " fill="none" filter="url(#fhsk8u3fncvrr)" style="stroke:#A80036;stroke-width:2;"/><text fill="#4682B4" font-family="sans-serif" font-size="14" lengthAdjust="spacing" textLength="68.5029" x="420.5" y="486.3633">Yeong-hue</text></g><g id="elem_GMN7"><path d="M400,341.7559 L400,369.0469 A0,0 0 0 0 400,369.0469 L451,369.0469 L455,404.1359 L459,369.0469 L509.8926,369.0469 A0,0 0 0 0 509.8926,369.0469 L509.8926,351.7559 L499.8926,341.7559 L400,341.7559 A0,0 0 0 0 400,341.7559 " fill="#FBFB77" filter="url(#fhsk8u3fncvrr)" style="stroke:#A80036;stroke-width:1;"/><path d="M499.8926,341.7559 L499.8926,351.7559 L509.8926,351.7559 L499.8926,341.7559 " fill="#FBFB77" style="stroke:#A80036;stroke-width:1;"/><text fill="#4682B4" font-family="sans-serif" font-size="13" lengthAdjust="spacing" textLength="22.4009" x="406" y="360.7842">The</text><text fill="#4682B4" font-family="sans-serif" font-size="13" lengthAdjust="spacing" textLength="3.6118" x="428.4009" y="360.7842">&#160;</text><text fill="#4682B4" font-family="sans-serif" font-size="13" lengthAdjust="spacing" textLength="62.8799" x="432.0127" y="360.7842">Vegetarian</text></g><!--entity sister--><g id="elem_sister"><ellipse cx="223.4551" cy="314.2559" fill="#FEFECE" filter="url(#fhsk8u3fncvrr)" rx="8" ry="8" style="stroke:#A80036;stroke-width:2;"/><path d="M223.4551,322.2559 L223.4551,349.2559 M210.4551,330.2559 L236.4551,330.2559 M223.4551,349.2559 L210.4551,364.2559 M223.4551,349.2559 L236.4551,364.2559 " fill="none" filter="url(#fhsk8u3fncvrr)" style="stroke:#A80036;stroke-width:2;"/><text fill="#4682B4" font-family="sans-serif" font-size="14" lengthAdjust="spacing" textLength="38.9102" x="204" y="386.3633">In-hye</text></g><!--entity brother--><g id="elem_brother"><ellipse cx="223.3584" cy="435.2559" fill="#FEFECE" filter="url(#fhsk8u3fncvrr)" rx="8" ry="8" style="stroke:#A80036;stroke-width:2;"/><path d="M223.3584,443.2559 L223.3584,470.2559 M210.3584,451.2559 L236.3584,451.2559 M223.3584,470.2559 L210.3584,485.2559 M223.3584,470.2559 L236.3584,485.2559 " fill="none" filter="url(#fhsk8u3fncvrr)" style="stroke:#A80036;stroke-width:2;"/><text fill="#4682B4" font-family="sans-serif" font-size="14" lengthAdjust="spacing" textLength="60.7168" x="193" y="507.3633">Yeong-ho</text></g><!--entity nephew--><g id="elem_nephew"><ellipse cx="58.7275" cy="231.2559" fill="#FEFECE" filter="url(#fhsk8u3fncvrr)" rx="8" ry="8" style="stroke:#A80036;stroke-width:2;"/><path d="M58.7275,239.2559 L58.7275,266.2559 M45.7275,247.2559 L71.7275,247.2559 M58.7275,266.2559 L45.7275,281.2559 M58.7275,266.2559 L71.7275,281.2559 " fill="none" filter="url(#fhsk8u3fncvrr)" style="stroke:#A80036;stroke-width:2;"/><text fill="#4682B4" font-family="sans-serif" font-size="14" lengthAdjust="spacing" textLength="40.4551" x="38.5" y="303.3633">Ji-woo</text></g><g id="elem_studio"><ellipse cx="674.516" cy="127.2303" fill="#E6E6FA" filter="url(#fhsk8u3fncvrr)" rx="47.516" ry="28.9744" style="stroke:#A80036;stroke-width:1;"/><text fill="#4682B4" font-family="sans-serif" font-size="14" font-style="italic" lengthAdjust="spacing" textLength="63.8271" x="642.6024" y="124.2427">&#171;location&#187;</text><text fill="#4682B4" font-family="sans-serif" font-size="14" lengthAdjust="spacing" textLength="39.6963" x="654.6678" y="142.8638">Studio</text></g><!--entity he--><g id="elem_he"><ellipse cx="454.793" cy="210.877" fill="#FF00FF" filter="url(#fhsk8u3fncvrr)" rx="8" ry="8" style="stroke:#A80036;stroke-width:2;"/><path d="M454.793,218.877 L454.793,245.877 M441.793,226.877 L467.793,226.877 M454.793,245.877 L441.793,260.877 M454.793,245.877 L467.793,260.877 " fill="none" filter="url(#fhsk8u3fncvrr)" style="stroke:#A80036;stroke-width:2;"/><text fill="#4682B4" font-family="sans-serif" font-size="14" lengthAdjust="spacing" textLength="85.5859" x="412" y="282.9844">brother-in-law</text><text fill="#4682B4" font-family="sans-serif" font-size="14" font-style="italic" lengthAdjust="spacing" textLength="84.8408" x="412.3726" y="197.3633">&#171;protagonist&#187;</text></g><g id="elem_GMN20"><path d="M427,119.7559 L427,147.0469 A0,0 0 0 0 427,147.0469 L451,147.0469 L455,182.1759 L459,147.0469 L482.6772,147.0469 A0,0 0 0 0 482.6772,147.0469 L482.6772,129.7559 L472.6772,119.7559 L427,119.7559 A0,0 0 0 0 427,119.7559 " fill="#FBFB77" filter="url(#fhsk8u3fncvrr)" style="stroke:#A80036;stroke-width:1;"/><path d="M472.6772,119.7559 L472.6772,129.7559 L482.6772,129.7559 L472.6772,119.7559 " fill="#FBFB77" style="stroke:#A80036;stroke-width:1;"/><text fill="#4682B4" font-family="sans-serif" font-size="13" lengthAdjust="spacing" textLength="23.8418" x="433" y="138.7842">Part</text><text fill="#4682B4" font-family="sans-serif" font-size="13" lengthAdjust="spacing" textLength="3.6118" x="456.8418" y="138.7842">&#160;</text><text fill="#4682B4" font-family="sans-serif" font-size="13" lengthAdjust="spacing" textLength="7.2236" x="460.4536" y="138.7842">II</text></g><!--entity J--><g id="elem_J"><ellipse cx="821" cy="211.2559" fill="#FEFECE" filter="url(#fhsk8u3fncvrr)" rx="8" ry="8" style="stroke:#A80036;stroke-width:2;"/><path d="M821,219.2559 L821,246.2559 M808,227.2559 L834,227.2559 M821,246.2559 L808,261.2559 M821,246.2559 L834,261.2559 " fill="none" filter="url(#fhsk8u3fncvrr)" style="stroke:#A80036;stroke-width:2;"/><text fill="#4682B4" font-family="sans-serif" font-size="14" lengthAdjust="spacing" textLength="7" x="817.5" y="283.3633">J</text></g><g id="elem_mstudio"><ellipse cx="674.3073" cy="359.1408" fill="#E6E6FA" filter="url(#fhsk8u3fncvrr)" rx="70.3073" ry="27.885" style="stroke:#A80036;stroke-width:1;"/><text fill="#4682B4" font-family="sans-serif" font-size="14" font-style="italic" lengthAdjust="spacing" textLength="63.8271" x="636.6533" y="353.6354">&#171;location&#187;</text><text fill="#4682B4" font-family="sans-serif" font-size="14" lengthAdjust="spacing" textLength="47.4824" x="624.2017" y="372.2565">another</text><text fill="#4682B4" font-family="sans-serif" font-size="14" lengthAdjust="spacing" textLength="3.8896" x="671.6841" y="372.2565">&#160;</text><text fill="#4682B4" font-family="sans-serif" font-size="14" lengthAdjust="spacing" textLength="37.3584" x="675.5738" y="372.2565">studio</text></g><!--entity M--><g id="elem_M"><ellipse cx="674.5" cy="201.2559" fill="#FEFECE" filter="url(#fhsk8u3fncvrr)" rx="8" ry="8" style="stroke:#A80036;stroke-width:2;"/><path d="M674.5,209.2559 L674.5,236.2559 M661.5,217.2559 L687.5,217.2559 M674.5,236.2559 L661.5,251.2559 M674.5,236.2559 L687.5,251.2559 " fill="none" filter="url(#fhsk8u3fncvrr)" style="stroke:#A80036;stroke-width:2;"/><text fill="#4682B4" font-family="sans-serif" font-size="14" lengthAdjust="spacing" textLength="11.6621" x="668.6689" y="273.3633">M</text></g><!--entity P--><g id="elem_P"><ellipse cx="223.6792" cy="104.877" fill="#F08080" filter="url(#fhsk8u3fncvrr)" rx="8" ry="8" style="stroke:#A80036;stroke-width:2;"/><path d="M223.6792,112.877 L223.6792,139.877 M210.6792,120.877 L236.6792,120.877 M223.6792,139.877 L210.6792,154.877 M223.6792,139.877 L236.6792,154.877 " fill="none" filter="url(#fhsk8u3fncvrr)" style="stroke:#A80036;stroke-width:2;"/><text fill="#4682B4" font-family="sans-serif" font-size="14" lengthAdjust="spacing" textLength="9.3379" x="219.0103" y="176.9844">P</text><text fill="#4682B4" font-family="sans-serif" font-size="14" font-style="italic" lengthAdjust="spacing" textLength="30.3584" x="208.5" y="91.3633">&#171;ex&#187;</text></g><g id="elem_family"><ellipse cx="58.2888" cy="413.0112" fill="#FFE0E0" filter="url(#fhsk8u3fncvrr)" rx="52.2888" ry="28.2553" style="stroke:#A80036;stroke-width:1;"/><text fill="#4682B4" font-family="sans-serif" font-size="14" font-style="italic" lengthAdjust="spacing" textLength="51.3789" x="27.4668" y="408.4241">&#171;group&#187;</text><text fill="#4682B4" font-family="sans-serif" font-size="14" lengthAdjust="spacing" textLength="20.2344" x="22.815" y="427.0452">her</text><text fill="#4682B4" font-family="sans-serif" font-size="14" lengthAdjust="spacing" textLength="3.8896" x="43.0493" y="427.0452">&#160;</text><text fill="#4682B4" font-family="sans-serif" font-size="14" lengthAdjust="spacing" textLength="36.5586" x="46.939" y="427.0452">family</text></g><!--link vegetarian to narrator--><g id="link_vegetarian_narrator"><path d="M489.51,461.1259 C527.76,476.9459 584.826,500.5614 626.216,517.6914 " fill="none" id="vegetarian-to-narrator" style="stroke:#A80036;stroke-width:1;"/><polygon fill="#A80036" points="631.76,519.9859,624.9737,512.8482,627.14,518.0738,621.9144,520.2401,631.76,519.9859" style="stroke:#A80036;stroke-width:1;"/><text fill="#4682B4" font-family="sans-serif" font-size="13" lengthAdjust="spacing" textLength="23.1182" x="545.5" y="479.2842">wife</text></g><!--link sister to vegetarian--><g id="link_sister_vegetarian"><path d="M243.25,358.0459 C254.82,364.5259 270.08,372.7559 284,379.2559 C330.37,400.9159 380.0233,420.1424 414.6733,432.9724 " fill="none" id="sister-to-vegetarian" style="stroke:#A80036;stroke-width:1;"/><polygon fill="#A80036" points="420.3,435.0559,413.2489,428.1796,415.6111,433.3197,410.4711,435.6819,420.3,435.0559" style="stroke:#A80036;stroke-width:1;"/><text fill="#4682B4" font-family="sans-serif" font-size="13" lengthAdjust="spacing" textLength="31.0591" x="311.5" y="375.2842">sister</text></g><!--link brother to vegetarian--><g id="link_brother_vegetarian"><path d="M254.03,465.5559 C296.77,461.6459 369.6549,454.972 414.5149,450.872 " fill="none" id="brother-to-vegetarian" style="stroke:#A80036;stroke-width:1;"/><polygon fill="#A80036" points="420.49,450.3259,411.1633,447.1616,415.5108,450.7809,411.8914,455.1284,420.49,450.3259" style="stroke:#A80036;stroke-width:1;"/><text fill="#4682B4" font-family="sans-serif" font-size="13" lengthAdjust="spacing" textLength="84.5508" x="285" y="451.2842">yonger brother</text></g><!--link nephew to sister--><g id="link_nephew_sister"><path d="M78.52,273.9359 C110.01,289.9759 167.2634,319.1329 198.5034,335.0429 " fill="none" id="nephew-to-sister" style="stroke:#A80036;stroke-width:1;"/><polygon fill="#A80036" points="203.85,337.7659,197.6454,330.1171,199.3945,335.4968,194.0149,337.2459,203.85,337.7659" style="stroke:#A80036;stroke-width:1;"/><text fill="#4682B4" font-family="sans-serif" font-size="13" lengthAdjust="spacing" textLength="20.96" x="142" y="301.2842">son</text></g><!--link nephew to he--><g id="link_nephew_he"><path d="M78.53,262.8059 C138.86,258.2159 320.9173,244.3815 405.7473,237.9215 " fill="none" id="nephew-to-he" style="stroke:#A80036;stroke-width:1;"/><polygon fill="#A80036" points="411.73,237.4659,402.4523,234.1608,406.7444,237.8455,403.0597,242.1377,411.73,237.4659" style="stroke:#A80036;stroke-width:1;"/><text fill="#4682B4" font-family="sans-serif" font-size="13" lengthAdjust="spacing" textLength="20.96" x="213.5" y="245.2842">son</text></g><!--link sister to he--><g id="link_sister_he"><path d="M243.03,338.9859 C270.83,326.4959 324.88,301.8659 370,279.2559 C383.76,272.3659 393.3142,267.375 406.6442,260.215 " fill="none" id="sister-to-he" style="stroke:#A80036;stroke-width:1;"/><polygon fill="#A80036" points="411.93,257.3759,402.1086,258.1108,407.5252,259.7418,405.8941,265.1584,411.93,257.3759" style="stroke:#A80036;stroke-width:1;"/><text fill="#4682B4" font-family="sans-serif" font-size="13" lengthAdjust="spacing" textLength="23.1182" x="315.5" y="275.2842">wife</text></g><!--link he to studio--><g id="link_he_studio"><path d="M498.19,213.4959 C538.47,193.6859 598.53,164.1359 636.85,145.2859 " fill="none" id="he-studio" style="stroke:#A80036;stroke-width:1;"/></g><!--link studio to J--><g id="link_studio_J"><path d="M708.43,147.9959 C720.25,155.8359 733.49,165.0859 745,174.2559 C767.43,192.1259 791.31,215.2059 805.95,229.8759 " fill="none" id="studio-J" style="stroke:#A80036;stroke-width:1;"/></g><!--link he to mstudio--><g id="link_he_mstudio"><path d="M498.19,258.5059 C537.35,281.0159 595.22,314.2659 633.62,336.3359 " fill="none" id="he-mstudio" style="stroke:#A80036;stroke-width:1;"/></g><!--link M to mstudio--><g id="link_M_mstudio"><path d="M674.5,277.4359 C674.5,295.2459 674.5,315.3659 674.5,331.2059 " fill="none" id="M-mstudio" style="stroke:#A80036;stroke-width:1;"/><text fill="#4682B4" font-family="sans-serif" font-size="13" lengthAdjust="spacing" textLength="35.4072" x="644.5" y="309.7842">owner</text></g><!--reverse link he to M--><g id="link_he_M"><path d="M504.19,234.2559 C553.61,234.2559 626.81,234.2559 659.1,234.2559 " fill="none" id="he-backto-M" style="stroke:#A80036;stroke-width:1;"/><polygon fill="#A80036" points="498.19,234.2559,507.19,238.2559,503.19,234.2559,507.19,230.2559,498.19,234.2559" style="stroke:#A80036;stroke-width:1;"/><text fill="#4682B4" font-family="sans-serif" font-size="13" lengthAdjust="spacing" textLength="32.519" x="541" y="230.2842">friend</text></g><!--link vegetarian to mstudio--><g id="link_vegetarian_mstudio"><path d="M489.51,433.6959 C525.61,419.0859 583.42,395.6959 624.6,379.0359 " fill="none" id="vegetarian-mstudio" style="stroke:#A80036;stroke-width:1;"/></g><!--link mstudio to J--><g id="link_mstudio_J"><path d="M706.85,334.3059 C737.57,309.8559 782.98,273.7159 805.81,255.5559 " fill="none" id="mstudio-J" style="stroke:#A80036;stroke-width:1;"/></g><!--link P to he--><g id="link_P_he"><path d="M238.51,134.7259 C272.28,150.3259 353.8129,187.9801 406.3629,212.2501 " fill="none" id="P-to-he" style="stroke:#A80036;stroke-width:1;"/><polygon fill="#A80036" points="411.81,214.7659,405.3165,207.3609,407.2707,212.6694,401.9622,214.6237,411.81,214.7659" style="stroke:#A80036;stroke-width:1;"/></g><!--link family to sister--><g id="link_family_sister"><path d="M101.05,396.4259 C134.07,383.0659 178.7,364.9959 203.63,354.8959 " fill="none" id="family-sister" style="stroke:#A80036;stroke-width:1;"/></g><!--link family to brother--><g id="link_family_brother"><path d="M103.61,428.1359 C131.9,437.6859 167.85,449.8159 192.78,458.2259 " fill="none" id="family-brother" style="stroke:#A80036;stroke-width:1;"/></g><rect fill="none" height="30.6211" id="_legend" rx="7.5" ry="7.5" style="stroke:#000000;stroke-width:1;" width="341.9229" x="243.5386" y="601.4844"/><text fill="#4682B4" font-family="sans-serif" font-size="14" lengthAdjust="spacing" textLength="329.9229" x="249.5386" y="622.5918">only named characters shown (except brother-in-law)</text><!--SRC=[RLB1Rjim3BtpAzXYGDE3uyDkGfPBJobG84270JkgDcC9bIL3eklcxqVPJkqqEvac7zzxf7Zt8_7PqL6pmLzuRvYxfCeowc7RM3RzMvyeLi4pUTvMeIs3e_UVPUUqvxvrXVMLwsjAPQHJAWtfEfMjjhwqKhq7k9i1kEW8LDVMDziC0RRi27yRmZ_K4EjejOVCS8gw9QoCZhfYYWd02S3Ng31uTqOlvNfLnsJ2u753dnLrZ6yniA4e1WkdXqS0K2yHdmm5toZKIVfZr1mYxdQTO7KJl4sytuCFJCYX4w6ZZem7QVsRsmhJqzZwiJXTWR_D00iAYsA_w2aSx8c4zE0BSvuOaqXJ19Y-8txLhYxrXrLznJTbvr4Njs6adXS1C0Utv6T1I_uB2EhP5aEOsZrrXWO4c8FSFRiGuU2bye0lmX1SPcjrV0VOl79Vs_0uZZQ6icKNAiqsU5cnkdwTKKYsT_CIYwHKHxdRrpbSRMt4vVqYI5WK5tcOlv9HpqfCRxIVrf4Mg-r_l0fq8heKyo4fNFxb70UVrvO7oFHILNYADj_gjokuD45xPKSeZsgteq-PEOVp968o6ppfrhhpQ70AnLyJGzzbz9p9WqudiYI-tlCV]--></g></svg>