<svg xmlns="http://www.w3.org/2000/svg" xmlns:xlink="http://www.w3.org/1999/xlink" contentStyleType="text/css" height="460px" preserveAspectRatio="none" style="width:733px;height:460px;" version="1.1" viewBox="0 0 733 460" width="733px" zoomAndPan="magnify"><title>The Vegetarian</title><defs><filter height="300%" id="fiuc9cywhitlz" width="300%" x="-1" y="-1"><feGaussianBlur result="blurOut" stdDeviation="2"/><feColorMatrix in="blurOut" result="blurOut2" type="matrix" values="0 0 0 0 0 0 0 0 0 0 0 0 0 0 0 0 0 0 .4 0"/><feOffset dx="4" dy="4" in="blurOut2" result="blurOut3"/><feBlend in="SourceGraphic" in2="blurOut3" mode="normal"/></filter></defs><g><text fill="#4682B4" font-family="sans-serif" font-size="14" font-weight="bold" lengthAdjust="spacing" textLength="100.3652" x="306.8174" y="25.1074">The Vegetarian</text><rect fill="none" height="414.5332" style="stroke:#A80036;stroke-width:1;" width="727" x="0" y="39.6211"/><path d="M75.3584,39.6211 L75.3584,51.2422 L65.3584,61.2422 L0,61.2422 " fill="none" style="stroke:#A80036;stroke-width:1;"/><text fill="#4682B4" font-family="sans-serif" font-size="14" lengthAdjust="spacing" textLength="65.3584" x="3" y="55.7285">characters</text><!--entity narrator--><g id="elem_narrator"><ellipse cx="582.4204" cy="295.3633" fill="#FF00FF" filter="url(#fiuc9cywhitlz)" rx="8" ry="8" style="stroke:#A80036;stroke-width:2;"/><path d="M582.4204,303.3633 L582.4204,330.3633 M569.4204,311.3633 L595.4204,311.3633 M582.4204,330.3633 L569.4204,345.3633 M582.4204,330.3633 L595.4204,345.3633 " fill="none" filter="url(#fiuc9cywhitlz)" style="stroke:#A80036;stroke-width:2;"/><text fill="#4682B4" font-family="sans-serif" font-size="14" lengthAdjust="spacing" textLength="16.3242" x="547.793" y="367.4707">Mr</text><text fill="#4682B4" font-family="sans-serif" font-size="14" lengthAdjust="spacing" textLength="3.8896" x="564.1172" y="367.4707">&#160;</text><text fill="#4682B4" font-family="sans-serif" font-size="14" lengthAdjust="spacing" textLength="49.041" x="568.0068" y="367.4707">Cheong</text><text fill="#4682B4" font-family="sans-serif" font-size="14" font-style="italic" lengthAdjust="spacing" textLength="84.8408" x="540" y="281.8496">&#171;protagonist&#187;</text></g><g id="elem_GMN3"><path d="M556.5,406.2422 L556.5,433.5332 A0,0 0 0 0 556.5,433.5332 L608.5654,433.5332 A0,0 0 0 0 608.5654,433.5332 L608.5654,416.2422 L598.5654,406.2422 L586.5,406.2422 L582.5,370.8522 L578.5,406.2422 L556.5,406.2422 A0,0 0 0 0 556.5,406.2422 " fill="#FBFB77" filter="url(#fiuc9cywhitlz)" style="stroke:#A80036;stroke-width:1;"/><path d="M598.5654,406.2422 L598.5654,416.2422 L608.5654,416.2422 L598.5654,406.2422 " fill="#FBFB77" style="stroke:#A80036;stroke-width:1;"/><text fill="#4682B4" font-family="sans-serif" font-size="13" lengthAdjust="spacing" textLength="23.8418" x="562.5" y="425.2705">Part</text><text fill="#4682B4" font-family="sans-serif" font-size="13" lengthAdjust="spacing" textLength="3.6118" x="586.3418" y="425.2705">&#160;</text><text fill="#4682B4" font-family="sans-serif" font-size="13" lengthAdjust="spacing" textLength="3.6118" x="589.9536" y="425.2705">I</text></g><!--entity vegetarian--><g id="elem_vegetarian"><ellipse cx="394.7515" cy="285.7422" fill="#FEFECE" filter="url(#fiuc9cywhitlz)" rx="8" ry="8" style="stroke:#A80036;stroke-width:2;"/><path d="M394.7515,293.7422 L394.7515,320.7422 M381.7515,301.7422 L407.7515,301.7422 M394.7515,320.7422 L381.7515,335.7422 M394.7515,320.7422 L407.7515,335.7422 " fill="none" filter="url(#fiuc9cywhitlz)" style="stroke:#A80036;stroke-width:2;"/><text fill="#4682B4" font-family="sans-serif" font-size="14" lengthAdjust="spacing" textLength="68.5029" x="360.5" y="357.8496">Yeong-hue</text></g><g id="elem_GMN7"><path d="M340,397.2422 L340,424.5332 A0,0 0 0 0 340,424.5332 L449.8926,424.5332 A0,0 0 0 0 449.8926,424.5332 L449.8926,407.2422 L439.8926,397.2422 L399,397.2422 L395,361.8922 L391,397.2422 L340,397.2422 A0,0 0 0 0 340,397.2422 " fill="#FBFB77" filter="url(#fiuc9cywhitlz)" style="stroke:#A80036;stroke-width:1;"/><path d="M439.8926,397.2422 L439.8926,407.2422 L449.8926,407.2422 L439.8926,397.2422 " fill="#FBFB77" style="stroke:#A80036;stroke-width:1;"/><text fill="#4682B4" font-family="sans-serif" font-size="13" lengthAdjust="spacing" textLength="22.4009" x="346" y="416.2705">The</text><text fill="#4682B4" font-family="sans-serif" font-size="13" lengthAdjust="spacing" textLength="3.6118" x="368.4009" y="416.2705">&#160;</text><text fill="#4682B4" font-family="sans-serif" font-size="13" lengthAdjust="spacing" textLength="62.8799" x="372.0127" y="416.2705">Vegetarian</text></g><!--entity sister--><g id="elem_sister"><ellipse cx="158.4551" cy="160.7422" fill="#FEFECE" filter="url(#fiuc9cywhitlz)" rx="8" ry="8" style="stroke:#A80036;stroke-width:2;"/><path d="M158.4551,168.7422 L158.4551,195.7422 M145.4551,176.7422 L171.4551,176.7422 M158.4551,195.7422 L145.4551,210.7422 M158.4551,195.7422 L171.4551,210.7422 " fill="none" filter="url(#fiuc9cywhitlz)" style="stroke:#A80036;stroke-width:2;"/><text fill="#4682B4" font-family="sans-serif" font-size="14" lengthAdjust="spacing" textLength="38.9102" x="139" y="232.8496">In-hye</text></g><!--entity brother--><g id="elem_brother"><ellipse cx="158.3584" cy="285.7422" fill="#FEFECE" filter="url(#fiuc9cywhitlz)" rx="8" ry="8" style="stroke:#A80036;stroke-width:2;"/><path d="M158.3584,293.7422 L158.3584,320.7422 M145.3584,301.7422 L171.3584,301.7422 M158.3584,320.7422 L145.3584,335.7422 M158.3584,320.7422 L171.3584,335.7422 " fill="none" filter="url(#fiuc9cywhitlz)" style="stroke:#A80036;stroke-width:2;"/><text fill="#4682B4" font-family="sans-serif" font-size="14" lengthAdjust="spacing" textLength="60.7168" x="128" y="357.8496">Yeong-ho</text></g><!--entity nephew--><g id="elem_nephew"><ellipse cx="26.2275" cy="160.7422" fill="#FEFECE" filter="url(#fiuc9cywhitlz)" rx="8" ry="8" style="stroke:#A80036;stroke-width:2;"/><path d="M26.2275,168.7422 L26.2275,195.7422 M13.2275,176.7422 L39.2275,176.7422 M26.2275,195.7422 L13.2275,210.7422 M26.2275,195.7422 L39.2275,210.7422 " fill="none" filter="url(#fiuc9cywhitlz)" style="stroke:#A80036;stroke-width:2;"/><text fill="#4682B4" font-family="sans-serif" font-size="14" lengthAdjust="spacing" textLength="40.4551" x="6" y="232.8496">Ji-woo</text></g><g id="elem_studio"><ellipse cx="582.516" cy="188.7166" fill="#E6E6FA" filter="url(#fiuc9cywhitlz)" rx="47.516" ry="28.9744" style="stroke:#A80036;stroke-width:1;"/><text fill="#4682B4" font-family="sans-serif" font-size="14" font-style="italic" lengthAdjust="spacing" textLength="63.8271" x="550.6024" y="185.729">&#171;location&#187;</text><text fill="#4682B4" font-family="sans-serif" font-size="14" lengthAdjust="spacing" textLength="39.6963" x="562.6678" y="204.3501">Studio</text></g><!--entity he--><g id="elem_he"><ellipse cx="394.9204" cy="165.3633" fill="#FF00FF" filter="url(#fiuc9cywhitlz)" rx="8" ry="8" style="stroke:#A80036;stroke-width:2;"/><path d="M394.9204,173.3633 L394.9204,200.3633 M381.9204,181.3633 L407.9204,181.3633 M394.9204,200.3633 L381.9204,215.3633 M394.9204,200.3633 L407.9204,215.3633 " fill="none" filter="url(#fiuc9cywhitlz)" style="stroke:#A80036;stroke-width:2;"/><text fill="#4682B4" font-family="sans-serif" font-size="14" lengthAdjust="spacing" textLength="23.3584" x="383.2412" y="237.4707">???</text><text fill="#4682B4" font-family="sans-serif" font-size="14" font-style="italic" lengthAdjust="spacing" textLength="84.8408" x="352.5" y="151.8496">&#171;protagonist&#187;</text></g><g id="elem_GMN19"><path d="M367,74.2422 L367,101.5332 A0,0 0 0 0 367,101.5332 L391,101.5332 L395,136.6622 L399,101.5332 L422.6772,101.5332 A0,0 0 0 0 422.6772,101.5332 L422.6772,84.2422 L412.6772,74.2422 L367,74.2422 A0,0 0 0 0 367,74.2422 " fill="#FBFB77" filter="url(#fiuc9cywhitlz)" style="stroke:#A80036;stroke-width:1;"/><path d="M412.6772,74.2422 L412.6772,84.2422 L422.6772,84.2422 L412.6772,74.2422 " fill="#FBFB77" style="stroke:#A80036;stroke-width:1;"/><text fill="#4682B4" font-family="sans-serif" font-size="13" lengthAdjust="spacing" textLength="23.8418" x="373" y="93.2705">Part</text><text fill="#4682B4" font-family="sans-serif" font-size="13" lengthAdjust="spacing" textLength="3.6118" x="396.8418" y="93.2705">&#160;</text><text fill="#4682B4" font-family="sans-serif" font-size="13" lengthAdjust="spacing" textLength="7.2236" x="400.4536" y="93.2705">II</text></g><!--entity J--><g id="elem_J"><ellipse cx="706" cy="155.7422" fill="#FEFECE" filter="url(#fiuc9cywhitlz)" rx="8" ry="8" style="stroke:#A80036;stroke-width:2;"/><path d="M706,163.7422 L706,190.7422 M693,171.7422 L719,171.7422 M706,190.7422 L693,205.7422 M706,190.7422 L719,205.7422 " fill="none" filter="url(#fiuc9cywhitlz)" style="stroke:#A80036;stroke-width:2;"/><text fill="#4682B4" font-family="sans-serif" font-size="14" lengthAdjust="spacing" textLength="7" x="702.5" y="227.8496">J</text></g><!--link vegetarian to narrator--><g id="link_vegetarian_narrator"><path d="M429.59,318.7422 C460.5,318.7422 500.44,318.7422 533.7,318.7422 " fill="none" id="vegetarian-to-narrator" style="stroke:#A80036;stroke-width:1;"/><polygon fill="#A80036" points="539.7,318.7422,530.7,314.7422,534.7,318.7422,530.7,322.7422,539.7,318.7422" style="stroke:#A80036;stroke-width:1;"/><text fill="#4682B4" font-family="sans-serif" font-size="13" lengthAdjust="spacing" textLength="23.1182" x="481" y="314.7705">wife</text></g><!--link sister to vegetarian--><g id="link_sister_vegetarian"><path d="M178.29,203.7622 C217.85,224.8522 304.8955,271.2394 354.9755,297.9394 " fill="none" id="sister-to-vegetarian" style="stroke:#A80036;stroke-width:1;"/><polygon fill="#A80036" points="360.27,300.7622,354.21,292.9984,355.8579,298.4099,350.4464,300.0577,360.27,300.7622" style="stroke:#A80036;stroke-width:1;"/><text fill="#4682B4" font-family="sans-serif" font-size="13" lengthAdjust="spacing" textLength="31.0591" x="249" y="222.7705">sister</text></g><!--link brother to vegetarian--><g id="link_brother_vegetarian"><path d="M189.2,318.7422 C232.95,318.7422 308.49,318.7422 354.38,318.7422 " fill="none" id="brother-to-vegetarian" style="stroke:#A80036;stroke-width:1;"/><polygon fill="#A80036" points="360.38,318.7422,351.38,314.7422,355.38,318.7422,351.38,322.7422,360.38,318.7422" style="stroke:#A80036;stroke-width:1;"/><text fill="#4682B4" font-family="sans-serif" font-size="13" lengthAdjust="spacing" textLength="89.2925" x="220" y="314.7705">yo&#1075;nger brother</text></g><!--link nephew to sister--><g id="link_nephew_sister"><path d="M46.26,193.7422 C71.07,193.7422 107.94,193.7422 132.59,193.7422 " fill="none" id="nephew-to-sister" style="stroke:#A80036;stroke-width:1;"/><polygon fill="#A80036" points="138.59,193.7422,129.59,189.7422,133.59,193.7422,129.59,197.7422,138.59,193.7422" style="stroke:#A80036;stroke-width:1;"/><text fill="#4682B4" font-family="sans-serif" font-size="13" lengthAdjust="spacing" textLength="20.96" x="77" y="189.7705">son</text></g><!--link sister to he--><g id="link_sister_he"><path d="M178.29,193.3422 C215.79,192.5422 294.6914,190.8606 346.0914,189.7606 " fill="none" id="sister-to-he" style="stroke:#A80036;stroke-width:1;"/><polygon fill="#A80036" points="352.09,189.6322,343.0065,185.8257,347.0911,189.7392,343.1776,193.8238,352.09,189.6322" style="stroke:#A80036;stroke-width:1;"/><text fill="#4682B4" font-family="sans-serif" font-size="13" lengthAdjust="spacing" textLength="23.1182" x="253" y="186.7705">wife</text></g><!--link he to studio--><g id="link_he_studio"><path d="M437.63,188.7422 C466.47,188.7422 504.9,188.7422 534.79,188.7422 " fill="none" id="he-studio" style="stroke:#A80036;stroke-width:1;"/></g><!--link studio to J--><g id="link_studio_J"><path d="M630.13,188.7422 C651.81,188.7422 676.03,188.7422 690.9,188.7422 " fill="none" id="studio-J" style="stroke:#A80036;stroke-width:1;"/></g><!--SRC=[PL7BRjmm3BphAvX5WBG7hG-v6QdtqDC6210WHO4SkLwk9KGM3OcEiT-L7-adbNvilKbF8ZZ36N9qSvlb7EWPnS4Fs3YHBfT5aN3ODbvSV-WpfPgZK9HjpMt1WTxkYovWbBuDriSwz4VAHQ9JBXpXCHSj-bXuHJV6t2m4M7sKYaSVc-r8CU8b4Fno1B-f8S7aCPfHuPIm9QWT9go5KZR6b4y9VZhYs9I06IAcXC897Xwwn88DHv-bgana8JYm2BTGmZCcWRrEluwJrlKqJR-lTf_vNtOnAn6ihLRN4WP_8jNTH-lEisZM1IWPCxyJ_sgylE1tL_YLtjpLJ6t0OLsO9-c3dkX6xQNuN_pCVpvYeyY5CKRswEt0iqAapj6WtQKO1PP5r9kZ8dVmf9OSHi4Mqvkslhr8V_JyVJflAZNlm3MAvrXLO3QxtMupefhRbv-0ELhXxjy_x3-5eoDpZ62qjFRYO9PNE-LZ2Ny1]--></g></svg>