<svg xmlns="http://www.w3.org/2000/svg" xmlns:xlink="http://www.w3.org/1999/xlink" contentStyleType="text/css" height="333px" preserveAspectRatio="none" style="width:511px;height:333px;" version="1.1" viewBox="0 0 511 333" width="511px" zoomAndPan="magnify"><title>The Vegetarian</title><defs><filter height="300%" id="f1ln1qqjp9du5k" width="300%" x="-1" y="-1"><feGaussianBlur result="blurOut" stdDeviation="2"/><feColorMatrix in="blurOut" result="blurOut2" type="matrix" values="0 0 0 0 0 0 0 0 0 0 0 0 0 0 0 0 0 0 .4 0"/><feOffset dx="4" dy="4" in="blurOut2" result="blurOut3"/><feBlend in="SourceGraphic" in2="blurOut3" mode="normal"/></filter></defs><g><text fill="#4682B4" font-family="sans-serif" font-size="14" font-weight="bold" lengthAdjust="spacing" textLength="100.3652" x="196.2378" y="25.1074">The Vegetarian</text><rect fill="none" height="287.8496" style="stroke:#A80036;stroke-width:1;" width="505.8408" x="0" y="39.6211"/><path d="M75.3584,39.6211 L75.3584,51.2422 L65.3584,61.2422 L0,61.2422 " fill="none" style="stroke:#A80036;stroke-width:1;"/><text fill="#4682B4" font-family="sans-serif" font-size="14" lengthAdjust="spacing" textLength="65.3584" x="3" y="55.7285">characters</text><!--entity narrator--><g id="elem_narrator"><ellipse cx="457.4204" cy="152.8633" fill="#FF00FF" filter="url(#f1ln1qqjp9du5k)" rx="8" ry="8" style="stroke:#A80036;stroke-width:2;"/><path d="M457.4204,160.8633 L457.4204,187.8633 M444.4204,168.8633 L470.4204,168.8633 M457.4204,187.8633 L444.4204,202.8633 M457.4204,187.8633 L470.4204,202.8633 " fill="none" filter="url(#f1ln1qqjp9du5k)" style="stroke:#A80036;stroke-width:2;"/><text fill="#4682B4" font-family="sans-serif" font-size="14" lengthAdjust="spacing" textLength="49.0205" x="432.9102" y="224.9707">narrator</text><text fill="#4682B4" font-family="sans-serif" font-size="14" font-style="italic" lengthAdjust="spacing" textLength="84.8408" x="415" y="139.3496">&#171;protagonist&#187;</text></g><!--entity vegetarian--><g id="elem_vegetarian"><ellipse cx="274.7515" cy="231.2422" fill="#FEFECE" filter="url(#f1ln1qqjp9du5k)" rx="8" ry="8" style="stroke:#A80036;stroke-width:2;"/><path d="M274.7515,239.2422 L274.7515,266.2422 M261.7515,247.2422 L287.7515,247.2422 M274.7515,266.2422 L261.7515,281.2422 M274.7515,266.2422 L287.7515,281.2422 " fill="none" filter="url(#f1ln1qqjp9du5k)" style="stroke:#A80036;stroke-width:2;"/><text fill="#4682B4" font-family="sans-serif" font-size="14" lengthAdjust="spacing" textLength="68.5029" x="240.5" y="303.3496">Yeong-hue</text></g><g id="elem_GMN4"><path d="M220,158.7422 L220,186.0332 A0,0 0 0 0 220,186.0332 L271,186.0332 L275,221.1222 L279,186.0332 L329.8926,186.0332 A0,0 0 0 0 329.8926,186.0332 L329.8926,168.7422 L319.8926,158.7422 L220,158.7422 A0,0 0 0 0 220,158.7422 " fill="#FBFB77" filter="url(#f1ln1qqjp9du5k)" style="stroke:#A80036;stroke-width:1;"/><path d="M319.8926,158.7422 L319.8926,168.7422 L329.8926,168.7422 L319.8926,158.7422 " fill="#FBFB77" style="stroke:#A80036;stroke-width:1;"/><text fill="#4682B4" font-family="sans-serif" font-size="13" lengthAdjust="spacing" textLength="22.4009" x="226" y="177.7705">The</text><text fill="#4682B4" font-family="sans-serif" font-size="13" lengthAdjust="spacing" textLength="3.6118" x="248.4009" y="177.7705">&#160;</text><text fill="#4682B4" font-family="sans-serif" font-size="13" lengthAdjust="spacing" textLength="62.8799" x="252.0127" y="177.7705">Vegetarian</text></g><!--entity sister--><g id="elem_sister"><ellipse cx="36.4551" cy="82.2422" fill="#FEFECE" filter="url(#f1ln1qqjp9du5k)" rx="8" ry="8" style="stroke:#A80036;stroke-width:2;"/><path d="M36.4551,90.2422 L36.4551,117.2422 M23.4551,98.2422 L49.4551,98.2422 M36.4551,117.2422 L23.4551,132.2422 M36.4551,117.2422 L49.4551,132.2422 " fill="none" filter="url(#f1ln1qqjp9du5k)" style="stroke:#A80036;stroke-width:2;"/><text fill="#4682B4" font-family="sans-serif" font-size="14" lengthAdjust="spacing" textLength="38.9102" x="17" y="154.3496">In-hye</text></g><!--entity brother--><g id="elem_brother"><ellipse cx="36.3584" cy="231.2422" fill="#FEFECE" filter="url(#f1ln1qqjp9du5k)" rx="8" ry="8" style="stroke:#A80036;stroke-width:2;"/><path d="M36.3584,239.2422 L36.3584,266.2422 M23.3584,247.2422 L49.3584,247.2422 M36.3584,266.2422 L23.3584,281.2422 M36.3584,266.2422 L49.3584,281.2422 " fill="none" filter="url(#f1ln1qqjp9du5k)" style="stroke:#A80036;stroke-width:2;"/><text fill="#4682B4" font-family="sans-serif" font-size="14" lengthAdjust="spacing" textLength="60.7168" x="6" y="303.3496">Yeong-ho</text></g><!--link vegetarian to narrator--><g id="link_vegetarian_narrator"><path d="M309.53,247.8922 C339.3,233.3822 377.5171,214.7521 409.5071,199.1521 " fill="none" id="vegetarian-to-narrator" style="stroke:#A80036;stroke-width:1;"/><polygon fill="#A80036" points="414.9,196.5222,405.0573,196.8717,410.4059,198.7138,408.5638,204.0623,414.9,196.5222" style="stroke:#A80036;stroke-width:1;"/><text fill="#4682B4" font-family="sans-serif" font-size="13" lengthAdjust="spacing" textLength="23.1182" x="361" y="208.2705">wife</text></g><!--link sister to vegetarian--><g id="link_sister_vegetarian"><path d="M56.06,126.9322 C95.8,151.9722 184.5637,207.8936 235.1737,239.7836 " fill="none" id="sister-to-vegetarian" style="stroke:#A80036;stroke-width:1;"/><polygon fill="#A80036" points="240.25,242.9822,234.768,234.8,236.0198,240.3167,230.5031,241.5684,240.25,242.9822" style="stroke:#A80036;stroke-width:1;"/><text fill="#4682B4" font-family="sans-serif" font-size="13" lengthAdjust="spacing" textLength="31.0591" x="128" y="151.2705">sister</text></g><!--link sister to narrator--><g id="link_sister_narrator"><path d="M56.14,115.7022 C102.7,117.1122 227.7,122.4922 330,141.2422 C358.69,146.5022 384.569,153.5083 409.029,160.9383 " fill="none" id="sister-to-narrator" style="stroke:#A80036;stroke-width:1;"/><polygon fill="#A80036" points="414.77,162.6822,407.3211,156.239,409.9858,161.2289,404.9959,163.8937,414.77,162.6822" style="stroke:#A80036;stroke-width:1;"/><text fill="#4682B4" font-family="sans-serif" font-size="13" lengthAdjust="spacing" textLength="69.3418" x="240.5" y="123.2705">sister-in-law</text></g><!--link brother to vegetarian--><g id="link_brother_vegetarian"><path d="M67.45,264.2422 C111.7,264.2422 188.27,264.2422 234.48,264.2422 " fill="none" id="brother-to-vegetarian" style="stroke:#A80036;stroke-width:1;"/><polygon fill="#A80036" points="240.48,264.2422,231.48,260.2422,235.48,264.2422,231.48,268.2422,240.48,264.2422" style="stroke:#A80036;stroke-width:1;"/><text fill="#4682B4" font-family="sans-serif" font-size="13" lengthAdjust="spacing" textLength="91.7808" x="98" y="260.2705">yuonger brother</text></g><!--SRC=[PP6xRiCm34LtVGKJT7KqT3FIxDqw50KwqZ9j2P4fWw8QvE-hn0bij9CUz_2GWdOlMQ-HFb0zlC7UgywvjLRmSXY3-jALJE8IAx4UN9fiYdH-jND4rZB59h2BfQTiXOPiFM6VxOI1RQZftfZT0u2rJqMn3pmUReZ9vy0p2axGeJkFaWhtBiKae8ASQrGxRwYU1YnHXphIWcKbYbqiP3He9FZq15yqag84P7CRPgY51CvNWLEIR8nf6KLGaxI06Pu7E1vdIOfZuf3rTAhSDoKU6r_e3lwiOavAe6c6zczBirBGDAVLti8b35IbxzpuwsBCjH69CSjwvpVbxJFVn1lTSbi_eObuMOTDTtDNN-9lwiVcl_jQAbw39_aB]--></g></svg>