<svg xmlns="http://www.w3.org/2000/svg" xmlns:xlink="http://www.w3.org/1999/xlink" contentStyleType="text/css" height="325px" preserveAspectRatio="none" style="width:429px;height:325px;background:#FFF5EE;" version="1.1" viewBox="0 0 429 325" width="429px" zoomAndPan="magnify"><title>The Vegetarian</title><defs><filter height="300%" id="f1smsfwwr95zng" width="300%" x="-1" y="-1"><feGaussianBlur result="blurOut" stdDeviation="2"/><feColorMatrix in="blurOut" result="blurOut2" type="matrix" values="0 0 0 0 0 0 0 0 0 0 0 0 0 0 0 0 0 0 .4 0"/><feOffset dx="4" dy="4" in="blurOut2" result="blurOut3"/><feBlend in="SourceGraphic" in2="blurOut3" mode="normal"/></filter></defs><g><rect fill="#FFF5EE" height="325" style="stroke:none;stroke-width:1;" width="429" x="0" y="0"/><text fill="#000000" font-family="sans-serif" font-size="14" font-weight="bold" lengthAdjust="spacing" textLength="100.3652" x="155.2378" y="25.1074">The Vegetarian</text><rect fill="#FFF5EE" height="279.4707" style="stroke:#A80036;stroke-width:1;" width="423.8408" x="0" y="39.6211"/><path d="M75.3584,39.6211 L75.3584,51.2422 L65.3584,61.2422 L0,61.2422 " fill="none" style="stroke:#A80036;stroke-width:1;"/><text fill="#000000" font-family="sans-serif" font-size="14" lengthAdjust="spacing" textLength="65.3584" x="3" y="55.7285">characters</text><!--entity narrator--><g id="elem_narrator"><ellipse cx="375.4204" cy="224.3633" fill="#FF00FF" filter="url(#f1smsfwwr95zng)" rx="8" ry="8" style="stroke:#A80036;stroke-width:2;"/><path d="M375.4204,232.3633 L375.4204,259.3633 M362.4204,240.3633 L388.4204,240.3633 M375.4204,259.3633 L362.4204,274.3633 M375.4204,259.3633 L388.4204,274.3633 " fill="none" filter="url(#f1smsfwwr95zng)" style="stroke:#A80036;stroke-width:2;"/><text fill="#000000" font-family="sans-serif" font-size="14" lengthAdjust="spacing" textLength="49.0205" x="350.9102" y="296.4707">narrator</text><text fill="#000000" font-family="sans-serif" font-size="14" font-style="italic" lengthAdjust="spacing" textLength="84.8408" x="333" y="210.8496">&#171;protagonist&#187;</text></g><!--entity vegetarian--><g id="elem_vegetarian"><ellipse cx="192.7515" cy="146.7422" fill="#FEFECE" filter="url(#f1smsfwwr95zng)" rx="8" ry="8" style="stroke:#A80036;stroke-width:2;"/><path d="M192.7515,154.7422 L192.7515,181.7422 M179.7515,162.7422 L205.7515,162.7422 M192.7515,181.7422 L179.7515,196.7422 M192.7515,181.7422 L205.7515,196.7422 " fill="none" filter="url(#f1smsfwwr95zng)" style="stroke:#A80036;stroke-width:2;"/><text fill="#000000" font-family="sans-serif" font-size="14" lengthAdjust="spacing" textLength="68.5029" x="158.5" y="218.8496">Yeong-hue</text></g><g id="elem_GMN4"><path d="M138,74.2422 L138,101.5332 A0,0 0 0 0 138,101.5332 L189,101.5332 L193,136.6222 L197,101.5332 L247.8926,101.5332 A0,0 0 0 0 247.8926,101.5332 L247.8926,84.2422 L237.8926,74.2422 L138,74.2422 A0,0 0 0 0 138,74.2422 " fill="#FBFB77" filter="url(#f1smsfwwr95zng)" style="stroke:#A80036;stroke-width:1;"/><path d="M237.8926,74.2422 L237.8926,84.2422 L247.8926,84.2422 L237.8926,74.2422 " fill="#FBFB77" style="stroke:#A80036;stroke-width:1;"/><text fill="#000000" font-family="sans-serif" font-size="13" lengthAdjust="spacing" textLength="22.4009" x="144" y="93.2705">The</text><text fill="#000000" font-family="sans-serif" font-size="13" lengthAdjust="spacing" textLength="3.6118" x="166.4009" y="93.2705">&#160;</text><text fill="#000000" font-family="sans-serif" font-size="13" lengthAdjust="spacing" textLength="62.8799" x="170.0127" y="93.2705">Vegetarian</text></g><!--entity sister--><g id="elem_sister"><ellipse cx="25.4551" cy="214.7422" fill="#FEFECE" filter="url(#f1smsfwwr95zng)" rx="8" ry="8" style="stroke:#A80036;stroke-width:2;"/><path d="M25.4551,222.7422 L25.4551,249.7422 M12.4551,230.7422 L38.4551,230.7422 M25.4551,249.7422 L12.4551,264.7422 M25.4551,249.7422 L38.4551,264.7422 " fill="none" filter="url(#f1smsfwwr95zng)" style="stroke:#A80036;stroke-width:2;"/><text fill="#000000" font-family="sans-serif" font-size="14" lengthAdjust="spacing" textLength="38.9102" x="6" y="286.8496">In-hye</text></g><!--link vegetarian to narrator--><g id="link_vegetarian_narrator"><path d="M227.53,192.3722 C257.3,203.5922 295.2951,217.9072 327.2851,229.9572 " fill="none" id="vegetarian-to-narrator" style="stroke:#A80036;stroke-width:1;"/><polygon fill="#A80036" points="332.9,232.0722,325.8877,225.1564,328.2209,230.3097,323.0677,232.6429,332.9,232.0722" style="stroke:#A80036;stroke-width:1;"/><text fill="#000000" font-family="sans-serif" font-size="13" lengthAdjust="spacing" textLength="23.1182" x="279" y="207.7705">wife</text></g><!--link sister to vegetarian--><g id="link_sister_vegetarian"><path d="M45.16,240.0722 C72.55,228.8222 118.5304,209.9328 152.6704,195.9028 " fill="none" id="sister-to-vegetarian" style="stroke:#A80036;stroke-width:1;"/><polygon fill="#A80036" points="158.22,193.6222,148.3751,193.3434,153.5953,195.5227,151.416,200.7429,158.22,193.6222" style="stroke:#A80036;stroke-width:1;"/><text fill="#000000" font-family="sans-serif" font-size="13" lengthAdjust="spacing" textLength="31.0591" x="76" y="212.7705">sister</text></g><!--link sister to narrator--><g id="link_sister_narrator"><path d="M45,250.1322 C67.09,252.8522 105.17,257.1222 138,258.7422 C186.83,261.1422 199.16,260.8622 248,258.7422 C276.41,257.5122 302.3394,255.3154 326.9994,252.8654 " fill="none" id="sister-to-narrator" style="stroke:#A80036;stroke-width:1;"/><polygon fill="#A80036" points="332.97,252.2722,323.6186,249.1816,327.9945,252.7665,324.4095,257.1424,332.97,252.2722" style="stroke:#A80036;stroke-width:1;"/><text fill="#000000" font-family="sans-serif" font-size="13" lengthAdjust="spacing" textLength="69.3418" x="158.5" y="254.7705">sister-in-law</text></g><!--SRC=[NP2nJiGm38RtF8Nln9fcO8kExcmC28dHj6uJaJgLurBTsvExSch553d_v- -NV7egUatqXXhW1Sv1TIxUES6r6QE6vMif95rc9TQcovFBYRwVtPoGTPcIZTobfQVYX8RY0c5Vt8IHNQpfsPZJ7m1xJqMnZpmsDyGOZPe8tWF11usaA17Pt1I3u4JG1HJibAGOOpoZ26eM3rZWCS3bCajM73F7ecrRkK_AFDgmq1tysSMSbK3p3Fv_fTafiBRTxHxME52Llh8DryrOQX69CTjxvm_h_f4VueDk-wsdimbNymi0]--></g></svg>