<svg xmlns="http://www.w3.org/2000/svg" xmlns:xlink="http://www.w3.org/1999/xlink" contentStyleType="text/css" height="307px" preserveAspectRatio="none" style="width:509px;height:307px;" version="1.1" viewBox="0 0 509 307" width="509px" zoomAndPan="magnify"><title>The Vegetarian</title><defs><filter height="300%" id="f61jsowc8laas" width="300%" x="-1" y="-1"><feGaussianBlur result="blurOut" stdDeviation="2"/><feColorMatrix in="blurOut" result="blurOut2" type="matrix" values="0 0 0 0 0 0 0 0 0 0 0 0 0 0 0 0 0 0 .4 0"/><feOffset dx="4" dy="4" in="blurOut2" result="blurOut3"/><feBlend in="SourceGraphic" in2="blurOut3" mode="normal"/></filter></defs><g><text fill="#4682B4" font-family="sans-serif" font-size="14" font-weight="bold" lengthAdjust="spacing" textLength="100.3652" x="195.2378" y="25.1074">The Vegetarian</text><rect fill="none" height="261.8496" style="stroke:#A80036;stroke-width:1;" width="503.8408" x="0" y="39.6211"/><path d="M75.3584,39.6211 L75.3584,51.2422 L65.3584,61.2422 L0,61.2422 " fill="none" style="stroke:#A80036;stroke-width:1;"/><text fill="#4682B4" font-family="sans-serif" font-size="14" lengthAdjust="spacing" textLength="65.3584" x="3" y="55.7285">characters</text><!--entity narrator--><g id="elem_narrator"><ellipse cx="455.4204" cy="156.3633" fill="#FF00FF" filter="url(#f61jsowc8laas)" rx="8" ry="8" style="stroke:#A80036;stroke-width:2;"/><path d="M455.4204,164.3633 L455.4204,191.3633 M442.4204,172.3633 L468.4204,172.3633 M455.4204,191.3633 L442.4204,206.3633 M455.4204,191.3633 L468.4204,206.3633 " fill="none" filter="url(#f61jsowc8laas)" style="stroke:#A80036;stroke-width:2;"/><text fill="#4682B4" font-family="sans-serif" font-size="14" lengthAdjust="spacing" textLength="16.3242" x="420.793" y="228.4707">Mr</text><text fill="#4682B4" font-family="sans-serif" font-size="14" lengthAdjust="spacing" textLength="3.8896" x="437.1172" y="228.4707">&#160;</text><text fill="#4682B4" font-family="sans-serif" font-size="14" lengthAdjust="spacing" textLength="49.041" x="441.0068" y="228.4707">Cheong</text><text fill="#4682B4" font-family="sans-serif" font-size="14" font-style="italic" lengthAdjust="spacing" textLength="84.8408" x="413" y="142.8496">&#171;protagonist&#187;</text></g><!--entity vegetarian--><g id="elem_vegetarian"><ellipse cx="272.7515" cy="146.7422" fill="#FEFECE" filter="url(#f61jsowc8laas)" rx="8" ry="8" style="stroke:#A80036;stroke-width:2;"/><path d="M272.7515,154.7422 L272.7515,181.7422 M259.7515,162.7422 L285.7515,162.7422 M272.7515,181.7422 L259.7515,196.7422 M272.7515,181.7422 L285.7515,196.7422 " fill="none" filter="url(#f61jsowc8laas)" style="stroke:#A80036;stroke-width:2;"/><text fill="#4682B4" font-family="sans-serif" font-size="14" lengthAdjust="spacing" textLength="68.5029" x="238.5" y="218.8496">Yeong-hue</text></g><g id="elem_GMN4"><path d="M218,74.2422 L218,101.5332 A0,0 0 0 0 218,101.5332 L269,101.5332 L273,136.6222 L277,101.5332 L327.8926,101.5332 A0,0 0 0 0 327.8926,101.5332 L327.8926,84.2422 L317.8926,74.2422 L218,74.2422 A0,0 0 0 0 218,74.2422 " fill="#FBFB77" filter="url(#f61jsowc8laas)" style="stroke:#A80036;stroke-width:1;"/><path d="M317.8926,74.2422 L317.8926,84.2422 L327.8926,84.2422 L317.8926,74.2422 " fill="#FBFB77" style="stroke:#A80036;stroke-width:1;"/><text fill="#4682B4" font-family="sans-serif" font-size="13" lengthAdjust="spacing" textLength="22.4009" x="224" y="93.2705">The</text><text fill="#4682B4" font-family="sans-serif" font-size="13" lengthAdjust="spacing" textLength="3.6118" x="246.4009" y="93.2705">&#160;</text><text fill="#4682B4" font-family="sans-serif" font-size="13" lengthAdjust="spacing" textLength="62.8799" x="250.0127" y="93.2705">Vegetarian</text></g><!--entity sister--><g id="elem_sister"><ellipse cx="36.4551" cy="85.7422" fill="#FEFECE" filter="url(#f61jsowc8laas)" rx="8" ry="8" style="stroke:#A80036;stroke-width:2;"/><path d="M36.4551,93.7422 L36.4551,120.7422 M23.4551,101.7422 L49.4551,101.7422 M36.4551,120.7422 L23.4551,135.7422 M36.4551,120.7422 L49.4551,135.7422 " fill="none" filter="url(#f61jsowc8laas)" style="stroke:#A80036;stroke-width:2;"/><text fill="#4682B4" font-family="sans-serif" font-size="14" lengthAdjust="spacing" textLength="38.9102" x="17" y="157.8496">In-hye</text></g><!--entity brother--><g id="elem_brother"><ellipse cx="36.3584" cy="206.7422" fill="#FEFECE" filter="url(#f61jsowc8laas)" rx="8" ry="8" style="stroke:#A80036;stroke-width:2;"/><path d="M36.3584,214.7422 L36.3584,241.7422 M23.3584,222.7422 L49.3584,222.7422 M36.3584,241.7422 L23.3584,256.7422 M36.3584,241.7422 L49.3584,256.7422 " fill="none" filter="url(#f61jsowc8laas)" style="stroke:#A80036;stroke-width:2;"/><text fill="#4682B4" font-family="sans-serif" font-size="14" lengthAdjust="spacing" textLength="60.7168" x="6" y="278.8496">Yeong-ho</text></g><!--link vegetarian to narrator--><g id="link_vegetarian_narrator"><path d="M307.53,179.7422 C337.3,179.7422 374.91,179.7422 406.9,179.7422 " fill="none" id="vegetarian-to-narrator" style="stroke:#A80036;stroke-width:1;"/><polygon fill="#A80036" points="412.9,179.7422,403.9,175.7422,407.9,179.7422,403.9,183.7422,412.9,179.7422" style="stroke:#A80036;stroke-width:1;"/><text fill="#4682B4" font-family="sans-serif" font-size="13" lengthAdjust="spacing" textLength="23.1182" x="359" y="175.7705">wife</text></g><!--link sister to vegetarian--><g id="link_sister_vegetarian"><path d="M56.29,123.6322 C95.85,133.9222 182.383,156.4325 232.463,169.4525 " fill="none" id="sister-to-vegetarian" style="stroke:#A80036;stroke-width:1;"/><polygon fill="#A80036" points="238.27,170.9622,230.566,164.8263,233.4309,169.7041,228.5531,172.5689,238.27,170.9622" style="stroke:#A80036;stroke-width:1;"/><text fill="#4682B4" font-family="sans-serif" font-size="13" lengthAdjust="spacing" textLength="31.0591" x="127" y="131.7705">sister</text></g><!--link brother to vegetarian--><g id="link_brother_vegetarian"><path d="M67.2,232.1422 C110.95,220.9522 186.6772,201.5693 232.5672,189.8293 " fill="none" id="brother-to-vegetarian" style="stroke:#A80036;stroke-width:1;"/><polygon fill="#A80036" points="238.38,188.3422,228.6694,186.6976,233.536,189.5814,230.6522,194.448,238.38,188.3422" style="stroke:#A80036;stroke-width:1;"/><text fill="#4682B4" font-family="sans-serif" font-size="13" lengthAdjust="spacing" textLength="89.2925" x="98" y="197.7705">yo&#1075;nger brother</text></g><!--SRC=[PP6nRiCW48Ptdk8ILUhaC7IpqYoTCbJgK5NgUCPdWu8F2uv6UQw-I1-fE4vagvr0_1_VVuZDGvABfpSK2y-mjI9ZghMEUDxrJcnkSg9e0Wknx4mOTF1qUjAZHvOy-CgnyRcbf2DrILl2Dka17MjNqgrIcni0Iqz1iNNSxoP4fPFZ4ICEqA0vzJ5aRatm8O94v5IYqhoYMkemU-dAI3EMXCWtFfCI9vxWtH9yK4-2qI6hQPYkN2GmjWYCK4nAgVermekbm7qDc80nHfHYs-_760Jxm2x9uL30pmcgRAOh-BMOEGY1X17glvrgeQ2g3ekzXhFhg4YFNDdBR4obYA9IythbLzVhU_wuobU- -RHyG-Nnl4mRhkgcFCLExjlcl_mIVhwvByaT_GK0]--></g></svg>