<svg xmlns="http://www.w3.org/2000/svg" xmlns:xlink="http://www.w3.org/1999/xlink" contentStyleType="text/css" height="748px" preserveAspectRatio="none" style="width:1210px;height:748px;" version="1.1" viewBox="0 0 1210 748" width="1210px" zoomAndPan="magnify"><title>The Vegetarian</title><defs><filter height="300%" id="f4ip5o9amtw6r" width="300%" x="-1" y="-1"><feGaussianBlur result="blurOut" stdDeviation="2"/><feColorMatrix in="blurOut" result="blurOut2" type="matrix" values="0 0 0 0 0 0 0 0 0 0 0 0 0 0 0 0 0 0 .4 0"/><feOffset dx="4" dy="4" in="blurOut2" result="blurOut3"/><feBlend in="SourceGraphic" in2="blurOut3" mode="normal"/></filter></defs><g><text fill="#4682B4" font-family="sans-serif" font-size="14" font-weight="bold" lengthAdjust="spacing" textLength="100.3652" x="545.3862" y="25.1074">The Vegetarian</text><rect fill="none" height="669.1755" style="stroke:#A80036;stroke-width:1;" width="1204.1377" x="0" y="39.6211"/><path d="M75.3584,39.6211 L75.3584,51.2422 L65.3584,61.2422 L0,61.2422 " fill="none" style="stroke:#A80036;stroke-width:1;"/><text fill="#4682B4" font-family="sans-serif" font-size="14" lengthAdjust="spacing" textLength="65.3584" x="3" y="55.7285">characters</text><!--entity narrator--><g id="elem_narrator"><ellipse cx="674.4204" cy="499.3633" fill="#FF00FF" filter="url(#f4ip5o9amtw6r)" rx="8" ry="8" style="stroke:#A80036;stroke-width:2;"/><path d="M674.4204,507.3633 L674.4204,534.3633 M661.4204,515.3633 L687.4204,515.3633 M674.4204,534.3633 L661.4204,549.3633 M674.4204,534.3633 L687.4204,549.3633 " fill="none" filter="url(#f4ip5o9amtw6r)" style="stroke:#A80036;stroke-width:2;"/><text fill="#4682B4" font-family="sans-serif" font-size="14" lengthAdjust="spacing" textLength="16.3242" x="639.793" y="571.4707">Mr</text><text fill="#4682B4" font-family="sans-serif" font-size="14" lengthAdjust="spacing" textLength="3.8896" x="656.1172" y="571.4707">&#160;</text><text fill="#4682B4" font-family="sans-serif" font-size="14" lengthAdjust="spacing" textLength="49.041" x="660.0068" y="571.4707">Cheong</text><text fill="#4682B4" font-family="sans-serif" font-size="14" font-style="italic" lengthAdjust="spacing" textLength="84.8408" x="632" y="485.8496">&#171;protagonist&#187;</text></g><g id="elem_GMN3"><path d="M648.5,408.2422 L648.5,435.5332 A0,0 0 0 0 648.5,435.5332 L670.5,435.5332 L674.5,470.6622 L678.5,435.5332 L700.5654,435.5332 A0,0 0 0 0 700.5654,435.5332 L700.5654,418.2422 L690.5654,408.2422 L648.5,408.2422 A0,0 0 0 0 648.5,408.2422 " fill="#FBFB77" filter="url(#f4ip5o9amtw6r)" style="stroke:#A80036;stroke-width:1;"/><path d="M690.5654,408.2422 L690.5654,418.2422 L700.5654,418.2422 L690.5654,408.2422 " fill="#FBFB77" style="stroke:#A80036;stroke-width:1;"/><text fill="#4682B4" font-family="sans-serif" font-size="13" lengthAdjust="spacing" textLength="23.8418" x="654.5" y="427.2705">Part</text><text fill="#4682B4" font-family="sans-serif" font-size="13" lengthAdjust="spacing" textLength="3.6118" x="678.3418" y="427.2705">&#160;</text><text fill="#4682B4" font-family="sans-serif" font-size="13" lengthAdjust="spacing" textLength="3.6118" x="681.9536" y="427.2705">I</text></g><!--entity vegetarian--><g id="elem_vegetarian"><ellipse cx="482.7515" cy="488.7422" fill="#FEFECE" filter="url(#f4ip5o9amtw6r)" rx="8" ry="8" style="stroke:#A80036;stroke-width:2;"/><path d="M482.7515,496.7422 L482.7515,523.7422 M469.7515,504.7422 L495.7515,504.7422 M482.7515,523.7422 L469.7515,538.7422 M482.7515,523.7422 L495.7515,538.7422 " fill="none" filter="url(#f4ip5o9amtw6r)" style="stroke:#A80036;stroke-width:2;"/><text fill="#4682B4" font-family="sans-serif" font-size="14" lengthAdjust="spacing" textLength="68.5029" x="448.5" y="560.8496">Yeong-hue</text></g><g id="elem_GMN7"><path d="M428,416.2422 L428,443.5332 A0,0 0 0 0 428,443.5332 L479,443.5332 L483,478.6222 L487,443.5332 L537.8926,443.5332 A0,0 0 0 0 537.8926,443.5332 L537.8926,426.2422 L527.8926,416.2422 L428,416.2422 A0,0 0 0 0 428,416.2422 " fill="#FBFB77" filter="url(#f4ip5o9amtw6r)" style="stroke:#A80036;stroke-width:1;"/><path d="M527.8926,416.2422 L527.8926,426.2422 L537.8926,426.2422 L527.8926,416.2422 " fill="#FBFB77" style="stroke:#A80036;stroke-width:1;"/><text fill="#4682B4" font-family="sans-serif" font-size="13" lengthAdjust="spacing" textLength="22.4009" x="434" y="435.2705">The</text><text fill="#4682B4" font-family="sans-serif" font-size="13" lengthAdjust="spacing" textLength="3.6118" x="456.4009" y="435.2705">&#160;</text><text fill="#4682B4" font-family="sans-serif" font-size="13" lengthAdjust="spacing" textLength="62.8799" x="460.0127" y="435.2705">Vegetarian</text></g><!--entity sister--><g id="elem_sister"><ellipse cx="239.4204" cy="368.3633" fill="#FF00FF" filter="url(#f4ip5o9amtw6r)" rx="8" ry="8" style="stroke:#A80036;stroke-width:2;"/><path d="M239.4204,376.3633 L239.4204,403.3633 M226.4204,384.3633 L252.4204,384.3633 M239.4204,403.3633 L226.4204,418.3633 M239.4204,403.3633 L252.4204,418.3633 " fill="none" filter="url(#f4ip5o9amtw6r)" style="stroke:#A80036;stroke-width:2;"/><text fill="#4682B4" font-family="sans-serif" font-size="14" lengthAdjust="spacing" textLength="38.9102" x="219.9653" y="440.4707">In-hye</text><text fill="#4682B4" font-family="sans-serif" font-size="14" font-style="italic" lengthAdjust="spacing" textLength="84.8408" x="197" y="354.8496">&#171;protagonist&#187;</text></g><g id="elem_GMN12"><path d="M210,277.2422 L210,304.5332 A0,0 0 0 0 210,304.5332 L235.5,304.5332 L239.5,339.6622 L243.5,304.5332 L269.2891,304.5332 A0,0 0 0 0 269.2891,304.5332 L269.2891,287.2422 L259.2891,277.2422 L210,277.2422 A0,0 0 0 0 210,277.2422 " fill="#FBFB77" filter="url(#f4ip5o9amtw6r)" style="stroke:#A80036;stroke-width:1;"/><path d="M259.2891,277.2422 L259.2891,287.2422 L269.2891,287.2422 L259.2891,277.2422 " fill="#FBFB77" style="stroke:#A80036;stroke-width:1;"/><text fill="#4682B4" font-family="sans-serif" font-size="13" lengthAdjust="spacing" textLength="23.8418" x="216" y="296.2705">Part</text><text fill="#4682B4" font-family="sans-serif" font-size="13" lengthAdjust="spacing" textLength="3.6118" x="239.8418" y="296.2705">&#160;</text><text fill="#4682B4" font-family="sans-serif" font-size="13" lengthAdjust="spacing" textLength="10.8354" x="243.4536" y="296.2705">III</text></g><!--entity brother--><g id="elem_brother"><ellipse cx="239.3584" cy="488.7422" fill="#FEFECE" filter="url(#f4ip5o9amtw6r)" rx="8" ry="8" style="stroke:#A80036;stroke-width:2;"/><path d="M239.3584,496.7422 L239.3584,523.7422 M226.3584,504.7422 L252.3584,504.7422 M239.3584,523.7422 L226.3584,538.7422 M239.3584,523.7422 L252.3584,538.7422 " fill="none" filter="url(#f4ip5o9amtw6r)" style="stroke:#A80036;stroke-width:2;"/><text fill="#4682B4" font-family="sans-serif" font-size="14" lengthAdjust="spacing" textLength="60.7168" x="209" y="560.8496">Yeong-ho</text></g><!--entity nephew--><g id="elem_nephew"><ellipse cx="60.7275" cy="173.7422" fill="#FEFECE" filter="url(#f4ip5o9amtw6r)" rx="8" ry="8" style="stroke:#A80036;stroke-width:2;"/><path d="M60.7275,181.7422 L60.7275,208.7422 M47.7275,189.7422 L73.7275,189.7422 M60.7275,208.7422 L47.7275,223.7422 M60.7275,208.7422 L73.7275,223.7422 " fill="none" filter="url(#f4ip5o9amtw6r)" style="stroke:#A80036;stroke-width:2;"/><text fill="#4682B4" font-family="sans-serif" font-size="14" lengthAdjust="spacing" textLength="40.4551" x="40.5" y="245.8496">Ji-woo</text></g><g id="elem_studio"><ellipse cx="794.516" cy="122.7166" fill="#E6E6FA" filter="url(#f4ip5o9amtw6r)" rx="47.516" ry="28.9744" style="stroke:#A80036;stroke-width:1;"/><text fill="#4682B4" font-family="sans-serif" font-size="14" font-style="italic" lengthAdjust="spacing" textLength="63.8271" x="762.6024" y="119.729">&#171;location&#187;</text><text fill="#4682B4" font-family="sans-serif" font-size="14" lengthAdjust="spacing" textLength="39.6963" x="774.6678" y="138.3501">Studio</text></g><!--entity he--><g id="elem_he"><ellipse cx="482.793" cy="165.3633" fill="#FF00FF" filter="url(#f4ip5o9amtw6r)" rx="8" ry="8" style="stroke:#A80036;stroke-width:2;"/><path d="M482.793,173.3633 L482.793,200.3633 M469.793,181.3633 L495.793,181.3633 M482.793,200.3633 L469.793,215.3633 M482.793,200.3633 L495.793,215.3633 " fill="none" filter="url(#f4ip5o9amtw6r)" style="stroke:#A80036;stroke-width:2;"/><text fill="#4682B4" font-family="sans-serif" font-size="14" lengthAdjust="spacing" textLength="85.5859" x="440" y="237.4707">brother-in-law</text><text fill="#4682B4" font-family="sans-serif" font-size="14" font-style="italic" lengthAdjust="spacing" textLength="84.8408" x="440.3726" y="151.8496">&#171;protagonist&#187;</text></g><g id="elem_GMN23"><path d="M455,74.2422 L455,101.5332 A0,0 0 0 0 455,101.5332 L479,101.5332 L483,136.6622 L487,101.5332 L510.6772,101.5332 A0,0 0 0 0 510.6772,101.5332 L510.6772,84.2422 L500.6772,74.2422 L455,74.2422 A0,0 0 0 0 455,74.2422 " fill="#FBFB77" filter="url(#f4ip5o9amtw6r)" style="stroke:#A80036;stroke-width:1;"/><path d="M500.6772,74.2422 L500.6772,84.2422 L510.6772,84.2422 L500.6772,74.2422 " fill="#FBFB77" style="stroke:#A80036;stroke-width:1;"/><text fill="#4682B4" font-family="sans-serif" font-size="13" lengthAdjust="spacing" textLength="23.8418" x="461" y="93.2705">Part</text><text fill="#4682B4" font-family="sans-serif" font-size="13" lengthAdjust="spacing" textLength="3.6118" x="484.8418" y="93.2705">&#160;</text><text fill="#4682B4" font-family="sans-serif" font-size="13" lengthAdjust="spacing" textLength="7.2236" x="488.4536" y="93.2705">II</text></g><!--entity J--><g id="elem_J"><ellipse cx="1154.5" cy="149.7422" fill="#FEFECE" filter="url(#f4ip5o9amtw6r)" rx="8" ry="8" style="stroke:#A80036;stroke-width:2;"/><path d="M1154.5,157.7422 L1154.5,184.7422 M1141.5,165.7422 L1167.5,165.7422 M1154.5,184.7422 L1141.5,199.7422 M1154.5,184.7422 L1167.5,199.7422 " fill="none" filter="url(#f4ip5o9amtw6r)" style="stroke:#A80036;stroke-width:2;"/><text fill="#4682B4" font-family="sans-serif" font-size="14" lengthAdjust="spacing" textLength="7" x="1151" y="221.8496">J</text></g><g id="elem_mstudio"><ellipse cx="942.3073" cy="263.6271" fill="#E6E6FA" filter="url(#f4ip5o9amtw6r)" rx="70.3073" ry="27.885" style="stroke:#A80036;stroke-width:1;"/><text fill="#4682B4" font-family="sans-serif" font-size="14" font-style="italic" lengthAdjust="spacing" textLength="63.8271" x="904.6533" y="258.1217">&#171;location&#187;</text><text fill="#4682B4" font-family="sans-serif" font-size="14" lengthAdjust="spacing" textLength="47.4824" x="892.2017" y="276.7428">another</text><text fill="#4682B4" font-family="sans-serif" font-size="14" lengthAdjust="spacing" textLength="3.8896" x="939.6841" y="276.7428">&#160;</text><text fill="#4682B4" font-family="sans-serif" font-size="14" lengthAdjust="spacing" textLength="37.3584" x="943.5738" y="276.7428">studio</text></g><!--entity M--><g id="elem_M"><ellipse cx="674.5" cy="154.7422" fill="#FEFECE" filter="url(#f4ip5o9amtw6r)" rx="8" ry="8" style="stroke:#A80036;stroke-width:2;"/><path d="M674.5,162.7422 L674.5,189.7422 M661.5,170.7422 L687.5,170.7422 M674.5,189.7422 L661.5,204.7422 M674.5,189.7422 L687.5,204.7422 " fill="none" filter="url(#f4ip5o9amtw6r)" style="stroke:#A80036;stroke-width:2;"/><text fill="#4682B4" font-family="sans-serif" font-size="14" lengthAdjust="spacing" textLength="11.6621" x="668.6689" y="226.8496">M</text></g><!--entity P--><g id="elem_P"><ellipse cx="239.6792" cy="166.3633" fill="#F08080" filter="url(#f4ip5o9amtw6r)" rx="8" ry="8" style="stroke:#A80036;stroke-width:2;"/><path d="M239.6792,174.3633 L239.6792,201.3633 M226.6792,182.3633 L252.6792,182.3633 M239.6792,201.3633 L226.6792,216.3633 M239.6792,201.3633 L252.6792,216.3633 " fill="none" filter="url(#f4ip5o9amtw6r)" style="stroke:#A80036;stroke-width:2;"/><text fill="#4682B4" font-family="sans-serif" font-size="14" lengthAdjust="spacing" textLength="9.3379" x="235.0103" y="238.4707">P</text><text fill="#4682B4" font-family="sans-serif" font-size="14" font-style="italic" lengthAdjust="spacing" textLength="30.3584" x="224.5" y="152.8496">&#171;ex&#187;</text></g><g id="elem_family"><ellipse cx="60.5074" cy="460.7982" fill="#FFE0E0" filter="url(#f4ip5o9amtw6r)" rx="54.5074" ry="28.056" style="stroke:#A80036;stroke-width:1;"/><text fill="#4682B4" font-family="sans-serif" font-size="14" font-style="italic" lengthAdjust="spacing" textLength="51.3789" x="29.6234" y="455.867">&#171;group&#187;</text><text fill="#4682B4" font-family="sans-serif" font-size="14" lengthAdjust="spacing" textLength="24.1104" x="23.0336" y="474.4881">Kim</text><text fill="#4682B4" font-family="sans-serif" font-size="14" lengthAdjust="spacing" textLength="3.8896" x="47.1439" y="474.4881">&#160;</text><text fill="#4682B4" font-family="sans-serif" font-size="14" lengthAdjust="spacing" textLength="36.5586" x="51.0336" y="474.4881">family</text></g><g id="elem_hospital"><ellipse cx="942.7083" cy="628.7089" fill="#FEFECE" filter="url(#f4ip5o9amtw6r)" rx="64.2083" ry="51.9667" style="stroke:#A80036;stroke-width:1;"/><text fill="#4682B4" font-family="sans-serif" font-size="14" font-style="italic" lengthAdjust="spacing" textLength="66.9307" x="904.4913" y="605.5809">&#171;istitution&#187;</text><text fill="#4682B4" font-family="sans-serif" font-size="14" lengthAdjust="spacing" textLength="73.9375" x="900.9879" y="624.202">Ch&#8217;ukseong</text><text fill="#4682B4" font-family="sans-serif" font-size="14" lengthAdjust="spacing" textLength="67.6826" x="904.1153" y="642.8231">Psychiatric</text><text fill="#4682B4" font-family="sans-serif" font-size="14" lengthAdjust="spacing" textLength="50.5791" x="912.6671" y="661.4442">Hospital</text></g><!--entity doctor--><g id="elem_doctor"><ellipse cx="1154.5688" cy="595.7422" fill="#FEFECE" filter="url(#f4ip5o9amtw6r)" rx="8" ry="8" style="stroke:#A80036;stroke-width:2;"/><path d="M1154.5688,603.7422 L1154.5688,630.7422 M1141.5688,611.7422 L1167.5688,611.7422 M1154.5688,630.7422 L1141.5688,645.7422 M1154.5688,630.7422 L1167.5688,645.7422 " fill="none" filter="url(#f4ip5o9amtw6r)" style="stroke:#A80036;stroke-width:2;"/><text fill="#4682B4" font-family="sans-serif" font-size="14" lengthAdjust="spacing" textLength="18.6621" x="1111" y="667.8496">Dr.</text><text fill="#4682B4" font-family="sans-serif" font-size="14" lengthAdjust="spacing" textLength="3.8896" x="1129.6621" y="667.8496">&#160;</text><text fill="#4682B4" font-family="sans-serif" font-size="14" lengthAdjust="spacing" textLength="28.7861" x="1133.5518" y="667.8496">Park</text><text fill="#4682B4" font-family="sans-serif" font-size="14" lengthAdjust="spacing" textLength="3.8896" x="1162.3379" y="667.8496">&#160;</text><text fill="#4682B4" font-family="sans-serif" font-size="14" lengthAdjust="spacing" textLength="31.9102" x="1166.2275" y="667.8496">In-ho</text></g><!--link vegetarian to narrator--><g id="link_vegetarian_narrator"><path d="M517.88,521.9222 C549.82,522.0922 591.7601,522.3106 625.9801,522.4906 " fill="none" id="vegetarian-to-narrator" style="stroke:#A80036;stroke-width:1;"/><polygon fill="#A80036" points="631.98,522.5222,623.0012,518.4749,626.9801,522.4959,622.9591,526.4748,631.98,522.5222" style="stroke:#A80036;stroke-width:1;"/><text fill="#4682B4" font-family="sans-serif" font-size="13" lengthAdjust="spacing" textLength="23.1182" x="573.5" y="517.7705">wife</text></g><!--link sister to vegetarian--><g id="link_sister_vegetarian"><path d="M282.02,414.0922 C329.08,439.4222 399.6167,477.3984 443.1267,500.8184 " fill="none" id="sister-to-vegetarian" style="stroke:#A80036;stroke-width:1;"/><polygon fill="#A80036" points="448.41,503.6622,442.381,495.8743,444.0073,501.2924,438.5892,502.9187,448.41,503.6622" style="stroke:#A80036;stroke-width:1;"/><text fill="#4682B4" font-family="sans-serif" font-size="13" lengthAdjust="spacing" textLength="31.0591" x="339.5" y="430.7705">sister</text></g><!--link brother to vegetarian--><g id="link_brother_vegetarian"><path d="M270.11,521.7422 C315.2,521.7422 394.83,521.7422 442.26,521.7422 " fill="none" id="brother-to-vegetarian" style="stroke:#A80036;stroke-width:1;"/><polygon fill="#A80036" points="448.26,521.7422,439.26,517.7422,443.26,521.7422,439.26,525.7422,448.26,521.7422" style="stroke:#A80036;stroke-width:1;"/><text fill="#4682B4" font-family="sans-serif" font-size="13" lengthAdjust="spacing" textLength="84.5508" x="313" y="517.7705">yonger brother</text></g><!--link nephew to sister--><g id="link_nephew_sister"><path d="M80.78,226.8922 C108.47,255.8322 156.0317,305.5472 192.6917,343.8572 " fill="none" id="nephew-to-sister" style="stroke:#A80036;stroke-width:1;"/><polygon fill="#A80036" points="196.84,348.1922,193.5076,338.9242,193.3831,344.5797,187.7276,344.4552,196.84,348.1922" style="stroke:#A80036;stroke-width:1;"/><text fill="#4682B4" font-family="sans-serif" font-size="13" lengthAdjust="spacing" textLength="20.96" x="146" y="295.7705">son</text></g><!--link nephew to he--><g id="link_nephew_he"><path d="M80.79,189.1622 C105.55,167.9022 150.86,133.2822 197,119.7422 C282.24,94.7322 378.3626,133.1414 434.3126,161.8714 " fill="none" id="nephew-to-he" style="stroke:#A80036;stroke-width:1;"/><polygon fill="#A80036" points="439.65,164.6122,433.471,156.9428,435.2021,162.3282,429.8167,164.0594,439.65,164.6122" style="stroke:#A80036;stroke-width:1;"/><text fill="#4682B4" font-family="sans-serif" font-size="13" lengthAdjust="spacing" textLength="20.96" x="229.5" y="108.7705">son</text></g><!--link sister to he--><g id="link_sister_he"><path d="M282.02,356.8422 C326.11,319.7722 390.8676,265.3535 435.2176,228.0635 " fill="none" id="sister-to-he" style="stroke:#A80036;stroke-width:1;"/><polygon fill="#A80036" points="439.81,224.2022,430.3472,226.9326,435.983,227.42,435.4956,233.0558,439.81,224.2022" style="stroke:#A80036;stroke-width:1;"/><text fill="#4682B4" font-family="sans-serif" font-size="13" lengthAdjust="spacing" textLength="23.1182" x="343.5" y="256.7705">wife</text></g><!--link he to studio--><g id="link_he_studio"><path d="M526.02,166.1822 C554.92,151.9222 594.68,134.7222 632,126.7422 C670.12,118.5922 714.46,118.1122 747.02,119.3722 " fill="none" id="he-studio" style="stroke:#A80036;stroke-width:1;"/></g><!--link studio to J--><g id="link_studio_J"><path d="M840.48,130.2822 C921.79,143.9122 1089.45,172.0122 1139.25,180.3522 " fill="none" id="studio-J" style="stroke:#A80036;stroke-width:1;"/></g><!--link he to mstudio--><g id="link_he_mstudio"><path d="M526.21,209.8822 C555.2,223.3122 594.98,239.6422 632,247.7422 C713.07,265.4922 808.81,267.6622 872.11,266.5822 " fill="none" id="he-mstudio" style="stroke:#A80036;stroke-width:1;"/></g><!--link M to mstudio--><g id="link_M_mstudio"><path d="M689.8,191.8322 C725.9,202.1422 822.26,229.6722 884.74,247.5222 " fill="none" id="M-mstudio" style="stroke:#A80036;stroke-width:1;"/><text fill="#4682B4" font-family="sans-serif" font-size="13" lengthAdjust="spacing" textLength="35.4072" x="777" y="206.7705">owner</text></g><!--reverse link he to M--><g id="link_he_M"><path d="M532.0599,188.4896 C574.3599,188.2596 631.22,187.9622 659.19,187.8222 " fill="none" id="he-backto-M" style="stroke:#A80036;stroke-width:1;"/><polygon fill="#A80036" points="526.06,188.5222,535.0816,192.4732,531.0599,188.495,535.0381,184.4733,526.06,188.5222" style="stroke:#A80036;stroke-width:1;"/><text fill="#4682B4" font-family="sans-serif" font-size="13" lengthAdjust="spacing" textLength="32.519" x="569" y="184.7705">friend</text></g><!--link vegetarian to mstudio--><g id="link_vegetarian_mstudio"><path d="M517.78,485.8022 C546.16,457.1722 588.89,417.5922 632,390.7422 C714.58,339.3122 821.6,300.8122 885.72,280.3422 " fill="none" id="vegetarian-mstudio" style="stroke:#A80036;stroke-width:1;"/></g><!--link mstudio to J--><g id="link_mstudio_J"><path d="M993.8,244.3422 C1041.37,225.9922 1109.71,199.6322 1139.13,188.2822 " fill="none" id="mstudio-J" style="stroke:#A80036;stroke-width:1;"/></g><!--link P to he--><g id="link_P_he"><path d="M254.53,189.6822 C289.96,189.5422 378.1901,189.1771 433.6201,188.9471 " fill="none" id="P-to-he" style="stroke:#A80036;stroke-width:1;"/><polygon fill="#A80036" points="439.62,188.9222,430.6035,184.9596,434.62,188.9429,430.6367,192.9595,439.62,188.9222" style="stroke:#A80036;stroke-width:1;"/></g><!--link family to sister--><g id="link_family_sister"><path d="M104.35,444.0422 C132.48,433.0722 169.1,418.8022 196.96,407.9322 " fill="none" id="family-sister" style="stroke:#A80036;stroke-width:1;"/></g><!--link family to brother--><g id="link_family_brother"><path d="M106.16,476.1322 C138.32,487.2222 180.81,501.8622 208.86,511.5322 " fill="none" id="family-brother" style="stroke:#A80036;stroke-width:1;"/></g><!--link vegetarian to hospital--><g id="link_vegetarian_hospital"><path d="M517.52,548.8122 C546.09,570.1622 589.2,598.4722 632,611.7422 C714.37,637.2822 814.89,637.5022 878.57,634.1022 " fill="none" id="vegetarian-hospital" style="stroke:#A80036;stroke-width:1;"/><text fill="#4682B4" font-family="sans-serif" font-size="13" lengthAdjust="spacing" textLength="39.0317" x="655" y="607.7705">patient</text></g><!--link hospital to doctor--><g id="link_hospital_doctor"><path d="M1006.51,628.7422 C1040.21,628.7422 1080.83,628.7422 1110.82,628.7422 " fill="none" id="hospital-doctor" style="stroke:#A80036;stroke-width:1;"/><text fill="#4682B4" font-family="sans-serif" font-size="13" lengthAdjust="spacing" textLength="36.1309" x="1044" y="624.7705">doctor</text></g><rect fill="none" height="30.6211" id="_legend" rx="7.5" ry="7.5" style="stroke:#000000;stroke-width:1;" width="341.9229" x="424.6074" y="701.6755"/><text fill="#4682B4" font-family="sans-serif" font-size="14" lengthAdjust="spacing" textLength="329.9229" x="430.6074" y="722.783">only named characters shown (except brother-in-law)</text><!--SRC=[ZLJ1Rjim3BthAzXWG9A3uyDkGjPBXs7fK230XW4xgZPZ2P4bGwBdvhRVsE_jIqRPIfsqFVGKWdpaUtoYS_CXqidYNf66Jx3GH5sKPHdKi6aCwVwnZnWgxmWTRIhVbjxYyMFPMUMeRsrXN6Nx6cCPy11BZQgEPQkCAmrN5qBSP03CF0nLjN7D9a446R88FpJ2JsoGL33AYJJX45IBK6aLL4KOeX2M0Qu62TxP4pWkrnTrYDeF3bRuL657y1WyQGmiiB1gM0iXv4E0EutUDH9KvFuG5Fa0sst7MDLuPoBTtWhd2O5ynqHx5GXstFehjHMwnx7rzwpq0lnY1p6Ze2XkPpu9WpaW3zsvGf-cYP6fyHrITYmcOzFC2mgPPuZbHVs2SyfcE-QD_4YVpH8Y1w-7dnZD-MUWaFUc6FpKxh3JE80GEKZTMGKJUyUL9Jpm16_Jj5Q5en2hxzJNng_7zSUGrxU-KcIyuztbzGkEHEpmAujcIgwET6_OTkNQY4jl08B3eZZJY_pB6NalMVHAkScEE4jjtz3Aq6dGkPYEJLuc-6O7btnB6wJvN9Pm22OTz8jJEJU9zaeFpzpBxHQVUEaKvbLOvJVJma6rnfv6XLF80flW-owXSoPjEjt8d7X-q2LyiPnr3L10vAzjTQV__VdR7sCw5DZ7KwMDec0g-EfZPqZPDNFmF4DzjY6zKAw9nUUmIUuV8PsvNwHYxIi-nXVh5iyzx4Z7Zl8_3Vjqpd5zQkDgxlyF]--></g></svg>