<svg xmlns="http://www.w3.org/2000/svg" xmlns:xlink="http://www.w3.org/1999/xlink" contentStyleType="text/css" height="661px" preserveAspectRatio="none" style="width:783px;height:661px;" version="1.1" viewBox="0 0 783 661" width="783px" zoomAndPan="magnify"><title>The Vegetarian</title><defs><filter height="300%" id="fsxdfks0074v8" width="300%" x="-1" y="-1"><feGaussianBlur result="blurOut" stdDeviation="2"/><feColorMatrix in="blurOut" result="blurOut2" type="matrix" values="0 0 0 0 0 0 0 0 0 0 0 0 0 0 0 0 0 0 .4 0"/><feOffset dx="4" dy="4" in="blurOut2" result="blurOut3"/><feBlend in="SourceGraphic" in2="blurOut3" mode="normal"/></filter></defs><g><text fill="#4682B4" font-family="sans-serif" font-size="14" font-weight="bold" lengthAdjust="spacing" textLength="100.3652" x="331.8174" y="25.1074">The Vegetarian</text><rect fill="none" height="582.4707" style="stroke:#A80036;stroke-width:1;" width="777" x="0" y="39.6211"/><path d="M75.3584,39.6211 L75.3584,51.2422 L65.3584,61.2422 L0,61.2422 " fill="none" style="stroke:#A80036;stroke-width:1;"/><text fill="#4682B4" font-family="sans-serif" font-size="14" lengthAdjust="spacing" textLength="65.3584" x="3" y="55.7285">characters</text><!--entity narrator--><g id="elem_narrator"><ellipse cx="609.4204" cy="165.3633" fill="#FF00FF" filter="url(#fsxdfks0074v8)" rx="8" ry="8" style="stroke:#A80036;stroke-width:2;"/><path d="M609.4204,173.3633 L609.4204,200.3633 M596.4204,181.3633 L622.4204,181.3633 M609.4204,200.3633 L596.4204,215.3633 M609.4204,200.3633 L622.4204,215.3633 " fill="none" filter="url(#fsxdfks0074v8)" style="stroke:#A80036;stroke-width:2;"/><text fill="#4682B4" font-family="sans-serif" font-size="14" lengthAdjust="spacing" textLength="16.3242" x="574.793" y="237.4707">Mr</text><text fill="#4682B4" font-family="sans-serif" font-size="14" lengthAdjust="spacing" textLength="3.8896" x="591.1172" y="237.4707">&#160;</text><text fill="#4682B4" font-family="sans-serif" font-size="14" lengthAdjust="spacing" textLength="49.041" x="595.0068" y="237.4707">Cheong</text><text fill="#4682B4" font-family="sans-serif" font-size="14" font-style="italic" lengthAdjust="spacing" textLength="84.8408" x="567" y="151.8496">&#171;protagonist&#187;</text></g><g id="elem_GMN3"><path d="M583.5,74.2422 L583.5,101.5332 A0,0 0 0 0 583.5,101.5332 L605.5,101.5332 L609.5,136.6622 L613.5,101.5332 L635.5654,101.5332 A0,0 0 0 0 635.5654,101.5332 L635.5654,84.2422 L625.5654,74.2422 L583.5,74.2422 A0,0 0 0 0 583.5,74.2422 " fill="#FBFB77" filter="url(#fsxdfks0074v8)" style="stroke:#A80036;stroke-width:1;"/><path d="M625.5654,74.2422 L625.5654,84.2422 L635.5654,84.2422 L625.5654,74.2422 " fill="#FBFB77" style="stroke:#A80036;stroke-width:1;"/><text fill="#4682B4" font-family="sans-serif" font-size="13" lengthAdjust="spacing" textLength="23.8418" x="589.5" y="93.2705">Part</text><text fill="#4682B4" font-family="sans-serif" font-size="13" lengthAdjust="spacing" textLength="3.6118" x="613.3418" y="93.2705">&#160;</text><text fill="#4682B4" font-family="sans-serif" font-size="13" lengthAdjust="spacing" textLength="3.6118" x="616.9536" y="93.2705">I</text></g><!--entity vegetarian--><g id="elem_vegetarian"><ellipse cx="389.7515" cy="190.7422" fill="#FEFECE" filter="url(#fsxdfks0074v8)" rx="8" ry="8" style="stroke:#A80036;stroke-width:2;"/><path d="M389.7515,198.7422 L389.7515,225.7422 M376.7515,206.7422 L402.7515,206.7422 M389.7515,225.7422 L376.7515,240.7422 M389.7515,225.7422 L402.7515,240.7422 " fill="none" filter="url(#fsxdfks0074v8)" style="stroke:#A80036;stroke-width:2;"/><text fill="#4682B4" font-family="sans-serif" font-size="14" lengthAdjust="spacing" textLength="68.5029" x="355.5" y="262.8496">Yeong-hue</text></g><g id="elem_GMN7"><path d="M335,118.2422 L335,145.5332 A0,0 0 0 0 335,145.5332 L386,145.5332 L390,180.6222 L394,145.5332 L444.8926,145.5332 A0,0 0 0 0 444.8926,145.5332 L444.8926,128.2422 L434.8926,118.2422 L335,118.2422 A0,0 0 0 0 335,118.2422 " fill="#FBFB77" filter="url(#fsxdfks0074v8)" style="stroke:#A80036;stroke-width:1;"/><path d="M434.8926,118.2422 L434.8926,128.2422 L444.8926,128.2422 L434.8926,118.2422 " fill="#FBFB77" style="stroke:#A80036;stroke-width:1;"/><text fill="#4682B4" font-family="sans-serif" font-size="13" lengthAdjust="spacing" textLength="22.4009" x="341" y="137.2705">The</text><text fill="#4682B4" font-family="sans-serif" font-size="13" lengthAdjust="spacing" textLength="3.6118" x="363.4009" y="137.2705">&#160;</text><text fill="#4682B4" font-family="sans-serif" font-size="13" lengthAdjust="spacing" textLength="62.8799" x="367.0127" y="137.2705">Vegetarian</text></g><!--entity sister--><g id="elem_sister"><ellipse cx="158.4551" cy="298.7422" fill="#FEFECE" filter="url(#fsxdfks0074v8)" rx="8" ry="8" style="stroke:#A80036;stroke-width:2;"/><path d="M158.4551,306.7422 L158.4551,333.7422 M145.4551,314.7422 L171.4551,314.7422 M158.4551,333.7422 L145.4551,348.7422 M158.4551,333.7422 L171.4551,348.7422 " fill="none" filter="url(#fsxdfks0074v8)" style="stroke:#A80036;stroke-width:2;"/><text fill="#4682B4" font-family="sans-serif" font-size="14" lengthAdjust="spacing" textLength="38.9102" x="139" y="370.8496">In-hye</text></g><!--entity brother--><g id="elem_brother"><ellipse cx="158.3584" cy="177.7422" fill="#FEFECE" filter="url(#fsxdfks0074v8)" rx="8" ry="8" style="stroke:#A80036;stroke-width:2;"/><path d="M158.3584,185.7422 L158.3584,212.7422 M145.3584,193.7422 L171.3584,193.7422 M158.3584,212.7422 L145.3584,227.7422 M158.3584,212.7422 L171.3584,227.7422 " fill="none" filter="url(#fsxdfks0074v8)" style="stroke:#A80036;stroke-width:2;"/><text fill="#4682B4" font-family="sans-serif" font-size="14" lengthAdjust="spacing" textLength="60.7168" x="128" y="249.8496">Yeong-ho</text></g><!--entity nephew--><g id="elem_nephew"><ellipse cx="26.2275" cy="366.7422" fill="#FEFECE" filter="url(#fsxdfks0074v8)" rx="8" ry="8" style="stroke:#A80036;stroke-width:2;"/><path d="M26.2275,374.7422 L26.2275,401.7422 M13.2275,382.7422 L39.2275,382.7422 M26.2275,401.7422 L13.2275,416.7422 M26.2275,401.7422 L39.2275,416.7422 " fill="none" filter="url(#fsxdfks0074v8)" style="stroke:#A80036;stroke-width:2;"/><text fill="#4682B4" font-family="sans-serif" font-size="14" lengthAdjust="spacing" textLength="40.4551" x="6" y="438.8496">Ji-woo</text></g><g id="elem_studio"><ellipse cx="609.516" cy="535.7166" fill="#E6E6FA" filter="url(#fsxdfks0074v8)" rx="47.516" ry="28.9744" style="stroke:#A80036;stroke-width:1;"/><text fill="#4682B4" font-family="sans-serif" font-size="14" font-style="italic" lengthAdjust="spacing" textLength="63.8271" x="577.6024" y="532.729">&#171;location&#187;</text><text fill="#4682B4" font-family="sans-serif" font-size="14" lengthAdjust="spacing" textLength="39.6963" x="589.6678" y="551.3501">Studio</text></g><!--entity he--><g id="elem_he"><ellipse cx="389.793" cy="405.3633" fill="#FF00FF" filter="url(#fsxdfks0074v8)" rx="8" ry="8" style="stroke:#A80036;stroke-width:2;"/><path d="M389.793,413.3633 L389.793,440.3633 M376.793,421.3633 L402.793,421.3633 M389.793,440.3633 L376.793,455.3633 M389.793,440.3633 L402.793,455.3633 " fill="none" filter="url(#fsxdfks0074v8)" style="stroke:#A80036;stroke-width:2;"/><text fill="#4682B4" font-family="sans-serif" font-size="14" lengthAdjust="spacing" textLength="85.5859" x="347" y="477.4707">brother-in-law</text><text fill="#4682B4" font-family="sans-serif" font-size="14" font-style="italic" lengthAdjust="spacing" textLength="84.8408" x="347.3726" y="391.8496">&#171;protagonist&#187;</text></g><g id="elem_GMN20"><path d="M362,314.2422 L362,341.5332 A0,0 0 0 0 362,341.5332 L386,341.5332 L390,376.6622 L394,341.5332 L417.6772,341.5332 A0,0 0 0 0 417.6772,341.5332 L417.6772,324.2422 L407.6772,314.2422 L362,314.2422 A0,0 0 0 0 362,314.2422 " fill="#FBFB77" filter="url(#fsxdfks0074v8)" style="stroke:#A80036;stroke-width:1;"/><path d="M407.6772,314.2422 L407.6772,324.2422 L417.6772,324.2422 L407.6772,314.2422 " fill="#FBFB77" style="stroke:#A80036;stroke-width:1;"/><text fill="#4682B4" font-family="sans-serif" font-size="13" lengthAdjust="spacing" textLength="23.8418" x="368" y="333.2705">Part</text><text fill="#4682B4" font-family="sans-serif" font-size="13" lengthAdjust="spacing" textLength="3.6118" x="391.8418" y="333.2705">&#160;</text><text fill="#4682B4" font-family="sans-serif" font-size="13" lengthAdjust="spacing" textLength="7.2236" x="395.4536" y="333.2705">II</text></g><!--entity J--><g id="elem_J"><ellipse cx="756" cy="387.7422" fill="#FEFECE" filter="url(#fsxdfks0074v8)" rx="8" ry="8" style="stroke:#A80036;stroke-width:2;"/><path d="M756,395.7422 L756,422.7422 M743,403.7422 L769,403.7422 M756,422.7422 L743,437.7422 M756,422.7422 L769,437.7422 " fill="none" filter="url(#fsxdfks0074v8)" style="stroke:#A80036;stroke-width:2;"/><text fill="#4682B4" font-family="sans-serif" font-size="14" lengthAdjust="spacing" textLength="7" x="752.5" y="459.8496">J</text></g><g id="elem_mstudio"><ellipse cx="609.3073" cy="303.6271" fill="#E6E6FA" filter="url(#fsxdfks0074v8)" rx="70.3073" ry="27.885" style="stroke:#A80036;stroke-width:1;"/><text fill="#4682B4" font-family="sans-serif" font-size="14" font-style="italic" lengthAdjust="spacing" textLength="63.8271" x="571.6533" y="298.1217">&#171;location&#187;</text><text fill="#4682B4" font-family="sans-serif" font-size="14" lengthAdjust="spacing" textLength="47.4824" x="559.2017" y="316.7428">another</text><text fill="#4682B4" font-family="sans-serif" font-size="14" lengthAdjust="spacing" textLength="3.8896" x="606.6841" y="316.7428">&#160;</text><text fill="#4682B4" font-family="sans-serif" font-size="14" lengthAdjust="spacing" textLength="37.3584" x="610.5738" y="316.7428">studio</text></g><!--entity M--><g id="elem_M"><ellipse cx="609.5" cy="395.7422" fill="#FEFECE" filter="url(#fsxdfks0074v8)" rx="8" ry="8" style="stroke:#A80036;stroke-width:2;"/><path d="M609.5,403.7422 L609.5,430.7422 M596.5,411.7422 L622.5,411.7422 M609.5,430.7422 L596.5,445.7422 M609.5,430.7422 L622.5,445.7422 " fill="none" filter="url(#fsxdfks0074v8)" style="stroke:#A80036;stroke-width:2;"/><text fill="#4682B4" font-family="sans-serif" font-size="14" lengthAdjust="spacing" textLength="11.6621" x="603.6689" y="467.8496">M</text></g><!--entity P--><g id="elem_P"><ellipse cx="158.6792" cy="527.3633" fill="#F08080" filter="url(#fsxdfks0074v8)" rx="8" ry="8" style="stroke:#A80036;stroke-width:2;"/><path d="M158.6792,535.3633 L158.6792,562.3633 M145.6792,543.3633 L171.6792,543.3633 M158.6792,562.3633 L145.6792,577.3633 M158.6792,562.3633 L171.6792,577.3633 " fill="none" filter="url(#fsxdfks0074v8)" style="stroke:#A80036;stroke-width:2;"/><text fill="#4682B4" font-family="sans-serif" font-size="14" lengthAdjust="spacing" textLength="9.3379" x="154.0103" y="599.4707">P</text><text fill="#4682B4" font-family="sans-serif" font-size="14" font-style="italic" lengthAdjust="spacing" textLength="30.3584" x="143.5" y="513.8496">&#171;ex&#187;</text></g><!--link vegetarian to narrator--><g id="link_vegetarian_narrator"><path d="M424.51,218.3522 C462.76,212.1922 519.4462,203.0754 560.8362,196.4154 " fill="none" id="vegetarian-to-narrator" style="stroke:#A80036;stroke-width:1;"/><polygon fill="#A80036" points="566.76,195.4622,557.2388,192.9428,561.8235,196.2565,558.5098,200.8412,566.76,195.4622" style="stroke:#A80036;stroke-width:1;"/><text fill="#4682B4" font-family="sans-serif" font-size="13" lengthAdjust="spacing" textLength="23.1182" x="480.5" y="201.7705">wife</text></g><!--link sister to vegetarian--><g id="link_sister_vegetarian"><path d="M178.28,322.9022 C217.03,304.6722 300.8911,265.2071 349.8911,242.1471 " fill="none" id="sister-to-vegetarian" style="stroke:#A80036;stroke-width:1;"/><polygon fill="#A80036" points="355.32,239.5922,345.4734,239.8053,350.7959,241.7213,348.88,247.0438,355.32,239.5922" style="stroke:#A80036;stroke-width:1;"/><text fill="#4682B4" font-family="sans-serif" font-size="13" lengthAdjust="spacing" textLength="31.0591" x="246.5" y="260.7705">sister</text></g><!--link brother to vegetarian--><g id="link_brother_vegetarian"><path d="M189.03,212.4122 C231.77,214.8322 304.6396,218.963 349.4996,221.503 " fill="none" id="brother-to-vegetarian" style="stroke:#A80036;stroke-width:1;"/><polygon fill="#A80036" points="355.49,221.8422,346.7305,217.3398,350.498,221.5595,346.2783,225.327,355.49,221.8422" style="stroke:#A80036;stroke-width:1;"/><text fill="#4682B4" font-family="sans-serif" font-size="13" lengthAdjust="spacing" textLength="84.5508" x="220" y="210.7705">yonger brother</text></g><!--link nephew to sister--><g id="link_nephew_sister"><path d="M46.26,389.7122 C71.07,376.7822 108.6195,357.2157 133.2695,344.3657 " fill="none" id="nephew-to-sister" style="stroke:#A80036;stroke-width:1;"/><polygon fill="#A80036" points="138.59,341.5922,128.7603,342.2055,134.1563,343.9035,132.4583,349.2995,138.59,341.5922" style="stroke:#A80036;stroke-width:1;"/><text fill="#4682B4" font-family="sans-serif" font-size="13" lengthAdjust="spacing" textLength="20.96" x="77" y="358.7705">son</text></g><!--link nephew to he--><g id="link_nephew_he"><path d="M46.33,402.3522 C66.63,405.0122 99.51,409.1222 128,411.7422 C205.1,418.8322 289.2781,423.7012 340.9181,426.3812 " fill="none" id="nephew-to-he" style="stroke:#A80036;stroke-width:1;"/><polygon fill="#A80036" points="346.91,426.6922,338.1294,422.2311,341.9167,426.433,337.7148,430.2204,346.91,426.6922" style="stroke:#A80036;stroke-width:1;"/><text fill="#4682B4" font-family="sans-serif" font-size="13" lengthAdjust="spacing" textLength="20.96" x="148.5" y="407.7705">son</text></g><!--link sister to he--><g id="link_sister_he"><path d="M178.28,339.6822 C214.89,355.1522 291.0834,387.3563 341.3134,408.5863 " fill="none" id="sister-to-he" style="stroke:#A80036;stroke-width:1;"/><polygon fill="#A80036" points="346.84,410.9222,340.1073,403.734,342.2345,408.9756,336.9928,411.1028,346.84,410.9222" style="stroke:#A80036;stroke-width:1;"/><text fill="#4682B4" font-family="sans-serif" font-size="13" lengthAdjust="spacing" textLength="23.1182" x="250.5" y="353.7705">wife</text></g><!--link he to studio--><g id="link_he_studio"><path d="M433.19,449.5022 C473.47,469.3122 533.53,498.8622 571.85,517.7122 " fill="none" id="he-studio" style="stroke:#A80036;stroke-width:1;"/></g><!--link studio to J--><g id="link_studio_J"><path d="M643.78,515.2522 C655.51,507.6322 668.61,498.6622 680,489.7422 C702.43,472.1822 726.31,449.4222 740.95,434.9422 " fill="none" id="studio-J" style="stroke:#A80036;stroke-width:1;"/></g><!--link he to mstudio--><g id="link_he_mstudio"><path d="M433.19,404.4922 C472.35,381.9822 530.22,348.7322 568.62,326.6622 " fill="none" id="he-mstudio" style="stroke:#A80036;stroke-width:1;"/></g><!--link mstudio to M--><g id="link_mstudio_M"><path d="M609.5,331.9222 C609.5,347.7922 609.5,367.9322 609.5,385.7222 " fill="none" id="mstudio-M" style="stroke:#A80036;stroke-width:1;"/><text fill="#4682B4" font-family="sans-serif" font-size="13" lengthAdjust="spacing" textLength="35.4072" x="579.5" y="364.2705">owner</text></g><!--reverse link he to M--><g id="link_he_M"><path d="M439.19,428.7422 C488.61,428.7422 561.81,428.7422 594.1,428.7422 " fill="none" id="he-backto-M" style="stroke:#A80036;stroke-width:1;"/><polygon fill="#A80036" points="433.19,428.7422,442.19,432.7422,438.19,428.7422,442.19,424.7422,433.19,428.7422" style="stroke:#A80036;stroke-width:1;"/><text fill="#4682B4" font-family="sans-serif" font-size="13" lengthAdjust="spacing" textLength="32.519" x="476" y="424.7705">friend</text></g><!--link vegetarian to mstudio--><g id="link_vegetarian_mstudio"><path d="M424.51,236.0622 C459.9,249.0822 516.14,269.7722 557.14,284.8522 " fill="none" id="vegetarian-mstudio" style="stroke:#A80036;stroke-width:1;"/></g><!--link mstudio to J--><g id="link_mstudio_J"><path d="M641.5,328.8422 C672.18,353.6822 717.79,390.6122 740.73,409.1922 " fill="none" id="mstudio-J" style="stroke:#A80036;stroke-width:1;"/></g><!--link P to he--><g id="link_P_he"><path d="M173.51,543.2922 C207.28,525.3422 288.9623,481.9289 341.5123,453.9889 " fill="none" id="P-to-he" style="stroke:#A80036;stroke-width:1;"/><polygon fill="#A80036" points="346.81,451.1722,336.9856,451.8654,342.3952,453.5195,340.7412,458.9291,346.81,451.1722" style="stroke:#A80036;stroke-width:1;"/></g><rect fill="none" height="30.6211" id="_legend" rx="7.5" ry="7.5" style="stroke:#000000;stroke-width:1;" width="341.9229" x="211.0386" y="614.9707"/><text fill="#4682B4" font-family="sans-serif" font-size="14" lengthAdjust="spacing" textLength="329.9229" x="217.0386" y="636.0781">only named characters shown (except brother-in-law)</text><!--SRC=[RL9DRzim3BtpLx35WAO7nOVT12-NdL8WG80D0tPKRSOIAak6HC_Dln_zDQVDJYBq7jzxfFJm9VFLqzcmnM_uQ9cxh8iYcM7VEBRzQvyfLJ4m1TvNiIsYfxUlHUTDuBxroeNAzpNb8j4b5vPCdOlMk50uGHy17XO2RZv2DRKBpNwa03lsX3yjuIzgY4ro9i2eS4cc9QoiIQPYIXd02o7Kg346VyKWS7s3OxPn2BYZzuewnjSKsLAIWCgRuHa0z2dXTqinD1fDblwK3CU4PTa9rpGnkCo70uJ8X1mxCJgRn7YKrjzZcx8zJQr_jgGtv4ypmCP2fGwRdyR1NKX4Zq7PwwoOnPeIm7nE_9jslU9FD_YDtdoxZBgbZPFqiWY0fRWNlmfRxlyHGRyuDSIvFL1dQK20fHYxbnHY78CWJtWIXUX7jTQaDu3T3-vh5v-dqQPIjknZPTZ582lM7rzdCfBjtRt4PYdeP7V_EiSFMvjuutuHf5HgjOVbb1lzeYNqpeHv7NcBsludgr1deHK4M2kHEkdnEmv1T2PUgTRBItBZP_tq3LQLJMFA8oi_wxAaTnbwB9TH0Fu2]--></g></svg>