<svg xmlns="http://www.w3.org/2000/svg" xmlns:xlink="http://www.w3.org/1999/xlink" contentStyleType="text/css" height="628px" preserveAspectRatio="none" style="width:788px;height:628px;" version="1.1" viewBox="0 0 788 628" width="788px" zoomAndPan="magnify"><title>The Vegetarian</title><defs><filter height="300%" id="f1q7u4tpdeazxj" width="300%" x="-1" y="-1"><feGaussianBlur result="blurOut" stdDeviation="2"/><feColorMatrix in="blurOut" result="blurOut2" type="matrix" values="0 0 0 0 0 0 0 0 0 0 0 0 0 0 0 0 0 0 .4 0"/><feOffset dx="4" dy="4" in="blurOut2" result="blurOut3"/><feBlend in="SourceGraphic" in2="blurOut3" mode="normal"/></filter></defs><g><text fill="#4682B4" font-family="sans-serif" font-size="14" font-weight="bold" lengthAdjust="spacing" textLength="100.3652" x="334.3174" y="25.1074">The Vegetarian</text><rect fill="none" height="582.4707" style="stroke:#A80036;stroke-width:1;" width="782" x="0" y="39.6211"/><path d="M75.3584,39.6211 L75.3584,51.2422 L65.3584,61.2422 L0,61.2422 " fill="none" style="stroke:#A80036;stroke-width:1;"/><text fill="#4682B4" font-family="sans-serif" font-size="14" lengthAdjust="spacing" textLength="65.3584" x="3" y="55.7285">characters</text><!--entity narrator--><g id="elem_narrator"><ellipse cx="614.4204" cy="165.3633" fill="#FF00FF" filter="url(#f1q7u4tpdeazxj)" rx="8" ry="8" style="stroke:#A80036;stroke-width:2;"/><path d="M614.4204,173.3633 L614.4204,200.3633 M601.4204,181.3633 L627.4204,181.3633 M614.4204,200.3633 L601.4204,215.3633 M614.4204,200.3633 L627.4204,215.3633 " fill="none" filter="url(#f1q7u4tpdeazxj)" style="stroke:#A80036;stroke-width:2;"/><text fill="#4682B4" font-family="sans-serif" font-size="14" lengthAdjust="spacing" textLength="16.3242" x="579.793" y="237.4707">Mr</text><text fill="#4682B4" font-family="sans-serif" font-size="14" lengthAdjust="spacing" textLength="3.8896" x="596.1172" y="237.4707">&#160;</text><text fill="#4682B4" font-family="sans-serif" font-size="14" lengthAdjust="spacing" textLength="49.041" x="600.0068" y="237.4707">Cheong</text><text fill="#4682B4" font-family="sans-serif" font-size="14" font-style="italic" lengthAdjust="spacing" textLength="84.8408" x="572" y="151.8496">&#171;protagonist&#187;</text></g><g id="elem_GMN3"><path d="M588.5,74.2422 L588.5,101.5332 A0,0 0 0 0 588.5,101.5332 L610.5,101.5332 L614.5,136.6622 L618.5,101.5332 L640.5654,101.5332 A0,0 0 0 0 640.5654,101.5332 L640.5654,84.2422 L630.5654,74.2422 L588.5,74.2422 A0,0 0 0 0 588.5,74.2422 " fill="#FBFB77" filter="url(#f1q7u4tpdeazxj)" style="stroke:#A80036;stroke-width:1;"/><path d="M630.5654,74.2422 L630.5654,84.2422 L640.5654,84.2422 L630.5654,74.2422 " fill="#FBFB77" style="stroke:#A80036;stroke-width:1;"/><text fill="#4682B4" font-family="sans-serif" font-size="13" lengthAdjust="spacing" textLength="23.8418" x="594.5" y="93.2705">Part</text><text fill="#4682B4" font-family="sans-serif" font-size="13" lengthAdjust="spacing" textLength="3.6118" x="618.3418" y="93.2705">&#160;</text><text fill="#4682B4" font-family="sans-serif" font-size="13" lengthAdjust="spacing" textLength="3.6118" x="621.9536" y="93.2705">I</text></g><!--entity vegetarian--><g id="elem_vegetarian"><ellipse cx="394.7515" cy="190.7422" fill="#FEFECE" filter="url(#f1q7u4tpdeazxj)" rx="8" ry="8" style="stroke:#A80036;stroke-width:2;"/><path d="M394.7515,198.7422 L394.7515,225.7422 M381.7515,206.7422 L407.7515,206.7422 M394.7515,225.7422 L381.7515,240.7422 M394.7515,225.7422 L407.7515,240.7422 " fill="none" filter="url(#f1q7u4tpdeazxj)" style="stroke:#A80036;stroke-width:2;"/><text fill="#4682B4" font-family="sans-serif" font-size="14" lengthAdjust="spacing" textLength="68.5029" x="360.5" y="262.8496">Yeong-hue</text></g><g id="elem_GMN7"><path d="M340,118.2422 L340,145.5332 A0,0 0 0 0 340,145.5332 L391,145.5332 L395,180.6222 L399,145.5332 L449.8926,145.5332 A0,0 0 0 0 449.8926,145.5332 L449.8926,128.2422 L439.8926,118.2422 L340,118.2422 A0,0 0 0 0 340,118.2422 " fill="#FBFB77" filter="url(#f1q7u4tpdeazxj)" style="stroke:#A80036;stroke-width:1;"/><path d="M439.8926,118.2422 L439.8926,128.2422 L449.8926,128.2422 L439.8926,118.2422 " fill="#FBFB77" style="stroke:#A80036;stroke-width:1;"/><text fill="#4682B4" font-family="sans-serif" font-size="13" lengthAdjust="spacing" textLength="22.4009" x="346" y="137.2705">The</text><text fill="#4682B4" font-family="sans-serif" font-size="13" lengthAdjust="spacing" textLength="3.6118" x="368.4009" y="137.2705">&#160;</text><text fill="#4682B4" font-family="sans-serif" font-size="13" lengthAdjust="spacing" textLength="62.8799" x="372.0127" y="137.2705">Vegetarian</text></g><!--entity sister--><g id="elem_sister"><ellipse cx="158.4551" cy="298.7422" fill="#FEFECE" filter="url(#f1q7u4tpdeazxj)" rx="8" ry="8" style="stroke:#A80036;stroke-width:2;"/><path d="M158.4551,306.7422 L158.4551,333.7422 M145.4551,314.7422 L171.4551,314.7422 M158.4551,333.7422 L145.4551,348.7422 M158.4551,333.7422 L171.4551,348.7422 " fill="none" filter="url(#f1q7u4tpdeazxj)" style="stroke:#A80036;stroke-width:2;"/><text fill="#4682B4" font-family="sans-serif" font-size="14" lengthAdjust="spacing" textLength="38.9102" x="139" y="370.8496">In-hye</text></g><!--entity brother--><g id="elem_brother"><ellipse cx="158.3584" cy="177.7422" fill="#FEFECE" filter="url(#f1q7u4tpdeazxj)" rx="8" ry="8" style="stroke:#A80036;stroke-width:2;"/><path d="M158.3584,185.7422 L158.3584,212.7422 M145.3584,193.7422 L171.3584,193.7422 M158.3584,212.7422 L145.3584,227.7422 M158.3584,212.7422 L171.3584,227.7422 " fill="none" filter="url(#f1q7u4tpdeazxj)" style="stroke:#A80036;stroke-width:2;"/><text fill="#4682B4" font-family="sans-serif" font-size="14" lengthAdjust="spacing" textLength="60.7168" x="128" y="249.8496">Yeong-ho</text></g><!--entity nephew--><g id="elem_nephew"><ellipse cx="26.2275" cy="366.7422" fill="#FEFECE" filter="url(#f1q7u4tpdeazxj)" rx="8" ry="8" style="stroke:#A80036;stroke-width:2;"/><path d="M26.2275,374.7422 L26.2275,401.7422 M13.2275,382.7422 L39.2275,382.7422 M26.2275,401.7422 L13.2275,416.7422 M26.2275,401.7422 L39.2275,416.7422 " fill="none" filter="url(#f1q7u4tpdeazxj)" style="stroke:#A80036;stroke-width:2;"/><text fill="#4682B4" font-family="sans-serif" font-size="14" lengthAdjust="spacing" textLength="40.4551" x="6" y="438.8496">Ji-woo</text></g><g id="elem_studio"><ellipse cx="614.516" cy="535.7166" fill="#E6E6FA" filter="url(#f1q7u4tpdeazxj)" rx="47.516" ry="28.9744" style="stroke:#A80036;stroke-width:1;"/><text fill="#4682B4" font-family="sans-serif" font-size="14" font-style="italic" lengthAdjust="spacing" textLength="63.8271" x="582.6024" y="532.729">&#171;location&#187;</text><text fill="#4682B4" font-family="sans-serif" font-size="14" lengthAdjust="spacing" textLength="39.6963" x="594.6678" y="551.3501">Studio</text></g><!--entity he--><g id="elem_he"><ellipse cx="394.9204" cy="405.3633" fill="#FF00FF" filter="url(#f1q7u4tpdeazxj)" rx="8" ry="8" style="stroke:#A80036;stroke-width:2;"/><path d="M394.9204,413.3633 L394.9204,440.3633 M381.9204,421.3633 L407.9204,421.3633 M394.9204,440.3633 L381.9204,455.3633 M394.9204,440.3633 L407.9204,455.3633 " fill="none" filter="url(#f1q7u4tpdeazxj)" style="stroke:#A80036;stroke-width:2;"/><text fill="#4682B4" font-family="sans-serif" font-size="14" lengthAdjust="spacing" textLength="23.3584" x="383.2412" y="477.4707">???</text><text fill="#4682B4" font-family="sans-serif" font-size="14" font-style="italic" lengthAdjust="spacing" textLength="84.8408" x="352.5" y="391.8496">&#171;protagonist&#187;</text></g><g id="elem_GMN20"><path d="M367,314.2422 L367,341.5332 A0,0 0 0 0 367,341.5332 L391,341.5332 L395,376.6622 L399,341.5332 L422.6772,341.5332 A0,0 0 0 0 422.6772,341.5332 L422.6772,324.2422 L412.6772,314.2422 L367,314.2422 A0,0 0 0 0 367,314.2422 " fill="#FBFB77" filter="url(#f1q7u4tpdeazxj)" style="stroke:#A80036;stroke-width:1;"/><path d="M412.6772,314.2422 L412.6772,324.2422 L422.6772,324.2422 L412.6772,314.2422 " fill="#FBFB77" style="stroke:#A80036;stroke-width:1;"/><text fill="#4682B4" font-family="sans-serif" font-size="13" lengthAdjust="spacing" textLength="23.8418" x="373" y="333.2705">Part</text><text fill="#4682B4" font-family="sans-serif" font-size="13" lengthAdjust="spacing" textLength="3.6118" x="396.8418" y="333.2705">&#160;</text><text fill="#4682B4" font-family="sans-serif" font-size="13" lengthAdjust="spacing" textLength="7.2236" x="400.4536" y="333.2705">II</text></g><!--entity J--><g id="elem_J"><ellipse cx="761" cy="387.7422" fill="#FEFECE" filter="url(#f1q7u4tpdeazxj)" rx="8" ry="8" style="stroke:#A80036;stroke-width:2;"/><path d="M761,395.7422 L761,422.7422 M748,403.7422 L774,403.7422 M761,422.7422 L748,437.7422 M761,422.7422 L774,437.7422 " fill="none" filter="url(#f1q7u4tpdeazxj)" style="stroke:#A80036;stroke-width:2;"/><text fill="#4682B4" font-family="sans-serif" font-size="14" lengthAdjust="spacing" textLength="7" x="757.5" y="459.8496">J</text></g><g id="elem_mstudio"><ellipse cx="614.3073" cy="303.6271" fill="#E6E6FA" filter="url(#f1q7u4tpdeazxj)" rx="70.3073" ry="27.885" style="stroke:#A80036;stroke-width:1;"/><text fill="#4682B4" font-family="sans-serif" font-size="14" font-style="italic" lengthAdjust="spacing" textLength="63.8271" x="576.6533" y="298.1217">&#171;location&#187;</text><text fill="#4682B4" font-family="sans-serif" font-size="14" lengthAdjust="spacing" textLength="47.4824" x="564.2017" y="316.7428">another</text><text fill="#4682B4" font-family="sans-serif" font-size="14" lengthAdjust="spacing" textLength="3.8896" x="611.6841" y="316.7428">&#160;</text><text fill="#4682B4" font-family="sans-serif" font-size="14" lengthAdjust="spacing" textLength="37.3584" x="615.5738" y="316.7428">studio</text></g><!--entity M--><g id="elem_M"><ellipse cx="614.5" cy="395.7422" fill="#FEFECE" filter="url(#f1q7u4tpdeazxj)" rx="8" ry="8" style="stroke:#A80036;stroke-width:2;"/><path d="M614.5,403.7422 L614.5,430.7422 M601.5,411.7422 L627.5,411.7422 M614.5,430.7422 L601.5,445.7422 M614.5,430.7422 L627.5,445.7422 " fill="none" filter="url(#f1q7u4tpdeazxj)" style="stroke:#A80036;stroke-width:2;"/><text fill="#4682B4" font-family="sans-serif" font-size="14" lengthAdjust="spacing" textLength="11.6621" x="608.6689" y="467.8496">M</text></g><!--entity P--><g id="elem_P"><ellipse cx="158.6792" cy="527.3633" fill="#F08080" filter="url(#f1q7u4tpdeazxj)" rx="8" ry="8" style="stroke:#A80036;stroke-width:2;"/><path d="M158.6792,535.3633 L158.6792,562.3633 M145.6792,543.3633 L171.6792,543.3633 M158.6792,562.3633 L145.6792,577.3633 M158.6792,562.3633 L171.6792,577.3633 " fill="none" filter="url(#f1q7u4tpdeazxj)" style="stroke:#A80036;stroke-width:2;"/><text fill="#4682B4" font-family="sans-serif" font-size="14" lengthAdjust="spacing" textLength="9.3379" x="154.0103" y="599.4707">P</text><text fill="#4682B4" font-family="sans-serif" font-size="14" font-style="italic" lengthAdjust="spacing" textLength="30.3584" x="143.5" y="513.8496">&#171;ex&#187;</text></g><!--link vegetarian to narrator--><g id="link_vegetarian_narrator"><path d="M429.51,218.3522 C467.76,212.1922 524.4462,203.0754 565.8362,196.4154 " fill="none" id="vegetarian-to-narrator" style="stroke:#A80036;stroke-width:1;"/><polygon fill="#A80036" points="571.76,195.4622,562.2388,192.9428,566.8235,196.2565,563.5098,200.8412,571.76,195.4622" style="stroke:#A80036;stroke-width:1;"/><text fill="#4682B4" font-family="sans-serif" font-size="13" lengthAdjust="spacing" textLength="23.1182" x="485.5" y="201.7705">wife</text></g><!--link sister to vegetarian--><g id="link_sister_vegetarian"><path d="M178.29,323.0822 C217.85,304.8622 304.74,264.8517 354.82,241.7917 " fill="none" id="sister-to-vegetarian" style="stroke:#A80036;stroke-width:1;"/><polygon fill="#A80036" points="360.27,239.2822,350.422,239.4131,355.7283,241.3735,353.768,246.6798,360.27,239.2822" style="stroke:#A80036;stroke-width:1;"/><text fill="#4682B4" font-family="sans-serif" font-size="13" lengthAdjust="spacing" textLength="31.0591" x="249" y="260.7705">sister</text></g><!--link brother to vegetarian--><g id="link_brother_vegetarian"><path d="M189.2,212.3922 C232.95,214.8122 308.4992,218.9993 354.3892,221.5493 " fill="none" id="brother-to-vegetarian" style="stroke:#A80036;stroke-width:1;"/><polygon fill="#A80036" points="360.38,221.8822,351.6158,217.389,355.3877,221.6048,351.1719,225.3767,360.38,221.8822" style="stroke:#A80036;stroke-width:1;"/><text fill="#4682B4" font-family="sans-serif" font-size="13" lengthAdjust="spacing" textLength="89.2925" x="220" y="210.7705">yo&#1075;nger brother</text></g><!--link nephew to sister--><g id="link_nephew_sister"><path d="M46.26,389.7122 C71.07,376.7822 108.6195,357.2157 133.2695,344.3657 " fill="none" id="nephew-to-sister" style="stroke:#A80036;stroke-width:1;"/><polygon fill="#A80036" points="138.59,341.5922,128.7603,342.2055,134.1563,343.9035,132.4583,349.2995,138.59,341.5922" style="stroke:#A80036;stroke-width:1;"/><text fill="#4682B4" font-family="sans-serif" font-size="13" lengthAdjust="spacing" textLength="20.96" x="77" y="358.7705">son</text></g><!--link nephew to he--><g id="link_nephew_he"><path d="M46.33,402.3522 C66.63,405.0222 99.51,409.1422 128,411.7422 C207.26,418.9822 294.0975,423.8614 346.4875,426.4914 " fill="none" id="nephew-to-he" style="stroke:#A80036;stroke-width:1;"/><polygon fill="#A80036" points="352.48,426.7922,343.6919,422.346,347.4863,426.5415,343.2908,430.3359,352.48,426.7922" style="stroke:#A80036;stroke-width:1;"/><text fill="#4682B4" font-family="sans-serif" font-size="13" lengthAdjust="spacing" textLength="20.96" x="148.5" y="407.7705">son</text></g><!--link sister to he--><g id="link_sister_he"><path d="M178.29,339.5122 C215.79,355.0222 295.1456,387.8489 346.5456,409.1089 " fill="none" id="sister-to-he" style="stroke:#A80036;stroke-width:1;"/><polygon fill="#A80036" points="352.09,411.4022,345.3022,404.266,347.4696,409.4911,342.2445,411.6586,352.09,411.4022" style="stroke:#A80036;stroke-width:1;"/><text fill="#4682B4" font-family="sans-serif" font-size="13" lengthAdjust="spacing" textLength="23.1182" x="253" y="353.7705">wife</text></g><!--link he to studio--><g id="link_he_studio"><path d="M437.68,449.2422 C478.01,469.0922 538.55,498.8722 577.02,517.7922 " fill="none" id="he-studio" style="stroke:#A80036;stroke-width:1;"/></g><!--link studio to J--><g id="link_studio_J"><path d="M648.78,515.2522 C660.51,507.6322 673.61,498.6622 685,489.7422 C707.43,472.1822 731.31,449.4222 745.95,434.9422 " fill="none" id="studio-J" style="stroke:#A80036;stroke-width:1;"/></g><!--link he to mstudio--><g id="link_he_mstudio"><path d="M437.68,404.7922 C476.78,382.3122 534.86,348.9322 573.43,326.7722 " fill="none" id="he-mstudio" style="stroke:#A80036;stroke-width:1;"/></g><!--link mstudio to M--><g id="link_mstudio_M"><path d="M614.5,331.9222 C614.5,347.7922 614.5,367.9322 614.5,385.7222 " fill="none" id="mstudio-M" style="stroke:#A80036;stroke-width:1;"/><text fill="#4682B4" font-family="sans-serif" font-size="13" lengthAdjust="spacing" textLength="35.4072" x="584.5" y="364.2705">owner</text></g><!--reverse link he to M--><g id="link_he_M"><path d="M443.68,428.7422 C493.02,428.7422 566.58,428.7422 599.02,428.7422 " fill="none" id="he-backto-M" style="stroke:#A80036;stroke-width:1;"/><polygon fill="#A80036" points="437.68,428.7422,446.68,432.7422,442.68,428.7422,446.68,424.7422,437.68,428.7422" style="stroke:#A80036;stroke-width:1;"/><text fill="#4682B4" font-family="sans-serif" font-size="13" lengthAdjust="spacing" textLength="32.519" x="481" y="424.7705">friend</text></g><!--link vegetarian to mstudio--><g id="link_vegetarian_mstudio"><path d="M429.51,236.0622 C464.9,249.0822 521.14,269.7722 562.14,284.8522 " fill="none" id="vegetarian-mstudio" style="stroke:#A80036;stroke-width:1;"/></g><!--link mstudio to J--><g id="link_mstudio_J"><path d="M646.5,328.8422 C677.18,353.6822 722.79,390.6122 745.73,409.1922 " fill="none" id="mstudio-J" style="stroke:#A80036;stroke-width:1;"/></g><!--link P to he--><g id="link_P_he"><path d="M173.82,543.2922 C208.62,525.1822 293.4071,481.071 346.9471,453.221 " fill="none" id="P-to-he" style="stroke:#A80036;stroke-width:1;"/><polygon fill="#A80036" points="352.27,450.4522,342.4397,451.0568,347.8342,452.7596,346.1315,458.1541,352.27,450.4522" style="stroke:#A80036;stroke-width:1;"/></g><!--SRC=[RL7BZjim3BppAxJ10hizA3xq9gJ9eQSi42305WLwvDgC9Qmj6H9TDz_L7-adbV83JZSzYU0CPyZHmsFYQqDdPAk-g8rbxf8fYeZ3jdPi-xS-KIo3P_AyBKDRX8RUFnTTWvxxjj7EbqrVKIeYNL9X2QjKjEXyuGJT03pC1BNw21Khv-jjfW0xRaXziwI-KqsCqQ67h729s98gBKOicM8207EAwgkbu6kZC2cFCIA7g7QxBWR6EdYNUBy77vWKXquPTSR8wYYZF_AOjZsDepzNhnloXorWPIcjzwkVKOExa8WUlRRNIJ69DKM0wHtvD-DcmPzky1kzgIjfwWQ7TTimIh_9SJPhpyMz-3Ny-UrhGHP63kl5wI5C2fuwIuDqvo8Bp8k8T_22FAcJM8Oc2xOOtm6UNxclNFWqNZUM4dGJIcGNlAIyEHmEcmnAQdS_iFe8EdhS_yhndxH6NivLWPHQBvumlz8nBqOsVKO_7PdM_Th_B2ZKIMW10PPAf4v6xCBWnx3o1NffNg8ZNwaFtx-eh1hZFfBpsUnsz4kEpkLy2i1V]--></g></svg>