<svg xmlns="http://www.w3.org/2000/svg" xmlns:xlink="http://www.w3.org/1999/xlink" contentStyleType="text/css" height="970px" preserveAspectRatio="none" style="width:1511px;height:970px;" version="1.1" viewBox="0 0 1511 970" width="1511px" zoomAndPan="magnify"><defs><filter height="300%" id="f3vjsbz243ely" width="300%" x="-1" y="-1"><feGaussianBlur result="blurOut" stdDeviation="2.0"/><feColorMatrix in="blurOut" result="blurOut2" type="matrix" values="0 0 0 0 0 0 0 0 0 0 0 0 0 0 0 0 0 0 .4 0"/><feOffset dx="4.0" dy="4.0" in="blurOut2" result="blurOut3"/><feBlend in="SourceGraphic" in2="blurOut3" mode="normal"/></filter></defs><g><text fill="#A52A2A" font-family="sans-serif" font-size="14" font-weight="bold" lengthAdjust="spacing" textLength="148.6201" x="674.645" y="25.1074">River East, River West</text><!--entity Sloan--><g id="elem_Sloan"><ellipse cx="1061.4033" cy="546.6211" fill="#FEFECE" filter="url(#f3vjsbz243ely)" rx="8" ry="8" style="stroke:#A80036;stroke-width:2.0;"/><path d="M1061.4033,554.6211 L1061.4033,581.6211 M1048.4033,562.6211 L1074.4033,562.6211 M1061.4033,581.6211 L1048.4033,596.6211 M1061.4033,581.6211 L1074.4033,596.6211 " fill="none" filter="url(#f3vjsbz243ely)" style="stroke:#A80036;stroke-width:2.0;"/><text fill="#A52A2A" font-family="sans-serif" font-size="14" lengthAdjust="spacing" textLength="35.8066" x="1043.5" y="618.7285">Sloan</text></g><!--entity Alva--><g id="elem_Alva"><ellipse cx="1061.5" cy="686.6211" fill="#FEFECE" filter="url(#f3vjsbz243ely)" rx="8" ry="8" style="stroke:#A80036;stroke-width:2.0;"/><path d="M1061.5,694.6211 L1061.5,721.6211 M1048.5,702.6211 L1074.5,702.6211 M1061.5,721.6211 L1048.5,736.6211 M1061.5,721.6211 L1074.5,736.6211 " fill="none" filter="url(#f3vjsbz243ely)" style="stroke:#A80036;stroke-width:2.0;"/><text fill="#A52A2A" font-family="sans-serif" font-size="14" lengthAdjust="spacing" textLength="27.2344" x="1047.8828" y="758.7285">Alva</text></g><!--entity Fang--><g id="elem_Fang"><ellipse cx="1061.686" cy="406.6211" fill="#FEFECE" filter="url(#f3vjsbz243ely)" rx="8" ry="8" style="stroke:#A80036;stroke-width:2.0;"/><path d="M1061.686,414.6211 L1061.686,441.6211 M1048.686,422.6211 L1074.686,422.6211 M1061.686,441.6211 L1048.686,456.6211 M1061.686,441.6211 L1074.686,456.6211 " fill="none" filter="url(#f3vjsbz243ely)" style="stroke:#A80036;stroke-width:2.0;"/><text fill="#A52A2A" font-family="sans-serif" font-size="14" lengthAdjust="spacing" textLength="51.3721" x="1036" y="478.7285">Lu Fang</text></g><!--entity Li--><g id="elem_Li"><ellipse cx="804.0137" cy="670.6211" fill="#FEFECE" filter="url(#f3vjsbz243ely)" rx="8" ry="8" style="stroke:#A80036;stroke-width:2.0;"/><path d="M804.0137,678.6211 L804.0137,705.6211 M791.0137,686.6211 L817.0137,686.6211 M804.0137,705.6211 L791.0137,720.6211 M804.0137,705.6211 L817.0137,720.6211 " fill="none" filter="url(#f3vjsbz243ely)" style="stroke:#A80036;stroke-width:2.0;"/><text fill="#A52A2A" font-family="sans-serif" font-size="14" lengthAdjust="spacing" textLength="56.0273" x="776" y="742.7285">Li Xinwei</text></g><g id="elem_&#1089;&#1074;&#1072;&#1076;&#1100;&#1073;&#1072;"><ellipse cx="1197.9204" cy="579.462" fill="#FEFECE" filter="url(#f3vjsbz243ely)" rx="49.9204" ry="16.3409" style="stroke:#A80036;stroke-width:1.0;"/><text fill="#A52A2A" font-family="sans-serif" font-size="14" lengthAdjust="spacing" textLength="53.4912" x="1168.1748" y="584.2657">&#1089;&#1074;&#1072;&#1076;&#1100;&#1073;&#1072;</text></g><!--entity Feng--><g id="elem_Feng"><ellipse cx="1488.9551" cy="485.6211" fill="#FEFECE" filter="url(#f3vjsbz243ely)" rx="8" ry="8" style="stroke:#A80036;stroke-width:2.0;"/><path d="M1488.9551,493.6211 L1488.9551,520.6211 M1475.9551,501.6211 L1501.9551,501.6211 M1488.9551,520.6211 L1475.9551,535.6211 M1488.9551,520.6211 L1501.9551,535.6211 " fill="none" filter="url(#f3vjsbz243ely)" style="stroke:#A80036;stroke-width:2.0;"/><text fill="#A52A2A" font-family="sans-serif" font-size="14" lengthAdjust="spacing" textLength="31.9102" x="1473" y="557.7285">Feng</text></g><!--entity Lu--><g id="elem_Lu"><ellipse cx="1489" cy="606.6211" fill="#FEFECE" filter="url(#f3vjsbz243ely)" rx="8" ry="8" style="stroke:#A80036;stroke-width:2.0;"/><path d="M1489,614.6211 L1489,641.6211 M1476,622.6211 L1502,622.6211 M1489,641.6211 L1476,656.6211 M1489,641.6211 L1502,656.6211 " fill="none" filter="url(#f3vjsbz243ely)" style="stroke:#A80036;stroke-width:2.0;"/><text fill="#A52A2A" font-family="sans-serif" font-size="14" lengthAdjust="spacing" textLength="15.5723" x="1481.2139" y="678.7285">Lu</text></g><g id="elem_&#1096;&#1082;&#1086;&#1083;&#1072;"><ellipse cx="519.6929" cy="765.8398" fill="#FEFECE" filter="url(#f3vjsbz243ely)" rx="40.6929" ry="16.2187" style="stroke:#A80036;stroke-width:1.0;"/><text fill="#A52A2A" font-family="sans-serif" font-size="14" lengthAdjust="spacing" textLength="41.0977" x="496.7907" y="770.462">&#1096;&#1082;&#1086;&#1083;&#1072;</text></g><!--entity Zhang--><g id="elem_Zhang"><ellipse cx="248.6411" cy="550.6211" fill="#FEFECE" filter="url(#f3vjsbz243ely)" rx="8" ry="8" style="stroke:#A80036;stroke-width:2.0;"/><path d="M248.6411,558.6211 L248.6411,585.6211 M235.6411,566.6211 L261.6411,566.6211 M248.6411,585.6211 L235.6411,600.6211 M248.6411,585.6211 L261.6411,600.6211 " fill="none" filter="url(#f3vjsbz243ely)" style="stroke:#A80036;stroke-width:2.0;"/><text fill="#A52A2A" font-family="sans-serif" font-size="14" lengthAdjust="spacing" textLength="76.2822" x="210.5" y="622.7285">Zhang Shao</text></g><!--entity Gao--><g id="elem_Gao"><ellipse cx="248.417" cy="671.6211" fill="#FEFECE" filter="url(#f3vjsbz243ely)" rx="8" ry="8" style="stroke:#A80036;stroke-width:2.0;"/><path d="M248.417,679.6211 L248.417,706.6211 M235.417,687.6211 L261.417,687.6211 M248.417,706.6211 L235.417,721.6211 M248.417,706.6211 L261.417,721.6211 " fill="none" filter="url(#f3vjsbz243ely)" style="stroke:#A80036;stroke-width:2.0;"/><text fill="#A52A2A" font-family="sans-serif" font-size="14" lengthAdjust="spacing" textLength="77.834" x="209.5" y="743.7285">Gao Xiaofan</text></g><!--entity Song--><g id="elem_Song"><ellipse cx="248.5688" cy="792.6211" fill="#FEFECE" filter="url(#f3vjsbz243ely)" rx="8" ry="8" style="stroke:#A80036;stroke-width:2.0;"/><path d="M248.5688,800.6211 L248.5688,827.6211 M235.5688,808.6211 L261.5688,808.6211 M248.5688,827.6211 L235.5688,842.6211 M248.5688,827.6211 L261.5688,842.6211 " fill="none" filter="url(#f3vjsbz243ely)" style="stroke:#A80036;stroke-width:2.0;"/><text fill="#A52A2A" font-family="sans-serif" font-size="14" lengthAdjust="spacing" textLength="59.1377" x="219" y="864.7285">Ms. Song</text></g><!--entity Liu--><g id="elem_Liu"><ellipse cx="804" cy="530.6211" fill="#FEFECE" filter="url(#f3vjsbz243ely)" rx="8" ry="8" style="stroke:#A80036;stroke-width:2.0;"/><path d="M804,538.6211 L804,565.6211 M791,546.6211 L817,546.6211 M804,565.6211 L791,580.6211 M804,565.6211 L817,580.6211 " fill="none" filter="url(#f3vjsbz243ely)" style="stroke:#A80036;stroke-width:2.0;"/><text fill="#A52A2A" font-family="sans-serif" font-size="14" lengthAdjust="spacing" textLength="18.6826" x="794.6587" y="602.7285">Liu</text></g><!--entity Teng--><g id="elem_Teng"><ellipse cx="44.5171" cy="720.6211" fill="#FEFECE" filter="url(#f3vjsbz243ely)" rx="8" ry="8" style="stroke:#A80036;stroke-width:2.0;"/><path d="M44.5171,728.6211 L44.5171,755.6211 M31.5171,736.6211 L57.5171,736.6211 M44.5171,755.6211 L31.5171,770.6211 M44.5171,755.6211 L57.5171,770.6211 " fill="none" filter="url(#f3vjsbz243ely)" style="stroke:#A80036;stroke-width:2.0;"/><text fill="#A52A2A" font-family="sans-serif" font-size="14" lengthAdjust="spacing" textLength="56.0342" x="16.5" y="792.7285">Teng Xin</text></g><!--entity Doggy--><g id="elem_Doggy"><ellipse cx="44.7344" cy="599.6211" fill="#FEFECE" filter="url(#f3vjsbz243ely)" rx="8" ry="8" style="stroke:#A80036;stroke-width:2.0;"/><path d="M44.7344,607.6211 L44.7344,634.6211 M31.7344,615.6211 L57.7344,615.6211 M44.7344,634.6211 L31.7344,649.6211 M44.7344,634.6211 L57.7344,649.6211 " fill="none" filter="url(#f3vjsbz243ely)" style="stroke:#A80036;stroke-width:2.0;"/><text fill="#A52A2A" font-family="sans-serif" font-size="14" lengthAdjust="spacing" textLength="40.4688" x="24.5" y="671.7285">Doggy</text></g><!--entity Ciyi--><g id="elem_Ciyi"><ellipse cx="1061.5" cy="266.6211" fill="#FEFECE" filter="url(#f3vjsbz243ely)" rx="8" ry="8" style="stroke:#A80036;stroke-width:2.0;"/><path d="M1061.5,274.6211 L1061.5,301.6211 M1048.5,282.6211 L1074.5,282.6211 M1061.5,301.6211 L1048.5,316.6211 M1061.5,301.6211 L1074.5,316.6211 " fill="none" filter="url(#f3vjsbz243ely)" style="stroke:#A80036;stroke-width:2.0;"/><text fill="#A52A2A" font-family="sans-serif" font-size="14" lengthAdjust="spacing" textLength="23.3311" x="1049.8345" y="338.7285">Ciyi</text></g><g id="elem_Qingdao"><ellipse cx="804.0991" cy="328.8409" fill="#FEFECE" filter="url(#f3vjsbz243ely)" rx="74.0991" ry="17.2198" style="stroke:#A80036;stroke-width:1.0;"/><text fill="#A52A2A" font-family="sans-serif" font-size="14" lengthAdjust="spacing" textLength="91.8545" x="755.1719" y="333.6446">Qingdao, 1985</text></g><!--entity Huang--><g id="elem_Huang"><ellipse cx="519.6274" cy="174.6211" fill="#FEFECE" filter="url(#f3vjsbz243ely)" rx="8" ry="8" style="stroke:#A80036;stroke-width:2.0;"/><path d="M519.6274,182.6211 L519.6274,209.6211 M506.6274,190.6211 L532.6274,190.6211 M519.6274,209.6211 L506.6274,224.6211 M519.6274,209.6211 L532.6274,224.6211 " fill="none" filter="url(#f3vjsbz243ely)" style="stroke:#A80036;stroke-width:2.0;"/><text fill="#A52A2A" font-family="sans-serif" font-size="14" lengthAdjust="spacing" textLength="41.2549" x="499" y="246.7285">Huang</text></g><!--entity Qi--><g id="elem_Qi"><ellipse cx="519.4551" cy="416.6211" fill="#FEFECE" filter="url(#f3vjsbz243ely)" rx="8" ry="8" style="stroke:#A80036;stroke-width:2.0;"/><path d="M519.4551,424.6211 L519.4551,451.6211 M506.4551,432.6211 L532.4551,432.6211 M519.4551,451.6211 L506.4551,466.6211 M519.4551,451.6211 L532.4551,466.6211 " fill="none" filter="url(#f3vjsbz243ely)" style="stroke:#A80036;stroke-width:2.0;"/><text fill="#A52A2A" font-family="sans-serif" font-size="14" lengthAdjust="spacing" textLength="45.9102" x="496.5" y="488.7285">Xiao Qi</text></g><!--entity Jim--><g id="elem_Jim"><ellipse cx="519.5" cy="295.6211" fill="#FEFECE" filter="url(#f3vjsbz243ely)" rx="8" ry="8" style="stroke:#A80036;stroke-width:2.0;"/><path d="M519.5,303.6211 L519.5,330.6211 M506.5,311.6211 L532.5,311.6211 M519.5,330.6211 L506.5,345.6211 M519.5,330.6211 L532.5,345.6211 " fill="none" filter="url(#f3vjsbz243ely)" style="stroke:#A80036;stroke-width:2.0;"/><text fill="#A52A2A" font-family="sans-serif" font-size="14" lengthAdjust="spacing" textLength="21.7725" x="508.6138" y="367.7285">Jim</text></g><!--entity Wang--><g id="elem_Wang"><ellipse cx="519.5791" cy="53.6211" fill="#FEFECE" filter="url(#f3vjsbz243ely)" rx="8" ry="8" style="stroke:#A80036;stroke-width:2.0;"/><path d="M519.5791,61.6211 L519.5791,88.6211 M506.5791,69.6211 L532.5791,69.6211 M519.5791,88.6211 L506.5791,103.6211 M519.5791,88.6211 L532.5791,103.6211 " fill="none" filter="url(#f3vjsbz243ely)" style="stroke:#A80036;stroke-width:2.0;"/><text fill="#A52A2A" font-family="sans-serif" font-size="14" lengthAdjust="spacing" textLength="80.1582" x="479.5" y="125.7285">Auntie Wang</text></g><!--entity Yu--><g id="elem_Yu"><ellipse cx="44.5273" cy="889.6211" fill="#FEFECE" filter="url(#f3vjsbz243ely)" rx="8" ry="8" style="stroke:#A80036;stroke-width:2.0;"/><path d="M44.5273,897.6211 L44.5273,924.6211 M31.5273,905.6211 L57.5273,905.6211 M44.5273,924.6211 L31.5273,939.6211 M44.5273,924.6211 L57.5273,939.6211 " fill="none" filter="url(#f3vjsbz243ely)" style="stroke:#A80036;stroke-width:2.0;"/><text fill="#A52A2A" font-family="sans-serif" font-size="14" lengthAdjust="spacing" textLength="77.0547" x="6" y="961.7285">Yu Chentian</text></g><!--link Sloan to Alva--><g id="link_Sloan_Alva"><path d="M1061.5,622.8711 C1061.5,639.9111 1061.5,653.4411 1061.5,670.4711 " fill="none" id="Sloan-to-Alva" style="stroke:#0000FF;stroke-width:1.0;"/><polygon fill="#0000FF" points="1061.5,676.4711,1065.5,667.4711,1061.5,671.4711,1057.5,667.4711,1061.5,676.4711" style="stroke:#0000FF;stroke-width:1.0;"/><text fill="#228B22" font-family="sans-serif" font-size="13" lengthAdjust="spacing" textLength="28.8945" x="1035" y="655.1494">&#1084;&#1072;&#1090;&#1100;</text></g><!--link Fang to Sloan--><g id="link_Fang_Sloan"><path d="M1061.5,482.8711 C1061.5,499.9111 1061.5,513.4411 1061.5,530.4711 " fill="none" id="Fang-to-Sloan" style="stroke:#0000FF;stroke-width:1.0;"/><polygon fill="#0000FF" points="1061.5,536.4711,1065.5,527.4711,1061.5,531.4711,1057.5,527.4711,1061.5,536.4711" style="stroke:#0000FF;stroke-width:1.0;"/><text fill="#228B22" font-family="sans-serif" font-size="13" lengthAdjust="spacing" textLength="36.8672" x="1031" y="515.1494">&#1078;&#1077;&#1085;&#1080;&#1093;</text></g><!--link Fang to ???????--><g id="link_Fang_&#1089;&#1074;&#1072;&#1076;&#1100;&#1073;&#1072;"><path d="M1087.17,465.3011 C1114.77,494.0311 1158.64,539.6911 1181.69,563.6911 " fill="none" id="Fang-&#1089;&#1074;&#1072;&#1076;&#1100;&#1073;&#1072;" style="stroke:#0000FF;stroke-width:1.0;"/></g><!--link Sloan to ???????--><g id="link_Sloan_&#1089;&#1074;&#1072;&#1076;&#1100;&#1073;&#1072;"><path d="M1079.53,579.6211 C1096.64,579.6211 1123.82,579.6211 1147.73,579.6211 " fill="none" id="Sloan-&#1089;&#1074;&#1072;&#1076;&#1100;&#1073;&#1072;" style="stroke:#0000FF;stroke-width:1.0;"/></g><!--link Alva to ???????--><g id="link_Alva_&#1089;&#1074;&#1072;&#1076;&#1100;&#1073;&#1072;"><path d="M1076.64,704.9011 C1102.13,678.3711 1155.59,622.7311 1181.82,595.4211 " fill="none" id="Alva-&#1089;&#1074;&#1072;&#1076;&#1100;&#1073;&#1072;" style="stroke:#0000FF;stroke-width:1.0;"/></g><!--link ??????? to Feng--><g id="link_&#1089;&#1074;&#1072;&#1076;&#1100;&#1073;&#1072;_Feng"><path d="M1235.8,568.6511 C1249.04,564.8911 1264.13,560.8311 1278,557.6211 C1350.43,540.8411 1438.22,526.4211 1472.88,520.9611 " fill="none" id="&#1089;&#1074;&#1072;&#1076;&#1100;&#1073;&#1072;-Feng" style="stroke:#0000FF;stroke-width:1.0;"/><text fill="#228B22" font-family="sans-serif" font-size="13" lengthAdjust="spacing" textLength="31.1987" x="1345" y="521.6494">&#1075;&#1086;&#1089;&#1090;&#1100;</text></g><!--link ??????? to Lu--><g id="link_&#1089;&#1074;&#1072;&#1076;&#1100;&#1073;&#1072;_Lu"><path d="M1221.11,594.5011 C1236.4,603.9911 1257.59,615.5911 1278,621.6211 C1349.24,642.6511 1439.55,641.6511 1473.88,640.3311 " fill="none" id="&#1089;&#1074;&#1072;&#1076;&#1100;&#1073;&#1072;-Lu" style="stroke:#0000FF;stroke-width:1.0;"/><text fill="#228B22" font-family="sans-serif" font-size="13" lengthAdjust="spacing" textLength="31.1987" x="1345.0815" y="576.6494">&#1075;&#1086;&#1089;&#1090;&#1100;</text><path d="M1283,585.9121 L1283,612.9121 L1434,612.9121 L1434,595.9121 L1424,585.9121 L1283,585.9121 " fill="#FBFB77" filter="url(#f3vjsbz243ely)" style="stroke:#A80036;stroke-width:1.0;"/><path d="M1424,585.9121 L1424,595.9121 L1434,595.9121 L1424,585.9121 " fill="#FBFB77" style="stroke:#A80036;stroke-width:1.0;"/><text fill="#A52A2A" font-family="sans-serif" font-size="13" lengthAdjust="spacing" textLength="130.3618" x="1289" y="604.9404">&#1080;&#1083;&#1080; &#1101;&#1090;&#1086; &#1089;&#1072;&#1084; Lu Fang?</text></g><!--link Li to Alva--><g id="link_Li_Alva"><path d="M832.34,705.3311 C886.41,708.7211 999.3118,715.7856 1040.2918,718.3556 " fill="none" id="Li-to-Alva" style="stroke:#0000FF;stroke-width:1.0;"/><polygon fill="#0000FF" points="1046.28,718.7311,1037.548,714.1756,1041.2898,718.4181,1037.0473,722.1599,1046.28,718.7311" style="stroke:#0000FF;stroke-width:1.0;"/><text fill="#228B22" font-family="sans-serif" font-size="13" lengthAdjust="spacing" textLength="96.7256" x="909" y="705.6494">&#1083;&#1091;&#1095;&#1096;&#1072;&#1103; &#1087;&#1086;&#1076;&#1088;&#1091;&#1075;&#1072;</text></g><!--link ????? to Alva--><g id="link_&#1096;&#1082;&#1086;&#1083;&#1072;_Alva"><path d="M556.07,772.5011 C620.69,783.8711 761.45,803.4611 878,783.6211 C943.21,772.5211 1016.13,740.6011 1046.28,726.4811 " fill="none" id="&#1096;&#1082;&#1086;&#1083;&#1072;-Alva" style="stroke:#0000FF;stroke-width:1.0;"/><text fill="#228B22" font-family="sans-serif" font-size="13" lengthAdjust="spacing" textLength="125.563" x="741.5" y="779.6494">&#1086;&#1090;&#1074;&#1077;&#1090;&#1089;&#1090;&#1074;&#1077;&#1085;&#1085;&#1072;&#1103; &#1079;&#1072; &#1044;&#1047;</text></g><!--link ????? to Li--><g id="link_&#1096;&#1082;&#1086;&#1083;&#1072;_Li"><path d="M555.14,758.0211 C612.01,745.5411 724.01,720.9611 775.69,709.6111 " fill="none" id="&#1096;&#1082;&#1086;&#1083;&#1072;-Li" style="stroke:#0000FF;stroke-width:1.0;"/></g><!--link Zhang to ?????--><g id="link_Zhang_&#1096;&#1082;&#1086;&#1083;&#1072;"><path d="M286.55,602.8311 C327.69,624.8111 395.35,662.9211 449,702.6211 C469.16,717.5411 490.22,737.3111 503.79,750.6911 " fill="none" id="Zhang-&#1096;&#1082;&#1086;&#1083;&#1072;" style="stroke:#0000FF;stroke-width:1.0;"/><text fill="#228B22" font-family="sans-serif" font-size="13" lengthAdjust="spacing" textLength="91.8442" x="357" y="638.6494">&#1086;&#1076;&#1085;&#1086;&#1082;&#1083;&#1072;&#1089;&#1089;&#1085;&#1080;&#1094;&#1072;</text></g><!--link Liu to Li--><g id="link_Liu_Li"><path d="M804,606.8711 C804,623.9111 804,637.4411 804,654.4711 " fill="none" id="Liu-to-Li" style="stroke:#0000FF;stroke-width:1.0;"/><polygon fill="#0000FF" points="804,660.4711,808,651.4711,804,655.4711,800,651.4711,804,660.4711" style="stroke:#0000FF;stroke-width:1.0;"/><text fill="#228B22" font-family="sans-serif" font-size="13" lengthAdjust="spacing" textLength="59.9663" x="762" y="639.1494">superviser</text></g><!--link Song to ?????--><g id="link_Song_&#1096;&#1082;&#1086;&#1083;&#1072;"><path d="M278.1,823.9411 C317.32,821.0811 389.67,813.8111 449,796.6211 C464.61,792.1011 481.26,784.7711 494.35,778.3711 " fill="none" id="Song-&#1096;&#1082;&#1086;&#1083;&#1072;" style="stroke:#0000FF;stroke-width:1.0;"/><text fill="#228B22" font-family="sans-serif" font-size="13" lengthAdjust="spacing" textLength="77.1938" x="364" y="792.6494">&#1091;&#1095;&#1080;&#1090;&#1077;&#1083;&#1100;&#1085;&#1080;&#1094;&#1072;</text></g><!--link Gao to ?????--><g id="link_Gao_&#1096;&#1082;&#1086;&#1083;&#1072;"><path d="M287.76,713.3011 C340.12,725.1711 433.35,746.3111 483.79,757.7511 " fill="none" id="Gao-&#1096;&#1082;&#1086;&#1083;&#1072;" style="stroke:#0000FF;stroke-width:1.0;"/><text fill="#228B22" font-family="sans-serif" font-size="13" lengthAdjust="spacing" textLength="40.6313" x="382.5" y="725.6494">&#1091;&#1095;&#1077;&#1085;&#1080;&#1082;</text></g><!--link Teng to Gao--><g id="link_Teng_Gao"><path d="M72.74,747.0111 C107.96,738.4711 163.6391,724.9657 203.4991,715.2957 " fill="none" id="Teng-to-Gao" style="stroke:#0000FF;stroke-width:1.0;"/><polygon fill="#0000FF" points="209.33,713.8811,199.6407,712.1157,204.4709,715.0599,201.5267,719.8902,209.33,713.8811" style="stroke:#0000FF;stroke-width:1.0;"/><text fill="#228B22" font-family="sans-serif" font-size="13" lengthAdjust="spacing" textLength="26.0571" x="114" y="725.6494">&#1076;&#1088;&#1091;&#1075;</text></g><!--link Doggy to Gao--><g id="link_Doggy_Gao"><path d="M64.5,639.3911 C97.5,651.1611 160.3485,673.556 203.5385,688.956 " fill="none" id="Doggy-to-Gao" style="stroke:#0000FF;stroke-width:1.0;"/><polygon fill="#0000FF" points="209.19,690.9711,202.0562,684.1808,204.4804,689.2918,199.3694,691.7161,209.19,690.9711" style="stroke:#0000FF;stroke-width:1.0;"/><text fill="#228B22" font-family="sans-serif" font-size="13" lengthAdjust="spacing" textLength="26.0571" x="114" y="653.6494">&#1076;&#1088;&#1091;&#1075;</text></g><!--link Ciyi to Fang--><g id="link_Ciyi_Fang"><path d="M1061.5,342.8711 C1061.5,359.9111 1061.5,371.4411 1061.5,388.4711 " fill="none" id="Ciyi-to-Fang" style="stroke:#0000FF;stroke-width:1.0;"/><polygon fill="#0000FF" points="1061.5,396.4711,1064.5,388.4711,1058.5,388.4711,1061.5,396.4711" style="stroke:#0000FF;stroke-width:1.0;"/><text fill="#228B22" font-family="sans-serif" font-size="13" lengthAdjust="spacing" textLength="30.3354" x="1034" y="375.1494">&#1078;&#1077;&#1085;&#1072;</text></g><!--link Qingdao to Ciyi--><g id="link_Qingdao_Ciyi"><path d="M870.8,321.1511 C930.24,314.4111 1013.28,304.9811 1046.22,301.2411 " fill="none" id="Qingdao-Ciyi" style="stroke:#0000FF;stroke-width:1.0;"/></g><!--link Qingdao to Fang--><g id="link_Qingdao_Fang"><path d="M839.46,343.5911 C891.76,366.3111 989.95,408.9711 1035.77,428.8811 " fill="none" id="Qingdao-Fang" style="stroke:#0000FF;stroke-width:1.0;"/></g><!--link Qingdao to Sloan--><g id="link_Qingdao_Sloan"><path d="M822.16,345.4811 C868.71,391.2011 996.96,517.2011 1043.41,562.8311 " fill="none" id="Qingdao-Sloan" style="stroke:#0000FF;stroke-width:1.0;"/></g><!--link Huang to Qingdao--><g id="link_Huang_Qingdao"><path d="M540.36,216.1311 C587.84,236.4611 708.37,288.0911 768.2,313.7211 " fill="none" id="Huang-Qingdao" style="stroke:#0000FF;stroke-width:1.0;"/><text fill="#228B22" font-family="sans-serif" font-size="13" lengthAdjust="spacing" textLength="105.4092" x="592.5" y="235.6494">&#1087;&#1088;&#1086;&#1076;&#1072;&#1074;&#1077;&#1094; &#1084;&#1086;&#1083;&#1086;&#1082;&#1072;</text></g><!--link Qi to Qingdao--><g id="link_Qi_Qingdao"><path d="M542.63,439.1911 C556.24,432.8311 574.07,424.6111 590,417.6211 C651.65,390.5611 724.12,360.6811 766.65,343.3511 " fill="none" id="Qi-Qingdao" style="stroke:#0000FF;stroke-width:1.0;"/></g><!--link Qi to Fang--><g id="link_Qi_Fang"><path d="M542.68,449.2111 C629.31,447.6111 938.591,441.8824 1029.691,440.1924 " fill="none" id="Qi-to-Fang" style="stroke:#0000FF;stroke-width:1.0;"/><polygon fill="#0000FF" points="1035.69,440.0811,1026.6174,436.2487,1030.6909,440.1738,1026.7657,444.2473,1035.69,440.0811" style="stroke:#0000FF;stroke-width:1.0;"/><text fill="#228B22" font-family="sans-serif" font-size="13" lengthAdjust="spacing" textLength="109.5986" x="749.5" y="438.6494">&#1074;&#1099;&#1077;&#1079;&#1076;&#1085;&#1086;&#1081; &#1082;&#1086;&#1083;&#1083;&#1077;&#1075;&#1072;</text></g><!--link Wang to Qingdao--><g id="link_Wang_Qingdao"><path d="M559.54,110.2711 C597.25,133.9711 655.11,172.5811 700,212.6211 C735.78,244.5311 771.6,288.1511 790.1,311.7611 " fill="none" id="Wang-Qingdao" style="stroke:#0000FF;stroke-width:1.0;"/><text fill="#228B22" font-family="sans-serif" font-size="13" lengthAdjust="spacing" textLength="108.272" x="591" y="126.6494">&#1089;&#1086;&#1089;&#1077;&#1076;&#1082;&#1072; &#1089; 1 &#1101;&#1090;&#1072;&#1078;&#1072;</text></g><!--link Yu to ?????--><g id="link_Yu_&#1096;&#1082;&#1086;&#1083;&#1072;"><path d="M83.46,926.5111 C138.53,930.7911 243.07,933.7511 326,905.6211 C402.7,879.6011 474.79,811.3611 504.37,780.8011 " fill="none" id="Yu-&#1096;&#1082;&#1086;&#1083;&#1072;" style="stroke:#0000FF;stroke-width:1.0;"/><text fill="#228B22" font-family="sans-serif" font-size="13" lengthAdjust="spacing" textLength="153.0483" x="172" y="901.6494">&#1080;&#1079; &#1087;&#1072;&#1088;&#1072;&#1083;&#1083;&#1077;&#1083;&#1100;&#1085;&#1086;&#1075;&#1086; &#1082;&#1083;&#1072;&#1089;&#1089;&#1072;</text></g><!--link Jim to Qingdao--><g id="link_Jim_Qingdao"><path d="M534.51,328.6211 C569.58,328.6211 663.12,328.6211 729.92,328.6211 " fill="none" id="Jim-Qingdao" style="stroke:#0000FF;stroke-width:1.0;"/><text fill="#228B22" font-family="sans-serif" font-size="13" lengthAdjust="spacing" textLength="49.8037" x="620.5" y="324.6494">&#1087;&#1080;&#1074;&#1086;&#1074;&#1072;&#1088;</text></g><!--SRC=[TLJDJXH14BxtKrJYHHBMX8E9pW5ZK3G63uh9YhU6xPtjC7IJcHu8DnOYaeZnOk9hZEiYAmlBA_IyaL_rpC9aMKzJNJzV_NnLawYk8sSfrN7FKKUdQijfQqIshGsbDbD1sfMftA5DkRKTfpOtdIsRs9HSAaq6apAkuTLHNPadhckDgzmURAPstpGyP0h5r9RaQjRK2EtQL6KkJfKoGZZj4aNlzPvAwQNCt68jj-4YHBIUM6aY2C-JFSdVjPnMfOaZabaGMANfepRxIWVbcXOYH55hcJYA8l9NlYYFoZCX1CUmfNA1wOy_zzT-L7uMjzOMFIpxVk0BFopF_2zVB4mHvrX2Yda68MPLx1QjAguUYN_xITaFLStrMyjdl8nrYgoXH9jjjepys8-e_5OU-Ga1eV1NL4_d6VU2iRGQ8nYNn-MNyXI3-4x-na-GxR0y1dx1XPxwIwZ6TV9fp0JO0t-EzFrAmgIkAuGBNv3_uN_UY-NvHvzwFCZrdhI1a_24-fMqe4hQBZXbFTxGliqUqRgjEMKXS9hNREP2L6XXnerSN9yVefu9TD2WndvWyeHRGY3JZ254bEMxAjtJcKgn6dOk50y7eKTeSGmMRc6uulzuXxNnboZs0oZb5GmLyqD4BsmS7uHta8G8Fim78wBqUleYcESPWBkY3wgTPe7twPqsSKVQHLfw-kJn0bjgZH3iWeQN0_ztUuqMQXTk8-0qtk606k-mvKZyEf-UM914nAGXLrIb5D4RlHDaV76QkN5QKNiQqmuX6pcjzF0NqJNN6o1I13ZED4sAGc_Amq1a4LRjX8-L1ysi5YYkuHrUTnqEog_eyQBUWRzKCpI6ahUwVIyLzWF71FEGiV6afUf-2amBaqB9hJbRDl8NV345wYng_6f79doTrDW-O60Yi_q1O03V0IE8Vm00]--></g></svg>