<svg xmlns="http://www.w3.org/2000/svg" xmlns:xlink="http://www.w3.org/1999/xlink" contentStyleType="text/css" height="1168px" preserveAspectRatio="none" style="width:1621px;height:1168px;" version="1.1" viewBox="0 0 1621 1168" width="1621px" zoomAndPan="magnify"><defs><filter height="300%" id="f1icfzwg4qi5u9" width="300%" x="-1" y="-1"><feGaussianBlur result="blurOut" stdDeviation="2.0"/><feColorMatrix in="blurOut" result="blurOut2" type="matrix" values="0 0 0 0 0 0 0 0 0 0 0 0 0 0 0 0 0 0 .4 0"/><feOffset dx="4.0" dy="4.0" in="blurOut2" result="blurOut3"/><feBlend in="SourceGraphic" in2="blurOut3" mode="normal"/></filter></defs><g><text fill="#A52A2A" font-family="sans-serif" font-size="14" font-weight="bold" lengthAdjust="spacing" textLength="148.6201" x="729.25" y="25.1074">River East, River West</text><!--entity Sloan--><g id="elem_Sloan"><ellipse cx="1061.4033" cy="546.6211" fill="#FEFECE" filter="url(#f1icfzwg4qi5u9)" rx="8" ry="8" style="stroke:#A80036;stroke-width:2.0;"/><path d="M1061.4033,554.6211 L1061.4033,581.6211 M1048.4033,562.6211 L1074.4033,562.6211 M1061.4033,581.6211 L1048.4033,596.6211 M1061.4033,581.6211 L1074.4033,596.6211 " fill="none" filter="url(#f1icfzwg4qi5u9)" style="stroke:#A80036;stroke-width:2.0;"/><text fill="#A52A2A" font-family="sans-serif" font-size="14" lengthAdjust="spacing" textLength="35.8066" x="1043.5" y="618.7285">Sloan</text></g><!--entity Alva--><g id="elem_Alva"><ellipse cx="1061.5" cy="686.6211" fill="#FEFECE" filter="url(#f1icfzwg4qi5u9)" rx="8" ry="8" style="stroke:#A80036;stroke-width:2.0;"/><path d="M1061.5,694.6211 L1061.5,721.6211 M1048.5,702.6211 L1074.5,702.6211 M1061.5,721.6211 L1048.5,736.6211 M1061.5,721.6211 L1074.5,736.6211 " fill="none" filter="url(#f1icfzwg4qi5u9)" style="stroke:#A80036;stroke-width:2.0;"/><text fill="#A52A2A" font-family="sans-serif" font-size="14" lengthAdjust="spacing" textLength="27.2344" x="1047.8828" y="758.7285">Alva</text></g><!--entity Fang--><g id="elem_Fang"><ellipse cx="1061.686" cy="406.6211" fill="#FEFECE" filter="url(#f1icfzwg4qi5u9)" rx="8" ry="8" style="stroke:#A80036;stroke-width:2.0;"/><path d="M1061.686,414.6211 L1061.686,441.6211 M1048.686,422.6211 L1074.686,422.6211 M1061.686,441.6211 L1048.686,456.6211 M1061.686,441.6211 L1074.686,456.6211 " fill="none" filter="url(#f1icfzwg4qi5u9)" style="stroke:#A80036;stroke-width:2.0;"/><text fill="#A52A2A" font-family="sans-serif" font-size="14" lengthAdjust="spacing" textLength="51.3721" x="1036" y="478.7285">Lu Fang</text></g><!--entity Li--><g id="elem_Li"><ellipse cx="804.0137" cy="670.6211" fill="#FEFECE" filter="url(#f1icfzwg4qi5u9)" rx="8" ry="8" style="stroke:#A80036;stroke-width:2.0;"/><path d="M804.0137,678.6211 L804.0137,705.6211 M791.0137,686.6211 L817.0137,686.6211 M804.0137,705.6211 L791.0137,720.6211 M804.0137,705.6211 L817.0137,720.6211 " fill="none" filter="url(#f1icfzwg4qi5u9)" style="stroke:#A80036;stroke-width:2.0;"/><text fill="#A52A2A" font-family="sans-serif" font-size="14" lengthAdjust="spacing" textLength="56.0273" x="776" y="742.7285">Li Xinwei</text></g><g id="elem_&#1089;&#1074;&#1072;&#1076;&#1100;&#1073;&#1072;"><ellipse cx="1242.9204" cy="478.462" fill="#FEFECE" filter="url(#f1icfzwg4qi5u9)" rx="49.9204" ry="16.3409" style="stroke:#A80036;stroke-width:1.0;"/><text fill="#A52A2A" font-family="sans-serif" font-size="14" lengthAdjust="spacing" textLength="53.4912" x="1213.1748" y="483.2657">&#1089;&#1074;&#1072;&#1076;&#1100;&#1073;&#1072;</text></g><!--entity Feng--><g id="elem_Feng"><ellipse cx="1576.4551" cy="445.6211" fill="#FEFECE" filter="url(#f1icfzwg4qi5u9)" rx="8" ry="8" style="stroke:#A80036;stroke-width:2.0;"/><path d="M1576.4551,453.6211 L1576.4551,480.6211 M1563.4551,461.6211 L1589.4551,461.6211 M1576.4551,480.6211 L1563.4551,495.6211 M1576.4551,480.6211 L1589.4551,495.6211 " fill="none" filter="url(#f1icfzwg4qi5u9)" style="stroke:#A80036;stroke-width:2.0;"/><text fill="#A52A2A" font-family="sans-serif" font-size="14" lengthAdjust="spacing" textLength="31.9102" x="1560.5" y="517.7285">Feng</text></g><!--entity Lu--><g id="elem_Lu"><ellipse cx="1576.5" cy="324.6211" fill="#FEFECE" filter="url(#f1icfzwg4qi5u9)" rx="8" ry="8" style="stroke:#A80036;stroke-width:2.0;"/><path d="M1576.5,332.6211 L1576.5,359.6211 M1563.5,340.6211 L1589.5,340.6211 M1576.5,359.6211 L1563.5,374.6211 M1576.5,359.6211 L1589.5,374.6211 " fill="none" filter="url(#f1icfzwg4qi5u9)" style="stroke:#A80036;stroke-width:2.0;"/><text fill="#A52A2A" font-family="sans-serif" font-size="14" lengthAdjust="spacing" textLength="15.5723" x="1568.7139" y="396.7285">Lu</text></g><g id="elem_&#1096;&#1082;&#1086;&#1083;&#1072;"><ellipse cx="519.6929" cy="765.8398" fill="#FEFECE" filter="url(#f1icfzwg4qi5u9)" rx="40.6929" ry="16.2187" style="stroke:#A80036;stroke-width:1.0;"/><text fill="#A52A2A" font-family="sans-serif" font-size="14" lengthAdjust="spacing" textLength="41.0977" x="496.7907" y="770.462">&#1096;&#1082;&#1086;&#1083;&#1072;</text></g><!--entity Zhang--><g id="elem_Zhang"><ellipse cx="248.6411" cy="550.6211" fill="#FEFECE" filter="url(#f1icfzwg4qi5u9)" rx="8" ry="8" style="stroke:#A80036;stroke-width:2.0;"/><path d="M248.6411,558.6211 L248.6411,585.6211 M235.6411,566.6211 L261.6411,566.6211 M248.6411,585.6211 L235.6411,600.6211 M248.6411,585.6211 L261.6411,600.6211 " fill="none" filter="url(#f1icfzwg4qi5u9)" style="stroke:#A80036;stroke-width:2.0;"/><text fill="#A52A2A" font-family="sans-serif" font-size="14" lengthAdjust="spacing" textLength="76.2822" x="210.5" y="622.7285">Zhang Shao</text></g><!--entity Gao--><g id="elem_Gao"><ellipse cx="248.417" cy="671.6211" fill="#FEFECE" filter="url(#f1icfzwg4qi5u9)" rx="8" ry="8" style="stroke:#A80036;stroke-width:2.0;"/><path d="M248.417,679.6211 L248.417,706.6211 M235.417,687.6211 L261.417,687.6211 M248.417,706.6211 L235.417,721.6211 M248.417,706.6211 L261.417,721.6211 " fill="none" filter="url(#f1icfzwg4qi5u9)" style="stroke:#A80036;stroke-width:2.0;"/><text fill="#A52A2A" font-family="sans-serif" font-size="14" lengthAdjust="spacing" textLength="77.834" x="209.5" y="743.7285">Gao Xiaofan</text></g><!--entity Song--><g id="elem_Song"><ellipse cx="248.5688" cy="792.6211" fill="#FEFECE" filter="url(#f1icfzwg4qi5u9)" rx="8" ry="8" style="stroke:#A80036;stroke-width:2.0;"/><path d="M248.5688,800.6211 L248.5688,827.6211 M235.5688,808.6211 L261.5688,808.6211 M248.5688,827.6211 L235.5688,842.6211 M248.5688,827.6211 L261.5688,842.6211 " fill="none" filter="url(#f1icfzwg4qi5u9)" style="stroke:#A80036;stroke-width:2.0;"/><text fill="#A52A2A" font-family="sans-serif" font-size="14" lengthAdjust="spacing" textLength="59.1377" x="219" y="864.7285">Ms. Song</text></g><!--entity Liu--><g id="elem_Liu"><ellipse cx="804" cy="530.6211" fill="#FEFECE" filter="url(#f1icfzwg4qi5u9)" rx="8" ry="8" style="stroke:#A80036;stroke-width:2.0;"/><path d="M804,538.6211 L804,565.6211 M791,546.6211 L817,546.6211 M804,565.6211 L791,580.6211 M804,565.6211 L817,580.6211 " fill="none" filter="url(#f1icfzwg4qi5u9)" style="stroke:#A80036;stroke-width:2.0;"/><text fill="#A52A2A" font-family="sans-serif" font-size="14" lengthAdjust="spacing" textLength="18.6826" x="794.6587" y="602.7285">Liu</text></g><!--entity Teng--><g id="elem_Teng"><ellipse cx="44.5171" cy="720.6211" fill="#FEFECE" filter="url(#f1icfzwg4qi5u9)" rx="8" ry="8" style="stroke:#A80036;stroke-width:2.0;"/><path d="M44.5171,728.6211 L44.5171,755.6211 M31.5171,736.6211 L57.5171,736.6211 M44.5171,755.6211 L31.5171,770.6211 M44.5171,755.6211 L57.5171,770.6211 " fill="none" filter="url(#f1icfzwg4qi5u9)" style="stroke:#A80036;stroke-width:2.0;"/><text fill="#A52A2A" font-family="sans-serif" font-size="14" lengthAdjust="spacing" textLength="56.0342" x="16.5" y="792.7285">Teng Xin</text></g><!--entity Doggy--><g id="elem_Doggy"><ellipse cx="44.7344" cy="599.6211" fill="#FEFECE" filter="url(#f1icfzwg4qi5u9)" rx="8" ry="8" style="stroke:#A80036;stroke-width:2.0;"/><path d="M44.7344,607.6211 L44.7344,634.6211 M31.7344,615.6211 L57.7344,615.6211 M44.7344,634.6211 L31.7344,649.6211 M44.7344,634.6211 L57.7344,649.6211 " fill="none" filter="url(#f1icfzwg4qi5u9)" style="stroke:#A80036;stroke-width:2.0;"/><text fill="#A52A2A" font-family="sans-serif" font-size="14" lengthAdjust="spacing" textLength="40.4688" x="24.5" y="671.7285">Doggy</text></g><!--entity Ciyi--><g id="elem_Ciyi"><ellipse cx="1061.5" cy="266.6211" fill="#FEFECE" filter="url(#f1icfzwg4qi5u9)" rx="8" ry="8" style="stroke:#A80036;stroke-width:2.0;"/><path d="M1061.5,274.6211 L1061.5,301.6211 M1048.5,282.6211 L1074.5,282.6211 M1061.5,301.6211 L1048.5,316.6211 M1061.5,301.6211 L1074.5,316.6211 " fill="none" filter="url(#f1icfzwg4qi5u9)" style="stroke:#A80036;stroke-width:2.0;"/><text fill="#A52A2A" font-family="sans-serif" font-size="14" lengthAdjust="spacing" textLength="23.3311" x="1049.8345" y="338.7285">Ciyi</text></g><g id="elem_Qingdao"><ellipse cx="804.0991" cy="328.8409" fill="#FEFECE" filter="url(#f1icfzwg4qi5u9)" rx="74.0991" ry="17.2198" style="stroke:#A80036;stroke-width:1.0;"/><text fill="#A52A2A" font-family="sans-serif" font-size="14" lengthAdjust="spacing" textLength="91.8545" x="755.1719" y="333.6446">Qingdao, 1985</text></g><!--entity Huang--><g id="elem_Huang"><ellipse cx="519.6274" cy="174.6211" fill="#FEFECE" filter="url(#f1icfzwg4qi5u9)" rx="8" ry="8" style="stroke:#A80036;stroke-width:2.0;"/><path d="M519.6274,182.6211 L519.6274,209.6211 M506.6274,190.6211 L532.6274,190.6211 M519.6274,209.6211 L506.6274,224.6211 M519.6274,209.6211 L532.6274,224.6211 " fill="none" filter="url(#f1icfzwg4qi5u9)" style="stroke:#A80036;stroke-width:2.0;"/><text fill="#A52A2A" font-family="sans-serif" font-size="14" lengthAdjust="spacing" textLength="41.2549" x="499" y="246.7285">Huang</text></g><!--entity Qi--><g id="elem_Qi"><ellipse cx="519.4551" cy="416.6211" fill="#FEFECE" filter="url(#f1icfzwg4qi5u9)" rx="8" ry="8" style="stroke:#A80036;stroke-width:2.0;"/><path d="M519.4551,424.6211 L519.4551,451.6211 M506.4551,432.6211 L532.4551,432.6211 M519.4551,451.6211 L506.4551,466.6211 M519.4551,451.6211 L532.4551,466.6211 " fill="none" filter="url(#f1icfzwg4qi5u9)" style="stroke:#A80036;stroke-width:2.0;"/><text fill="#A52A2A" font-family="sans-serif" font-size="14" lengthAdjust="spacing" textLength="45.9102" x="496.5" y="488.7285">Xiao Qi</text></g><!--entity Jim--><g id="elem_Jim"><ellipse cx="519.5" cy="295.6211" fill="#FEFECE" filter="url(#f1icfzwg4qi5u9)" rx="8" ry="8" style="stroke:#A80036;stroke-width:2.0;"/><path d="M519.5,303.6211 L519.5,330.6211 M506.5,311.6211 L532.5,311.6211 M519.5,330.6211 L506.5,345.6211 M519.5,330.6211 L532.5,345.6211 " fill="none" filter="url(#f1icfzwg4qi5u9)" style="stroke:#A80036;stroke-width:2.0;"/><text fill="#A52A2A" font-family="sans-serif" font-size="14" lengthAdjust="spacing" textLength="21.7725" x="508.6138" y="367.7285">Jim</text></g><!--entity Wang--><g id="elem_Wang"><ellipse cx="519.5791" cy="53.6211" fill="#FEFECE" filter="url(#f1icfzwg4qi5u9)" rx="8" ry="8" style="stroke:#A80036;stroke-width:2.0;"/><path d="M519.5791,61.6211 L519.5791,88.6211 M506.5791,69.6211 L532.5791,69.6211 M519.5791,88.6211 L506.5791,103.6211 M519.5791,88.6211 L532.5791,103.6211 " fill="none" filter="url(#f1icfzwg4qi5u9)" style="stroke:#A80036;stroke-width:2.0;"/><text fill="#A52A2A" font-family="sans-serif" font-size="14" lengthAdjust="spacing" textLength="80.1582" x="479.5" y="125.7285">Auntie Wang</text></g><!--entity Yu--><g id="elem_Yu"><ellipse cx="44.5273" cy="889.6211" fill="#FEFECE" filter="url(#f1icfzwg4qi5u9)" rx="8" ry="8" style="stroke:#A80036;stroke-width:2.0;"/><path d="M44.5273,897.6211 L44.5273,924.6211 M31.5273,905.6211 L57.5273,905.6211 M44.5273,924.6211 L31.5273,939.6211 M44.5273,924.6211 L57.5273,939.6211 " fill="none" filter="url(#f1icfzwg4qi5u9)" style="stroke:#A80036;stroke-width:2.0;"/><text fill="#A52A2A" font-family="sans-serif" font-size="14" lengthAdjust="spacing" textLength="77.0547" x="6" y="961.7285">Yu Chentian</text></g><!--entity Lu Min--><g id="elem_Lu Min"><ellipse cx="1243.0103" cy="330.6211" fill="#FEFECE" filter="url(#f1icfzwg4qi5u9)" rx="8" ry="8" style="stroke:#A80036;stroke-width:2.0;"/><path d="M1243.0103,338.6211 L1243.0103,365.6211 M1230.0103,346.6211 L1256.0103,346.6211 M1243.0103,365.6211 L1230.0103,380.6211 M1243.0103,365.6211 L1256.0103,380.6211 " fill="none" filter="url(#f1icfzwg4qi5u9)" style="stroke:#A80036;stroke-width:2.0;"/><text fill="#A52A2A" font-family="sans-serif" font-size="14" lengthAdjust="spacing" textLength="42.0205" x="1222" y="402.7285">Lu Min</text></g><g id="elem_new_school"><ellipse cx="1243.2295" cy="729.767" fill="#FEFECE" filter="url(#f1icfzwg4qi5u9)" rx="71.2295" ry="16.6459" style="stroke:#A80036;stroke-width:1.0;"/><text fill="#A52A2A" font-family="sans-serif" font-size="14" lengthAdjust="spacing" textLength="83.3096" x="1198.5747" y="734.5707">&#1085;&#1086;&#1074;&#1072;&#1103; &#1096;&#1082;&#1086;&#1083;&#1072;</text></g><!--entity Steward--><g id="elem_Steward"><ellipse cx="1576.4551" cy="566.6211" fill="#FEFECE" filter="url(#f1icfzwg4qi5u9)" rx="8" ry="8" style="stroke:#A80036;stroke-width:2.0;"/><path d="M1576.4551,574.6211 L1576.4551,601.6211 M1563.4551,582.6211 L1589.4551,582.6211 M1576.4551,601.6211 L1563.4551,616.6211 M1576.4551,601.6211 L1589.4551,616.6211 " fill="none" filter="url(#f1icfzwg4qi5u9)" style="stroke:#A80036;stroke-width:2.0;"/><text fill="#A52A2A" font-family="sans-serif" font-size="14" lengthAdjust="spacing" textLength="73.9102" x="1539.5" y="638.7285">Ms Steward</text></g><!--entity Zoey--><g id="elem_Zoey"><ellipse cx="1061.562" cy="826.6211" fill="#FEFECE" filter="url(#f1icfzwg4qi5u9)" rx="8" ry="8" style="stroke:#A80036;stroke-width:2.0;"/><path d="M1061.562,834.6211 L1061.562,861.6211 M1048.562,842.6211 L1074.562,842.6211 M1061.562,861.6211 L1048.562,876.6211 M1061.562,861.6211 L1074.562,876.6211 " fill="none" filter="url(#f1icfzwg4qi5u9)" style="stroke:#A80036;stroke-width:2.0;"/><text fill="#A52A2A" font-family="sans-serif" font-size="14" lengthAdjust="spacing" textLength="31.124" x="1046" y="898.7285">Zoey</text></g><g id="elem_zoey_home"><ellipse cx="1242.9295" cy="999.4729" fill="#FEFECE" filter="url(#f1icfzwg4qi5u9)" rx="50.9295" ry="16.3518" style="stroke:#A80036;stroke-width:1.0;"/><text fill="#A52A2A" font-family="sans-serif" font-size="14" lengthAdjust="spacing" textLength="54.8447" x="1212.5071" y="1004.2766">&#1044;&#1086;&#1084; &#1047;&#1086;&#1080;</text></g><!--entity Ashley--><g id="elem_Ashley"><ellipse cx="1576.5103" cy="845.6211" fill="#FEFECE" filter="url(#f1icfzwg4qi5u9)" rx="8" ry="8" style="stroke:#A80036;stroke-width:2.0;"/><path d="M1576.5103,853.6211 L1576.5103,880.6211 M1563.5103,861.6211 L1589.5103,861.6211 M1576.5103,880.6211 L1563.5103,895.6211 M1576.5103,880.6211 L1589.5103,895.6211 " fill="none" filter="url(#f1icfzwg4qi5u9)" style="stroke:#A80036;stroke-width:2.0;"/><text fill="#A52A2A" font-family="sans-serif" font-size="14" lengthAdjust="spacing" textLength="42.0205" x="1555.5" y="917.7285">Ashley</text></g><!--entity korean--><g id="elem_korean"><ellipse cx="1576.5601" cy="706.2422" fill="#FEFECE" filter="url(#f1icfzwg4qi5u9)" rx="8" ry="8" style="stroke:#A80036;stroke-width:2.0;"/><path d="M1576.5601,714.2422 L1576.5601,741.2422 M1563.5601,722.2422 L1589.5601,722.2422 M1576.5601,741.2422 L1563.5601,756.2422 M1576.5601,741.2422 L1589.5601,756.2422 " fill="none" filter="url(#f1icfzwg4qi5u9)" style="stroke:#A80036;stroke-width:2.0;"/><text fill="#A52A2A" font-family="sans-serif" font-size="14" lengthAdjust="spacing" textLength="40.4688" x="1556.3257" y="778.3496">Jiyoon</text><text fill="#A52A2A" font-family="sans-serif" font-size="14" font-style="italic" lengthAdjust="spacing" textLength="75.1201" x="1539" y="692.7285">&#171;&#1082;&#1086;&#1088;&#1077;&#1103;&#1085;&#1082;&#1072;&#187;</text></g><!--entity Feng_driver--><g id="elem_Feng_driver"><ellipse cx="1576.4551" cy="1087.6211" fill="#FEFECE" filter="url(#f1icfzwg4qi5u9)" rx="8" ry="8" style="stroke:#A80036;stroke-width:2.0;"/><path d="M1576.4551,1095.6211 L1576.4551,1122.6211 M1563.4551,1103.6211 L1589.4551,1103.6211 M1576.4551,1122.6211 L1563.4551,1137.6211 M1576.4551,1122.6211 L1589.4551,1137.6211 " fill="none" filter="url(#f1icfzwg4qi5u9)" style="stroke:#A80036;stroke-width:2.0;"/><text fill="#A52A2A" font-family="sans-serif" font-size="14" lengthAdjust="spacing" textLength="31.9102" x="1560.5" y="1159.7285">Feng</text></g><!--entity Julia--><g id="elem_Julia"><ellipse cx="1061.5" cy="966.6211" fill="#FEFECE" filter="url(#f1icfzwg4qi5u9)" rx="8" ry="8" style="stroke:#A80036;stroke-width:2.0;"/><path d="M1061.5,974.6211 L1061.5,1001.6211 M1048.5,982.6211 L1074.5,982.6211 M1061.5,1001.6211 L1048.5,1016.6211 M1061.5,1001.6211 L1074.5,1016.6211 " fill="none" filter="url(#f1icfzwg4qi5u9)" style="stroke:#A80036;stroke-width:2.0;"/><text fill="#A52A2A" font-family="sans-serif" font-size="14" lengthAdjust="spacing" textLength="28.793" x="1047.1035" y="1038.7285">Julia</text></g><!--entity girlie--><g id="elem_girlie"><ellipse cx="1576.3345" cy="966.6211" fill="#FEFECE" filter="url(#f1icfzwg4qi5u9)" rx="8" ry="8" style="stroke:#A80036;stroke-width:2.0;"/><path d="M1576.3345,974.6211 L1576.3345,1001.6211 M1563.3345,982.6211 L1589.3345,982.6211 M1576.3345,1001.6211 L1563.3345,1016.6211 M1576.3345,1001.6211 L1589.3345,1016.6211 " fill="none" filter="url(#f1icfzwg4qi5u9)" style="stroke:#A80036;stroke-width:2.0;"/><text fill="#A52A2A" font-family="sans-serif" font-size="14" lengthAdjust="spacing" textLength="32.6689" x="1560" y="1038.7285">Girlie</text></g><!--link Sloan to Alva--><g id="link_Sloan_Alva"><path d="M1061.5,622.8711 C1061.5,639.9111 1061.5,653.4411 1061.5,670.4711 " fill="none" id="Sloan-to-Alva" style="stroke:#0000FF;stroke-width:1.0;"/><polygon fill="#0000FF" points="1061.5,676.4711,1065.5,667.4711,1061.5,671.4711,1057.5,667.4711,1061.5,676.4711" style="stroke:#0000FF;stroke-width:1.0;"/><text fill="#228B22" font-family="sans-serif" font-size="13" lengthAdjust="spacing" textLength="28.8945" x="1035" y="655.1494">&#1084;&#1072;&#1090;&#1100;</text></g><!--link Fang to Sloan--><g id="link_Fang_Sloan"><path d="M1061.5,482.8711 C1061.5,499.9111 1061.5,513.4411 1061.5,530.4711 " fill="none" id="Fang-to-Sloan" style="stroke:#0000FF;stroke-width:1.0;"/><polygon fill="#0000FF" points="1061.5,536.4711,1065.5,527.4711,1061.5,531.4711,1057.5,527.4711,1061.5,536.4711" style="stroke:#0000FF;stroke-width:1.0;"/><text fill="#228B22" font-family="sans-serif" font-size="13" lengthAdjust="spacing" textLength="36.8672" x="1031" y="515.1494">&#1078;&#1077;&#1085;&#1080;&#1093;</text></g><!--link Fang to ???????--><g id="link_Fang_&#1089;&#1074;&#1072;&#1076;&#1100;&#1073;&#1072;"><path d="M1087.08,444.9611 C1116.37,451.3211 1165.74,462.0511 1200.87,469.6811 " fill="none" id="Fang-&#1089;&#1074;&#1072;&#1076;&#1100;&#1073;&#1072;" style="stroke:#0000FF;stroke-width:1.0;"/></g><!--link Sloan to ???????--><g id="link_Sloan_&#1089;&#1074;&#1072;&#1076;&#1100;&#1073;&#1072;"><path d="M1079.71,569.9411 C1111.56,552.0111 1179.83,513.6011 1216.86,492.7711 " fill="none" id="Sloan-&#1089;&#1074;&#1072;&#1076;&#1100;&#1073;&#1072;" style="stroke:#0000FF;stroke-width:1.0;"/></g><!--link Alva to ???????--><g id="link_Alva_&#1089;&#1074;&#1072;&#1076;&#1100;&#1073;&#1072;"><path d="M1076.59,700.7111 C1110.8,654.7711 1197.84,537.9211 1229.9,494.8711 " fill="none" id="Alva-&#1089;&#1074;&#1072;&#1076;&#1100;&#1073;&#1072;" style="stroke:#0000FF;stroke-width:1.0;"/></g><!--link ??????? to Feng--><g id="link_&#1089;&#1074;&#1072;&#1076;&#1100;&#1073;&#1072;_Feng"><path d="M1293.27,478.6211 C1369.93,478.6211 1513.79,478.6211 1560.46,478.6211 " fill="none" id="&#1089;&#1074;&#1072;&#1076;&#1100;&#1073;&#1072;-Feng" style="stroke:#0000FF;stroke-width:1.0;"/><text fill="#228B22" font-family="sans-serif" font-size="13" lengthAdjust="spacing" textLength="31.1987" x="1411" y="474.6494">&#1075;&#1086;&#1089;&#1090;&#1100;</text></g><!--link ??????? to Lu--><g id="link_&#1089;&#1074;&#1072;&#1076;&#1100;&#1073;&#1072;_Lu"><path d="M1277.3,466.4611 C1348.4,440.5111 1512.52,380.6111 1561.47,362.7411 " fill="none" id="&#1089;&#1074;&#1072;&#1076;&#1100;&#1073;&#1072;-Lu" style="stroke:#0000FF;stroke-width:1.0;"/><text fill="#228B22" font-family="sans-serif" font-size="13" lengthAdjust="spacing" textLength="31.1987" x="1411.0815" y="338.6494">&#1075;&#1086;&#1089;&#1090;&#1100;</text><path d="M1349,347.9121 L1349,374.9121 L1500,374.9121 L1500,357.9121 L1490,347.9121 L1349,347.9121 " fill="#FBFB77" filter="url(#f1icfzwg4qi5u9)" style="stroke:#A80036;stroke-width:1.0;"/><path d="M1490,347.9121 L1490,357.9121 L1500,357.9121 L1490,347.9121 " fill="#FBFB77" style="stroke:#A80036;stroke-width:1.0;"/><text fill="#A52A2A" font-family="sans-serif" font-size="13" lengthAdjust="spacing" textLength="130.3618" x="1355" y="366.9404">&#1080;&#1083;&#1080; &#1101;&#1090;&#1086; &#1089;&#1072;&#1084; Lu Fang?</text></g><!--link Li to Alva--><g id="link_Li_Alva"><path d="M832.34,705.3311 C886.41,708.7211 999.3118,715.7856 1040.2918,718.3556 " fill="none" id="Li-to-Alva" style="stroke:#0000FF;stroke-width:1.0;"/><polygon fill="#0000FF" points="1046.28,718.7311,1037.548,714.1756,1041.2898,718.4181,1037.0473,722.1599,1046.28,718.7311" style="stroke:#0000FF;stroke-width:1.0;"/><text fill="#228B22" font-family="sans-serif" font-size="13" lengthAdjust="spacing" textLength="96.7256" x="909" y="705.6494">&#1083;&#1091;&#1095;&#1096;&#1072;&#1103; &#1087;&#1086;&#1076;&#1088;&#1091;&#1075;&#1072;</text></g><!--link ????? to Alva--><g id="link_&#1096;&#1082;&#1086;&#1083;&#1072;_Alva"><path d="M556.07,772.5011 C620.69,783.8711 761.45,803.4611 878,783.6211 C943.21,772.5211 1016.13,740.6011 1046.28,726.4811 " fill="none" id="&#1096;&#1082;&#1086;&#1083;&#1072;-Alva" style="stroke:#0000FF;stroke-width:1.0;"/><text fill="#228B22" font-family="sans-serif" font-size="13" lengthAdjust="spacing" textLength="125.563" x="741.5" y="779.6494">&#1086;&#1090;&#1074;&#1077;&#1090;&#1089;&#1090;&#1074;&#1077;&#1085;&#1085;&#1072;&#1103; &#1079;&#1072; &#1044;&#1047;</text></g><!--link ????? to Li--><g id="link_&#1096;&#1082;&#1086;&#1083;&#1072;_Li"><path d="M555.14,758.0211 C612.01,745.5411 724.01,720.9611 775.69,709.6111 " fill="none" id="&#1096;&#1082;&#1086;&#1083;&#1072;-Li" style="stroke:#0000FF;stroke-width:1.0;"/></g><!--link Zhang to ?????--><g id="link_Zhang_&#1096;&#1082;&#1086;&#1083;&#1072;"><path d="M286.55,602.8311 C327.69,624.8111 395.35,662.9211 449,702.6211 C469.16,717.5411 490.22,737.3111 503.79,750.6911 " fill="none" id="Zhang-&#1096;&#1082;&#1086;&#1083;&#1072;" style="stroke:#0000FF;stroke-width:1.0;"/><text fill="#228B22" font-family="sans-serif" font-size="13" lengthAdjust="spacing" textLength="91.8442" x="357" y="638.6494">&#1086;&#1076;&#1085;&#1086;&#1082;&#1083;&#1072;&#1089;&#1089;&#1085;&#1080;&#1094;&#1072;</text></g><!--link Liu to Li--><g id="link_Liu_Li"><path d="M804,606.8711 C804,623.9111 804,637.4411 804,654.4711 " fill="none" id="Liu-to-Li" style="stroke:#0000FF;stroke-width:1.0;"/><polygon fill="#0000FF" points="804,660.4711,808,651.4711,804,655.4711,800,651.4711,804,660.4711" style="stroke:#0000FF;stroke-width:1.0;"/><text fill="#228B22" font-family="sans-serif" font-size="13" lengthAdjust="spacing" textLength="59.9663" x="762" y="639.1494">superviser</text></g><!--link Song to ?????--><g id="link_Song_&#1096;&#1082;&#1086;&#1083;&#1072;"><path d="M278.1,823.9411 C317.32,821.0811 389.67,813.8111 449,796.6211 C464.61,792.1011 481.26,784.7711 494.35,778.3711 " fill="none" id="Song-&#1096;&#1082;&#1086;&#1083;&#1072;" style="stroke:#0000FF;stroke-width:1.0;"/><text fill="#228B22" font-family="sans-serif" font-size="13" lengthAdjust="spacing" textLength="77.1938" x="364" y="792.6494">&#1091;&#1095;&#1080;&#1090;&#1077;&#1083;&#1100;&#1085;&#1080;&#1094;&#1072;</text></g><!--link Gao to ?????--><g id="link_Gao_&#1096;&#1082;&#1086;&#1083;&#1072;"><path d="M287.76,713.3011 C340.12,725.1711 433.35,746.3111 483.79,757.7511 " fill="none" id="Gao-&#1096;&#1082;&#1086;&#1083;&#1072;" style="stroke:#0000FF;stroke-width:1.0;"/><text fill="#228B22" font-family="sans-serif" font-size="13" lengthAdjust="spacing" textLength="40.6313" x="382.5" y="725.6494">&#1091;&#1095;&#1077;&#1085;&#1080;&#1082;</text></g><!--link Teng to Gao--><g id="link_Teng_Gao"><path d="M72.74,747.0111 C107.96,738.4711 163.6391,724.9657 203.4991,715.2957 " fill="none" id="Teng-to-Gao" style="stroke:#0000FF;stroke-width:1.0;"/><polygon fill="#0000FF" points="209.33,713.8811,199.6407,712.1157,204.4709,715.0599,201.5267,719.8902,209.33,713.8811" style="stroke:#0000FF;stroke-width:1.0;"/><text fill="#228B22" font-family="sans-serif" font-size="13" lengthAdjust="spacing" textLength="26.0571" x="114" y="725.6494">&#1076;&#1088;&#1091;&#1075;</text></g><!--link Doggy to Gao--><g id="link_Doggy_Gao"><path d="M64.5,639.3911 C97.5,651.1611 160.3485,673.556 203.5385,688.956 " fill="none" id="Doggy-to-Gao" style="stroke:#0000FF;stroke-width:1.0;"/><polygon fill="#0000FF" points="209.19,690.9711,202.0562,684.1808,204.4804,689.2918,199.3694,691.7161,209.19,690.9711" style="stroke:#0000FF;stroke-width:1.0;"/><text fill="#228B22" font-family="sans-serif" font-size="13" lengthAdjust="spacing" textLength="26.0571" x="114" y="653.6494">&#1076;&#1088;&#1091;&#1075;</text></g><!--link Ciyi to Fang--><g id="link_Ciyi_Fang"><path d="M1061.5,342.8711 C1061.5,359.9111 1061.5,371.4411 1061.5,388.4711 " fill="none" id="Ciyi-to-Fang" style="stroke:#0000FF;stroke-width:1.0;"/><polygon fill="#0000FF" points="1061.5,396.4711,1064.5,388.4711,1058.5,388.4711,1061.5,396.4711" style="stroke:#0000FF;stroke-width:1.0;"/><text fill="#228B22" font-family="sans-serif" font-size="13" lengthAdjust="spacing" textLength="30.3354" x="1034" y="375.1494">&#1078;&#1077;&#1085;&#1072;</text></g><!--link Qingdao to Ciyi--><g id="link_Qingdao_Ciyi"><path d="M870.8,321.1511 C930.24,314.4111 1013.28,304.9811 1046.22,301.2411 " fill="none" id="Qingdao-Ciyi" style="stroke:#0000FF;stroke-width:1.0;"/></g><!--link Qingdao to Fang--><g id="link_Qingdao_Fang"><path d="M839.46,343.5911 C891.76,366.3111 989.95,408.9711 1035.77,428.8811 " fill="none" id="Qingdao-Fang" style="stroke:#0000FF;stroke-width:1.0;"/></g><!--link Qingdao to Sloan--><g id="link_Qingdao_Sloan"><path d="M822.16,345.4811 C868.71,391.2011 996.96,517.2011 1043.41,562.8311 " fill="none" id="Qingdao-Sloan" style="stroke:#0000FF;stroke-width:1.0;"/></g><!--link Huang to Qingdao--><g id="link_Huang_Qingdao"><path d="M540.36,216.1311 C587.84,236.4611 708.37,288.0911 768.2,313.7211 " fill="none" id="Huang-Qingdao" style="stroke:#0000FF;stroke-width:1.0;"/><text fill="#228B22" font-family="sans-serif" font-size="13" lengthAdjust="spacing" textLength="105.4092" x="592.5" y="235.6494">&#1087;&#1088;&#1086;&#1076;&#1072;&#1074;&#1077;&#1094; &#1084;&#1086;&#1083;&#1086;&#1082;&#1072;</text></g><!--link Qi to Qingdao--><g id="link_Qi_Qingdao"><path d="M542.63,439.1911 C556.24,432.8311 574.07,424.6111 590,417.6211 C651.65,390.5611 724.12,360.6811 766.65,343.3511 " fill="none" id="Qi-Qingdao" style="stroke:#0000FF;stroke-width:1.0;"/></g><!--link Qi to Fang--><g id="link_Qi_Fang"><path d="M542.68,449.2111 C629.31,447.6111 938.591,441.8824 1029.691,440.1924 " fill="none" id="Qi-to-Fang" style="stroke:#0000FF;stroke-width:1.0;"/><polygon fill="#0000FF" points="1035.69,440.0811,1026.6174,436.2487,1030.6909,440.1738,1026.7657,444.2473,1035.69,440.0811" style="stroke:#0000FF;stroke-width:1.0;"/><text fill="#228B22" font-family="sans-serif" font-size="13" lengthAdjust="spacing" textLength="109.5986" x="749.5" y="438.6494">&#1074;&#1099;&#1077;&#1079;&#1076;&#1085;&#1086;&#1081; &#1082;&#1086;&#1083;&#1083;&#1077;&#1075;&#1072;</text></g><!--link Wang to Qingdao--><g id="link_Wang_Qingdao"><path d="M559.54,110.2711 C597.25,133.9711 655.11,172.5811 700,212.6211 C735.78,244.5311 771.6,288.1511 790.1,311.7611 " fill="none" id="Wang-Qingdao" style="stroke:#0000FF;stroke-width:1.0;"/><text fill="#228B22" font-family="sans-serif" font-size="13" lengthAdjust="spacing" textLength="108.272" x="591" y="126.6494">&#1089;&#1086;&#1089;&#1077;&#1076;&#1082;&#1072; &#1089; 1 &#1101;&#1090;&#1072;&#1078;&#1072;</text></g><!--link Yu to ?????--><g id="link_Yu_&#1096;&#1082;&#1086;&#1083;&#1072;"><path d="M83.46,926.5111 C138.53,930.7911 243.07,933.7511 326,905.6211 C402.7,879.6011 474.79,811.3611 504.37,780.8011 " fill="none" id="Yu-&#1096;&#1082;&#1086;&#1083;&#1072;" style="stroke:#0000FF;stroke-width:1.0;"/><text fill="#228B22" font-family="sans-serif" font-size="13" lengthAdjust="spacing" textLength="153.0483" x="172" y="901.6494">&#1080;&#1079; &#1087;&#1072;&#1088;&#1072;&#1083;&#1083;&#1077;&#1083;&#1100;&#1085;&#1086;&#1075;&#1086; &#1082;&#1083;&#1072;&#1089;&#1089;&#1072;</text></g><!--link Jim to Qingdao--><g id="link_Jim_Qingdao"><path d="M534.51,328.6211 C569.58,328.6211 663.12,328.6211 729.92,328.6211 " fill="none" id="Jim-Qingdao" style="stroke:#0000FF;stroke-width:1.0;"/><text fill="#228B22" font-family="sans-serif" font-size="13" lengthAdjust="spacing" textLength="49.8037" x="620.5" y="324.6494">&#1087;&#1080;&#1074;&#1086;&#1074;&#1072;&#1088;</text></g><!--link Fang to Lu Min--><g id="link_Fang_Lu Min"><path d="M1087.08,429.2111 C1122.9,414.0511 1183.2249,388.5106 1216.3349,374.4906 " fill="none" id="Fang-to-Lu Min" style="stroke:#0000FF;stroke-width:1.0;"/><polygon fill="#0000FF" points="1221.86,372.1511,1212.0127,371.977,1217.2558,374.1007,1215.1321,379.3438,1221.86,372.1511" style="stroke:#0000FF;stroke-width:1.0;"/><text fill="#228B22" font-family="sans-serif" font-size="13" lengthAdjust="spacing" textLength="23.0229" x="1118" y="401.6494">&#1089;&#1099;&#1085;</text></g><!--link Ciyi to Lu Min--><g id="link_Ciyi_Lu Min"><path d="M1076.59,304.6411 C1108.24,315.9311 1179.4484,341.3164 1216.1684,354.4064 " fill="none" id="Ciyi-to-Lu Min" style="stroke:#0000FF;stroke-width:1.0;"/><polygon fill="#0000FF" points="1221.82,356.4211,1214.6857,349.6313,1217.1103,354.7422,1211.9994,357.1668,1221.82,356.4211" style="stroke:#0000FF;stroke-width:1.0;"/><text fill="#228B22" font-family="sans-serif" font-size="13" lengthAdjust="spacing" textLength="23.0229" x="1118" y="315.6494">&#1089;&#1099;&#1085;</text></g><!--link Alva to new_school--><g id="link_Alva_new_school"><path d="M1076.59,720.4011 C1097.49,721.5711 1138.13,723.8311 1173.89,725.8311 " fill="none" id="Alva-new_school" style="stroke:#0000FF;stroke-width:1.0;"/></g><!--link new_school to Steward--><g id="link_new_school_Steward"><path d="M1280.11,715.4611 C1343.87,690.4511 1475.7,638.7611 1539.44,613.7611 " fill="none" id="new_school-Steward" style="stroke:#0000FF;stroke-width:1.0;"/><text fill="#228B22" font-family="sans-serif" font-size="13" lengthAdjust="spacing" textLength="77.1938" x="1388" y="623.6494">&#1091;&#1095;&#1080;&#1090;&#1077;&#1083;&#1100;&#1085;&#1080;&#1094;&#1072;</text></g><!--link Alva to Zoey--><g id="link_Alva_Zoey"><path d="M1061.5,762.8711 C1061.5,779.9111 1061.5,793.4411 1061.5,810.4711 " fill="none" id="Alva-to-Zoey" style="stroke:#0000FF;stroke-width:1.0;"/><polygon fill="#0000FF" points="1061.5,816.4711,1065.5,807.4711,1061.5,811.4711,1057.5,807.4711,1061.5,816.4711" style="stroke:#0000FF;stroke-width:1.0;"/><text fill="#228B22" font-family="sans-serif" font-size="13" lengthAdjust="spacing" textLength="86.7534" x="1006" y="795.1494">&#1085;&#1086;&#1074;&#1072;&#1103; &#1087;&#1086;&#1076;&#1088;&#1091;&#1075;&#1072;</text></g><!--link Zoey to new_school--><g id="link_Zoey_new_school"><path d="M1077.19,848.9811 C1108.76,826.1211 1183.19,772.2111 1220.25,745.3711 " fill="none" id="Zoey-new_school" style="stroke:#0000FF;stroke-width:1.0;"/></g><!--link Zoey to zoey_home--><g id="link_Zoey_zoey_home"><path d="M1077.19,871.0811 C1109.43,896.2211 1186.37,956.2311 1222.56,984.4611 " fill="none" id="Zoey-zoey_home" style="stroke:#0000FF;stroke-width:1.0;"/></g><!--link new_school to Ashley--><g id="link_new_school_Ashley"><path d="M1276.69,744.3111 C1344.81,774.9311 1500.18,844.7711 1555.49,869.6311 " fill="none" id="new_school-Ashley" style="stroke:#0000FF;stroke-width:1.0;"/><text fill="#228B22" font-family="sans-serif" font-size="13" lengthAdjust="spacing" textLength="91.8442" x="1381" y="773.6494">&#1086;&#1076;&#1085;&#1086;&#1082;&#1083;&#1072;&#1089;&#1089;&#1085;&#1080;&#1094;&#1072;</text></g><!--link new_school to korean--><g id="link_new_school_korean"><path d="M1314.3,729.6211 C1382.91,729.6211 1484.62,729.6211 1538.65,729.6211 " fill="none" id="new_school-korean" style="stroke:#0000FF;stroke-width:1.0;"/></g><!--reverse link Zoey to Julia--><g id="link_Zoey_Julia"><path d="M1061.5,908.8711 C1061.5,925.9111 1061.5,939.4411 1061.5,956.4711 " fill="none" id="Zoey-backto-Julia" style="stroke:#0000FF;stroke-width:1.0;"/><polygon fill="#0000FF" points="1061.5,902.8711,1057.5,911.8711,1061.5,907.8711,1065.5,911.8711,1061.5,902.8711" style="stroke:#0000FF;stroke-width:1.0;"/><text fill="#228B22" font-family="sans-serif" font-size="13" lengthAdjust="spacing" textLength="28.8945" x="1035" y="935.1494">&#1084;&#1072;&#1090;&#1100;</text></g><!--link Julia to zoey_home--><g id="link_Julia_zoey_home"><path d="M1076.59,999.6211 C1101.13,999.6211 1152.86,999.6211 1191.98,999.6211 " fill="none" id="Julia-zoey_home" style="stroke:#0000FF;stroke-width:1.0;"/></g><!--link zoey_home to Feng_driver--><g id="link_zoey_home_Feng_driver"><path d="M1277.61,1011.8911 C1348.39,1037.7211 1510.39,1096.8611 1560.47,1115.1311 " fill="none" id="zoey_home-Feng_driver" style="stroke:#0000FF;stroke-width:1.0;"/><text fill="#228B22" font-family="sans-serif" font-size="13" lengthAdjust="spacing" textLength="56.5259" x="1398.5" y="1034.6494">&#1074;&#1086;&#1076;&#1080;&#1090;&#1077;&#1083;&#1100;</text></g><!--link zoey_home to girlie--><g id="link_zoey_home_girlie"><path d="M1294.35,999.6211 C1370.96,999.6211 1512.89,999.6211 1559.91,999.6211 " fill="none" id="zoey_home-girlie" style="stroke:#0000FF;stroke-width:1.0;"/><text fill="#228B22" font-family="sans-serif" font-size="13" lengthAdjust="spacing" textLength="56.6084" x="1398.5" y="995.6494">&#1089;&#1083;&#1091;&#1078;&#1072;&#1085;&#1082;&#1072;</text></g><!--link korean to Ashley--><g id="link_korean_Ashley"><path d="M1576.5,781.8711 C1576.5,799.4111 1576.5,812.7611 1576.5,829.5211 " fill="none" id="korean-to-Ashley" style="stroke:#0000FF;stroke-width:1.0;"/><polygon fill="#0000FF" points="1576.5,835.5211,1580.5,826.5211,1576.5,830.5211,1572.5,826.5211,1576.5,835.5211" style="stroke:#0000FF;stroke-width:1.0;"/><text fill="#228B22" font-family="sans-serif" font-size="13" lengthAdjust="spacing" textLength="47.5566" x="1540.5" y="814.1494">&#1087;&#1086;&#1076;&#1088;&#1091;&#1075;&#1072;</text></g><!--SRC=[VLNDRXD94BxtKvIq1q32At5OQHb5HWYMHIWSsAoKXKlKn6sxbSaqwfb9b3sH85WaG710uZK6Rq8C9kOLUjvelweUssFZvJJLzV_pLKrg-WKLZhmT30lgMMzs2-iobU_PZBpBZL1FjDVxz5ZlxWsyAxFUhakTfyBhB8V8P4LBgsVwkaoBlikAgFRJO-yEivQ6zc3CP6bfLaKjqxxp9Yy6tfXCgS8MgQ4_x87nz9lEYwiDlGqLfPAjrEai0N4pFT3ytIpfZiu62UbS26PP-ijcXyOASzCg9LRKwH9RKKBXQwZga_grKefjM19L8FeKpi956DVFrLpQeSlrSHY5AfpMhyF7K5sPULmZaH3h14gjibWjkMCuUmJ-DqphOybghTvckQALkSAGooYrsHvBnc4InbI_gK_2bE2X2b-fwSuDhWLjwRHQCAcVrV_KBz68jnI-XIcYFQsVmN_5YRuCNy2QDC5dDbFu7eKpX3-E53fr4JsSXuh2-_3XErlkV_9eo8tS6cedCv4dsBzhXr5fryTCcOytkFVpdsdBDJDbGcPQDjCibOhUfCUjM9nVE4K-K_30GOx7CiaNN18CUSneGa9v-SJu0viR3sYujQwuEJ0zGOaJJ67kXZF-7ss1JVY2PF_4I1c2aZ4_L7BR3GP7yXPAAT7XUR17fDvqNubudG1-RzcZY6ac64yFR3ReQNULhbt_zPShB6auIh4A2kxA_1UuHWcD2fSXVbflMQ3MMr2Em7VBsOe9fH8U6c8bCQHAxjbzeV75QfPPOGrjpsosnUHXIRU6k2AscVL335A9Euuq2uf4lzLFPP2LGEq5BoitcgTQ8RcMjhmM5OxgLwZnlC70PsecD06JKRtzNIZW0yi4yIdxnfEknVsfq2rq2Ybtrg1i7CvvOohaMJN-8qQcl9tKGXzye2EhzS712BeZzZ0_CLtUSBhFeE74KCf5CyEr8dM99E18jc-H88LtaWnw0NoiLH6SPEPm9zyTEfUg-SLgyx24j5MOG-rxSGqZhTH2IG0IsJzOcEIHCn7uJCo2TUN5tLXak7g4H6CbhSiuCLFSjV01dx5KyZVKTePktomiMgpbT9ER-J3bT2ZvqQq0d8-SYp3Tmyy9btvZWzk7YP_LRw48k7IxgzwZAipZIUSV4eYTdkSV69oMgTLnIvZ2zRC-jKOu0o6R2ZOwKMFfHnKvoyNDITdTHInP1YbmFf1btHWkRW3-0upsM9HIJRtyev1UHSGk3KRz1m00]--></g></svg>