<svg xmlns="http://www.w3.org/2000/svg" xmlns:xlink="http://www.w3.org/1999/xlink" contentStyleType="text/css" height="1211px" preserveAspectRatio="none" style="width:1986px;height:1211px;background:#FFF5EE;" version="1.1" viewBox="0 0 1986 1211" width="1986px" zoomAndPan="magnify"><title>River East, River West</title><defs><filter height="300%" id="f1vjlu1ns89jji" width="300%" x="-1" y="-1"><feGaussianBlur result="blurOut" stdDeviation="2.0"/><feColorMatrix in="blurOut" result="blurOut2" type="matrix" values="0 0 0 0 0 0 0 0 0 0 0 0 0 0 0 0 0 0 .4 0"/><feOffset dx="4.0" dy="4.0" in="blurOut2" result="blurOut3"/><feBlend in="SourceGraphic" in2="blurOut3" mode="normal"/></filter></defs><g><rect fill="#FFF5EE" height="1211" style="stroke:none;stroke-width:1.0;" width="1986" x="0" y="0"/><text fill="#A52A2A" font-family="sans-serif" font-size="14" font-weight="bold" lengthAdjust="spacing" textLength="148.6201" x="911.75" y="25.1074">River East, River West</text><!--entity Sloan--><g id="elem_Sloan"><ellipse cx="1107.4033" cy="410.6211" fill="#FFC0CB" filter="url(#f1vjlu1ns89jji)" rx="8" ry="8" style="stroke:#A80036;stroke-width:2.0;"/><path d="M1107.4033,418.6211 L1107.4033,445.6211 M1094.4033,426.6211 L1120.4033,426.6211 M1107.4033,445.6211 L1094.4033,460.6211 M1107.4033,445.6211 L1120.4033,460.6211 " fill="none" filter="url(#f1vjlu1ns89jji)" style="stroke:#A80036;stroke-width:2.0;"/><text fill="#A52A2A" font-family="sans-serif" font-size="14" lengthAdjust="spacing" textLength="35.8066" x="1089.5" y="482.7285">Sloan</text></g><!--entity Alva--><g id="elem_Alva"><ellipse cx="1107.5" cy="564.6211" fill="#FFC0CB" filter="url(#f1vjlu1ns89jji)" rx="8" ry="8" style="stroke:#A80036;stroke-width:2.0;"/><path d="M1107.5,572.6211 L1107.5,599.6211 M1094.5,580.6211 L1120.5,580.6211 M1107.5,599.6211 L1094.5,614.6211 M1107.5,599.6211 L1120.5,614.6211 " fill="none" filter="url(#f1vjlu1ns89jji)" style="stroke:#A80036;stroke-width:2.0;"/><text fill="#A52A2A" font-family="sans-serif" font-size="14" lengthAdjust="spacing" textLength="27.2344" x="1093.8828" y="636.7285">Alva</text></g><!--entity Fang--><g id="elem_Fang"><ellipse cx="1107.686" cy="270.6211" fill="#FFC0CB" filter="url(#f1vjlu1ns89jji)" rx="8" ry="8" style="stroke:#A80036;stroke-width:2.0;"/><path d="M1107.686,278.6211 L1107.686,305.6211 M1094.686,286.6211 L1120.686,286.6211 M1107.686,305.6211 L1094.686,320.6211 M1107.686,305.6211 L1120.686,320.6211 " fill="none" filter="url(#f1vjlu1ns89jji)" style="stroke:#A80036;stroke-width:2.0;"/><text fill="#A52A2A" font-family="sans-serif" font-size="14" lengthAdjust="spacing" textLength="51.3721" x="1082" y="342.7285">Lu Fang</text></g><!--entity Li--><g id="elem_Li"><ellipse cx="837.0137" cy="605.6211" fill="#FEFECE" filter="url(#f1vjlu1ns89jji)" rx="8" ry="8" style="stroke:#A80036;stroke-width:2.0;"/><path d="M837.0137,613.6211 L837.0137,640.6211 M824.0137,621.6211 L850.0137,621.6211 M837.0137,640.6211 L824.0137,655.6211 M837.0137,640.6211 L850.0137,655.6211 " fill="none" filter="url(#f1vjlu1ns89jji)" style="stroke:#A80036;stroke-width:2.0;"/><text fill="#A52A2A" font-family="sans-serif" font-size="14" lengthAdjust="spacing" textLength="56.0273" x="809" y="677.7285">Li Xinwei</text></g><g id="elem_&#1089;&#1074;&#1072;&#1076;&#1100;&#1073;&#1072;"><ellipse cx="1332.4204" cy="443.462" fill="#FEFECE" filter="url(#f1vjlu1ns89jji)" rx="49.9204" ry="16.3409" style="stroke:#A80036;stroke-width:1.0;"/><text fill="#A52A2A" font-family="sans-serif" font-size="14" lengthAdjust="spacing" textLength="53.4912" x="1302.6748" y="448.2657">&#1089;&#1074;&#1072;&#1076;&#1100;&#1073;&#1072;</text></g><!--entity Feng--><g id="elem_Feng"><ellipse cx="1679.9551" cy="290.6211" fill="#FEFECE" filter="url(#f1vjlu1ns89jji)" rx="8" ry="8" style="stroke:#A80036;stroke-width:2.0;"/><path d="M1679.9551,298.6211 L1679.9551,325.6211 M1666.9551,306.6211 L1692.9551,306.6211 M1679.9551,325.6211 L1666.9551,340.6211 M1679.9551,325.6211 L1692.9551,340.6211 " fill="none" filter="url(#f1vjlu1ns89jji)" style="stroke:#A80036;stroke-width:2.0;"/><text fill="#A52A2A" font-family="sans-serif" font-size="14" lengthAdjust="spacing" textLength="31.9102" x="1664" y="362.7285">Feng</text></g><!--entity Lu--><g id="elem_Lu"><ellipse cx="1680" cy="411.6211" fill="#FEFECE" filter="url(#f1vjlu1ns89jji)" rx="8" ry="8" style="stroke:#A80036;stroke-width:2.0;"/><path d="M1680,419.6211 L1680,446.6211 M1667,427.6211 L1693,427.6211 M1680,446.6211 L1667,461.6211 M1680,446.6211 L1693,461.6211 " fill="none" filter="url(#f1vjlu1ns89jji)" style="stroke:#A80036;stroke-width:2.0;"/><text fill="#A52A2A" font-family="sans-serif" font-size="14" lengthAdjust="spacing" textLength="15.5723" x="1672.2139" y="483.7285">Lu</text></g><g id="elem_&#1096;&#1082;&#1086;&#1083;&#1072;"><ellipse cx="487.1929" cy="562.8398" fill="#FEFECE" filter="url(#f1vjlu1ns89jji)" rx="40.6929" ry="16.2187" style="stroke:#A80036;stroke-width:1.0;"/><text fill="#A52A2A" font-family="sans-serif" font-size="14" lengthAdjust="spacing" textLength="41.0977" x="464.2907" y="567.462">&#1096;&#1082;&#1086;&#1083;&#1072;</text></g><!--entity Zhang--><g id="elem_Zhang"><ellipse cx="189.1411" cy="408.6211" fill="#FEFECE" filter="url(#f1vjlu1ns89jji)" rx="8" ry="8" style="stroke:#A80036;stroke-width:2.0;"/><path d="M189.1411,416.6211 L189.1411,443.6211 M176.1411,424.6211 L202.1411,424.6211 M189.1411,443.6211 L176.1411,458.6211 M189.1411,443.6211 L202.1411,458.6211 " fill="none" filter="url(#f1vjlu1ns89jji)" style="stroke:#A80036;stroke-width:2.0;"/><text fill="#A52A2A" font-family="sans-serif" font-size="14" lengthAdjust="spacing" textLength="76.2822" x="151" y="480.7285">Zhang Shao</text></g><!--entity Gao--><g id="elem_Gao"><ellipse cx="188.917" cy="529.6211" fill="#FEFECE" filter="url(#f1vjlu1ns89jji)" rx="8" ry="8" style="stroke:#A80036;stroke-width:2.0;"/><path d="M188.917,537.6211 L188.917,564.6211 M175.917,545.6211 L201.917,545.6211 M188.917,564.6211 L175.917,579.6211 M188.917,564.6211 L201.917,579.6211 " fill="none" filter="url(#f1vjlu1ns89jji)" style="stroke:#A80036;stroke-width:2.0;"/><text fill="#A52A2A" font-family="sans-serif" font-size="14" lengthAdjust="spacing" textLength="77.834" x="150" y="601.7285">Gao Xiaofan</text></g><!--entity Song--><g id="elem_Song"><ellipse cx="487.0688" cy="642.6211" fill="#FEFECE" filter="url(#f1vjlu1ns89jji)" rx="8" ry="8" style="stroke:#A80036;stroke-width:2.0;"/><path d="M487.0688,650.6211 L487.0688,677.6211 M474.0688,658.6211 L500.0688,658.6211 M487.0688,677.6211 L474.0688,692.6211 M487.0688,677.6211 L500.0688,692.6211 " fill="none" filter="url(#f1vjlu1ns89jji)" style="stroke:#A80036;stroke-width:2.0;"/><text fill="#A52A2A" font-family="sans-serif" font-size="14" lengthAdjust="spacing" textLength="59.1377" x="457.5" y="714.7285">Ms. Song</text></g><!--entity Liu--><g id="elem_Liu"><ellipse cx="837" cy="465.6211" fill="#FEFECE" filter="url(#f1vjlu1ns89jji)" rx="8" ry="8" style="stroke:#A80036;stroke-width:2.0;"/><path d="M837,473.6211 L837,500.6211 M824,481.6211 L850,481.6211 M837,500.6211 L824,515.6211 M837,500.6211 L850,515.6211 " fill="none" filter="url(#f1vjlu1ns89jji)" style="stroke:#A80036;stroke-width:2.0;"/><text fill="#A52A2A" font-family="sans-serif" font-size="14" lengthAdjust="spacing" textLength="18.6826" x="827.6587" y="537.7285">Liu</text></g><!--entity Teng--><g id="elem_Teng"><ellipse cx="34.0171" cy="469.6211" fill="#FEFECE" filter="url(#f1vjlu1ns89jji)" rx="8" ry="8" style="stroke:#A80036;stroke-width:2.0;"/><path d="M34.0171,477.6211 L34.0171,504.6211 M21.0171,485.6211 L47.0171,485.6211 M34.0171,504.6211 L21.0171,519.6211 M34.0171,504.6211 L47.0171,519.6211 " fill="none" filter="url(#f1vjlu1ns89jji)" style="stroke:#A80036;stroke-width:2.0;"/><text fill="#A52A2A" font-family="sans-serif" font-size="14" lengthAdjust="spacing" textLength="56.0342" x="6" y="541.7285">Teng Xin</text></g><!--entity Doggy--><g id="elem_Doggy"><ellipse cx="34.2344" cy="590.6211" fill="#FEFECE" filter="url(#f1vjlu1ns89jji)" rx="8" ry="8" style="stroke:#A80036;stroke-width:2.0;"/><path d="M34.2344,598.6211 L34.2344,625.6211 M21.2344,606.6211 L47.2344,606.6211 M34.2344,625.6211 L21.2344,640.6211 M34.2344,625.6211 L47.2344,640.6211 " fill="none" filter="url(#f1vjlu1ns89jji)" style="stroke:#A80036;stroke-width:2.0;"/><text fill="#A52A2A" font-family="sans-serif" font-size="14" lengthAdjust="spacing" textLength="40.4688" x="14" y="662.7285">Doggy</text></g><!--entity Ciyi--><g id="elem_Ciyi"><ellipse cx="1107.5" cy="130.6211" fill="#FEFECE" filter="url(#f1vjlu1ns89jji)" rx="8" ry="8" style="stroke:#A80036;stroke-width:2.0;"/><path d="M1107.5,138.6211 L1107.5,165.6211 M1094.5,146.6211 L1120.5,146.6211 M1107.5,165.6211 L1094.5,180.6211 M1107.5,165.6211 L1120.5,180.6211 " fill="none" filter="url(#f1vjlu1ns89jji)" style="stroke:#A80036;stroke-width:2.0;"/><text fill="#A52A2A" font-family="sans-serif" font-size="14" lengthAdjust="spacing" textLength="23.3311" x="1095.8345" y="202.7285">Ciyi</text></g><g id="elem_Qingdao"><ellipse cx="837.0991" cy="299.8409" fill="#FEFECE" filter="url(#f1vjlu1ns89jji)" rx="74.0991" ry="17.2198" style="stroke:#A80036;stroke-width:1.0;"/><text fill="#A52A2A" font-family="sans-serif" font-size="14" lengthAdjust="spacing" textLength="91.8545" x="788.1719" y="304.6446">Qingdao, 1985</text></g><!--entity Huang--><g id="elem_Huang"><ellipse cx="487.1274" cy="295.6211" fill="#FEFECE" filter="url(#f1vjlu1ns89jji)" rx="8" ry="8" style="stroke:#A80036;stroke-width:2.0;"/><path d="M487.1274,303.6211 L487.1274,330.6211 M474.1274,311.6211 L500.1274,311.6211 M487.1274,330.6211 L474.1274,345.6211 M487.1274,330.6211 L500.1274,345.6211 " fill="none" filter="url(#f1vjlu1ns89jji)" style="stroke:#A80036;stroke-width:2.0;"/><text fill="#A52A2A" font-family="sans-serif" font-size="14" lengthAdjust="spacing" textLength="41.2549" x="466.5" y="367.7285">Huang</text></g><!--entity Qi--><g id="elem_Qi"><ellipse cx="836.9551" cy="171.6211" fill="#FEFECE" filter="url(#f1vjlu1ns89jji)" rx="8" ry="8" style="stroke:#A80036;stroke-width:2.0;"/><path d="M836.9551,179.6211 L836.9551,206.6211 M823.9551,187.6211 L849.9551,187.6211 M836.9551,206.6211 L823.9551,221.6211 M836.9551,206.6211 L849.9551,221.6211 " fill="none" filter="url(#f1vjlu1ns89jji)" style="stroke:#A80036;stroke-width:2.0;"/><text fill="#A52A2A" font-family="sans-serif" font-size="14" lengthAdjust="spacing" textLength="45.9102" x="814" y="243.7285">Xiao Qi</text></g><!--entity Jim--><g id="elem_Jim"><ellipse cx="487" cy="53.6211" fill="#FEFECE" filter="url(#f1vjlu1ns89jji)" rx="8" ry="8" style="stroke:#A80036;stroke-width:2.0;"/><path d="M487,61.6211 L487,88.6211 M474,69.6211 L500,69.6211 M487,88.6211 L474,103.6211 M487,88.6211 L500,103.6211 " fill="none" filter="url(#f1vjlu1ns89jji)" style="stroke:#A80036;stroke-width:2.0;"/><text fill="#A52A2A" font-family="sans-serif" font-size="14" lengthAdjust="spacing" textLength="21.7725" x="476.1138" y="125.7285">Jim</text></g><!--entity Wang--><g id="elem_Wang"><ellipse cx="487.0791" cy="174.6211" fill="#FEFECE" filter="url(#f1vjlu1ns89jji)" rx="8" ry="8" style="stroke:#A80036;stroke-width:2.0;"/><path d="M487.0791,182.6211 L487.0791,209.6211 M474.0791,190.6211 L500.0791,190.6211 M487.0791,209.6211 L474.0791,224.6211 M487.0791,209.6211 L500.0791,224.6211 " fill="none" filter="url(#f1vjlu1ns89jji)" style="stroke:#A80036;stroke-width:2.0;"/><text fill="#A52A2A" font-family="sans-serif" font-size="14" lengthAdjust="spacing" textLength="80.1582" x="447" y="246.7285">Auntie Wang</text></g><!--entity Yu--><g id="elem_Yu"><ellipse cx="487.0273" cy="416.6211" fill="#FEFECE" filter="url(#f1vjlu1ns89jji)" rx="8" ry="8" style="stroke:#A80036;stroke-width:2.0;"/><path d="M487.0273,424.6211 L487.0273,451.6211 M474.0273,432.6211 L500.0273,432.6211 M487.0273,451.6211 L474.0273,466.6211 M487.0273,451.6211 L500.0273,466.6211 " fill="none" filter="url(#f1vjlu1ns89jji)" style="stroke:#A80036;stroke-width:2.0;"/><text fill="#A52A2A" font-family="sans-serif" font-size="14" lengthAdjust="spacing" textLength="77.0547" x="448.5" y="488.7285">Yu Chentian</text></g><!--entity Lu Min--><g id="elem_Lu Min"><ellipse cx="1332.5103" cy="140.6211" fill="#FEFECE" filter="url(#f1vjlu1ns89jji)" rx="8" ry="8" style="stroke:#A80036;stroke-width:2.0;"/><path d="M1332.5103,148.6211 L1332.5103,175.6211 M1319.5103,156.6211 L1345.5103,156.6211 M1332.5103,175.6211 L1319.5103,190.6211 M1332.5103,175.6211 L1345.5103,190.6211 " fill="none" filter="url(#f1vjlu1ns89jji)" style="stroke:#A80036;stroke-width:2.0;"/><text fill="#A52A2A" font-family="sans-serif" font-size="14" lengthAdjust="spacing" textLength="42.0205" x="1311.5" y="212.7285">Lu Min</text></g><g id="elem_new_school"><ellipse cx="1680.2295" cy="802.767" fill="#FEFECE" filter="url(#f1vjlu1ns89jji)" rx="71.2295" ry="16.6459" style="stroke:#A80036;stroke-width:1.0;"/><text fill="#A52A2A" font-family="sans-serif" font-size="14" lengthAdjust="spacing" textLength="83.3096" x="1635.5747" y="807.5707">&#1085;&#1086;&#1074;&#1072;&#1103; &#1096;&#1082;&#1086;&#1083;&#1072;</text></g><!--entity Steward--><g id="elem_Steward"><ellipse cx="1941.4551" cy="888.6211" fill="#FEFECE" filter="url(#f1vjlu1ns89jji)" rx="8" ry="8" style="stroke:#A80036;stroke-width:2.0;"/><path d="M1941.4551,896.6211 L1941.4551,923.6211 M1928.4551,904.6211 L1954.4551,904.6211 M1941.4551,923.6211 L1928.4551,938.6211 M1941.4551,923.6211 L1954.4551,938.6211 " fill="none" filter="url(#f1vjlu1ns89jji)" style="stroke:#A80036;stroke-width:2.0;"/><text fill="#A52A2A" font-family="sans-serif" font-size="14" lengthAdjust="spacing" textLength="73.9102" x="1904.5" y="960.7285">Ms Steward</text></g><!--entity Zoey--><g id="elem_Zoey"><ellipse cx="1332.562" cy="770.6211" fill="#FEFECE" filter="url(#f1vjlu1ns89jji)" rx="8" ry="8" style="stroke:#A80036;stroke-width:2.0;"/><path d="M1332.562,778.6211 L1332.562,805.6211 M1319.562,786.6211 L1345.562,786.6211 M1332.562,805.6211 L1319.562,820.6211 M1332.562,805.6211 L1345.562,820.6211 " fill="none" filter="url(#f1vjlu1ns89jji)" style="stroke:#A80036;stroke-width:2.0;"/><text fill="#A52A2A" font-family="sans-serif" font-size="14" lengthAdjust="spacing" textLength="31.124" x="1317" y="842.7285">Zoey</text></g><g id="elem_zoey_home"><ellipse cx="1679.9295" cy="1042.4729" fill="#FEFECE" filter="url(#f1vjlu1ns89jji)" rx="50.9295" ry="16.3518" style="stroke:#A80036;stroke-width:1.0;"/><text fill="#A52A2A" font-family="sans-serif" font-size="14" lengthAdjust="spacing" textLength="54.8447" x="1649.5071" y="1047.2766">&#1044;&#1086;&#1084; &#1047;&#1086;&#1080;</text></g><!--entity Ashley--><g id="elem_Ashley"><ellipse cx="1941.5103" cy="767.6211" fill="#FEFECE" filter="url(#f1vjlu1ns89jji)" rx="8" ry="8" style="stroke:#A80036;stroke-width:2.0;"/><path d="M1941.5103,775.6211 L1941.5103,802.6211 M1928.5103,783.6211 L1954.5103,783.6211 M1941.5103,802.6211 L1928.5103,817.6211 M1941.5103,802.6211 L1954.5103,817.6211 " fill="none" filter="url(#f1vjlu1ns89jji)" style="stroke:#A80036;stroke-width:2.0;"/><text fill="#A52A2A" font-family="sans-serif" font-size="14" lengthAdjust="spacing" textLength="42.0205" x="1920.5" y="839.7285">Ashley</text></g><!--entity korean--><g id="elem_korean"><ellipse cx="1941.5601" cy="628.2422" fill="#FEFECE" filter="url(#f1vjlu1ns89jji)" rx="8" ry="8" style="stroke:#A80036;stroke-width:2.0;"/><path d="M1941.5601,636.2422 L1941.5601,663.2422 M1928.5601,644.2422 L1954.5601,644.2422 M1941.5601,663.2422 L1928.5601,678.2422 M1941.5601,663.2422 L1954.5601,678.2422 " fill="none" filter="url(#f1vjlu1ns89jji)" style="stroke:#A80036;stroke-width:2.0;"/><text fill="#A52A2A" font-family="sans-serif" font-size="14" lengthAdjust="spacing" textLength="40.4688" x="1921.3257" y="700.3496">Jiyoon</text><text fill="#A52A2A" font-family="sans-serif" font-size="14" font-style="italic" lengthAdjust="spacing" textLength="75.1201" x="1904" y="614.7285">&#171;&#1082;&#1086;&#1088;&#1077;&#1103;&#1085;&#1082;&#1072;&#187;</text></g><!--entity Feng_driver--><g id="elem_Feng_driver"><ellipse cx="1941.4551" cy="1009.6211" fill="#FEFECE" filter="url(#f1vjlu1ns89jji)" rx="8" ry="8" style="stroke:#A80036;stroke-width:2.0;"/><path d="M1941.4551,1017.6211 L1941.4551,1044.6211 M1928.4551,1025.6211 L1954.4551,1025.6211 M1941.4551,1044.6211 L1928.4551,1059.6211 M1941.4551,1044.6211 L1954.4551,1059.6211 " fill="none" filter="url(#f1vjlu1ns89jji)" style="stroke:#A80036;stroke-width:2.0;"/><text fill="#A52A2A" font-family="sans-serif" font-size="14" lengthAdjust="spacing" textLength="31.9102" x="1925.5" y="1081.7285">Feng</text></g><!--entity Julia--><g id="elem_Julia"><ellipse cx="1107.5" cy="957.6211" fill="#FEFECE" filter="url(#f1vjlu1ns89jji)" rx="8" ry="8" style="stroke:#A80036;stroke-width:2.0;"/><path d="M1107.5,965.6211 L1107.5,992.6211 M1094.5,973.6211 L1120.5,973.6211 M1107.5,992.6211 L1094.5,1007.6211 M1107.5,992.6211 L1120.5,1007.6211 " fill="none" filter="url(#f1vjlu1ns89jji)" style="stroke:#A80036;stroke-width:2.0;"/><text fill="#A52A2A" font-family="sans-serif" font-size="14" lengthAdjust="spacing" textLength="28.793" x="1093.1035" y="1029.7285">Julia</text></g><!--entity girlie--><g id="elem_girlie"><ellipse cx="1941.3345" cy="1130.6211" fill="#FEFECE" filter="url(#f1vjlu1ns89jji)" rx="8" ry="8" style="stroke:#A80036;stroke-width:2.0;"/><path d="M1941.3345,1138.6211 L1941.3345,1165.6211 M1928.3345,1146.6211 L1954.3345,1146.6211 M1941.3345,1165.6211 L1928.3345,1180.6211 M1941.3345,1165.6211 L1954.3345,1180.6211 " fill="none" filter="url(#f1vjlu1ns89jji)" style="stroke:#A80036;stroke-width:2.0;"/><text fill="#A52A2A" font-family="sans-serif" font-size="14" lengthAdjust="spacing" textLength="32.6689" x="1925" y="1202.7285">Girlie</text></g><!--entity Daniel--><g id="elem_Daniel"><ellipse cx="836.8447" cy="903.6211" fill="#FEFECE" filter="url(#f1vjlu1ns89jji)" rx="8" ry="8" style="stroke:#A80036;stroke-width:2.0;"/><path d="M836.8447,911.6211 L836.8447,938.6211 M823.8447,919.6211 L849.8447,919.6211 M836.8447,938.6211 L823.8447,953.6211 M836.8447,938.6211 L849.8447,953.6211 " fill="none" filter="url(#f1vjlu1ns89jji)" style="stroke:#A80036;stroke-width:2.0;"/><text fill="#A52A2A" font-family="sans-serif" font-size="14" lengthAdjust="spacing" textLength="39.6895" x="817" y="975.7285">Daniel</text></g><!--entity Gabe--><g id="elem_Gabe"><ellipse cx="1332.624" cy="910.6211" fill="#FEFECE" filter="url(#f1vjlu1ns89jji)" rx="8" ry="8" style="stroke:#A80036;stroke-width:2.0;"/><path d="M1332.624,918.6211 L1332.624,945.6211 M1319.624,926.6211 L1345.624,926.6211 M1332.624,945.6211 L1319.624,960.6211 M1332.624,945.6211 L1345.624,960.6211 " fill="none" filter="url(#f1vjlu1ns89jji)" style="stroke:#A80036;stroke-width:2.0;"/><text fill="#A52A2A" font-family="sans-serif" font-size="14" lengthAdjust="spacing" textLength="34.248" x="1315.5" y="982.7285">Gabe</text></g><!--entity Su--><g id="elem_Su"><ellipse cx="1679.8379" cy="882.6211" fill="#FEFECE" filter="url(#f1vjlu1ns89jji)" rx="8" ry="8" style="stroke:#A80036;stroke-width:2.0;"/><path d="M1679.8379,890.6211 L1679.8379,917.6211 M1666.8379,898.6211 L1692.8379,898.6211 M1679.8379,917.6211 L1666.8379,932.6211 M1679.8379,917.6211 L1692.8379,932.6211 " fill="none" filter="url(#f1vjlu1ns89jji)" style="stroke:#A80036;stroke-width:2.0;"/><text fill="#A52A2A" font-family="sans-serif" font-size="14" lengthAdjust="spacing" textLength="39.6758" x="1660" y="954.7285">Ms Su</text></g><g id="elem_banquet"><ellipse cx="487.1101" cy="805.7431" fill="#FEFECE" filter="url(#f1vjlu1ns89jji)" rx="106.1101" ry="23.622" style="stroke:#A80036;stroke-width:1.0;"/><text fill="#A52A2A" font-family="sans-serif" font-size="14" lengthAdjust="spacing" textLength="172.0059" x="401.1072" y="809.54">&#1092;&#1080;&#1083;&#1072;&#1085;&#1090;&#1088;&#1086;&#1087;&#1080;&#1095;&#1077;&#1089;&#1082;&#1080;&#1081; &#1073;&#1072;&#1085;&#1082;&#1077;&#1090;</text></g><!--entity Charles Zhe--><g id="elem_Charles Zhe"><ellipse cx="189.1274" cy="893.6211" fill="#FEFECE" filter="url(#f1vjlu1ns89jji)" rx="8" ry="8" style="stroke:#A80036;stroke-width:2.0;"/><path d="M189.1274,901.6211 L189.1274,928.6211 M176.1274,909.6211 L202.1274,909.6211 M189.1274,928.6211 L176.1274,943.6211 M189.1274,928.6211 L202.1274,943.6211 " fill="none" filter="url(#f1vjlu1ns89jji)" style="stroke:#A80036;stroke-width:2.0;"/><text fill="#A52A2A" font-family="sans-serif" font-size="14" lengthAdjust="spacing" textLength="76.2549" x="151" y="965.7285">Charles Zhe</text></g><!--entity Lily--><g id="elem_Lily"><ellipse cx="189.1895" cy="651.6211" fill="#FEFECE" filter="url(#f1vjlu1ns89jji)" rx="8" ry="8" style="stroke:#A80036;stroke-width:2.0;"/><path d="M189.1895,659.6211 L189.1895,686.6211 M176.1895,667.6211 L202.1895,667.6211 M189.1895,686.6211 L176.1895,701.6211 M189.1895,686.6211 L202.1895,701.6211 " fill="none" filter="url(#f1vjlu1ns89jji)" style="stroke:#A80036;stroke-width:2.0;"/><text fill="#A52A2A" font-family="sans-serif" font-size="14" lengthAdjust="spacing" textLength="58.3789" x="160" y="723.7285">Xi Lipeng</text></g><!--entity Alice Fan--><g id="elem_Alice Fan"><ellipse cx="189.1792" cy="772.6211" fill="#FEFECE" filter="url(#f1vjlu1ns89jji)" rx="8" ry="8" style="stroke:#A80036;stroke-width:2.0;"/><path d="M189.1792,780.6211 L189.1792,807.6211 M176.1792,788.6211 L202.1792,788.6211 M189.1792,807.6211 L176.1792,822.6211 M189.1792,807.6211 L202.1792,822.6211 " fill="none" filter="url(#f1vjlu1ns89jji)" style="stroke:#A80036;stroke-width:2.0;"/><text fill="#A52A2A" font-family="sans-serif" font-size="14" lengthAdjust="spacing" textLength="58.3584" x="160" y="844.7285">Alice Fan</text></g><!--entity Ms. McCoy--><g id="elem_Ms. McCoy"><ellipse cx="1680" cy="656.6211" fill="#FEFECE" filter="url(#f1vjlu1ns89jji)" rx="8" ry="8" style="stroke:#A80036;stroke-width:2.0;"/><path d="M1680,664.6211 L1680,691.6211 M1667,672.6211 L1693,672.6211 M1680,691.6211 L1667,706.6211 M1680,691.6211 L1693,706.6211 " fill="none" filter="url(#f1vjlu1ns89jji)" style="stroke:#A80036;stroke-width:2.0;"/><text fill="#A52A2A" font-family="sans-serif" font-size="14" lengthAdjust="spacing" textLength="70" x="1645" y="728.7285">Ms. McCoy</text></g><!--entity "Old Two"--><g id="elem_&quot;Old Two&quot;"><ellipse cx="1332.5317" cy="270.6211" fill="#FEFECE" filter="url(#f1vjlu1ns89jji)" rx="8" ry="8" style="stroke:#A80036;stroke-width:2.0;"/><path d="M1332.5317,278.6211 L1332.5317,305.6211 M1319.5317,286.6211 L1345.5317,286.6211 M1332.5317,305.6211 L1319.5317,320.6211 M1332.5317,305.6211 L1345.5317,320.6211 " fill="none" filter="url(#f1vjlu1ns89jji)" style="stroke:#A80036;stroke-width:2.0;"/><text fill="#A52A2A" font-family="sans-serif" font-size="14" lengthAdjust="spacing" textLength="62.0635" x="1301.5" y="342.7285">"Old Two"</text></g><g id="elem_&#1061;&#1072;&#1081;&#1085;&#1072;&#1085;&#1100;"><ellipse cx="1332.4085" cy="572.478" fill="#FEFECE" filter="url(#f1vjlu1ns89jji)" rx="51.4085" ry="16.3569" style="stroke:#A80036;stroke-width:1.0;"/><text fill="#A52A2A" font-family="sans-serif" font-size="14" lengthAdjust="spacing" textLength="55.4873" x="1301.6649" y="577.2817">&#1061;&#1072;&#1081;&#1085;&#1072;&#1085;&#1100;</text></g><!--entity Su Lin--><g id="elem_Su Lin"><ellipse cx="1679.8481" cy="535.6211" fill="#FEFECE" filter="url(#f1vjlu1ns89jji)" rx="8" ry="8" style="stroke:#A80036;stroke-width:2.0;"/><path d="M1679.8481,543.6211 L1679.8481,570.6211 M1666.8481,551.6211 L1692.8481,551.6211 M1679.8481,570.6211 L1666.8481,585.6211 M1679.8481,570.6211 L1692.8481,585.6211 " fill="none" filter="url(#f1vjlu1ns89jji)" style="stroke:#A80036;stroke-width:2.0;"/><text fill="#A52A2A" font-family="sans-serif" font-size="14" lengthAdjust="spacing" textLength="39.6963" x="1660" y="607.7285">Su Lin</text></g><!--link Sloan to Alva--><g id="link_Sloan_Alva"><path d="M1107.5,486.8711 C1107.5,507.9511 1107.5,527.2311 1107.5,548.3111 " fill="none" id="Sloan-to-Alva" style="stroke:#0000FF;stroke-width:1.0;"/><polygon fill="#0000FF" points="1107.5,554.3111,1111.5,545.3111,1107.5,549.3111,1103.5,545.3111,1107.5,554.3111" style="stroke:#0000FF;stroke-width:1.0;"/><text fill="#228B22" font-family="sans-serif" font-size="13" lengthAdjust="spacing" textLength="28.8945" x="1081" y="526.1494">&#1084;&#1072;&#1090;&#1100;</text></g><!--link Fang to Sloan--><g id="link_Fang_Sloan"><path d="M1107.5,346.8711 C1107.5,363.9111 1107.5,377.4411 1107.5,394.4711 " fill="none" id="Fang-to-Sloan" style="stroke:#0000FF;stroke-width:1.0;"/><polygon fill="#0000FF" points="1107.5,400.4711,1111.5,391.4711,1107.5,395.4711,1103.5,391.4711,1107.5,400.4711" style="stroke:#0000FF;stroke-width:1.0;"/><text fill="#228B22" font-family="sans-serif" font-size="13" lengthAdjust="spacing" textLength="70.6812" x="1060" y="379.1494">&#1074; &#1080;&#1090;&#1086;&#1075;&#1077; &#1084;&#1091;&#1078;</text></g><!--link Fang to ???????--><g id="link_Fang_&#1089;&#1074;&#1072;&#1076;&#1100;&#1073;&#1072;"><path d="M1133.22,319.1411 C1176.65,346.4011 1266.06,402.5311 1308.35,429.0911 " fill="none" id="Fang-&#1089;&#1074;&#1072;&#1076;&#1100;&#1073;&#1072;" style="stroke:#0000FF;stroke-width:1.0;"/><text fill="#228B22" font-family="sans-serif" font-size="13" lengthAdjust="spacing" textLength="36.8672" x="1189" y="337.6494">&#1078;&#1077;&#1085;&#1080;&#1093;</text></g><!--link Sloan to ???????--><g id="link_Sloan_&#1089;&#1074;&#1072;&#1076;&#1100;&#1073;&#1072;"><path d="M1125.63,443.6211 C1158.77,443.6211 1232.79,443.6211 1282.44,443.6211 " fill="none" id="Sloan-&#1089;&#1074;&#1072;&#1076;&#1100;&#1073;&#1072;" style="stroke:#0000FF;stroke-width:1.0;"/><text fill="#228B22" font-family="sans-serif" font-size="13" lengthAdjust="spacing" textLength="48.2295" x="1183" y="439.6494">&#1085;&#1077;&#1074;&#1077;&#1089;&#1090;&#1072;</text></g><!--link Alva to ???????--><g id="link_Alva_&#1089;&#1074;&#1072;&#1076;&#1100;&#1073;&#1072;"><path d="M1122.83,587.6011 C1133.81,579.9211 1149.35,569.0811 1163,559.6211 C1215.69,523.1111 1277.85,480.4211 1309.93,458.4111 " fill="none" id="Alva-&#1089;&#1074;&#1072;&#1076;&#1100;&#1073;&#1072;" style="stroke:#0000FF;stroke-width:1.0;"/><text fill="#228B22" font-family="sans-serif" font-size="13" lengthAdjust="spacing" textLength="82.3164" x="1166" y="494.6494">&#1076;&#1086;&#1095;&#1100; &#1085;&#1077;&#1074;&#1077;&#1089;&#1090;&#1099;</text></g><!--link ??????? to Feng--><g id="link_&#1089;&#1074;&#1072;&#1076;&#1100;&#1073;&#1072;_Feng"><path d="M1347.56,427.7411 C1362.45,411.9811 1387.45,388.3711 1414,375.6211 C1501.91,333.4111 1621.91,325.4611 1663.82,323.9711 " fill="none" id="&#1089;&#1074;&#1072;&#1076;&#1100;&#1073;&#1072;-Feng" style="stroke:#0000FF;stroke-width:1.0;"/><text fill="#228B22" font-family="sans-serif" font-size="13" lengthAdjust="spacing" textLength="31.1987" x="1481" y="328.6494">&#1075;&#1086;&#1089;&#1090;&#1100;</text></g><!--link ??????? to Lu--><g id="link_&#1089;&#1074;&#1072;&#1076;&#1100;&#1073;&#1072;_Lu"><path d="M1382.63,443.7611 C1462.74,443.9911 1617.33,444.4411 1664.79,444.5811 " fill="none" id="&#1089;&#1074;&#1072;&#1076;&#1100;&#1073;&#1072;-Lu" style="stroke:#0000FF;stroke-width:1.0;"/><text fill="#228B22" font-family="sans-serif" font-size="13" lengthAdjust="spacing" textLength="31.1987" x="1481.0815" y="398.6494">&#1075;&#1086;&#1089;&#1090;&#1100;</text><path d="M1419,407.9121 L1419,434.9121 L1570,434.9121 L1570,417.9121 L1560,407.9121 L1419,407.9121 " fill="#FBFB77" filter="url(#f1vjlu1ns89jji)" style="stroke:#A80036;stroke-width:1.0;"/><path d="M1560,407.9121 L1560,417.9121 L1570,417.9121 L1560,407.9121 " fill="#FBFB77" style="stroke:#A80036;stroke-width:1.0;"/><text fill="#A52A2A" font-family="sans-serif" font-size="13" lengthAdjust="spacing" textLength="130.3618" x="1425" y="426.9404">&#1080;&#1083;&#1080; &#1101;&#1090;&#1086; &#1089;&#1072;&#1084; Lu Fang?</text></g><!--link Li to Alva--><g id="link_Li_Alva"><path d="M865.22,634.4611 C921.62,625.8511 1043.5888,607.2269 1086.3488,600.6969 " fill="none" id="Li-to-Alva" style="stroke:#0000FF;stroke-width:1.0;"/><polygon fill="#0000FF" points="1092.28,599.7911,1082.7793,597.1956,1087.3373,600.5459,1083.987,605.1039,1092.28,599.7911" style="stroke:#0000FF;stroke-width:1.0;"/><text fill="#228B22" font-family="sans-serif" font-size="13" lengthAdjust="spacing" textLength="96.7256" x="948.5" y="601.6494">&#1083;&#1091;&#1095;&#1096;&#1072;&#1103; &#1087;&#1086;&#1076;&#1088;&#1091;&#1075;&#1072;</text></g><!--link ????? to Alva--><g id="link_&#1096;&#1082;&#1086;&#1083;&#1072;_Alva"><path d="M513.73,550.2711 C576.98,520.0111 736.82,444.2511 763,438.6211 C827.31,424.7911 849.02,416.6011 911,438.6211 C991.59,467.2611 1063.11,544.8811 1092.41,579.9711 " fill="none" id="&#1096;&#1082;&#1086;&#1083;&#1072;-Alva" style="stroke:#0000FF;stroke-width:1.0;"/><text fill="#228B22" font-family="sans-serif" font-size="13" lengthAdjust="spacing" textLength="125.563" x="774.5" y="420.6494">&#1086;&#1090;&#1074;&#1077;&#1090;&#1089;&#1090;&#1074;&#1077;&#1085;&#1085;&#1072;&#1103; &#1079;&#1072; &#1044;&#1047;</text></g><!--link ????? to Li--><g id="link_&#1096;&#1082;&#1086;&#1083;&#1072;_Li"><path d="M522.96,570.2611 C592.42,585.4211 746.48,619.0711 808.92,632.7111 " fill="none" id="&#1096;&#1082;&#1086;&#1083;&#1072;-Li" style="stroke:#0000FF;stroke-width:1.0;"/></g><!--link Zhang to ?????--><g id="link_Zhang_&#1096;&#1082;&#1086;&#1083;&#1072;"><path d="M227.19,456.8211 C287.28,481.3911 404.39,529.2611 458,551.1711 " fill="none" id="Zhang-&#1096;&#1082;&#1086;&#1083;&#1072;" style="stroke:#0000FF;stroke-width:1.0;"/><text fill="#228B22" font-family="sans-serif" font-size="13" lengthAdjust="spacing" textLength="91.8442" x="259" y="466.6494">&#1086;&#1076;&#1085;&#1086;&#1082;&#1083;&#1072;&#1089;&#1089;&#1085;&#1080;&#1094;&#1072;</text></g><!--link Liu to Li--><g id="link_Liu_Li"><path d="M837,541.8711 C837,558.9111 837,572.4411 837,589.4711 " fill="none" id="Liu-to-Li" style="stroke:#0000FF;stroke-width:1.0;"/><polygon fill="#0000FF" points="837,595.4711,841,586.4711,837,590.4711,833,586.4711,837,595.4711" style="stroke:#0000FF;stroke-width:1.0;"/><text fill="#228B22" font-family="sans-serif" font-size="13" lengthAdjust="spacing" textLength="59.9663" x="795" y="574.1494">superviser</text></g><!--link ????? to Song--><g id="link_&#1096;&#1082;&#1086;&#1083;&#1072;_Song"><path d="M487,578.7711 C487,592.7911 487,613.7411 487,632.5811 " fill="none" id="&#1096;&#1082;&#1086;&#1083;&#1072;-Song" style="stroke:#0000FF;stroke-width:1.0;"/><text fill="#228B22" font-family="sans-serif" font-size="13" lengthAdjust="spacing" textLength="77.1938" x="436" y="611.1494">&#1091;&#1095;&#1080;&#1090;&#1077;&#1083;&#1100;&#1085;&#1080;&#1094;&#1072;</text></g><!--link Gao to ?????--><g id="link_Gao_&#1096;&#1082;&#1086;&#1083;&#1072;"><path d="M228.09,562.6211 C284.3,562.6211 388.97,562.6211 446.17,562.6211 " fill="none" id="Gao-&#1096;&#1082;&#1086;&#1083;&#1072;" style="stroke:#0000FF;stroke-width:1.0;"/><text fill="#228B22" font-family="sans-serif" font-size="13" lengthAdjust="spacing" textLength="40.6313" x="284.5" y="558.6494">&#1091;&#1095;&#1077;&#1085;&#1080;&#1082;</text></g><!--link Teng to Gao--><g id="link_Teng_Gao"><path d="M62,513.2111 C86.36,522.7611 116.8846,534.7295 144.2046,545.4495 " fill="none" id="Teng-to-Gao" style="stroke:#0000FF;stroke-width:1.0;"/><polygon fill="#0000FF" points="149.79,547.6411,142.873,540.63,145.1355,545.8147,139.9508,548.0772,149.79,547.6411" style="stroke:#0000FF;stroke-width:1.0;"/><text fill="#228B22" font-family="sans-serif" font-size="13" lengthAdjust="spacing" textLength="26.0571" x="93" y="520.6494">&#1076;&#1088;&#1091;&#1075;</text></g><!--link Doggy to Gao--><g id="link_Doggy_Gao"><path d="M54.07,616.0211 C77.94,606.5011 113.8162,592.1922 144.3062,580.0422 " fill="none" id="Doggy-to-Gao" style="stroke:#0000FF;stroke-width:1.0;"/><polygon fill="#0000FF" points="149.88,577.8211,140.0386,577.4369,145.2352,579.672,143.0001,584.8686,149.88,577.8211" style="stroke:#0000FF;stroke-width:1.0;"/><text fill="#228B22" font-family="sans-serif" font-size="13" lengthAdjust="spacing" textLength="26.0571" x="93" y="586.6494">&#1076;&#1088;&#1091;&#1075;</text></g><!--link Ciyi to Fang--><g id="link_Ciyi_Fang"><path d="M1107.5,206.8711 C1107.5,223.9111 1107.5,235.4411 1107.5,252.4711 " fill="none" id="Ciyi-to-Fang" style="stroke:#0000FF;stroke-width:1.0;"/><polygon fill="#0000FF" points="1107.5,260.4711,1110.5,252.4711,1104.5,252.4711,1107.5,260.4711" style="stroke:#0000FF;stroke-width:1.0;"/><text fill="#228B22" font-family="sans-serif" font-size="13" lengthAdjust="spacing" textLength="30.3354" x="1080" y="239.1494">&#1078;&#1077;&#1085;&#1072;</text></g><!--link Qingdao to Ciyi--><g id="link_Qingdao_Ciyi"><path d="M893.79,288.6911 C948.27,277.2411 1026.57,258.4711 1052,240.6211 C1069.29,228.4811 1083,209.0311 1092.34,192.7111 " fill="none" id="Qingdao-Ciyi" style="stroke:#0000FF;stroke-width:1.0;"/></g><!--link Qingdao to Fang--><g id="link_Qingdao_Fang"><path d="M911.01,300.7111 C967.85,301.5511 1043.32,302.6811 1081.74,303.2511 " fill="none" id="Qingdao-Fang" style="stroke:#0000FF;stroke-width:1.0;"/></g><!--link Qingdao to Sloan--><g id="link_Qingdao_Sloan"><path d="M900.92,308.2911 C946.35,317.0311 1007.3,334.0911 1052,366.6211 C1067.49,377.9011 1080.21,394.9511 1089.45,410.1411 " fill="none" id="Qingdao-Sloan" style="stroke:#0000FF;stroke-width:1.0;"/></g><!--link Huang to Qingdao--><g id="link_Huang_Qingdao"><path d="M507.71,326.9811 C556.74,322.8911 686.08,312.1111 767.01,305.3711 " fill="none" id="Huang-Qingdao" style="stroke:#0000FF;stroke-width:1.0;"/><text fill="#228B22" font-family="sans-serif" font-size="13" lengthAdjust="spacing" textLength="105.4092" x="625.5" y="305.6494">&#1087;&#1088;&#1086;&#1076;&#1072;&#1074;&#1077;&#1094; &#1084;&#1086;&#1083;&#1086;&#1082;&#1072;</text></g><!--link Qi to Qingdao--><g id="link_Qi_Qingdao"><path d="M837,247.8511 C837,259.4111 837,270.9811 837,282.5511 " fill="none" id="Qi-Qingdao" style="stroke:#0000FF;stroke-width:1.0;"/></g><!--link Qi to Fang--><g id="link_Qi_Fang"><path d="M860.23,211.0111 C899.52,222.5511 983.54,248.3011 1052,276.6211 C1061.95,280.7411 1067.2751,283.1547 1076.5151,287.8247 " fill="none" id="Qi-to-Fang" style="stroke:#0000FF;stroke-width:1.0;"/><polygon fill="#0000FF" points="1081.87,290.5311,1075.6419,282.9015,1077.4076,288.2757,1072.0333,290.0414,1081.87,290.5311" style="stroke:#0000FF;stroke-width:1.0;"/><text fill="#228B22" font-family="sans-serif" font-size="13" lengthAdjust="spacing" textLength="109.5986" x="942" y="232.6494">&#1074;&#1099;&#1077;&#1079;&#1076;&#1085;&#1086;&#1081; &#1082;&#1086;&#1083;&#1083;&#1077;&#1075;&#1072;</text></g><!--link Wang to Qingdao--><g id="link_Wang_Qingdao"><path d="M527.24,217.9911 C591.32,234.9411 718.24,268.4911 787.73,286.8611 " fill="none" id="Wang-Qingdao" style="stroke:#0000FF;stroke-width:1.0;"/><text fill="#228B22" font-family="sans-serif" font-size="13" lengthAdjust="spacing" textLength="108.272" x="624" y="241.6494">&#1089;&#1086;&#1089;&#1077;&#1076;&#1082;&#1072; &#1089; 1 &#1101;&#1090;&#1072;&#1078;&#1072;</text></g><!--link Yu to ?????--><g id="link_Yu_&#1096;&#1082;&#1086;&#1083;&#1072;"><path d="M487,493.0911 C487,511.8011 487,532.5211 487,546.4311 " fill="none" id="Yu-&#1096;&#1082;&#1086;&#1083;&#1072;" style="stroke:#0000FF;stroke-width:1.0;"/><text fill="#228B22" font-family="sans-serif" font-size="13" lengthAdjust="spacing" textLength="153.0483" x="398" y="525.1494">&#1080;&#1079; &#1087;&#1072;&#1088;&#1072;&#1083;&#1083;&#1077;&#1083;&#1100;&#1085;&#1086;&#1075;&#1086; &#1082;&#1083;&#1072;&#1089;&#1089;&#1072;</text></g><!--link Jim to Qingdao--><g id="link_Jim_Qingdao"><path d="M502.23,91.4211 C542.41,105.5411 658.67,150.2711 733,218.6211 C750.97,235.1411 744.65,248.5311 763,264.6211 C772.62,273.0511 784.62,279.9111 796.1,285.2511 " fill="none" id="Jim-Qingdao" style="stroke:#0000FF;stroke-width:1.0;"/><text fill="#228B22" font-family="sans-serif" font-size="13" lengthAdjust="spacing" textLength="49.8037" x="653.5" y="142.6494">&#1087;&#1080;&#1074;&#1086;&#1074;&#1072;&#1088;</text></g><!--link Fang to Lu Min--><g id="link_Fang_Lu Min"><path d="M1133.22,289.2111 C1177.67,263.3011 1265.0965,212.3329 1306.0765,188.4429 " fill="none" id="Fang-to-Lu Min" style="stroke:#0000FF;stroke-width:1.0;"/><polygon fill="#0000FF" points="1311.26,185.4211,1301.4702,186.4981,1306.9404,187.9393,1305.4993,193.4095,1311.26,185.4211" style="stroke:#0000FF;stroke-width:1.0;"/><text fill="#228B22" font-family="sans-serif" font-size="13" lengthAdjust="spacing" textLength="23.0229" x="1195.5" y="219.6494">&#1089;&#1099;&#1085;</text></g><!--link Ciyi to Lu Min--><g id="link_Ciyi_Lu Min"><path d="M1122.79,164.2611 C1161.24,165.9911 1261.006,170.4626 1305.436,172.4526 " fill="none" id="Ciyi-to-Lu Min" style="stroke:#0000FF;stroke-width:1.0;"/><polygon fill="#0000FF" points="1311.43,172.7211,1302.618,168.3224,1306.435,172.4974,1302.26,176.3144,1311.43,172.7211" style="stroke:#0000FF;stroke-width:1.0;"/><text fill="#228B22" font-family="sans-serif" font-size="13" lengthAdjust="spacing" textLength="23.0229" x="1195.5" y="162.6494">&#1089;&#1099;&#1085;</text></g><!--link Alva to new_school--><g id="link_Alva_new_school"><path d="M1122.6,602.6911 C1195.1,628.7411 1526.82,747.9411 1640.58,788.8211 " fill="none" id="Alva-new_school" style="stroke:#0000FF;stroke-width:1.0;"/></g><!--link new_school to Steward--><g id="link_new_school_Steward"><path d="M1713.08,817.3311 C1761.63,839.5911 1853.47,881.7111 1904.33,905.0311 " fill="none" id="new_school-Steward" style="stroke:#0000FF;stroke-width:1.0;"/><text fill="#228B22" font-family="sans-serif" font-size="13" lengthAdjust="spacing" textLength="77.1938" x="1789" y="846.6494">&#1091;&#1095;&#1080;&#1090;&#1077;&#1083;&#1100;&#1085;&#1080;&#1094;&#1072;</text></g><!--link Alva to Zoey--><g id="link_Alva_Zoey"><path d="M1119.75,640.7811 C1128.19,666.2511 1141.97,697.6811 1163,719.6211 C1208.01,766.5811 1279.0694,789.7199 1311.0594,798.3999 " fill="none" id="Alva-to-Zoey" style="stroke:#0000FF;stroke-width:1.0;"/><polygon fill="#0000FF" points="1316.85,799.9711,1309.2115,793.7539,1312.0245,798.6618,1307.1166,801.4747,1316.85,799.9711" style="stroke:#0000FF;stroke-width:1.0;"/><text fill="#228B22" font-family="sans-serif" font-size="13" lengthAdjust="spacing" textLength="86.7534" x="1164" y="715.6494">&#1085;&#1086;&#1074;&#1072;&#1103; &#1087;&#1086;&#1076;&#1088;&#1091;&#1075;&#1072;</text></g><!--link Zoey to new_school--><g id="link_Zoey_new_school"><path d="M1348.35,803.5811 C1392.58,803.4511 1525.6,803.0611 1608.82,802.8211 " fill="none" id="Zoey-new_school" style="stroke:#0000FF;stroke-width:1.0;"/></g><!--link Zoey to zoey_home--><g id="link_Zoey_zoey_home"><path d="M1348.35,813.8911 C1402.98,851.6811 1593.03,983.1511 1657.45,1027.7111 " fill="none" id="Zoey-zoey_home" style="stroke:#0000FF;stroke-width:1.0;"/></g><!--link new_school to Ashley--><g id="link_new_school_Ashley"><path d="M1751.22,802.0811 C1808.11,801.6411 1884.49,801.0511 1920.34,800.7811 " fill="none" id="new_school-Ashley" style="stroke:#0000FF;stroke-width:1.0;"/><text fill="#228B22" font-family="sans-serif" font-size="13" lengthAdjust="spacing" textLength="91.8442" x="1782" y="796.6494">&#1086;&#1076;&#1085;&#1086;&#1082;&#1083;&#1072;&#1089;&#1089;&#1085;&#1080;&#1094;&#1072;</text></g><!--link new_school to korean--><g id="link_new_school_korean"><path d="M1707.31,787.3111 C1753.83,760.2411 1850.67,703.8911 1903.75,673.0011 " fill="none" id="new_school-korean" style="stroke:#0000FF;stroke-width:1.0;"/></g><!--link Julia to Zoey--><g id="link_Julia_Zoey"><path d="M1122.86,986.5611 C1150.27,978.2611 1210.9,957.1311 1251,922.6211 C1259.53,915.2811 1292.8143,864.1838 1313.6143,831.7038 " fill="none" id="Julia-to-Zoey" style="stroke:#0000FF;stroke-width:1.0;"/><polygon fill="#0000FF" points="1316.85,826.6511,1308.6279,832.073,1314.1536,830.8617,1315.3649,836.3873,1316.85,826.6511" style="stroke:#0000FF;stroke-width:1.0;"/><text fill="#228B22" font-family="sans-serif" font-size="13" lengthAdjust="spacing" textLength="28.8945" x="1193" y="918.6494">&#1084;&#1072;&#1090;&#1100;</text></g><!--link Julia to zoey_home--><g id="link_Julia_zoey_home"><path d="M1122.6,991.9111 C1193.12,998.3311 1508.96,1027.1211 1630.82,1038.2311 " fill="none" id="Julia-zoey_home" style="stroke:#0000FF;stroke-width:1.0;"/></g><!--link zoey_home to Feng_driver--><g id="link_zoey_home_Feng_driver"><path d="M1731.03,1042.6211 C1790.98,1042.6211 1887.98,1042.6211 1925.25,1042.6211 " fill="none" id="zoey_home-Feng_driver" style="stroke:#0000FF;stroke-width:1.0;"/><text fill="#228B22" font-family="sans-serif" font-size="13" lengthAdjust="spacing" textLength="56.5259" x="1799.5" y="1038.6494">&#1074;&#1086;&#1076;&#1080;&#1090;&#1077;&#1083;&#1100;</text></g><!--link zoey_home to girlie--><g id="link_zoey_home_girlie"><path d="M1709.76,1056.0311 C1764.66,1081.6311 1882.67,1136.6611 1925,1156.3911 " fill="none" id="zoey_home-girlie" style="stroke:#0000FF;stroke-width:1.0;"/><text fill="#228B22" font-family="sans-serif" font-size="13" lengthAdjust="spacing" textLength="56.6084" x="1799.5" y="1087.6494">&#1089;&#1083;&#1091;&#1078;&#1072;&#1085;&#1082;&#1072;</text></g><!--link korean to Ashley--><g id="link_korean_Ashley"><path d="M1941.5,703.8711 C1941.5,721.4111 1941.5,734.7611 1941.5,751.5211 " fill="none" id="korean-to-Ashley" style="stroke:#0000FF;stroke-width:1.0;"/><polygon fill="#0000FF" points="1941.5,757.5211,1945.5,748.5211,1941.5,752.5211,1937.5,748.5211,1941.5,757.5211" style="stroke:#0000FF;stroke-width:1.0;"/><text fill="#228B22" font-family="sans-serif" font-size="13" lengthAdjust="spacing" textLength="47.5566" x="1905.5" y="736.1494">&#1087;&#1086;&#1076;&#1088;&#1091;&#1075;&#1072;</text></g><!--link Daniel to zoey_home--><g id="link_Daniel_zoey_home"><path d="M857.15,949.3711 C896.95,974.9911 992.35,1031.9511 1082,1051.6211 C1284.25,1095.9911 1534.35,1065.6411 1634.49,1050.1611 " fill="none" id="Daniel-zoey_home" style="stroke:#0000FF;stroke-width:1.0;"/></g><!--link Daniel to Zoey--><g id="link_Daniel_Zoey"><path d="M857.1,932.3811 C916.13,919.1411 1100.79,876.7511 1251,831.6211 C1274.24,824.6411 1295.1141,817.1967 1311.1641,811.2467 " fill="none" id="Daniel-to-Zoey" style="stroke:#0000FF;stroke-width:1.0;"/><polygon fill="#0000FF" points="1316.79,809.1611,1306.9608,808.5389,1312.1018,810.8991,1309.7416,816.0401,1316.79,809.1611" style="stroke:#0000FF;stroke-width:1.0;"/><text fill="#228B22" font-family="sans-serif" font-size="13" lengthAdjust="spacing" textLength="27.8599" x="1094" y="860.6494">&#1086;&#1090;&#1077;&#1094;</text></g><!--link Daniel to Julia--><g id="link_Daniel_Julia"><path d="M857.31,940.5011 C908.65,950.8311 1041.7978,977.6078 1086.5378,986.6078 " fill="none" id="Daniel-to-Julia" style="stroke:#0000FF;stroke-width:1.0;"/><polygon fill="#0000FF" points="1092.42,987.7911,1084.3856,982.0947,1087.5182,986.805,1082.8079,989.9376,1092.42,987.7911" style="stroke:#0000FF;stroke-width:1.0;"/><text fill="#228B22" font-family="sans-serif" font-size="13" lengthAdjust="spacing" textLength="24.1338" x="984.5" y="954.6494">&#1084;&#1091;&#1078;</text></g><!--reverse link Zoey to Gabe--><g id="link_Zoey_Gabe"><path d="M1332.5,852.8711 C1332.5,869.9111 1332.5,883.4411 1332.5,900.4711 " fill="none" id="Zoey-backto-Gabe" style="stroke:#0000FF;stroke-width:1.0;"/><polygon fill="#0000FF" points="1332.5,846.8711,1328.5,855.8711,1332.5,851.8711,1336.5,855.8711,1332.5,846.8711" style="stroke:#0000FF;stroke-width:1.0;"/><text fill="#228B22" font-family="sans-serif" font-size="13" lengthAdjust="spacing" textLength="26.0571" x="1307" y="879.1494">&#1076;&#1088;&#1091;&#1075;</text></g><!--link new_school to Su--><g id="link_new_school_Su"><path d="M1680,819.3311 C1680,833.3411 1680,853.9911 1680,872.5811 " fill="none" id="new_school-Su" style="stroke:#0000FF;stroke-width:1.0;"/><text fill="#228B22" font-family="sans-serif" font-size="13" lengthAdjust="spacing" textLength="121.3354" x="1607" y="851.3994">&#1087;&#1086;&#1084;&#1086;&#1097;&#1085;&#1080;&#1082; &#1090;&#1088;&#1077;&#1085;&#1077;&#1085;&#1088;&#1072;</text></g><!--link banquet to Daniel--><g id="link_banquet_Daniel"><path d="M541.61,825.8011 C620.74,855.5911 765,909.8911 816.82,929.4011 " fill="none" id="banquet-Daniel" style="stroke:#0000FF;stroke-width:1.0;"/><text fill="#228B22" font-family="sans-serif" font-size="13" lengthAdjust="spacing" textLength="55.4087" x="650.5" y="854.6494">&#1076;&#1080;&#1088;&#1077;&#1082;&#1090;&#1086;&#1088;</text></g><!--link banquet to Alva--><g id="link_banquet_Alva"><path d="M569.07,790.7211 C655.38,773.6011 795.21,742.3011 911,699.6211 C982.48,673.2711 1060.96,626.2511 1092.37,606.6211 " fill="none" id="banquet-Alva" style="stroke:#0000FF;stroke-width:1.0;"/></g><!--link banquet to Zoey--><g id="link_banquet_Zoey"><path d="M593.12,805.3711 C796.5,804.8911 1231.34,803.8611 1316.76,803.6511 " fill="none" id="banquet-Zoey" style="stroke:#0000FF;stroke-width:1.0;"/></g><!--link Charles Zhe to banquet--><g id="link_Charles Zhe_banquet"><path d="M227.19,911.4211 C279.9,889.8711 376.5,850.3811 435.61,826.2211 " fill="none" id="Charles Zhe-banquet" style="stroke:#0000FF;stroke-width:1.0;"/><text fill="#228B22" font-family="sans-serif" font-size="13" lengthAdjust="spacing" textLength="55.4087" x="277" y="857.6494">&#1076;&#1080;&#1088;&#1077;&#1082;&#1090;&#1086;&#1088;</text></g><!--link Lily to banquet--><g id="link_Lily_banquet"><path d="M218.11,696.1111 C268.04,716.5211 372.83,759.3611 435.53,784.9911 " fill="none" id="Lily-banquet" style="stroke:#0000FF;stroke-width:1.0;"/></g><!--link Alice Fan to banquet--><g id="link_Alice Fan_banquet"><path d="M218.11,805.6211 C255.27,805.6211 322.81,805.6211 380.78,805.6211 " fill="none" id="Alice Fan-banquet" style="stroke:#0000FF;stroke-width:1.0;"/><text fill="#228B22" font-family="sans-serif" font-size="13" lengthAdjust="spacing" textLength="55.4087" x="277" y="801.6494">&#1076;&#1080;&#1088;&#1077;&#1082;&#1090;&#1086;&#1088;</text></g><!--link Ms. McCoy to new_school--><g id="link_Ms. McCoy_new_school"><path d="M1680,732.7311 C1680,751.3211 1680,771.9511 1680,785.9511 " fill="none" id="Ms. McCoy-new_school" style="stroke:#0000FF;stroke-width:1.0;"/><text fill="#228B22" font-family="sans-serif" font-size="13" lengthAdjust="spacing" textLength="61.1279" x="1637" y="764.8994">&#1080;&#1089;&#1090;&#1086;&#1088;&#1080;&#1095;&#1082;&#1072;</text></g><!--link Fang to "Old Two"--><g id="link_Fang_&quot;Old Two&quot;"><path d="M1133.22,303.6211 C1174.38,303.6211 1250.84,303.6211 1295.35,303.6211 " fill="none" id="Fang-to-&quot;Old Two&quot;" style="stroke:#0000FF;stroke-width:1.0;"/><polygon fill="#0000FF" points="1301.35,303.6211,1292.35,299.6211,1296.35,303.6211,1292.35,307.6211,1301.35,303.6211" style="stroke:#0000FF;stroke-width:1.0;"/><text fill="#228B22" font-family="sans-serif" font-size="13" lengthAdjust="spacing" textLength="27.8599" x="1193.5" y="299.6494">&#1073;&#1088;&#1072;&#1090;</text></g><!--link Alva to ???????--><g id="link_Alva_&#1061;&#1072;&#1081;&#1085;&#1072;&#1085;&#1100;"><path d="M1122.79,596.0211 C1154.61,592.4511 1232.52,583.7211 1283.62,577.9911 " fill="none" id="Alva-&#1061;&#1072;&#1081;&#1085;&#1072;&#1085;&#1100;" style="stroke:#0000FF;stroke-width:1.0;"/></g><!--link ??????? to Su Lin--><g id="link_&#1061;&#1072;&#1081;&#1085;&#1072;&#1085;&#1100;_Su Lin"><path d="M1384.11,572.0311 C1461.89,571.1311 1607.32,569.4511 1659.63,568.8411 " fill="none" id="&#1061;&#1072;&#1081;&#1085;&#1072;&#1085;&#1100;-Su Lin" style="stroke:#0000FF;stroke-width:1.0;"/><text fill="#228B22" font-family="sans-serif" font-size="13" lengthAdjust="spacing" textLength="62.9116" x="1465.5" y="565.6494">&#1073;&#1072;&#1088;&#1084;&#1077;&#1085;&#1096;&#1072;</text></g><!--SRC=[XLRDJXn74BxtKxJiGq0oaNo8b8pGHXQE4qMBecGj4Vk2XjrcjyKmJUO7H4w07SUHYPn393z1xiC2PhtBhb-XvutoLVNyxR9n3h3TLTNr-rNL16etaOcHaUuF4jdJaUecseGYtjEXZ4oi-7JWH_w-tF6xU_t8f66lQm8JoLZvyK05GKEaftRzD4XsJPWucVixaJaA6n9-14B92rAro6eytJMHYfD-f5GeHAAJGCcVzA6Av3T-d3mepbiG4SBh1COFFNd_G8Txk3uA3ltwraxb4p_iUzAF-L0pjFnPXqTACwkjXM0zSgqbIOFqfBsrMNwMdmiX-2KuJWIieRIZ_CpExAMzXc3-mhuNbToQNCbFxT1czYe_jnSsMwKdx-srdUBLRwMXvM9JY0tjTNuAzPbWL_v3yihEyj_pyxad-HjuSKSO2hmdYhA0PvTuTifnBPLhfmjIeKcKDA4Ca3VYZEp4ZcJ-9uKleI6pjxB8yjUK0oHshP74IVu2Nhv6AjzA-n4PkyfFaAvB10S7NjinI9F2UFbc1jqKq1bdOSY9cpeDDpQJzc_xxivRgg3tV405w0nymrNbAyZV-WR5ziqkuGHqt47TZ3-N7LDWWmwCYhJ0Gog4qyRPRzWY_v3xAVwFYG8VJxcmhoWaF2IW80cUZDC35HtgM4MBeR8v2H5A3YFf6eawhzMGntSDipIZo8xXx5EKb43C7jD5U8zDlt_CTpu9mJ9K3z98e77P5ynUne3U3Ntike8EXASVTTZl-UQ1VFZLbr-i4gUW244Y2BZbcgk2EK8eH2WCrjEuaspppWq1mz-bPQloINXKDDZod4dXVQ_t-OnVD7eQ9bh9hVBD5ZzvbigDWGAdgFKp55AmEh9K6eMZ7_CJBcJ6K7j5xKw9fgfcS4vMmdof0npcRn3YJG613x8eq0H40lNM7Kk01te9x2jIZQjywDedGxAGA7Xy5s8ZUqFjai79hD3k048ZPoORq8C6f6CnE2WOGdP86ggvrABsbfk4678BWKoB0YvbYSya6nnowzKEIliNEpEaQREoL8H14ggZxRWxC2OGrI1hqj21ifEe8p_gkHvqPo5g8KQ78t-YMxpdHZdKqw4orkAh6wgbYuiZY2KM_5h1W9bXgjbt-1bnABz2R7jWzbNzea6QzzTx50y2yaTwdveK0FEnCGwaUrXtM0dhwvG_bFmwVmj1eANLMjJkHF7S3NHQQpXizo9QYL2Q1jftFK8dp3uT1LenfSz7m8KuS_cfDbt9QaPN7RbrQsFS31nXLP9vMMVFTS24LYIWp549KGHCUuAJvJ0xLndliHzg5RXXnaSXtE-yVnMj3eVs1rgwoNA1UTMknaxOKSKos2chkhx6jxbno21rIw6JpXS3XD9lp8xy3pUO9J9vmaCGVzI-DFnVyjf4-CoSKN_IA4TYnk1WY5mKkS7IOy3j-E4lgSBdJN6Wc8jmUFMFsCQObZ0Ql1BY5Tfyunh2snZuKQ1e8o9ea4k99RemTB6-3afqjNLmBEXVunbzPEckef7uVzhScjtiRXWqHBFDUCZnVYV0KpOO6FMaklT3q9DFZymz_Xwve4pcP_KWMR7_86KVQDSWg-UhrBRp5Ev5bAZjXXgb64fkkIpu7X7_0W00]--></g></svg>