<svg xmlns="http://www.w3.org/2000/svg" xmlns:xlink="http://www.w3.org/1999/xlink" contentStyleType="text/css" height="1206px" preserveAspectRatio="none" style="width:1970px;height:1206px;background:#FFF5EE;" version="1.1" viewBox="0 0 1970 1206" width="1970px" zoomAndPan="magnify"><title>River East, River West</title><defs><filter height="300%" id="fj0x9o4caqgdz" width="300%" x="-1" y="-1"><feGaussianBlur result="blurOut" stdDeviation="2.0"/><feColorMatrix in="blurOut" result="blurOut2" type="matrix" values="0 0 0 0 0 0 0 0 0 0 0 0 0 0 0 0 0 0 .4 0"/><feOffset dx="4.0" dy="4.0" in="blurOut2" result="blurOut3"/><feBlend in="SourceGraphic" in2="blurOut3" mode="normal"/></filter></defs><g><rect fill="#FFF5EE" height="1206" style="stroke:none;stroke-width:1.0;" width="1970" x="0" y="0"/><text fill="#A52A2A" font-family="sans-serif" font-size="14" font-weight="bold" lengthAdjust="spacing" textLength="148.6201" x="903.75" y="25.1074">River East, River West</text><!--entity Sloan--><g id="elem_Sloan"><ellipse cx="1094.4033" cy="370.6211" fill="#FFC0CB" filter="url(#fj0x9o4caqgdz)" rx="8" ry="8" style="stroke:#A80036;stroke-width:2.0;"/><path d="M1094.4033,378.6211 L1094.4033,405.6211 M1081.4033,386.6211 L1107.4033,386.6211 M1094.4033,405.6211 L1081.4033,420.6211 M1094.4033,405.6211 L1107.4033,420.6211 " fill="none" filter="url(#fj0x9o4caqgdz)" style="stroke:#A80036;stroke-width:2.0;"/><text fill="#A52A2A" font-family="sans-serif" font-size="14" lengthAdjust="spacing" textLength="35.8066" x="1076.5" y="442.7285">Sloan</text></g><!--entity Alva--><g id="elem_Alva"><ellipse cx="1094.5" cy="650.6211" fill="#FFC0CB" filter="url(#fj0x9o4caqgdz)" rx="8" ry="8" style="stroke:#A80036;stroke-width:2.0;"/><path d="M1094.5,658.6211 L1094.5,685.6211 M1081.5,666.6211 L1107.5,666.6211 M1094.5,685.6211 L1081.5,700.6211 M1094.5,685.6211 L1107.5,700.6211 " fill="none" filter="url(#fj0x9o4caqgdz)" style="stroke:#A80036;stroke-width:2.0;"/><text fill="#A52A2A" font-family="sans-serif" font-size="14" lengthAdjust="spacing" textLength="27.2344" x="1080.8828" y="722.7285">Alva</text></g><!--entity Fang--><g id="elem_Fang"><ellipse cx="1094.686" cy="230.6211" fill="#FFC0CB" filter="url(#fj0x9o4caqgdz)" rx="8" ry="8" style="stroke:#A80036;stroke-width:2.0;"/><path d="M1094.686,238.6211 L1094.686,265.6211 M1081.686,246.6211 L1107.686,246.6211 M1094.686,265.6211 L1081.686,280.6211 M1094.686,265.6211 L1107.686,280.6211 " fill="none" filter="url(#fj0x9o4caqgdz)" style="stroke:#A80036;stroke-width:2.0;"/><text fill="#A52A2A" font-family="sans-serif" font-size="14" lengthAdjust="spacing" textLength="51.3721" x="1069" y="302.7285">Lu Fang</text></g><!--entity Li--><g id="elem_Li"><ellipse cx="837.0137" cy="553.6211" fill="#FEFECE" filter="url(#fj0x9o4caqgdz)" rx="8" ry="8" style="stroke:#A80036;stroke-width:2.0;"/><path d="M837.0137,561.6211 L837.0137,588.6211 M824.0137,569.6211 L850.0137,569.6211 M837.0137,588.6211 L824.0137,603.6211 M837.0137,588.6211 L850.0137,603.6211 " fill="none" filter="url(#fj0x9o4caqgdz)" style="stroke:#A80036;stroke-width:2.0;"/><text fill="#A52A2A" font-family="sans-serif" font-size="14" lengthAdjust="spacing" textLength="56.0273" x="809" y="625.7285">Li Xinwei</text></g><g id="elem_&#1089;&#1074;&#1072;&#1076;&#1100;&#1073;&#1072;"><ellipse cx="1317.9204" cy="403.462" fill="#FEFECE" filter="url(#fj0x9o4caqgdz)" rx="49.9204" ry="16.3409" style="stroke:#A80036;stroke-width:1.0;"/><text fill="#A52A2A" font-family="sans-serif" font-size="14" lengthAdjust="spacing" textLength="53.4912" x="1288.1748" y="408.2657">&#1089;&#1074;&#1072;&#1076;&#1100;&#1073;&#1072;</text></g><!--entity Feng--><g id="elem_Feng"><ellipse cx="1663.9551" cy="480.6211" fill="#FEFECE" filter="url(#fj0x9o4caqgdz)" rx="8" ry="8" style="stroke:#A80036;stroke-width:2.0;"/><path d="M1663.9551,488.6211 L1663.9551,515.6211 M1650.9551,496.6211 L1676.9551,496.6211 M1663.9551,515.6211 L1650.9551,530.6211 M1663.9551,515.6211 L1676.9551,530.6211 " fill="none" filter="url(#fj0x9o4caqgdz)" style="stroke:#A80036;stroke-width:2.0;"/><text fill="#A52A2A" font-family="sans-serif" font-size="14" lengthAdjust="spacing" textLength="31.9102" x="1648" y="552.7285">Feng</text></g><!--entity Lu--><g id="elem_Lu"><ellipse cx="1664" cy="359.6211" fill="#FEFECE" filter="url(#fj0x9o4caqgdz)" rx="8" ry="8" style="stroke:#A80036;stroke-width:2.0;"/><path d="M1664,367.6211 L1664,394.6211 M1651,375.6211 L1677,375.6211 M1664,394.6211 L1651,409.6211 M1664,394.6211 L1677,409.6211 " fill="none" filter="url(#fj0x9o4caqgdz)" style="stroke:#A80036;stroke-width:2.0;"/><text fill="#A52A2A" font-family="sans-serif" font-size="14" lengthAdjust="spacing" textLength="15.5723" x="1656.2139" y="431.7285">Lu</text></g><g id="elem_&#1096;&#1082;&#1086;&#1083;&#1072;"><ellipse cx="487.1929" cy="683.8398" fill="#FEFECE" filter="url(#fj0x9o4caqgdz)" rx="40.6929" ry="16.2187" style="stroke:#A80036;stroke-width:1.0;"/><text fill="#A52A2A" font-family="sans-serif" font-size="14" lengthAdjust="spacing" textLength="41.0977" x="464.2907" y="688.462">&#1096;&#1082;&#1086;&#1083;&#1072;</text></g><!--entity Zhang--><g id="elem_Zhang"><ellipse cx="189.1411" cy="650.6211" fill="#FEFECE" filter="url(#fj0x9o4caqgdz)" rx="8" ry="8" style="stroke:#A80036;stroke-width:2.0;"/><path d="M189.1411,658.6211 L189.1411,685.6211 M176.1411,666.6211 L202.1411,666.6211 M189.1411,685.6211 L176.1411,700.6211 M189.1411,685.6211 L202.1411,700.6211 " fill="none" filter="url(#fj0x9o4caqgdz)" style="stroke:#A80036;stroke-width:2.0;"/><text fill="#A52A2A" font-family="sans-serif" font-size="14" lengthAdjust="spacing" textLength="76.2822" x="151" y="722.7285">Zhang Shao</text></g><!--entity Gao--><g id="elem_Gao"><ellipse cx="188.917" cy="529.6211" fill="#FEFECE" filter="url(#fj0x9o4caqgdz)" rx="8" ry="8" style="stroke:#A80036;stroke-width:2.0;"/><path d="M188.917,537.6211 L188.917,564.6211 M175.917,545.6211 L201.917,545.6211 M188.917,564.6211 L175.917,579.6211 M188.917,564.6211 L201.917,579.6211 " fill="none" filter="url(#fj0x9o4caqgdz)" style="stroke:#A80036;stroke-width:2.0;"/><text fill="#A52A2A" font-family="sans-serif" font-size="14" lengthAdjust="spacing" textLength="77.834" x="150" y="601.7285">Gao Xiaofan</text></g><!--entity Song--><g id="elem_Song"><ellipse cx="487.0688" cy="763.6211" fill="#FEFECE" filter="url(#fj0x9o4caqgdz)" rx="8" ry="8" style="stroke:#A80036;stroke-width:2.0;"/><path d="M487.0688,771.6211 L487.0688,798.6211 M474.0688,779.6211 L500.0688,779.6211 M487.0688,798.6211 L474.0688,813.6211 M487.0688,798.6211 L500.0688,813.6211 " fill="none" filter="url(#fj0x9o4caqgdz)" style="stroke:#A80036;stroke-width:2.0;"/><text fill="#A52A2A" font-family="sans-serif" font-size="14" lengthAdjust="spacing" textLength="59.1377" x="457.5" y="835.7285">Ms. Song</text></g><!--entity Liu--><g id="elem_Liu"><ellipse cx="837" cy="413.6211" fill="#FEFECE" filter="url(#fj0x9o4caqgdz)" rx="8" ry="8" style="stroke:#A80036;stroke-width:2.0;"/><path d="M837,421.6211 L837,448.6211 M824,429.6211 L850,429.6211 M837,448.6211 L824,463.6211 M837,448.6211 L850,463.6211 " fill="none" filter="url(#fj0x9o4caqgdz)" style="stroke:#A80036;stroke-width:2.0;"/><text fill="#A52A2A" font-family="sans-serif" font-size="14" lengthAdjust="spacing" textLength="18.6826" x="827.6587" y="485.7285">Liu</text></g><!--entity Teng--><g id="elem_Teng"><ellipse cx="34.0171" cy="469.6211" fill="#FEFECE" filter="url(#fj0x9o4caqgdz)" rx="8" ry="8" style="stroke:#A80036;stroke-width:2.0;"/><path d="M34.0171,477.6211 L34.0171,504.6211 M21.0171,485.6211 L47.0171,485.6211 M34.0171,504.6211 L21.0171,519.6211 M34.0171,504.6211 L47.0171,519.6211 " fill="none" filter="url(#fj0x9o4caqgdz)" style="stroke:#A80036;stroke-width:2.0;"/><text fill="#A52A2A" font-family="sans-serif" font-size="14" lengthAdjust="spacing" textLength="56.0342" x="6" y="541.7285">Teng Xin</text></g><!--entity Doggy--><g id="elem_Doggy"><ellipse cx="34.2344" cy="590.6211" fill="#FEFECE" filter="url(#fj0x9o4caqgdz)" rx="8" ry="8" style="stroke:#A80036;stroke-width:2.0;"/><path d="M34.2344,598.6211 L34.2344,625.6211 M21.2344,606.6211 L47.2344,606.6211 M34.2344,625.6211 L21.2344,640.6211 M34.2344,625.6211 L47.2344,640.6211 " fill="none" filter="url(#fj0x9o4caqgdz)" style="stroke:#A80036;stroke-width:2.0;"/><text fill="#A52A2A" font-family="sans-serif" font-size="14" lengthAdjust="spacing" textLength="40.4688" x="14" y="662.7285">Doggy</text></g><!--entity Ciyi--><g id="elem_Ciyi"><ellipse cx="1094.5" cy="90.6211" fill="#FEFECE" filter="url(#fj0x9o4caqgdz)" rx="8" ry="8" style="stroke:#A80036;stroke-width:2.0;"/><path d="M1094.5,98.6211 L1094.5,125.6211 M1081.5,106.6211 L1107.5,106.6211 M1094.5,125.6211 L1081.5,140.6211 M1094.5,125.6211 L1107.5,140.6211 " fill="none" filter="url(#fj0x9o4caqgdz)" style="stroke:#A80036;stroke-width:2.0;"/><text fill="#A52A2A" font-family="sans-serif" font-size="14" lengthAdjust="spacing" textLength="23.3311" x="1082.8345" y="162.7285">Ciyi</text></g><g id="elem_Qingdao"><ellipse cx="837.0991" cy="263.8409" fill="#FEFECE" filter="url(#fj0x9o4caqgdz)" rx="74.0991" ry="17.2198" style="stroke:#A80036;stroke-width:1.0;"/><text fill="#A52A2A" font-family="sans-serif" font-size="14" lengthAdjust="spacing" textLength="91.8545" x="788.1719" y="268.6446">Qingdao, 1985</text></g><!--entity Huang--><g id="elem_Huang"><ellipse cx="487.1274" cy="174.6211" fill="#FEFECE" filter="url(#fj0x9o4caqgdz)" rx="8" ry="8" style="stroke:#A80036;stroke-width:2.0;"/><path d="M487.1274,182.6211 L487.1274,209.6211 M474.1274,190.6211 L500.1274,190.6211 M487.1274,209.6211 L474.1274,224.6211 M487.1274,209.6211 L500.1274,224.6211 " fill="none" filter="url(#fj0x9o4caqgdz)" style="stroke:#A80036;stroke-width:2.0;"/><text fill="#A52A2A" font-family="sans-serif" font-size="14" lengthAdjust="spacing" textLength="41.2549" x="466.5" y="246.7285">Huang</text></g><!--entity Qi--><g id="elem_Qi"><ellipse cx="486.9551" cy="53.6211" fill="#FEFECE" filter="url(#fj0x9o4caqgdz)" rx="8" ry="8" style="stroke:#A80036;stroke-width:2.0;"/><path d="M486.9551,61.6211 L486.9551,88.6211 M473.9551,69.6211 L499.9551,69.6211 M486.9551,88.6211 L473.9551,103.6211 M486.9551,88.6211 L499.9551,103.6211 " fill="none" filter="url(#fj0x9o4caqgdz)" style="stroke:#A80036;stroke-width:2.0;"/><text fill="#A52A2A" font-family="sans-serif" font-size="14" lengthAdjust="spacing" textLength="45.9102" x="464" y="125.7285">Xiao Qi</text></g><!--entity Jim--><g id="elem_Jim"><ellipse cx="487" cy="295.6211" fill="#FEFECE" filter="url(#fj0x9o4caqgdz)" rx="8" ry="8" style="stroke:#A80036;stroke-width:2.0;"/><path d="M487,303.6211 L487,330.6211 M474,311.6211 L500,311.6211 M487,330.6211 L474,345.6211 M487,330.6211 L500,345.6211 " fill="none" filter="url(#fj0x9o4caqgdz)" style="stroke:#A80036;stroke-width:2.0;"/><text fill="#A52A2A" font-family="sans-serif" font-size="14" lengthAdjust="spacing" textLength="21.7725" x="476.1138" y="367.7285">Jim</text></g><!--entity Wang--><g id="elem_Wang"><ellipse cx="487.0791" cy="416.6211" fill="#FEFECE" filter="url(#fj0x9o4caqgdz)" rx="8" ry="8" style="stroke:#A80036;stroke-width:2.0;"/><path d="M487.0791,424.6211 L487.0791,451.6211 M474.0791,432.6211 L500.0791,432.6211 M487.0791,451.6211 L474.0791,466.6211 M487.0791,451.6211 L500.0791,466.6211 " fill="none" filter="url(#fj0x9o4caqgdz)" style="stroke:#A80036;stroke-width:2.0;"/><text fill="#A52A2A" font-family="sans-serif" font-size="14" lengthAdjust="spacing" textLength="80.1582" x="447" y="488.7285">Auntie Wang</text></g><!--entity Yu--><g id="elem_Yu"><ellipse cx="487.0273" cy="537.6211" fill="#FEFECE" filter="url(#fj0x9o4caqgdz)" rx="8" ry="8" style="stroke:#A80036;stroke-width:2.0;"/><path d="M487.0273,545.6211 L487.0273,572.6211 M474.0273,553.6211 L500.0273,553.6211 M487.0273,572.6211 L474.0273,587.6211 M487.0273,572.6211 L500.0273,587.6211 " fill="none" filter="url(#fj0x9o4caqgdz)" style="stroke:#A80036;stroke-width:2.0;"/><text fill="#A52A2A" font-family="sans-serif" font-size="14" lengthAdjust="spacing" textLength="77.0547" x="448.5" y="609.7285">Yu Chentian</text></g><!--entity Lu Min--><g id="elem_Lu Min"><ellipse cx="1318.0103" cy="100.6211" fill="#FEFECE" filter="url(#fj0x9o4caqgdz)" rx="8" ry="8" style="stroke:#A80036;stroke-width:2.0;"/><path d="M1318.0103,108.6211 L1318.0103,135.6211 M1305.0103,116.6211 L1331.0103,116.6211 M1318.0103,135.6211 L1305.0103,150.6211 M1318.0103,135.6211 L1331.0103,150.6211 " fill="none" filter="url(#fj0x9o4caqgdz)" style="stroke:#A80036;stroke-width:2.0;"/><text fill="#A52A2A" font-family="sans-serif" font-size="14" lengthAdjust="spacing" textLength="42.0205" x="1297" y="172.7285">Lu Min</text></g><g id="elem_new_school"><ellipse cx="1664.2295" cy="754.767" fill="#FEFECE" filter="url(#fj0x9o4caqgdz)" rx="71.2295" ry="16.6459" style="stroke:#A80036;stroke-width:1.0;"/><text fill="#A52A2A" font-family="sans-serif" font-size="14" lengthAdjust="spacing" textLength="83.3096" x="1619.5747" y="759.5707">&#1085;&#1086;&#1074;&#1072;&#1103; &#1096;&#1082;&#1086;&#1083;&#1072;</text></g><!--entity Steward--><g id="elem_Steward"><ellipse cx="1925.4551" cy="842.6211" fill="#FEFECE" filter="url(#fj0x9o4caqgdz)" rx="8" ry="8" style="stroke:#A80036;stroke-width:2.0;"/><path d="M1925.4551,850.6211 L1925.4551,877.6211 M1912.4551,858.6211 L1938.4551,858.6211 M1925.4551,877.6211 L1912.4551,892.6211 M1925.4551,877.6211 L1938.4551,892.6211 " fill="none" filter="url(#fj0x9o4caqgdz)" style="stroke:#A80036;stroke-width:2.0;"/><text fill="#A52A2A" font-family="sans-serif" font-size="14" lengthAdjust="spacing" textLength="73.9102" x="1888.5" y="914.7285">Ms Steward</text></g><!--entity Zoey--><g id="elem_Zoey"><ellipse cx="1318.062" cy="783.6211" fill="#FEFECE" filter="url(#fj0x9o4caqgdz)" rx="8" ry="8" style="stroke:#A80036;stroke-width:2.0;"/><path d="M1318.062,791.6211 L1318.062,818.6211 M1305.062,799.6211 L1331.062,799.6211 M1318.062,818.6211 L1305.062,833.6211 M1318.062,818.6211 L1331.062,833.6211 " fill="none" filter="url(#fj0x9o4caqgdz)" style="stroke:#A80036;stroke-width:2.0;"/><text fill="#A52A2A" font-family="sans-serif" font-size="14" lengthAdjust="spacing" textLength="31.124" x="1302.5" y="855.7285">Zoey</text></g><g id="elem_zoey_home"><ellipse cx="1663.9295" cy="1052.4729" fill="#FEFECE" filter="url(#fj0x9o4caqgdz)" rx="50.9295" ry="16.3518" style="stroke:#A80036;stroke-width:1.0;"/><text fill="#A52A2A" font-family="sans-serif" font-size="14" lengthAdjust="spacing" textLength="54.8447" x="1633.5071" y="1057.2766">&#1044;&#1086;&#1084; &#1047;&#1086;&#1080;</text></g><!--entity Ashley--><g id="elem_Ashley"><ellipse cx="1925.5103" cy="721.6211" fill="#FEFECE" filter="url(#fj0x9o4caqgdz)" rx="8" ry="8" style="stroke:#A80036;stroke-width:2.0;"/><path d="M1925.5103,729.6211 L1925.5103,756.6211 M1912.5103,737.6211 L1938.5103,737.6211 M1925.5103,756.6211 L1912.5103,771.6211 M1925.5103,756.6211 L1938.5103,771.6211 " fill="none" filter="url(#fj0x9o4caqgdz)" style="stroke:#A80036;stroke-width:2.0;"/><text fill="#A52A2A" font-family="sans-serif" font-size="14" lengthAdjust="spacing" textLength="42.0205" x="1904.5" y="793.7285">Ashley</text></g><!--entity korean--><g id="elem_korean"><ellipse cx="1925.5601" cy="582.2422" fill="#FEFECE" filter="url(#fj0x9o4caqgdz)" rx="8" ry="8" style="stroke:#A80036;stroke-width:2.0;"/><path d="M1925.5601,590.2422 L1925.5601,617.2422 M1912.5601,598.2422 L1938.5601,598.2422 M1925.5601,617.2422 L1912.5601,632.2422 M1925.5601,617.2422 L1938.5601,632.2422 " fill="none" filter="url(#fj0x9o4caqgdz)" style="stroke:#A80036;stroke-width:2.0;"/><text fill="#A52A2A" font-family="sans-serif" font-size="14" lengthAdjust="spacing" textLength="40.4688" x="1905.3257" y="654.3496">Jiyoon</text><text fill="#A52A2A" font-family="sans-serif" font-size="14" font-style="italic" lengthAdjust="spacing" textLength="75.1201" x="1888" y="568.7285">&#171;&#1082;&#1086;&#1088;&#1077;&#1103;&#1085;&#1082;&#1072;&#187;</text></g><!--entity Feng_driver--><g id="elem_Feng_driver"><ellipse cx="1925.4551" cy="1125.6211" fill="#FEFECE" filter="url(#fj0x9o4caqgdz)" rx="8" ry="8" style="stroke:#A80036;stroke-width:2.0;"/><path d="M1925.4551,1133.6211 L1925.4551,1160.6211 M1912.4551,1141.6211 L1938.4551,1141.6211 M1925.4551,1160.6211 L1912.4551,1175.6211 M1925.4551,1160.6211 L1938.4551,1175.6211 " fill="none" filter="url(#fj0x9o4caqgdz)" style="stroke:#A80036;stroke-width:2.0;"/><text fill="#A52A2A" font-family="sans-serif" font-size="14" lengthAdjust="spacing" textLength="31.9102" x="1909.5" y="1197.7285">Feng</text></g><!--entity Julia--><g id="elem_Julia"><ellipse cx="1094.5" cy="994.6211" fill="#FEFECE" filter="url(#fj0x9o4caqgdz)" rx="8" ry="8" style="stroke:#A80036;stroke-width:2.0;"/><path d="M1094.5,1002.6211 L1094.5,1029.6211 M1081.5,1010.6211 L1107.5,1010.6211 M1094.5,1029.6211 L1081.5,1044.6211 M1094.5,1029.6211 L1107.5,1044.6211 " fill="none" filter="url(#fj0x9o4caqgdz)" style="stroke:#A80036;stroke-width:2.0;"/><text fill="#A52A2A" font-family="sans-serif" font-size="14" lengthAdjust="spacing" textLength="28.793" x="1080.1035" y="1066.7285">Julia</text></g><!--entity girlie--><g id="elem_girlie"><ellipse cx="1925.3345" cy="1004.6211" fill="#FEFECE" filter="url(#fj0x9o4caqgdz)" rx="8" ry="8" style="stroke:#A80036;stroke-width:2.0;"/><path d="M1925.3345,1012.6211 L1925.3345,1039.6211 M1912.3345,1020.6211 L1938.3345,1020.6211 M1925.3345,1039.6211 L1912.3345,1054.6211 M1925.3345,1039.6211 L1938.3345,1054.6211 " fill="none" filter="url(#fj0x9o4caqgdz)" style="stroke:#A80036;stroke-width:2.0;"/><text fill="#A52A2A" font-family="sans-serif" font-size="14" lengthAdjust="spacing" textLength="32.6689" x="1909" y="1076.7285">Girlie</text></g><!--entity Daniel--><g id="elem_Daniel"><ellipse cx="836.8447" cy="950.6211" fill="#FEFECE" filter="url(#fj0x9o4caqgdz)" rx="8" ry="8" style="stroke:#A80036;stroke-width:2.0;"/><path d="M836.8447,958.6211 L836.8447,985.6211 M823.8447,966.6211 L849.8447,966.6211 M836.8447,985.6211 L823.8447,1000.6211 M836.8447,985.6211 L849.8447,1000.6211 " fill="none" filter="url(#fj0x9o4caqgdz)" style="stroke:#A80036;stroke-width:2.0;"/><text fill="#A52A2A" font-family="sans-serif" font-size="14" lengthAdjust="spacing" textLength="39.6895" x="817" y="1022.7285">Daniel</text></g><!--entity Gabe--><g id="elem_Gabe"><ellipse cx="1318.124" cy="923.6211" fill="#FEFECE" filter="url(#fj0x9o4caqgdz)" rx="8" ry="8" style="stroke:#A80036;stroke-width:2.0;"/><path d="M1318.124,931.6211 L1318.124,958.6211 M1305.124,939.6211 L1331.124,939.6211 M1318.124,958.6211 L1305.124,973.6211 M1318.124,958.6211 L1331.124,973.6211 " fill="none" filter="url(#fj0x9o4caqgdz)" style="stroke:#A80036;stroke-width:2.0;"/><text fill="#A52A2A" font-family="sans-serif" font-size="14" lengthAdjust="spacing" textLength="34.248" x="1301" y="995.7285">Gabe</text></g><!--entity Su--><g id="elem_Su"><ellipse cx="1663.8379" cy="834.6211" fill="#FEFECE" filter="url(#fj0x9o4caqgdz)" rx="8" ry="8" style="stroke:#A80036;stroke-width:2.0;"/><path d="M1663.8379,842.6211 L1663.8379,869.6211 M1650.8379,850.6211 L1676.8379,850.6211 M1663.8379,869.6211 L1650.8379,884.6211 M1663.8379,869.6211 L1676.8379,884.6211 " fill="none" filter="url(#fj0x9o4caqgdz)" style="stroke:#A80036;stroke-width:2.0;"/><text fill="#A52A2A" font-family="sans-serif" font-size="14" lengthAdjust="spacing" textLength="39.6758" x="1644" y="906.7285">Ms Su</text></g><g id="elem_banquet"><ellipse cx="487.1101" cy="912.7431" fill="#FEFECE" filter="url(#fj0x9o4caqgdz)" rx="106.1101" ry="23.622" style="stroke:#A80036;stroke-width:1.0;"/><text fill="#A52A2A" font-family="sans-serif" font-size="14" lengthAdjust="spacing" textLength="172.0059" x="401.1072" y="916.54">&#1092;&#1080;&#1083;&#1072;&#1085;&#1090;&#1088;&#1086;&#1087;&#1080;&#1095;&#1077;&#1089;&#1082;&#1080;&#1081; &#1073;&#1072;&#1085;&#1082;&#1077;&#1090;</text></g><!--entity Charles Zhe--><g id="elem_Charles Zhe"><ellipse cx="189.1274" cy="771.6211" fill="#FEFECE" filter="url(#fj0x9o4caqgdz)" rx="8" ry="8" style="stroke:#A80036;stroke-width:2.0;"/><path d="M189.1274,779.6211 L189.1274,806.6211 M176.1274,787.6211 L202.1274,787.6211 M189.1274,806.6211 L176.1274,821.6211 M189.1274,806.6211 L202.1274,821.6211 " fill="none" filter="url(#fj0x9o4caqgdz)" style="stroke:#A80036;stroke-width:2.0;"/><text fill="#A52A2A" font-family="sans-serif" font-size="14" lengthAdjust="spacing" textLength="76.2549" x="151" y="843.7285">Charles Zhe</text></g><!--entity Lily--><g id="elem_Lily"><ellipse cx="189.1895" cy="892.6211" fill="#FEFECE" filter="url(#fj0x9o4caqgdz)" rx="8" ry="8" style="stroke:#A80036;stroke-width:2.0;"/><path d="M189.1895,900.6211 L189.1895,927.6211 M176.1895,908.6211 L202.1895,908.6211 M189.1895,927.6211 L176.1895,942.6211 M189.1895,927.6211 L202.1895,942.6211 " fill="none" filter="url(#fj0x9o4caqgdz)" style="stroke:#A80036;stroke-width:2.0;"/><text fill="#A52A2A" font-family="sans-serif" font-size="14" lengthAdjust="spacing" textLength="58.3789" x="160" y="964.7285">Xi Lipeng</text></g><!--entity Alice Fan--><g id="elem_Alice Fan"><ellipse cx="189.1792" cy="1013.6211" fill="#FEFECE" filter="url(#fj0x9o4caqgdz)" rx="8" ry="8" style="stroke:#A80036;stroke-width:2.0;"/><path d="M189.1792,1021.6211 L189.1792,1048.6211 M176.1792,1029.6211 L202.1792,1029.6211 M189.1792,1048.6211 L176.1792,1063.6211 M189.1792,1048.6211 L202.1792,1063.6211 " fill="none" filter="url(#fj0x9o4caqgdz)" style="stroke:#A80036;stroke-width:2.0;"/><text fill="#A52A2A" font-family="sans-serif" font-size="14" lengthAdjust="spacing" textLength="58.3584" x="160" y="1085.7285">Alice Fan</text></g><!--entity Ms. McCoy--><g id="elem_Ms. McCoy"><ellipse cx="1664" cy="608.6211" fill="#FEFECE" filter="url(#fj0x9o4caqgdz)" rx="8" ry="8" style="stroke:#A80036;stroke-width:2.0;"/><path d="M1664,616.6211 L1664,643.6211 M1651,624.6211 L1677,624.6211 M1664,643.6211 L1651,658.6211 M1664,643.6211 L1677,658.6211 " fill="none" filter="url(#fj0x9o4caqgdz)" style="stroke:#A80036;stroke-width:2.0;"/><text fill="#A52A2A" font-family="sans-serif" font-size="14" lengthAdjust="spacing" textLength="70" x="1629" y="680.7285">Ms. McCoy</text></g><!--entity "Old Two"--><g id="elem_&quot;Old Two&quot;"><ellipse cx="1318.0317" cy="230.6211" fill="#FEFECE" filter="url(#fj0x9o4caqgdz)" rx="8" ry="8" style="stroke:#A80036;stroke-width:2.0;"/><path d="M1318.0317,238.6211 L1318.0317,265.6211 M1305.0317,246.6211 L1331.0317,246.6211 M1318.0317,265.6211 L1305.0317,280.6211 M1318.0317,265.6211 L1331.0317,280.6211 " fill="none" filter="url(#fj0x9o4caqgdz)" style="stroke:#A80036;stroke-width:2.0;"/><text fill="#A52A2A" font-family="sans-serif" font-size="14" lengthAdjust="spacing" textLength="62.0635" x="1287" y="302.7285">"Old Two"</text></g><!--link Sloan to Alva--><g id="link_Sloan_Alva"><path d="M1094.5,446.8111 C1094.5,499.4411 1094.5,581.8711 1094.5,634.4811 " fill="none" id="Sloan-to-Alva" style="stroke:#0000FF;stroke-width:1.0;"/><polygon fill="#0000FF" points="1094.5,640.4811,1098.5,631.4811,1094.5,635.4811,1090.5,631.4811,1094.5,640.4811" style="stroke:#0000FF;stroke-width:1.0;"/><text fill="#228B22" font-family="sans-serif" font-size="13" lengthAdjust="spacing" textLength="28.8945" x="1068" y="549.1494">&#1084;&#1072;&#1090;&#1100;</text></g><!--link Fang to Sloan--><g id="link_Fang_Sloan"><path d="M1094.5,306.8711 C1094.5,323.9111 1094.5,337.4411 1094.5,354.4711 " fill="none" id="Fang-to-Sloan" style="stroke:#0000FF;stroke-width:1.0;"/><polygon fill="#0000FF" points="1094.5,360.4711,1098.5,351.4711,1094.5,355.4711,1090.5,351.4711,1094.5,360.4711" style="stroke:#0000FF;stroke-width:1.0;"/><text fill="#228B22" font-family="sans-serif" font-size="13" lengthAdjust="spacing" textLength="70.6812" x="1047" y="339.1494">&#1074; &#1080;&#1090;&#1086;&#1075;&#1077; &#1084;&#1091;&#1078;</text></g><!--link Fang to ???????--><g id="link_Fang_&#1089;&#1074;&#1072;&#1076;&#1100;&#1073;&#1072;"><path d="M1120.05,279.1411 C1163.19,306.4011 1252,362.5311 1294.01,389.0911 " fill="none" id="Fang-&#1089;&#1074;&#1072;&#1076;&#1100;&#1073;&#1072;" style="stroke:#0000FF;stroke-width:1.0;"/><text fill="#228B22" font-family="sans-serif" font-size="13" lengthAdjust="spacing" textLength="36.8672" x="1176" y="297.6494">&#1078;&#1077;&#1085;&#1080;&#1093;</text></g><!--link Sloan to ???????--><g id="link_Sloan_&#1089;&#1074;&#1072;&#1076;&#1100;&#1073;&#1072;"><path d="M1112.51,403.6211 C1145.34,403.6211 1218.5,403.6211 1267.81,403.6211 " fill="none" id="Sloan-&#1089;&#1074;&#1072;&#1076;&#1100;&#1073;&#1072;" style="stroke:#0000FF;stroke-width:1.0;"/><text fill="#228B22" font-family="sans-serif" font-size="13" lengthAdjust="spacing" textLength="48.2295" x="1170" y="399.6494">&#1085;&#1077;&#1074;&#1077;&#1089;&#1090;&#1072;</text></g><!--link Alva to ???????--><g id="link_Alva_&#1089;&#1074;&#1072;&#1076;&#1100;&#1073;&#1072;"><path d="M1109.69,665.6811 C1150.18,614.5011 1265.78,468.3711 1304.32,419.6511 " fill="none" id="Alva-&#1089;&#1074;&#1072;&#1076;&#1100;&#1073;&#1072;" style="stroke:#0000FF;stroke-width:1.0;"/><text fill="#228B22" font-family="sans-serif" font-size="13" lengthAdjust="spacing" textLength="82.3164" x="1153" y="506.6494">&#1076;&#1086;&#1095;&#1100; &#1085;&#1077;&#1074;&#1077;&#1089;&#1090;&#1099;</text></g><!--link ??????? to Feng--><g id="link_&#1089;&#1074;&#1072;&#1076;&#1100;&#1073;&#1072;_Feng"><path d="M1354.52,414.9811 C1428.51,438.6411 1596.53,492.3611 1647.84,508.7711 " fill="none" id="&#1089;&#1074;&#1072;&#1076;&#1100;&#1073;&#1072;-Feng" style="stroke:#0000FF;stroke-width:1.0;"/><text fill="#228B22" font-family="sans-serif" font-size="13" lengthAdjust="spacing" textLength="31.1987" x="1465" y="426.6494">&#1075;&#1086;&#1089;&#1090;&#1100;</text></g><!--link ??????? to Lu--><g id="link_&#1089;&#1074;&#1072;&#1076;&#1100;&#1073;&#1072;_Lu"><path d="M1367.92,402.0611 C1447.68,399.5111 1601.6,394.5811 1648.86,393.0711 " fill="none" id="&#1089;&#1074;&#1072;&#1076;&#1100;&#1073;&#1072;-Lu" style="stroke:#0000FF;stroke-width:1.0;"/><text fill="#228B22" font-family="sans-serif" font-size="13" lengthAdjust="spacing" textLength="31.1987" x="1465.0815" y="351.6494">&#1075;&#1086;&#1089;&#1090;&#1100;</text><path d="M1403,360.9121 L1403,387.9121 L1554,387.9121 L1554,370.9121 L1544,360.9121 L1403,360.9121 " fill="#FBFB77" filter="url(#fj0x9o4caqgdz)" style="stroke:#A80036;stroke-width:1.0;"/><path d="M1544,360.9121 L1544,370.9121 L1554,370.9121 L1544,360.9121 " fill="#FBFB77" style="stroke:#A80036;stroke-width:1.0;"/><text fill="#A52A2A" font-family="sans-serif" font-size="13" lengthAdjust="spacing" textLength="130.3618" x="1409" y="379.9404">&#1080;&#1083;&#1080; &#1101;&#1090;&#1086; &#1089;&#1072;&#1084; Lu Fang?</text></g><!--link Li to Alva--><g id="link_Li_Alva"><path d="M865,595.1511 C903.91,607.6711 977.79,632.2911 1039,657.6211 C1052.95,663.3911 1063.0864,668.2119 1073.9764,673.6719 " fill="none" id="Li-to-Alva" style="stroke:#0000FF;stroke-width:1.0;"/><polygon fill="#0000FF" points="1079.34,676.3611,1073.0874,668.7516,1074.8703,674.1201,1069.5018,675.903,1079.34,676.3611" style="stroke:#0000FF;stroke-width:1.0;"/><text fill="#228B22" font-family="sans-serif" font-size="13" lengthAdjust="spacing" textLength="96.7256" x="942" y="617.6494">&#1083;&#1091;&#1095;&#1096;&#1072;&#1103; &#1087;&#1086;&#1076;&#1088;&#1091;&#1075;&#1072;</text></g><!--link ????? to Alva--><g id="link_&#1096;&#1082;&#1086;&#1083;&#1072;_Alva"><path d="M527.73,683.6211 C647.97,683.6211 1004.31,683.6211 1079.48,683.6211 " fill="none" id="&#1096;&#1082;&#1086;&#1083;&#1072;-Alva" style="stroke:#0000FF;stroke-width:1.0;"/><text fill="#228B22" font-family="sans-serif" font-size="13" lengthAdjust="spacing" textLength="125.563" x="774.5" y="679.6494">&#1086;&#1090;&#1074;&#1077;&#1090;&#1089;&#1090;&#1074;&#1077;&#1085;&#1085;&#1072;&#1103; &#1079;&#1072; &#1044;&#1047;</text></g><!--link ????? to Li--><g id="link_&#1096;&#1082;&#1086;&#1083;&#1072;_Li"><path d="M520.43,674.5811 C588.59,655.5811 745.67,611.8011 808.9,594.1711 " fill="none" id="&#1096;&#1082;&#1086;&#1083;&#1072;-Li" style="stroke:#0000FF;stroke-width:1.0;"/></g><!--link Zhang to ?????--><g id="link_Zhang_&#1096;&#1082;&#1086;&#1083;&#1072;"><path d="M227.19,683.6211 C283.24,683.6211 388.92,683.6211 446.37,683.6211 " fill="none" id="Zhang-&#1096;&#1082;&#1086;&#1083;&#1072;" style="stroke:#0000FF;stroke-width:1.0;"/><text fill="#228B22" font-family="sans-serif" font-size="13" lengthAdjust="spacing" textLength="91.8442" x="259" y="679.6494">&#1086;&#1076;&#1085;&#1086;&#1082;&#1083;&#1072;&#1089;&#1089;&#1085;&#1080;&#1094;&#1072;</text></g><!--link Liu to Li--><g id="link_Liu_Li"><path d="M837,489.8711 C837,506.9111 837,520.4411 837,537.4711 " fill="none" id="Liu-to-Li" style="stroke:#0000FF;stroke-width:1.0;"/><polygon fill="#0000FF" points="837,543.4711,841,534.4711,837,538.4711,833,534.4711,837,543.4711" style="stroke:#0000FF;stroke-width:1.0;"/><text fill="#228B22" font-family="sans-serif" font-size="13" lengthAdjust="spacing" textLength="59.9663" x="795" y="522.1494">superviser</text></g><!--link ????? to Song--><g id="link_&#1096;&#1082;&#1086;&#1083;&#1072;_Song"><path d="M487,699.7711 C487,713.7911 487,734.7411 487,753.5811 " fill="none" id="&#1096;&#1082;&#1086;&#1083;&#1072;-Song" style="stroke:#0000FF;stroke-width:1.0;"/><text fill="#228B22" font-family="sans-serif" font-size="13" lengthAdjust="spacing" textLength="77.1938" x="436" y="732.1494">&#1091;&#1095;&#1080;&#1090;&#1077;&#1083;&#1100;&#1085;&#1080;&#1094;&#1072;</text></g><!--link Gao to ?????--><g id="link_Gao_&#1096;&#1082;&#1086;&#1083;&#1072;"><path d="M228.09,578.1911 C288.52,602.8911 404.95,650.4911 458.19,672.2511 " fill="none" id="Gao-&#1096;&#1082;&#1086;&#1083;&#1072;" style="stroke:#0000FF;stroke-width:1.0;"/><text fill="#228B22" font-family="sans-serif" font-size="13" lengthAdjust="spacing" textLength="40.6313" x="284.5" y="587.6494">&#1091;&#1095;&#1077;&#1085;&#1080;&#1082;</text></g><!--link Teng to Gao--><g id="link_Teng_Gao"><path d="M62,513.2111 C86.36,522.7611 116.8846,534.7295 144.2046,545.4495 " fill="none" id="Teng-to-Gao" style="stroke:#0000FF;stroke-width:1.0;"/><polygon fill="#0000FF" points="149.79,547.6411,142.873,540.63,145.1355,545.8147,139.9508,548.0772,149.79,547.6411" style="stroke:#0000FF;stroke-width:1.0;"/><text fill="#228B22" font-family="sans-serif" font-size="13" lengthAdjust="spacing" textLength="26.0571" x="93" y="521.6494">&#1076;&#1088;&#1091;&#1075;</text></g><!--link Doggy to Gao--><g id="link_Doggy_Gao"><path d="M54.07,616.0211 C77.94,606.5011 113.8162,592.1922 144.3062,580.0422 " fill="none" id="Doggy-to-Gao" style="stroke:#0000FF;stroke-width:1.0;"/><polygon fill="#0000FF" points="149.88,577.8211,140.0386,577.4369,145.2352,579.672,143.0001,584.8686,149.88,577.8211" style="stroke:#0000FF;stroke-width:1.0;"/><text fill="#228B22" font-family="sans-serif" font-size="13" lengthAdjust="spacing" textLength="26.0571" x="93" y="586.6494">&#1076;&#1088;&#1091;&#1075;</text></g><!--link Ciyi to Fang--><g id="link_Ciyi_Fang"><path d="M1094.5,166.8711 C1094.5,183.9111 1094.5,195.4411 1094.5,212.4711 " fill="none" id="Ciyi-to-Fang" style="stroke:#0000FF;stroke-width:1.0;"/><polygon fill="#0000FF" points="1094.5,220.4711,1097.5,212.4711,1091.5,212.4711,1094.5,220.4711" style="stroke:#0000FF;stroke-width:1.0;"/><text fill="#228B22" font-family="sans-serif" font-size="13" lengthAdjust="spacing" textLength="30.3354" x="1067" y="199.1494">&#1078;&#1077;&#1085;&#1072;</text></g><!--link Qingdao to Ciyi--><g id="link_Qingdao_Ciyi"><path d="M866.81,247.8311 C921.63,217.8011 1039.05,153.4511 1079.48,131.3011 " fill="none" id="Qingdao-Ciyi" style="stroke:#0000FF;stroke-width:1.0;"/></g><!--link Qingdao to Fang--><g id="link_Qingdao_Fang"><path d="M911.22,263.6211 C964.3,263.6211 1032.85,263.6211 1068.88,263.6211 " fill="none" id="Qingdao-Fang" style="stroke:#0000FF;stroke-width:1.0;"/></g><!--link Qingdao to Sloan--><g id="link_Qingdao_Sloan"><path d="M866.81,279.4111 C920.32,308.7311 1033.5,370.7411 1076.47,394.2911 " fill="none" id="Qingdao-Sloan" style="stroke:#0000FF;stroke-width:1.0;"/></g><!--link Huang to Qingdao--><g id="link_Huang_Qingdao"><path d="M507.73,215.6111 C533.68,225.7211 580.93,242.7611 623,250.6211 C669.07,259.2311 721.62,262.5011 762.99,263.6111 " fill="none" id="Huang-Qingdao" style="stroke:#0000FF;stroke-width:1.0;"/><text fill="#228B22" font-family="sans-serif" font-size="13" lengthAdjust="spacing" textLength="105.4092" x="625.5" y="246.6494">&#1087;&#1088;&#1086;&#1076;&#1072;&#1074;&#1077;&#1094; &#1084;&#1086;&#1083;&#1086;&#1082;&#1072;</text></g><!--link Qi to Qingdao--><g id="link_Qi_Qingdao"><path d="M510.01,96.2311 C532.35,106.6411 567.24,124.7311 593,146.6211 C609.13,160.3311 605.82,171.2411 623,183.6211 C630.35,188.9211 736.6,227.7211 796.19,249.2811 " fill="none" id="Qi-Qingdao" style="stroke:#0000FF;stroke-width:1.0;"/></g><!--link Qi to Fang--><g id="link_Qi_Fang"><path d="M510.23,91.2211 C585.75,107.1611 838.91,163.1511 1039,237.6211 C1049.02,241.3511 1054.3214,243.6023 1063.5514,248.1223 " fill="none" id="Qi-to-Fang" style="stroke:#0000FF;stroke-width:1.0;"/><polygon fill="#0000FF" points="1068.94,250.7611,1062.6164,243.2105,1064.4495,248.5621,1059.0979,250.3952,1068.94,250.7611" style="stroke:#0000FF;stroke-width:1.0;"/><text fill="#228B22" font-family="sans-serif" font-size="13" lengthAdjust="spacing" textLength="109.5986" x="782.5" y="148.6494">&#1074;&#1099;&#1077;&#1079;&#1076;&#1085;&#1086;&#1081; &#1082;&#1086;&#1083;&#1083;&#1077;&#1075;&#1072;</text></g><!--link Wang to Qingdao--><g id="link_Wang_Qingdao"><path d="M527.3,434.1311 C576.63,414.1011 663.26,376.9611 733,336.6211 C762.98,319.2811 795.19,295.5411 815.45,279.9011 " fill="none" id="Wang-Qingdao" style="stroke:#0000FF;stroke-width:1.0;"/><text fill="#228B22" font-family="sans-serif" font-size="13" lengthAdjust="spacing" textLength="108.272" x="624" y="332.6494">&#1089;&#1086;&#1089;&#1077;&#1076;&#1082;&#1072; &#1089; 1 &#1101;&#1090;&#1072;&#1078;&#1072;</text></g><!--link Yu to ?????--><g id="link_Yu_&#1096;&#1082;&#1086;&#1083;&#1072;"><path d="M487,614.0911 C487,632.8011 487,653.5211 487,667.4311 " fill="none" id="Yu-&#1096;&#1082;&#1086;&#1083;&#1072;" style="stroke:#0000FF;stroke-width:1.0;"/><text fill="#228B22" font-family="sans-serif" font-size="13" lengthAdjust="spacing" textLength="153.0483" x="398" y="646.1494">&#1080;&#1079; &#1087;&#1072;&#1088;&#1072;&#1083;&#1083;&#1077;&#1083;&#1100;&#1085;&#1086;&#1075;&#1086; &#1082;&#1083;&#1072;&#1089;&#1089;&#1072;</text></g><!--link Jim to Qingdao--><g id="link_Jim_Qingdao"><path d="M502.17,326.8211 C539.89,321.9211 645.88,307.5111 733,289.6211 C751.25,285.8711 771.13,281.0411 788.51,276.5511 " fill="none" id="Jim-Qingdao" style="stroke:#0000FF;stroke-width:1.0;"/><text fill="#228B22" font-family="sans-serif" font-size="13" lengthAdjust="spacing" textLength="49.8037" x="653.5" y="285.6494">&#1087;&#1080;&#1074;&#1086;&#1074;&#1072;&#1088;</text></g><!--link Fang to Lu Min--><g id="link_Fang_Lu Min"><path d="M1120.05,249.2111 C1164.2,223.3011 1251.0259,172.3489 1291.7159,148.4589 " fill="none" id="Fang-to-Lu Min" style="stroke:#0000FF;stroke-width:1.0;"/><polygon fill="#0000FF" points="1296.89,145.4211,1287.1036,146.5284,1292.5782,147.9526,1291.154,153.4273,1296.89,145.4211" style="stroke:#0000FF;stroke-width:1.0;"/><text fill="#228B22" font-family="sans-serif" font-size="13" lengthAdjust="spacing" textLength="23.0229" x="1182.5" y="179.6494">&#1089;&#1099;&#1085;</text></g><!--link Ciyi to Lu Min--><g id="link_Ciyi_Lu Min"><path d="M1109.69,124.2611 C1147.79,125.9811 1246.4161,130.4306 1290.7361,132.4306 " fill="none" id="Ciyi-to-Lu Min" style="stroke:#0000FF;stroke-width:1.0;"/><polygon fill="#0000FF" points="1296.73,132.7011,1287.9195,128.2994,1291.7351,132.4757,1287.5588,136.2913,1296.73,132.7011" style="stroke:#0000FF;stroke-width:1.0;"/><text fill="#228B22" font-family="sans-serif" font-size="13" lengthAdjust="spacing" textLength="23.0229" x="1182.5" y="122.6494">&#1089;&#1099;&#1085;</text></g><!--link Alva to new_school--><g id="link_Alva_new_school"><path d="M1109.53,685.3811 C1177.12,693.8311 1471.25,730.6311 1601.05,746.8711 " fill="none" id="Alva-new_school" style="stroke:#0000FF;stroke-width:1.0;"/></g><!--link new_school to Steward--><g id="link_new_school_Steward"><path d="M1696.56,769.3411 C1744.92,791.8811 1837.09,834.8611 1888.16,858.6811 " fill="none" id="new_school-Steward" style="stroke:#0000FF;stroke-width:1.0;"/><text fill="#228B22" font-family="sans-serif" font-size="13" lengthAdjust="spacing" textLength="77.1938" x="1773" y="799.6494">&#1091;&#1095;&#1080;&#1090;&#1077;&#1083;&#1100;&#1085;&#1080;&#1094;&#1072;</text></g><!--link Alva to Zoey--><g id="link_Alva_Zoey"><path d="M1109.62,704.9311 C1119.57,718.6211 1133.95,735.9511 1150,747.6211 C1199.99,783.9611 1266.1202,803.7325 1296.6302,811.6025 " fill="none" id="Alva-to-Zoey" style="stroke:#0000FF;stroke-width:1.0;"/><polygon fill="#0000FF" points="1302.44,813.1011,1294.7243,806.9799,1297.5985,811.8522,1292.7262,814.7264,1302.44,813.1011" style="stroke:#0000FF;stroke-width:1.0;"/><text fill="#228B22" font-family="sans-serif" font-size="13" lengthAdjust="spacing" textLength="86.7534" x="1151" y="743.6494">&#1085;&#1086;&#1074;&#1072;&#1103; &#1087;&#1086;&#1076;&#1088;&#1091;&#1075;&#1072;</text></g><!--link Zoey to new_school--><g id="link_Zoey_new_school"><path d="M1333.78,813.9611 C1380.46,805.5411 1526.44,779.2311 1607.44,764.6311 " fill="none" id="Zoey-new_school" style="stroke:#0000FF;stroke-width:1.0;"/></g><!--link Zoey to zoey_home--><g id="link_Zoey_zoey_home"><path d="M1333.78,826.7611 C1388.05,863.9911 1576.51,993.2811 1641.09,1037.5911 " fill="none" id="Zoey-zoey_home" style="stroke:#0000FF;stroke-width:1.0;"/></g><!--link new_school to Ashley--><g id="link_new_school_Ashley"><path d="M1735.22,754.6211 C1792.11,754.6211 1868.49,754.6211 1904.34,754.6211 " fill="none" id="new_school-Ashley" style="stroke:#0000FF;stroke-width:1.0;"/><text fill="#228B22" font-family="sans-serif" font-size="13" lengthAdjust="spacing" textLength="91.8442" x="1766" y="750.6494">&#1086;&#1076;&#1085;&#1086;&#1082;&#1083;&#1072;&#1089;&#1089;&#1085;&#1080;&#1094;&#1072;</text></g><!--link new_school to korean--><g id="link_new_school_korean"><path d="M1691.79,739.2411 C1738.54,712.3911 1835.05,656.9811 1887.92,626.6311 " fill="none" id="new_school-korean" style="stroke:#0000FF;stroke-width:1.0;"/></g><!--link Julia to Zoey--><g id="link_Julia_Zoey"><path d="M1109.91,1024.2111 C1137.96,1016.8911 1200.41,997.2411 1238,959.6211 C1259.92,937.6811 1253.21,923.8811 1268,896.6211 C1278.79,876.7211 1289.0828,859.8992 1299.1828,844.0692 " fill="none" id="Julia-to-Zoey" style="stroke:#0000FF;stroke-width:1.0;"/><polygon fill="#0000FF" points="1302.41,839.0111,1294.197,844.4468,1299.7206,843.2262,1300.9412,848.7498,1302.41,839.0111" style="stroke:#0000FF;stroke-width:1.0;"/><text fill="#228B22" font-family="sans-serif" font-size="13" lengthAdjust="spacing" textLength="28.8945" x="1180" y="955.6494">&#1084;&#1072;&#1090;&#1100;</text></g><!--link Julia to zoey_home--><g id="link_Julia_zoey_home"><path d="M1109.53,1028.2411 C1179.34,1031.3111 1490.8,1045.0311 1613.29,1050.4311 " fill="none" id="Julia-zoey_home" style="stroke:#0000FF;stroke-width:1.0;"/></g><!--link zoey_home to Feng_driver--><g id="link_zoey_home_Feng_driver"><path d="M1696.3,1065.4111 C1752.38,1088.3111 1867.98,1135.5311 1909.36,1152.4311 " fill="none" id="zoey_home-Feng_driver" style="stroke:#0000FF;stroke-width:1.0;"/><text fill="#228B22" font-family="sans-serif" font-size="13" lengthAdjust="spacing" textLength="56.5259" x="1783.5" y="1091.6494">&#1074;&#1086;&#1076;&#1080;&#1090;&#1077;&#1083;&#1100;</text></g><!--link zoey_home to girlie--><g id="link_zoey_home_girlie"><path d="M1714.42,1049.7611 C1774.12,1046.3111 1871.24,1040.7011 1908.89,1038.5211 " fill="none" id="zoey_home-girlie" style="stroke:#0000FF;stroke-width:1.0;"/><text fill="#228B22" font-family="sans-serif" font-size="13" lengthAdjust="spacing" textLength="56.6084" x="1783.5" y="1037.6494">&#1089;&#1083;&#1091;&#1078;&#1072;&#1085;&#1082;&#1072;</text></g><!--link korean to Ashley--><g id="link_korean_Ashley"><path d="M1925.5,657.8711 C1925.5,675.4111 1925.5,688.7611 1925.5,705.5211 " fill="none" id="korean-to-Ashley" style="stroke:#0000FF;stroke-width:1.0;"/><polygon fill="#0000FF" points="1925.5,711.5211,1929.5,702.5211,1925.5,706.5211,1921.5,702.5211,1925.5,711.5211" style="stroke:#0000FF;stroke-width:1.0;"/><text fill="#228B22" font-family="sans-serif" font-size="13" lengthAdjust="spacing" textLength="47.5566" x="1889.5" y="690.1494">&#1087;&#1086;&#1076;&#1088;&#1091;&#1075;&#1072;</text></g><!--link Daniel to zoey_home--><g id="link_Daniel_zoey_home"><path d="M857.09,995.7511 C895.42,1019.2911 985.26,1070.4811 1069,1088.6211 C1273.47,1132.9111 1526.13,1084.6111 1622.81,1062.4811 " fill="none" id="Daniel-zoey_home" style="stroke:#0000FF;stroke-width:1.0;"/></g><!--link Daniel to Zoey--><g id="link_Daniel_Zoey"><path d="M857.05,980.2711 C915.84,969.4911 1098.83,932.6211 1238,868.6211 C1262.02,857.5711 1282.296,843.4955 1297.586,831.8555 " fill="none" id="Daniel-to-Zoey" style="stroke:#0000FF;stroke-width:1.0;"/><polygon fill="#0000FF" points="1302.36,828.2211,1292.776,830.49,1298.3816,831.2497,1297.6219,836.8553,1302.36,828.2211" style="stroke:#0000FF;stroke-width:1.0;"/><text fill="#228B22" font-family="sans-serif" font-size="13" lengthAdjust="spacing" textLength="27.8599" x="1081" y="909.6494">&#1086;&#1090;&#1077;&#1094;</text></g><!--link Daniel to Julia--><g id="link_Daniel_Julia"><path d="M857.2,986.9311 C906.41,995.4011 1030.257,1016.7329 1073.407,1024.1629 " fill="none" id="Daniel-to-Julia" style="stroke:#0000FF;stroke-width:1.0;"/><polygon fill="#0000FF" points="1079.32,1025.1811,1071.1293,1019.7119,1074.3925,1024.3326,1069.7718,1027.5958,1079.32,1025.1811" style="stroke:#0000FF;stroke-width:1.0;"/><text fill="#228B22" font-family="sans-serif" font-size="13" lengthAdjust="spacing" textLength="24.1338" x="978" y="997.6494">&#1084;&#1091;&#1078;</text></g><!--reverse link Zoey to Gabe--><g id="link_Zoey_Gabe"><path d="M1318,865.8711 C1318,882.9111 1318,896.4411 1318,913.4711 " fill="none" id="Zoey-backto-Gabe" style="stroke:#0000FF;stroke-width:1.0;"/><polygon fill="#0000FF" points="1318,859.8711,1314,868.8711,1318,864.8711,1322,868.8711,1318,859.8711" style="stroke:#0000FF;stroke-width:1.0;"/><text fill="#228B22" font-family="sans-serif" font-size="13" lengthAdjust="spacing" textLength="26.0571" x="1292.5" y="892.1494">&#1076;&#1088;&#1091;&#1075;</text></g><!--link new_school to Su--><g id="link_new_school_Su"><path d="M1664,771.3311 C1664,785.3411 1664,805.9911 1664,824.5811 " fill="none" id="new_school-Su" style="stroke:#0000FF;stroke-width:1.0;"/><text fill="#228B22" font-family="sans-serif" font-size="13" lengthAdjust="spacing" textLength="121.3354" x="1591" y="803.3994">&#1087;&#1086;&#1084;&#1086;&#1097;&#1085;&#1080;&#1082; &#1090;&#1088;&#1077;&#1085;&#1077;&#1085;&#1088;&#1072;</text></g><!--link banquet to Daniel--><g id="link_banquet_Daniel"><path d="M565.66,928.4711 C647.19,945.1011 769.93,970.1411 816.84,979.7111 " fill="none" id="banquet-Daniel" style="stroke:#0000FF;stroke-width:1.0;"/><text fill="#228B22" font-family="sans-serif" font-size="13" lengthAdjust="spacing" textLength="55.4087" x="650.5" y="937.6494">&#1076;&#1080;&#1088;&#1077;&#1082;&#1090;&#1086;&#1088;</text></g><!--link banquet to Alva--><g id="link_banquet_Alva"><path d="M538.47,891.9811 C556.8,883.0511 576.94,871.4511 593,857.6211 C610.11,842.8911 604.46,829.5011 623,816.6211 C701.94,761.7611 1009.51,699.8611 1079.34,686.3311 " fill="none" id="banquet-Alva" style="stroke:#0000FF;stroke-width:1.0;"/></g><!--link banquet to Zoey--><g id="link_banquet_Zoey"><path d="M581.49,901.7911 C776.69,879.1911 1216.66,828.2411 1302.37,818.3111 " fill="none" id="banquet-Zoey" style="stroke:#0000FF;stroke-width:1.0;"/></g><!--link Charles Zhe to banquet--><g id="link_Charles Zhe_banquet"><path d="M227.19,818.1911 C278.58,836.9411 371.69,870.9111 431.1,892.5911 " fill="none" id="Charles Zhe-banquet" style="stroke:#0000FF;stroke-width:1.0;"/><text fill="#228B22" font-family="sans-serif" font-size="13" lengthAdjust="spacing" textLength="55.4087" x="277" y="826.6494">&#1076;&#1080;&#1088;&#1077;&#1082;&#1090;&#1086;&#1088;</text></g><!--link Lily to banquet--><g id="link_Lily_banquet"><path d="M218.11,924.3911 C255.71,922.7311 324.39,919.7211 382.8,917.1511 " fill="none" id="Lily-banquet" style="stroke:#0000FF;stroke-width:1.0;"/></g><!--link Alice Fan to banquet--><g id="link_Alice Fan_banquet"><path d="M218.11,1033.8911 C269.13,1010.8011 377.4,961.7811 439.54,933.6511 " fill="none" id="Alice Fan-banquet" style="stroke:#0000FF;stroke-width:1.0;"/><text fill="#228B22" font-family="sans-serif" font-size="13" lengthAdjust="spacing" textLength="55.4087" x="277" y="970.6494">&#1076;&#1080;&#1088;&#1077;&#1082;&#1090;&#1086;&#1088;</text></g><!--link Ms. McCoy to new_school--><g id="link_Ms. McCoy_new_school"><path d="M1664,684.7311 C1664,703.3211 1664,723.9511 1664,737.9511 " fill="none" id="Ms. McCoy-new_school" style="stroke:#0000FF;stroke-width:1.0;"/><text fill="#228B22" font-family="sans-serif" font-size="13" lengthAdjust="spacing" textLength="61.1279" x="1621" y="716.8994">&#1080;&#1089;&#1090;&#1086;&#1088;&#1080;&#1095;&#1082;&#1072;</text></g><!--link Fang to "Old Two"--><g id="link_Fang_&quot;Old Two&quot;"><path d="M1120.05,263.6211 C1160.83,263.6211 1236.4,263.6211 1280.69,263.6211 " fill="none" id="Fang-to-&quot;Old Two&quot;" style="stroke:#0000FF;stroke-width:1.0;"/><polygon fill="#0000FF" points="1286.69,263.6211,1277.69,259.6211,1281.69,263.6211,1277.69,267.6211,1286.69,263.6211" style="stroke:#0000FF;stroke-width:1.0;"/><text fill="#228B22" font-family="sans-serif" font-size="13" lengthAdjust="spacing" textLength="27.8599" x="1180.5" y="259.6494">&#1073;&#1088;&#1072;&#1090;</text></g><!--SRC=[XLRDJXn74BxtKvJiGx1a8laGAHcXjImS9uf0KO8bOb_GiDlijXYcoVo0o0cmupWobdE8vDSO5Z0RCEjNw7cZV5KzCpkxR9p3xbPt_NJzV5MraTxAABEKcFuWevv9T3SpDbRfjeafiQaMQZTCmXtQ3BlR_SJcSQzh8vjGgiDqeAEe9TBJMs4UPLisphpCtSt4xiSjYJ31HSsBSZtBQgbksKIdMJ_HEbOgCrcawMUpfnFwDaop-nMz3X6bWhN8Xd50TtTDl8tZesWld9nMSdeInls0mbI82SFGBoRUrqPOAqOfiKEB7M8B593xw8hok3nHIeacE5u4h26vKNdinkxCNK2mVE4-g4PkaHRA8pTqXJilJzofA-wnoWTtuMwWzNlzq7on6uWDtKLv1FE54bV-G_BSZSi_ofCfbV8DlBWb30F14yrPWDePr8uahhboA_cCL6mpJJQc27bZpiXTkn6LRpbyWeN2VQGgomyv1qZiOYk9r-KBUFaQgNn7xXCoTbuU8brd20uEl7PNkBgk7gzrnh3D0HrB5eQIk1jluT8LvFvsxs_fSWM3vmCkmDeWj59LEUBwkz2YsA7TOfpW7cVShgPVqfgjiC64e2Aly90hvQr9zbjliN_8_Gs-h_W6FXv9OLznI51ae2090QNvhaxsJAgJsL3bEO889qUGT854dKpCiCUt7nPfGP6xWhDFKL86iNZC1nKyjlt-WPo5Kafak1viaK7Ziw-4FOy1kylcm7S54uoddqpSxuNsFZtuvkklxZ6dkb6AHH1mnpTN0tE4K8bm66AdTMRPzbaQ0Wz_dzUjAfGAk6XuA_1Fgk07ioCqVj7eUPmPJUkrphgeFCjfUQ31gMhz38LKOevVgX-5ev_AGoba8L1xnUtEYUQg5d2k9IsdIOJ3yWrYlAmmy0zL5Rh69QDw_TPJm0UQ2UnpjeqZFV3zKo1Ro1HSlesnaRlaVYdWPL5PzmZXcJEc5lPW0VcOZGu6Xf0TieLcC7MulscL8SDk8P2Rge9pMUeBaWU7qdiJ1ydz9SuCUTmip1KHbCHwVoFj3goDL3F9sdTeGLhBz7wOz7mJUbgfYP30mrz_fbs2vrPxs3FHFDQHev-gjOkpCqWaPlnQm8GPOwovz_WPIIY_GMnZO7VqHADrDUrly2WTHEmF1PyR5K3pWRKUfTlOTzW9IqkSFvJyedm7GQ2bqvcrxaMXxYSwxpKG6xs4ToACvf49VPCmXU5daiXekUaB2RWmPoe_pQghMUte6b9wT_AOD8D4s9HaMjQ_vplWcdSae2nHALK5p8j2akKnErMPu74O6ntvQIQaKlvtsh_cRX8EBn3qT9lb0mkQPOsbiAchRR1PLtLfKKvJyr10whV2MZvT35pKVcDub7_woKp8vA5CGNouVNdwlvIzYV25EUR-v5cEn5o1Wo5oMkK6Mqy0jnd6l-OQ_sygWcEkmf7TFv8thdWBey4R8TcXRHtV4C7o84mYpIiHGUEwbfXZ2rCN-sktHjUAYGuKVxNK-5-MwMeUYVzdpU_PrUwoHKEqsqo6d2nu1ZndGu0ncLHtVenwz7JVtf4_9AUSoV9O_Gi0]--></g></svg>