<svg xmlns="http://www.w3.org/2000/svg" xmlns:xlink="http://www.w3.org/1999/xlink" contentStyleType="text/css" height="904px" preserveAspectRatio="none" style="width:1937px;height:904px;background:#FFF5EE;" version="1.1" viewBox="0 0 1937 904" width="1937px" zoomAndPan="magnify"><defs><filter height="300%" id="fbuzttvv7ao8c" width="300%" x="-1" y="-1"><feGaussianBlur result="blurOut" stdDeviation="2.0"/><feColorMatrix in="blurOut" result="blurOut2" type="matrix" values="0 0 0 0 0 0 0 0 0 0 0 0 0 0 0 0 0 0 .4 0"/><feOffset dx="4.0" dy="4.0" in="blurOut2" result="blurOut3"/><feBlend in="SourceGraphic" in2="blurOut3" mode="normal"/></filter></defs><g><rect fill="#FFF5EE" height="904" style="stroke:none;stroke-width:1.0;" width="1937" x="0" y="0"/><text fill="#A52A2A" font-family="sans-serif" font-size="14" font-weight="bold" lengthAdjust="spacing" textLength="148.6201" x="887.25" y="25.1074">River East, River West</text><!--entity Sloan--><g id="elem_Sloan"><ellipse cx="1061.4033" cy="333.6211" fill="#FFC0CB" filter="url(#fbuzttvv7ao8c)" rx="8" ry="8" style="stroke:#A80036;stroke-width:2.0;"/><path d="M1061.4033,341.6211 L1061.4033,368.6211 M1048.4033,349.6211 L1074.4033,349.6211 M1061.4033,368.6211 L1048.4033,383.6211 M1061.4033,368.6211 L1074.4033,383.6211 " fill="none" filter="url(#fbuzttvv7ao8c)" style="stroke:#A80036;stroke-width:2.0;"/><text fill="#A52A2A" font-family="sans-serif" font-size="14" lengthAdjust="spacing" textLength="35.8066" x="1043.5" y="405.7285">Sloan</text></g><!--entity Alva--><g id="elem_Alva"><ellipse cx="1061.5" cy="473.6211" fill="#FFC0CB" filter="url(#fbuzttvv7ao8c)" rx="8" ry="8" style="stroke:#A80036;stroke-width:2.0;"/><path d="M1061.5,481.6211 L1061.5,508.6211 M1048.5,489.6211 L1074.5,489.6211 M1061.5,508.6211 L1048.5,523.6211 M1061.5,508.6211 L1074.5,523.6211 " fill="none" filter="url(#fbuzttvv7ao8c)" style="stroke:#A80036;stroke-width:2.0;"/><text fill="#A52A2A" font-family="sans-serif" font-size="14" lengthAdjust="spacing" textLength="27.2344" x="1047.8828" y="545.7285">Alva</text></g><!--entity Fang--><g id="elem_Fang"><ellipse cx="1061.686" cy="193.6211" fill="#FFC0CB" filter="url(#fbuzttvv7ao8c)" rx="8" ry="8" style="stroke:#A80036;stroke-width:2.0;"/><path d="M1061.686,201.6211 L1061.686,228.6211 M1048.686,209.6211 L1074.686,209.6211 M1061.686,228.6211 L1048.686,243.6211 M1061.686,228.6211 L1074.686,243.6211 " fill="none" filter="url(#fbuzttvv7ao8c)" style="stroke:#A80036;stroke-width:2.0;"/><text fill="#A52A2A" font-family="sans-serif" font-size="14" lengthAdjust="spacing" textLength="51.3721" x="1036" y="265.7285">Lu Fang</text></g><!--entity Li--><g id="elem_Li"><ellipse cx="804.0137" cy="435.6211" fill="#FEFECE" filter="url(#fbuzttvv7ao8c)" rx="8" ry="8" style="stroke:#A80036;stroke-width:2.0;"/><path d="M804.0137,443.6211 L804.0137,470.6211 M791.0137,451.6211 L817.0137,451.6211 M804.0137,470.6211 L791.0137,485.6211 M804.0137,470.6211 L817.0137,485.6211 " fill="none" filter="url(#fbuzttvv7ao8c)" style="stroke:#A80036;stroke-width:2.0;"/><text fill="#A52A2A" font-family="sans-serif" font-size="14" lengthAdjust="spacing" textLength="56.0273" x="776" y="507.7285">Li Xinwei</text></g><g id="elem_&#1089;&#1074;&#1072;&#1076;&#1100;&#1073;&#1072;"><ellipse cx="1284.9204" cy="366.462" fill="#FEFECE" filter="url(#fbuzttvv7ao8c)" rx="49.9204" ry="16.3409" style="stroke:#A80036;stroke-width:1.0;"/><text fill="#A52A2A" font-family="sans-serif" font-size="14" lengthAdjust="spacing" textLength="53.4912" x="1255.1748" y="371.2657">&#1089;&#1074;&#1072;&#1076;&#1100;&#1073;&#1072;</text></g><!--entity Feng--><g id="elem_Feng"><ellipse cx="1630.9551" cy="356.6211" fill="#FEFECE" filter="url(#fbuzttvv7ao8c)" rx="8" ry="8" style="stroke:#A80036;stroke-width:2.0;"/><path d="M1630.9551,364.6211 L1630.9551,391.6211 M1617.9551,372.6211 L1643.9551,372.6211 M1630.9551,391.6211 L1617.9551,406.6211 M1630.9551,391.6211 L1643.9551,406.6211 " fill="none" filter="url(#fbuzttvv7ao8c)" style="stroke:#A80036;stroke-width:2.0;"/><text fill="#A52A2A" font-family="sans-serif" font-size="14" lengthAdjust="spacing" textLength="31.9102" x="1615" y="428.7285">Feng</text></g><!--entity Lu--><g id="elem_Lu"><ellipse cx="1631" cy="235.6211" fill="#FEFECE" filter="url(#fbuzttvv7ao8c)" rx="8" ry="8" style="stroke:#A80036;stroke-width:2.0;"/><path d="M1631,243.6211 L1631,270.6211 M1618,251.6211 L1644,251.6211 M1631,270.6211 L1618,285.6211 M1631,270.6211 L1644,285.6211 " fill="none" filter="url(#fbuzttvv7ao8c)" style="stroke:#A80036;stroke-width:2.0;"/><text fill="#A52A2A" font-family="sans-serif" font-size="14" lengthAdjust="spacing" textLength="15.5723" x="1623.2139" y="307.7285">Lu</text></g><g id="elem_&#1096;&#1082;&#1086;&#1083;&#1072;"><ellipse cx="519.6929" cy="563.8398" fill="#FEFECE" filter="url(#fbuzttvv7ao8c)" rx="40.6929" ry="16.2187" style="stroke:#A80036;stroke-width:1.0;"/><text fill="#A52A2A" font-family="sans-serif" font-size="14" lengthAdjust="spacing" textLength="41.0977" x="496.7907" y="568.462">&#1096;&#1082;&#1086;&#1083;&#1072;</text></g><!--entity Zhang--><g id="elem_Zhang"><ellipse cx="248.6411" cy="348.6211" fill="#FEFECE" filter="url(#fbuzttvv7ao8c)" rx="8" ry="8" style="stroke:#A80036;stroke-width:2.0;"/><path d="M248.6411,356.6211 L248.6411,383.6211 M235.6411,364.6211 L261.6411,364.6211 M248.6411,383.6211 L235.6411,398.6211 M248.6411,383.6211 L261.6411,398.6211 " fill="none" filter="url(#fbuzttvv7ao8c)" style="stroke:#A80036;stroke-width:2.0;"/><text fill="#A52A2A" font-family="sans-serif" font-size="14" lengthAdjust="spacing" textLength="76.2822" x="210.5" y="420.7285">Zhang Shao</text></g><!--entity Gao--><g id="elem_Gao"><ellipse cx="248.417" cy="469.6211" fill="#FEFECE" filter="url(#fbuzttvv7ao8c)" rx="8" ry="8" style="stroke:#A80036;stroke-width:2.0;"/><path d="M248.417,477.6211 L248.417,504.6211 M235.417,485.6211 L261.417,485.6211 M248.417,504.6211 L235.417,519.6211 M248.417,504.6211 L261.417,519.6211 " fill="none" filter="url(#fbuzttvv7ao8c)" style="stroke:#A80036;stroke-width:2.0;"/><text fill="#A52A2A" font-family="sans-serif" font-size="14" lengthAdjust="spacing" textLength="77.834" x="209.5" y="541.7285">Gao Xiaofan</text></g><!--entity Song--><g id="elem_Song"><ellipse cx="248.5688" cy="590.6211" fill="#FEFECE" filter="url(#fbuzttvv7ao8c)" rx="8" ry="8" style="stroke:#A80036;stroke-width:2.0;"/><path d="M248.5688,598.6211 L248.5688,625.6211 M235.5688,606.6211 L261.5688,606.6211 M248.5688,625.6211 L235.5688,640.6211 M248.5688,625.6211 L261.5688,640.6211 " fill="none" filter="url(#fbuzttvv7ao8c)" style="stroke:#A80036;stroke-width:2.0;"/><text fill="#A52A2A" font-family="sans-serif" font-size="14" lengthAdjust="spacing" textLength="59.1377" x="219" y="662.7285">Ms. Song</text></g><!--entity Liu--><g id="elem_Liu"><ellipse cx="804" cy="295.6211" fill="#FEFECE" filter="url(#fbuzttvv7ao8c)" rx="8" ry="8" style="stroke:#A80036;stroke-width:2.0;"/><path d="M804,303.6211 L804,330.6211 M791,311.6211 L817,311.6211 M804,330.6211 L791,345.6211 M804,330.6211 L817,345.6211 " fill="none" filter="url(#fbuzttvv7ao8c)" style="stroke:#A80036;stroke-width:2.0;"/><text fill="#A52A2A" font-family="sans-serif" font-size="14" lengthAdjust="spacing" textLength="18.6826" x="794.6587" y="367.7285">Liu</text></g><!--entity Teng--><g id="elem_Teng"><ellipse cx="44.5171" cy="397.6211" fill="#FEFECE" filter="url(#fbuzttvv7ao8c)" rx="8" ry="8" style="stroke:#A80036;stroke-width:2.0;"/><path d="M44.5171,405.6211 L44.5171,432.6211 M31.5171,413.6211 L57.5171,413.6211 M44.5171,432.6211 L31.5171,447.6211 M44.5171,432.6211 L57.5171,447.6211 " fill="none" filter="url(#fbuzttvv7ao8c)" style="stroke:#A80036;stroke-width:2.0;"/><text fill="#A52A2A" font-family="sans-serif" font-size="14" lengthAdjust="spacing" textLength="56.0342" x="16.5" y="469.7285">Teng Xin</text></g><!--entity Doggy--><g id="elem_Doggy"><ellipse cx="44.7344" cy="518.6211" fill="#FEFECE" filter="url(#fbuzttvv7ao8c)" rx="8" ry="8" style="stroke:#A80036;stroke-width:2.0;"/><path d="M44.7344,526.6211 L44.7344,553.6211 M31.7344,534.6211 L57.7344,534.6211 M44.7344,553.6211 L31.7344,568.6211 M44.7344,553.6211 L57.7344,568.6211 " fill="none" filter="url(#fbuzttvv7ao8c)" style="stroke:#A80036;stroke-width:2.0;"/><text fill="#A52A2A" font-family="sans-serif" font-size="14" lengthAdjust="spacing" textLength="40.4688" x="24.5" y="590.7285">Doggy</text></g><!--entity Ciyi--><g id="elem_Ciyi"><ellipse cx="1061.5" cy="53.6211" fill="#FEFECE" filter="url(#fbuzttvv7ao8c)" rx="8" ry="8" style="stroke:#A80036;stroke-width:2.0;"/><path d="M1061.5,61.6211 L1061.5,88.6211 M1048.5,69.6211 L1074.5,69.6211 M1061.5,88.6211 L1048.5,103.6211 M1061.5,88.6211 L1074.5,103.6211 " fill="none" filter="url(#fbuzttvv7ao8c)" style="stroke:#A80036;stroke-width:2.0;"/><text fill="#A52A2A" font-family="sans-serif" font-size="14" lengthAdjust="spacing" textLength="23.3311" x="1049.8345" y="125.7285">Ciyi</text></g><g id="elem_Qingdao"><ellipse cx="804.0991" cy="226.8409" fill="#FEFECE" filter="url(#fbuzttvv7ao8c)" rx="74.0991" ry="17.2198" style="stroke:#A80036;stroke-width:1.0;"/><text fill="#A52A2A" font-family="sans-serif" font-size="14" lengthAdjust="spacing" textLength="91.8545" x="755.1719" y="231.6446">Qingdao, 1985</text></g><!--entity Huang--><g id="elem_Huang"><ellipse cx="519.6274" cy="192.6211" fill="#FEFECE" filter="url(#fbuzttvv7ao8c)" rx="8" ry="8" style="stroke:#A80036;stroke-width:2.0;"/><path d="M519.6274,200.6211 L519.6274,227.6211 M506.6274,208.6211 L532.6274,208.6211 M519.6274,227.6211 L506.6274,242.6211 M519.6274,227.6211 L532.6274,242.6211 " fill="none" filter="url(#fbuzttvv7ao8c)" style="stroke:#A80036;stroke-width:2.0;"/><text fill="#A52A2A" font-family="sans-serif" font-size="14" lengthAdjust="spacing" textLength="41.2549" x="499" y="264.7285">Huang</text></g><!--entity Qi--><g id="elem_Qi"><ellipse cx="519.4551" cy="71.6211" fill="#FEFECE" filter="url(#fbuzttvv7ao8c)" rx="8" ry="8" style="stroke:#A80036;stroke-width:2.0;"/><path d="M519.4551,79.6211 L519.4551,106.6211 M506.4551,87.6211 L532.4551,87.6211 M519.4551,106.6211 L506.4551,121.6211 M519.4551,106.6211 L532.4551,121.6211 " fill="none" filter="url(#fbuzttvv7ao8c)" style="stroke:#A80036;stroke-width:2.0;"/><text fill="#A52A2A" font-family="sans-serif" font-size="14" lengthAdjust="spacing" textLength="45.9102" x="496.5" y="143.7285">Xiao Qi</text></g><!--entity Jim--><g id="elem_Jim"><ellipse cx="519.5" cy="313.6211" fill="#FEFECE" filter="url(#fbuzttvv7ao8c)" rx="8" ry="8" style="stroke:#A80036;stroke-width:2.0;"/><path d="M519.5,321.6211 L519.5,348.6211 M506.5,329.6211 L532.5,329.6211 M519.5,348.6211 L506.5,363.6211 M519.5,348.6211 L532.5,363.6211 " fill="none" filter="url(#fbuzttvv7ao8c)" style="stroke:#A80036;stroke-width:2.0;"/><text fill="#A52A2A" font-family="sans-serif" font-size="14" lengthAdjust="spacing" textLength="21.7725" x="508.6138" y="385.7285">Jim</text></g><!--entity Wang--><g id="elem_Wang"><ellipse cx="519.5791" cy="434.6211" fill="#FEFECE" filter="url(#fbuzttvv7ao8c)" rx="8" ry="8" style="stroke:#A80036;stroke-width:2.0;"/><path d="M519.5791,442.6211 L519.5791,469.6211 M506.5791,450.6211 L532.5791,450.6211 M519.5791,469.6211 L506.5791,484.6211 M519.5791,469.6211 L532.5791,484.6211 " fill="none" filter="url(#fbuzttvv7ao8c)" style="stroke:#A80036;stroke-width:2.0;"/><text fill="#A52A2A" font-family="sans-serif" font-size="14" lengthAdjust="spacing" textLength="80.1582" x="479.5" y="506.7285">Auntie Wang</text></g><!--entity Yu--><g id="elem_Yu"><ellipse cx="44.5273" cy="687.6211" fill="#FEFECE" filter="url(#fbuzttvv7ao8c)" rx="8" ry="8" style="stroke:#A80036;stroke-width:2.0;"/><path d="M44.5273,695.6211 L44.5273,722.6211 M31.5273,703.6211 L57.5273,703.6211 M44.5273,722.6211 L31.5273,737.6211 M44.5273,722.6211 L57.5273,737.6211 " fill="none" filter="url(#fbuzttvv7ao8c)" style="stroke:#A80036;stroke-width:2.0;"/><text fill="#A52A2A" font-family="sans-serif" font-size="14" lengthAdjust="spacing" textLength="77.0547" x="6" y="759.7285">Yu Chentian</text></g><!--entity Lu Min--><g id="elem_Lu Min"><ellipse cx="1285.0103" cy="124.6211" fill="#FEFECE" filter="url(#fbuzttvv7ao8c)" rx="8" ry="8" style="stroke:#A80036;stroke-width:2.0;"/><path d="M1285.0103,132.6211 L1285.0103,159.6211 M1272.0103,140.6211 L1298.0103,140.6211 M1285.0103,159.6211 L1272.0103,174.6211 M1285.0103,159.6211 L1298.0103,174.6211 " fill="none" filter="url(#fbuzttvv7ao8c)" style="stroke:#A80036;stroke-width:2.0;"/><text fill="#A52A2A" font-family="sans-serif" font-size="14" lengthAdjust="spacing" textLength="42.0205" x="1264" y="196.7285">Lu Min</text></g><g id="elem_new_school"><ellipse cx="1631.2295" cy="506.767" fill="#FEFECE" filter="url(#fbuzttvv7ao8c)" rx="71.2295" ry="16.6459" style="stroke:#A80036;stroke-width:1.0;"/><text fill="#A52A2A" font-family="sans-serif" font-size="14" lengthAdjust="spacing" textLength="83.3096" x="1586.5747" y="511.5707">&#1085;&#1086;&#1074;&#1072;&#1103; &#1096;&#1082;&#1086;&#1083;&#1072;</text></g><!--entity Steward--><g id="elem_Steward"><ellipse cx="1892.4551" cy="581.6211" fill="#FEFECE" filter="url(#fbuzttvv7ao8c)" rx="8" ry="8" style="stroke:#A80036;stroke-width:2.0;"/><path d="M1892.4551,589.6211 L1892.4551,616.6211 M1879.4551,597.6211 L1905.4551,597.6211 M1892.4551,616.6211 L1879.4551,631.6211 M1892.4551,616.6211 L1905.4551,631.6211 " fill="none" filter="url(#fbuzttvv7ao8c)" style="stroke:#A80036;stroke-width:2.0;"/><text fill="#A52A2A" font-family="sans-serif" font-size="14" lengthAdjust="spacing" textLength="73.9102" x="1855.5" y="653.7285">Ms Steward</text></g><!--entity Zoey--><g id="elem_Zoey"><ellipse cx="1285.062" cy="573.6211" fill="#FEFECE" filter="url(#fbuzttvv7ao8c)" rx="8" ry="8" style="stroke:#A80036;stroke-width:2.0;"/><path d="M1285.062,581.6211 L1285.062,608.6211 M1272.062,589.6211 L1298.062,589.6211 M1285.062,608.6211 L1272.062,623.6211 M1285.062,608.6211 L1298.062,623.6211 " fill="none" filter="url(#fbuzttvv7ao8c)" style="stroke:#A80036;stroke-width:2.0;"/><text fill="#A52A2A" font-family="sans-serif" font-size="14" lengthAdjust="spacing" textLength="31.124" x="1269.5" y="645.7285">Zoey</text></g><g id="elem_zoey_home"><ellipse cx="1630.9295" cy="735.4729" fill="#FEFECE" filter="url(#fbuzttvv7ao8c)" rx="50.9295" ry="16.3518" style="stroke:#A80036;stroke-width:1.0;"/><text fill="#A52A2A" font-family="sans-serif" font-size="14" lengthAdjust="spacing" textLength="54.8447" x="1600.5071" y="740.2766">&#1044;&#1086;&#1084; &#1047;&#1086;&#1080;</text></g><!--entity Ashley--><g id="elem_Ashley"><ellipse cx="1892.5103" cy="460.6211" fill="#FEFECE" filter="url(#fbuzttvv7ao8c)" rx="8" ry="8" style="stroke:#A80036;stroke-width:2.0;"/><path d="M1892.5103,468.6211 L1892.5103,495.6211 M1879.5103,476.6211 L1905.5103,476.6211 M1892.5103,495.6211 L1879.5103,510.6211 M1892.5103,495.6211 L1905.5103,510.6211 " fill="none" filter="url(#fbuzttvv7ao8c)" style="stroke:#A80036;stroke-width:2.0;"/><text fill="#A52A2A" font-family="sans-serif" font-size="14" lengthAdjust="spacing" textLength="42.0205" x="1871.5" y="532.7285">Ashley</text></g><!--entity korean--><g id="elem_korean"><ellipse cx="1892.5601" cy="321.2422" fill="#FEFECE" filter="url(#fbuzttvv7ao8c)" rx="8" ry="8" style="stroke:#A80036;stroke-width:2.0;"/><path d="M1892.5601,329.2422 L1892.5601,356.2422 M1879.5601,337.2422 L1905.5601,337.2422 M1892.5601,356.2422 L1879.5601,371.2422 M1892.5601,356.2422 L1905.5601,371.2422 " fill="none" filter="url(#fbuzttvv7ao8c)" style="stroke:#A80036;stroke-width:2.0;"/><text fill="#A52A2A" font-family="sans-serif" font-size="14" lengthAdjust="spacing" textLength="40.4688" x="1872.3257" y="393.3496">Jiyoon</text><text fill="#A52A2A" font-family="sans-serif" font-size="14" font-style="italic" lengthAdjust="spacing" textLength="75.1201" x="1855" y="307.7285">&#171;&#1082;&#1086;&#1088;&#1077;&#1103;&#1085;&#1082;&#1072;&#187;</text></g><!--entity Feng_driver--><g id="elem_Feng_driver"><ellipse cx="1892.4551" cy="702.6211" fill="#FEFECE" filter="url(#fbuzttvv7ao8c)" rx="8" ry="8" style="stroke:#A80036;stroke-width:2.0;"/><path d="M1892.4551,710.6211 L1892.4551,737.6211 M1879.4551,718.6211 L1905.4551,718.6211 M1892.4551,737.6211 L1879.4551,752.6211 M1892.4551,737.6211 L1905.4551,752.6211 " fill="none" filter="url(#fbuzttvv7ao8c)" style="stroke:#A80036;stroke-width:2.0;"/><text fill="#A52A2A" font-family="sans-serif" font-size="14" lengthAdjust="spacing" textLength="31.9102" x="1876.5" y="774.7285">Feng</text></g><!--entity Julia--><g id="elem_Julia"><ellipse cx="1061.5" cy="686.6211" fill="#FEFECE" filter="url(#fbuzttvv7ao8c)" rx="8" ry="8" style="stroke:#A80036;stroke-width:2.0;"/><path d="M1061.5,694.6211 L1061.5,721.6211 M1048.5,702.6211 L1074.5,702.6211 M1061.5,721.6211 L1048.5,736.6211 M1061.5,721.6211 L1074.5,736.6211 " fill="none" filter="url(#fbuzttvv7ao8c)" style="stroke:#A80036;stroke-width:2.0;"/><text fill="#A52A2A" font-family="sans-serif" font-size="14" lengthAdjust="spacing" textLength="28.793" x="1047.1035" y="758.7285">Julia</text></g><!--entity girlie--><g id="elem_girlie"><ellipse cx="1892.3345" cy="823.6211" fill="#FEFECE" filter="url(#fbuzttvv7ao8c)" rx="8" ry="8" style="stroke:#A80036;stroke-width:2.0;"/><path d="M1892.3345,831.6211 L1892.3345,858.6211 M1879.3345,839.6211 L1905.3345,839.6211 M1892.3345,858.6211 L1879.3345,873.6211 M1892.3345,858.6211 L1905.3345,873.6211 " fill="none" filter="url(#fbuzttvv7ao8c)" style="stroke:#A80036;stroke-width:2.0;"/><text fill="#A52A2A" font-family="sans-serif" font-size="14" lengthAdjust="spacing" textLength="32.6689" x="1876" y="895.7285">Girlie</text></g><!--entity Daniel--><g id="elem_Daniel"><ellipse cx="803.8447" cy="686.6211" fill="#FEFECE" filter="url(#fbuzttvv7ao8c)" rx="8" ry="8" style="stroke:#A80036;stroke-width:2.0;"/><path d="M803.8447,694.6211 L803.8447,721.6211 M790.8447,702.6211 L816.8447,702.6211 M803.8447,721.6211 L790.8447,736.6211 M803.8447,721.6211 L816.8447,736.6211 " fill="none" filter="url(#fbuzttvv7ao8c)" style="stroke:#A80036;stroke-width:2.0;"/><text fill="#A52A2A" font-family="sans-serif" font-size="14" lengthAdjust="spacing" textLength="39.6895" x="784" y="758.7285">Daniel</text></g><!--link Sloan to Alva--><g id="link_Sloan_Alva"><path d="M1061.5,409.8711 C1061.5,426.9111 1061.5,440.4411 1061.5,457.4711 " fill="none" id="Sloan-to-Alva" style="stroke:#0000FF;stroke-width:1.0;"/><polygon fill="#0000FF" points="1061.5,463.4711,1065.5,454.4711,1061.5,458.4711,1057.5,454.4711,1061.5,463.4711" style="stroke:#0000FF;stroke-width:1.0;"/><text fill="#228B22" font-family="sans-serif" font-size="13" lengthAdjust="spacing" textLength="28.8945" x="1035" y="442.1494">&#1084;&#1072;&#1090;&#1100;</text></g><!--link Fang to Sloan--><g id="link_Fang_Sloan"><path d="M1061.5,269.8711 C1061.5,286.9111 1061.5,300.4411 1061.5,317.4711 " fill="none" id="Fang-to-Sloan" style="stroke:#0000FF;stroke-width:1.0;"/><polygon fill="#0000FF" points="1061.5,323.4711,1065.5,314.4711,1061.5,318.4711,1057.5,314.4711,1061.5,323.4711" style="stroke:#0000FF;stroke-width:1.0;"/><text fill="#228B22" font-family="sans-serif" font-size="13" lengthAdjust="spacing" textLength="70.6812" x="1014" y="302.1494">&#1074; &#1080;&#1090;&#1086;&#1075;&#1077; &#1084;&#1091;&#1078;</text></g><!--link Fang to ???????--><g id="link_Fang_&#1089;&#1074;&#1072;&#1076;&#1100;&#1073;&#1072;"><path d="M1087.05,242.1411 C1130.19,269.4011 1219,325.5311 1261.01,352.0911 " fill="none" id="Fang-&#1089;&#1074;&#1072;&#1076;&#1100;&#1073;&#1072;" style="stroke:#0000FF;stroke-width:1.0;"/><text fill="#228B22" font-family="sans-serif" font-size="13" lengthAdjust="spacing" textLength="36.8672" x="1143" y="260.6494">&#1078;&#1077;&#1085;&#1080;&#1093;</text></g><!--link Sloan to ???????--><g id="link_Sloan_&#1089;&#1074;&#1072;&#1076;&#1100;&#1073;&#1072;"><path d="M1079.51,366.6211 C1112.34,366.6211 1185.5,366.6211 1234.81,366.6211 " fill="none" id="Sloan-&#1089;&#1074;&#1072;&#1076;&#1100;&#1073;&#1072;" style="stroke:#0000FF;stroke-width:1.0;"/><text fill="#228B22" font-family="sans-serif" font-size="13" lengthAdjust="spacing" textLength="48.2295" x="1137" y="362.6494">&#1085;&#1077;&#1074;&#1077;&#1089;&#1090;&#1072;</text></g><!--link Alva to ???????--><g id="link_Alva_&#1089;&#1074;&#1072;&#1076;&#1100;&#1073;&#1072;"><path d="M1076.69,497.6511 C1114.03,474.0511 1215.24,410.0811 1260.99,381.1611 " fill="none" id="Alva-&#1089;&#1074;&#1072;&#1076;&#1100;&#1073;&#1072;" style="stroke:#0000FF;stroke-width:1.0;"/></g><!--link ??????? to Feng--><g id="link_&#1089;&#1074;&#1072;&#1076;&#1100;&#1073;&#1072;_Feng"><path d="M1334.19,369.8411 C1413.15,375.1211 1566.15,385.3511 1614.78,388.6011 " fill="none" id="&#1089;&#1074;&#1072;&#1076;&#1100;&#1073;&#1072;-Feng" style="stroke:#0000FF;stroke-width:1.0;"/><text fill="#228B22" font-family="sans-serif" font-size="13" lengthAdjust="spacing" textLength="31.1987" x="1432" y="368.6494">&#1075;&#1086;&#1089;&#1090;&#1100;</text></g><!--link ??????? to Lu--><g id="link_&#1089;&#1074;&#1072;&#1076;&#1100;&#1073;&#1072;_Lu"><path d="M1323.47,355.9511 C1398.87,334.4711 1565.97,286.8611 1615.74,272.6811 " fill="none" id="&#1089;&#1074;&#1072;&#1076;&#1100;&#1073;&#1072;-Lu" style="stroke:#0000FF;stroke-width:1.0;"/><text fill="#228B22" font-family="sans-serif" font-size="13" lengthAdjust="spacing" textLength="31.1987" x="1432.0815" y="252.6494">&#1075;&#1086;&#1089;&#1090;&#1100;</text><path d="M1370,261.9121 L1370,288.9121 L1521,288.9121 L1521,271.9121 L1511,261.9121 L1370,261.9121 " fill="#FBFB77" filter="url(#fbuzttvv7ao8c)" style="stroke:#A80036;stroke-width:1.0;"/><path d="M1511,261.9121 L1511,271.9121 L1521,271.9121 L1511,261.9121 " fill="#FBFB77" style="stroke:#A80036;stroke-width:1.0;"/><text fill="#A52A2A" font-family="sans-serif" font-size="13" lengthAdjust="spacing" textLength="130.3618" x="1376" y="280.9404">&#1080;&#1083;&#1080; &#1101;&#1090;&#1086; &#1089;&#1072;&#1084; Lu Fang?</text></g><!--link Li to Alva--><g id="link_Li_Alva"><path d="M832.34,472.6911 C886.41,480.7311 999.3654,497.5277 1040.3454,503.6277 " fill="none" id="Li-to-Alva" style="stroke:#0000FF;stroke-width:1.0;"/><polygon fill="#0000FF" points="1046.28,504.5111,1037.967,499.2296,1041.3345,503.7749,1036.7892,507.1424,1046.28,504.5111" style="stroke:#0000FF;stroke-width:1.0;"/><text fill="#228B22" font-family="sans-serif" font-size="13" lengthAdjust="spacing" textLength="96.7256" x="909" y="479.6494">&#1083;&#1091;&#1095;&#1096;&#1072;&#1103; &#1087;&#1086;&#1076;&#1088;&#1091;&#1075;&#1072;</text></g><!--link ????? to Alva--><g id="link_&#1096;&#1082;&#1086;&#1083;&#1072;_Alva"><path d="M560.12,564.3311 C626.29,564.9911 763.34,564.0811 878,548.6211 C941.8,540.0211 1016.08,519.6011 1046.47,510.7911 " fill="none" id="&#1096;&#1082;&#1086;&#1083;&#1072;-Alva" style="stroke:#0000FF;stroke-width:1.0;"/><text fill="#228B22" font-family="sans-serif" font-size="13" lengthAdjust="spacing" textLength="125.563" x="741.5" y="544.6494">&#1086;&#1090;&#1074;&#1077;&#1090;&#1089;&#1090;&#1074;&#1077;&#1085;&#1085;&#1072;&#1103; &#1079;&#1072; &#1044;&#1047;</text></g><!--link ????? to Li--><g id="link_&#1096;&#1082;&#1086;&#1083;&#1072;_Li"><path d="M551,553.3611 C606.5,534.7011 723.13,495.4811 775.97,477.7111 " fill="none" id="&#1096;&#1082;&#1086;&#1083;&#1072;-Li" style="stroke:#0000FF;stroke-width:1.0;"/></g><!--link Zhang to ?????--><g id="link_Zhang_&#1096;&#1082;&#1086;&#1083;&#1072;"><path d="M286.66,400.6911 C327.89,422.5411 395.64,460.5311 449,500.6211 C463.58,511.5811 465.51,516.3511 479,528.6211 C486.46,535.4011 494.8,542.8211 501.89,549.0711 " fill="none" id="Zhang-&#1096;&#1082;&#1086;&#1083;&#1072;" style="stroke:#0000FF;stroke-width:1.0;"/><text fill="#228B22" font-family="sans-serif" font-size="13" lengthAdjust="spacing" textLength="91.8442" x="357" y="437.6494">&#1086;&#1076;&#1085;&#1086;&#1082;&#1083;&#1072;&#1089;&#1089;&#1085;&#1080;&#1094;&#1072;</text></g><!--link Liu to Li--><g id="link_Liu_Li"><path d="M804,371.8711 C804,388.9111 804,402.4411 804,419.4711 " fill="none" id="Liu-to-Li" style="stroke:#0000FF;stroke-width:1.0;"/><polygon fill="#0000FF" points="804,425.4711,808,416.4711,804,420.4711,800,416.4711,804,425.4711" style="stroke:#0000FF;stroke-width:1.0;"/><text fill="#228B22" font-family="sans-serif" font-size="13" lengthAdjust="spacing" textLength="59.9663" x="762" y="404.1494">superviser</text></g><!--link Song to ?????--><g id="link_Song_&#1096;&#1082;&#1086;&#1083;&#1072;"><path d="M278.1,621.9411 C317.32,619.0811 389.67,611.8111 449,594.6211 C464.61,590.1011 481.26,582.7711 494.35,576.3711 " fill="none" id="Song-&#1096;&#1082;&#1086;&#1083;&#1072;" style="stroke:#0000FF;stroke-width:1.0;"/><text fill="#228B22" font-family="sans-serif" font-size="13" lengthAdjust="spacing" textLength="77.1938" x="364" y="590.6494">&#1091;&#1095;&#1080;&#1090;&#1077;&#1083;&#1100;&#1085;&#1080;&#1094;&#1072;</text></g><!--link Gao to ?????--><g id="link_Gao_&#1096;&#1082;&#1086;&#1083;&#1072;"><path d="M287.76,511.3011 C340.12,523.1711 433.35,544.3111 483.79,555.7511 " fill="none" id="Gao-&#1096;&#1082;&#1086;&#1083;&#1072;" style="stroke:#0000FF;stroke-width:1.0;"/><text fill="#228B22" font-family="sans-serif" font-size="13" lengthAdjust="spacing" textLength="40.6313" x="382.5" y="523.6494">&#1091;&#1095;&#1077;&#1085;&#1080;&#1082;</text></g><!--link Teng to Gao--><g id="link_Teng_Gao"><path d="M72.74,440.3311 C107.96,452.8811 163.8184,472.7963 203.6784,487.0063 " fill="none" id="Teng-to-Gao" style="stroke:#0000FF;stroke-width:1.0;"/><polygon fill="#0000FF" points="209.33,489.0211,202.1958,482.2312,204.6203,487.3421,199.5094,489.7667,209.33,489.0211" style="stroke:#0000FF;stroke-width:1.0;"/><text fill="#228B22" font-family="sans-serif" font-size="13" lengthAdjust="spacing" textLength="26.0571" x="114" y="452.6494">&#1076;&#1088;&#1091;&#1075;</text></g><!--link Doggy to Gao--><g id="link_Doggy_Gao"><path d="M64.5,547.0111 C97.5,539.0111 160.1692,523.8059 203.3592,513.3259 " fill="none" id="Doggy-to-Gao" style="stroke:#0000FF;stroke-width:1.0;"/><polygon fill="#0000FF" points="209.19,511.9111,199.5006,510.1461,204.331,513.0901,201.387,517.9205,209.19,511.9111" style="stroke:#0000FF;stroke-width:1.0;"/><text fill="#228B22" font-family="sans-serif" font-size="13" lengthAdjust="spacing" textLength="26.0571" x="114" y="523.6494">&#1076;&#1088;&#1091;&#1075;</text></g><!--link Ciyi to Fang--><g id="link_Ciyi_Fang"><path d="M1061.5,129.8711 C1061.5,146.9111 1061.5,158.4411 1061.5,175.4711 " fill="none" id="Ciyi-to-Fang" style="stroke:#0000FF;stroke-width:1.0;"/><polygon fill="#0000FF" points="1061.5,183.4711,1064.5,175.4711,1058.5,175.4711,1061.5,183.4711" style="stroke:#0000FF;stroke-width:1.0;"/><text fill="#228B22" font-family="sans-serif" font-size="13" lengthAdjust="spacing" textLength="30.3354" x="1034" y="162.1494">&#1078;&#1077;&#1085;&#1072;</text></g><!--link Qingdao to Ciyi--><g id="link_Qingdao_Ciyi"><path d="M833.81,210.8311 C888.63,180.8011 1006.05,116.4511 1046.48,94.3011 " fill="none" id="Qingdao-Ciyi" style="stroke:#0000FF;stroke-width:1.0;"/></g><!--link Qingdao to Fang--><g id="link_Qingdao_Fang"><path d="M878.22,226.6211 C931.3,226.6211 999.85,226.6211 1035.88,226.6211 " fill="none" id="Qingdao-Fang" style="stroke:#0000FF;stroke-width:1.0;"/></g><!--link Qingdao to Sloan--><g id="link_Qingdao_Sloan"><path d="M833.81,242.4111 C887.32,271.7311 1000.5,333.7411 1043.47,357.2911 " fill="none" id="Qingdao-Sloan" style="stroke:#0000FF;stroke-width:1.0;"/></g><!--link Huang to Qingdao--><g id="link_Huang_Qingdao"><path d="M540.36,225.6911 C579.11,225.8311 666.51,226.1411 729.87,226.3611 " fill="none" id="Huang-Qingdao" style="stroke:#0000FF;stroke-width:1.0;"/><text fill="#228B22" font-family="sans-serif" font-size="13" lengthAdjust="spacing" textLength="105.4092" x="592.5" y="222.6494">&#1087;&#1088;&#1086;&#1076;&#1072;&#1074;&#1077;&#1094; &#1084;&#1086;&#1083;&#1086;&#1082;&#1072;</text></g><!--link Qi to Qingdao--><g id="link_Qi_Qingdao"><path d="M542.67,117.6611 C556.14,125.3611 573.81,135.0411 590,142.6211 C648.86,170.1911 719.42,196.8011 762.72,212.4411 " fill="none" id="Qi-Qingdao" style="stroke:#0000FF;stroke-width:1.0;"/></g><!--link Qi to Fang--><g id="link_Qi_Fang"><path d="M542.78,107.0211 C612.58,114.9411 832.7,143.1611 1006,200.6211 C1016.05,203.9511 1021.2717,206.0413 1030.4317,210.5713 " fill="none" id="Qi-to-Fang" style="stroke:#0000FF;stroke-width:1.0;"/><polygon fill="#0000FF" points="1035.81,213.2311,1029.5158,205.6559,1031.3281,211.0146,1025.9694,212.8269,1035.81,213.2311" style="stroke:#0000FF;stroke-width:1.0;"/><text fill="#228B22" font-family="sans-serif" font-size="13" lengthAdjust="spacing" textLength="109.5986" x="749.5" y="130.6494">&#1074;&#1099;&#1077;&#1079;&#1076;&#1085;&#1086;&#1081; &#1082;&#1086;&#1083;&#1083;&#1077;&#1075;&#1072;</text></g><!--link Wang to Qingdao--><g id="link_Wang_Qingdao"><path d="M559.8,448.6611 C599.92,427.5311 661.6,389.8911 700,341.6211 C722.09,313.8511 706.54,294.2511 730,267.6211 C739.7,256.6011 753.11,247.9011 765.79,241.3911 " fill="none" id="Wang-Qingdao" style="stroke:#0000FF;stroke-width:1.0;"/><text fill="#228B22" font-family="sans-serif" font-size="13" lengthAdjust="spacing" textLength="108.272" x="591" y="337.6494">&#1089;&#1086;&#1089;&#1077;&#1076;&#1082;&#1072; &#1089; 1 &#1101;&#1090;&#1072;&#1078;&#1072;</text></g><!--link Yu to ?????--><g id="link_Yu_&#1096;&#1082;&#1086;&#1083;&#1072;"><path d="M83.46,724.5111 C138.53,728.7911 243.07,731.7511 326,703.6211 C402.7,677.6011 474.79,609.3611 504.37,578.8011 " fill="none" id="Yu-&#1096;&#1082;&#1086;&#1083;&#1072;" style="stroke:#0000FF;stroke-width:1.0;"/><text fill="#228B22" font-family="sans-serif" font-size="13" lengthAdjust="spacing" textLength="153.0483" x="172" y="699.6494">&#1080;&#1079; &#1087;&#1072;&#1088;&#1072;&#1083;&#1083;&#1077;&#1083;&#1100;&#1085;&#1086;&#1075;&#1086; &#1082;&#1083;&#1072;&#1089;&#1089;&#1072;</text></g><!--link Jim to Qingdao--><g id="link_Jim_Qingdao"><path d="M534.51,340.6711 C576.93,322.6511 704.89,268.2911 767.6,241.6611 " fill="none" id="Jim-Qingdao" style="stroke:#0000FF;stroke-width:1.0;"/><text fill="#228B22" font-family="sans-serif" font-size="13" lengthAdjust="spacing" textLength="49.8037" x="620.5" y="268.6494">&#1087;&#1080;&#1074;&#1086;&#1074;&#1072;&#1088;</text></g><!--link Fang to Lu Min--><g id="link_Fang_Lu Min"><path d="M1087.05,218.9711 C1131.2,205.2211 1217.4717,178.3462 1258.1617,165.6662 " fill="none" id="Fang-to-Lu Min" style="stroke:#0000FF;stroke-width:1.0;"/><polygon fill="#0000FF" points="1263.89,163.8811,1254.1075,162.7398,1259.1164,165.3687,1256.4876,170.3776,1263.89,163.8811" style="stroke:#0000FF;stroke-width:1.0;"/><text fill="#228B22" font-family="sans-serif" font-size="13" lengthAdjust="spacing" textLength="23.0229" x="1149.5" y="180.6494">&#1089;&#1099;&#1085;</text></g><!--link Ciyi to Lu Min--><g id="link_Ciyi_Lu Min"><path d="M1076.69,91.1711 C1114.79,103.3811 1213.6961,135.0904 1258.0161,149.2904 " fill="none" id="Ciyi-to-Lu Min" style="stroke:#0000FF;stroke-width:1.0;"/><polygon fill="#0000FF" points="1263.73,151.1211,1256.3796,144.5658,1258.9684,149.5955,1253.9387,152.1843,1263.73,151.1211" style="stroke:#0000FF;stroke-width:1.0;"/><text fill="#228B22" font-family="sans-serif" font-size="13" lengthAdjust="spacing" textLength="23.0229" x="1149.5" y="102.6494">&#1089;&#1099;&#1085;</text></g><!--link Alva to new_school--><g id="link_Alva_new_school"><path d="M1076.53,506.6211 C1142.75,506.6211 1426.45,506.6211 1559.99,506.6211 " fill="none" id="Alva-new_school" style="stroke:#0000FF;stroke-width:1.0;"/></g><!--link new_school to Steward--><g id="link_new_school_Steward"><path d="M1666.46,520.9611 C1715.54,541.3911 1805.17,578.6911 1855.23,599.5211 " fill="none" id="new_school-Steward" style="stroke:#0000FF;stroke-width:1.0;"/><text fill="#228B22" font-family="sans-serif" font-size="13" lengthAdjust="spacing" textLength="77.1938" x="1740" y="546.6494">&#1091;&#1095;&#1080;&#1090;&#1077;&#1083;&#1100;&#1085;&#1080;&#1094;&#1072;</text></g><!--link Alva to Zoey--><g id="link_Alva_Zoey"><path d="M1076.66,520.8511 C1087.07,530.6411 1101.96,543.3211 1117,551.6211 C1169.38,580.5211 1233.5796,596.1708 1263.5396,602.5008 " fill="none" id="Alva-to-Zoey" style="stroke:#0000FF;stroke-width:1.0;"/><polygon fill="#0000FF" points="1269.41,603.7411,1261.4313,597.967,1264.518,602.7075,1259.7775,605.7942,1269.41,603.7411" style="stroke:#0000FF;stroke-width:1.0;"/><text fill="#228B22" font-family="sans-serif" font-size="13" lengthAdjust="spacing" textLength="86.7534" x="1118" y="547.6494">&#1085;&#1086;&#1074;&#1072;&#1103; &#1087;&#1086;&#1076;&#1088;&#1091;&#1075;&#1072;</text></g><!--link Zoey to new_school--><g id="link_Zoey_new_school"><path d="M1300.78,602.3211 C1349.78,588.0811 1508.16,542.0411 1586,519.4111 " fill="none" id="Zoey-new_school" style="stroke:#0000FF;stroke-width:1.0;"/></g><!--link Zoey to zoey_home--><g id="link_Zoey_zoey_home"><path d="M1300.78,612.1611 C1352.22,631.4511 1524.23,695.9511 1597.02,723.2511 " fill="none" id="Zoey-zoey_home" style="stroke:#0000FF;stroke-width:1.0;"/></g><!--link new_school to Ashley--><g id="link_new_school_Ashley"><path d="M1700.52,503.1911 C1757.58,500.3311 1835.14,496.4411 1871.34,494.6311 " fill="none" id="new_school-Ashley" style="stroke:#0000FF;stroke-width:1.0;"/><text fill="#228B22" font-family="sans-serif" font-size="13" lengthAdjust="spacing" textLength="91.8442" x="1733" y="492.6494">&#1086;&#1076;&#1085;&#1086;&#1082;&#1083;&#1072;&#1089;&#1089;&#1085;&#1080;&#1094;&#1072;</text></g><!--link new_school to korean--><g id="link_new_school_korean"><path d="M1656.88,491.0911 C1702.8,462.4211 1801.07,401.0711 1854.71,367.5911 " fill="none" id="new_school-korean" style="stroke:#0000FF;stroke-width:1.0;"/></g><!--link Julia to Zoey--><g id="link_Julia_Zoey"><path d="M1076.83,713.2011 C1102.7,701.5111 1158.84,675.7411 1205,651.6211 C1227.8,639.7011 1248.438,627.7795 1264.168,618.4595 " fill="none" id="Julia-to-Zoey" style="stroke:#0000FF;stroke-width:1.0;"/><polygon fill="#0000FF" points="1269.33,615.4011,1259.5481,616.5475,1265.0284,617.9498,1263.626,623.4301,1269.33,615.4011" style="stroke:#0000FF;stroke-width:1.0;"/><text fill="#228B22" font-family="sans-serif" font-size="13" lengthAdjust="spacing" textLength="28.8945" x="1147" y="647.6494">&#1084;&#1072;&#1090;&#1100;</text></g><!--link Julia to zoey_home--><g id="link_Julia_zoey_home"><path d="M1076.53,720.0211 C1146.25,721.9811 1457.04,730.7411 1579.84,734.2111 " fill="none" id="Julia-zoey_home" style="stroke:#0000FF;stroke-width:1.0;"/></g><!--link zoey_home to Feng_driver--><g id="link_zoey_home_Feng_driver"><path d="M1682.03,735.6211 C1741.98,735.6211 1838.98,735.6211 1876.25,735.6211 " fill="none" id="zoey_home-Feng_driver" style="stroke:#0000FF;stroke-width:1.0;"/><text fill="#228B22" font-family="sans-serif" font-size="13" lengthAdjust="spacing" textLength="56.5259" x="1750.5" y="731.6494">&#1074;&#1086;&#1076;&#1080;&#1090;&#1077;&#1083;&#1100;</text></g><!--link zoey_home to girlie--><g id="link_zoey_home_girlie"><path d="M1660.76,749.0311 C1715.66,774.6311 1833.67,829.6611 1876,849.3911 " fill="none" id="zoey_home-girlie" style="stroke:#0000FF;stroke-width:1.0;"/><text fill="#228B22" font-family="sans-serif" font-size="13" lengthAdjust="spacing" textLength="56.6084" x="1750.5" y="780.6494">&#1089;&#1083;&#1091;&#1078;&#1072;&#1085;&#1082;&#1072;</text></g><!--link korean to Ashley--><g id="link_korean_Ashley"><path d="M1892.5,396.8711 C1892.5,414.4111 1892.5,427.7611 1892.5,444.5211 " fill="none" id="korean-to-Ashley" style="stroke:#0000FF;stroke-width:1.0;"/><polygon fill="#0000FF" points="1892.5,450.5211,1896.5,441.5211,1892.5,445.5211,1888.5,441.5211,1892.5,450.5211" style="stroke:#0000FF;stroke-width:1.0;"/><text fill="#228B22" font-family="sans-serif" font-size="13" lengthAdjust="spacing" textLength="47.5566" x="1856.5" y="429.1494">&#1087;&#1086;&#1076;&#1088;&#1091;&#1075;&#1072;</text></g><!--link Daniel to zoey_home--><g id="link_Daniel_zoey_home"><path d="M824.13,726.4811 C863.27,740.1111 955.58,770.1811 1036,780.6211 C1242.15,807.3811 1490.76,764.3811 1588.07,744.6611 " fill="none" id="Daniel-zoey_home" style="stroke:#0000FF;stroke-width:1.0;"/></g><!--link Daniel to Zoey--><g id="link_Daniel_Zoey"><path d="M824.09,712.9411 C872.47,696.2511 1004.09,652.3811 1117,628.6211 C1172.52,616.9411 1233.822,610.8447 1263.152,608.3247 " fill="none" id="Daniel-to-Zoey" style="stroke:#0000FF;stroke-width:1.0;"/><polygon fill="#0000FF" points="1269.13,607.8111,1259.8206,604.5962,1264.1484,608.2391,1260.5055,612.5668,1269.13,607.8111" style="stroke:#0000FF;stroke-width:1.0;"/><text fill="#228B22" font-family="sans-serif" font-size="13" lengthAdjust="spacing" textLength="27.8599" x="1048" y="631.6494">&#1086;&#1090;&#1077;&#1094;</text></g><!--link Daniel to Julia--><g id="link_Daniel_Julia"><path d="M824.2,719.6211 C873.41,719.6211 997.17,719.6211 1040.32,719.6211 " fill="none" id="Daniel-to-Julia" style="stroke:#0000FF;stroke-width:1.0;"/><polygon fill="#0000FF" points="1046.32,719.6211,1037.32,715.6211,1041.32,719.6211,1037.32,723.6211,1046.32,719.6211" style="stroke:#0000FF;stroke-width:1.0;"/><text fill="#228B22" font-family="sans-serif" font-size="13" lengthAdjust="spacing" textLength="24.1338" x="945" y="715.6494">&#1084;&#1091;&#1078;</text></g><!--SRC=[VLNDRXH74BxtKvJ40P0m4WUaP8GsGX228dD87Cc1YzLuUtTR7azRysFBEM4Z258SaKCaNcEozk8DYvTNw7cZV5KzCpkxtd2Qwgglw_UhdjWCSieTfNOuogblKxERMvUeRCycbBhCY7IWKxrFB_NktZ1rHTBVTR5BAJCw6vauxa3wPg2BE1-u90-O6ozJTvHq43g5eh75XLarTQuEN6goV9WQaoYLspmszBCzD2bzhxFyJYrl0w9Kj1KxdKHquy0cUpW-Z0_ruhHPq1ET32FIcGWBWwLVRN9ah9WshLBYXpPwn1ue8l_PbzLfTQQKafkm10XCO_BJwjJF_RcV05YzzXzLYzkWMzM97_lINrHd_XzVtkOh7_t4N-7McoRGUjWLO6C_gKxWlbIIoXeaObsx35Zqn72jS7Fkv-m2sQ_5RHOhgCJbXbn2CRh3bgcV-IbLVtAH10-b_qnrBx_ZIj6-ZKwhPjNhwlVg7HhsdlmNzEMYUeMcdAC49F3EVu9gLWTlxipXcoizbLh7qfwhuE7Ib-J_zX-ktUKvHIz6tEQjaNOoEpb2_ODs6Abs0sO3z3X3-ooxIrkkPW0BClkYddgXLF0cFUx4ulpy1VAPGmSDSZoHyRtbad2HwO0cH9GL1oOzj9b9GI6trXKtH_WoGQFE5cuuu_z12rVy9oJx2qRAL9MC-Q2YnsuuF9QpI4e9XkV17f5wtNqbvdK6-7raZmFtMM0-_MIJOL-xEtJlss_ktsPBhL6A8IYu5rQe9JDAg25SXlZfd1dRFGlj4VXfqIoaI2hYeI5M54Agw4UxBpA-MESYoQsXxUREjbnvNj2ZaO6bdlLp35A9EuxK14MYNwfNCiXIgFQMbveRpLCjaLm7BQT5XUFg3zHuMNFWNwedD8EIMRrzBHJuWMM2-O9zuqZtmlwKw1OwXPGtrh1iwYzvOqhaMTR-0qVuRPbJXttmWOwirWS7Os37xA5zW7gyuVICISE9ePIhUePhJUecIS2nRDyYGV9_IJBe1VYn5Y8yISpHJhOxSYvMxOlLrM49QIitHphjXpKCib8Ba10agB-oCD4BPmBnMMY3zUGONiycnTLNI10hUTt26pF7m-O_u3ELKdu3R6VazitYHaUrd6_qC1l5d0z5NtiimETZvm9Fz_1Vmzl_u07t3oEVLEy115zwlLNl0OhhuKtd_nU4dNxA_puuBMAhmvgmXEVFfh4reXcA2BgmPQa_xI-jCNMhQqNPtaKmMGUfi1t9CZR42pimutyXg2nLALKNpByAQLRWxD9aeiSwiIOExvc8IeNlSdwjRb4E_qAmrLrJA2ngVih_0G00]--></g></svg>