<svg xmlns="http://www.w3.org/2000/svg" xmlns:xlink="http://www.w3.org/1999/xlink" contentStyleType="text/css" height="1037px" preserveAspectRatio="none" style="width:1937px;height:1037px;background:#FFF5EE;" version="1.1" viewBox="0 0 1937 1037" width="1937px" zoomAndPan="magnify"><title>River East, River West</title><defs><filter height="300%" id="f7gi61gafb4jx" width="300%" x="-1" y="-1"><feGaussianBlur result="blurOut" stdDeviation="2.0"/><feColorMatrix in="blurOut" result="blurOut2" type="matrix" values="0 0 0 0 0 0 0 0 0 0 0 0 0 0 0 0 0 0 .4 0"/><feOffset dx="4.0" dy="4.0" in="blurOut2" result="blurOut3"/><feBlend in="SourceGraphic" in2="blurOut3" mode="normal"/></filter></defs><g><rect fill="#FFF5EE" height="1037" style="stroke:none;stroke-width:1.0;" width="1937" x="0" y="0"/><text fill="#A52A2A" font-family="sans-serif" font-size="14" font-weight="bold" lengthAdjust="spacing" textLength="148.6201" x="887.25" y="25.1074">River East, River West</text><!--entity Sloan--><g id="elem_Sloan"><ellipse cx="1061.4033" cy="333.6211" fill="#FFC0CB" filter="url(#f7gi61gafb4jx)" rx="8" ry="8" style="stroke:#A80036;stroke-width:2.0;"/><path d="M1061.4033,341.6211 L1061.4033,368.6211 M1048.4033,349.6211 L1074.4033,349.6211 M1061.4033,368.6211 L1048.4033,383.6211 M1061.4033,368.6211 L1074.4033,383.6211 " fill="none" filter="url(#f7gi61gafb4jx)" style="stroke:#A80036;stroke-width:2.0;"/><text fill="#A52A2A" font-family="sans-serif" font-size="14" lengthAdjust="spacing" textLength="35.8066" x="1043.5" y="405.7285">Sloan</text></g><!--entity Alva--><g id="elem_Alva"><ellipse cx="1061.5" cy="739.6211" fill="#FFC0CB" filter="url(#f7gi61gafb4jx)" rx="8" ry="8" style="stroke:#A80036;stroke-width:2.0;"/><path d="M1061.5,747.6211 L1061.5,774.6211 M1048.5,755.6211 L1074.5,755.6211 M1061.5,774.6211 L1048.5,789.6211 M1061.5,774.6211 L1074.5,789.6211 " fill="none" filter="url(#f7gi61gafb4jx)" style="stroke:#A80036;stroke-width:2.0;"/><text fill="#A52A2A" font-family="sans-serif" font-size="14" lengthAdjust="spacing" textLength="27.2344" x="1047.8828" y="811.7285">Alva</text></g><!--entity Fang--><g id="elem_Fang"><ellipse cx="1061.686" cy="193.6211" fill="#FFC0CB" filter="url(#f7gi61gafb4jx)" rx="8" ry="8" style="stroke:#A80036;stroke-width:2.0;"/><path d="M1061.686,201.6211 L1061.686,228.6211 M1048.686,209.6211 L1074.686,209.6211 M1061.686,228.6211 L1048.686,243.6211 M1061.686,228.6211 L1074.686,243.6211 " fill="none" filter="url(#f7gi61gafb4jx)" style="stroke:#A80036;stroke-width:2.0;"/><text fill="#A52A2A" font-family="sans-serif" font-size="14" lengthAdjust="spacing" textLength="51.3721" x="1036" y="265.7285">Lu Fang</text></g><!--entity Li--><g id="elem_Li"><ellipse cx="804.0137" cy="956.6211" fill="#FEFECE" filter="url(#f7gi61gafb4jx)" rx="8" ry="8" style="stroke:#A80036;stroke-width:2.0;"/><path d="M804.0137,964.6211 L804.0137,991.6211 M791.0137,972.6211 L817.0137,972.6211 M804.0137,991.6211 L791.0137,1006.6211 M804.0137,991.6211 L817.0137,1006.6211 " fill="none" filter="url(#f7gi61gafb4jx)" style="stroke:#A80036;stroke-width:2.0;"/><text fill="#A52A2A" font-family="sans-serif" font-size="14" lengthAdjust="spacing" textLength="56.0273" x="776" y="1028.7285">Li Xinwei</text></g><g id="elem_&#1089;&#1074;&#1072;&#1076;&#1100;&#1073;&#1072;"><ellipse cx="1284.9204" cy="366.462" fill="#FEFECE" filter="url(#f7gi61gafb4jx)" rx="49.9204" ry="16.3409" style="stroke:#A80036;stroke-width:1.0;"/><text fill="#A52A2A" font-family="sans-serif" font-size="14" lengthAdjust="spacing" textLength="53.4912" x="1255.1748" y="371.2657">&#1089;&#1074;&#1072;&#1076;&#1100;&#1073;&#1072;</text></g><!--entity Feng--><g id="elem_Feng"><ellipse cx="1630.9551" cy="235.6211" fill="#FEFECE" filter="url(#f7gi61gafb4jx)" rx="8" ry="8" style="stroke:#A80036;stroke-width:2.0;"/><path d="M1630.9551,243.6211 L1630.9551,270.6211 M1617.9551,251.6211 L1643.9551,251.6211 M1630.9551,270.6211 L1617.9551,285.6211 M1630.9551,270.6211 L1643.9551,285.6211 " fill="none" filter="url(#f7gi61gafb4jx)" style="stroke:#A80036;stroke-width:2.0;"/><text fill="#A52A2A" font-family="sans-serif" font-size="14" lengthAdjust="spacing" textLength="31.9102" x="1615" y="307.7285">Feng</text></g><!--entity Lu--><g id="elem_Lu"><ellipse cx="1631" cy="356.6211" fill="#FEFECE" filter="url(#f7gi61gafb4jx)" rx="8" ry="8" style="stroke:#A80036;stroke-width:2.0;"/><path d="M1631,364.6211 L1631,391.6211 M1618,372.6211 L1644,372.6211 M1631,391.6211 L1618,406.6211 M1631,391.6211 L1644,406.6211 " fill="none" filter="url(#f7gi61gafb4jx)" style="stroke:#A80036;stroke-width:2.0;"/><text fill="#A52A2A" font-family="sans-serif" font-size="14" lengthAdjust="spacing" textLength="15.5723" x="1623.2139" y="428.7285">Lu</text></g><g id="elem_&#1096;&#1082;&#1086;&#1083;&#1072;"><ellipse cx="519.6929" cy="809.8398" fill="#FEFECE" filter="url(#f7gi61gafb4jx)" rx="40.6929" ry="16.2187" style="stroke:#A80036;stroke-width:1.0;"/><text fill="#A52A2A" font-family="sans-serif" font-size="14" lengthAdjust="spacing" textLength="41.0977" x="496.7907" y="814.462">&#1096;&#1082;&#1086;&#1083;&#1072;</text></g><!--entity Zhang--><g id="elem_Zhang"><ellipse cx="248.6411" cy="594.6211" fill="#FEFECE" filter="url(#f7gi61gafb4jx)" rx="8" ry="8" style="stroke:#A80036;stroke-width:2.0;"/><path d="M248.6411,602.6211 L248.6411,629.6211 M235.6411,610.6211 L261.6411,610.6211 M248.6411,629.6211 L235.6411,644.6211 M248.6411,629.6211 L261.6411,644.6211 " fill="none" filter="url(#f7gi61gafb4jx)" style="stroke:#A80036;stroke-width:2.0;"/><text fill="#A52A2A" font-family="sans-serif" font-size="14" lengthAdjust="spacing" textLength="76.2822" x="210.5" y="666.7285">Zhang Shao</text></g><!--entity Gao--><g id="elem_Gao"><ellipse cx="248.417" cy="715.6211" fill="#FEFECE" filter="url(#f7gi61gafb4jx)" rx="8" ry="8" style="stroke:#A80036;stroke-width:2.0;"/><path d="M248.417,723.6211 L248.417,750.6211 M235.417,731.6211 L261.417,731.6211 M248.417,750.6211 L235.417,765.6211 M248.417,750.6211 L261.417,765.6211 " fill="none" filter="url(#f7gi61gafb4jx)" style="stroke:#A80036;stroke-width:2.0;"/><text fill="#A52A2A" font-family="sans-serif" font-size="14" lengthAdjust="spacing" textLength="77.834" x="209.5" y="787.7285">Gao Xiaofan</text></g><!--entity Song--><g id="elem_Song"><ellipse cx="248.5688" cy="836.6211" fill="#FEFECE" filter="url(#f7gi61gafb4jx)" rx="8" ry="8" style="stroke:#A80036;stroke-width:2.0;"/><path d="M248.5688,844.6211 L248.5688,871.6211 M235.5688,852.6211 L261.5688,852.6211 M248.5688,871.6211 L235.5688,886.6211 M248.5688,871.6211 L261.5688,886.6211 " fill="none" filter="url(#f7gi61gafb4jx)" style="stroke:#A80036;stroke-width:2.0;"/><text fill="#A52A2A" font-family="sans-serif" font-size="14" lengthAdjust="spacing" textLength="59.1377" x="219" y="908.7285">Ms. Song</text></g><!--entity Liu--><g id="elem_Liu"><ellipse cx="804" cy="816.6211" fill="#FEFECE" filter="url(#f7gi61gafb4jx)" rx="8" ry="8" style="stroke:#A80036;stroke-width:2.0;"/><path d="M804,824.6211 L804,851.6211 M791,832.6211 L817,832.6211 M804,851.6211 L791,866.6211 M804,851.6211 L817,866.6211 " fill="none" filter="url(#f7gi61gafb4jx)" style="stroke:#A80036;stroke-width:2.0;"/><text fill="#A52A2A" font-family="sans-serif" font-size="14" lengthAdjust="spacing" textLength="18.6826" x="794.6587" y="888.7285">Liu</text></g><!--entity Teng--><g id="elem_Teng"><ellipse cx="44.5171" cy="643.6211" fill="#FEFECE" filter="url(#f7gi61gafb4jx)" rx="8" ry="8" style="stroke:#A80036;stroke-width:2.0;"/><path d="M44.5171,651.6211 L44.5171,678.6211 M31.5171,659.6211 L57.5171,659.6211 M44.5171,678.6211 L31.5171,693.6211 M44.5171,678.6211 L57.5171,693.6211 " fill="none" filter="url(#f7gi61gafb4jx)" style="stroke:#A80036;stroke-width:2.0;"/><text fill="#A52A2A" font-family="sans-serif" font-size="14" lengthAdjust="spacing" textLength="56.0342" x="16.5" y="715.7285">Teng Xin</text></g><!--entity Doggy--><g id="elem_Doggy"><ellipse cx="44.7344" cy="764.6211" fill="#FEFECE" filter="url(#f7gi61gafb4jx)" rx="8" ry="8" style="stroke:#A80036;stroke-width:2.0;"/><path d="M44.7344,772.6211 L44.7344,799.6211 M31.7344,780.6211 L57.7344,780.6211 M44.7344,799.6211 L31.7344,814.6211 M44.7344,799.6211 L57.7344,814.6211 " fill="none" filter="url(#f7gi61gafb4jx)" style="stroke:#A80036;stroke-width:2.0;"/><text fill="#A52A2A" font-family="sans-serif" font-size="14" lengthAdjust="spacing" textLength="40.4688" x="24.5" y="836.7285">Doggy</text></g><!--entity Ciyi--><g id="elem_Ciyi"><ellipse cx="1061.5" cy="53.6211" fill="#FEFECE" filter="url(#f7gi61gafb4jx)" rx="8" ry="8" style="stroke:#A80036;stroke-width:2.0;"/><path d="M1061.5,61.6211 L1061.5,88.6211 M1048.5,69.6211 L1074.5,69.6211 M1061.5,88.6211 L1048.5,103.6211 M1061.5,88.6211 L1074.5,103.6211 " fill="none" filter="url(#f7gi61gafb4jx)" style="stroke:#A80036;stroke-width:2.0;"/><text fill="#A52A2A" font-family="sans-serif" font-size="14" lengthAdjust="spacing" textLength="23.3311" x="1049.8345" y="125.7285">Ciyi</text></g><g id="elem_Qingdao"><ellipse cx="804.0991" cy="305.8409" fill="#FEFECE" filter="url(#f7gi61gafb4jx)" rx="74.0991" ry="17.2198" style="stroke:#A80036;stroke-width:1.0;"/><text fill="#A52A2A" font-family="sans-serif" font-size="14" lengthAdjust="spacing" textLength="91.8545" x="755.1719" y="310.6446">Qingdao, 1985</text></g><!--entity Huang--><g id="elem_Huang"><ellipse cx="519.6274" cy="272.6211" fill="#FEFECE" filter="url(#f7gi61gafb4jx)" rx="8" ry="8" style="stroke:#A80036;stroke-width:2.0;"/><path d="M519.6274,280.6211 L519.6274,307.6211 M506.6274,288.6211 L532.6274,288.6211 M519.6274,307.6211 L506.6274,322.6211 M519.6274,307.6211 L532.6274,322.6211 " fill="none" filter="url(#f7gi61gafb4jx)" style="stroke:#A80036;stroke-width:2.0;"/><text fill="#A52A2A" font-family="sans-serif" font-size="14" lengthAdjust="spacing" textLength="41.2549" x="499" y="344.7285">Huang</text></g><!--entity Qi--><g id="elem_Qi"><ellipse cx="519.4551" cy="151.6211" fill="#FEFECE" filter="url(#f7gi61gafb4jx)" rx="8" ry="8" style="stroke:#A80036;stroke-width:2.0;"/><path d="M519.4551,159.6211 L519.4551,186.6211 M506.4551,167.6211 L532.4551,167.6211 M519.4551,186.6211 L506.4551,201.6211 M519.4551,186.6211 L532.4551,201.6211 " fill="none" filter="url(#f7gi61gafb4jx)" style="stroke:#A80036;stroke-width:2.0;"/><text fill="#A52A2A" font-family="sans-serif" font-size="14" lengthAdjust="spacing" textLength="45.9102" x="496.5" y="223.7285">Xiao Qi</text></g><!--entity Jim--><g id="elem_Jim"><ellipse cx="519.5" cy="393.6211" fill="#FEFECE" filter="url(#f7gi61gafb4jx)" rx="8" ry="8" style="stroke:#A80036;stroke-width:2.0;"/><path d="M519.5,401.6211 L519.5,428.6211 M506.5,409.6211 L532.5,409.6211 M519.5,428.6211 L506.5,443.6211 M519.5,428.6211 L532.5,443.6211 " fill="none" filter="url(#f7gi61gafb4jx)" style="stroke:#A80036;stroke-width:2.0;"/><text fill="#A52A2A" font-family="sans-serif" font-size="14" lengthAdjust="spacing" textLength="21.7725" x="508.6138" y="465.7285">Jim</text></g><!--entity Wang--><g id="elem_Wang"><ellipse cx="519.5791" cy="514.6211" fill="#FEFECE" filter="url(#f7gi61gafb4jx)" rx="8" ry="8" style="stroke:#A80036;stroke-width:2.0;"/><path d="M519.5791,522.6211 L519.5791,549.6211 M506.5791,530.6211 L532.5791,530.6211 M519.5791,549.6211 L506.5791,564.6211 M519.5791,549.6211 L532.5791,564.6211 " fill="none" filter="url(#f7gi61gafb4jx)" style="stroke:#A80036;stroke-width:2.0;"/><text fill="#A52A2A" font-family="sans-serif" font-size="14" lengthAdjust="spacing" textLength="80.1582" x="479.5" y="586.7285">Auntie Wang</text></g><!--entity Yu--><g id="elem_Yu"><ellipse cx="44.5273" cy="933.6211" fill="#FEFECE" filter="url(#f7gi61gafb4jx)" rx="8" ry="8" style="stroke:#A80036;stroke-width:2.0;"/><path d="M44.5273,941.6211 L44.5273,968.6211 M31.5273,949.6211 L57.5273,949.6211 M44.5273,968.6211 L31.5273,983.6211 M44.5273,968.6211 L57.5273,983.6211 " fill="none" filter="url(#f7gi61gafb4jx)" style="stroke:#A80036;stroke-width:2.0;"/><text fill="#A52A2A" font-family="sans-serif" font-size="14" lengthAdjust="spacing" textLength="77.0547" x="6" y="1005.7285">Yu Chentian</text></g><!--entity Lu Min--><g id="elem_Lu Min"><ellipse cx="1285.0103" cy="124.6211" fill="#FEFECE" filter="url(#f7gi61gafb4jx)" rx="8" ry="8" style="stroke:#A80036;stroke-width:2.0;"/><path d="M1285.0103,132.6211 L1285.0103,159.6211 M1272.0103,140.6211 L1298.0103,140.6211 M1285.0103,159.6211 L1272.0103,174.6211 M1285.0103,159.6211 L1298.0103,174.6211 " fill="none" filter="url(#f7gi61gafb4jx)" style="stroke:#A80036;stroke-width:2.0;"/><text fill="#A52A2A" font-family="sans-serif" font-size="14" lengthAdjust="spacing" textLength="42.0205" x="1264" y="196.7285">Lu Min</text></g><g id="elem_new_school"><ellipse cx="1631.2295" cy="784.767" fill="#FEFECE" filter="url(#f7gi61gafb4jx)" rx="71.2295" ry="16.6459" style="stroke:#A80036;stroke-width:1.0;"/><text fill="#A52A2A" font-family="sans-serif" font-size="14" lengthAdjust="spacing" textLength="83.3096" x="1586.5747" y="789.5707">&#1085;&#1086;&#1074;&#1072;&#1103; &#1096;&#1082;&#1086;&#1083;&#1072;</text></g><!--entity Steward--><g id="elem_Steward"><ellipse cx="1892.4551" cy="891.6211" fill="#FEFECE" filter="url(#f7gi61gafb4jx)" rx="8" ry="8" style="stroke:#A80036;stroke-width:2.0;"/><path d="M1892.4551,899.6211 L1892.4551,926.6211 M1879.4551,907.6211 L1905.4551,907.6211 M1892.4551,926.6211 L1879.4551,941.6211 M1892.4551,926.6211 L1905.4551,941.6211 " fill="none" filter="url(#f7gi61gafb4jx)" style="stroke:#A80036;stroke-width:2.0;"/><text fill="#A52A2A" font-family="sans-serif" font-size="14" lengthAdjust="spacing" textLength="73.9102" x="1855.5" y="963.7285">Ms Steward</text></g><!--entity Zoey--><g id="elem_Zoey"><ellipse cx="1285.062" cy="651.6211" fill="#FEFECE" filter="url(#f7gi61gafb4jx)" rx="8" ry="8" style="stroke:#A80036;stroke-width:2.0;"/><path d="M1285.062,659.6211 L1285.062,686.6211 M1272.062,667.6211 L1298.062,667.6211 M1285.062,686.6211 L1272.062,701.6211 M1285.062,686.6211 L1298.062,701.6211 " fill="none" filter="url(#f7gi61gafb4jx)" style="stroke:#A80036;stroke-width:2.0;"/><text fill="#A52A2A" font-family="sans-serif" font-size="14" lengthAdjust="spacing" textLength="31.124" x="1269.5" y="723.7285">Zoey</text></g><g id="elem_zoey_home"><ellipse cx="1630.9295" cy="524.4729" fill="#FEFECE" filter="url(#f7gi61gafb4jx)" rx="50.9295" ry="16.3518" style="stroke:#A80036;stroke-width:1.0;"/><text fill="#A52A2A" font-family="sans-serif" font-size="14" lengthAdjust="spacing" textLength="54.8447" x="1600.5071" y="529.2766">&#1044;&#1086;&#1084; &#1047;&#1086;&#1080;</text></g><!--entity Ashley--><g id="elem_Ashley"><ellipse cx="1892.5103" cy="770.6211" fill="#FEFECE" filter="url(#f7gi61gafb4jx)" rx="8" ry="8" style="stroke:#A80036;stroke-width:2.0;"/><path d="M1892.5103,778.6211 L1892.5103,805.6211 M1879.5103,786.6211 L1905.5103,786.6211 M1892.5103,805.6211 L1879.5103,820.6211 M1892.5103,805.6211 L1905.5103,820.6211 " fill="none" filter="url(#f7gi61gafb4jx)" style="stroke:#A80036;stroke-width:2.0;"/><text fill="#A52A2A" font-family="sans-serif" font-size="14" lengthAdjust="spacing" textLength="42.0205" x="1871.5" y="842.7285">Ashley</text></g><!--entity korean--><g id="elem_korean"><ellipse cx="1892.5601" cy="631.2422" fill="#FEFECE" filter="url(#f7gi61gafb4jx)" rx="8" ry="8" style="stroke:#A80036;stroke-width:2.0;"/><path d="M1892.5601,639.2422 L1892.5601,666.2422 M1879.5601,647.2422 L1905.5601,647.2422 M1892.5601,666.2422 L1879.5601,681.2422 M1892.5601,666.2422 L1905.5601,681.2422 " fill="none" filter="url(#f7gi61gafb4jx)" style="stroke:#A80036;stroke-width:2.0;"/><text fill="#A52A2A" font-family="sans-serif" font-size="14" lengthAdjust="spacing" textLength="40.4688" x="1872.3257" y="703.3496">Jiyoon</text><text fill="#A52A2A" font-family="sans-serif" font-size="14" font-style="italic" lengthAdjust="spacing" textLength="75.1201" x="1855" y="617.7285">&#171;&#1082;&#1086;&#1088;&#1077;&#1103;&#1085;&#1082;&#1072;&#187;</text></g><!--entity Feng_driver--><g id="elem_Feng_driver"><ellipse cx="1892.4551" cy="370.6211" fill="#FEFECE" filter="url(#f7gi61gafb4jx)" rx="8" ry="8" style="stroke:#A80036;stroke-width:2.0;"/><path d="M1892.4551,378.6211 L1892.4551,405.6211 M1879.4551,386.6211 L1905.4551,386.6211 M1892.4551,405.6211 L1879.4551,420.6211 M1892.4551,405.6211 L1905.4551,420.6211 " fill="none" filter="url(#f7gi61gafb4jx)" style="stroke:#A80036;stroke-width:2.0;"/><text fill="#A52A2A" font-family="sans-serif" font-size="14" lengthAdjust="spacing" textLength="31.9102" x="1876.5" y="442.7285">Feng</text></g><!--entity Julia--><g id="elem_Julia"><ellipse cx="1061.5" cy="526.6211" fill="#FEFECE" filter="url(#f7gi61gafb4jx)" rx="8" ry="8" style="stroke:#A80036;stroke-width:2.0;"/><path d="M1061.5,534.6211 L1061.5,561.6211 M1048.5,542.6211 L1074.5,542.6211 M1061.5,561.6211 L1048.5,576.6211 M1061.5,561.6211 L1074.5,576.6211 " fill="none" filter="url(#f7gi61gafb4jx)" style="stroke:#A80036;stroke-width:2.0;"/><text fill="#A52A2A" font-family="sans-serif" font-size="14" lengthAdjust="spacing" textLength="28.793" x="1047.1035" y="598.7285">Julia</text></g><!--entity girlie--><g id="elem_girlie"><ellipse cx="1892.3345" cy="491.6211" fill="#FEFECE" filter="url(#f7gi61gafb4jx)" rx="8" ry="8" style="stroke:#A80036;stroke-width:2.0;"/><path d="M1892.3345,499.6211 L1892.3345,526.6211 M1879.3345,507.6211 L1905.3345,507.6211 M1892.3345,526.6211 L1879.3345,541.6211 M1892.3345,526.6211 L1905.3345,541.6211 " fill="none" filter="url(#f7gi61gafb4jx)" style="stroke:#A80036;stroke-width:2.0;"/><text fill="#A52A2A" font-family="sans-serif" font-size="14" lengthAdjust="spacing" textLength="32.6689" x="1876" y="563.7285">Girlie</text></g><!--entity Daniel--><g id="elem_Daniel"><ellipse cx="803.8447" cy="526.6211" fill="#FEFECE" filter="url(#f7gi61gafb4jx)" rx="8" ry="8" style="stroke:#A80036;stroke-width:2.0;"/><path d="M803.8447,534.6211 L803.8447,561.6211 M790.8447,542.6211 L816.8447,542.6211 M803.8447,561.6211 L790.8447,576.6211 M803.8447,561.6211 L816.8447,576.6211 " fill="none" filter="url(#f7gi61gafb4jx)" style="stroke:#A80036;stroke-width:2.0;"/><text fill="#A52A2A" font-family="sans-serif" font-size="14" lengthAdjust="spacing" textLength="39.6895" x="784" y="598.7285">Daniel</text></g><!--entity Gabe--><g id="elem_Gabe"><ellipse cx="1631.124" cy="651.6211" fill="#FEFECE" filter="url(#f7gi61gafb4jx)" rx="8" ry="8" style="stroke:#A80036;stroke-width:2.0;"/><path d="M1631.124,659.6211 L1631.124,686.6211 M1618.124,667.6211 L1644.124,667.6211 M1631.124,686.6211 L1618.124,701.6211 M1631.124,686.6211 L1644.124,701.6211 " fill="none" filter="url(#f7gi61gafb4jx)" style="stroke:#A80036;stroke-width:2.0;"/><text fill="#A52A2A" font-family="sans-serif" font-size="14" lengthAdjust="spacing" textLength="34.248" x="1614" y="723.7285">Gabe</text></g><!--entity Su--><g id="elem_Su"><ellipse cx="1630.8379" cy="864.6211" fill="#FEFECE" filter="url(#f7gi61gafb4jx)" rx="8" ry="8" style="stroke:#A80036;stroke-width:2.0;"/><path d="M1630.8379,872.6211 L1630.8379,899.6211 M1617.8379,880.6211 L1643.8379,880.6211 M1630.8379,899.6211 L1617.8379,914.6211 M1630.8379,899.6211 L1643.8379,914.6211 " fill="none" filter="url(#f7gi61gafb4jx)" style="stroke:#A80036;stroke-width:2.0;"/><text fill="#A52A2A" font-family="sans-serif" font-size="14" lengthAdjust="spacing" textLength="39.6758" x="1611" y="936.7285">Ms Su</text></g><!--link Sloan to Alva--><g id="link_Sloan_Alva"><path d="M1043.35,386.8811 C1006.76,430.2511 930.01,535.6211 959,627.1211 C976.27,681.6111 1017.9024,729.0537 1042.0024,753.5537 " fill="none" id="Sloan-to-Alva" style="stroke:#0000FF;stroke-width:1.0;"/><polygon fill="#0000FF" points="1046.21,757.8311,1042.7502,748.6099,1042.7037,754.2666,1037.047,754.22,1046.21,757.8311" style="stroke:#0000FF;stroke-width:1.0;"/><text fill="#228B22" font-family="sans-serif" font-size="13" lengthAdjust="spacing" textLength="28.8945" x="943" y="623.1494">&#1084;&#1072;&#1090;&#1100;</text></g><!--link Fang to Sloan--><g id="link_Fang_Sloan"><path d="M1061.5,269.8711 C1061.5,286.9111 1061.5,300.4411 1061.5,317.4711 " fill="none" id="Fang-to-Sloan" style="stroke:#0000FF;stroke-width:1.0;"/><polygon fill="#0000FF" points="1061.5,323.4711,1065.5,314.4711,1061.5,318.4711,1057.5,314.4711,1061.5,323.4711" style="stroke:#0000FF;stroke-width:1.0;"/><text fill="#228B22" font-family="sans-serif" font-size="13" lengthAdjust="spacing" textLength="70.6812" x="1014" y="302.1494">&#1074; &#1080;&#1090;&#1086;&#1075;&#1077; &#1084;&#1091;&#1078;</text></g><!--link Fang to ???????--><g id="link_Fang_&#1089;&#1074;&#1072;&#1076;&#1100;&#1073;&#1072;"><path d="M1087.05,242.1411 C1130.19,269.4011 1219,325.5311 1261.01,352.0911 " fill="none" id="Fang-&#1089;&#1074;&#1072;&#1076;&#1100;&#1073;&#1072;" style="stroke:#0000FF;stroke-width:1.0;"/><text fill="#228B22" font-family="sans-serif" font-size="13" lengthAdjust="spacing" textLength="36.8672" x="1143" y="260.6494">&#1078;&#1077;&#1085;&#1080;&#1093;</text></g><!--link Sloan to ???????--><g id="link_Sloan_&#1089;&#1074;&#1072;&#1076;&#1100;&#1073;&#1072;"><path d="M1079.51,366.6211 C1112.34,366.6211 1185.5,366.6211 1234.81,366.6211 " fill="none" id="Sloan-&#1089;&#1074;&#1072;&#1076;&#1100;&#1073;&#1072;" style="stroke:#0000FF;stroke-width:1.0;"/><text fill="#228B22" font-family="sans-serif" font-size="13" lengthAdjust="spacing" textLength="48.2295" x="1137" y="362.6494">&#1085;&#1077;&#1074;&#1077;&#1089;&#1090;&#1072;</text></g><!--link Alva to ???????--><g id="link_Alva_&#1089;&#1074;&#1072;&#1076;&#1100;&#1073;&#1072;"><path d="M1076.6,733.0911 C1080.06,723.1611 1083.72,712.5211 1087,702.6211 C1101.05,660.1811 1097.34,646.7711 1117,606.6211 C1161.88,514.9911 1239.23,419.2911 1270.4,382.4111 " fill="none" id="Alva-&#1089;&#1074;&#1072;&#1076;&#1100;&#1073;&#1072;" style="stroke:#0000FF;stroke-width:1.0;"/><text fill="#228B22" font-family="sans-serif" font-size="13" lengthAdjust="spacing" textLength="82.3164" x="1120" y="462.6494">&#1076;&#1086;&#1095;&#1100; &#1085;&#1077;&#1074;&#1077;&#1089;&#1090;&#1099;</text></g><!--link ??????? to Feng--><g id="link_&#1089;&#1074;&#1072;&#1076;&#1100;&#1073;&#1072;_Feng"><path d="M1301.75,351.0711 C1316.71,337.2811 1340.5,317.8011 1365,307.6211 C1454.32,270.5111 1573.44,267.9611 1614.97,268.3011 " fill="none" id="&#1089;&#1074;&#1072;&#1076;&#1100;&#1073;&#1072;-Feng" style="stroke:#0000FF;stroke-width:1.0;"/><text fill="#228B22" font-family="sans-serif" font-size="13" lengthAdjust="spacing" textLength="31.1987" x="1432" y="268.6494">&#1075;&#1086;&#1089;&#1090;&#1100;</text></g><!--link ??????? to Lu--><g id="link_&#1089;&#1074;&#1072;&#1076;&#1100;&#1073;&#1072;_Lu"><path d="M1334.19,369.8411 C1413.71,375.1611 1568.31,385.5011 1615.79,388.6711 " fill="none" id="&#1089;&#1074;&#1072;&#1076;&#1100;&#1073;&#1072;-Lu" style="stroke:#0000FF;stroke-width:1.0;"/><text fill="#228B22" font-family="sans-serif" font-size="13" lengthAdjust="spacing" textLength="31.1987" x="1432.0815" y="327.6494">&#1075;&#1086;&#1089;&#1090;&#1100;</text><path d="M1370,336.9121 L1370,363.9121 L1521,363.9121 L1521,346.9121 L1511,336.9121 L1370,336.9121 " fill="#FBFB77" filter="url(#f7gi61gafb4jx)" style="stroke:#A80036;stroke-width:1.0;"/><path d="M1511,336.9121 L1511,346.9121 L1521,346.9121 L1511,336.9121 " fill="#FBFB77" style="stroke:#A80036;stroke-width:1.0;"/><text fill="#A52A2A" font-family="sans-serif" font-size="13" lengthAdjust="spacing" textLength="130.3618" x="1376" y="355.9404">&#1080;&#1083;&#1080; &#1101;&#1090;&#1086; &#1089;&#1072;&#1084; Lu Fang?</text></g><!--link Li to Alva--><g id="link_Li_Alva"><path d="M832.34,966.4011 C886.41,920.4811 1000.7271,823.3855 1041.7071,788.5755 " fill="none" id="Li-to-Alva" style="stroke:#0000FF;stroke-width:1.0;"/><polygon fill="#0000FF" points="1046.28,784.6911,1036.831,787.4691,1042.4692,787.9281,1042.0102,793.5663,1046.28,784.6911" style="stroke:#0000FF;stroke-width:1.0;"/><text fill="#228B22" font-family="sans-serif" font-size="13" lengthAdjust="spacing" textLength="96.7256" x="909" y="814.6494">&#1083;&#1091;&#1095;&#1096;&#1072;&#1103; &#1087;&#1086;&#1076;&#1088;&#1091;&#1075;&#1072;</text></g><!--link ????? to Alva--><g id="link_&#1096;&#1082;&#1086;&#1083;&#1072;_Alva"><path d="M558.69,805.4711 C600.65,801.0211 670.06,794.0211 730,789.6211 C852.34,780.6411 1000.49,774.8111 1046.31,773.1311 " fill="none" id="&#1096;&#1082;&#1086;&#1083;&#1072;-Alva" style="stroke:#0000FF;stroke-width:1.0;"/><text fill="#228B22" font-family="sans-serif" font-size="13" lengthAdjust="spacing" textLength="125.563" x="741.5" y="776.6494">&#1086;&#1090;&#1074;&#1077;&#1090;&#1089;&#1090;&#1074;&#1077;&#1085;&#1085;&#1072;&#1103; &#1079;&#1072; &#1044;&#1047;</text></g><!--link ????? to Li--><g id="link_&#1096;&#1082;&#1086;&#1083;&#1072;_Li"><path d="M541.73,823.1511 C592.29,855.3611 719.75,936.5811 775.82,972.3011 " fill="none" id="&#1096;&#1082;&#1086;&#1083;&#1072;-Li" style="stroke:#0000FF;stroke-width:1.0;"/></g><!--link Zhang to ?????--><g id="link_Zhang_&#1096;&#1082;&#1086;&#1083;&#1072;"><path d="M286.55,646.8311 C327.69,668.8111 395.35,706.9211 449,746.6211 C469.16,761.5411 490.22,781.3111 503.79,794.6911 " fill="none" id="Zhang-&#1096;&#1082;&#1086;&#1083;&#1072;" style="stroke:#0000FF;stroke-width:1.0;"/><text fill="#228B22" font-family="sans-serif" font-size="13" lengthAdjust="spacing" textLength="91.8442" x="357" y="682.6494">&#1086;&#1076;&#1085;&#1086;&#1082;&#1083;&#1072;&#1089;&#1089;&#1085;&#1080;&#1094;&#1072;</text></g><!--link Liu to Li--><g id="link_Liu_Li"><path d="M804,892.8711 C804,909.9111 804,923.4411 804,940.4711 " fill="none" id="Liu-to-Li" style="stroke:#0000FF;stroke-width:1.0;"/><polygon fill="#0000FF" points="804,946.4711,808,937.4711,804,941.4711,800,937.4711,804,946.4711" style="stroke:#0000FF;stroke-width:1.0;"/><text fill="#228B22" font-family="sans-serif" font-size="13" lengthAdjust="spacing" textLength="59.9663" x="762" y="925.1494">superviser</text></g><!--link Song to ?????--><g id="link_Song_&#1096;&#1082;&#1086;&#1083;&#1072;"><path d="M278.1,867.9411 C317.32,865.0811 389.67,857.8111 449,840.6211 C464.61,836.1011 481.26,828.7711 494.35,822.3711 " fill="none" id="Song-&#1096;&#1082;&#1086;&#1083;&#1072;" style="stroke:#0000FF;stroke-width:1.0;"/><text fill="#228B22" font-family="sans-serif" font-size="13" lengthAdjust="spacing" textLength="77.1938" x="364" y="836.6494">&#1091;&#1095;&#1080;&#1090;&#1077;&#1083;&#1100;&#1085;&#1080;&#1094;&#1072;</text></g><!--link Gao to ?????--><g id="link_Gao_&#1096;&#1082;&#1086;&#1083;&#1072;"><path d="M287.76,757.3011 C340.12,769.1711 433.35,790.3111 483.79,801.7511 " fill="none" id="Gao-&#1096;&#1082;&#1086;&#1083;&#1072;" style="stroke:#0000FF;stroke-width:1.0;"/><text fill="#228B22" font-family="sans-serif" font-size="13" lengthAdjust="spacing" textLength="40.6313" x="382.5" y="769.6494">&#1091;&#1095;&#1077;&#1085;&#1080;&#1082;</text></g><!--link Teng to Gao--><g id="link_Teng_Gao"><path d="M72.74,686.3311 C107.96,698.8811 163.8184,718.7963 203.6784,733.0063 " fill="none" id="Teng-to-Gao" style="stroke:#0000FF;stroke-width:1.0;"/><polygon fill="#0000FF" points="209.33,735.0211,202.1958,728.2312,204.6203,733.3421,199.5094,735.7667,209.33,735.0211" style="stroke:#0000FF;stroke-width:1.0;"/><text fill="#228B22" font-family="sans-serif" font-size="13" lengthAdjust="spacing" textLength="26.0571" x="114" y="697.6494">&#1076;&#1088;&#1091;&#1075;</text></g><!--link Doggy to Gao--><g id="link_Doggy_Gao"><path d="M64.5,793.0111 C97.5,785.0111 160.1692,769.8059 203.3592,759.3259 " fill="none" id="Doggy-to-Gao" style="stroke:#0000FF;stroke-width:1.0;"/><polygon fill="#0000FF" points="209.19,757.9111,199.5006,756.1461,204.331,759.0901,201.387,763.9205,209.19,757.9111" style="stroke:#0000FF;stroke-width:1.0;"/><text fill="#228B22" font-family="sans-serif" font-size="13" lengthAdjust="spacing" textLength="26.0571" x="114" y="769.6494">&#1076;&#1088;&#1091;&#1075;</text></g><!--link Ciyi to Fang--><g id="link_Ciyi_Fang"><path d="M1061.5,129.8711 C1061.5,146.9111 1061.5,158.4411 1061.5,175.4711 " fill="none" id="Ciyi-to-Fang" style="stroke:#0000FF;stroke-width:1.0;"/><polygon fill="#0000FF" points="1061.5,183.4711,1064.5,175.4711,1058.5,175.4711,1061.5,183.4711" style="stroke:#0000FF;stroke-width:1.0;"/><text fill="#228B22" font-family="sans-serif" font-size="13" lengthAdjust="spacing" textLength="30.3354" x="1034" y="162.1494">&#1078;&#1077;&#1085;&#1072;</text></g><!--link Qingdao to Ciyi--><g id="link_Qingdao_Ciyi"><path d="M824.91,289.1411 C839.63,276.9211 860.14,259.8111 878,244.6211 C941.21,190.8611 1015.81,125.7411 1046.37,99.0011 " fill="none" id="Qingdao-Ciyi" style="stroke:#0000FF;stroke-width:1.0;"/></g><!--link Qingdao to Fang--><g id="link_Qingdao_Fang"><path d="M848.92,292.0411 C902.85,275.3611 992.47,247.6511 1035.69,234.2911 " fill="none" id="Qingdao-Fang" style="stroke:#0000FF;stroke-width:1.0;"/></g><!--link Qingdao to Sloan--><g id="link_Qingdao_Sloan"><path d="M856.09,317.8211 C914.05,331.6611 1005.42,353.4711 1043.23,362.5011 " fill="none" id="Qingdao-Sloan" style="stroke:#0000FF;stroke-width:1.0;"/></g><!--link Huang to Qingdao--><g id="link_Huang_Qingdao"><path d="M540.36,305.6211 C579.11,305.6211 666.51,305.6211 729.87,305.6211 " fill="none" id="Huang-Qingdao" style="stroke:#0000FF;stroke-width:1.0;"/><text fill="#228B22" font-family="sans-serif" font-size="13" lengthAdjust="spacing" textLength="105.4092" x="592.5" y="301.6494">&#1087;&#1088;&#1086;&#1076;&#1072;&#1074;&#1077;&#1094; &#1084;&#1086;&#1083;&#1086;&#1082;&#1072;</text></g><!--link Qi to Qingdao--><g id="link_Qi_Qingdao"><path d="M542.69,199.9611 C556.02,208.7611 573.54,219.6211 590,227.6211 C646.14,254.9111 714.41,278.3111 758.27,292.1711 " fill="none" id="Qi-Qingdao" style="stroke:#0000FF;stroke-width:1.0;"/></g><!--link Qi to Fang--><g id="link_Qi_Fang"><path d="M542.68,186.3411 C629.31,193.0811 938.6081,217.1355 1029.7081,224.2255 " fill="none" id="Qi-to-Fang" style="stroke:#0000FF;stroke-width:1.0;"/><polygon fill="#0000FF" points="1035.69,224.6911,1027.0275,220.0048,1030.7051,224.3031,1026.4068,227.9807,1035.69,224.6911" style="stroke:#0000FF;stroke-width:1.0;"/><text fill="#228B22" font-family="sans-serif" font-size="13" lengthAdjust="spacing" textLength="109.5986" x="749.5" y="197.6494">&#1074;&#1099;&#1077;&#1079;&#1076;&#1085;&#1086;&#1081; &#1082;&#1086;&#1083;&#1083;&#1077;&#1075;&#1072;</text></g><!--link Wang to Qingdao--><g id="link_Wang_Qingdao"><path d="M559.54,523.9711 C597.25,500.2711 655.11,461.6611 700,421.6211 C735.78,389.7111 771.6,346.0911 790.1,322.4811 " fill="none" id="Wang-Qingdao" style="stroke:#0000FF;stroke-width:1.0;"/><text fill="#228B22" font-family="sans-serif" font-size="13" lengthAdjust="spacing" textLength="108.272" x="591" y="417.6494">&#1089;&#1086;&#1089;&#1077;&#1076;&#1082;&#1072; &#1089; 1 &#1101;&#1090;&#1072;&#1078;&#1072;</text></g><!--link Yu to ?????--><g id="link_Yu_&#1096;&#1082;&#1086;&#1083;&#1072;"><path d="M83.46,970.5111 C138.53,974.7911 243.07,977.7511 326,949.6211 C402.7,923.6011 474.79,855.3611 504.37,824.8011 " fill="none" id="Yu-&#1096;&#1082;&#1086;&#1083;&#1072;" style="stroke:#0000FF;stroke-width:1.0;"/><text fill="#228B22" font-family="sans-serif" font-size="13" lengthAdjust="spacing" textLength="153.0483" x="172" y="945.6494">&#1080;&#1079; &#1087;&#1072;&#1088;&#1072;&#1083;&#1083;&#1077;&#1083;&#1100;&#1085;&#1086;&#1075;&#1086; &#1082;&#1083;&#1072;&#1089;&#1089;&#1072;</text></g><!--link Jim to Qingdao--><g id="link_Jim_Qingdao"><path d="M534.51,420.6211 C577.04,402.4011 705.56,347.3511 768.09,320.5711 " fill="none" id="Jim-Qingdao" style="stroke:#0000FF;stroke-width:1.0;"/><text fill="#228B22" font-family="sans-serif" font-size="13" lengthAdjust="spacing" textLength="49.8037" x="620.5" y="348.6494">&#1087;&#1080;&#1074;&#1086;&#1074;&#1072;&#1088;</text></g><!--link Fang to Lu Min--><g id="link_Fang_Lu Min"><path d="M1087.05,218.9711 C1131.2,205.2211 1217.4717,178.3462 1258.1617,165.6662 " fill="none" id="Fang-to-Lu Min" style="stroke:#0000FF;stroke-width:1.0;"/><polygon fill="#0000FF" points="1263.89,163.8811,1254.1075,162.7398,1259.1164,165.3687,1256.4876,170.3776,1263.89,163.8811" style="stroke:#0000FF;stroke-width:1.0;"/><text fill="#228B22" font-family="sans-serif" font-size="13" lengthAdjust="spacing" textLength="23.0229" x="1149.5" y="180.6494">&#1089;&#1099;&#1085;</text></g><!--link Ciyi to Lu Min--><g id="link_Ciyi_Lu Min"><path d="M1076.69,91.1711 C1114.79,103.3811 1213.6961,135.0904 1258.0161,149.2904 " fill="none" id="Ciyi-to-Lu Min" style="stroke:#0000FF;stroke-width:1.0;"/><polygon fill="#0000FF" points="1263.73,151.1211,1256.3796,144.5658,1258.9684,149.5955,1253.9387,152.1843,1263.73,151.1211" style="stroke:#0000FF;stroke-width:1.0;"/><text fill="#228B22" font-family="sans-serif" font-size="13" lengthAdjust="spacing" textLength="23.0229" x="1149.5" y="102.6494">&#1089;&#1099;&#1085;</text></g><!--link Alva to new_school--><g id="link_Alva_new_school"><path d="M1076.53,772.9211 C1142.8,774.3211 1426.82,780.3211 1560.24,783.1411 " fill="none" id="Alva-new_school" style="stroke:#0000FF;stroke-width:1.0;"/></g><!--link new_school to Steward--><g id="link_new_school_Steward"><path d="M1660.27,799.8711 C1707.69,825.4511 1803.19,876.9811 1855.4,905.1411 " fill="none" id="new_school-Steward" style="stroke:#0000FF;stroke-width:1.0;"/><text fill="#228B22" font-family="sans-serif" font-size="13" lengthAdjust="spacing" textLength="77.1938" x="1740" y="837.6494">&#1091;&#1095;&#1080;&#1090;&#1077;&#1083;&#1100;&#1085;&#1080;&#1094;&#1072;</text></g><!--link Alva to Zoey--><g id="link_Alva_Zoey"><path d="M1076.62,769.4811 C1102.64,763.4411 1159.64,749.0911 1205,729.6211 C1228.5,719.5311 1248.8353,707.4237 1264.3153,697.5237 " fill="none" id="Alva-to-Zoey" style="stroke:#0000FF;stroke-width:1.0;"/><polygon fill="#0000FF" points="1269.37,694.2911,1259.6329,695.7703,1265.1578,696.985,1263.9431,702.5099,1269.37,694.2911" style="stroke:#0000FF;stroke-width:1.0;"/><text fill="#228B22" font-family="sans-serif" font-size="13" lengthAdjust="spacing" textLength="86.7534" x="1118" y="725.6494">&#1085;&#1086;&#1074;&#1072;&#1103; &#1087;&#1086;&#1076;&#1088;&#1091;&#1075;&#1072;</text></g><!--link Zoey to new_school--><g id="link_Zoey_new_school"><path d="M1300.78,688.9211 C1349.78,703.1611 1508.16,749.2011 1586,771.8311 " fill="none" id="Zoey-new_school" style="stroke:#0000FF;stroke-width:1.0;"/></g><!--link Zoey to zoey_home--><g id="link_Zoey_zoey_home"><path d="M1300.78,677.7411 C1353.19,653.3711 1530.72,570.8011 1601,538.1111 " fill="none" id="Zoey-zoey_home" style="stroke:#0000FF;stroke-width:1.0;"/></g><!--link new_school to Ashley--><g id="link_new_school_Ashley"><path d="M1698.83,789.5111 C1756.04,793.7011 1834.8,799.4711 1871.35,802.1411 " fill="none" id="new_school-Ashley" style="stroke:#0000FF;stroke-width:1.0;"/><text fill="#228B22" font-family="sans-serif" font-size="13" lengthAdjust="spacing" textLength="91.8442" x="1733" y="787.6494">&#1086;&#1076;&#1085;&#1086;&#1082;&#1083;&#1072;&#1089;&#1089;&#1085;&#1080;&#1094;&#1072;</text></g><!--link new_school to korean--><g id="link_new_school_korean"><path d="M1661.77,769.7111 C1709.43,745.8311 1802.76,699.0811 1854.59,673.1111 " fill="none" id="new_school-korean" style="stroke:#0000FF;stroke-width:1.0;"/></g><!--link Julia to Zoey--><g id="link_Julia_Zoey"><path d="M1076.56,584.4011 C1086.2,599.3911 1100.25,617.8211 1117,629.6211 C1142.45,647.5511 1227.5748,670.3534 1263.4648,679.4734 " fill="none" id="Julia-to-Zoey" style="stroke:#0000FF;stroke-width:1.0;"/><polygon fill="#0000FF" points="1269.28,680.9511,1261.5423,674.8578,1264.434,679.7197,1259.5721,682.6113,1269.28,680.9511" style="stroke:#0000FF;stroke-width:1.0;"/><text fill="#228B22" font-family="sans-serif" font-size="13" lengthAdjust="spacing" textLength="28.8945" x="1147" y="625.6494">&#1084;&#1072;&#1090;&#1100;</text></g><!--link Julia to zoey_home--><g id="link_Julia_zoey_home"><path d="M1076.72,555.7811 C1087.65,553.0111 1103.17,549.4411 1117,547.6211 C1285.61,525.4511 1487.77,523.5511 1579.87,524.0211 " fill="none" id="Julia-zoey_home" style="stroke:#0000FF;stroke-width:1.0;"/></g><!--link zoey_home to Feng_driver--><g id="link_zoey_home_Feng_driver"><path d="M1660.76,511.2111 C1715.79,485.5511 1834.24,430.3211 1876.3,410.7111 " fill="none" id="zoey_home-Feng_driver" style="stroke:#0000FF;stroke-width:1.0;"/><text fill="#228B22" font-family="sans-serif" font-size="13" lengthAdjust="spacing" textLength="56.5259" x="1750.5" y="432.6494">&#1074;&#1086;&#1076;&#1080;&#1090;&#1077;&#1083;&#1100;</text></g><!--link zoey_home to girlie--><g id="link_zoey_home_girlie"><path d="M1682.03,524.6211 C1741.83,524.6211 1838.51,524.6211 1875.97,524.6211 " fill="none" id="zoey_home-girlie" style="stroke:#0000FF;stroke-width:1.0;"/><text fill="#228B22" font-family="sans-serif" font-size="13" lengthAdjust="spacing" textLength="56.6084" x="1750.5" y="520.6494">&#1089;&#1083;&#1091;&#1078;&#1072;&#1085;&#1082;&#1072;</text></g><!--link korean to Ashley--><g id="link_korean_Ashley"><path d="M1892.5,706.8711 C1892.5,724.4111 1892.5,737.7611 1892.5,754.5211 " fill="none" id="korean-to-Ashley" style="stroke:#0000FF;stroke-width:1.0;"/><polygon fill="#0000FF" points="1892.5,760.5211,1896.5,751.5211,1892.5,755.5211,1888.5,751.5211,1892.5,760.5211" style="stroke:#0000FF;stroke-width:1.0;"/><text fill="#228B22" font-family="sans-serif" font-size="13" lengthAdjust="spacing" textLength="47.5566" x="1856.5" y="739.1494">&#1087;&#1086;&#1076;&#1088;&#1091;&#1075;&#1072;</text></g><!--link Daniel to zoey_home--><g id="link_Daniel_zoey_home"><path d="M824.13,552.7611 C863.27,539.1311 955.58,509.0611 1036,498.6211 C1130.85,486.3111 666.25,396.4411 1530,500.6211 C1551.09,503.1611 1574.18,508.5311 1592.86,513.5411 " fill="none" id="Daniel-zoey_home" style="stroke:#0000FF;stroke-width:1.0;"/></g><!--link Daniel to Zoey--><g id="link_Daniel_Zoey"><path d="M824.04,578.4011 C843.43,596.3011 875.22,622.4311 908,635.6211 C1040.21,688.8311 1211.7237,687.3013 1263.3537,685.4913 " fill="none" id="Daniel-to-Zoey" style="stroke:#0000FF;stroke-width:1.0;"/><polygon fill="#0000FF" points="1269.35,685.2811,1260.2154,681.5989,1264.3531,685.4563,1260.4957,689.594,1269.35,685.2811" style="stroke:#0000FF;stroke-width:1.0;"/><text fill="#228B22" font-family="sans-serif" font-size="13" lengthAdjust="spacing" textLength="27.8599" x="1048" y="666.6494">&#1086;&#1090;&#1077;&#1094;</text></g><!--link Daniel to Julia--><g id="link_Daniel_Julia"><path d="M824.2,559.6211 C873.41,559.6211 997.17,559.6211 1040.32,559.6211 " fill="none" id="Daniel-to-Julia" style="stroke:#0000FF;stroke-width:1.0;"/><polygon fill="#0000FF" points="1046.32,559.6211,1037.32,555.6211,1041.32,559.6211,1037.32,563.6211,1046.32,559.6211" style="stroke:#0000FF;stroke-width:1.0;"/><text fill="#228B22" font-family="sans-serif" font-size="13" lengthAdjust="spacing" textLength="24.1338" x="945" y="555.6494">&#1084;&#1091;&#1078;</text></g><!--reverse link Zoey to Gabe--><g id="link_Zoey_Gabe"><path d="M1306.78,684.6211 C1362.72,684.6211 1555.25,684.6211 1613.7,684.6211 " fill="none" id="Zoey-backto-Gabe" style="stroke:#0000FF;stroke-width:1.0;"/><polygon fill="#0000FF" points="1300.78,684.6211,1309.78,688.6211,1305.78,684.6211,1309.78,680.6211,1300.78,684.6211" style="stroke:#0000FF;stroke-width:1.0;"/><text fill="#228B22" font-family="sans-serif" font-size="13" lengthAdjust="spacing" textLength="26.0571" x="1434.5" y="680.6494">&#1076;&#1088;&#1091;&#1075;</text></g><!--link new_school to Su--><g id="link_new_school_Su"><path d="M1631,801.3311 C1631,815.3411 1631,835.9911 1631,854.5811 " fill="none" id="new_school-Su" style="stroke:#0000FF;stroke-width:1.0;"/><text fill="#228B22" font-family="sans-serif" font-size="13" lengthAdjust="spacing" textLength="121.3354" x="1558" y="833.3994">&#1087;&#1086;&#1084;&#1086;&#1097;&#1085;&#1080;&#1082; &#1090;&#1088;&#1077;&#1085;&#1077;&#1085;&#1088;&#1072;</text></g><!--SRC=[VLNDRjj64BxlKmoGGnqWBf13WPOmL0H9qw9m3gqAkCd5eAsLj33DDVXZmptP3fgcY8lqK22lmSfMh5gHyWhBD-etioH5oKeE4cVdR-Vdczb8zpFAB2LcCCoePnAzdnaRg_J0n9JOL0jr52RX8Us5-mU3nEPnRzz6Dg5KX-bGHr5BfQVxOHvbVHjdNkVUNc9FufP6c81How9ShufQfdsRw3GR95h7IcKcYpJzR8vrGj-5QVQWedUWebJGZMmO1tJloCG7E3wAZiF5QJkdfs4y22XCXLW83FrguXDjHBHjb18_jDaXza01kG-kA2_AIwMKM4BYLI0QaPkK5sxkhjmOYkLBzrurUfkqKPwxaIlSTNdf_dN5VJPvxyPk1glVwulMgysWDdBZyXpk2oMXV4BpsitBFyhB9PFo3QAuemm7mLFDLO3P5SpE9Q-rUjlvYbPiCqqsfWXrOyd4JTs4ohyuVOA7mdsWgihVSWrGsCrM4QVbIqJv6gLyI-uZAdPTdg5SLqWE0Rnsjs1DgyjhcpbySq8NKeMH56xcFTouWjm_xjqTM-vWy6B83UWEGojTbIFOtuSMpGvjdt42FixWFak_fAwjiC64e2Aly90hvRr9zLjtSNoe_Gp_jyn1ZEVIs5US4WmPA2X2G6b-f9DZa-e4uB9hNN5n14bZ5EfouOOZ_eIseCZT8jXVq586iKJC1nKyiOF1gPo5Kafqk1_iaK7Zgwz4l4u0lu_DgPyA9XXFFvbuq0lj0thupTTVtMT9nL6ALP1mnmzN0tEaKAbm6kAdTMRTzba60XV_aDUZAfGAk6cuA_1Ngk17SoWqlXZqFCwCfftQPaTCdkVqUAWXgNhz78rKuevlgYz5e1_BCsba8L1xnUFEXUQk5WYkfIsdHOQZyWrolAamy1zL7Pg2oQZUkNCLy85XWlYQVUD83_ty5AWMAeMGDzUWRE9kU68An5bK_Zr6UElCgOK- -415LlE3Wn5qH-oXMKqTdd1wng3Xm93AhEhXMf7wWkJ2aKpV8a1oVqim8ruu6sjL12UnFjbDzuVMHghPPMqUXf2wcJu9avuVGqyhjL0IW7ZsPmOcU66r1puJpMKTEVgzMeUukeL4OoMk3UoOEHQRUuVFH5Bv3MgxGtke5nOjrdAymQDq674y57nkMG3FfzPwd1xWnSEhiBN5zKFBn-LRA08ldSwgTwyASx_J-MK3iTjB-5M4qpmoeHyJfh3-J18PBPo1a80BIvRgqpnsjQYTNKFAz2ukat6G39kMBElw-_mCJFcL19GbAwMgXFcfa69vp2vr9dWInaP7Vfy9gPJ_BiVNy1Rfy1E2gMwBV691yrpZMTZJrNkmLtTr2uxvkBGI1QN-OUZcozq0emuS-wFyqozdGYdFP17Yn_Eh_WS0]--></g></svg>