<svg xmlns="http://www.w3.org/2000/svg" xmlns:xlink="http://www.w3.org/1999/xlink" contentStyleType="text/css" data-diagram-type="DESCRIPTION" height="546px" preserveAspectRatio="none" style="width:636px;height:546px;" version="1.1" viewBox="0 0 636 546" width="636px" zoomAndPan="magnify"><title>James</title><defs><filter height="300%" id="f1i0u68djllc0f" width="300%" x="-1" y="-1"><feGaussianBlur result="blurOut" stdDeviation="2"/><feColorMatrix in="blurOut" result="blurOut2" type="matrix" values="0 0 0 0 0 0 0 0 0 0 0 0 0 0 0 0 0 0 .4 0"/><feOffset dx="4" dy="4" in="blurOut2" result="blurOut3"/><feBlend in="SourceGraphic" in2="blurOut3" mode="normal"/></filter></defs><g><g class="title" data-source-line="5"><text fill="#4682B4" font-family="sans-serif" font-size="14" font-weight="bold" lengthAdjust="spacing" textLength="43.5928" x="286.89" y="25.1074">James</text></g><rect fill="none" height="469.2296" style="stroke:#A80036;stroke-width:1;" width="630.3728" x="0" y="39.6211"/><path d="M75.3584,39.6211 L75.3584,51.2422 L65.3584,61.2422 L0,61.2422" fill="none" style="stroke:#A80036;stroke-width:1;"/><text fill="#4682B4" font-family="sans-serif" font-size="14" lengthAdjust="spacing" textLength="65.3584" x="3" y="55.7285">characters</text><!--entity jim--><g class="entity" data-entity="jim" data-source-line="10" data-uid="ent0002" id="entity_jim"><ellipse cx="247.7004" cy="370.8644" fill="#00FF00" filter="url(#f1i0u68djllc0f)" rx="8" ry="8" style="stroke:#A80036;stroke-width:2;"/><path d="M247.7004,378.8644 L247.7004,405.8644 M234.7004,386.8644 L260.7004,386.8644 M247.7004,405.8644 L234.7004,420.8644 M247.7004,405.8644 L260.7004,420.8644" fill="none" filter="url(#f1i0u68djllc0f)" style="stroke:#A80036;stroke-width:2;"/><text fill="#4682B4" font-family="sans-serif" font-size="14" lengthAdjust="spacing" textLength="41.2344" x="227.0832" y="442.9718">James</text><text fill="#4682B4" font-family="sans-serif" font-size="14" font-style="italic" lengthAdjust="spacing" textLength="64.5928" x="215.404" y="338.7296">&#171;narrator&#187;</text><text fill="#4682B4" font-family="sans-serif" font-size="14" font-style="italic" lengthAdjust="spacing" textLength="84.8408" x="205.28" y="357.3507">&#171;protagonist&#187;</text></g><!--entity owner--><g class="entity" data-entity="owner" data-source-line="12" data-uid="ent0003" id="entity_owner"><ellipse cx="54.642" cy="352.2422" fill="#B8860B" filter="url(#f1i0u68djllc0f)" rx="8" ry="8" style="stroke:#A80036;stroke-width:2;"/><path d="M54.642,360.2422 L54.642,387.2422 M41.642,368.2422 L67.642,368.2422 M54.642,387.2422 L41.642,402.2422 M54.642,387.2422 L67.642,402.2422" fill="none" filter="url(#f1i0u68djllc0f)" style="stroke:#A80036;stroke-width:2;"/><text fill="#4682B4" font-family="sans-serif" font-size="14" lengthAdjust="spacing" textLength="28.7725" x="14.58" y="424.3496">Miss</text><text fill="#4682B4" font-family="sans-serif" font-size="14" lengthAdjust="spacing" textLength="3.8896" x="43.3525" y="424.3496">&#160;</text><text fill="#4682B4" font-family="sans-serif" font-size="14" lengthAdjust="spacing" textLength="47.4619" x="47.2421" y="424.3496">Watson</text></g><!--entity tom--><g class="entity" data-entity="tom" data-source-line="16" data-uid="ent0005" id="entity_tom"><ellipse cx="54.6361" cy="203.2422" fill="#228B22" filter="url(#f1i0u68djllc0f)" rx="8" ry="8" style="stroke:#A80036;stroke-width:2;"/><path d="M54.6361,211.2422 L54.6361,238.2422 M41.6361,219.2422 L67.6361,219.2422 M54.6361,238.2422 L41.6361,253.2422 M54.6361,238.2422 L67.6361,253.2422" fill="none" filter="url(#f1i0u68djllc0f)" style="stroke:#A80036;stroke-width:2;"/><text fill="#4682B4" font-family="sans-serif" font-size="14" lengthAdjust="spacing" textLength="28" x="18.85" y="275.3496">Tom</text><text fill="#4682B4" font-family="sans-serif" font-size="14" lengthAdjust="spacing" textLength="3.8896" x="46.85" y="275.3496">&#160;</text><text fill="#4682B4" font-family="sans-serif" font-size="14" lengthAdjust="spacing" textLength="39.6826" x="50.7396" y="275.3496">Sawer</text></g><!--entity huck--><g class="entity" data-entity="huck" data-source-line="17" data-uid="ent0006" id="entity_huck"><ellipse cx="247.7047" cy="193.9322" fill="#228B22" filter="url(#f1i0u68djllc0f)" rx="8" ry="8" style="stroke:#A80036;stroke-width:2;"/><path d="M247.7047,201.9322 L247.7047,228.9322 M234.7047,209.9322 L260.7047,209.9322 M247.7047,228.9322 L234.7047,243.9322 M247.7047,228.9322 L260.7047,243.9322" fill="none" filter="url(#f1i0u68djllc0f)" style="stroke:#A80036;stroke-width:2;"/><text fill="#4682B4" font-family="sans-serif" font-size="14" lengthAdjust="spacing" textLength="74.6895" x="210.36" y="266.0396">Huckleberry</text><text fill="#4682B4" font-family="sans-serif" font-size="14" lengthAdjust="spacing" textLength="27.2344" x="234.0875" y="284.6607">Finn</text></g><!--entity sadie--><g class="entity" data-entity="sadie" data-source-line="21" data-uid="ent0008" id="entity_sadie"><ellipse cx="595.5733" cy="291.2422" fill="#B8860B" filter="url(#f1i0u68djllc0f)" rx="8" ry="8" style="stroke:#A80036;stroke-width:2;"/><path d="M595.5733,299.2422 L595.5733,326.2422 M582.5733,307.2422 L608.5733,307.2422 M595.5733,326.2422 L582.5733,341.2422 M595.5733,326.2422 L608.5733,341.2422" fill="none" filter="url(#f1i0u68djllc0f)" style="stroke:#A80036;stroke-width:2;"/><text fill="#4682B4" font-family="sans-serif" font-size="14" lengthAdjust="spacing" textLength="35.8066" x="577.67" y="363.3496">Sadie</text></g><!--entity family--><g class="entity" data-entity="family" data-source-line="23" data-uid="ent0009" id="entity_family"><ellipse cx="402.9485" cy="385.0482" fill="#FFE0E0" rx="50.8285" ry="27.776" style="stroke:#A80036;stroke-width:1;"/><text fill="#4682B4" font-family="sans-serif" font-size="14" font-style="italic" lengthAdjust="spacing" textLength="51.3789" x="377.259" y="379.2705">&#171;group&#187;</text><text fill="#4682B4" font-family="sans-serif" font-size="14" lengthAdjust="spacing" textLength="31.4453" x="367.0017" y="397.8916">Jim's</text><text fill="#4682B4" font-family="sans-serif" font-size="14" lengthAdjust="spacing" textLength="3.8896" x="398.447" y="397.8916">&#160;</text><text fill="#4682B4" font-family="sans-serif" font-size="14" lengthAdjust="spacing" textLength="36.5586" x="402.3367" y="397.8916">family</text></g><!--entity lizzie--><g class="entity" data-entity="lizzie" data-source-line="28" data-uid="ent0012" id="entity_lizzie"><ellipse cx="595.5764" cy="412.2422" fill="#FEFECE" filter="url(#f1i0u68djllc0f)" rx="8" ry="8" style="stroke:#A80036;stroke-width:2;"/><path d="M595.5764,420.2422 L595.5764,447.2422 M582.5764,428.2422 L608.5764,428.2422 M595.5764,447.2422 L582.5764,462.2422 M595.5764,447.2422 L608.5764,462.2422" fill="none" filter="url(#f1i0u68djllc0f)" style="stroke:#A80036;stroke-width:2;"/><text fill="#4682B4" font-family="sans-serif" font-size="14" lengthAdjust="spacing" textLength="57.5928" x="566.78" y="484.3496">Elizabeth</text></g><!--entity judge--><g class="entity" data-entity="judge" data-source-line="32" data-uid="ent0014" id="entity_judge"><ellipse cx="54.6411" cy="82.2422" fill="#228B22" filter="url(#f1i0u68djllc0f)" rx="8" ry="8" style="stroke:#A80036;stroke-width:2;"/><path d="M54.6411,90.2422 L54.6411,117.2422 M41.6411,98.2422 L67.6411,98.2422 M54.6411,117.2422 L41.6411,132.2422 M54.6411,117.2422 L67.6411,132.2422" fill="none" filter="url(#f1i0u68djllc0f)" style="stroke:#A80036;stroke-width:2;"/><text fill="#4682B4" font-family="sans-serif" font-size="14" lengthAdjust="spacing" textLength="38.1445" x="6" y="154.3496">Judge</text><text fill="#4682B4" font-family="sans-serif" font-size="14" lengthAdjust="spacing" textLength="3.8896" x="44.1445" y="154.3496">&#160;</text><text fill="#4682B4" font-family="sans-serif" font-size="14" lengthAdjust="spacing" textLength="55.248" x="48.0342" y="154.3496">Thatcher</text></g><!--link owner to jim--><g class="link" data-entity-1="owner" data-entity-2="jim" data-source-line="14" data-uid="lnk4" id="link_owner_jim"><path d="M94.77,385.0522 C126.54,385.0522 165.27,385.0522 197.97,385.0522" fill="none" id="owner-to-jim" style="stroke:#A80036;stroke-width:1;"/><polygon fill="#A80036" points="203.97,385.0522,194.97,381.0522,198.97,385.0522,194.97,389.0522,203.97,385.0522" style="stroke:#A80036;stroke-width:1;"/><text fill="#4682B4" font-family="sans-serif" font-size="13" lengthAdjust="spacing" textLength="35.4072" x="136.28" y="381.0805">owner</text></g><!--link tom to huck--><g class="link" data-entity-1="tom" data-entity-2="huck" data-source-line="19" data-uid="lnk7" id="link_tom_huck"><path d="M96.68,236.0522 C130.51,236.0522 169.53,236.0522 203.93,236.0522" fill="none" id="tom-huck" style="stroke:#A80036;stroke-width:1;"/><polygon fill="#A80036" points="90.68,236.0522,99.68,240.0522,95.68,236.0522,99.68,232.0522,90.68,236.0522" style="stroke:#A80036;stroke-width:1;"/><polygon fill="#A80036" points="209.93,236.0522,200.93,232.0522,204.93,236.0522,200.93,240.0522,209.93,236.0522" style="stroke:#A80036;stroke-width:1;"/><text fill="#4682B4" font-family="sans-serif" font-size="13" lengthAdjust="spacing" textLength="39.019" x="134.28" y="232.0805">friends</text></g><!--link jim to family--><g class="link" data-entity-1="jim" data-entity-2="family" data-source-line="25" data-uid="lnk10" id="link_jim_family"><path d="M291.39,385.0522 C310.17,385.0522 332.35,385.0522 351.9,385.0522" fill="none" id="jim-family" style="stroke:#A80036;stroke-width:1;"/></g><!--link family to sadie--><g class="link" data-entity-1="family" data-entity-2="sadie" data-source-line="26" data-uid="lnk11" id="link_family_sadie"><path d="M447.21,371.2122 C488.29,358.0622 547.99,338.9622 577.18,329.6222" fill="none" id="family-sadie" style="stroke:#A80036;stroke-width:1;"/><text fill="#4682B4" font-family="sans-serif" font-size="13" lengthAdjust="spacing" textLength="23.1182" x="498.78" y="339.8105">wife</text></g><!--link family to lizzie--><g class="link" data-entity-1="family" data-entity-2="lizzie" data-source-line="30" data-uid="lnk13" id="link_family_lizzie"><path d="M447.68,398.8122 C484.18,410.3022 535.11,426.3322 566.41,436.1822" fill="none" id="family-lizzie" style="stroke:#A80036;stroke-width:1;"/><text fill="#4682B4" font-family="sans-serif" font-size="13" lengthAdjust="spacing" textLength="51.3208" x="484.78" y="407.4905">daughter</text></g><g class="legend"><rect fill="none" height="30.6211" rx="7.5" ry="7.5" style="stroke:#000000;stroke-width:1;" width="118.6064" x="249.3832" y="499.8496"/><text fill="#4682B4" font-family="sans-serif" font-size="14" lengthAdjust="spacing" textLength="106.6064" x="255.3832" y="520.957">2.2% (Chapter 1)</text></g><!--SRC=[HL1BIyGm4BxdLuooeXwwHRs5jHTHP44G53pAR3jjedcKPCgo_dgdQM5lCzzhykLYa_daw1tPm2DS6kOnwxfEUDmEbirqc3AbDWQcmDis-Zew-dseHuU19-yg6retTPJhH7sk3M6NQuysr5ROItMnyd0-8qhiR1Ysiq8fjkm8zkWfgzdO9ncXDPYmPKfPEHeeTA3XVdj_1JTF1aV1uUvMAQMBJmDc-B4UOBSBc19oJ4q36u-EliSK6OSOR6RHlzcSuGivnr1SyHWaQzFJh5LgMQkgWPAd5rvydz731nuf5HVBLjALVftQNqS7Ika4BpOigKR0LQ1cxMvEBA26FbcfaoNpGxw1YZxFq_aLDtlhhpFqwAqxtSw2PPHwGuhJs3HApS-hgfLGAo_04gNXQ7j9qi_E_k61s9GxilnPWS_o1H5zXzDWk7JTJzr0y6cGMxCM_YdGskWV]--></g></svg>