<svg xmlns="http://www.w3.org/2000/svg" xmlns:xlink="http://www.w3.org/1999/xlink" contentStyleType="text/css" data-diagram-type="DESCRIPTION" height="1237px" preserveAspectRatio="none" style="width:1306px;height:1237px;" version="1.1" viewBox="0 0 1306 1237" width="1306px" zoomAndPan="magnify"><title>James</title><defs><filter height="300%" id="f1hg1gwis81pv7" width="300%" x="-1" y="-1"><feGaussianBlur result="blurOut" stdDeviation="2"/><feColorMatrix in="blurOut" result="blurOut2" type="matrix" values="0 0 0 0 0 0 0 0 0 0 0 0 0 0 0 0 0 0 .4 0"/><feOffset dx="4" dy="4" in="blurOut2" result="blurOut3"/><feBlend in="SourceGraphic" in2="blurOut3" mode="normal"/></filter></defs><g><g class="title" data-source-line="5"><text fill="#4682B4" font-family="sans-serif" font-size="14" font-weight="bold" lengthAdjust="spacing" textLength="43.5928" x="621.7849" y="24.5332">James</text></g><rect fill="none" height="1160.6413" style="stroke:#A80036;stroke-width:1;" width="1300.1626" x="0" y="38.6094"/><path d="M75.3584,38.6094 L75.3584,49.2188 L65.3584,59.2188 L0,59.2188" fill="none" style="stroke:#A80036;stroke-width:1;"/><text fill="#4682B4" font-family="sans-serif" font-size="14" lengthAdjust="spacing" textLength="65.3584" x="3" y="54.1426">characters</text><!--entity jim--><g class="entity" data-entity="jim" data-source-line="10" data-uid="ent0002" id="entity_jim"><ellipse cx="488.4604" cy="712.8275" fill="#00FF00" filter="url(#f1hg1gwis81pv7)" rx="8" ry="8" style="stroke:#A80036;stroke-width:2;"/><path d="M488.4604,720.8275 L488.4604,747.8275 M475.4604,728.8275 L501.4604,728.8275 M488.4604,747.8275 L475.4604,762.8275 M488.4604,747.8275 L501.4604,762.8275" fill="none" filter="url(#f1hg1gwis81pv7)" style="stroke:#A80036;stroke-width:2;"/><text fill="#4682B4" font-family="sans-serif" font-size="14" lengthAdjust="spacing" textLength="41.2344" x="467.8432" y="784.3607">James</text><text fill="#4682B4" font-family="sans-serif" font-size="14" font-style="italic" lengthAdjust="spacing" textLength="64.5928" x="456.164" y="682.142">&#171;narrator&#187;</text><text fill="#4682B4" font-family="sans-serif" font-size="14" font-style="italic" lengthAdjust="spacing" textLength="84.8408" x="446.04" y="699.7513">&#171;protagonist&#187;</text></g><!--entity owner--><g class="entity" data-entity="owner" data-source-line="12" data-uid="ent0003" id="entity_owner"><ellipse cx="273.662" cy="705.2188" fill="#B8860B" filter="url(#f1hg1gwis81pv7)" rx="8" ry="8" style="stroke:#A80036;stroke-width:2;"/><path d="M273.662,713.2188 L273.662,740.2188 M260.662,721.2188 L286.662,721.2188 M273.662,740.2188 L260.662,755.2188 M273.662,740.2188 L286.662,755.2188" fill="none" filter="url(#f1hg1gwis81pv7)" style="stroke:#A80036;stroke-width:2;"/><text fill="#4682B4" font-family="sans-serif" font-size="14" lengthAdjust="spacing" textLength="28.7725" x="233.6" y="776.752">Miss</text><text fill="#4682B4" font-family="sans-serif" font-size="14" lengthAdjust="spacing" textLength="3.8896" x="262.3725" y="776.752">&#160;</text><text fill="#4682B4" font-family="sans-serif" font-size="14" lengthAdjust="spacing" textLength="47.4619" x="266.2621" y="776.752">Watson</text></g><!--entity tom--><g class="entity" data-entity="tom" data-source-line="16" data-uid="ent0005" id="entity_tom"><ellipse cx="54.6361" cy="881.2188" fill="#228B22" filter="url(#f1hg1gwis81pv7)" rx="8" ry="8" style="stroke:#A80036;stroke-width:2;"/><path d="M54.6361,889.2188 L54.6361,916.2188 M41.6361,897.2188 L67.6361,897.2188 M54.6361,916.2188 L41.6361,931.2188 M54.6361,916.2188 L67.6361,931.2188" fill="none" filter="url(#f1hg1gwis81pv7)" style="stroke:#A80036;stroke-width:2;"/><text fill="#4682B4" font-family="sans-serif" font-size="14" lengthAdjust="spacing" textLength="28" x="15.35" y="952.752">Tom</text><text fill="#4682B4" font-family="sans-serif" font-size="14" lengthAdjust="spacing" textLength="3.8896" x="43.35" y="952.752">&#160;</text><text fill="#4682B4" font-family="sans-serif" font-size="14" lengthAdjust="spacing" textLength="46.6826" x="47.2396" y="952.752">Sawyer</text></g><!--entity huck--><g class="entity" data-entity="huck" data-source-line="17" data-uid="ent0006" id="entity_huck"><ellipse cx="273.6647" cy="954.4088" fill="#228B22" filter="url(#f1hg1gwis81pv7)" rx="8" ry="8" style="stroke:#A80036;stroke-width:2;"/><path d="M273.6647,962.4088 L273.6647,989.4088 M260.6647,970.4088 L286.6647,970.4088 M273.6647,989.4088 L260.6647,1004.4088 M273.6647,989.4088 L286.6647,1004.4088" fill="none" filter="url(#f1hg1gwis81pv7)" style="stroke:#A80036;stroke-width:2;"/><text fill="#4682B4" font-family="sans-serif" font-size="14" lengthAdjust="spacing" textLength="74.6895" x="236.32" y="1025.942">Huckleberry</text><text fill="#4682B4" font-family="sans-serif" font-size="14" lengthAdjust="spacing" textLength="27.2344" x="260.0475" y="1043.5513">Finn</text></g><!--entity sadie--><g class="entity" data-entity="sadie" data-source-line="21" data-uid="ent0008" id="entity_sadie"><ellipse cx="970.2474" cy="557.0181" fill="#B8860B" filter="url(#f1hg1gwis81pv7)" rx="8" ry="8" style="stroke:#A80036;stroke-width:2;"/><path d="M970.2474,565.0181 L970.2474,592.0181 M957.2474,573.0181 L983.2474,573.0181 M970.2474,592.0181 L957.2474,607.0181 M970.2474,592.0181 L983.2474,607.0181" fill="none" filter="url(#f1hg1gwis81pv7)" style="stroke:#A80036;stroke-width:2;"/><text fill="#4682B4" font-family="sans-serif" font-size="14" lengthAdjust="spacing" textLength="35.8066" x="952.3441" y="628.5513">Sadie</text><text fill="#4682B4" font-family="sans-serif" font-size="14" font-style="italic" lengthAdjust="spacing" textLength="48.2549" x="946.12" y="543.942">&#171;slave&#187;</text></g><!--entity family--><g class="entity" data-entity="family" data-source-line="23" data-uid="ent0009" id="entity_family"><ellipse cx="746.2985" cy="580.5187" fill="#FFE0E0" rx="50.8285" ry="26.4299" style="stroke:#A80036;stroke-width:1;"/><text fill="#4682B4" font-family="sans-serif" font-size="14" font-style="italic" lengthAdjust="spacing" textLength="51.3789" x="720.609" y="574.8647">&#171;group&#187;</text><text fill="#4682B4" font-family="sans-serif" font-size="14" lengthAdjust="spacing" textLength="31.4453" x="710.3517" y="592.4741">Jim's</text><text fill="#4682B4" font-family="sans-serif" font-size="14" lengthAdjust="spacing" textLength="3.8896" x="741.797" y="592.4741">&#160;</text><text fill="#4682B4" font-family="sans-serif" font-size="14" lengthAdjust="spacing" textLength="36.5586" x="745.6867" y="592.4741">family</text></g><!--entity lizzie--><g class="entity" data-entity="lizzie" data-source-line="28" data-uid="ent0012" id="entity_lizzie"><ellipse cx="970.2464" cy="420.0181" fill="#B8860B" filter="url(#f1hg1gwis81pv7)" rx="8" ry="8" style="stroke:#A80036;stroke-width:2;"/><path d="M970.2464,428.0181 L970.2464,455.0181 M957.2464,436.0181 L983.2464,436.0181 M970.2464,455.0181 L957.2464,470.0181 M970.2464,455.0181 L983.2464,470.0181" fill="none" filter="url(#f1hg1gwis81pv7)" style="stroke:#A80036;stroke-width:2;"/><text fill="#4682B4" font-family="sans-serif" font-size="14" lengthAdjust="spacing" textLength="57.5928" x="941.45" y="491.5513">Elizabeth</text><text fill="#4682B4" font-family="sans-serif" font-size="14" font-style="italic" lengthAdjust="spacing" textLength="48.2549" x="946.1189" y="406.942">&#171;slave&#187;</text></g><!--entity judge--><g class="entity" data-entity="judge" data-source-line="32" data-uid="ent0014" id="entity_judge"><ellipse cx="54.6411" cy="200.2188" fill="#228B22" filter="url(#f1hg1gwis81pv7)" rx="8" ry="8" style="stroke:#A80036;stroke-width:2;"/><path d="M54.6411,208.2188 L54.6411,235.2188 M41.6411,216.2188 L67.6411,216.2188 M54.6411,235.2188 L41.6411,250.2188 M54.6411,235.2188 L67.6411,250.2188" fill="none" filter="url(#f1hg1gwis81pv7)" style="stroke:#A80036;stroke-width:2;"/><text fill="#4682B4" font-family="sans-serif" font-size="14" lengthAdjust="spacing" textLength="38.1445" x="6" y="271.752">Judge</text><text fill="#4682B4" font-family="sans-serif" font-size="14" lengthAdjust="spacing" textLength="3.8896" x="44.1445" y="271.752">&#160;</text><text fill="#4682B4" font-family="sans-serif" font-size="14" lengthAdjust="spacing" textLength="55.248" x="48.0342" y="271.752">Thatcher</text></g><!--entity albert--><g class="entity" data-entity="albert" data-source-line="34" data-uid="ent0015" id="entity_albert"><ellipse cx="54.6374" cy="337.0181" fill="#228B22" filter="url(#f1hg1gwis81pv7)" rx="8" ry="8" style="stroke:#A80036;stroke-width:2;"/><path d="M54.6374,345.0181 L54.6374,372.0181 M41.6374,353.0181 L67.6374,353.0181 M54.6374,372.0181 L41.6374,387.0181 M54.6374,372.0181 L67.6374,387.0181" fill="none" filter="url(#f1hg1gwis81pv7)" style="stroke:#A80036;stroke-width:2;"/><text fill="#4682B4" font-family="sans-serif" font-size="14" lengthAdjust="spacing" textLength="36.5723" x="36.3513" y="408.5513">Albert</text><text fill="#4682B4" font-family="sans-serif" font-size="14" font-style="italic" lengthAdjust="spacing" textLength="48.2549" x="30.51" y="323.942">&#171;slave&#187;</text></g><!--entity fire--><g class="entity" data-entity="fire" data-source-line="37" data-uid="ent0016" id="entity_fire"><ellipse cx="273.6595" cy="497.5233" fill="#C9FFC9" rx="51.3795" ry="26.2945" style="stroke:#A80036;stroke-width:1;"/><text fill="#4682B4" font-family="sans-serif" font-size="14" font-style="italic" lengthAdjust="spacing" textLength="49.8203" x="248.7494" y="491.6633">&#171;event&#187;</text><text fill="#4682B4" font-family="sans-serif" font-size="14" lengthAdjust="spacing" textLength="24.1104" x="237.0872" y="509.2727">Fire</text><text fill="#4682B4" font-family="sans-serif" font-size="14" lengthAdjust="spacing" textLength="3.8896" x="261.1976" y="509.2727">&#160;</text><text fill="#4682B4" font-family="sans-serif" font-size="14" lengthAdjust="spacing" textLength="45.1445" x="265.0872" y="509.2727">outside</text></g><!--entity doris--><g class="entity" data-entity="doris" data-source-line="43" data-uid="ent0019" id="entity_doris"><ellipse cx="54.6374" cy="474.0181" fill="#228B22" filter="url(#f1hg1gwis81pv7)" rx="8" ry="8" style="stroke:#A80036;stroke-width:2;"/><path d="M54.6374,482.0181 L54.6374,509.0181 M41.6374,490.0181 L67.6374,490.0181 M54.6374,509.0181 L41.6374,524.0181 M54.6374,509.0181 L67.6374,524.0181" fill="none" filter="url(#f1hg1gwis81pv7)" style="stroke:#A80036;stroke-width:2;"/><text fill="#4682B4" font-family="sans-serif" font-size="14" lengthAdjust="spacing" textLength="32.6689" x="38.303" y="545.5513">Doris</text><text fill="#4682B4" font-family="sans-serif" font-size="14" font-style="italic" lengthAdjust="spacing" textLength="48.2549" x="30.51" y="460.942">&#171;slave&#187;</text></g><!--entity luke--><g class="entity" data-entity="luke" data-source-line="47" data-uid="ent0021" id="entity_luke"><ellipse cx="54.6371" cy="611.0181" fill="#228B22" filter="url(#f1hg1gwis81pv7)" rx="8" ry="8" style="stroke:#A80036;stroke-width:2;"/><path d="M54.6371,619.0181 L54.6371,646.0181 M41.6371,627.0181 L67.6371,627.0181 M54.6371,646.0181 L41.6371,661.0181 M54.6371,646.0181 L67.6371,661.0181" fill="none" filter="url(#f1hg1gwis81pv7)" style="stroke:#A80036;stroke-width:2;"/><text fill="#4682B4" font-family="sans-serif" font-size="14" lengthAdjust="spacing" textLength="21.7861" x="26.62" y="682.5513">Old</text><text fill="#4682B4" font-family="sans-serif" font-size="14" lengthAdjust="spacing" textLength="3.8896" x="48.4061" y="682.5513">&#160;</text><text fill="#4682B4" font-family="sans-serif" font-size="14" lengthAdjust="spacing" textLength="30.3584" x="52.2958" y="682.5513">Luke</text><text fill="#4682B4" font-family="sans-serif" font-size="14" font-style="italic" lengthAdjust="spacing" textLength="48.2549" x="30.5096" y="597.942">&#171;slave&#187;</text></g><!--entity skinny--><g class="entity" data-entity="skinny" data-source-line="51" data-uid="ent0023" id="entity_skinny"><ellipse cx="273.6574" cy="586.0181" fill="#228B22" filter="url(#f1hg1gwis81pv7)" rx="8" ry="8" style="stroke:#A80036;stroke-width:2;"/><path d="M273.6574,594.0181 L273.6574,621.0181 M260.6574,602.0181 L286.6574,602.0181 M273.6574,621.0181 L260.6574,636.0181 M273.6574,621.0181 L286.6574,636.0181" fill="none" filter="url(#f1hg1gwis81pv7)" style="stroke:#A80036;stroke-width:2;"/><text fill="#4682B4" font-family="sans-serif" font-size="14" lengthAdjust="spacing" textLength="42.0205" x="252.6472" y="657.5513">Skinny</text><text fill="#4682B4" font-family="sans-serif" font-size="14" font-style="italic" lengthAdjust="spacing" textLength="48.2549" x="249.53" y="572.942">&#171;slave&#187;</text></g><!--entity lesson--><g class="entity" data-entity="lesson" data-source-line="54" data-uid="ent0025" id="entity_lesson"><ellipse cx="746.296" cy="321.5155" fill="#C9FFC9" rx="43.096" ry="35.0768" style="stroke:#A80036;stroke-width:1;"/><text fill="#4682B4" font-family="sans-serif" font-size="14" font-style="italic" lengthAdjust="spacing" textLength="49.8203" x="721.3858" y="310.4895">&#171;event&#187;</text><text fill="#4682B4" font-family="sans-serif" font-size="14" lengthAdjust="spacing" textLength="57.6133" x="717.4893" y="328.0989">language</text><text fill="#4682B4" font-family="sans-serif" font-size="14" lengthAdjust="spacing" textLength="40.4688" x="726.0616" y="345.7082">lesson</text></g><!--entity student1--><g class="entity" data-entity="student1" data-source-line="60" data-uid="ent0028" id="entity_student1"><ellipse cx="970.2474" cy="146.0181" fill="#228B22" filter="url(#f1hg1gwis81pv7)" rx="8" ry="8" style="stroke:#A80036;stroke-width:2;"/><path d="M970.2474,154.0181 L970.2474,181.0181 M957.2474,162.0181 L983.2474,162.0181 M970.2474,181.0181 L957.2474,196.0181 M970.2474,181.0181 L983.2474,196.0181" fill="none" filter="url(#f1hg1gwis81pv7)" style="stroke:#A80036;stroke-width:2;"/><text fill="#4682B4" font-family="sans-serif" font-size="14" lengthAdjust="spacing" textLength="31.1172" x="954.6888" y="217.5513">Virgil</text><text fill="#4682B4" font-family="sans-serif" font-size="14" font-style="italic" lengthAdjust="spacing" textLength="48.2549" x="946.12" y="132.942">&#171;slave&#187;</text></g><!--entity student2--><g class="entity" data-entity="student2" data-source-line="61" data-uid="ent0029" id="entity_student2"><ellipse cx="970.2403" cy="283.0181" fill="#B8860B" filter="url(#f1hg1gwis81pv7)" rx="8" ry="8" style="stroke:#A80036;stroke-width:2;"/><path d="M970.2403,291.0181 L970.2403,318.0181 M957.2403,299.0181 L983.2403,299.0181 M970.2403,318.0181 L957.2403,333.0181 M970.2403,318.0181 L983.2403,333.0181" fill="none" filter="url(#f1hg1gwis81pv7)" style="stroke:#A80036;stroke-width:2;"/><text fill="#4682B4" font-family="sans-serif" font-size="14" lengthAdjust="spacing" textLength="56.0205" x="942.23" y="354.5513">February</text><text fill="#4682B4" font-family="sans-serif" font-size="14" font-style="italic" lengthAdjust="spacing" textLength="48.2549" x="946.1128" y="269.942">&#171;slave&#187;</text></g><!--entity student3--><g class="entity" data-entity="student3" data-source-line="62" data-uid="ent0030" id="entity_student3"><ellipse cx="746.2974" cy="419.0181" fill="#FEFECE" filter="url(#f1hg1gwis81pv7)" rx="8" ry="8" style="stroke:#A80036;stroke-width:2;"/><path d="M746.2974,427.0181 L746.2974,454.0181 M733.2974,435.0181 L759.2974,435.0181 M746.2974,454.0181 L733.2974,469.0181 M746.2974,454.0181 L759.2974,469.0181" fill="none" filter="url(#f1hg1gwis81pv7)" style="stroke:#A80036;stroke-width:2;"/><text fill="#4682B4" font-family="sans-serif" font-size="14" lengthAdjust="spacing" textLength="49.8066" x="721.3941" y="490.5513">January</text><text fill="#4682B4" font-family="sans-serif" font-size="14" font-style="italic" lengthAdjust="spacing" textLength="48.2549" x="722.17" y="405.942">&#171;slave&#187;</text></g><!--entity student4--><g class="entity" data-entity="student4" data-source-line="63" data-uid="ent0031" id="entity_student4"><ellipse cx="488.4574" cy="230.0181" fill="#B8860B" filter="url(#f1hg1gwis81pv7)" rx="8" ry="8" style="stroke:#A80036;stroke-width:2;"/><path d="M488.4574,238.0181 L488.4574,265.0181 M475.4574,246.0181 L501.4574,246.0181 M488.4574,265.0181 L475.4574,280.0181 M488.4574,265.0181 L501.4574,280.0181" fill="none" filter="url(#f1hg1gwis81pv7)" style="stroke:#A80036;stroke-width:2;"/><text fill="#4682B4" font-family="sans-serif" font-size="14" lengthAdjust="spacing" textLength="43.5791" x="466.6679" y="301.5513">Rachel</text><text fill="#4682B4" font-family="sans-serif" font-size="14" font-style="italic" lengthAdjust="spacing" textLength="48.2549" x="464.33" y="216.942">&#171;slave&#187;</text></g><!--entity student5--><g class="entity" data-entity="student5" data-source-line="64" data-uid="ent0032" id="entity_student5"><ellipse cx="488.4574" cy="367.0181" fill="#B8860B" filter="url(#f1hg1gwis81pv7)" rx="8" ry="8" style="stroke:#A80036;stroke-width:2;"/><path d="M488.4574,375.0181 L488.4574,402.0181 M475.4574,383.0181 L501.4574,383.0181 M488.4574,402.0181 L475.4574,417.0181 M488.4574,402.0181 L501.4574,417.0181" fill="none" filter="url(#f1hg1gwis81pv7)" style="stroke:#A80036;stroke-width:2;"/><text fill="#4682B4" font-family="sans-serif" font-size="14" lengthAdjust="spacing" textLength="33.4482" x="471.7333" y="438.5513">Glory</text><text fill="#4682B4" font-family="sans-serif" font-size="14" font-style="italic" lengthAdjust="spacing" textLength="48.2549" x="464.33" y="353.942">&#171;slave&#187;</text></g><!--entity father--><g class="entity" data-entity="father" data-source-line="72" data-uid="ent0038" id="entity_father"><ellipse cx="488.4621" cy="1002.066" fill="#228B22" rx="8" ry="8" style="stroke:#808080;stroke-width:2;"/><path d="M488.4621,1010.066 L488.4621,1037.066 M475.4621,1018.066 L501.4621,1018.066 M488.4621,1037.066 L475.4621,1052.066 M488.4621,1037.066 L501.4621,1052.066" fill="none" style="stroke:#808080;stroke-width:2;"/><text fill="#228B22" font-family="times new roman" font-size="14" font-style="italic" lengthAdjust="spacing" textLength="22.5518" x="477.1862" y="1068.4337">Pap</text><text fill="#228B22" font-family="times new roman" font-size="14" font-style="italic" lengthAdjust="spacing" textLength="65.3242" x="455.8" y="973.2364">&#171;unnamed&#187;</text><text fill="#228B22" font-family="times new roman" font-size="14" font-style="italic" lengthAdjust="spacing" textLength="41.2139" x="467.8552" y="989.3351">&#171;dead&#187;</text></g><!--entity widow--><g class="entity" data-entity="widow" data-source-line="76" data-uid="ent0040" id="entity_widow"><ellipse cx="54.6391" cy="80.2188" fill="#B8860B" filter="url(#f1hg1gwis81pv7)" rx="8" ry="8" style="stroke:#A80036;stroke-width:2;"/><path d="M54.6391,88.2188 L54.6391,115.2188 M41.6391,96.2188 L67.6391,96.2188 M54.6391,115.2188 L41.6391,130.2188 M54.6391,115.2188 L67.6391,130.2188" fill="none" filter="url(#f1hg1gwis81pv7)" style="stroke:#A80036;stroke-width:2;"/><text fill="#4682B4" font-family="sans-serif" font-size="14" lengthAdjust="spacing" textLength="38.9033" x="7.56" y="151.752">widow</text><text fill="#4682B4" font-family="sans-serif" font-size="14" lengthAdjust="spacing" textLength="3.8896" x="46.4633" y="151.752">&#160;</text><text fill="#4682B4" font-family="sans-serif" font-size="14" lengthAdjust="spacing" textLength="51.3652" x="50.353" y="151.752">Douglas</text></g><!--entity bekkie--><g class="entity" data-entity="bekkie" data-source-line="78" data-uid="ent0041" id="entity_bekkie"><ellipse cx="273.6603" cy="200.2188" fill="#B8860B" filter="url(#f1hg1gwis81pv7)" rx="8" ry="8" style="stroke:#A80036;stroke-width:2;"/><path d="M273.6603,208.2188 L273.6603,235.2188 M260.6603,216.2188 L286.6603,216.2188 M273.6603,235.2188 L260.6603,250.2188 M273.6603,235.2188 L286.6603,250.2188" fill="none" filter="url(#f1hg1gwis81pv7)" style="stroke:#A80036;stroke-width:2;"/><text fill="#4682B4" font-family="sans-serif" font-size="14" lengthAdjust="spacing" textLength="42.0205" x="252.65" y="271.752">Bessie</text></g><!--entity polly--><g class="entity" data-entity="polly" data-source-line="87" data-uid="ent0044" id="entity_polly"><ellipse cx="273.6624" cy="835.2188" fill="#B8860B" filter="url(#f1hg1gwis81pv7)" rx="8" ry="8" style="stroke:#A80036;stroke-width:2;"/><path d="M273.6624,843.2188 L273.6624,870.2188 M260.6624,851.2188 L286.6624,851.2188 M273.6624,870.2188 L260.6624,885.2188 M273.6624,870.2188 L286.6624,885.2188" fill="none" filter="url(#f1hg1gwis81pv7)" style="stroke:#A80036;stroke-width:2;"/><text fill="#4682B4" font-family="sans-serif" font-size="14" lengthAdjust="spacing" textLength="30.3447" x="258.49" y="906.752">Polly</text></g><!--entity april--><g class="entity" data-entity="april" data-source-line="91" data-uid="ent0046" id="entity_april"><ellipse cx="488.4574" cy="850.0181" fill="#FEFECE" filter="url(#f1hg1gwis81pv7)" rx="8" ry="8" style="stroke:#A80036;stroke-width:2;"/><path d="M488.4574,858.0181 L488.4574,885.0181 M475.4574,866.0181 L501.4574,866.0181 M488.4574,885.0181 L475.4574,900.0181 M488.4574,885.0181 L501.4574,900.0181" fill="none" filter="url(#f1hg1gwis81pv7)" style="stroke:#A80036;stroke-width:2;"/><text fill="#4682B4" font-family="sans-serif" font-size="14" lengthAdjust="spacing" textLength="28.0068" x="474.454" y="921.5513">April</text><text fill="#4682B4" font-family="sans-serif" font-size="14" font-style="italic" lengthAdjust="spacing" textLength="48.2549" x="464.33" y="836.942">&#171;slave&#187;</text></g><!--entity cotton--><g class="entity" data-entity="cotton" data-source-line="92" data-uid="ent0047" id="entity_cotton"><ellipse cx="746.2974" cy="963.0181" fill="#FEFECE" filter="url(#f1hg1gwis81pv7)" rx="8" ry="8" style="stroke:#A80036;stroke-width:2;"/><path d="M746.2974,971.0181 L746.2974,998.0181 M733.2974,979.0181 L759.2974,979.0181 M746.2974,998.0181 L733.2974,1013.0181 M746.2974,998.0181 L759.2974,1013.0181" fill="none" filter="url(#f1hg1gwis81pv7)" style="stroke:#A80036;stroke-width:2;"/><text fill="#4682B4" font-family="sans-serif" font-size="14" lengthAdjust="spacing" textLength="41.248" x="725.6734" y="1034.5513">Cotton</text><text fill="#4682B4" font-family="sans-serif" font-size="14" font-style="italic" lengthAdjust="spacing" textLength="48.2549" x="722.17" y="949.942">&#171;slave&#187;</text></g><!--entity old--><g class="entity" data-entity="old" data-source-line="94" data-uid="ent0048" id="entity_old"><ellipse cx="746.3026" cy="873.5201" fill="#FFE0E0" rx="45.3026" ry="26.9314" style="stroke:#A80036;stroke-width:1;"/><text fill="#4682B4" font-family="sans-serif" font-size="14" font-style="italic" lengthAdjust="spacing" textLength="51.3789" x="720.6131" y="868.6163">&#171;group&#187;</text><text fill="#4682B4" font-family="sans-serif" font-size="14" lengthAdjust="spacing" textLength="18.6826" x="715.1751" y="886.2257">old</text><text fill="#4682B4" font-family="sans-serif" font-size="14" lengthAdjust="spacing" textLength="3.8896" x="733.8578" y="886.2257">&#160;</text><text fill="#4682B4" font-family="sans-serif" font-size="14" lengthAdjust="spacing" textLength="39.6826" x="737.7474" y="886.2257">slaves</text></g><!--entity four--><g class="entity" data-entity="four" data-source-line="102" data-uid="ent0052" id="entity_four"><ellipse cx="746.3035" cy="785.5214" fill="#FFE0E0" rx="65.4135" ry="25.7827" style="stroke:#A80036;stroke-width:1;"/><text fill="#4682B4" font-family="sans-serif" font-size="14" font-style="italic" lengthAdjust="spacing" textLength="51.3789" x="720.6141" y="778.8675">&#171;group&#187;</text><text fill="#4682B4" font-family="sans-serif" font-size="14" lengthAdjust="spacing" textLength="28.7861" x="698.0623" y="796.4769">Four</text><text fill="#4682B4" font-family="sans-serif" font-size="14" lengthAdjust="spacing" textLength="3.8896" x="726.8485" y="796.4769">&#160;</text><text fill="#4682B4" font-family="sans-serif" font-size="14" lengthAdjust="spacing" textLength="32.6826" x="730.7381" y="796.4769">black</text><text fill="#4682B4" font-family="sans-serif" font-size="14" lengthAdjust="spacing" textLength="3.8896" x="763.4207" y="796.4769">&#160;</text><text fill="#4682B4" font-family="sans-serif" font-size="14" lengthAdjust="spacing" textLength="27.2344" x="767.3104" y="796.4769">men</text></g><!--entity muscular--><g class="entity" data-entity="muscular" data-source-line="106" data-uid="ent0054" id="entity_muscular"><ellipse cx="970.2442" cy="831.0181" fill="#228B22" filter="url(#f1hg1gwis81pv7)" rx="8" ry="8" style="stroke:#A80036;stroke-width:2;"/><path d="M970.2442,839.0181 L970.2442,866.0181 M957.2442,847.0181 L983.2442,847.0181 M970.2442,866.0181 L957.2442,881.0181 M970.2442,866.0181 L983.2442,881.0181" fill="none" filter="url(#f1hg1gwis81pv7)" style="stroke:#A80036;stroke-width:2;"/><text fill="#4682B4" font-family="sans-serif" font-size="14" lengthAdjust="spacing" textLength="40.4824" x="924.71" y="902.5513">Young</text><text fill="#4682B4" font-family="sans-serif" font-size="14" lengthAdjust="spacing" textLength="3.8896" x="965.1924" y="902.5513">&#160;</text><text fill="#4682B4" font-family="sans-serif" font-size="14" lengthAdjust="spacing" textLength="46.6963" x="969.0821" y="902.5513">George</text><text fill="#4682B4" font-family="sans-serif" font-size="14" font-style="italic" lengthAdjust="spacing" textLength="48.2549" x="946.1167" y="817.942">&#171;slave&#187;</text></g><!--entity oldest--><g class="entity" data-entity="oldest" data-source-line="107" data-uid="ent0055" id="entity_oldest"><ellipse cx="970.246" cy="968.0181" fill="#228B22" filter="url(#f1hg1gwis81pv7)" rx="8" ry="8" style="stroke:#A80036;stroke-width:2;"/><path d="M970.246,976.0181 L970.246,1003.0181 M957.246,984.0181 L983.246,984.0181 M970.246,1003.0181 L957.246,1018.0181 M970.246,1003.0181 L983.246,1018.0181" fill="none" filter="url(#f1hg1gwis81pv7)" style="stroke:#A80036;stroke-width:2;"/><text fill="#4682B4" font-family="sans-serif" font-size="14" lengthAdjust="spacing" textLength="21.7861" x="934.06" y="1039.5513">Old</text><text fill="#4682B4" font-family="sans-serif" font-size="14" lengthAdjust="spacing" textLength="3.8896" x="955.8461" y="1039.5513">&#160;</text><text fill="#4682B4" font-family="sans-serif" font-size="14" lengthAdjust="spacing" textLength="46.6963" x="959.7358" y="1039.5513">George</text><text fill="#4682B4" font-family="sans-serif" font-size="14" font-style="italic" lengthAdjust="spacing" textLength="48.2549" x="946.1186" y="954.942">&#171;slave&#187;</text></g><!--entity big--><g class="entity" data-entity="big" data-source-line="108" data-uid="ent0056" id="entity_big"><ellipse cx="970.2474" cy="1105.0181" fill="#228B22" filter="url(#f1hg1gwis81pv7)" rx="8" ry="8" style="stroke:#A80036;stroke-width:2;"/><path d="M970.2474,1113.0181 L970.2474,1140.0181 M957.2474,1121.0181 L983.2474,1121.0181 M970.2474,1140.0181 L957.2474,1155.0181 M970.2474,1140.0181 L983.2474,1155.0181" fill="none" filter="url(#f1hg1gwis81pv7)" style="stroke:#A80036;stroke-width:2;"/><text fill="#4682B4" font-family="sans-serif" font-size="14" lengthAdjust="spacing" textLength="40.4688" x="950.0131" y="1176.5513">Josiah</text><text fill="#4682B4" font-family="sans-serif" font-size="14" font-style="italic" lengthAdjust="spacing" textLength="48.2549" x="946.12" y="1091.942">&#171;slave&#187;</text></g><!--entity squintyEyes--><g class="entity" data-entity="squintyEyes" data-source-line="109" data-uid="ent0057" id="entity_squintyEyes"><ellipse cx="970.2474" cy="694.0181" fill="#228B22" filter="url(#f1hg1gwis81pv7)" rx="8" ry="8" style="stroke:#A80036;stroke-width:2;"/><path d="M970.2474,702.0181 L970.2474,729.0181 M957.2474,710.0181 L983.2474,710.0181 M970.2474,729.0181 L957.2474,744.0181 M970.2474,729.0181 L983.2474,744.0181" fill="none" filter="url(#f1hg1gwis81pv7)" style="stroke:#A80036;stroke-width:2;"/><text fill="#4682B4" font-family="sans-serif" font-size="14" lengthAdjust="spacing" textLength="37.3447" x="951.5751" y="765.5513">Pierre</text><text fill="#4682B4" font-family="sans-serif" font-size="14" font-style="italic" lengthAdjust="spacing" textLength="48.2549" x="946.12" y="680.942">&#171;slave&#187;</text></g><!--entity grangerfords--><g class="entity" data-entity="grangerfords" data-source-line="116" data-uid="ent0062" id="entity_grangerfords"><ellipse cx="1233.4667" cy="750.5159" fill="#FFE0E0" rx="57.0467" ry="26.0771" style="stroke:#A80036;stroke-width:1;"/><text fill="#4682B4" font-family="sans-serif" font-size="14" font-style="italic" lengthAdjust="spacing" textLength="51.3789" x="1207.7772" y="744.3217">&#171;group&#187;</text><text fill="#4682B4" font-family="sans-serif" font-size="14" lengthAdjust="spacing" textLength="82.4824" x="1192.2255" y="761.9311">Grangerfords</text></g><!--entity shepherdsons--><g class="entity" data-entity="shepherdsons" data-source-line="117" data-uid="ent0063" id="entity_shepherdsons"><ellipse cx="1233.4663" cy="854.5142" fill="#FFE0E0" rx="61.6963" ry="25.8955" style="stroke:#A80036;stroke-width:1;"/><text fill="#4682B4" font-family="sans-serif" font-size="14" font-style="italic" lengthAdjust="spacing" textLength="51.3789" x="1207.7769" y="848.0374">&#171;group&#187;</text><text fill="#4682B4" font-family="sans-serif" font-size="14" lengthAdjust="spacing" textLength="90.2891" x="1188.3218" y="865.6468">Shepherdsons</text></g><!--entity master--><g class="entity" data-entity="master" data-source-line="124" data-uid="ent0067" id="entity_master"><ellipse cx="1233.4721" cy="941.0174" fill="#FEFECE" filter="url(#f1hg1gwis81pv7)" rx="8" ry="8" style="stroke:#A80036;stroke-width:2;"/><path d="M1233.4721,949.0174 L1233.4721,976.0174 M1220.4721,957.0174 L1246.4721,957.0174 M1233.4721,976.0174 L1220.4721,991.0174 M1233.4721,976.0174 L1246.4721,991.0174" fill="none" filter="url(#f1hg1gwis81pv7)" style="stroke:#A80036;stroke-width:2;"/><text fill="#228B22" font-family="times new roman" font-size="14" font-style="italic" lengthAdjust="spacing" textLength="38.1104" x="1214.4169" y="1011.3851">master</text><text fill="#228B22" font-family="times new roman" font-size="14" font-style="italic" lengthAdjust="spacing" textLength="65.3242" x="1200.81" y="928.2864">&#171;unnamed&#187;</text></g><!--link owner to jim--><g class="link" data-entity-1="owner" data-entity-2="jim" data-source-line="14" data-uid="lnk4" id="link_owner_jim"><path d="M314.19,735.6588 C351.33,733.9188 400.7566,731.5903 438.8666,729.8003" fill="none" id="owner-to-jim" style="stroke:#A80036;stroke-width:1;"/><polygon fill="#A80036" points="444.86,729.5188,435.6822,725.9454,439.8655,729.7533,436.0576,733.9366,444.86,729.5188" style="stroke:#A80036;stroke-width:1;"/><text fill="#4682B4" font-family="sans-serif" font-size="13" lengthAdjust="spacing" textLength="39.73" x="365.54" y="727.5339">master</text></g><!--link tom to huck--><g class="link" data-entity-1="tom" data-entity-2="huck" data-source-line="19" data-uid="lnk7" id="link_tom_huck"><path d="M99.5525,930.1101 C139.5825,945.2401 190.7369,964.5689 230.2169,979.4789" fill="none" id="tom-huck" style="stroke:#A80036;stroke-width:1;"/><polygon fill="#A80036" points="93.94,927.9888,100.9445,934.9124,98.6171,929.7565,103.7729,927.4291,93.94,927.9888" style="stroke:#A80036;stroke-width:1;"/><polygon fill="#A80036" points="235.83,981.5988,228.8236,974.677,231.1525,979.8322,225.9972,982.1611,235.83,981.5988" style="stroke:#A80036;stroke-width:1;"/><text fill="#4682B4" font-family="sans-serif" font-size="13" lengthAdjust="spacing" textLength="39.019" x="143.28" y="941.2539">friends</text></g><!--link jim to family--><g class="link" data-entity-1="jim" data-entity-2="family" data-source-line="25" data-uid="lnk10" id="link_jim_family"><path d="M532.28,702.9188 C582.64,673.9788 665.19,626.5488 711.35,600.0288" fill="none" id="jim-family" style="stroke:#A80036;stroke-width:1;"/></g><!--link family to sadie--><g class="link" data-entity-1="family" data-entity-2="sadie" data-source-line="26" data-uid="lnk11" id="link_family_sadie"><path d="M797.38,580.5188 C843.28,580.5188 909.31,580.5188 944.67,580.5188" fill="none" id="family-sadie" style="stroke:#A80036;stroke-width:1;"/><text fill="#4682B4" font-family="sans-serif" font-size="13" lengthAdjust="spacing" textLength="23.1182" x="856.71" y="577.0139">wife</text></g><!--link family to lizzie--><g class="link" data-entity-1="family" data-entity-2="lizzie" data-source-line="30" data-uid="lnk13" id="link_family_lizzie"><path d="M780.04,560.3088 C823.7,533.3588 900.2,486.1388 941.28,460.7788" fill="none" id="family-lizzie" style="stroke:#A80036;stroke-width:1;"/><text fill="#4682B4" font-family="sans-serif" font-size="13" lengthAdjust="spacing" textLength="51.3208" x="842.71" y="488.2339">daughter</text></g><!--link fire to jim--><g class="link" data-entity-1="fire" data-entity-2="jim" data-source-line="39" data-uid="lnk17" id="link_fire_jim"><path d="M302.25,519.7888 C309.84,526.2488 317.94,533.4788 325.04,540.5188 C368.1,583.2088 413,635.5988 444.65,674.0588" fill="none" id="fire-jim" style="stroke:#A80036;stroke-width:1;"/></g><!--link albert to fire--><g class="link" data-entity-1="albert" data-entity-2="fire" data-source-line="41" data-uid="lnk18" id="link_albert_fire"><path d="M80.11,375.9688 C119.47,400.8088 196.82,449.6388 240.55,477.2488" fill="none" id="albert-fire" style="stroke:#A80036;stroke-width:1;"/><text fill="#4682B4" font-family="sans-serif" font-size="13" lengthAdjust="spacing" textLength="33.9663" x="134.28" y="409.2139">called</text><text fill="#4682B4" font-family="sans-serif" font-size="13" lengthAdjust="spacing" textLength="3.6118" x="168.2463" y="409.2139">&#160;</text><text fill="#4682B4" font-family="sans-serif" font-size="13" lengthAdjust="spacing" textLength="20.2173" x="171.8581" y="409.2139">Jim</text></g><!--link doris to fire--><g class="link" data-entity-1="doris" data-entity-2="fire" data-source-line="45" data-uid="lnk20" id="link_doris_fire"><path d="M80.11,497.5188 C114.37,497.5188 177.41,497.5188 222.01,497.5188" fill="none" id="doris-fire" style="stroke:#A80036;stroke-width:1;"/></g><!--link luke to fire--><g class="link" data-entity-1="luke" data-entity-2="fire" data-source-line="49" data-uid="lnk22" id="link_luke_fire"><path d="M83.13,617.1688 C123.28,591.8188 197.8,544.7788 240.46,517.8488" fill="none" id="luke-fire" style="stroke:#A80036;stroke-width:1;"/></g><!--link fire to skinny--><g class="link" data-entity-1="fire" data-entity-2="skinny" data-source-line="52" data-uid="lnk24" id="link_fire_skinny"><path d="M273.66,524.1288 C273.66,535.5288 273.66,546.9288 273.66,558.3288" fill="none" id="fire-skinny" style="stroke:#A80036;stroke-width:1;"/></g><!--link jim to lesson--><g class="link" data-entity-1="jim" data-entity-2="lesson" data-source-line="56" data-uid="lnk26" id="link_jim_lesson"><path d="M513.22,667.3888 C544.4,593.2188 604.27,465.6488 680.88,373.5188 C689.98,362.5788 701.67,352.3188 712.6,343.8588" fill="none" id="jim-lesson" style="stroke:#A80036;stroke-width:1;"/><text fill="#4682B4" font-family="sans-serif" font-size="13" lengthAdjust="spacing" textLength="28.1899" x="592.38" y="413.3439">gave</text></g><!--link lesson to lizzie--><g class="link" data-entity-1="lesson" data-entity-2="lizzie" data-source-line="58" data-uid="lnk27" id="link_lesson_lizzie"><path d="M782.46,340.8488 C826.47,365.0388 900.93,405.9688 941.27,428.1388" fill="none" id="lesson-lizzie" style="stroke:#A80036;stroke-width:1;"/></g><!--link lesson to student1--><g class="link" data-entity-1="lesson" data-entity-2="student1" data-source-line="66" data-uid="lnk33" id="link_lesson_student1"><path d="M780.04,299.0888 C825.02,268.2888 904.88,213.5988 944.93,186.1688" fill="none" id="lesson-student1" style="stroke:#A80036;stroke-width:1;"/></g><!--link lesson to student2--><g class="link" data-entity-1="lesson" data-entity-2="student2" data-source-line="67" data-uid="lnk34" id="link_lesson_student2"><path d="M789.56,318.6588 C834.34,315.6388 903.72,310.9488 941.84,308.3688" fill="none" id="lesson-student2" style="stroke:#A80036;stroke-width:1;"/></g><!--link lesson to student3--><g class="link" data-entity-1="lesson" data-entity-2="student3" data-source-line="68" data-uid="lnk35" id="link_lesson_student3"><path d="M746.3,357.0788 C746.3,368.3788 746.3,379.6888 746.3,390.9988" fill="none" id="lesson-student3" style="stroke:#A80036;stroke-width:1;"/></g><!--link student4 to lesson--><g class="link" data-entity-1="student4" data-entity-2="lesson" data-source-line="69" data-uid="lnk36" id="link_student4_lesson"><path d="M513.99,260.0388 C558.14,271.7788 651.36,296.5488 705,310.8088" fill="none" id="student4-lesson" style="stroke:#A80036;stroke-width:1;"/></g><!--link student5 to lesson--><g class="link" data-entity-1="student5" data-entity-2="lesson" data-source-line="70" data-uid="lnk37" id="link_student5_lesson"><path d="M513.99,383.8988 C558.14,371.9988 651.36,346.8588 705,332.3888" fill="none" id="student5-lesson" style="stroke:#A80036;stroke-width:1;"/></g><!--reverse link huck to father--><g class="link" data-entity-1="huck" data-entity-2="father" data-source-line="74" data-uid="lnk39" id="link_huck_father"><path d="M317.2138,999.5192 C357.5038,1003.2992 415.72,1008.7788 454.5,1012.4188" fill="none" id="huck-backto-father" style="stroke:#A80036;stroke-width:1;"/><polygon fill="#A80036" points="311.24,998.9588,319.827,1003.7819,316.2181,999.4258,320.5743,995.8169,311.24,998.9588" style="stroke:#A80036;stroke-width:1;"/><text fill="#4682B4" font-family="sans-serif" font-size="13" lengthAdjust="spacing" textLength="33.2427" x="368.54" y="999.6339">father</text></g><!--reverse link judge to bekkie--><g class="link" data-entity-1="judge" data-entity-2="bekkie" data-source-line="80" data-uid="lnk42" id="link_judge_bekkie"><path d="M109.54,232.5188 C156.1,232.5188 218.58,232.5188 252.33,232.5188" fill="none" id="judge-backto-bekkie" style="stroke:#A80036;stroke-width:1;"/><polygon fill="#A80036" points="103.54,232.5188,112.54,236.5188,108.54,232.5188,112.54,228.5188,103.54,232.5188" style="stroke:#A80036;stroke-width:1;"/><text fill="#4682B4" font-family="sans-serif" font-size="13" lengthAdjust="spacing" textLength="51.3208" x="137.28" y="229.0139">daughter</text></g><!--link huck to jim--><g class="link" data-entity-1="huck" data-entity-2="jim" data-source-line="85" data-uid="lnk43" id="link_huck_jim"><path d="M315.2209,944.4397 C352.3309,897.6997 402.0991,835.0277 441.1391,785.8577" fill="none" id="huck-jim" style="stroke:#A80036;stroke-width:1;"/><polygon fill="#A80036" points="311.49,949.1388,320.219,944.5775,314.599,945.2229,313.9536,939.603,311.49,949.1388" style="stroke:#A80036;stroke-width:1;"/><polygon fill="#A80036" points="444.87,781.1588,436.141,785.72,441.7609,785.0746,442.4063,790.6945,444.87,781.1588" style="stroke:#A80036;stroke-width:1;"/><text fill="#4682B4" font-family="sans-serif" font-size="13" lengthAdjust="spacing" textLength="14.46" x="356.04" y="802.3539">on</text><text fill="#4682B4" font-family="sans-serif" font-size="13" lengthAdjust="spacing" textLength="3.6118" x="370.5" y="802.3539">&#160;</text><text fill="#4682B4" font-family="sans-serif" font-size="13" lengthAdjust="spacing" textLength="18.0718" x="374.1118" y="802.3539">the</text><text fill="#4682B4" font-family="sans-serif" font-size="13" lengthAdjust="spacing" textLength="3.6118" x="392.1836" y="802.3539">&#160;</text><text fill="#4682B4" font-family="sans-serif" font-size="13" lengthAdjust="spacing" textLength="18.7891" x="395.7954" y="802.3539">run</text><text fill="#4682B4" font-family="sans-serif" font-size="13" lengthAdjust="spacing" textLength="47.7026" x="361.4609" y="818.7054">together</text></g><!--reverse link tom to polly--><g class="link" data-entity-1="tom" data-entity-2="polly" data-source-line="89" data-uid="lnk45" id="link_tom_polly"><path d="M99.8096,904.1545 C148.7296,893.7845 225.14,877.5888 258.23,870.5788" fill="none" id="tom-backto-polly" style="stroke:#A80036;stroke-width:1;"/><polygon fill="#A80036" points="93.94,905.3988,103.5738,907.4455,98.8313,904.3619,101.9149,899.6194,93.94,905.3988" style="stroke:#A80036;stroke-width:1;"/><text fill="#4682B4" font-family="sans-serif" font-size="13" lengthAdjust="spacing" textLength="25.3018" x="150.28" y="881.5439">aunt</text></g><!--link jim to old--><g class="link" data-entity-1="jim" data-entity-2="old" data-source-line="96" data-uid="lnk49" id="link_jim_old"><path d="M532.36,767.6188 C541.72,775.3888 551.84,783.0988 561.88,789.5188 C609.1,819.6988 668.94,844.9688 707.18,859.6688" fill="none" id="jim-old" style="stroke:#A80036;stroke-width:1;"/><text fill="#4682B4" font-family="sans-serif" font-size="13" lengthAdjust="spacing" textLength="34.6899" x="562.88" y="786.0139">stolen</text><text fill="#4682B4" font-family="sans-serif" font-size="13" lengthAdjust="spacing" textLength="3.6118" x="597.5699" y="786.0139">&#160;</text><text fill="#4682B4" font-family="sans-serif" font-size="13" lengthAdjust="spacing" textLength="49.1372" x="601.1818" y="786.0139">firewood</text></g><!--link april to old--><g class="link" data-entity-1="april" data-entity-2="old" data-source-line="98" data-uid="lnk50" id="link_april_old"><path d="M513.99,873.5188 C557.01,873.5188 646.64,873.5188 700.82,873.5188" fill="none" id="april-old" style="stroke:#A80036;stroke-width:1;"/></g><!--link old to cotton--><g class="link" data-entity-1="old" data-entity-2="cotton" data-source-line="99" data-uid="lnk51" id="link_old_cotton"><path d="M746.3,900.5588 C746.3,912.1388 746.3,923.7288 746.3,935.3188" fill="none" id="old-cotton" style="stroke:#A80036;stroke-width:1;"/></g><!--link jim to four--><g class="link" data-entity-1="jim" data-entity-2="four" data-source-line="104" data-uid="lnk53" id="link_jim_four"><path d="M532.28,737.2288 C575.24,746.9688 641.63,762.0188 688.87,772.7288" fill="none" id="jim-four" style="stroke:#A80036;stroke-width:1;"/><text fill="#4682B4" font-family="sans-serif" font-size="13" lengthAdjust="spacing" textLength="21.6709" x="568.88" y="741.1539">met</text><text fill="#4682B4" font-family="sans-serif" font-size="13" lengthAdjust="spacing" textLength="3.6118" x="590.5509" y="741.1539">&#160;</text><text fill="#4682B4" font-family="sans-serif" font-size="13" lengthAdjust="spacing" textLength="10.1182" x="594.1627" y="741.1539">in</text><text fill="#4682B4" font-family="sans-serif" font-size="13" lengthAdjust="spacing" textLength="3.6118" x="604.2809" y="741.1539">&#160;</text><text fill="#4682B4" font-family="sans-serif" font-size="13" lengthAdjust="spacing" textLength="36.1245" x="607.8927" y="741.1539">Illinois</text></g><!--link four to muscular--><g class="link" data-entity-1="four" data-entity-2="muscular" data-source-line="111" data-uid="lnk58" id="link_four_muscular"><path d="M798.49,801.4388 C836.52,813.2588 887.88,829.2288 924.32,840.5488" fill="none" id="four-muscular" style="stroke:#A80036;stroke-width:1;"/></g><!--link four to oldest--><g class="link" data-entity-1="four" data-entity-2="oldest" data-source-line="112" data-uid="lnk59" id="link_four_oldest"><path d="M781.99,807.3588 C791.89,814.0788 802.49,821.7588 811.71,829.5188 C856.74,867.3988 903.09,916.5088 933.75,950.6788" fill="none" id="four-oldest" style="stroke:#A80036;stroke-width:1;"/></g><!--link four to big--><g class="link" data-entity-1="four" data-entity-2="big" data-source-line="113" data-uid="lnk60" id="link_four_big"><path d="M786.04,806.2188 C795.43,812.6788 804.76,820.5088 811.71,829.5188 C835.93,860.8988 825.24,877.4588 841.71,913.5188 C872.88,981.7688 885.69,996.4388 924.71,1060.5188 C931.02,1070.8888 938.12,1081.9588 944.76,1092.0988" fill="none" id="four-big" style="stroke:#A80036;stroke-width:1;"/></g><!--link four to squintyEyes--><g class="link" data-entity-1="four" data-entity-2="squintyEyes" data-source-line="114" data-uid="lnk61" id="link_four_squintyEyes"><path d="M798.77,769.7488 C844.62,755.6988 909.7,735.7588 944.7,725.0388" fill="none" id="four-squintyEyes" style="stroke:#A80036;stroke-width:1;"/></g><!--link muscular to grangerfords--><g class="link" data-entity-1="muscular" data-entity-2="grangerfords" data-source-line="119" data-uid="lnk64" id="link_muscular_grangerfords"><path d="M1016.15,836.6388 C1064.87,817.2388 1142.09,786.5088 1189.88,767.4788" fill="none" id="muscular-grangerfords" style="stroke:#A80036;stroke-width:1;"/><text fill="#4682B4" font-family="sans-serif" font-size="13" lengthAdjust="spacing" textLength="60.709" x="1063.78" y="783.6239">mentioned</text></g><!--link muscular to shepherdsons--><g class="link" data-entity-1="muscular" data-entity-2="shepherdsons" data-source-line="120" data-uid="lnk65" id="link_muscular_shepherdsons"><path d="M1016.15,854.5188 C1059.04,854.5188 1124,854.5188 1171.54,854.5188" fill="none" id="muscular-shepherdsons" style="stroke:#A80036;stroke-width:1;"/><text fill="#4682B4" font-family="sans-serif" font-size="13" lengthAdjust="spacing" textLength="60.709" x="1063.78" y="851.0139">mentioned</text></g><!--link grangerfords to shepherdsons--><g class="link" data-entity-1="grangerfords" data-entity-2="shepherdsons" data-source-line="122" data-uid="lnk66" id="link_grangerfords_shepherdsons"><path d="M1233.47,782.7588 C1233.47,798.5188 1233.47,806.5088 1233.47,822.2788" fill="none" id="grangerfords-shepherdsons" style="stroke:#A80036;stroke-width:1;"/><polygon fill="#A80036" points="1233.47,776.7588,1229.47,785.7588,1233.47,781.7588,1237.47,785.7588,1233.47,776.7588" style="stroke:#A80036;stroke-width:1;"/><polygon fill="#A80036" points="1233.47,828.2788,1237.47,819.2788,1233.47,823.2788,1229.47,819.2788,1233.47,828.2788" style="stroke:#A80036;stroke-width:1;"/><text fill="#4682B4" font-family="sans-serif" font-size="13" lengthAdjust="spacing" textLength="25.3018" x="1208.97" y="808.1039">hate</text></g><!--reverse link muscular to master--><g class="link" data-entity-1="muscular" data-entity-2="master" data-source-line="126" data-uid="lnk68" id="link_muscular_master"><path d="M1021.6798,875.7572 C1073.7598,897.6872 1152.85,930.9888 1199.32,950.5588" fill="none" id="muscular-backto-master" style="stroke:#A80036;stroke-width:1;"/><polygon fill="#A80036" points="1016.15,873.4288,1022.8923,880.608,1020.7581,875.3692,1025.997,873.235,1016.15,873.4288" style="stroke:#A80036;stroke-width:1;"/><text fill="#4682B4" font-family="sans-serif" font-size="13" lengthAdjust="spacing" textLength="27.46" x="1046.78" y="883.5139">stole</text><text fill="#4682B4" font-family="sans-serif" font-size="13" lengthAdjust="spacing" textLength="3.6118" x="1074.24" y="883.5139">&#160;</text><text fill="#4682B4" font-family="sans-serif" font-size="13" lengthAdjust="spacing" textLength="33.9663" x="1077.8518" y="883.5139">pencil</text><text fill="#4682B4" font-family="sans-serif" font-size="13" lengthAdjust="spacing" textLength="3.6118" x="1111.8181" y="883.5139">&#160;</text><text fill="#4682B4" font-family="sans-serif" font-size="13" lengthAdjust="spacing" textLength="26" x="1115.4299" y="883.5139">from</text></g><g class="legend"><rect fill="none" height="29.6094" rx="7.5" ry="7.5" style="stroke:#000000;stroke-width:1;" width="134.1787" x="576.492" y="1192.0513"/><text fill="#4682B4" font-family="sans-serif" font-size="14" lengthAdjust="spacing" textLength="122.1787" x="582.492" y="1212.5845">29.6% (Chapter 15)</text></g><!--SRC=[RLLjZzis3FwkNy4MDrpkGoxeTHrG8GlGjRtRWXOzx8eE-pGeDcshaILFBmtINr_g9OxJv9CfyX7va2BfPrVExnK-2j_1x_2yytvmVB6mOdVRIj-5JN1eAwCzQdzRcNvX56vVBWObj0-zcajTgL2ZMrXitA93KRj5BwHUIB8-Py-A7OvX22bggTlRY63CIwyGrg97n-B5nf88LIUig3nQnnIsg6lWSFVwzhTVOFQs4mCPuCMh6yOOJpSv20TVPG-mN6fXhV36hbPmrGk5_mtMUD4QBPqd_4Vf7FmZl3CwtJ8xJSwk6enOnl9nFbz1yiUX5uwYqSNFfeSdiTkZJVSy7PD_nlyCrLRX1gtTmxtKsMz7oW9W4RkCFfEIGsCbfUJ8wHEL0XFUHOdeEoM-OUH-O3HRo_xQGIDwgVOt4Pf5mhRMX66rOYnIdS-BWHKxAR9J3ZlPa2V-NidlOeE-In7fyFrooAE3Wk5GYz1skH3hKBS8dplXgwuKusjIbMpv6qMryCaWaZYDaJ5iTYyjWWdUoHfpLb6nNE8twhIOKpeJ1SgDiU8dvXZL72gX5DQmZaR-pbYPUw2Eqdcuh2wtwS8dLSE7iCsLLoISNqdQuusdBJtiFhzK4izkPBx5IWdIXBH1K5aKEcgsb6CMfrcMboi63YsvfE3vE3u04VWYRIjL9k1fehH_SKQ1t-F61c7tKzZTXHUcgT4_uruUSOp_BUXjJwBzUidDWpAdJbvTQgTZDWVcvwgxKJNoOMFaiK1i37DKCVue1fxdmbD34eEWDMs5cZWibpLjczMgF6gQlsMQb0JbHI0dErcR7RmpeLKYzrBMZ5dmFoXU6TODRhSq5gCjztzqN2pJWRcUxJhfqTrC9lPwbgfqeXlPhShgeMeGER21lgR5GlJHA9LhFaJfIA9icQ8cHD1nuRqPREaR4QNfAxyrtfSrM2LnOcGpGqDoO1aN9HtFLqxKSdeo-YteD2ixOsgQrnGgsrd4p4k4DFecMDWeGTdsc0UZYQeB2osgQGUZ1wdXBwMaDZBkpNzDq2qyeB5jVf4-k2eeOIVzTnYAEEmJ9B51vo_WriP9aLVZHhPmFbsFabPysTR_1wdz_lqUtRadbcWJ_GEfKP5ZZqSACyeJZrIY1qlR0srZR9shtquKaqBDdZeSg2zgceGCT1F5jA9ZWIZMYRDONksbqLYVW4uSJK7ib0krwqzG-ZDG4VAFCxrDbYPpEQ4JExO0IX_1WBgYxccieUN-0m00]--></g></svg>