<svg xmlns="http://www.w3.org/2000/svg" xmlns:xlink="http://www.w3.org/1999/xlink" contentStyleType="text/css" data-diagram-type="DESCRIPTION" height="599px" preserveAspectRatio="none" style="width:636px;height:599px;" version="1.1" viewBox="0 0 636 599" width="636px" zoomAndPan="magnify"><title>James</title><defs><filter height="300%" id="f1j981nt3me7dd" width="300%" x="-1" y="-1"><feGaussianBlur result="blurOut" stdDeviation="2"/><feColorMatrix in="blurOut" result="blurOut2" type="matrix" values="0 0 0 0 0 0 0 0 0 0 0 0 0 0 0 0 0 0 .4 0"/><feOffset dx="4" dy="4" in="blurOut2" result="blurOut3"/><feBlend in="SourceGraphic" in2="blurOut3" mode="normal"/></filter></defs><g><g class="title" data-source-line="5"><text fill="#4682B4" font-family="sans-serif" font-size="14" font-weight="bold" lengthAdjust="spacing" textLength="43.5928" x="286.89" y="25.1074">James</text></g><rect fill="none" height="522.2296" style="stroke:#A80036;stroke-width:1;" width="630.3728" x="0" y="39.6211"/><path d="M75.3584,39.6211 L75.3584,51.2422 L65.3584,61.2422 L0,61.2422" fill="none" style="stroke:#A80036;stroke-width:1;"/><text fill="#4682B4" font-family="sans-serif" font-size="14" lengthAdjust="spacing" textLength="65.3584" x="3" y="55.7285">characters</text><!--entity jim--><g class="entity" data-entity="jim" data-source-line="10" data-uid="ent0002" id="entity_jim"><ellipse cx="247.7004" cy="423.8644" fill="#00FF00" filter="url(#f1j981nt3me7dd)" rx="8" ry="8" style="stroke:#A80036;stroke-width:2;"/><path d="M247.7004,431.8644 L247.7004,458.8644 M234.7004,439.8644 L260.7004,439.8644 M247.7004,458.8644 L234.7004,473.8644 M247.7004,458.8644 L260.7004,473.8644" fill="none" filter="url(#f1j981nt3me7dd)" style="stroke:#A80036;stroke-width:2;"/><text fill="#4682B4" font-family="sans-serif" font-size="14" lengthAdjust="spacing" textLength="41.2344" x="227.0832" y="495.9718">James</text><text fill="#4682B4" font-family="sans-serif" font-size="14" font-style="italic" lengthAdjust="spacing" textLength="64.5928" x="215.404" y="391.7296">&#171;narrator&#187;</text><text fill="#4682B4" font-family="sans-serif" font-size="14" font-style="italic" lengthAdjust="spacing" textLength="84.8408" x="205.28" y="410.3507">&#171;protagonist&#187;</text></g><!--entity owner--><g class="entity" data-entity="owner" data-source-line="12" data-uid="ent0003" id="entity_owner"><ellipse cx="54.642" cy="338.2422" fill="#B8860B" filter="url(#f1j981nt3me7dd)" rx="8" ry="8" style="stroke:#A80036;stroke-width:2;"/><path d="M54.642,346.2422 L54.642,373.2422 M41.642,354.2422 L67.642,354.2422 M54.642,373.2422 L41.642,388.2422 M54.642,373.2422 L67.642,388.2422" fill="none" filter="url(#f1j981nt3me7dd)" style="stroke:#A80036;stroke-width:2;"/><text fill="#4682B4" font-family="sans-serif" font-size="14" lengthAdjust="spacing" textLength="28.7725" x="14.58" y="410.3496">Miss</text><text fill="#4682B4" font-family="sans-serif" font-size="14" lengthAdjust="spacing" textLength="3.8896" x="43.3525" y="410.3496">&#160;</text><text fill="#4682B4" font-family="sans-serif" font-size="14" lengthAdjust="spacing" textLength="47.4619" x="47.2421" y="410.3496">Watson</text></g><!--entity tom--><g class="entity" data-entity="tom" data-source-line="16" data-uid="ent0005" id="entity_tom"><ellipse cx="54.6361" cy="203.2422" fill="#228B22" filter="url(#f1j981nt3me7dd)" rx="8" ry="8" style="stroke:#A80036;stroke-width:2;"/><path d="M54.6361,211.2422 L54.6361,238.2422 M41.6361,219.2422 L67.6361,219.2422 M54.6361,238.2422 L41.6361,253.2422 M54.6361,238.2422 L67.6361,253.2422" fill="none" filter="url(#f1j981nt3me7dd)" style="stroke:#A80036;stroke-width:2;"/><text fill="#4682B4" font-family="sans-serif" font-size="14" lengthAdjust="spacing" textLength="28" x="18.85" y="275.3496">Tom</text><text fill="#4682B4" font-family="sans-serif" font-size="14" lengthAdjust="spacing" textLength="3.8896" x="46.85" y="275.3496">&#160;</text><text fill="#4682B4" font-family="sans-serif" font-size="14" lengthAdjust="spacing" textLength="39.6826" x="50.7396" y="275.3496">Sawer</text></g><!--entity huck--><g class="entity" data-entity="huck" data-source-line="17" data-uid="ent0006" id="entity_huck"><ellipse cx="247.7047" cy="193.9322" fill="#228B22" filter="url(#f1j981nt3me7dd)" rx="8" ry="8" style="stroke:#A80036;stroke-width:2;"/><path d="M247.7047,201.9322 L247.7047,228.9322 M234.7047,209.9322 L260.7047,209.9322 M247.7047,228.9322 L234.7047,243.9322 M247.7047,228.9322 L260.7047,243.9322" fill="none" filter="url(#f1j981nt3me7dd)" style="stroke:#A80036;stroke-width:2;"/><text fill="#4682B4" font-family="sans-serif" font-size="14" lengthAdjust="spacing" textLength="74.6895" x="210.36" y="266.0396">Huckleberry</text><text fill="#4682B4" font-family="sans-serif" font-size="14" lengthAdjust="spacing" textLength="27.2344" x="234.0875" y="284.6607">Finn</text></g><!--entity sadie--><g class="entity" data-entity="sadie" data-source-line="21" data-uid="ent0008" id="entity_sadie"><ellipse cx="595.5733" cy="344.2422" fill="#B8860B" filter="url(#f1j981nt3me7dd)" rx="8" ry="8" style="stroke:#A80036;stroke-width:2;"/><path d="M595.5733,352.2422 L595.5733,379.2422 M582.5733,360.2422 L608.5733,360.2422 M595.5733,379.2422 L582.5733,394.2422 M595.5733,379.2422 L608.5733,394.2422" fill="none" filter="url(#f1j981nt3me7dd)" style="stroke:#A80036;stroke-width:2;"/><text fill="#4682B4" font-family="sans-serif" font-size="14" lengthAdjust="spacing" textLength="35.8066" x="577.67" y="416.3496">Sadie</text></g><!--entity family--><g class="entity" data-entity="family" data-source-line="23" data-uid="ent0009" id="entity_family"><ellipse cx="402.9485" cy="438.0482" fill="#FFE0E0" rx="50.8285" ry="27.776" style="stroke:#A80036;stroke-width:1;"/><text fill="#4682B4" font-family="sans-serif" font-size="14" font-style="italic" lengthAdjust="spacing" textLength="51.3789" x="377.259" y="432.2705">&#171;group&#187;</text><text fill="#4682B4" font-family="sans-serif" font-size="14" lengthAdjust="spacing" textLength="31.4453" x="367.0017" y="450.8916">Jim's</text><text fill="#4682B4" font-family="sans-serif" font-size="14" lengthAdjust="spacing" textLength="3.8896" x="398.447" y="450.8916">&#160;</text><text fill="#4682B4" font-family="sans-serif" font-size="14" lengthAdjust="spacing" textLength="36.5586" x="402.3367" y="450.8916">family</text></g><!--entity lizzie--><g class="entity" data-entity="lizzie" data-source-line="28" data-uid="ent0012" id="entity_lizzie"><ellipse cx="595.5764" cy="465.2422" fill="#FEFECE" filter="url(#f1j981nt3me7dd)" rx="8" ry="8" style="stroke:#A80036;stroke-width:2;"/><path d="M595.5764,473.2422 L595.5764,500.2422 M582.5764,481.2422 L608.5764,481.2422 M595.5764,500.2422 L582.5764,515.2422 M595.5764,500.2422 L608.5764,515.2422" fill="none" filter="url(#f1j981nt3me7dd)" style="stroke:#A80036;stroke-width:2;"/><text fill="#4682B4" font-family="sans-serif" font-size="14" lengthAdjust="spacing" textLength="57.5928" x="566.78" y="537.3496">Elizabeth</text></g><!--entity judge--><g class="entity" data-entity="judge" data-source-line="32" data-uid="ent0014" id="entity_judge"><ellipse cx="54.6411" cy="82.2422" fill="#228B22" filter="url(#f1j981nt3me7dd)" rx="8" ry="8" style="stroke:#A80036;stroke-width:2;"/><path d="M54.6411,90.2422 L54.6411,117.2422 M41.6411,98.2422 L67.6411,98.2422 M54.6411,117.2422 L41.6411,132.2422 M54.6411,117.2422 L67.6411,132.2422" fill="none" filter="url(#f1j981nt3me7dd)" style="stroke:#A80036;stroke-width:2;"/><text fill="#4682B4" font-family="sans-serif" font-size="14" lengthAdjust="spacing" textLength="38.1445" x="6" y="154.3496">Judge</text><text fill="#4682B4" font-family="sans-serif" font-size="14" lengthAdjust="spacing" textLength="3.8896" x="44.1445" y="154.3496">&#160;</text><text fill="#4682B4" font-family="sans-serif" font-size="14" lengthAdjust="spacing" textLength="55.248" x="48.0342" y="154.3496">Thatcher</text></g><!--entity albert--><g class="entity" data-entity="albert" data-source-line="34" data-uid="ent0015" id="entity_albert"><ellipse cx="54.6361" cy="459.2422" fill="#228B22" filter="url(#f1j981nt3me7dd)" rx="8" ry="8" style="stroke:#A80036;stroke-width:2;"/><path d="M54.6361,467.2422 L54.6361,494.2422 M41.6361,475.2422 L67.6361,475.2422 M54.6361,494.2422 L41.6361,509.2422 M54.6361,494.2422 L67.6361,509.2422" fill="none" filter="url(#f1j981nt3me7dd)" style="stroke:#A80036;stroke-width:2;"/><text fill="#4682B4" font-family="sans-serif" font-size="14" lengthAdjust="spacing" textLength="36.5723" x="36.35" y="531.3496">Albert</text></g><!--link owner to jim--><g class="link" data-entity-1="owner" data-entity-2="jim" data-source-line="14" data-uid="lnk4" id="link_owner_jim"><path d="M94.77,384.7722 C126.54,395.9122 165.6082,409.6162 198.3082,421.0862" fill="none" id="owner-to-jim" style="stroke:#A80036;stroke-width:1;"/><polygon fill="#A80036" points="203.97,423.0722,196.8013,416.3187,199.2518,421.4172,194.1533,423.8678,203.97,423.0722" style="stroke:#A80036;stroke-width:1;"/><text fill="#4682B4" font-family="sans-serif" font-size="13" lengthAdjust="spacing" textLength="35.4072" x="136.28" y="394.5805">owner</text></g><!--link tom to huck--><g class="link" data-entity-1="tom" data-entity-2="huck" data-source-line="19" data-uid="lnk7" id="link_tom_huck"><path d="M96.68,236.0522 C130.51,236.0522 169.53,236.0522 203.93,236.0522" fill="none" id="tom-huck" style="stroke:#A80036;stroke-width:1;"/><polygon fill="#A80036" points="90.68,236.0522,99.68,240.0522,95.68,236.0522,99.68,232.0522,90.68,236.0522" style="stroke:#A80036;stroke-width:1;"/><polygon fill="#A80036" points="209.93,236.0522,200.93,232.0522,204.93,236.0522,200.93,240.0522,209.93,236.0522" style="stroke:#A80036;stroke-width:1;"/><text fill="#4682B4" font-family="sans-serif" font-size="13" lengthAdjust="spacing" textLength="39.019" x="134.28" y="232.0805">friends</text></g><!--link jim to family--><g class="link" data-entity-1="jim" data-entity-2="family" data-source-line="25" data-uid="lnk10" id="link_jim_family"><path d="M291.39,438.0522 C310.17,438.0522 332.35,438.0522 351.9,438.0522" fill="none" id="jim-family" style="stroke:#A80036;stroke-width:1;"/></g><!--link family to sadie--><g class="link" data-entity-1="family" data-entity-2="sadie" data-source-line="26" data-uid="lnk11" id="link_family_sadie"><path d="M447.21,424.2122 C488.29,411.0622 547.99,391.9622 577.18,382.6222" fill="none" id="family-sadie" style="stroke:#A80036;stroke-width:1;"/><text fill="#4682B4" font-family="sans-serif" font-size="13" lengthAdjust="spacing" textLength="23.1182" x="498.78" y="392.8105">wife</text></g><!--link family to lizzie--><g class="link" data-entity-1="family" data-entity-2="lizzie" data-source-line="30" data-uid="lnk13" id="link_family_lizzie"><path d="M447.68,451.8122 C484.18,463.3022 535.11,479.3322 566.41,489.1822" fill="none" id="family-lizzie" style="stroke:#A80036;stroke-width:1;"/><text fill="#4682B4" font-family="sans-serif" font-size="13" lengthAdjust="spacing" textLength="51.3208" x="484.78" y="460.4905">daughter</text></g><!--link albert to jim--><g class="link" data-entity-1="albert" data-entity-2="jim" data-source-line="36" data-uid="lnk16" id="link_albert_jim"><path d="M73.27,487.0722 C102.74,478.7422 157.0363,463.3946 198.1363,451.7746" fill="none" id="albert-to-jim" style="stroke:#A80036;stroke-width:1;"/><polygon fill="#A80036" points="203.91,450.1422,194.1612,448.7416,199.0986,451.5025,196.3377,456.4399,203.91,450.1422" style="stroke:#A80036;stroke-width:1;"/><text fill="#4682B4" font-family="sans-serif" font-size="13" lengthAdjust="spacing" textLength="21.6899" x="143.28" y="454.6505">???</text></g><g class="legend"><rect fill="none" height="30.6211" rx="7.5" ry="7.5" style="stroke:#000000;stroke-width:1;" width="118.6064" x="249.3832" y="552.8496"/><text fill="#4682B4" font-family="sans-serif" font-size="14" lengthAdjust="spacing" textLength="106.6064" x="255.3832" y="573.957">2.2% (Chapter 1)</text></g><!--SRC=[HL1BQzmm4BxhLqp2bYO7hsbw4rilfRIKXK8XWHxBh3ssbEXXf37BvjTt9BliRUPxZJxTxJ9V7Vr6Dl05xWtpd7NR9hpi9yjcEI-PKXy3K-1z7tqR7RrzRcU7WHVl6XjwjmoKsqHZRWtXa5kFDhHMs7jrj_5mEoDA76oOzaMX55js12Vqb5KnZab6w0qcx9bILeuc2WDeUDe_VO27RmPdmU7Jer9ALvy6pF1gFS3X430bv9Yw3dOU7VsTKsISOh2PHV_BvWn_a7CCrHKlGR9s8nMjKklQD1tKFBtoudk97fxnGgcwMBQQhlJFfNzpTAQKhl33XZNL2BW9LD4UIc85DOp9IfqicS_o3LJrkKotLpoShF-OOKHltVMn2DPHwaqfBdFNALMUrpGReJPUW3LAmyMEagI_E_kEPs9JxyZoRWM-oLT4z0Cka-7QzRGC4y6BGUxDLlYrGbiZ_TL9Nwu4rl4_issbxVfzn-DH_GC0]--></g></svg>