<svg xmlns="http://www.w3.org/2000/svg" xmlns:xlink="http://www.w3.org/1999/xlink" contentStyleType="text/css" data-diagram-type="DESCRIPTION" height="700px" preserveAspectRatio="none" style="width:854px;height:700px;" version="1.1" viewBox="0 0 854 700" width="854px" zoomAndPan="magnify"><title>James</title><defs><filter height="300%" id="f1lzyo2ucy0012" width="300%" x="-1" y="-1"><feGaussianBlur result="blurOut" stdDeviation="2"/><feColorMatrix in="blurOut" result="blurOut2" type="matrix" values="0 0 0 0 0 0 0 0 0 0 0 0 0 0 0 0 0 0 .4 0"/><feOffset dx="4" dy="4" in="blurOut2" result="blurOut3"/><feBlend in="SourceGraphic" in2="blurOut3" mode="normal"/></filter></defs><g><g class="title" data-source-line="5"><text fill="#4682B4" font-family="sans-serif" font-size="14" font-weight="bold" lengthAdjust="spacing" textLength="43.5928" x="395.77" y="25.1074">James</text></g><rect fill="none" height="623.2296" style="stroke:#A80036;stroke-width:1;" width="848.1328" x="0" y="39.6211"/><path d="M75.3584,39.6211 L75.3584,51.2422 L65.3584,61.2422 L0,61.2422" fill="none" style="stroke:#A80036;stroke-width:1;"/><text fill="#4682B4" font-family="sans-serif" font-size="14" lengthAdjust="spacing" textLength="65.3584" x="3" y="55.7285">characters</text><!--entity jim--><g class="entity" data-entity="jim" data-source-line="10" data-uid="ent0002" id="entity_jim"><ellipse cx="465.4604" cy="410.8644" fill="#00FF00" filter="url(#f1lzyo2ucy0012)" rx="8" ry="8" style="stroke:#A80036;stroke-width:2;"/><path d="M465.4604,418.8644 L465.4604,445.8644 M452.4604,426.8644 L478.4604,426.8644 M465.4604,445.8644 L452.4604,460.8644 M465.4604,445.8644 L478.4604,460.8644" fill="none" filter="url(#f1lzyo2ucy0012)" style="stroke:#A80036;stroke-width:2;"/><text fill="#4682B4" font-family="sans-serif" font-size="14" lengthAdjust="spacing" textLength="41.2344" x="444.8432" y="482.9718">James</text><text fill="#4682B4" font-family="sans-serif" font-size="14" font-style="italic" lengthAdjust="spacing" textLength="64.5928" x="433.164" y="378.7296">&#171;narrator&#187;</text><text fill="#4682B4" font-family="sans-serif" font-size="14" font-style="italic" lengthAdjust="spacing" textLength="84.8408" x="423.04" y="397.3507">&#171;protagonist&#187;</text></g><!--entity owner--><g class="entity" data-entity="owner" data-source-line="12" data-uid="ent0003" id="entity_owner"><ellipse cx="273.662" cy="340.2422" fill="#B8860B" filter="url(#f1lzyo2ucy0012)" rx="8" ry="8" style="stroke:#A80036;stroke-width:2;"/><path d="M273.662,348.2422 L273.662,375.2422 M260.662,356.2422 L286.662,356.2422 M273.662,375.2422 L260.662,390.2422 M273.662,375.2422 L286.662,390.2422" fill="none" filter="url(#f1lzyo2ucy0012)" style="stroke:#A80036;stroke-width:2;"/><text fill="#4682B4" font-family="sans-serif" font-size="14" lengthAdjust="spacing" textLength="28.7725" x="233.6" y="412.3496">Miss</text><text fill="#4682B4" font-family="sans-serif" font-size="14" lengthAdjust="spacing" textLength="3.8896" x="262.3725" y="412.3496">&#160;</text><text fill="#4682B4" font-family="sans-serif" font-size="14" lengthAdjust="spacing" textLength="47.4619" x="266.2621" y="412.3496">Watson</text></g><!--entity tom--><g class="entity" data-entity="tom" data-source-line="16" data-uid="ent0005" id="entity_tom"><ellipse cx="54.6361" cy="203.2422" fill="#228B22" filter="url(#f1lzyo2ucy0012)" rx="8" ry="8" style="stroke:#A80036;stroke-width:2;"/><path d="M54.6361,211.2422 L54.6361,238.2422 M41.6361,219.2422 L67.6361,219.2422 M54.6361,238.2422 L41.6361,253.2422 M54.6361,238.2422 L67.6361,253.2422" fill="none" filter="url(#f1lzyo2ucy0012)" style="stroke:#A80036;stroke-width:2;"/><text fill="#4682B4" font-family="sans-serif" font-size="14" lengthAdjust="spacing" textLength="28" x="18.85" y="275.3496">Tom</text><text fill="#4682B4" font-family="sans-serif" font-size="14" lengthAdjust="spacing" textLength="3.8896" x="46.85" y="275.3496">&#160;</text><text fill="#4682B4" font-family="sans-serif" font-size="14" lengthAdjust="spacing" textLength="39.6826" x="50.7396" y="275.3496">Sawer</text></g><!--entity huck--><g class="entity" data-entity="huck" data-source-line="17" data-uid="ent0006" id="entity_huck"><ellipse cx="273.6647" cy="193.9322" fill="#228B22" filter="url(#f1lzyo2ucy0012)" rx="8" ry="8" style="stroke:#A80036;stroke-width:2;"/><path d="M273.6647,201.9322 L273.6647,228.9322 M260.6647,209.9322 L286.6647,209.9322 M273.6647,228.9322 L260.6647,243.9322 M273.6647,228.9322 L286.6647,243.9322" fill="none" filter="url(#f1lzyo2ucy0012)" style="stroke:#A80036;stroke-width:2;"/><text fill="#4682B4" font-family="sans-serif" font-size="14" lengthAdjust="spacing" textLength="74.6895" x="236.32" y="266.0396">Huckleberry</text><text fill="#4682B4" font-family="sans-serif" font-size="14" lengthAdjust="spacing" textLength="27.2344" x="260.0475" y="284.6607">Finn</text></g><!--entity sadie--><g class="entity" data-entity="sadie" data-source-line="21" data-uid="ent0008" id="entity_sadie"><ellipse cx="813.3333" cy="331.2422" fill="#B8860B" filter="url(#f1lzyo2ucy0012)" rx="8" ry="8" style="stroke:#A80036;stroke-width:2;"/><path d="M813.3333,339.2422 L813.3333,366.2422 M800.3333,347.2422 L826.3333,347.2422 M813.3333,366.2422 L800.3333,381.2422 M813.3333,366.2422 L826.3333,381.2422" fill="none" filter="url(#f1lzyo2ucy0012)" style="stroke:#A80036;stroke-width:2;"/><text fill="#4682B4" font-family="sans-serif" font-size="14" lengthAdjust="spacing" textLength="35.8066" x="795.43" y="403.3496">Sadie</text></g><!--entity family--><g class="entity" data-entity="family" data-source-line="23" data-uid="ent0009" id="entity_family"><ellipse cx="620.7085" cy="425.0482" fill="#FFE0E0" rx="50.8285" ry="27.776" style="stroke:#A80036;stroke-width:1;"/><text fill="#4682B4" font-family="sans-serif" font-size="14" font-style="italic" lengthAdjust="spacing" textLength="51.3789" x="595.019" y="419.2705">&#171;group&#187;</text><text fill="#4682B4" font-family="sans-serif" font-size="14" lengthAdjust="spacing" textLength="31.4453" x="584.7617" y="437.8916">Jim's</text><text fill="#4682B4" font-family="sans-serif" font-size="14" lengthAdjust="spacing" textLength="3.8896" x="616.207" y="437.8916">&#160;</text><text fill="#4682B4" font-family="sans-serif" font-size="14" lengthAdjust="spacing" textLength="36.5586" x="620.0967" y="437.8916">family</text></g><!--entity lizzie--><g class="entity" data-entity="lizzie" data-source-line="28" data-uid="ent0012" id="entity_lizzie"><ellipse cx="813.3364" cy="452.2422" fill="#FEFECE" filter="url(#f1lzyo2ucy0012)" rx="8" ry="8" style="stroke:#A80036;stroke-width:2;"/><path d="M813.3364,460.2422 L813.3364,487.2422 M800.3364,468.2422 L826.3364,468.2422 M813.3364,487.2422 L800.3364,502.2422 M813.3364,487.2422 L826.3364,502.2422" fill="none" filter="url(#f1lzyo2ucy0012)" style="stroke:#A80036;stroke-width:2;"/><text fill="#4682B4" font-family="sans-serif" font-size="14" lengthAdjust="spacing" textLength="57.5928" x="784.54" y="524.3496">Elizabeth</text></g><!--entity judge--><g class="entity" data-entity="judge" data-source-line="32" data-uid="ent0014" id="entity_judge"><ellipse cx="54.6411" cy="82.2422" fill="#228B22" filter="url(#f1lzyo2ucy0012)" rx="8" ry="8" style="stroke:#A80036;stroke-width:2;"/><path d="M54.6411,90.2422 L54.6411,117.2422 M41.6411,98.2422 L67.6411,98.2422 M54.6411,117.2422 L41.6411,132.2422 M54.6411,117.2422 L67.6411,132.2422" fill="none" filter="url(#f1lzyo2ucy0012)" style="stroke:#A80036;stroke-width:2;"/><text fill="#4682B4" font-family="sans-serif" font-size="14" lengthAdjust="spacing" textLength="38.1445" x="6" y="154.3496">Judge</text><text fill="#4682B4" font-family="sans-serif" font-size="14" lengthAdjust="spacing" textLength="3.8896" x="44.1445" y="154.3496">&#160;</text><text fill="#4682B4" font-family="sans-serif" font-size="14" lengthAdjust="spacing" textLength="55.248" x="48.0342" y="154.3496">Thatcher</text></g><!--entity albert--><g class="entity" data-entity="albert" data-source-line="34" data-uid="ent0015" id="entity_albert"><ellipse cx="54.6361" cy="324.2422" fill="#228B22" filter="url(#f1lzyo2ucy0012)" rx="8" ry="8" style="stroke:#A80036;stroke-width:2;"/><path d="M54.6361,332.2422 L54.6361,359.2422 M41.6361,340.2422 L67.6361,340.2422 M54.6361,359.2422 L41.6361,374.2422 M54.6361,359.2422 L67.6361,374.2422" fill="none" filter="url(#f1lzyo2ucy0012)" style="stroke:#A80036;stroke-width:2;"/><text fill="#4682B4" font-family="sans-serif" font-size="14" lengthAdjust="spacing" textLength="36.5723" x="36.35" y="396.3496">Albert</text></g><!--entity fire--><g class="entity" data-entity="fire" data-source-line="37" data-uid="ent0016" id="entity_fire"><ellipse cx="273.6595" cy="478.055" fill="#C9FFC9" rx="51.3795" ry="27.6329" style="stroke:#A80036;stroke-width:1;"/><text fill="#4682B4" font-family="sans-serif" font-size="14" font-style="italic" lengthAdjust="spacing" textLength="49.8203" x="248.7494" y="472.0595">&#171;event&#187;</text><text fill="#4682B4" font-family="sans-serif" font-size="14" lengthAdjust="spacing" textLength="24.1104" x="237.0872" y="490.6806">Fire</text><text fill="#4682B4" font-family="sans-serif" font-size="14" lengthAdjust="spacing" textLength="3.8896" x="261.1976" y="490.6806">&#160;</text><text fill="#4682B4" font-family="sans-serif" font-size="14" lengthAdjust="spacing" textLength="45.1445" x="265.0872" y="490.6806">outside</text></g><!--entity doris--><g class="entity" data-entity="doris" data-source-line="43" data-uid="ent0019" id="entity_doris"><ellipse cx="54.6445" cy="445.2422" fill="#228B22" filter="url(#f1lzyo2ucy0012)" rx="8" ry="8" style="stroke:#A80036;stroke-width:2;"/><path d="M54.6445,453.2422 L54.6445,480.2422 M41.6445,461.2422 L67.6445,461.2422 M54.6445,480.2422 L41.6445,495.2422 M54.6445,480.2422 L67.6445,495.2422" fill="none" filter="url(#f1lzyo2ucy0012)" style="stroke:#A80036;stroke-width:2;"/><text fill="#4682B4" font-family="sans-serif" font-size="14" lengthAdjust="spacing" textLength="32.6689" x="38.31" y="517.3496">Doris</text></g><!--entity luke--><g class="entity" data-entity="luke" data-source-line="47" data-uid="ent0021" id="entity_luke"><ellipse cx="54.6371" cy="566.2422" fill="#228B22" filter="url(#f1lzyo2ucy0012)" rx="8" ry="8" style="stroke:#A80036;stroke-width:2;"/><path d="M54.6371,574.2422 L54.6371,601.2422 M41.6371,582.2422 L67.6371,582.2422 M54.6371,601.2422 L41.6371,616.2422 M54.6371,601.2422 L67.6371,616.2422" fill="none" filter="url(#f1lzyo2ucy0012)" style="stroke:#A80036;stroke-width:2;"/><text fill="#4682B4" font-family="sans-serif" font-size="14" lengthAdjust="spacing" textLength="21.7861" x="26.62" y="638.3496">Old</text><text fill="#4682B4" font-family="sans-serif" font-size="14" lengthAdjust="spacing" textLength="3.8896" x="48.4061" y="638.3496">&#160;</text><text fill="#4682B4" font-family="sans-serif" font-size="14" lengthAdjust="spacing" textLength="30.3584" x="52.2958" y="638.3496">Luke</text></g><!--link owner to jim--><g class="link" data-entity-1="owner" data-entity-2="jim" data-source-line="14" data-uid="lnk4" id="link_owner_jim"><path d="M313.99,383.8222 C345.37,392.4222 383.4831,402.8674 415.7631,411.7074" fill="none" id="owner-to-jim" style="stroke:#A80036;stroke-width:1;"/><polygon fill="#A80036" points="421.55,413.2922,413.9261,407.0571,416.7276,411.9715,411.8131,414.773,421.55,413.2922" style="stroke:#A80036;stroke-width:1;"/><text fill="#4682B4" font-family="sans-serif" font-size="13" lengthAdjust="spacing" textLength="35.4072" x="356.04" y="391.9705">owner</text></g><!--link tom to huck--><g class="link" data-entity-1="tom" data-entity-2="huck" data-source-line="19" data-uid="lnk7" id="link_tom_huck"><path d="M96.51,236.0522 C136.41,236.0522 189.46,236.0522 230.07,236.0522" fill="none" id="tom-huck" style="stroke:#A80036;stroke-width:1;"/><polygon fill="#A80036" points="90.51,236.0522,99.51,240.0522,95.51,236.0522,99.51,232.0522,90.51,236.0522" style="stroke:#A80036;stroke-width:1;"/><polygon fill="#A80036" points="236.07,236.0522,227.07,232.0522,231.07,236.0522,227.07,240.0522,236.07,236.0522" style="stroke:#A80036;stroke-width:1;"/><text fill="#4682B4" font-family="sans-serif" font-size="13" lengthAdjust="spacing" textLength="39.019" x="143.28" y="232.0805">friends</text></g><!--link jim to family--><g class="link" data-entity-1="jim" data-entity-2="family" data-source-line="25" data-uid="lnk10" id="link_jim_family"><path d="M509.15,425.0522 C527.93,425.0522 550.11,425.0522 569.66,425.0522" fill="none" id="jim-family" style="stroke:#A80036;stroke-width:1;"/></g><!--link family to sadie--><g class="link" data-entity-1="family" data-entity-2="sadie" data-source-line="26" data-uid="lnk11" id="link_family_sadie"><path d="M664.97,411.2122 C706.05,398.0622 765.75,378.9622 794.94,369.6222" fill="none" id="family-sadie" style="stroke:#A80036;stroke-width:1;"/><text fill="#4682B4" font-family="sans-serif" font-size="13" lengthAdjust="spacing" textLength="23.1182" x="716.54" y="379.8105">wife</text></g><!--link family to lizzie--><g class="link" data-entity-1="family" data-entity-2="lizzie" data-source-line="30" data-uid="lnk13" id="link_family_lizzie"><path d="M665.44,438.8122 C701.94,450.3022 752.87,466.3322 784.17,476.1822" fill="none" id="family-lizzie" style="stroke:#A80036;stroke-width:1;"/><text fill="#4682B4" font-family="sans-serif" font-size="13" lengthAdjust="spacing" textLength="51.3208" x="702.54" y="447.4905">daughter</text></g><!--link fire to jim--><g class="link" data-entity-1="fire" data-entity-2="jim" data-source-line="39" data-uid="lnk17" id="link_fire_jim"><path d="M319.64,465.4922 C350.56,456.8622 391.35,445.4722 421.76,436.9722" fill="none" id="fire-jim" style="stroke:#A80036;stroke-width:1;"/></g><!--link albert to fire--><g class="link" data-entity-1="albert" data-entity-2="fire" data-source-line="41" data-uid="lnk18" id="link_albert_fire"><path d="M73.4,366.9522 C109.14,386.8822 190.31,432.1422 237.29,458.3322" fill="none" id="albert-fire" style="stroke:#A80036;stroke-width:1;"/><text fill="#4682B4" font-family="sans-serif" font-size="13" lengthAdjust="spacing" textLength="33.9663" x="134.28" y="399.1805">called</text><text fill="#4682B4" font-family="sans-serif" font-size="13" lengthAdjust="spacing" textLength="3.6118" x="168.2463" y="399.1805">&#160;</text><text fill="#4682B4" font-family="sans-serif" font-size="13" lengthAdjust="spacing" textLength="20.2173" x="171.8581" y="399.1805">Jim</text></g><!--link doris to fire--><g class="link" data-entity-1="doris" data-entity-2="fire" data-source-line="45" data-uid="lnk20" id="link_doris_fire"><path d="M71.25,478.0522 C102.35,478.0522 173.25,478.0522 222.05,478.0522" fill="none" id="doris-fire" style="stroke:#A80036;stroke-width:1;"/></g><!--link luke to fire--><g class="link" data-entity-1="luke" data-entity-2="fire" data-source-line="49" data-uid="lnk22" id="link_luke_fire"><path d="M83.13,583.7222 C122.25,561.9122 194.02,521.9022 237.13,497.8622" fill="none" id="luke-fire" style="stroke:#A80036;stroke-width:1;"/></g><g class="legend"><rect fill="none" height="30.6211" rx="7.5" ry="7.5" style="stroke:#000000;stroke-width:1;" width="118.6064" x="358.2632" y="653.8496"/><text fill="#4682B4" font-family="sans-serif" font-size="14" lengthAdjust="spacing" textLength="106.6064" x="364.2632" y="674.957">2.2% (Chapter 1)</text></g><!--SRC=[HLB1Rjim3BthAzWYmzA3Owox2Pw1OLin11ise0Ls71YRjjJ8KY3H2zAl7oKxo8ryx_6HJ_RT9l75qMza0v_WtZ2VagxhYEVTQDdCXpbHx89dyhphmbG7HyUFzScXvtbobVMTctjATQGXrOQmJ_M4rjTMs7jrj_9mMoDAxAqVTrcX55js17kSAAayE4GfeJCOiMEAIJaQoVUWuN7t-0wsNmoU18SF3qefNUOqO89NEm4qZSSOaKDiMzXCwEZlAGR6CNYRMFG_RKhm1pa5NwR2sOlNPg2iLMffgwg5ugSNNkPUmWJFUAPOfbYwugxqzxaxEZfGZ1TuidvnDGAk0fMrJNOie8OXMecJnFDPde6AFkNgTiLsRwVt2GQShBiyPC5IIhmnXldKjahbywfg9TJA2x1OQJZRGPpqDsVVy41ioXvftgp0D_c2YBx7UJHSikxdVYHuCSYTMGE_5cXDf3yxoSk5m59U6RLzif4Wp9niJylb6MWQ-YV_JxwxzB9OxbTgdSuvCgoXG-UeXtqczTSGxV9j-rnTbopDEYEoNww77_DnUKadnLLOwgktKly1]--></g></svg>