<svg xmlns="http://www.w3.org/2000/svg" xmlns:xlink="http://www.w3.org/1999/xlink" contentStyleType="text/css" data-diagram-type="DESCRIPTION" height="714px" preserveAspectRatio="none" style="width:858px;height:714px;" version="1.1" viewBox="0 0 858 714" width="858px" zoomAndPan="magnify"><title>James</title><defs><filter height="300%" id="f146or0i8fgp7p" width="300%" x="-1" y="-1"><feGaussianBlur result="blurOut" stdDeviation="2"/><feColorMatrix in="blurOut" result="blurOut2" type="matrix" values="0 0 0 0 0 0 0 0 0 0 0 0 0 0 0 0 0 0 .4 0"/><feOffset dx="4" dy="4" in="blurOut2" result="blurOut3"/><feBlend in="SourceGraphic" in2="blurOut3" mode="normal"/></filter></defs><g><g class="title" data-source-line="5"><text fill="#4682B4" font-family="sans-serif" font-size="14" font-weight="bold" lengthAdjust="spacing" textLength="43.5928" x="397.77" y="25.1074">James</text></g><rect fill="none" height="637.2296" style="stroke:#A80036;stroke-width:1;" width="852.1328" x="0" y="39.6211"/><path d="M75.3584,39.6211 L75.3584,51.2422 L65.3584,61.2422 L0,61.2422" fill="none" style="stroke:#A80036;stroke-width:1;"/><text fill="#4682B4" font-family="sans-serif" font-size="14" lengthAdjust="spacing" textLength="65.3584" x="3" y="55.7285">characters</text><!--entity jim--><g class="entity" data-entity="jim" data-source-line="10" data-uid="ent0002" id="entity_jim"><ellipse cx="469.4604" cy="351.8644" fill="#00FF00" filter="url(#f146or0i8fgp7p)" rx="8" ry="8" style="stroke:#A80036;stroke-width:2;"/><path d="M469.4604,359.8644 L469.4604,386.8644 M456.4604,367.8644 L482.4604,367.8644 M469.4604,386.8644 L456.4604,401.8644 M469.4604,386.8644 L482.4604,401.8644" fill="none" filter="url(#f146or0i8fgp7p)" style="stroke:#A80036;stroke-width:2;"/><text fill="#4682B4" font-family="sans-serif" font-size="14" lengthAdjust="spacing" textLength="41.2344" x="448.8432" y="423.9718">James</text><text fill="#4682B4" font-family="sans-serif" font-size="14" font-style="italic" lengthAdjust="spacing" textLength="64.5928" x="437.164" y="319.7296">&#171;narrator&#187;</text><text fill="#4682B4" font-family="sans-serif" font-size="14" font-style="italic" lengthAdjust="spacing" textLength="84.8408" x="427.04" y="338.3507">&#171;protagonist&#187;</text></g><!--entity owner--><g class="entity" data-entity="owner" data-source-line="12" data-uid="ent0003" id="entity_owner"><ellipse cx="273.662" cy="333.2422" fill="#B8860B" filter="url(#f146or0i8fgp7p)" rx="8" ry="8" style="stroke:#A80036;stroke-width:2;"/><path d="M273.662,341.2422 L273.662,368.2422 M260.662,349.2422 L286.662,349.2422 M273.662,368.2422 L260.662,383.2422 M273.662,368.2422 L286.662,383.2422" fill="none" filter="url(#f146or0i8fgp7p)" style="stroke:#A80036;stroke-width:2;"/><text fill="#4682B4" font-family="sans-serif" font-size="14" lengthAdjust="spacing" textLength="28.7725" x="233.6" y="405.3496">Miss</text><text fill="#4682B4" font-family="sans-serif" font-size="14" lengthAdjust="spacing" textLength="3.8896" x="262.3725" y="405.3496">&#160;</text><text fill="#4682B4" font-family="sans-serif" font-size="14" lengthAdjust="spacing" textLength="47.4619" x="266.2621" y="405.3496">Watson</text></g><!--entity tom--><g class="entity" data-entity="tom" data-source-line="16" data-uid="ent0005" id="entity_tom"><ellipse cx="54.6361" cy="203.2422" fill="#228B22" filter="url(#f146or0i8fgp7p)" rx="8" ry="8" style="stroke:#A80036;stroke-width:2;"/><path d="M54.6361,211.2422 L54.6361,238.2422 M41.6361,219.2422 L67.6361,219.2422 M54.6361,238.2422 L41.6361,253.2422 M54.6361,238.2422 L67.6361,253.2422" fill="none" filter="url(#f146or0i8fgp7p)" style="stroke:#A80036;stroke-width:2;"/><text fill="#4682B4" font-family="sans-serif" font-size="14" lengthAdjust="spacing" textLength="28" x="15.35" y="275.3496">Tom</text><text fill="#4682B4" font-family="sans-serif" font-size="14" lengthAdjust="spacing" textLength="3.8896" x="43.35" y="275.3496">&#160;</text><text fill="#4682B4" font-family="sans-serif" font-size="14" lengthAdjust="spacing" textLength="46.6826" x="47.2396" y="275.3496">Sawyer</text></g><!--entity huck--><g class="entity" data-entity="huck" data-source-line="17" data-uid="ent0006" id="entity_huck"><ellipse cx="273.6647" cy="193.9322" fill="#228B22" filter="url(#f146or0i8fgp7p)" rx="8" ry="8" style="stroke:#A80036;stroke-width:2;"/><path d="M273.6647,201.9322 L273.6647,228.9322 M260.6647,209.9322 L286.6647,209.9322 M273.6647,228.9322 L260.6647,243.9322 M273.6647,228.9322 L286.6647,243.9322" fill="none" filter="url(#f146or0i8fgp7p)" style="stroke:#A80036;stroke-width:2;"/><text fill="#4682B4" font-family="sans-serif" font-size="14" lengthAdjust="spacing" textLength="74.6895" x="236.32" y="266.0396">Huckleberry</text><text fill="#4682B4" font-family="sans-serif" font-size="14" lengthAdjust="spacing" textLength="27.2344" x="260.0475" y="284.6607">Finn</text></g><!--entity sadie--><g class="entity" data-entity="sadie" data-source-line="21" data-uid="ent0008" id="entity_sadie"><ellipse cx="817.3333" cy="272.2422" fill="#B8860B" filter="url(#f146or0i8fgp7p)" rx="8" ry="8" style="stroke:#A80036;stroke-width:2;"/><path d="M817.3333,280.2422 L817.3333,307.2422 M804.3333,288.2422 L830.3333,288.2422 M817.3333,307.2422 L804.3333,322.2422 M817.3333,307.2422 L830.3333,322.2422" fill="none" filter="url(#f146or0i8fgp7p)" style="stroke:#A80036;stroke-width:2;"/><text fill="#4682B4" font-family="sans-serif" font-size="14" lengthAdjust="spacing" textLength="35.8066" x="799.43" y="344.3496">Sadie</text></g><!--entity family--><g class="entity" data-entity="family" data-source-line="23" data-uid="ent0009" id="entity_family"><ellipse cx="624.7085" cy="366.0482" fill="#FFE0E0" rx="50.8285" ry="27.776" style="stroke:#A80036;stroke-width:1;"/><text fill="#4682B4" font-family="sans-serif" font-size="14" font-style="italic" lengthAdjust="spacing" textLength="51.3789" x="599.019" y="360.2705">&#171;group&#187;</text><text fill="#4682B4" font-family="sans-serif" font-size="14" lengthAdjust="spacing" textLength="31.4453" x="588.7617" y="378.8916">Jim's</text><text fill="#4682B4" font-family="sans-serif" font-size="14" lengthAdjust="spacing" textLength="3.8896" x="620.207" y="378.8916">&#160;</text><text fill="#4682B4" font-family="sans-serif" font-size="14" lengthAdjust="spacing" textLength="36.5586" x="624.0967" y="378.8916">family</text></g><!--entity lizzie--><g class="entity" data-entity="lizzie" data-source-line="28" data-uid="ent0012" id="entity_lizzie"><ellipse cx="817.3364" cy="393.2422" fill="#FEFECE" filter="url(#f146or0i8fgp7p)" rx="8" ry="8" style="stroke:#A80036;stroke-width:2;"/><path d="M817.3364,401.2422 L817.3364,428.2422 M804.3364,409.2422 L830.3364,409.2422 M817.3364,428.2422 L804.3364,443.2422 M817.3364,428.2422 L830.3364,443.2422" fill="none" filter="url(#f146or0i8fgp7p)" style="stroke:#A80036;stroke-width:2;"/><text fill="#4682B4" font-family="sans-serif" font-size="14" lengthAdjust="spacing" textLength="57.5928" x="788.54" y="465.3496">Elizabeth</text></g><!--entity judge--><g class="entity" data-entity="judge" data-source-line="32" data-uid="ent0014" id="entity_judge"><ellipse cx="54.6411" cy="82.2422" fill="#228B22" filter="url(#f146or0i8fgp7p)" rx="8" ry="8" style="stroke:#A80036;stroke-width:2;"/><path d="M54.6411,90.2422 L54.6411,117.2422 M41.6411,98.2422 L67.6411,98.2422 M54.6411,117.2422 L41.6411,132.2422 M54.6411,117.2422 L67.6411,132.2422" fill="none" filter="url(#f146or0i8fgp7p)" style="stroke:#A80036;stroke-width:2;"/><text fill="#4682B4" font-family="sans-serif" font-size="14" lengthAdjust="spacing" textLength="38.1445" x="6" y="154.3496">Judge</text><text fill="#4682B4" font-family="sans-serif" font-size="14" lengthAdjust="spacing" textLength="3.8896" x="44.1445" y="154.3496">&#160;</text><text fill="#4682B4" font-family="sans-serif" font-size="14" lengthAdjust="spacing" textLength="55.248" x="48.0342" y="154.3496">Thatcher</text></g><!--entity albert--><g class="entity" data-entity="albert" data-source-line="34" data-uid="ent0015" id="entity_albert"><ellipse cx="54.6361" cy="338.2422" fill="#228B22" filter="url(#f146or0i8fgp7p)" rx="8" ry="8" style="stroke:#A80036;stroke-width:2;"/><path d="M54.6361,346.2422 L54.6361,373.2422 M41.6361,354.2422 L67.6361,354.2422 M54.6361,373.2422 L41.6361,388.2422 M54.6361,373.2422 L67.6361,388.2422" fill="none" filter="url(#f146or0i8fgp7p)" style="stroke:#A80036;stroke-width:2;"/><text fill="#4682B4" font-family="sans-serif" font-size="14" lengthAdjust="spacing" textLength="36.5723" x="36.35" y="410.3496">Albert</text></g><!--entity fire--><g class="entity" data-entity="fire" data-source-line="37" data-uid="ent0016" id="entity_fire"><ellipse cx="273.6595" cy="492.055" fill="#C9FFC9" rx="51.3795" ry="27.6329" style="stroke:#A80036;stroke-width:1;"/><text fill="#4682B4" font-family="sans-serif" font-size="14" font-style="italic" lengthAdjust="spacing" textLength="49.8203" x="248.7494" y="486.0595">&#171;event&#187;</text><text fill="#4682B4" font-family="sans-serif" font-size="14" lengthAdjust="spacing" textLength="24.1104" x="237.0872" y="504.6806">Fire</text><text fill="#4682B4" font-family="sans-serif" font-size="14" lengthAdjust="spacing" textLength="3.8896" x="261.1976" y="504.6806">&#160;</text><text fill="#4682B4" font-family="sans-serif" font-size="14" lengthAdjust="spacing" textLength="45.1445" x="265.0872" y="504.6806">outside</text></g><!--entity doris--><g class="entity" data-entity="doris" data-source-line="43" data-uid="ent0019" id="entity_doris"><ellipse cx="54.6445" cy="459.2422" fill="#228B22" filter="url(#f146or0i8fgp7p)" rx="8" ry="8" style="stroke:#A80036;stroke-width:2;"/><path d="M54.6445,467.2422 L54.6445,494.2422 M41.6445,475.2422 L67.6445,475.2422 M54.6445,494.2422 L41.6445,509.2422 M54.6445,494.2422 L67.6445,509.2422" fill="none" filter="url(#f146or0i8fgp7p)" style="stroke:#A80036;stroke-width:2;"/><text fill="#4682B4" font-family="sans-serif" font-size="14" lengthAdjust="spacing" textLength="32.6689" x="38.31" y="531.3496">Doris</text></g><!--entity luke--><g class="entity" data-entity="luke" data-source-line="47" data-uid="ent0021" id="entity_luke"><ellipse cx="54.6371" cy="580.2422" fill="#228B22" filter="url(#f146or0i8fgp7p)" rx="8" ry="8" style="stroke:#A80036;stroke-width:2;"/><path d="M54.6371,588.2422 L54.6371,615.2422 M41.6371,596.2422 L67.6371,596.2422 M54.6371,615.2422 L41.6371,630.2422 M54.6371,615.2422 L67.6371,630.2422" fill="none" filter="url(#f146or0i8fgp7p)" style="stroke:#A80036;stroke-width:2;"/><text fill="#4682B4" font-family="sans-serif" font-size="14" lengthAdjust="spacing" textLength="21.7861" x="26.62" y="652.3496">Old</text><text fill="#4682B4" font-family="sans-serif" font-size="14" lengthAdjust="spacing" textLength="3.8896" x="48.4061" y="652.3496">&#160;</text><text fill="#4682B4" font-family="sans-serif" font-size="14" lengthAdjust="spacing" textLength="30.3584" x="52.2958" y="652.3496">Luke</text></g><!--entity skinny--><g class="entity" data-entity="skinny" data-source-line="51" data-uid="ent0023" id="entity_skinny"><ellipse cx="469.4603" cy="472.2422" fill="#228B22" filter="url(#f146or0i8fgp7p)" rx="8" ry="8" style="stroke:#A80036;stroke-width:2;"/><path d="M469.4603,480.2422 L469.4603,507.2422 M456.4603,488.2422 L482.4603,488.2422 M469.4603,507.2422 L456.4603,522.2422 M469.4603,507.2422 L482.4603,522.2422" fill="none" filter="url(#f146or0i8fgp7p)" style="stroke:#A80036;stroke-width:2;"/><text fill="#4682B4" font-family="sans-serif" font-size="14" lengthAdjust="spacing" textLength="42.0205" x="448.45" y="544.3496">Skinny</text></g><!--link owner to jim--><g class="link" data-entity-1="owner" data-entity-2="jim" data-source-line="14" data-uid="lnk4" id="link_owner_jim"><path d="M313.88,366.0522 C346.29,366.0522 386.23,366.0522 419.6,366.0522" fill="none" id="owner-to-jim" style="stroke:#A80036;stroke-width:1;"/><polygon fill="#A80036" points="425.6,366.0522,416.6,362.0522,420.6,366.0522,416.6,370.0522,425.6,366.0522" style="stroke:#A80036;stroke-width:1;"/><text fill="#4682B4" font-family="sans-serif" font-size="13" lengthAdjust="spacing" textLength="39.73" x="356.04" y="362.0805">master</text></g><!--link tom to huck--><g class="link" data-entity-1="tom" data-entity-2="huck" data-source-line="19" data-uid="lnk7" id="link_tom_huck"><path d="M99.94,236.0522 C139.97,236.0522 190.35,236.0522 229.83,236.0522" fill="none" id="tom-huck" style="stroke:#A80036;stroke-width:1;"/><polygon fill="#A80036" points="93.94,236.0522,102.94,240.0522,98.94,236.0522,102.94,232.0522,93.94,236.0522" style="stroke:#A80036;stroke-width:1;"/><polygon fill="#A80036" points="235.83,236.0522,226.83,232.0522,230.83,236.0522,226.83,240.0522,235.83,236.0522" style="stroke:#A80036;stroke-width:1;"/><text fill="#4682B4" font-family="sans-serif" font-size="13" lengthAdjust="spacing" textLength="39.019" x="143.28" y="232.0805">friends</text></g><!--link jim to family--><g class="link" data-entity-1="jim" data-entity-2="family" data-source-line="25" data-uid="lnk10" id="link_jim_family"><path d="M513.15,366.0522 C531.93,366.0522 554.11,366.0522 573.66,366.0522" fill="none" id="jim-family" style="stroke:#A80036;stroke-width:1;"/></g><!--link family to sadie--><g class="link" data-entity-1="family" data-entity-2="sadie" data-source-line="26" data-uid="lnk11" id="link_family_sadie"><path d="M668.97,352.2122 C710.05,339.0622 769.75,319.9622 798.94,310.6222" fill="none" id="family-sadie" style="stroke:#A80036;stroke-width:1;"/><text fill="#4682B4" font-family="sans-serif" font-size="13" lengthAdjust="spacing" textLength="23.1182" x="720.54" y="320.8105">wife</text></g><!--link family to lizzie--><g class="link" data-entity-1="family" data-entity-2="lizzie" data-source-line="30" data-uid="lnk13" id="link_family_lizzie"><path d="M669.44,379.8122 C705.94,391.3022 756.87,407.3322 788.17,417.1822" fill="none" id="family-lizzie" style="stroke:#A80036;stroke-width:1;"/><text fill="#4682B4" font-family="sans-serif" font-size="13" lengthAdjust="spacing" textLength="51.3208" x="706.54" y="388.4905">daughter</text></g><!--link fire to jim--><g class="link" data-entity-1="fire" data-entity-2="jim" data-source-line="39" data-uid="lnk17" id="link_fire_jim"><path d="M307.1,470.9622 C339.64,449.8022 389.93,417.1022 425.72,393.8422" fill="none" id="fire-jim" style="stroke:#A80036;stroke-width:1;"/></g><!--link albert to fire--><g class="link" data-entity-1="albert" data-entity-2="fire" data-source-line="41" data-uid="lnk18" id="link_albert_fire"><path d="M73.4,380.9522 C109.14,400.8822 190.31,446.1422 237.29,472.3322" fill="none" id="albert-fire" style="stroke:#A80036;stroke-width:1;"/><text fill="#4682B4" font-family="sans-serif" font-size="13" lengthAdjust="spacing" textLength="33.9663" x="134.28" y="413.1805">called</text><text fill="#4682B4" font-family="sans-serif" font-size="13" lengthAdjust="spacing" textLength="3.6118" x="168.2463" y="413.1805">&#160;</text><text fill="#4682B4" font-family="sans-serif" font-size="13" lengthAdjust="spacing" textLength="20.2173" x="171.8581" y="413.1805">Jim</text></g><!--link doris to fire--><g class="link" data-entity-1="doris" data-entity-2="fire" data-source-line="45" data-uid="lnk20" id="link_doris_fire"><path d="M71.25,492.0522 C102.35,492.0522 173.25,492.0522 222.05,492.0522" fill="none" id="doris-fire" style="stroke:#A80036;stroke-width:1;"/></g><!--link luke to fire--><g class="link" data-entity-1="luke" data-entity-2="fire" data-source-line="49" data-uid="lnk22" id="link_luke_fire"><path d="M83.13,597.7222 C122.25,575.9122 194.02,535.9022 237.13,511.8622" fill="none" id="luke-fire" style="stroke:#A80036;stroke-width:1;"/></g><!--link fire to skinny--><g class="link" data-entity-1="fire" data-entity-2="skinny" data-source-line="52" data-uid="lnk24" id="link_fire_skinny"><path d="M325.07,495.4322 C365.23,498.1222 419.33,501.7522 448.25,503.6922" fill="none" id="fire-skinny" style="stroke:#A80036;stroke-width:1;"/></g><g class="legend"><rect fill="none" height="30.6211" rx="7.5" ry="7.5" style="stroke:#000000;stroke-width:1;" width="118.6064" x="360.2632" y="667.8496"/><text fill="#4682B4" font-family="sans-serif" font-size="14" lengthAdjust="spacing" textLength="106.6064" x="366.2632" y="688.957">2.2% (Chapter 1)</text></g><!--SRC=[HLB1Rjim3BthAzWYmzA3Owox2Pw1eLqn11is80Ls71YRjjJ8aY792zAl7oKvoEtnlST7KlRT9iIBeTyO5No1UnNZ76HTUpplHXtLSbm2-SxPI3RkEZVLpj3fSpqRj76PJALjPvQUGkrf2BKYx4CzeRQrPlLUtAqwtCQm4tjjnrro215rD0Hxd2Y8r3XuXj0fzDX5ya4O6ids8E5nz_W1jayAP-RXquCGGkO-2HZWJKy0JMFHUupEjori9ZJqT_OkukYi3f7zFtK8y0TZS3PtkRFbhCr0oIj4AQkgXPmdOSB0mxZnrKrmmFE5VEwBNEPy8RyltSdGaRo_m8ks9LSnkHf4yZOfCvCI1g_veC2X1tu8olwGq6sFxLvF7mCCE6bpUKY60ld0qRjbRbiXqe9LjGfYrPaeKHBEUk0a-SteTpnIL7aE5- -QwPkzCEplSHbLENQ_z2F1gyBOgVNWjqoj5yclXk-DMS0ChuhOlcXFu9OOT4zbyqGq3VtZFoZjdMiUpFiBiNQdEn8jeKDZg8Tz4kMpyxfytJwXwv1Ih3ri-sLw-B6SoaiQ1bTZnZVVuSIVvrBUEyFLTzsea4By1m00]--></g></svg>