<svg xmlns="http://www.w3.org/2000/svg" xmlns:xlink="http://www.w3.org/1999/xlink" contentStyleType="text/css" data-diagram-type="DESCRIPTION" height="1203px" preserveAspectRatio="none" style="width:1272px;height:1203px;" version="1.1" viewBox="0 0 1272 1203" width="1272px" zoomAndPan="magnify"><title>James</title><defs><filter height="300%" id="f1aoi3qajb2vub" width="300%" x="-1" y="-1"><feGaussianBlur result="blurOut" stdDeviation="2"/><feColorMatrix in="blurOut" result="blurOut2" type="matrix" values="0 0 0 0 0 0 0 0 0 0 0 0 0 0 0 0 0 0 .4 0"/><feOffset dx="4" dy="4" in="blurOut2" result="blurOut3"/><feBlend in="SourceGraphic" in2="blurOut3" mode="normal"/></filter></defs><g><g class="title" data-source-line="5"><text fill="#4682B4" font-family="sans-serif" font-size="14" font-weight="bold" lengthAdjust="spacing" textLength="43.5928" x="604.7849" y="25.1074">James</text></g><rect fill="none" height="1126.2296" style="stroke:#A80036;stroke-width:1;" width="1266.1626" x="0" y="39.6211"/><path d="M75.3584,39.6211 L75.3584,51.2422 L65.3584,61.2422 L0,61.2422" fill="none" style="stroke:#A80036;stroke-width:1;"/><text fill="#4682B4" font-family="sans-serif" font-size="14" lengthAdjust="spacing" textLength="65.3584" x="3" y="55.7285">characters</text><!--entity jim--><g class="entity" data-entity="jim" data-source-line="10" data-uid="ent0002" id="entity_jim"><ellipse cx="488.4604" cy="725.8644" fill="#00FF00" filter="url(#f1aoi3qajb2vub)" rx="8" ry="8" style="stroke:#A80036;stroke-width:2;"/><path d="M488.4604,733.8644 L488.4604,760.8644 M475.4604,741.8644 L501.4604,741.8644 M488.4604,760.8644 L475.4604,775.8644 M488.4604,760.8644 L501.4604,775.8644" fill="none" filter="url(#f1aoi3qajb2vub)" style="stroke:#A80036;stroke-width:2;"/><text fill="#4682B4" font-family="sans-serif" font-size="14" lengthAdjust="spacing" textLength="41.2344" x="467.8432" y="797.9718">James</text><text fill="#4682B4" font-family="sans-serif" font-size="14" font-style="italic" lengthAdjust="spacing" textLength="64.5928" x="456.164" y="693.7296">&#171;narrator&#187;</text><text fill="#4682B4" font-family="sans-serif" font-size="14" font-style="italic" lengthAdjust="spacing" textLength="84.8408" x="446.04" y="712.3507">&#171;protagonist&#187;</text></g><!--entity owner--><g class="entity" data-entity="owner" data-source-line="12" data-uid="ent0003" id="entity_owner"><ellipse cx="273.662" cy="717.2422" fill="#B8860B" filter="url(#f1aoi3qajb2vub)" rx="8" ry="8" style="stroke:#A80036;stroke-width:2;"/><path d="M273.662,725.2422 L273.662,752.2422 M260.662,733.2422 L286.662,733.2422 M273.662,752.2422 L260.662,767.2422 M273.662,752.2422 L286.662,767.2422" fill="none" filter="url(#f1aoi3qajb2vub)" style="stroke:#A80036;stroke-width:2;"/><text fill="#4682B4" font-family="sans-serif" font-size="14" lengthAdjust="spacing" textLength="28.7725" x="233.6" y="789.3496">Miss</text><text fill="#4682B4" font-family="sans-serif" font-size="14" lengthAdjust="spacing" textLength="3.8896" x="262.3725" y="789.3496">&#160;</text><text fill="#4682B4" font-family="sans-serif" font-size="14" lengthAdjust="spacing" textLength="47.4619" x="266.2621" y="789.3496">Watson</text></g><!--entity tom--><g class="entity" data-entity="tom" data-source-line="16" data-uid="ent0005" id="entity_tom"><ellipse cx="54.6361" cy="895.2422" fill="#228B22" filter="url(#f1aoi3qajb2vub)" rx="8" ry="8" style="stroke:#A80036;stroke-width:2;"/><path d="M54.6361,903.2422 L54.6361,930.2422 M41.6361,911.2422 L67.6361,911.2422 M54.6361,930.2422 L41.6361,945.2422 M54.6361,930.2422 L67.6361,945.2422" fill="none" filter="url(#f1aoi3qajb2vub)" style="stroke:#A80036;stroke-width:2;"/><text fill="#4682B4" font-family="sans-serif" font-size="14" lengthAdjust="spacing" textLength="28" x="15.35" y="967.3496">Tom</text><text fill="#4682B4" font-family="sans-serif" font-size="14" lengthAdjust="spacing" textLength="3.8896" x="43.35" y="967.3496">&#160;</text><text fill="#4682B4" font-family="sans-serif" font-size="14" lengthAdjust="spacing" textLength="46.6826" x="47.2396" y="967.3496">Sawyer</text></g><!--entity huck--><g class="entity" data-entity="huck" data-source-line="17" data-uid="ent0006" id="entity_huck"><ellipse cx="273.6647" cy="968.9322" fill="#228B22" filter="url(#f1aoi3qajb2vub)" rx="8" ry="8" style="stroke:#A80036;stroke-width:2;"/><path d="M273.6647,976.9322 L273.6647,1003.9322 M260.6647,984.9322 L286.6647,984.9322 M273.6647,1003.9322 L260.6647,1018.9322 M273.6647,1003.9322 L286.6647,1018.9322" fill="none" filter="url(#f1aoi3qajb2vub)" style="stroke:#A80036;stroke-width:2;"/><text fill="#4682B4" font-family="sans-serif" font-size="14" lengthAdjust="spacing" textLength="74.6895" x="236.32" y="1041.0396">Huckleberry</text><text fill="#4682B4" font-family="sans-serif" font-size="14" lengthAdjust="spacing" textLength="27.2344" x="260.0475" y="1059.6607">Finn</text></g><!--entity sadie--><g class="entity" data-entity="sadie" data-source-line="21" data-uid="ent0008" id="entity_sadie"><ellipse cx="970.2474" cy="585.5533" fill="#B8860B" filter="url(#f1aoi3qajb2vub)" rx="8" ry="8" style="stroke:#A80036;stroke-width:2;"/><path d="M970.2474,593.5533 L970.2474,620.5533 M957.2474,601.5533 L983.2474,601.5533 M970.2474,620.5533 L957.2474,635.5533 M970.2474,620.5533 L983.2474,635.5533" fill="none" filter="url(#f1aoi3qajb2vub)" style="stroke:#A80036;stroke-width:2;"/><text fill="#4682B4" font-family="sans-serif" font-size="14" lengthAdjust="spacing" textLength="35.8066" x="952.3441" y="657.6607">Sadie</text><text fill="#4682B4" font-family="sans-serif" font-size="14" font-style="italic" lengthAdjust="spacing" textLength="48.2549" x="946.12" y="572.0396">&#171;slave&#187;</text></g><!--entity family--><g class="entity" data-entity="family" data-source-line="23" data-uid="ent0009" id="entity_family"><ellipse cx="746.2985" cy="609.0482" fill="#FFE0E0" rx="50.8285" ry="27.776" style="stroke:#A80036;stroke-width:1;"/><text fill="#4682B4" font-family="sans-serif" font-size="14" font-style="italic" lengthAdjust="spacing" textLength="51.3789" x="720.609" y="603.2705">&#171;group&#187;</text><text fill="#4682B4" font-family="sans-serif" font-size="14" lengthAdjust="spacing" textLength="31.4453" x="710.3517" y="621.8916">Jim's</text><text fill="#4682B4" font-family="sans-serif" font-size="14" lengthAdjust="spacing" textLength="3.8896" x="741.797" y="621.8916">&#160;</text><text fill="#4682B4" font-family="sans-serif" font-size="14" lengthAdjust="spacing" textLength="36.5586" x="745.6867" y="621.8916">family</text></g><!--entity lizzie--><g class="entity" data-entity="lizzie" data-source-line="28" data-uid="ent0012" id="entity_lizzie"><ellipse cx="970.2464" cy="446.5533" fill="#B8860B" filter="url(#f1aoi3qajb2vub)" rx="8" ry="8" style="stroke:#A80036;stroke-width:2;"/><path d="M970.2464,454.5533 L970.2464,481.5533 M957.2464,462.5533 L983.2464,462.5533 M970.2464,481.5533 L957.2464,496.5533 M970.2464,481.5533 L983.2464,496.5533" fill="none" filter="url(#f1aoi3qajb2vub)" style="stroke:#A80036;stroke-width:2;"/><text fill="#4682B4" font-family="sans-serif" font-size="14" lengthAdjust="spacing" textLength="57.5928" x="941.45" y="518.6607">Elizabeth</text><text fill="#4682B4" font-family="sans-serif" font-size="14" font-style="italic" lengthAdjust="spacing" textLength="48.2549" x="946.1189" y="433.0396">&#171;slave&#187;</text></g><!--entity judge--><g class="entity" data-entity="judge" data-source-line="32" data-uid="ent0014" id="entity_judge"><ellipse cx="54.6411" cy="203.2422" fill="#228B22" filter="url(#f1aoi3qajb2vub)" rx="8" ry="8" style="stroke:#A80036;stroke-width:2;"/><path d="M54.6411,211.2422 L54.6411,238.2422 M41.6411,219.2422 L67.6411,219.2422 M54.6411,238.2422 L41.6411,253.2422 M54.6411,238.2422 L67.6411,253.2422" fill="none" filter="url(#f1aoi3qajb2vub)" style="stroke:#A80036;stroke-width:2;"/><text fill="#4682B4" font-family="sans-serif" font-size="14" lengthAdjust="spacing" textLength="38.1445" x="6" y="275.3496">Judge</text><text fill="#4682B4" font-family="sans-serif" font-size="14" lengthAdjust="spacing" textLength="3.8896" x="44.1445" y="275.3496">&#160;</text><text fill="#4682B4" font-family="sans-serif" font-size="14" lengthAdjust="spacing" textLength="55.248" x="48.0342" y="275.3496">Thatcher</text></g><!--entity albert--><g class="entity" data-entity="albert" data-source-line="34" data-uid="ent0015" id="entity_albert"><ellipse cx="54.6374" cy="342.5533" fill="#228B22" filter="url(#f1aoi3qajb2vub)" rx="8" ry="8" style="stroke:#A80036;stroke-width:2;"/><path d="M54.6374,350.5533 L54.6374,377.5533 M41.6374,358.5533 L67.6374,358.5533 M54.6374,377.5533 L41.6374,392.5533 M54.6374,377.5533 L67.6374,392.5533" fill="none" filter="url(#f1aoi3qajb2vub)" style="stroke:#A80036;stroke-width:2;"/><text fill="#4682B4" font-family="sans-serif" font-size="14" lengthAdjust="spacing" textLength="36.5723" x="36.3513" y="414.6607">Albert</text><text fill="#4682B4" font-family="sans-serif" font-size="14" font-style="italic" lengthAdjust="spacing" textLength="48.2549" x="30.51" y="329.0396">&#171;slave&#187;</text></g><!--entity fire--><g class="entity" data-entity="fire" data-source-line="37" data-uid="ent0016" id="entity_fire"><ellipse cx="273.6595" cy="505.055" fill="#C9FFC9" rx="51.3795" ry="27.6329" style="stroke:#A80036;stroke-width:1;"/><text fill="#4682B4" font-family="sans-serif" font-size="14" font-style="italic" lengthAdjust="spacing" textLength="49.8203" x="248.7494" y="499.0595">&#171;event&#187;</text><text fill="#4682B4" font-family="sans-serif" font-size="14" lengthAdjust="spacing" textLength="24.1104" x="237.0872" y="517.6806">Fire</text><text fill="#4682B4" font-family="sans-serif" font-size="14" lengthAdjust="spacing" textLength="3.8896" x="261.1976" y="517.6806">&#160;</text><text fill="#4682B4" font-family="sans-serif" font-size="14" lengthAdjust="spacing" textLength="45.1445" x="265.0872" y="517.6806">outside</text></g><!--entity doris--><g class="entity" data-entity="doris" data-source-line="43" data-uid="ent0019" id="entity_doris"><ellipse cx="54.6374" cy="481.5533" fill="#228B22" filter="url(#f1aoi3qajb2vub)" rx="8" ry="8" style="stroke:#A80036;stroke-width:2;"/><path d="M54.6374,489.5533 L54.6374,516.5533 M41.6374,497.5533 L67.6374,497.5533 M54.6374,516.5533 L41.6374,531.5533 M54.6374,516.5533 L67.6374,531.5533" fill="none" filter="url(#f1aoi3qajb2vub)" style="stroke:#A80036;stroke-width:2;"/><text fill="#4682B4" font-family="sans-serif" font-size="14" lengthAdjust="spacing" textLength="32.6689" x="38.303" y="553.6607">Doris</text><text fill="#4682B4" font-family="sans-serif" font-size="14" font-style="italic" lengthAdjust="spacing" textLength="48.2549" x="30.51" y="468.0396">&#171;slave&#187;</text></g><!--entity luke--><g class="entity" data-entity="luke" data-source-line="47" data-uid="ent0021" id="entity_luke"><ellipse cx="54.6371" cy="620.5533" fill="#228B22" filter="url(#f1aoi3qajb2vub)" rx="8" ry="8" style="stroke:#A80036;stroke-width:2;"/><path d="M54.6371,628.5533 L54.6371,655.5533 M41.6371,636.5533 L67.6371,636.5533 M54.6371,655.5533 L41.6371,670.5533 M54.6371,655.5533 L67.6371,670.5533" fill="none" filter="url(#f1aoi3qajb2vub)" style="stroke:#A80036;stroke-width:2;"/><text fill="#4682B4" font-family="sans-serif" font-size="14" lengthAdjust="spacing" textLength="21.7861" x="26.62" y="692.6607">Old</text><text fill="#4682B4" font-family="sans-serif" font-size="14" lengthAdjust="spacing" textLength="3.8896" x="48.4061" y="692.6607">&#160;</text><text fill="#4682B4" font-family="sans-serif" font-size="14" lengthAdjust="spacing" textLength="30.3584" x="52.2958" y="692.6607">Luke</text><text fill="#4682B4" font-family="sans-serif" font-size="14" font-style="italic" lengthAdjust="spacing" textLength="48.2549" x="30.5096" y="607.0396">&#171;slave&#187;</text></g><!--entity skinny--><g class="entity" data-entity="skinny" data-source-line="51" data-uid="ent0023" id="entity_skinny"><ellipse cx="273.6574" cy="596.5533" fill="#228B22" filter="url(#f1aoi3qajb2vub)" rx="8" ry="8" style="stroke:#A80036;stroke-width:2;"/><path d="M273.6574,604.5533 L273.6574,631.5533 M260.6574,612.5533 L286.6574,612.5533 M273.6574,631.5533 L260.6574,646.5533 M273.6574,631.5533 L286.6574,646.5533" fill="none" filter="url(#f1aoi3qajb2vub)" style="stroke:#A80036;stroke-width:2;"/><text fill="#4682B4" font-family="sans-serif" font-size="14" lengthAdjust="spacing" textLength="42.0205" x="252.6472" y="668.6607">Skinny</text><text fill="#4682B4" font-family="sans-serif" font-size="14" font-style="italic" lengthAdjust="spacing" textLength="48.2549" x="249.53" y="583.0396">&#171;slave&#187;</text></g><!--entity lesson--><g class="entity" data-entity="lesson" data-source-line="54" data-uid="ent0025" id="entity_lesson"><ellipse cx="746.2987" cy="345.0572" fill="#C9FFC9" rx="44.6687" ry="36.335" style="stroke:#A80036;stroke-width:1;"/><text fill="#4682B4" font-family="sans-serif" font-size="14" font-style="italic" lengthAdjust="spacing" textLength="49.8203" x="721.3886" y="333.4558">&#171;event&#187;</text><text fill="#4682B4" font-family="sans-serif" font-size="14" lengthAdjust="spacing" textLength="57.6133" x="717.4921" y="352.0769">language</text><text fill="#4682B4" font-family="sans-serif" font-size="14" lengthAdjust="spacing" textLength="40.4688" x="726.0644" y="370.698">lesson</text></g><!--entity student1--><g class="entity" data-entity="student1" data-source-line="60" data-uid="ent0028" id="entity_student1"><ellipse cx="970.2474" cy="168.5533" fill="#228B22" filter="url(#f1aoi3qajb2vub)" rx="8" ry="8" style="stroke:#A80036;stroke-width:2;"/><path d="M970.2474,176.5533 L970.2474,203.5533 M957.2474,184.5533 L983.2474,184.5533 M970.2474,203.5533 L957.2474,218.5533 M970.2474,203.5533 L983.2474,218.5533" fill="none" filter="url(#f1aoi3qajb2vub)" style="stroke:#A80036;stroke-width:2;"/><text fill="#4682B4" font-family="sans-serif" font-size="14" lengthAdjust="spacing" textLength="31.1172" x="954.6888" y="240.6607">Virgil</text><text fill="#4682B4" font-family="sans-serif" font-size="14" font-style="italic" lengthAdjust="spacing" textLength="48.2549" x="946.12" y="155.0396">&#171;slave&#187;</text></g><!--entity student2--><g class="entity" data-entity="student2" data-source-line="61" data-uid="ent0029" id="entity_student2"><ellipse cx="970.2403" cy="307.5533" fill="#B8860B" filter="url(#f1aoi3qajb2vub)" rx="8" ry="8" style="stroke:#A80036;stroke-width:2;"/><path d="M970.2403,315.5533 L970.2403,342.5533 M957.2403,323.5533 L983.2403,323.5533 M970.2403,342.5533 L957.2403,357.5533 M970.2403,342.5533 L983.2403,357.5533" fill="none" filter="url(#f1aoi3qajb2vub)" style="stroke:#A80036;stroke-width:2;"/><text fill="#4682B4" font-family="sans-serif" font-size="14" lengthAdjust="spacing" textLength="56.0205" x="942.23" y="379.6607">February</text><text fill="#4682B4" font-family="sans-serif" font-size="14" font-style="italic" lengthAdjust="spacing" textLength="48.2549" x="946.1128" y="294.0396">&#171;slave&#187;</text></g><!--entity student3--><g class="entity" data-entity="student3" data-source-line="62" data-uid="ent0030" id="entity_student3"><ellipse cx="746.2974" cy="444.5533" fill="#FEFECE" filter="url(#f1aoi3qajb2vub)" rx="8" ry="8" style="stroke:#A80036;stroke-width:2;"/><path d="M746.2974,452.5533 L746.2974,479.5533 M733.2974,460.5533 L759.2974,460.5533 M746.2974,479.5533 L733.2974,494.5533 M746.2974,479.5533 L759.2974,494.5533" fill="none" filter="url(#f1aoi3qajb2vub)" style="stroke:#A80036;stroke-width:2;"/><text fill="#4682B4" font-family="sans-serif" font-size="14" lengthAdjust="spacing" textLength="49.8066" x="721.3941" y="516.6607">January</text><text fill="#4682B4" font-family="sans-serif" font-size="14" font-style="italic" lengthAdjust="spacing" textLength="48.2549" x="722.17" y="431.0396">&#171;slave&#187;</text></g><!--entity student4--><g class="entity" data-entity="student4" data-source-line="63" data-uid="ent0031" id="entity_student4"><ellipse cx="488.4574" cy="252.5533" fill="#B8860B" filter="url(#f1aoi3qajb2vub)" rx="8" ry="8" style="stroke:#A80036;stroke-width:2;"/><path d="M488.4574,260.5533 L488.4574,287.5533 M475.4574,268.5533 L501.4574,268.5533 M488.4574,287.5533 L475.4574,302.5533 M488.4574,287.5533 L501.4574,302.5533" fill="none" filter="url(#f1aoi3qajb2vub)" style="stroke:#A80036;stroke-width:2;"/><text fill="#4682B4" font-family="sans-serif" font-size="14" lengthAdjust="spacing" textLength="43.5791" x="466.6679" y="324.6607">Rachel</text><text fill="#4682B4" font-family="sans-serif" font-size="14" font-style="italic" lengthAdjust="spacing" textLength="48.2549" x="464.33" y="239.0396">&#171;slave&#187;</text></g><!--entity student5--><g class="entity" data-entity="student5" data-source-line="64" data-uid="ent0032" id="entity_student5"><ellipse cx="488.4574" cy="391.5533" fill="#B8860B" filter="url(#f1aoi3qajb2vub)" rx="8" ry="8" style="stroke:#A80036;stroke-width:2;"/><path d="M488.4574,399.5533 L488.4574,426.5533 M475.4574,407.5533 L501.4574,407.5533 M488.4574,426.5533 L475.4574,441.5533 M488.4574,426.5533 L501.4574,441.5533" fill="none" filter="url(#f1aoi3qajb2vub)" style="stroke:#A80036;stroke-width:2;"/><text fill="#4682B4" font-family="sans-serif" font-size="14" lengthAdjust="spacing" textLength="33.4482" x="471.7333" y="463.6607">Glory</text><text fill="#4682B4" font-family="sans-serif" font-size="14" font-style="italic" lengthAdjust="spacing" textLength="48.2549" x="464.33" y="378.0396">&#171;slave&#187;</text></g><!--entity father--><g class="entity" data-entity="father" data-source-line="72" data-uid="ent0038" id="entity_father"><ellipse cx="488.4621" cy="1017.3" fill="#228B22" rx="8" ry="8" style="stroke:#808080;stroke-width:2;"/><path d="M488.4621,1025.3 L488.4621,1052.3 M475.4621,1033.3 L501.4621,1033.3 M488.4621,1052.3 L475.4621,1067.3 M488.4621,1052.3 L501.4621,1067.3" fill="none" style="stroke:#808080;stroke-width:2;"/><text fill="#228B22" font-family="times new roman" font-size="14" font-style="italic" lengthAdjust="spacing" textLength="22.5518" x="477.1862" y="1082.7756">Pap</text><text fill="#228B22" font-family="times new roman" font-size="14" font-style="italic" lengthAdjust="spacing" textLength="65.3242" x="455.8" y="988.7678">&#171;unnamed&#187;</text><text fill="#228B22" font-family="times new roman" font-size="14" font-style="italic" lengthAdjust="spacing" textLength="41.2139" x="467.8552" y="1004.2717">&#171;dead&#187;</text></g><!--entity widow--><g class="entity" data-entity="widow" data-source-line="76" data-uid="ent0040" id="entity_widow"><ellipse cx="54.6391" cy="82.2422" fill="#B8860B" filter="url(#f1aoi3qajb2vub)" rx="8" ry="8" style="stroke:#A80036;stroke-width:2;"/><path d="M54.6391,90.2422 L54.6391,117.2422 M41.6391,98.2422 L67.6391,98.2422 M54.6391,117.2422 L41.6391,132.2422 M54.6391,117.2422 L67.6391,132.2422" fill="none" filter="url(#f1aoi3qajb2vub)" style="stroke:#A80036;stroke-width:2;"/><text fill="#4682B4" font-family="sans-serif" font-size="14" lengthAdjust="spacing" textLength="38.9033" x="7.56" y="154.3496">widow</text><text fill="#4682B4" font-family="sans-serif" font-size="14" lengthAdjust="spacing" textLength="3.8896" x="46.4633" y="154.3496">&#160;</text><text fill="#4682B4" font-family="sans-serif" font-size="14" lengthAdjust="spacing" textLength="51.3652" x="50.353" y="154.3496">Douglas</text></g><!--entity bekkie--><g class="entity" data-entity="bekkie" data-source-line="78" data-uid="ent0041" id="entity_bekkie"><ellipse cx="273.6603" cy="203.2422" fill="#B8860B" filter="url(#f1aoi3qajb2vub)" rx="8" ry="8" style="stroke:#A80036;stroke-width:2;"/><path d="M273.6603,211.2422 L273.6603,238.2422 M260.6603,219.2422 L286.6603,219.2422 M273.6603,238.2422 L260.6603,253.2422 M273.6603,238.2422 L286.6603,253.2422" fill="none" filter="url(#f1aoi3qajb2vub)" style="stroke:#A80036;stroke-width:2;"/><text fill="#4682B4" font-family="sans-serif" font-size="14" lengthAdjust="spacing" textLength="42.0205" x="252.65" y="275.3496">Bessie</text></g><!--entity polly--><g class="entity" data-entity="polly" data-source-line="87" data-uid="ent0044" id="entity_polly"><ellipse cx="273.6624" cy="848.2422" fill="#B8860B" filter="url(#f1aoi3qajb2vub)" rx="8" ry="8" style="stroke:#A80036;stroke-width:2;"/><path d="M273.6624,856.2422 L273.6624,883.2422 M260.6624,864.2422 L286.6624,864.2422 M273.6624,883.2422 L260.6624,898.2422 M273.6624,883.2422 L286.6624,898.2422" fill="none" filter="url(#f1aoi3qajb2vub)" style="stroke:#A80036;stroke-width:2;"/><text fill="#4682B4" font-family="sans-serif" font-size="14" lengthAdjust="spacing" textLength="30.3447" x="258.49" y="920.3496">Polly</text></g><!--entity april--><g class="entity" data-entity="april" data-source-line="91" data-uid="ent0046" id="entity_april"><ellipse cx="488.4574" cy="865.5533" fill="#FEFECE" filter="url(#f1aoi3qajb2vub)" rx="8" ry="8" style="stroke:#A80036;stroke-width:2;"/><path d="M488.4574,873.5533 L488.4574,900.5533 M475.4574,881.5533 L501.4574,881.5533 M488.4574,900.5533 L475.4574,915.5533 M488.4574,900.5533 L501.4574,915.5533" fill="none" filter="url(#f1aoi3qajb2vub)" style="stroke:#A80036;stroke-width:2;"/><text fill="#4682B4" font-family="sans-serif" font-size="14" lengthAdjust="spacing" textLength="28.0068" x="474.454" y="937.6607">April</text><text fill="#4682B4" font-family="sans-serif" font-size="14" font-style="italic" lengthAdjust="spacing" textLength="48.2549" x="464.33" y="852.0396">&#171;slave&#187;</text></g><!--entity cotton--><g class="entity" data-entity="cotton" data-source-line="92" data-uid="ent0047" id="entity_cotton"><ellipse cx="746.2974" cy="980.5533" fill="#FEFECE" filter="url(#f1aoi3qajb2vub)" rx="8" ry="8" style="stroke:#A80036;stroke-width:2;"/><path d="M746.2974,988.5533 L746.2974,1015.5533 M733.2974,996.5533 L759.2974,996.5533 M746.2974,1015.5533 L733.2974,1030.5533 M746.2974,1015.5533 L759.2974,1030.5533" fill="none" filter="url(#f1aoi3qajb2vub)" style="stroke:#A80036;stroke-width:2;"/><text fill="#4682B4" font-family="sans-serif" font-size="14" lengthAdjust="spacing" textLength="41.248" x="725.6734" y="1052.6607">Cotton</text><text fill="#4682B4" font-family="sans-serif" font-size="14" font-style="italic" lengthAdjust="spacing" textLength="48.2549" x="722.17" y="967.0396">&#171;slave&#187;</text></g><!--entity old--><g class="entity" data-entity="old" data-source-line="94" data-uid="ent0048" id="entity_old"><ellipse cx="746.3026" cy="889.0485" fill="#FFE0E0" rx="45.3026" ry="28.3063" style="stroke:#A80036;stroke-width:1;"/><text fill="#4682B4" font-family="sans-serif" font-size="14" font-style="italic" lengthAdjust="spacing" textLength="51.3789" x="720.6131" y="884.064">&#171;group&#187;</text><text fill="#4682B4" font-family="sans-serif" font-size="14" lengthAdjust="spacing" textLength="18.6826" x="715.1751" y="902.6851">old</text><text fill="#4682B4" font-family="sans-serif" font-size="14" lengthAdjust="spacing" textLength="3.8896" x="733.8578" y="902.6851">&#160;</text><text fill="#4682B4" font-family="sans-serif" font-size="14" lengthAdjust="spacing" textLength="39.6826" x="737.7474" y="902.6851">slaves</text></g><!--entity four--><g class="entity" data-entity="four" data-source-line="102" data-uid="ent0052" id="entity_four"><ellipse cx="746.3035" cy="799.0538" fill="#FFE0E0" rx="65.4135" ry="27.0916" style="stroke:#A80036;stroke-width:1;"/><text fill="#4682B4" font-family="sans-serif" font-size="14" font-style="italic" lengthAdjust="spacing" textLength="51.3789" x="720.6141" y="792.2187">&#171;group&#187;</text><text fill="#4682B4" font-family="sans-serif" font-size="14" lengthAdjust="spacing" textLength="28.7861" x="698.0623" y="810.8398">Four</text><text fill="#4682B4" font-family="sans-serif" font-size="14" lengthAdjust="spacing" textLength="3.8896" x="726.8485" y="810.8398">&#160;</text><text fill="#4682B4" font-family="sans-serif" font-size="14" lengthAdjust="spacing" textLength="32.6826" x="730.7381" y="810.8398">black</text><text fill="#4682B4" font-family="sans-serif" font-size="14" lengthAdjust="spacing" textLength="3.8896" x="763.4207" y="810.8398">&#160;</text><text fill="#4682B4" font-family="sans-serif" font-size="14" lengthAdjust="spacing" textLength="27.2344" x="767.3104" y="810.8398">men</text></g><!--entity muscular--><g class="entity" data-entity="muscular" data-source-line="106" data-uid="ent0054" id="entity_muscular"><ellipse cx="970.2442" cy="827.2422" fill="#228B22" filter="url(#f1aoi3qajb2vub)" rx="8" ry="8" style="stroke:#A80036;stroke-width:2;"/><path d="M970.2442,835.2422 L970.2442,862.2422 M957.2442,843.2422 L983.2442,843.2422 M970.2442,862.2422 L957.2442,877.2422 M970.2442,862.2422 L983.2442,877.2422" fill="none" filter="url(#f1aoi3qajb2vub)" style="stroke:#A80036;stroke-width:2;"/><text fill="#4682B4" font-family="sans-serif" font-size="14" lengthAdjust="spacing" textLength="40.4824" x="924.71" y="899.3496">Young</text><text fill="#4682B4" font-family="sans-serif" font-size="14" lengthAdjust="spacing" textLength="3.8896" x="965.1924" y="899.3496">&#160;</text><text fill="#4682B4" font-family="sans-serif" font-size="14" lengthAdjust="spacing" textLength="46.6963" x="969.0821" y="899.3496">George</text></g><!--entity oldest--><g class="entity" data-entity="oldest" data-source-line="107" data-uid="ent0055" id="entity_oldest"><ellipse cx="970.246" cy="948.2422" fill="#228B22" filter="url(#f1aoi3qajb2vub)" rx="8" ry="8" style="stroke:#A80036;stroke-width:2;"/><path d="M970.246,956.2422 L970.246,983.2422 M957.246,964.2422 L983.246,964.2422 M970.246,983.2422 L957.246,998.2422 M970.246,983.2422 L983.246,998.2422" fill="none" filter="url(#f1aoi3qajb2vub)" style="stroke:#A80036;stroke-width:2;"/><text fill="#4682B4" font-family="sans-serif" font-size="14" lengthAdjust="spacing" textLength="21.7861" x="934.06" y="1020.3496">Old</text><text fill="#4682B4" font-family="sans-serif" font-size="14" lengthAdjust="spacing" textLength="3.8896" x="955.8461" y="1020.3496">&#160;</text><text fill="#4682B4" font-family="sans-serif" font-size="14" lengthAdjust="spacing" textLength="46.6963" x="959.7358" y="1020.3496">George</text></g><!--entity big--><g class="entity" data-entity="big" data-source-line="108" data-uid="ent0056" id="entity_big"><ellipse cx="970.2444" cy="1069.2422" fill="#228B22" filter="url(#f1aoi3qajb2vub)" rx="8" ry="8" style="stroke:#A80036;stroke-width:2;"/><path d="M970.2444,1077.2422 L970.2444,1104.2422 M957.2444,1085.2422 L983.2444,1085.2422 M970.2444,1104.2422 L957.2444,1119.2422 M970.2444,1104.2422 L983.2444,1119.2422" fill="none" filter="url(#f1aoi3qajb2vub)" style="stroke:#A80036;stroke-width:2;"/><text fill="#4682B4" font-family="sans-serif" font-size="14" lengthAdjust="spacing" textLength="40.4688" x="950.01" y="1141.3496">Josiah</text></g><!--entity squintyEyes--><g class="entity" data-entity="squintyEyes" data-source-line="109" data-uid="ent0057" id="entity_squintyEyes"><ellipse cx="970.2424" cy="706.2422" fill="#228B22" filter="url(#f1aoi3qajb2vub)" rx="8" ry="8" style="stroke:#A80036;stroke-width:2;"/><path d="M970.2424,714.2422 L970.2424,741.2422 M957.2424,722.2422 L983.2424,722.2422 M970.2424,741.2422 L957.2424,756.2422 M970.2424,741.2422 L983.2424,756.2422" fill="none" filter="url(#f1aoi3qajb2vub)" style="stroke:#A80036;stroke-width:2;"/><text fill="#4682B4" font-family="sans-serif" font-size="14" lengthAdjust="spacing" textLength="37.3447" x="951.57" y="778.3496">Pierre</text></g><!--entity grangerfords--><g class="entity" data-entity="grangerfords" data-source-line="116" data-uid="ent0062" id="entity_grangerfords"><ellipse cx="1199.4667" cy="812.0552" fill="#FFE0E0" rx="57.0467" ry="27.403" style="stroke:#A80036;stroke-width:1;"/><text fill="#4682B4" font-family="sans-serif" font-size="14" font-style="italic" lengthAdjust="spacing" textLength="51.3789" x="1173.7772" y="805.7062">&#171;group&#187;</text><text fill="#4682B4" font-family="sans-serif" font-size="14" lengthAdjust="spacing" textLength="82.4824" x="1158.2255" y="824.3273">Grangerfords</text></g><!--entity shepherdsons--><g class="entity" data-entity="shepherdsons" data-source-line="117" data-uid="ent0063" id="entity_shepherdsons"><ellipse cx="1199.4663" cy="920.0531" fill="#FFE0E0" rx="61.6963" ry="27.2109" style="stroke:#A80036;stroke-width:1;"/><text fill="#4682B4" font-family="sans-serif" font-size="14" font-style="italic" lengthAdjust="spacing" textLength="51.3789" x="1173.7769" y="913.4053">&#171;group&#187;</text><text fill="#4682B4" font-family="sans-serif" font-size="14" lengthAdjust="spacing" textLength="90.2891" x="1154.3218" y="932.0264">Shepherdsons</text></g><!--link owner to jim--><g class="link" data-entity-1="owner" data-entity-2="jim" data-source-line="14" data-uid="lnk4" id="link_owner_jim"><path d="M314.19,748.1922 C351.33,746.4522 400.7566,744.1237 438.8666,742.3337" fill="none" id="owner-to-jim" style="stroke:#A80036;stroke-width:1;"/><polygon fill="#A80036" points="444.86,742.0522,435.6822,738.4789,439.8655,742.2868,436.0576,746.47,444.86,742.0522" style="stroke:#A80036;stroke-width:1;"/><text fill="#4682B4" font-family="sans-serif" font-size="13" lengthAdjust="spacing" textLength="39.73" x="365.54" y="739.6005">master</text></g><!--link tom to huck--><g class="link" data-entity-1="tom" data-entity-2="huck" data-source-line="19" data-uid="lnk7" id="link_tom_huck"><path d="M99.5441,944.8456 C139.5741,960.1556 190.7454,979.73 230.2254,994.82" fill="none" id="tom-huck" style="stroke:#A80036;stroke-width:1;"/><polygon fill="#A80036" points="93.94,942.7022,100.9172,949.6533,98.6101,944.4883,103.7751,942.1812,93.94,942.7022" style="stroke:#A80036;stroke-width:1;"/><polygon fill="#A80036" points="235.83,996.9622,228.8513,990.0126,231.1595,995.177,225.995,997.4853,235.83,996.9622" style="stroke:#A80036;stroke-width:1;"/><text fill="#4682B4" font-family="sans-serif" font-size="13" lengthAdjust="spacing" textLength="39.019" x="143.28" y="955.7005">friends</text></g><!--link jim to family--><g class="link" data-entity-1="jim" data-entity-2="family" data-source-line="25" data-uid="lnk10" id="link_jim_family"><path d="M532.28,718.1222 C581.64,692.8522 661.94,651.7322 708.57,627.8622" fill="none" id="jim-family" style="stroke:#A80036;stroke-width:1;"/></g><!--link family to sadie--><g class="link" data-entity-1="family" data-entity-2="sadie" data-source-line="26" data-uid="lnk11" id="link_family_sadie"><path d="M797.38,609.0522 C843.28,609.0522 909.31,609.0522 944.67,609.0522" fill="none" id="family-sadie" style="stroke:#A80036;stroke-width:1;"/><text fill="#4682B4" font-family="sans-serif" font-size="13" lengthAdjust="spacing" textLength="23.1182" x="856.71" y="605.0805">wife</text></g><!--link family to lizzie--><g class="link" data-entity-1="family" data-entity-2="lizzie" data-source-line="30" data-uid="lnk13" id="link_family_lizzie"><path d="M780.52,588.2422 C824.18,560.9022 900.09,513.3622 941.07,487.6922" fill="none" id="family-lizzie" style="stroke:#A80036;stroke-width:1;"/><text fill="#4682B4" font-family="sans-serif" font-size="13" lengthAdjust="spacing" textLength="51.3208" x="842.71" y="515.0105">daughter</text></g><!--link fire to jim--><g class="link" data-entity-1="fire" data-entity-2="jim" data-source-line="39" data-uid="lnk17" id="link_fire_jim"><path d="M302.21,528.4622 C309.8,535.2222 317.91,542.7622 325.04,550.0522 C367.99,593.9422 413.08,647.3622 444.82,686.3622" fill="none" id="fire-jim" style="stroke:#A80036;stroke-width:1;"/></g><!--link albert to fire--><g class="link" data-entity-1="albert" data-entity-2="fire" data-source-line="41" data-uid="lnk18" id="link_albert_fire"><path d="M80.11,381.7222 C119.25,406.7922 195.94,455.9122 239.81,484.0122" fill="none" id="albert-fire" style="stroke:#A80036;stroke-width:1;"/><text fill="#4682B4" font-family="sans-serif" font-size="13" lengthAdjust="spacing" textLength="33.9663" x="134.28" y="415.0405">called</text><text fill="#4682B4" font-family="sans-serif" font-size="13" lengthAdjust="spacing" textLength="3.6118" x="168.2463" y="415.0405">&#160;</text><text fill="#4682B4" font-family="sans-serif" font-size="13" lengthAdjust="spacing" textLength="20.2173" x="171.8581" y="415.0405">Jim</text></g><!--link doris to fire--><g class="link" data-entity-1="doris" data-entity-2="fire" data-source-line="45" data-uid="lnk20" id="link_doris_fire"><path d="M80.11,505.0522 C114.37,505.0522 177.41,505.0522 222.01,505.0522" fill="none" id="doris-fire" style="stroke:#A80036;stroke-width:1;"/></g><!--link luke to fire--><g class="link" data-entity-1="luke" data-entity-2="fire" data-source-line="49" data-uid="lnk22" id="link_luke_fire"><path d="M83.13,626.4522 C123.05,600.8822 196.96,553.5422 239.73,526.1422" fill="none" id="luke-fire" style="stroke:#A80036;stroke-width:1;"/></g><!--link fire to skinny--><g class="link" data-entity-1="fire" data-entity-2="skinny" data-source-line="52" data-uid="lnk24" id="link_fire_skinny"><path d="M273.66,532.8622 C273.66,544.4022 273.66,555.9522 273.66,567.4922" fill="none" id="fire-skinny" style="stroke:#A80036;stroke-width:1;"/></g><!--link jim to lesson--><g class="link" data-entity-1="jim" data-entity-2="lesson" data-source-line="56" data-uid="lnk26" id="link_jim_lesson"><path d="M515.49,678.3322 C547.69,606.3522 607.35,486.0122 680.88,398.0522 C689.89,387.2722 701.32,377.0522 712.04,368.5222" fill="none" id="jim-lesson" style="stroke:#A80036;stroke-width:1;"/><text fill="#4682B4" font-family="sans-serif" font-size="13" lengthAdjust="spacing" textLength="28.1899" x="592.38" y="436.1305">gave</text></g><!--link lesson to lizzie--><g class="link" data-entity-1="lesson" data-entity-2="lizzie" data-source-line="58" data-uid="lnk27" id="link_lesson_lizzie"><path d="M783.45,365.4122 C827.55,390.2522 901.15,431.7022 941.2,454.2622" fill="none" id="lesson-lizzie" style="stroke:#A80036;stroke-width:1;"/></g><!--link lesson to student1--><g class="link" data-entity-1="lesson" data-entity-2="student1" data-source-line="66" data-uid="lnk33" id="link_lesson_student1"><path d="M781,321.8122 C826.12,290.7122 905.05,236.3022 944.84,208.8722" fill="none" id="lesson-student1" style="stroke:#A80036;stroke-width:1;"/></g><!--link lesson to student2--><g class="link" data-entity-1="lesson" data-entity-2="student2" data-source-line="67" data-uid="lnk34" id="link_lesson_student2"><path d="M791.15,342.2822 C835.99,339.4522 904.27,335.1522 941.93,332.7722" fill="none" id="lesson-student2" style="stroke:#A80036;stroke-width:1;"/></g><!--link lesson to student3--><g class="link" data-entity-1="lesson" data-entity-2="student3" data-source-line="68" data-uid="lnk35" id="link_lesson_student3"><path d="M746.3,381.7422 C746.3,393.0622 746.3,404.3722 746.3,415.6822" fill="none" id="lesson-student3" style="stroke:#A80036;stroke-width:1;"/></g><!--link student4 to lesson--><g class="link" data-entity-1="student4" data-entity-2="lesson" data-source-line="69" data-uid="lnk36" id="link_student4_lesson"><path d="M513.99,282.6722 C557.76,294.4722 649.78,319.2922 703.63,333.8122" fill="none" id="student4-lesson" style="stroke:#A80036;stroke-width:1;"/></g><!--link student5 to lesson--><g class="link" data-entity-1="student5" data-entity-2="lesson" data-source-line="70" data-uid="lnk37" id="link_student5_lesson"><path d="M513.99,408.3422 C557.76,396.3622 649.78,371.1822 703.63,356.4522" fill="none" id="student5-lesson" style="stroke:#A80036;stroke-width:1;"/></g><!--reverse link huck to father--><g class="link" data-entity-1="huck" data-entity-2="father" data-source-line="74" data-uid="lnk39" id="link_huck_father"><path d="M317.2138,1015.0526 C357.5038,1018.8326 415.72,1024.3122 454.5,1027.9522" fill="none" id="huck-backto-father" style="stroke:#A80036;stroke-width:1;"/><polygon fill="#A80036" points="311.24,1014.4922,319.827,1019.3154,316.2181,1014.9592,320.5743,1011.3504,311.24,1014.4922" style="stroke:#A80036;stroke-width:1;"/><text fill="#4682B4" font-family="sans-serif" font-size="13" lengthAdjust="spacing" textLength="33.2427" x="368.54" y="1014.7005">father</text></g><!--reverse link judge to bekkie--><g class="link" data-entity-1="judge" data-entity-2="bekkie" data-source-line="80" data-uid="lnk42" id="link_judge_bekkie"><path d="M109.54,236.0522 C156.1,236.0522 218.58,236.0522 252.33,236.0522" fill="none" id="judge-backto-bekkie" style="stroke:#A80036;stroke-width:1;"/><polygon fill="#A80036" points="103.54,236.0522,112.54,240.0522,108.54,236.0522,112.54,232.0522,103.54,236.0522" style="stroke:#A80036;stroke-width:1;"/><text fill="#4682B4" font-family="sans-serif" font-size="13" lengthAdjust="spacing" textLength="51.3208" x="137.28" y="232.0805">daughter</text></g><!--link huck to jim--><g class="link" data-entity-1="huck" data-entity-2="jim" data-source-line="85" data-uid="lnk43" id="link_huck_jim"><path d="M315.1955,959.4332 C352.3055,912.1732 402.125,848.7316 441.165,799.0016" fill="none" id="huck-jim" style="stroke:#A80036;stroke-width:1;"/><polygon fill="#A80036" points="311.49,964.1522,320.1943,959.544,314.5779,960.2197,313.9023,954.6033,311.49,964.1522" style="stroke:#A80036;stroke-width:1;"/><polygon fill="#A80036" points="444.87,794.2822,436.1663,798.8914,441.7825,798.2151,442.4589,803.8313,444.87,794.2822" style="stroke:#A80036;stroke-width:1;"/><text fill="#4682B4" font-family="sans-serif" font-size="13" lengthAdjust="spacing" textLength="14.46" x="356.04" y="814.4705">on</text><text fill="#4682B4" font-family="sans-serif" font-size="13" lengthAdjust="spacing" textLength="3.6118" x="370.5" y="814.4705">&#160;</text><text fill="#4682B4" font-family="sans-serif" font-size="13" lengthAdjust="spacing" textLength="18.0718" x="374.1118" y="814.4705">the</text><text fill="#4682B4" font-family="sans-serif" font-size="13" lengthAdjust="spacing" textLength="3.6118" x="392.1836" y="814.4705">&#160;</text><text fill="#4682B4" font-family="sans-serif" font-size="13" lengthAdjust="spacing" textLength="18.7891" x="395.7954" y="814.4705">run</text><text fill="#4682B4" font-family="sans-serif" font-size="13" lengthAdjust="spacing" textLength="47.7026" x="361.4609" y="831.7615">together</text></g><!--reverse link tom to polly--><g class="link" data-entity-1="tom" data-entity-2="polly" data-source-line="89" data-uid="lnk45" id="link_tom_polly"><path d="M99.8042,918.4827 C148.7242,907.8927 225.14,891.3422 258.23,884.1722" fill="none" id="tom-backto-polly" style="stroke:#A80036;stroke-width:1;"/><polygon fill="#A80036" points="93.94,919.7522,103.5826,921.7575,98.8268,918.6943,101.89,913.9386,93.94,919.7522" style="stroke:#A80036;stroke-width:1;"/><text fill="#4682B4" font-family="sans-serif" font-size="13" lengthAdjust="spacing" textLength="25.3018" x="150.28" y="894.9905">aunt</text></g><!--link jim to old--><g class="link" data-entity-1="jim" data-entity-2="old" data-source-line="96" data-uid="lnk49" id="link_jim_old"><path d="M532.25,781.4722 C541.62,789.4922 551.77,797.4422 561.88,804.0522 C608.74,834.6722 668.41,860.1322 706.73,874.9822" fill="none" id="jim-old" style="stroke:#A80036;stroke-width:1;"/><text fill="#4682B4" font-family="sans-serif" font-size="13" lengthAdjust="spacing" textLength="34.6899" x="562.88" y="800.0805">stolen</text><text fill="#4682B4" font-family="sans-serif" font-size="13" lengthAdjust="spacing" textLength="3.6118" x="597.5699" y="800.0805">&#160;</text><text fill="#4682B4" font-family="sans-serif" font-size="13" lengthAdjust="spacing" textLength="49.1372" x="601.1818" y="800.0805">firewood</text></g><!--link april to old--><g class="link" data-entity-1="april" data-entity-2="old" data-source-line="98" data-uid="lnk50" id="link_april_old"><path d="M513.99,889.0522 C557.01,889.0522 646.64,889.0522 700.82,889.0522" fill="none" id="april-old" style="stroke:#A80036;stroke-width:1;"/></g><!--link old to cotton--><g class="link" data-entity-1="old" data-entity-2="cotton" data-source-line="99" data-uid="lnk51" id="link_old_cotton"><path d="M746.3,917.8322 C746.3,929.0522 746.3,940.2722 746.3,951.4922" fill="none" id="old-cotton" style="stroke:#A80036;stroke-width:1;"/></g><!--link jim to four--><g class="link" data-entity-1="jim" data-entity-2="four" data-source-line="104" data-uid="lnk53" id="link_jim_four"><path d="M532.28,749.9222 C575.1,759.8022 641.19,775.0422 688.4,785.9322" fill="none" id="jim-four" style="stroke:#A80036;stroke-width:1;"/><text fill="#4682B4" font-family="sans-serif" font-size="13" lengthAdjust="spacing" textLength="21.6709" x="568.88" y="753.5105">met</text><text fill="#4682B4" font-family="sans-serif" font-size="13" lengthAdjust="spacing" textLength="3.6118" x="590.5509" y="753.5105">&#160;</text><text fill="#4682B4" font-family="sans-serif" font-size="13" lengthAdjust="spacing" textLength="10.1182" x="594.1627" y="753.5105">in</text><text fill="#4682B4" font-family="sans-serif" font-size="13" lengthAdjust="spacing" textLength="3.6118" x="604.2809" y="753.5105">&#160;</text><text fill="#4682B4" font-family="sans-serif" font-size="13" lengthAdjust="spacing" textLength="36.1245" x="607.8927" y="753.5105">Illinois</text></g><!--link four to muscular--><g class="link" data-entity-1="four" data-entity-2="muscular" data-source-line="111" data-uid="lnk58" id="link_four_muscular"><path d="M801.59,813.9722 C839.32,824.3422 889,838.0022 924.46,847.7422" fill="none" id="four-muscular" style="stroke:#A80036;stroke-width:1;"/></g><!--link four to oldest--><g class="link" data-entity-1="four" data-entity-2="oldest" data-source-line="112" data-uid="lnk59" id="link_four_oldest"><path d="M782.61,822.0522 C792.21,828.6122 802.5,835.9122 811.71,843.0522 C855.25,876.7922 902.43,918.9322 933.69,947.7122" fill="none" id="four-oldest" style="stroke:#A80036;stroke-width:1;"/></g><!--link four to big--><g class="link" data-entity-1="four" data-entity-2="big" data-source-line="113" data-uid="lnk60" id="link_four_big"><path d="M786.79,820.6522 C795.85,826.9722 804.83,834.5122 811.71,843.0522 C833.98,870.6822 825.09,885.6922 841.71,917.0522 C872.77,975.6422 886.7,986.7022 924.71,1041.0522 C932.75,1052.5522 941.85,1065.0922 949.72,1075.8022" fill="none" id="four-big" style="stroke:#A80036;stroke-width:1;"/></g><!--link four to squintyEyes--><g class="link" data-entity-1="four" data-entity-2="squintyEyes" data-source-line="114" data-uid="lnk61" id="link_four_squintyEyes"><path d="M801.87,784.2922 C850.52,771.1422 918.86,752.6722 951.08,743.9622" fill="none" id="four-squintyEyes" style="stroke:#A80036;stroke-width:1;"/></g><!--link muscular to grangerfords--><g class="link" data-entity-1="muscular" data-entity-2="grangerfords" data-source-line="119" data-uid="lnk64" id="link_muscular_grangerfords"><path d="M1016.14,850.5722 C1053.77,842.6222 1107.53,831.2622 1146.92,822.9422" fill="none" id="muscular-grangerfords" style="stroke:#A80036;stroke-width:1;"/><text fill="#4682B4" font-family="sans-serif" font-size="13" lengthAdjust="spacing" textLength="60.709" x="1046.78" y="827.7805">mentioned</text></g><!--link muscular to shepherdsons--><g class="link" data-entity-1="muscular" data-entity-2="shepherdsons" data-source-line="120" data-uid="lnk65" id="link_muscular_shepherdsons"><path d="M1016.14,871.9022 C1053.52,881.7722 1106.79,895.8422 1146.11,906.2222" fill="none" id="muscular-shepherdsons" style="stroke:#A80036;stroke-width:1;"/><text fill="#4682B4" font-family="sans-serif" font-size="13" lengthAdjust="spacing" textLength="60.709" x="1046.78" y="877.2005">mentioned</text></g><!--link grangerfords to shepherdsons--><g class="link" data-entity-1="grangerfords" data-entity-2="shepherdsons" data-source-line="122" data-uid="lnk66" id="link_grangerfords_shepherdsons"><path d="M1199.47,845.9122 C1199.47,862.0922 1199.47,870.3922 1199.47,886.5222" fill="none" id="grangerfords-shepherdsons" style="stroke:#A80036;stroke-width:1;"/><polygon fill="#A80036" points="1199.47,839.9122,1195.47,848.9122,1199.47,844.9122,1203.47,848.9122,1199.47,839.9122" style="stroke:#A80036;stroke-width:1;"/><polygon fill="#A80036" points="1199.47,892.5222,1203.47,883.5222,1199.47,887.5222,1195.47,883.5222,1199.47,892.5222" style="stroke:#A80036;stroke-width:1;"/><text fill="#4682B4" font-family="sans-serif" font-size="13" lengthAdjust="spacing" textLength="25.3018" x="1174.47" y="871.6805">hate</text></g><g class="legend"><rect fill="none" height="30.6211" rx="7.5" ry="7.5" style="stroke:#000000;stroke-width:1;" width="134.1787" x="559.492" y="1156.8496"/><text fill="#4682B4" font-family="sans-serif" font-size="14" lengthAdjust="spacing" textLength="122.1787" x="565.492" y="1177.957">28.8% (Chapter 14)</text></g><!--SRC=[RLLRZzCw47xthnZGekq-T2iMa91LAd7RXUeWLYm2yOJSP9gOEdRmXQhy-ZE-D4rfdpgP-JpppRMFBfpVARmNleLNyBZrldTyDhDYUzr8tuPLS6WheprgVrsPRcOKRfxDUYMq3vsQIbsfKAERMLoxMOkYThDEI3sJP7tC7XKx7C8GKjHIDzSHmPYNNY4iHOUEnOThIo9KhR2YycWTKzYWhe73pSlhbqzWyhOLFHdWwVChnXXFBpa81xza1p2VQs6jyCOk5d3H2OK_UskyQ8oMpXF-atGElWllZ4wlp5QJiuirHYnZ-NCwNK3onw4JZgBHmw-cWmUntQ5Dxpnz9l-CVmZLHk4AhTt1hTJPRqlA0c0HEuy-avB3safAoP7J1oe59hoB4j5tIlp1o7tFQBAKtQM3jUYasbr5Q1O9srWJ-iM2iKXrEYq6Lkoao4uvREMQFF7tIluLA_HjYaWVVy-7F3We60wr24sR2x4CTOFmjHM-QainVYLLoPQ_LbGBdmmYYUCO6SCcjz8YcE2Th35d5HNpEVwXIOivfM-YGBanLlp47AEQGoMKmXgMqSZV6Ilp3DHHEWsNrUKrFVYiQlWlR7Bb5GcdJvBsyE9XGutTvKubyUH5vbkib21jI1C4bKMXes5BEMPnd6NfN35mQCWb1S-VGmE8m3Tf6wao0KyRfVtJ4mhy5bSs2BiRmsxET9YsHl-BUtR0CVv5K6-FeZq_v-PEcMCdBywDqo6RFVDJrSsW6lYm8V9G83Q4EQWOlnSzptlXQI29GT2Qha9D7ERpcgxDOb6QclPldZObGNaHoCbMrcOBxqnebCYpb3L35lmDnIlBkiBDXjPYiENvZuwBPRmmbvDjApswgz76NavIbOvq0xj5EJrK3I87Dj2lQR0GlJTAvPhtKJgGA5Ucg0aHT3nuhtjRvaP4QTpbjyRxSWQh98wCR69eIVOiuw6apzEJ4xMSMaP_2phjojQOclOrXSfs5Z7J4Y6jlWaMLafGjXtcnLX7rPc35jLqWz63rF1HAQcDZ7VpXmcwWJiqjiaTwOAhWX8MzgiGLtna9mxe_61T6YT5FeChsGpgUqb7lDpZtq5gltk_GxStiqI7QEs33OhiVVWabuCyyaEftrcw2cZNnjQvgir8CIh0vA75dlfTquHde1ifnfKQ4gTOHyvYsRINHcDz13foD0QnOouqXlz0wU9J4Vu7]--></g></svg>