<svg xmlns="http://www.w3.org/2000/svg" xmlns:xlink="http://www.w3.org/1999/xlink" contentStyleType="text/css" data-diagram-type="DESCRIPTION" height="1144px" preserveAspectRatio="none" style="width:965px;height:1144px;" version="1.1" viewBox="0 0 965 1144" width="965px" zoomAndPan="magnify"><title>James</title><defs><filter height="300%" id="fkbhwyny0j49b" width="300%" x="-1" y="-1"><feGaussianBlur result="blurOut" stdDeviation="2"/><feColorMatrix in="blurOut" result="blurOut2" type="matrix" values="0 0 0 0 0 0 0 0 0 0 0 0 0 0 0 0 0 0 .4 0"/><feOffset dx="4" dy="4" in="blurOut2" result="blurOut3"/><feBlend in="SourceGraphic" in2="blurOut3" mode="normal"/></filter></defs><g><g class="title" data-source-line="5"><text fill="#4682B4" font-family="sans-serif" font-size="14" font-weight="bold" lengthAdjust="spacing" textLength="43.5928" x="451.27" y="25.1074">James</text></g><rect fill="none" height="1067.7156" style="stroke:#A80036;stroke-width:1;" width="959.1328" x="0" y="39.6211"/><path d="M75.3584,39.6211 L75.3584,51.2422 L65.3584,61.2422 L0,61.2422" fill="none" style="stroke:#A80036;stroke-width:1;"/><text fill="#4682B4" font-family="sans-serif" font-size="14" lengthAdjust="spacing" textLength="65.3584" x="3" y="55.7285">characters</text><!--entity jim--><g class="entity" data-entity="jim" data-source-line="10" data-uid="ent0002" id="entity_jim"><ellipse cx="488.4604" cy="725.8644" fill="#00FF00" filter="url(#fkbhwyny0j49b)" rx="8" ry="8" style="stroke:#A80036;stroke-width:2;"/><path d="M488.4604,733.8644 L488.4604,760.8644 M475.4604,741.8644 L501.4604,741.8644 M488.4604,760.8644 L475.4604,775.8644 M488.4604,760.8644 L501.4604,775.8644" fill="none" filter="url(#fkbhwyny0j49b)" style="stroke:#A80036;stroke-width:2;"/><text fill="#4682B4" font-family="sans-serif" font-size="14" lengthAdjust="spacing" textLength="41.2344" x="467.8432" y="797.9718">James</text><text fill="#4682B4" font-family="sans-serif" font-size="14" font-style="italic" lengthAdjust="spacing" textLength="64.5928" x="456.164" y="693.7296">&#171;narrator&#187;</text><text fill="#4682B4" font-family="sans-serif" font-size="14" font-style="italic" lengthAdjust="spacing" textLength="84.8408" x="446.04" y="712.3507">&#171;protagonist&#187;</text></g><!--entity owner--><g class="entity" data-entity="owner" data-source-line="12" data-uid="ent0003" id="entity_owner"><ellipse cx="273.662" cy="717.2422" fill="#B8860B" filter="url(#fkbhwyny0j49b)" rx="8" ry="8" style="stroke:#A80036;stroke-width:2;"/><path d="M273.662,725.2422 L273.662,752.2422 M260.662,733.2422 L286.662,733.2422 M273.662,752.2422 L260.662,767.2422 M273.662,752.2422 L286.662,767.2422" fill="none" filter="url(#fkbhwyny0j49b)" style="stroke:#A80036;stroke-width:2;"/><text fill="#4682B4" font-family="sans-serif" font-size="14" lengthAdjust="spacing" textLength="28.7725" x="233.6" y="789.3496">Miss</text><text fill="#4682B4" font-family="sans-serif" font-size="14" lengthAdjust="spacing" textLength="3.8896" x="262.3725" y="789.3496">&#160;</text><text fill="#4682B4" font-family="sans-serif" font-size="14" lengthAdjust="spacing" textLength="47.4619" x="266.2621" y="789.3496">Watson</text></g><!--entity tom--><g class="entity" data-entity="tom" data-source-line="16" data-uid="ent0005" id="entity_tom"><ellipse cx="54.6361" cy="895.2422" fill="#228B22" filter="url(#fkbhwyny0j49b)" rx="8" ry="8" style="stroke:#A80036;stroke-width:2;"/><path d="M54.6361,903.2422 L54.6361,930.2422 M41.6361,911.2422 L67.6361,911.2422 M54.6361,930.2422 L41.6361,945.2422 M54.6361,930.2422 L67.6361,945.2422" fill="none" filter="url(#fkbhwyny0j49b)" style="stroke:#A80036;stroke-width:2;"/><text fill="#4682B4" font-family="sans-serif" font-size="14" lengthAdjust="spacing" textLength="28" x="15.35" y="967.3496">Tom</text><text fill="#4682B4" font-family="sans-serif" font-size="14" lengthAdjust="spacing" textLength="3.8896" x="43.35" y="967.3496">&#160;</text><text fill="#4682B4" font-family="sans-serif" font-size="14" lengthAdjust="spacing" textLength="46.6826" x="47.2396" y="967.3496">Sawyer</text></g><!--entity huck--><g class="entity" data-entity="huck" data-source-line="17" data-uid="ent0006" id="entity_huck"><ellipse cx="273.6647" cy="968.9322" fill="#228B22" filter="url(#fkbhwyny0j49b)" rx="8" ry="8" style="stroke:#A80036;stroke-width:2;"/><path d="M273.6647,976.9322 L273.6647,1003.9322 M260.6647,984.9322 L286.6647,984.9322 M273.6647,1003.9322 L260.6647,1018.9322 M273.6647,1003.9322 L286.6647,1018.9322" fill="none" filter="url(#fkbhwyny0j49b)" style="stroke:#A80036;stroke-width:2;"/><text fill="#4682B4" font-family="sans-serif" font-size="14" lengthAdjust="spacing" textLength="74.6895" x="236.32" y="1041.0396">Huckleberry</text><text fill="#4682B4" font-family="sans-serif" font-size="14" lengthAdjust="spacing" textLength="27.2344" x="260.0475" y="1059.6607">Finn</text></g><!--entity sadie--><g class="entity" data-entity="sadie" data-source-line="21" data-uid="ent0008" id="entity_sadie"><ellipse cx="924.3374" cy="756.5533" fill="#B8860B" filter="url(#fkbhwyny0j49b)" rx="8" ry="8" style="stroke:#A80036;stroke-width:2;"/><path d="M924.3374,764.5533 L924.3374,791.5533 M911.3374,772.5533 L937.3374,772.5533 M924.3374,791.5533 L911.3374,806.5533 M924.3374,791.5533 L937.3374,806.5533" fill="none" filter="url(#fkbhwyny0j49b)" style="stroke:#A80036;stroke-width:2;"/><text fill="#4682B4" font-family="sans-serif" font-size="14" lengthAdjust="spacing" textLength="35.8066" x="906.4341" y="828.6607">Sadie</text><text fill="#4682B4" font-family="sans-serif" font-size="14" font-style="italic" lengthAdjust="spacing" textLength="48.2549" x="900.21" y="743.0396">&#171;slave&#187;</text></g><!--entity family--><g class="entity" data-entity="family" data-source-line="23" data-uid="ent0009" id="entity_family"><ellipse cx="731.7085" cy="740.0482" fill="#FFE0E0" rx="50.8285" ry="27.776" style="stroke:#A80036;stroke-width:1;"/><text fill="#4682B4" font-family="sans-serif" font-size="14" font-style="italic" lengthAdjust="spacing" textLength="51.3789" x="706.019" y="734.2705">&#171;group&#187;</text><text fill="#4682B4" font-family="sans-serif" font-size="14" lengthAdjust="spacing" textLength="31.4453" x="695.7617" y="752.8916">Jim's</text><text fill="#4682B4" font-family="sans-serif" font-size="14" lengthAdjust="spacing" textLength="3.8896" x="727.207" y="752.8916">&#160;</text><text fill="#4682B4" font-family="sans-serif" font-size="14" lengthAdjust="spacing" textLength="36.5586" x="731.0967" y="752.8916">family</text></g><!--entity lizzie--><g class="entity" data-entity="lizzie" data-source-line="28" data-uid="ent0012" id="entity_lizzie"><ellipse cx="924.3364" cy="617.5533" fill="#B8860B" filter="url(#fkbhwyny0j49b)" rx="8" ry="8" style="stroke:#A80036;stroke-width:2;"/><path d="M924.3364,625.5533 L924.3364,652.5533 M911.3364,633.5533 L937.3364,633.5533 M924.3364,652.5533 L911.3364,667.5533 M924.3364,652.5533 L937.3364,667.5533" fill="none" filter="url(#fkbhwyny0j49b)" style="stroke:#A80036;stroke-width:2;"/><text fill="#4682B4" font-family="sans-serif" font-size="14" lengthAdjust="spacing" textLength="57.5928" x="895.54" y="689.6607">Elizabeth</text><text fill="#4682B4" font-family="sans-serif" font-size="14" font-style="italic" lengthAdjust="spacing" textLength="48.2549" x="900.2089" y="604.0396">&#171;slave&#187;</text></g><!--entity judge--><g class="entity" data-entity="judge" data-source-line="32" data-uid="ent0014" id="entity_judge"><ellipse cx="54.6411" cy="203.2422" fill="#228B22" filter="url(#fkbhwyny0j49b)" rx="8" ry="8" style="stroke:#A80036;stroke-width:2;"/><path d="M54.6411,211.2422 L54.6411,238.2422 M41.6411,219.2422 L67.6411,219.2422 M54.6411,238.2422 L41.6411,253.2422 M54.6411,238.2422 L67.6411,253.2422" fill="none" filter="url(#fkbhwyny0j49b)" style="stroke:#A80036;stroke-width:2;"/><text fill="#4682B4" font-family="sans-serif" font-size="14" lengthAdjust="spacing" textLength="38.1445" x="6" y="275.3496">Judge</text><text fill="#4682B4" font-family="sans-serif" font-size="14" lengthAdjust="spacing" textLength="3.8896" x="44.1445" y="275.3496">&#160;</text><text fill="#4682B4" font-family="sans-serif" font-size="14" lengthAdjust="spacing" textLength="55.248" x="48.0342" y="275.3496">Thatcher</text></g><!--entity albert--><g class="entity" data-entity="albert" data-source-line="34" data-uid="ent0015" id="entity_albert"><ellipse cx="54.6374" cy="342.5533" fill="#228B22" filter="url(#fkbhwyny0j49b)" rx="8" ry="8" style="stroke:#A80036;stroke-width:2;"/><path d="M54.6374,350.5533 L54.6374,377.5533 M41.6374,358.5533 L67.6374,358.5533 M54.6374,377.5533 L41.6374,392.5533 M54.6374,377.5533 L67.6374,392.5533" fill="none" filter="url(#fkbhwyny0j49b)" style="stroke:#A80036;stroke-width:2;"/><text fill="#4682B4" font-family="sans-serif" font-size="14" lengthAdjust="spacing" textLength="36.5723" x="36.3513" y="414.6607">Albert</text><text fill="#4682B4" font-family="sans-serif" font-size="14" font-style="italic" lengthAdjust="spacing" textLength="48.2549" x="30.51" y="329.0396">&#171;slave&#187;</text></g><!--entity fire--><g class="entity" data-entity="fire" data-source-line="37" data-uid="ent0016" id="entity_fire"><ellipse cx="273.6595" cy="505.055" fill="#C9FFC9" rx="51.3795" ry="27.6329" style="stroke:#A80036;stroke-width:1;"/><text fill="#4682B4" font-family="sans-serif" font-size="14" font-style="italic" lengthAdjust="spacing" textLength="49.8203" x="248.7494" y="499.0595">&#171;event&#187;</text><text fill="#4682B4" font-family="sans-serif" font-size="14" lengthAdjust="spacing" textLength="24.1104" x="237.0872" y="517.6806">Fire</text><text fill="#4682B4" font-family="sans-serif" font-size="14" lengthAdjust="spacing" textLength="3.8896" x="261.1976" y="517.6806">&#160;</text><text fill="#4682B4" font-family="sans-serif" font-size="14" lengthAdjust="spacing" textLength="45.1445" x="265.0872" y="517.6806">outside</text></g><!--entity doris--><g class="entity" data-entity="doris" data-source-line="43" data-uid="ent0019" id="entity_doris"><ellipse cx="54.6374" cy="481.5533" fill="#228B22" filter="url(#fkbhwyny0j49b)" rx="8" ry="8" style="stroke:#A80036;stroke-width:2;"/><path d="M54.6374,489.5533 L54.6374,516.5533 M41.6374,497.5533 L67.6374,497.5533 M54.6374,516.5533 L41.6374,531.5533 M54.6374,516.5533 L67.6374,531.5533" fill="none" filter="url(#fkbhwyny0j49b)" style="stroke:#A80036;stroke-width:2;"/><text fill="#4682B4" font-family="sans-serif" font-size="14" lengthAdjust="spacing" textLength="32.6689" x="38.303" y="553.6607">Doris</text><text fill="#4682B4" font-family="sans-serif" font-size="14" font-style="italic" lengthAdjust="spacing" textLength="48.2549" x="30.51" y="468.0396">&#171;slave&#187;</text></g><!--entity luke--><g class="entity" data-entity="luke" data-source-line="47" data-uid="ent0021" id="entity_luke"><ellipse cx="54.6371" cy="620.5533" fill="#228B22" filter="url(#fkbhwyny0j49b)" rx="8" ry="8" style="stroke:#A80036;stroke-width:2;"/><path d="M54.6371,628.5533 L54.6371,655.5533 M41.6371,636.5533 L67.6371,636.5533 M54.6371,655.5533 L41.6371,670.5533 M54.6371,655.5533 L67.6371,670.5533" fill="none" filter="url(#fkbhwyny0j49b)" style="stroke:#A80036;stroke-width:2;"/><text fill="#4682B4" font-family="sans-serif" font-size="14" lengthAdjust="spacing" textLength="21.7861" x="26.62" y="692.6607">Old</text><text fill="#4682B4" font-family="sans-serif" font-size="14" lengthAdjust="spacing" textLength="3.8896" x="48.4061" y="692.6607">&#160;</text><text fill="#4682B4" font-family="sans-serif" font-size="14" lengthAdjust="spacing" textLength="30.3584" x="52.2958" y="692.6607">Luke</text><text fill="#4682B4" font-family="sans-serif" font-size="14" font-style="italic" lengthAdjust="spacing" textLength="48.2549" x="30.5096" y="607.0396">&#171;slave&#187;</text></g><!--entity skinny--><g class="entity" data-entity="skinny" data-source-line="51" data-uid="ent0023" id="entity_skinny"><ellipse cx="273.6574" cy="596.5533" fill="#228B22" filter="url(#fkbhwyny0j49b)" rx="8" ry="8" style="stroke:#A80036;stroke-width:2;"/><path d="M273.6574,604.5533 L273.6574,631.5533 M260.6574,612.5533 L286.6574,612.5533 M273.6574,631.5533 L260.6574,646.5533 M273.6574,631.5533 L286.6574,646.5533" fill="none" filter="url(#fkbhwyny0j49b)" style="stroke:#A80036;stroke-width:2;"/><text fill="#4682B4" font-family="sans-serif" font-size="14" lengthAdjust="spacing" textLength="42.0205" x="252.6472" y="668.6607">Skinny</text><text fill="#4682B4" font-family="sans-serif" font-size="14" font-style="italic" lengthAdjust="spacing" textLength="48.2549" x="249.53" y="583.0396">&#171;slave&#187;</text></g><!--entity lesson--><g class="entity" data-entity="lesson" data-source-line="54" data-uid="ent0025" id="entity_lesson"><ellipse cx="731.7087" cy="502.0572" fill="#C9FFC9" rx="44.6687" ry="36.335" style="stroke:#A80036;stroke-width:1;"/><text fill="#4682B4" font-family="sans-serif" font-size="14" font-style="italic" lengthAdjust="spacing" textLength="49.8203" x="706.7986" y="490.4558">&#171;event&#187;</text><text fill="#4682B4" font-family="sans-serif" font-size="14" lengthAdjust="spacing" textLength="57.6133" x="702.9021" y="509.0769">language</text><text fill="#4682B4" font-family="sans-serif" font-size="14" lengthAdjust="spacing" textLength="40.4688" x="711.4744" y="527.698">lesson</text></g><!--entity student1--><g class="entity" data-entity="student1" data-source-line="60" data-uid="ent0028" id="entity_student1"><ellipse cx="924.3374" cy="339.5533" fill="#228B22" filter="url(#fkbhwyny0j49b)" rx="8" ry="8" style="stroke:#A80036;stroke-width:2;"/><path d="M924.3374,347.5533 L924.3374,374.5533 M911.3374,355.5533 L937.3374,355.5533 M924.3374,374.5533 L911.3374,389.5533 M924.3374,374.5533 L937.3374,389.5533" fill="none" filter="url(#fkbhwyny0j49b)" style="stroke:#A80036;stroke-width:2;"/><text fill="#4682B4" font-family="sans-serif" font-size="14" lengthAdjust="spacing" textLength="31.1172" x="908.7788" y="411.6607">Virgil</text><text fill="#4682B4" font-family="sans-serif" font-size="14" font-style="italic" lengthAdjust="spacing" textLength="48.2549" x="900.21" y="326.0396">&#171;slave&#187;</text></g><!--entity student2--><g class="entity" data-entity="student2" data-source-line="61" data-uid="ent0029" id="entity_student2"><ellipse cx="924.3403" cy="478.5533" fill="#B8860B" filter="url(#fkbhwyny0j49b)" rx="8" ry="8" style="stroke:#A80036;stroke-width:2;"/><path d="M924.3403,486.5533 L924.3403,513.5533 M911.3403,494.5533 L937.3403,494.5533 M924.3403,513.5533 L911.3403,528.5533 M924.3403,513.5533 L937.3403,528.5533" fill="none" filter="url(#fkbhwyny0j49b)" style="stroke:#A80036;stroke-width:2;"/><text fill="#4682B4" font-family="sans-serif" font-size="14" lengthAdjust="spacing" textLength="56.0205" x="896.33" y="550.6607">February</text><text fill="#4682B4" font-family="sans-serif" font-size="14" font-style="italic" lengthAdjust="spacing" textLength="48.2549" x="900.2128" y="465.0396">&#171;slave&#187;</text></g><!--entity student3--><g class="entity" data-entity="student3" data-source-line="62" data-uid="ent0030" id="entity_student3"><ellipse cx="731.7074" cy="601.5533" fill="#FEFECE" filter="url(#fkbhwyny0j49b)" rx="8" ry="8" style="stroke:#A80036;stroke-width:2;"/><path d="M731.7074,609.5533 L731.7074,636.5533 M718.7074,617.5533 L744.7074,617.5533 M731.7074,636.5533 L718.7074,651.5533 M731.7074,636.5533 L744.7074,651.5533" fill="none" filter="url(#fkbhwyny0j49b)" style="stroke:#A80036;stroke-width:2;"/><text fill="#4682B4" font-family="sans-serif" font-size="14" lengthAdjust="spacing" textLength="49.8066" x="706.8041" y="673.6607">January</text><text fill="#4682B4" font-family="sans-serif" font-size="14" font-style="italic" lengthAdjust="spacing" textLength="48.2549" x="707.58" y="588.0396">&#171;slave&#187;</text></g><!--entity student4--><g class="entity" data-entity="student4" data-source-line="63" data-uid="ent0031" id="entity_student4"><ellipse cx="488.4574" cy="384.5533" fill="#B8860B" filter="url(#fkbhwyny0j49b)" rx="8" ry="8" style="stroke:#A80036;stroke-width:2;"/><path d="M488.4574,392.5533 L488.4574,419.5533 M475.4574,400.5533 L501.4574,400.5533 M488.4574,419.5533 L475.4574,434.5533 M488.4574,419.5533 L501.4574,434.5533" fill="none" filter="url(#fkbhwyny0j49b)" style="stroke:#A80036;stroke-width:2;"/><text fill="#4682B4" font-family="sans-serif" font-size="14" lengthAdjust="spacing" textLength="43.5791" x="466.6679" y="456.6607">Rachel</text><text fill="#4682B4" font-family="sans-serif" font-size="14" font-style="italic" lengthAdjust="spacing" textLength="48.2549" x="464.33" y="371.0396">&#171;slave&#187;</text></g><!--entity student5--><g class="entity" data-entity="student5" data-source-line="64" data-uid="ent0032" id="entity_student5"><ellipse cx="488.4574" cy="523.5533" fill="#B8860B" filter="url(#fkbhwyny0j49b)" rx="8" ry="8" style="stroke:#A80036;stroke-width:2;"/><path d="M488.4574,531.5533 L488.4574,558.5533 M475.4574,539.5533 L501.4574,539.5533 M488.4574,558.5533 L475.4574,573.5533 M488.4574,558.5533 L501.4574,573.5533" fill="none" filter="url(#fkbhwyny0j49b)" style="stroke:#A80036;stroke-width:2;"/><text fill="#4682B4" font-family="sans-serif" font-size="14" lengthAdjust="spacing" textLength="33.4482" x="471.7333" y="595.6607">Glory</text><text fill="#4682B4" font-family="sans-serif" font-size="14" font-style="italic" lengthAdjust="spacing" textLength="48.2549" x="464.33" y="510.0396">&#171;slave&#187;</text></g><!--entity father--><g class="entity" data-entity="father" data-source-line="72" data-uid="ent0038" id="entity_father"><ellipse cx="488.4626" cy="1017.31" fill="#228B22" rx="8" ry="8" style="stroke:#808080;stroke-width:2;"/><path d="M488.4626,1025.31 L488.4626,1052.31 M475.4626,1033.31 L501.4626,1033.31 M488.4626,1052.31 L475.4626,1067.31 M488.4626,1052.31 L501.4626,1067.31" fill="none" style="stroke:#808080;stroke-width:2;"/><text fill="#228B22" font-family="times new roman" font-size="14" font-style="italic" lengthAdjust="spacing" textLength="34.8838" x="452.55" y="1082.7856">Finn's</text><text fill="#228B22" font-family="times new roman" font-size="14" font-style="italic" lengthAdjust="spacing" textLength="3.5" x="487.4338" y="1082.7856">&#160;</text><text fill="#228B22" font-family="times new roman" font-size="14" font-style="italic" lengthAdjust="spacing" textLength="33.4414" x="490.9338" y="1082.7856">father</text><text fill="#228B22" font-family="times new roman" font-size="14" font-style="italic" lengthAdjust="spacing" textLength="65.3242" x="455.8005" y="988.7778">&#171;unnamed&#187;</text><text fill="#228B22" font-family="times new roman" font-size="14" font-style="italic" lengthAdjust="spacing" textLength="41.2139" x="467.8557" y="1004.2817">&#171;dead&#187;</text></g><!--entity widow--><g class="entity" data-entity="widow" data-source-line="76" data-uid="ent0040" id="entity_widow"><ellipse cx="54.6391" cy="82.2422" fill="#B8860B" filter="url(#fkbhwyny0j49b)" rx="8" ry="8" style="stroke:#A80036;stroke-width:2;"/><path d="M54.6391,90.2422 L54.6391,117.2422 M41.6391,98.2422 L67.6391,98.2422 M54.6391,117.2422 L41.6391,132.2422 M54.6391,117.2422 L67.6391,132.2422" fill="none" filter="url(#fkbhwyny0j49b)" style="stroke:#A80036;stroke-width:2;"/><text fill="#4682B4" font-family="sans-serif" font-size="14" lengthAdjust="spacing" textLength="38.9033" x="7.56" y="154.3496">widow</text><text fill="#4682B4" font-family="sans-serif" font-size="14" lengthAdjust="spacing" textLength="3.8896" x="46.4633" y="154.3496">&#160;</text><text fill="#4682B4" font-family="sans-serif" font-size="14" lengthAdjust="spacing" textLength="51.3652" x="50.353" y="154.3496">Douglas</text></g><!--entity bekkie--><g class="entity" data-entity="bekkie" data-source-line="78" data-uid="ent0041" id="entity_bekkie"><ellipse cx="273.6603" cy="203.2422" fill="#B8860B" filter="url(#fkbhwyny0j49b)" rx="8" ry="8" style="stroke:#A80036;stroke-width:2;"/><path d="M273.6603,211.2422 L273.6603,238.2422 M260.6603,219.2422 L286.6603,219.2422 M273.6603,238.2422 L260.6603,253.2422 M273.6603,238.2422 L286.6603,253.2422" fill="none" filter="url(#fkbhwyny0j49b)" style="stroke:#A80036;stroke-width:2;"/><text fill="#4682B4" font-family="sans-serif" font-size="14" lengthAdjust="spacing" textLength="42.0205" x="252.65" y="275.3496">Bessie</text></g><!--entity polly--><g class="entity" data-entity="polly" data-source-line="87" data-uid="ent0044" id="entity_polly"><ellipse cx="273.6624" cy="848.2422" fill="#B8860B" filter="url(#fkbhwyny0j49b)" rx="8" ry="8" style="stroke:#A80036;stroke-width:2;"/><path d="M273.6624,856.2422 L273.6624,883.2422 M260.6624,864.2422 L286.6624,864.2422 M273.6624,883.2422 L260.6624,898.2422 M273.6624,883.2422 L286.6624,898.2422" fill="none" filter="url(#fkbhwyny0j49b)" style="stroke:#A80036;stroke-width:2;"/><text fill="#4682B4" font-family="sans-serif" font-size="14" lengthAdjust="spacing" textLength="30.3447" x="258.49" y="920.3496">Polly</text></g><!--entity april--><g class="entity" data-entity="april" data-source-line="91" data-uid="ent0046" id="entity_april"><ellipse cx="488.4574" cy="865.5533" fill="#FEFECE" filter="url(#fkbhwyny0j49b)" rx="8" ry="8" style="stroke:#A80036;stroke-width:2;"/><path d="M488.4574,873.5533 L488.4574,900.5533 M475.4574,881.5533 L501.4574,881.5533 M488.4574,900.5533 L475.4574,915.5533 M488.4574,900.5533 L501.4574,915.5533" fill="none" filter="url(#fkbhwyny0j49b)" style="stroke:#A80036;stroke-width:2;"/><text fill="#4682B4" font-family="sans-serif" font-size="14" lengthAdjust="spacing" textLength="28.0068" x="474.454" y="937.6607">April</text><text fill="#4682B4" font-family="sans-serif" font-size="14" font-style="italic" lengthAdjust="spacing" textLength="48.2549" x="464.33" y="852.0396">&#171;slave&#187;</text></g><!--entity cotton--><g class="entity" data-entity="cotton" data-source-line="92" data-uid="ent0047" id="entity_cotton"><ellipse cx="731.7074" cy="922.5533" fill="#FEFECE" filter="url(#fkbhwyny0j49b)" rx="8" ry="8" style="stroke:#A80036;stroke-width:2;"/><path d="M731.7074,930.5533 L731.7074,957.5533 M718.7074,938.5533 L744.7074,938.5533 M731.7074,957.5533 L718.7074,972.5533 M731.7074,957.5533 L744.7074,972.5533" fill="none" filter="url(#fkbhwyny0j49b)" style="stroke:#A80036;stroke-width:2;"/><text fill="#4682B4" font-family="sans-serif" font-size="14" lengthAdjust="spacing" textLength="41.248" x="711.0834" y="994.6607">Cotton</text><text fill="#4682B4" font-family="sans-serif" font-size="14" font-style="italic" lengthAdjust="spacing" textLength="48.2549" x="707.58" y="909.0396">&#171;slave&#187;</text></g><!--entity old--><g class="entity" data-entity="old" data-source-line="94" data-uid="ent0048" id="entity_old"><ellipse cx="731.7126" cy="831.0485" fill="#FFE0E0" rx="45.3026" ry="28.3063" style="stroke:#A80036;stroke-width:1;"/><text fill="#4682B4" font-family="sans-serif" font-size="14" font-style="italic" lengthAdjust="spacing" textLength="51.3789" x="706.0231" y="826.064">&#171;group&#187;</text><text fill="#4682B4" font-family="sans-serif" font-size="14" lengthAdjust="spacing" textLength="18.6826" x="700.5851" y="844.6851">old</text><text fill="#4682B4" font-family="sans-serif" font-size="14" lengthAdjust="spacing" textLength="3.8896" x="719.2678" y="844.6851">&#160;</text><text fill="#4682B4" font-family="sans-serif" font-size="14" lengthAdjust="spacing" textLength="39.6826" x="723.1574" y="844.6851">slaves</text></g><!--link owner to jim--><g class="link" data-entity-1="owner" data-entity-2="jim" data-source-line="14" data-uid="lnk4" id="link_owner_jim"><path d="M314.19,748.2022 C351.33,746.4522 400.7566,744.1337 438.8666,742.3437" fill="none" id="owner-to-jim" style="stroke:#A80036;stroke-width:1;"/><polygon fill="#A80036" points="444.86,742.0622,435.6822,738.4889,439.8655,742.2968,436.0576,746.48,444.86,742.0622" style="stroke:#A80036;stroke-width:1;"/><text fill="#4682B4" font-family="sans-serif" font-size="13" lengthAdjust="spacing" textLength="39.73" x="365.54" y="739.6005">master</text></g><!--link tom to huck--><g class="link" data-entity-1="tom" data-entity-2="huck" data-source-line="19" data-uid="lnk7" id="link_tom_huck"><path d="M99.5441,944.8456 C139.5741,960.1556 190.7459,979.7288 230.2259,994.8288" fill="none" id="tom-huck" style="stroke:#A80036;stroke-width:1;"/><polygon fill="#A80036" points="93.94,942.7022,100.9172,949.6533,98.6101,944.4883,103.7751,942.1812,93.94,942.7022" style="stroke:#A80036;stroke-width:1;"/><polygon fill="#A80036" points="235.83,996.9722,228.8528,990.021,231.1599,995.186,225.9949,997.4931,235.83,996.9722" style="stroke:#A80036;stroke-width:1;"/><text fill="#4682B4" font-family="sans-serif" font-size="13" lengthAdjust="spacing" textLength="39.019" x="143.28" y="955.7105">friends</text></g><!--link jim to family--><g class="link" data-entity-1="jim" data-entity-2="family" data-source-line="25" data-uid="lnk10" id="link_jim_family"><path d="M532.31,740.0522 C573.88,740.0522 636.93,740.0522 680.76,740.0522" fill="none" id="jim-family" style="stroke:#A80036;stroke-width:1;"/></g><!--link family to sadie--><g class="link" data-entity-1="family" data-entity-2="sadie" data-source-line="26" data-uid="lnk11" id="link_family_sadie"><path d="M775.9,754.3222 C787.69,757.8622 800.53,761.4022 812.54,764.0522 C841.95,770.5622 876.36,775.0522 898.94,777.5922" fill="none" id="family-sadie" style="stroke:#A80036;stroke-width:1;"/><text fill="#4682B4" font-family="sans-serif" font-size="13" lengthAdjust="spacing" textLength="23.1182" x="827.54" y="760.0805">wife</text></g><!--link family to lizzie--><g class="link" data-entity-1="family" data-entity-2="lizzie" data-source-line="30" data-uid="lnk13" id="link_family_lizzie"><path d="M769.46,720.9722 C806.14,701.9222 861.71,673.0622 895.07,655.7422" fill="none" id="family-lizzie" style="stroke:#A80036;stroke-width:1;"/><text fill="#4682B4" font-family="sans-serif" font-size="13" lengthAdjust="spacing" textLength="51.3208" x="813.54" y="669.1105">daughter</text></g><!--link fire to jim--><g class="link" data-entity-1="fire" data-entity-2="jim" data-source-line="39" data-uid="lnk17" id="link_fire_jim"><path d="M302.21,528.4622 C309.8,535.2322 317.91,542.7622 325.04,550.0522 C367.99,593.9422 413.08,647.3622 444.82,686.3722" fill="none" id="fire-jim" style="stroke:#A80036;stroke-width:1;"/></g><!--link albert to fire--><g class="link" data-entity-1="albert" data-entity-2="fire" data-source-line="41" data-uid="lnk18" id="link_albert_fire"><path d="M80.11,381.7322 C119.25,406.7922 195.94,455.9222 239.81,484.0122" fill="none" id="albert-fire" style="stroke:#A80036;stroke-width:1;"/><text fill="#4682B4" font-family="sans-serif" font-size="13" lengthAdjust="spacing" textLength="33.9663" x="134.28" y="415.0505">called</text><text fill="#4682B4" font-family="sans-serif" font-size="13" lengthAdjust="spacing" textLength="3.6118" x="168.2463" y="415.0505">&#160;</text><text fill="#4682B4" font-family="sans-serif" font-size="13" lengthAdjust="spacing" textLength="20.2173" x="171.8581" y="415.0505">Jim</text></g><!--link doris to fire--><g class="link" data-entity-1="doris" data-entity-2="fire" data-source-line="45" data-uid="lnk20" id="link_doris_fire"><path d="M80.11,505.0522 C114.37,505.0522 177.41,505.0522 222.01,505.0522" fill="none" id="doris-fire" style="stroke:#A80036;stroke-width:1;"/></g><!--link luke to fire--><g class="link" data-entity-1="luke" data-entity-2="fire" data-source-line="49" data-uid="lnk22" id="link_luke_fire"><path d="M83.13,626.4522 C123.05,600.8822 196.96,553.5422 239.73,526.1422" fill="none" id="luke-fire" style="stroke:#A80036;stroke-width:1;"/></g><!--link fire to skinny--><g class="link" data-entity-1="fire" data-entity-2="skinny" data-source-line="52" data-uid="lnk24" id="link_fire_skinny"><path d="M273.66,532.8622 C273.66,544.4122 273.66,555.9522 273.66,567.5022" fill="none" id="fire-skinny" style="stroke:#A80036;stroke-width:1;"/></g><!--link jim to lesson--><g class="link" data-entity-1="jim" data-entity-2="lesson" data-source-line="56" data-uid="lnk26" id="link_jim_lesson"><path d="M532.31,697.7822 C581.46,649.2922 660.65,571.1722 702.57,529.8122" fill="none" id="jim-lesson" style="stroke:#A80036;stroke-width:1;"/><text fill="#4682B4" font-family="sans-serif" font-size="13" lengthAdjust="spacing" textLength="28.1899" x="592.38" y="581.8605">gave</text></g><!--link lesson to lizzie--><g class="link" data-entity-1="lesson" data-entity-2="lizzie" data-source-line="58" data-uid="lnk27" id="link_lesson_lizzie"><path d="M765.48,525.9522 C802.1,552.6522 860.77,595.4322 895.33,620.6322" fill="none" id="lesson-lizzie" style="stroke:#A80036;stroke-width:1;"/></g><!--link lesson to student1--><g class="link" data-entity-1="lesson" data-entity-2="student1" data-source-line="66" data-uid="lnk33" id="link_lesson_student1"><path d="M765.48,478.1622 C803.38,450.5322 864.89,405.6722 898.86,380.9022" fill="none" id="lesson-student1" style="stroke:#A80036;stroke-width:1;"/></g><!--link lesson to student2--><g class="link" data-entity-1="lesson" data-entity-2="student2" data-source-line="67" data-uid="lnk34" id="link_lesson_student2"><path d="M776.44,502.0522 C813.27,502.0522 864.79,502.0522 896.01,502.0522" fill="none" id="lesson-student2" style="stroke:#A80036;stroke-width:1;"/></g><!--link lesson to student3--><g class="link" data-entity-1="lesson" data-entity-2="student3" data-source-line="68" data-uid="lnk35" id="link_lesson_student3"><path d="M731.71,538.7522 C731.71,550.0622 731.71,561.3722 731.71,572.6822" fill="none" id="lesson-student3" style="stroke:#A80036;stroke-width:1;"/></g><!--link student4 to lesson--><g class="link" data-entity-1="student4" data-entity-2="lesson" data-source-line="69" data-uid="lnk36" id="link_student4_lesson"><path d="M513.92,417.5822 C555.61,433.8322 640.78,467.0122 691.06,486.6122" fill="none" id="student4-lesson" style="stroke:#A80036;stroke-width:1;"/></g><!--link student5 to lesson--><g class="link" data-entity-1="student5" data-entity-2="lesson" data-source-line="70" data-uid="lnk37" id="link_student5_lesson"><path d="M513.92,542.4922 C554.77,534.8722 637.37,519.4622 687.99,510.0222" fill="none" id="student5-lesson" style="stroke:#A80036;stroke-width:1;"/></g><!--reverse link huck to father--><g class="link" data-entity-1="huck" data-entity-2="father" data-source-line="74" data-uid="lnk39" id="link_huck_father"><path d="M317.2137,1015.0538 C356.6737,1018.7638 413.08,1024.0622 452.06,1027.7322" fill="none" id="huck-backto-father" style="stroke:#A80036;stroke-width:1;"/><polygon fill="#A80036" points="311.24,1014.4922,319.8261,1019.3171,316.218,1014.9602,320.5749,1011.3522,311.24,1014.4922" style="stroke:#A80036;stroke-width:1;"/><text fill="#4682B4" font-family="sans-serif" font-size="13" lengthAdjust="spacing" textLength="33.2427" x="368.54" y="1014.7005">father</text></g><!--reverse link judge to bekkie--><g class="link" data-entity-1="judge" data-entity-2="bekkie" data-source-line="80" data-uid="lnk42" id="link_judge_bekkie"><path d="M109.54,236.0522 C156.1,236.0522 218.58,236.0522 252.33,236.0522" fill="none" id="judge-backto-bekkie" style="stroke:#A80036;stroke-width:1;"/><polygon fill="#A80036" points="103.54,236.0522,112.54,240.0522,108.54,236.0522,112.54,232.0522,103.54,236.0522" style="stroke:#A80036;stroke-width:1;"/><text fill="#4682B4" font-family="sans-serif" font-size="13" lengthAdjust="spacing" textLength="51.3208" x="137.28" y="232.0805">daughter</text></g><!--link huck to jim--><g class="link" data-entity-1="huck" data-entity-2="jim" data-source-line="85" data-uid="lnk43" id="link_huck_jim"><path d="M315.195,959.4428 C352.305,912.1728 402.1246,848.7313 441.1646,799.0113" fill="none" id="huck-jim" style="stroke:#A80036;stroke-width:1;"/><polygon fill="#A80036" points="311.49,964.1622,320.1938,959.5531,314.5775,960.2294,313.9013,954.6131,311.49,964.1622" style="stroke:#A80036;stroke-width:1;"/><polygon fill="#A80036" points="444.87,794.2922,436.1658,798.9006,441.7821,798.2248,442.4579,803.8411,444.87,794.2922" style="stroke:#A80036;stroke-width:1;"/><text fill="#4682B4" font-family="sans-serif" font-size="13" lengthAdjust="spacing" textLength="14.46" x="356.04" y="814.4805">on</text><text fill="#4682B4" font-family="sans-serif" font-size="13" lengthAdjust="spacing" textLength="3.6118" x="370.5" y="814.4805">&#160;</text><text fill="#4682B4" font-family="sans-serif" font-size="13" lengthAdjust="spacing" textLength="18.0718" x="374.1118" y="814.4805">the</text><text fill="#4682B4" font-family="sans-serif" font-size="13" lengthAdjust="spacing" textLength="3.6118" x="392.1836" y="814.4805">&#160;</text><text fill="#4682B4" font-family="sans-serif" font-size="13" lengthAdjust="spacing" textLength="18.7891" x="395.7954" y="814.4805">run</text><text fill="#4682B4" font-family="sans-serif" font-size="13" lengthAdjust="spacing" textLength="47.7026" x="361.4609" y="831.7715">together</text></g><!--reverse link tom to polly--><g class="link" data-entity-1="tom" data-entity-2="polly" data-source-line="89" data-uid="lnk45" id="link_tom_polly"><path d="M99.8042,918.4927 C148.7242,907.9027 225.14,891.3522 258.23,884.1822" fill="none" id="tom-backto-polly" style="stroke:#A80036;stroke-width:1;"/><polygon fill="#A80036" points="93.94,919.7622,103.5826,921.7675,98.8268,918.7043,101.89,913.9486,93.94,919.7622" style="stroke:#A80036;stroke-width:1;"/><text fill="#4682B4" font-family="sans-serif" font-size="13" lengthAdjust="spacing" textLength="25.3018" x="150.28" y="894.9905">aunt</text></g><!--link jim to old--><g class="link" data-entity-1="jim" data-entity-2="old" data-source-line="96" data-uid="lnk49" id="link_jim_old"><path d="M532.31,756.2222 C577.67,773.3322 648.61,800.0922 692.24,816.5422" fill="none" id="jim-old" style="stroke:#A80036;stroke-width:1;"/><text fill="#4682B4" font-family="sans-serif" font-size="13" lengthAdjust="spacing" textLength="34.6899" x="562.88" y="765.5205">stolen</text><text fill="#4682B4" font-family="sans-serif" font-size="13" lengthAdjust="spacing" textLength="3.6118" x="597.5699" y="765.5205">&#160;</text><text fill="#4682B4" font-family="sans-serif" font-size="13" lengthAdjust="spacing" textLength="49.1372" x="601.1818" y="765.5205">firewood</text></g><!--link april to old--><g class="link" data-entity-1="april" data-entity-2="old" data-source-line="98" data-uid="lnk50" id="link_april_old"><path d="M513.92,883.1722 C555.01,873.3022 638.34,853.2622 688.87,841.1122" fill="none" id="april-old" style="stroke:#A80036;stroke-width:1;"/></g><!--link old to cotton--><g class="link" data-entity-1="old" data-entity-2="cotton" data-source-line="99" data-uid="lnk51" id="link_old_cotton"><path d="M731.71,859.8422 C731.71,871.0622 731.71,882.2822 731.71,893.5022" fill="none" id="old-cotton" style="stroke:#A80036;stroke-width:1;"/></g><g class="legend"><rect fill="none" height="30.6211" rx="7.5" ry="7.5" style="stroke:#000000;stroke-width:1;" width="126.3926" x="409.8701" y="1098.2856"/><text fill="#4682B4" font-family="sans-serif" font-size="14" lengthAdjust="spacing" textLength="114.3926" x="415.8701" y="1119.393">15.5% (Chapter 6)</text></g><!--SRC=[RLLBRzim3BxhLx15XwQ7n6YxxY1u1hfstH1iMB4Mst5GRCLM8qk17ZFINp_g4ITTSZ95VYG_ag9yScRTHl97vZhu2AUTSsjBYyAmOTOAr_c5jzpKMZcktApMVQ4bNrqNQycKyxsS2bLBtt1R6BwqHSTPOukU2LK8j9wIaso7NHf4iaQeTXOGX3ZX98SvwxabmN5fK8IwOuRLZXjB96-vQe32vStivXrCxZgsHWDyk224qEX8WLbu4Jr0MIfc37FQL1MSzKpoFskZ7Mkr4jOX_hkm5dupPxMANdfG6EjioGEMa7ISJYk8yIZqp68oT7pMFJonOSDDz7DuZF49_UhhbUGBRim67eHASJjKPW09s3B4Z4eAIoEm8ej1dx0JFE9ja92-bUml3zotZ2PpqPzRMB9UoCr5W2OHiQtHVbrLX0Igqsasa6n7HGfAOH1BZ4G_I_7A5jnrCICUNe-dt0N860eDyssN6Z7tJSlXkMEkxd8pNg8gLqjl9VR2HGEBudwEX26J1s4uQE-iQ7YgAYZAal_5YnPgYcUaWBKHakE46eEQGisav0tCWv7UQoFI7MY2T9WkgRCtEloG3NppgzHvYSAXIzJkF9vMEDXDcbGK3pmItsp50d51Mi-mBP9Rl6onnYJkLvadbmqKMWo9oTDn700I-2LCAsGYu72XbBiye40V-C9uPZRxiAiZ4yQjKV_ZhdSuGdyodEsRRE-FXVaYzTiWDyUkqwwQBVD3rTMe6lcGCVFO83AcsQcmQknut12tlOz9H2vUANmV6cHJbWq-ErMLnnitiOmx4w4q2nXk48qUu5xxLh9qgv9ch8T-minvRHTyjS856Mrf4qBWRDbVdVF9q0d7xSNUxfvFOh_Uw4PsLNw4i2z83ep7hsvv9lgefKpTNmTfHoA_DrcD2A_2qtUxDla6iI3jp_jEEvSVn3gAUqOoqRWkMvRXoSJZuUCJj1I7X_y75RTcqBh1pOsfafq4p3Hd8438Fm00]--></g></svg>