<svg xmlns="http://www.w3.org/2000/svg" xmlns:xlink="http://www.w3.org/1999/xlink" contentStyleType="text/css" data-diagram-type="DESCRIPTION" height="203px" preserveAspectRatio="none" style="width:419px;height:203px;" version="1.1" viewBox="0 0 419 203" width="419px" zoomAndPan="magnify"><title>The Story of a Brief Marriage</title><defs><filter height="300%" id="f9h1be97y2hk4" width="300%" x="-1" y="-1"><feGaussianBlur result="blurOut" stdDeviation="2"/><feColorMatrix in="blurOut" result="blurOut2" type="matrix" values="0 0 0 0 0 0 0 0 0 0 0 0 0 0 0 0 0 0 .4 0"/><feOffset dx="4" dy="4" in="blurOut2" result="blurOut3"/><feBlend in="SourceGraphic" in2="blurOut3" mode="normal"/></filter></defs><g><text fill="#4682B4" font-family="sans-serif" font-size="14" font-weight="bold" lengthAdjust="spacing" textLength="191.3789" x="104.7241" y="25.1074">The Story of a Brief Marriage</text><rect fill="none" height="157.4707" style="stroke:#A80036;stroke-width:1;" width="413.8271" x="0" y="39.6211"/><path d="M75.3584,39.6211 L75.3584,51.2422 L65.3584,61.2422 L0,61.2422" fill="none" style="stroke:#A80036;stroke-width:1;"/><text fill="#4682B4" font-family="sans-serif" font-size="14" lengthAdjust="spacing" textLength="65.3584" x="3" y="55.7285">characters</text><!--entity Dinesh--><g class="entity" data-entity="Dinesh" data-source-line="9" data-uid="ent0002" id="entity_Dinesh"><ellipse cx="49.4204" cy="104.877" fill="#FF00FF" filter="url(#f9h1be97y2hk4)" rx="8" ry="8" style="stroke:#A80036;stroke-width:2;"/><path d="M49.4204,112.877 L49.4204,139.877 M36.4204,120.877 L62.4204,120.877 M49.4204,139.877 L36.4204,154.877 M49.4204,139.877 L62.4204,154.877" fill="none" filter="url(#f9h1be97y2hk4)" style="stroke:#A80036;stroke-width:2;"/><text fill="#4682B4" font-family="sans-serif" font-size="14" lengthAdjust="spacing" textLength="43.5791" x="27.6309" y="176.9844">Dinesh</text><text fill="#4682B4" font-family="sans-serif" font-size="14" font-style="italic" lengthAdjust="spacing" textLength="84.8408" x="7" y="91.3633">&#171;protagonist&#187;</text></g><!--entity Somasundaram--><g class="entity" data-entity="Somasundaram" data-source-line="11" data-uid="ent0003" id="entity_Somasundaram"><ellipse cx="358.4136" cy="95.2559" fill="#FEFECE" filter="url(#f9h1be97y2hk4)" rx="8" ry="8" style="stroke:#A80036;stroke-width:2;"/><path d="M358.4136,103.2559 L358.4136,130.2559 M345.4136,111.2559 L371.4136,111.2559 M358.4136,130.2559 L345.4136,145.2559 M358.4136,130.2559 L371.4136,145.2559" fill="none" filter="url(#f9h1be97y2hk4)" style="stroke:#A80036;stroke-width:2;"/><text fill="#4682B4" font-family="sans-serif" font-size="14" lengthAdjust="spacing" textLength="98.8271" x="309" y="167.3633">Somasundaram</text></g><!--entity Ganga--><g class="entity" data-entity="Ganga" data-source-line="13" data-uid="ent0004" id="entity_Ganga"><ellipse cx="175.0171" cy="95.2559" fill="#FEFECE" filter="url(#f9h1be97y2hk4)" rx="8" ry="8" style="stroke:#A80036;stroke-width:2;"/><path d="M175.0171,103.2559 L175.0171,130.2559 M162.0171,111.2559 L188.0171,111.2559 M175.0171,130.2559 L162.0171,145.2559 M175.0171,130.2559 L188.0171,145.2559" fill="none" filter="url(#f9h1be97y2hk4)" style="stroke:#A80036;stroke-width:2;"/><text fill="#4682B4" font-family="sans-serif" font-size="14" lengthAdjust="spacing" textLength="42.0342" x="154" y="167.3633">Ganga</text></g><!--link Ganga to Somasundaram--><g class="link" data-entity-1="Ganga" data-entity-2="Somasundaram" data-source-line="15" data-uid="lnk5" id="link_Ganga_Somasundaram"><path d="M196.12,128.2559 C223.07,128.2559 265.77,128.2559 302.64,128.2559" fill="none" id="Ganga-to-Somasundaram" style="stroke:#A80036;stroke-width:1;"/><polygon fill="#A80036" points="308.64,128.2559,299.64,124.2559,303.64,128.2559,299.64,132.2559,308.64,128.2559" style="stroke:#A80036;stroke-width:1;"/><text fill="#4682B4" font-family="sans-serif" font-size="13" lengthAdjust="spacing" textLength="51.3208" x="227" y="124.2842">daughter</text></g><!--link Ganga to Dinesh--><g class="link" data-entity-1="Ganga" data-entity-2="Dinesh" data-source-line="17" data-uid="lnk6" id="link_Ganga_Dinesh"><path d="M153.94,117.9859 C137.5,114.9059 113.65,114.0259 93,115.3559" fill="none" id="Ganga-Dinesh" style="stroke:#A80036;stroke-width:1;"/></g><!--link Dinesh to Ganga--><g class="link" data-entity-1="Dinesh" data-entity-2="Ganga" data-source-line="18" data-uid="lnk7" id="link_Dinesh_Ganga"><path d="M93,140.4359 C113.65,141.6959 137.5,140.8659 153.94,137.9559" fill="none" id="Dinesh-Ganga" style="stroke:#A80036;stroke-width:1;"/></g><!--SRC=[LOtBIWGn44Nt-OgQmMrt5kx2s0iHN0d2-0DbKfq4ysWg5MJ-tZGghRkwTGxtdkwQt1AzeWHuW7CGsPhHcl5pzb52V- -DsDOYL6IsDUkQwEDURmcBz9ocM6pgZffcMfiEXAxfZB7eEEXPgTEF0CVEKD75ukTTKH8b4Rm5WgjKla5T0U6H8wtmWimHFQczS6NC13OWenNYffGoJx5G2mOkbusheAybDbcMGQurO-l53JkRaP-nU3HmNDEqm7yB33ZiFepolnhyhXnp-_ERA_K5]--></g></svg>