<svg xmlns="http://www.w3.org/2000/svg" xmlns:xlink="http://www.w3.org/1999/xlink" contentStyleType="text/css" data-diagram-type="DESCRIPTION" height="268px" preserveAspectRatio="none" style="width:465px;height:268px;" version="1.1" viewBox="0 0 465 268" width="465px" zoomAndPan="magnify"><title>The Story of a Brief Marriage</title><defs><filter height="300%" id="fuq1fu4dvw583" width="300%" x="-1" y="-1"><feGaussianBlur result="blurOut" stdDeviation="2"/><feColorMatrix in="blurOut" result="blurOut2" type="matrix" values="0 0 0 0 0 0 0 0 0 0 0 0 0 0 0 0 0 0 .4 0"/><feOffset dx="4" dy="4" in="blurOut2" result="blurOut3"/><feBlend in="SourceGraphic" in2="blurOut3" mode="normal"/></filter></defs><g><text fill="#4682B4" font-family="sans-serif" font-size="14" font-weight="bold" lengthAdjust="spacing" textLength="191.3789" x="127.7241" y="25.1074">The Story of a Brief Marriage</text><rect fill="none" height="222.5332" style="stroke:#A80036;stroke-width:1;" width="459.8271" x="0" y="39.6211"/><path d="M75.3584,39.6211 L75.3584,51.2422 L65.3584,61.2422 L0,61.2422" fill="none" style="stroke:#A80036;stroke-width:1;"/><text fill="#4682B4" font-family="sans-serif" font-size="14" lengthAdjust="spacing" textLength="65.3584" x="3" y="55.7285">characters</text><!--entity dinesh--><g class="entity" data-entity="dinesh" data-source-line="9" data-uid="ent0002" id="entity_dinesh"><ellipse cx="52.6997" cy="104.877" fill="#FF00FF" filter="url(#fuq1fu4dvw583)" rx="8" ry="8" style="stroke:#A80036;stroke-width:2;"/><path d="M52.6997,112.877 L52.6997,139.877 M39.6997,120.877 L65.6997,120.877 M52.6997,139.877 L39.6997,154.877 M52.6997,139.877 L65.6997,154.877" fill="none" filter="url(#fuq1fu4dvw583)" style="stroke:#A80036;stroke-width:2;"/><text fill="#4682B4" font-family="sans-serif" font-size="14" lengthAdjust="spacing" textLength="93.3994" x="6" y="176.9844">Dineshkanthan</text><text fill="#4682B4" font-family="sans-serif" font-size="14" font-style="italic" lengthAdjust="spacing" textLength="84.8408" x="10.2793" y="91.3633">&#171;protagonist&#187;</text></g><g class="entity" data-entity="GMN3" data-source-line="10" data-uid="ent0004" id="entity_GMN3"><path d="M22,215.7559 L22,243.0469 A0,0 0 0 0 22,243.0469 L83.4663,243.0469 A0,0 0 0 0 83.4663,243.0469 L83.4663,225.7559 L73.4663,215.7559 L56.5,215.7559 L52.5,180.3659 L48.5,215.7559 L22,215.7559 A0,0 0 0 0 22,215.7559" fill="#FBFB77" filter="url(#fuq1fu4dvw583)" style="stroke:#A80036;stroke-width:1;"/><path d="M73.4663,215.7559 L73.4663,225.7559 L83.4663,225.7559 L73.4663,215.7559" fill="#FBFB77" style="stroke:#A80036;stroke-width:1;"/><text fill="#4682B4" font-family="sans-serif" font-size="13" lengthAdjust="spacing" textLength="40.4663" x="28" y="234.7842">Dinesh</text></g><!--entity Somasundaram--><g class="entity" data-entity="Somasundaram" data-source-line="12" data-uid="ent0006" id="entity_Somasundaram"><ellipse cx="404.4136" cy="95.2559" fill="#FEFECE" filter="url(#fuq1fu4dvw583)" rx="8" ry="8" style="stroke:#A80036;stroke-width:2;"/><path d="M404.4136,103.2559 L404.4136,130.2559 M391.4136,111.2559 L417.4136,111.2559 M404.4136,130.2559 L391.4136,145.2559 M404.4136,130.2559 L417.4136,145.2559" fill="none" filter="url(#fuq1fu4dvw583)" style="stroke:#A80036;stroke-width:2;"/><text fill="#4682B4" font-family="sans-serif" font-size="14" lengthAdjust="spacing" textLength="98.8271" x="355" y="167.3633">Somasundaram</text></g><!--entity ganga--><g class="entity" data-entity="ganga" data-source-line="14" data-uid="ent0007" id="entity_ganga"><ellipse cx="201.2446" cy="95.2559" fill="#FEFECE" filter="url(#fuq1fu4dvw583)" rx="8" ry="8" style="stroke:#A80036;stroke-width:2;"/><path d="M201.2446,103.2559 L201.2446,130.2559 M188.2446,111.2559 L214.2446,111.2559 M201.2446,130.2559 L188.2446,145.2559 M201.2446,130.2559 L214.2446,145.2559" fill="none" filter="url(#fuq1fu4dvw583)" style="stroke:#A80036;stroke-width:2;"/><text fill="#4682B4" font-family="sans-serif" font-size="14" lengthAdjust="spacing" textLength="82.4893" x="160" y="167.3633">Gangeshwari</text></g><g class="entity" data-entity="GMN8" data-source-line="15" data-uid="ent0009" id="entity_GMN8"><path d="M171,206.7559 L171,234.0469 A0,0 0 0 0 171,234.0469 L231.0317,234.0469 A0,0 0 0 0 231.0317,234.0469 L231.0317,216.7559 L221.0317,206.7559 L205,206.7559 L201,171.4059 L197,206.7559 L171,206.7559 A0,0 0 0 0 171,206.7559" fill="#FBFB77" filter="url(#fuq1fu4dvw583)" style="stroke:#A80036;stroke-width:1;"/><path d="M221.0317,206.7559 L221.0317,216.7559 L231.0317,216.7559 L221.0317,206.7559" fill="#FBFB77" style="stroke:#A80036;stroke-width:1;"/><text fill="#4682B4" font-family="sans-serif" font-size="13" lengthAdjust="spacing" textLength="39.0317" x="177" y="225.7842">Ganga</text></g><!--link ganga to Somasundaram--><g class="link" data-entity-1="ganga" data-entity-2="Somasundaram" data-source-line="17" data-uid="lnk11" id="link_ganga_Somasundaram"><path d="M242.29,128.2559 C274.68,128.2559 314.29,128.2559 348.74,128.2559" fill="none" id="ganga-to-Somasundaram" style="stroke:#A80036;stroke-width:1;"/><polygon fill="#A80036" points="354.74,128.2559,345.74,124.2559,349.74,128.2559,345.74,132.2559,354.74,128.2559" style="stroke:#A80036;stroke-width:1;"/><text fill="#4682B4" font-family="sans-serif" font-size="13" lengthAdjust="spacing" textLength="51.3208" x="273" y="124.2842">daughter</text></g><!--link ganga to dinesh--><g class="link" data-entity-1="ganga" data-entity-2="dinesh" data-source-line="19" data-uid="lnk12" id="link_ganga_dinesh"><path d="M159.93,116.0759 C141.09,114.4659 118.54,114.3259 99.05,115.6559" fill="none" id="ganga-dinesh" style="stroke:#A80036;stroke-width:1;"/></g><!--link dinesh to ganga--><g class="link" data-entity-1="dinesh" data-entity-2="ganga" data-source-line="20" data-uid="lnk13" id="link_dinesh_ganga"><path d="M99.05,140.1559 C118.54,141.4059 141.09,141.2759 159.93,139.7659" fill="none" id="dinesh-ganga" style="stroke:#A80036;stroke-width:1;"/></g><!--SRC=[LOvDQiCm48NtEiKaT6jhqPr8lIY5h0A5z08JQoo9M2CZZGYvVHN74BASz_FDstqKkS_qY-BX2_PUP2b6wuottWNnzL8BvJ6n44i_fgZJJDTFlSp8KkFS1HxdQgdeJ5FHdj0M7J6m3itTAxNR0l3wqw9e0xl-4L4IP2RuymHdIVaEQGA4xnneWXFc7D2HUW2dZ95Wz9Xn5Cf5AML-0bFnrpR58nl00dPLu71OSX9qYKEHOG35IGWkIIH50yzQwvzJn5BPDcOqxJuYk-RSC8ULvjgDxztZAgdLWQuRu1q21YnMvzl2LsXRfRPnJNY2rJy0]--></g></svg>