<svg xmlns="http://www.w3.org/2000/svg" xmlns:xlink="http://www.w3.org/1999/xlink" contentStyleType="text/css" data-diagram-type="DESCRIPTION" height="919px" preserveAspectRatio="none" style="width:1237px;height:919px;" version="1.1" viewBox="0 0 1237 919" width="1237px" zoomAndPan="magnify"><title>&#1046;&#1077;&#1085;&#1097;&#1080;&#1085;&#1072; &#1074; &#1082;&#1083;&#1077;&#1090;&#1082;&#1077;</title><defs><filter height="300%" id="f1p8kx52hdpfja" width="300%" x="-1" y="-1"><feGaussianBlur result="blurOut" stdDeviation="2"/><feColorMatrix in="blurOut" result="blurOut2" type="matrix" values="0 0 0 0 0 0 0 0 0 0 0 0 0 0 0 0 0 0 .4 0"/><feOffset dx="4" dy="4" in="blurOut2" result="blurOut3"/><feBlend in="SourceGraphic" in2="blurOut3" mode="normal"/></filter></defs><g><text fill="#4682B4" font-family="sans-serif" font-size="14" font-weight="bold" lengthAdjust="spacing" textLength="127.2783" x="545.7031" y="25.1074">&#1046;&#1077;&#1085;&#1097;&#1080;&#1085;&#1072; &#1074; &#1082;&#1083;&#1077;&#1090;&#1082;&#1077;</text><rect fill="none" height="838.1998" style="stroke:#A80036;stroke-width:1;" width="1231.6846" x="0" y="39.6211"/><path d="M75.3584,39.6211 L75.3584,51.2422 L65.3584,61.2422 L0,61.2422" fill="none" style="stroke:#A80036;stroke-width:1;"/><text fill="#4682B4" font-family="sans-serif" font-size="14" lengthAdjust="spacing" textLength="65.3584" x="3" y="55.7285">characters</text><!--entity caged--><g class="entity" data-entity="caged" data-source-line="10" data-uid="ent0002" id="entity_caged"><ellipse cx="65.2104" cy="104.877" fill="#FFFF00" filter="url(#f1p8kx52hdpfja)" rx="8" ry="8" style="stroke:#A80036;stroke-width:2;"/><path d="M65.2104,112.877 L65.2104,139.877 M52.2104,120.877 L78.2104,120.877 M65.2104,139.877 L52.2104,154.877 M65.2104,139.877 L78.2104,154.877" fill="none" filter="url(#f1p8kx52hdpfja)" style="stroke:#A80036;stroke-width:2;"/><text fill="#4682B4" font-family="sans-serif" font-size="14" lengthAdjust="spacing" textLength="55.6309" x="37.395" y="176.9844">&#1052;&#1077;&#1088;&#1077;&#1090;&#1090;&#1072;</text><text fill="#4682B4" font-family="sans-serif" font-size="14" lengthAdjust="spacing" textLength="53.2041" x="38.6084" y="195.6055">&#1051;&#1102;&#1085;&#1075;&#1075;&#1086;&#1088;</text><text fill="#4682B4" font-family="sans-serif" font-size="14" font-style="italic" lengthAdjust="spacing" textLength="84.8408" x="22.79" y="91.3633">&#171;protagonist&#187;</text></g><!--entity he--><g class="entity" data-entity="he" data-source-line="12" data-uid="ent0003" id="entity_he"><ellipse cx="487.0404" cy="711.187" fill="#00FF00" filter="url(#f1p8kx52hdpfja)" rx="8" ry="8" style="stroke:#A80036;stroke-width:2;"/><path d="M487.0404,719.187 L487.0404,746.187 M474.0404,727.187 L500.0404,727.187 M487.0404,746.187 L474.0404,761.187 M487.0404,746.187 L500.0404,761.187" fill="none" filter="url(#f1p8kx52hdpfja)" style="stroke:#A80036;stroke-width:2;"/><text fill="#4682B4" font-family="sans-serif" font-size="14" lengthAdjust="spacing" textLength="31.8965" x="452.4677" y="783.2944">&#1050;&#1072;&#1088;&#1083;</text><text fill="#4682B4" font-family="sans-serif" font-size="14" lengthAdjust="spacing" textLength="3.8896" x="484.3641" y="783.2944">&#160;</text><text fill="#4682B4" font-family="sans-serif" font-size="14" lengthAdjust="spacing" textLength="33.3594" x="488.2538" y="783.2944">&#1052;&#1105;&#1088;&#1082;</text><text fill="#4682B4" font-family="sans-serif" font-size="14" font-style="italic" lengthAdjust="spacing" textLength="84.8408" x="444.62" y="697.6733">&#171;protagonist&#187;</text></g><!--entity wife--><g class="entity" data-entity="wife" data-source-line="14" data-uid="ent0004" id="entity_wife"><ellipse cx="755.0786" cy="636.8759" fill="#B8860B" filter="url(#f1p8kx52hdpfja)" rx="8" ry="8" style="stroke:#A80036;stroke-width:2;"/><path d="M755.0786,644.8759 L755.0786,671.8759 M742.0786,652.8759 L768.0786,652.8759 M755.0786,671.8759 L742.0786,686.8759 M755.0786,671.8759 L768.0786,686.8759" fill="none" filter="url(#f1p8kx52hdpfja)" style="stroke:#A80036;stroke-width:2;"/><text fill="#4682B4" font-family="sans-serif" font-size="14" lengthAdjust="spacing" textLength="35.1572" x="737.5" y="708.9833">&#1042;&#1080;&#1075;&#1075;&#1072;</text></g><!--entity paralized--><g class="entity" data-entity="paralized" data-source-line="17" data-uid="ent0006" id="entity_paralized"><ellipse cx="487.0397" cy="509.8759" fill="#228B22" filter="url(#f1p8kx52hdpfja)" rx="8" ry="8" style="stroke:#A80036;stroke-width:2;"/><path d="M487.0397,517.8759 L487.0397,544.8759 M474.0397,525.8759 L500.0397,525.8759 M487.0397,544.8759 L474.0397,559.8759 M487.0397,544.8759 L500.0397,559.8759" fill="none" filter="url(#f1p8kx52hdpfja)" style="stroke:#A80036;stroke-width:2;"/><text fill="#4682B4" font-family="sans-serif" font-size="14" lengthAdjust="spacing" textLength="40.8994" x="466.59" y="581.9833">&#1061;&#1072;&#1088;&#1076;&#1080;</text></g><g class="entity" data-entity="GMN7" data-source-line="18" data-uid="ent0008" id="entity_GMN7"><path d="M425.61,620.0359 L425.61,647.3269 A0,0 0 0 0 425.61,647.3269 L548.4772,647.3269 A0,0 0 0 0 548.4772,647.3269 L548.4772,630.0359 L538.4772,620.0359 L491.04,620.0359 L487.04,585.7759 L483.04,620.0359 L425.61,620.0359 A0,0 0 0 0 425.61,620.0359" fill="#FBFB77" filter="url(#f1p8kx52hdpfja)" style="stroke:#A80036;stroke-width:1;"/><path d="M538.4772,620.0359 L538.4772,630.0359 L548.4772,630.0359 L538.4772,620.0359" fill="#FBFB77" style="stroke:#A80036;stroke-width:1;"/><text fill="#4682B4" font-family="sans-serif" font-size="13" lengthAdjust="spacing" textLength="101.8672" x="431.61" y="639.0642">&#1087;&#1072;&#1088;&#1072;&#1083;&#1080;&#1079;&#1086;&#1074;&#1072;&#1085;&#1085;&#1099;&#1081;</text></g><!--entity anker--><g class="entity" data-entity="anker" data-source-line="20" data-uid="ent0010" id="entity_anker"><ellipse cx="65.2084" cy="618.187" fill="#228B22" rx="8" ry="8" style="stroke:#808080;stroke-width:2;"/><path d="M65.2084,626.187 L65.2084,653.187 M52.2084,634.187 L78.2084,634.187 M65.2084,653.187 L52.2084,668.187 M65.2084,653.187 L78.2084,668.187" fill="none" style="stroke:#808080;stroke-width:2;"/><text fill="#4682B4" font-family="sans-serif" font-size="14" lengthAdjust="spacing" textLength="38.7666" x="45.8251" y="686.2944">&#1040;&#1085;&#1082;&#1077;&#1088;</text><text fill="#4682B4" font-family="sans-serif" font-size="14" font-style="italic" lengthAdjust="spacing" textLength="46.7168" x="41.85" y="604.6733">&#171;dead&#187;</text></g><g class="entity" data-entity="shooting" data-source-line="22" data-uid="ent0011" id="entity_shooting"><ellipse cx="311.0108" cy="639.6866" fill="#C9FFC9" filter="url(#f1p8kx52hdpfja)" rx="53.5908" ry="28.0007" style="stroke:#A80036;stroke-width:1;"/><text fill="#4682B4" font-family="sans-serif" font-size="14" font-style="italic" lengthAdjust="spacing" textLength="49.8203" x="280.9439" y="634.7013">&#171;event&#187;</text><text fill="#4682B4" font-family="sans-serif" font-size="14" lengthAdjust="spacing" textLength="63.3623" x="274.1729" y="653.3224">&#1057;&#1090;&#1088;&#1077;&#1083;&#1100;&#1073;&#1072;</text></g><!--entity baggensen--><g class="entity" data-entity="baggensen" data-source-line="28" data-uid="ent0015" id="entity_baggensen"><ellipse cx="65.2109" cy="243.8759" fill="#228B22" filter="url(#f1p8kx52hdpfja)" rx="8" ry="8" style="stroke:#A80036;stroke-width:2;"/><path d="M65.2109,251.8759 L65.2109,278.8759 M52.2109,259.8759 L78.2109,259.8759 M65.2109,278.8759 L52.2109,293.8759 M65.2109,278.8759 L78.2109,293.8759" fill="none" filter="url(#f1p8kx52hdpfja)" style="stroke:#A80036;stroke-width:2;"/><text fill="#4682B4" font-family="sans-serif" font-size="14" lengthAdjust="spacing" textLength="29.2305" x="16.04" y="315.9833">&#1058;&#1072;&#1075;&#1077;</text><text fill="#4682B4" font-family="sans-serif" font-size="14" lengthAdjust="spacing" textLength="3.8896" x="45.2705" y="315.9833">&#160;</text><text fill="#4682B4" font-family="sans-serif" font-size="14" lengthAdjust="spacing" textLength="65.2217" x="49.1601" y="315.9833">&#1041;&#1072;&#1075;&#1075;&#1077;&#1085;&#1089;&#1077;&#1085;</text></g><!--entity secretary--><g class="entity" data-entity="secretary" data-source-line="30" data-uid="ent0016" id="entity_secretary"><ellipse cx="311.0104" cy="174.8759" fill="#B8860B" filter="url(#f1p8kx52hdpfja)" rx="8" ry="8" style="stroke:#A80036;stroke-width:2;"/><path d="M311.0104,182.8759 L311.0104,209.8759 M298.0104,190.8759 L324.0104,190.8759 M311.0104,209.8759 L298.0104,224.8759 M311.0104,209.8759 L324.0104,224.8759" fill="none" filter="url(#f1p8kx52hdpfja)" style="stroke:#A80036;stroke-width:2;"/><text fill="#4682B4" font-family="sans-serif" font-size="14" lengthAdjust="spacing" textLength="66.0898" x="264.55" y="246.9833">&#1052;&#1072;&#1088;&#1080;&#1072;&#1085;&#1085;&#1072;</text><text fill="#4682B4" font-family="sans-serif" font-size="14" lengthAdjust="spacing" textLength="3.8896" x="330.6398" y="246.9833">&#160;</text><text fill="#4682B4" font-family="sans-serif" font-size="14" lengthAdjust="spacing" textLength="22.9414" x="334.5295" y="246.9833">&#1050;&#1086;&#1093;</text></g><g class="entity" data-entity="murders" data-source-line="36" data-uid="ent0019" id="entity_murders"><ellipse cx="755.0779" cy="799.6897" fill="#F8E7C0" filter="url(#f1p8kx52hdpfja)" rx="78.6079" ry="52.0738" style="stroke:#A80036;stroke-width:1;"/><text fill="#4682B4" font-family="sans-serif" font-size="14" font-style="italic" lengthAdjust="spacing" textLength="74.7168" x="707.7092" y="776.5618">&#171;institution&#187;</text><text fill="#4682B4" font-family="sans-serif" font-size="14" lengthAdjust="spacing" textLength="41.4258" x="714.7263" y="795.1828">&#1054;&#1090;&#1076;&#1077;&#1083;</text><text fill="#4682B4" font-family="sans-serif" font-size="14" lengthAdjust="spacing" textLength="3.8896" x="756.1521" y="795.1828">&#160;</text><text fill="#4682B4" font-family="sans-serif" font-size="14" lengthAdjust="spacing" textLength="15.3672" x="760.0417" y="795.1828">&#1087;&#1086;</text><text fill="#4682B4" font-family="sans-serif" font-size="14" lengthAdjust="spacing" textLength="102.7578" x="693.6887" y="813.8039">&#1088;&#1072;&#1089;&#1089;&#1083;&#1077;&#1076;&#1086;&#1074;&#1072;&#1085;&#1080;&#1102;</text><text fill="#4682B4" font-family="sans-serif" font-size="14" lengthAdjust="spacing" textLength="51.5088" x="719.3132" y="832.425">&#1091;&#1073;&#1080;&#1081;&#1089;&#1090;&#1074;</text></g><!--entity moira--><g class="entity" data-entity="moira" data-source-line="38" data-uid="ent0020" id="entity_moira"><ellipse cx="984.9688" cy="757.5659" fill="#FEFECE" filter="url(#f1p8kx52hdpfja)" rx="8" ry="8" style="stroke:#A80036;stroke-width:2;"/><path d="M984.9688,765.5659 L984.9688,792.5659 M971.9688,773.5659 L997.9688,773.5659 M984.9688,792.5659 L971.9688,807.5659 M984.9688,792.5659 L997.9688,807.5659" fill="none" filter="url(#f1p8kx52hdpfja)" style="stroke:#A80036;stroke-width:2;"/><text fill="#4682B4" font-family="sans-serif" font-size="14" lengthAdjust="spacing" textLength="47.3594" x="961.2891" y="829.6733">&#1052;&#1072;&#1088;&#1082;&#1091;&#1089;</text><text fill="#4682B4" font-family="sans-serif" font-size="14" lengthAdjust="spacing" textLength="54.5576" x="957.69" y="848.2944">&#1071;&#1082;&#1086;&#1073;&#1089;&#1077;&#1085;</text></g><!--entity lars--><g class="entity" data-entity="lars" data-source-line="44" data-uid="ent0023" id="entity_lars"><ellipse cx="1187.9673" cy="766.8759" fill="#FEFECE" filter="url(#f1p8kx52hdpfja)" rx="8" ry="8" style="stroke:#A80036;stroke-width:2;"/><path d="M1187.9673,774.8759 L1187.9673,801.8759 M1174.9673,782.8759 L1200.9673,782.8759 M1187.9673,801.8759 L1174.9673,816.8759 M1187.9673,801.8759 L1200.9673,816.8759" fill="none" filter="url(#f1p8kx52hdpfja)" style="stroke:#A80036;stroke-width:2;"/><text fill="#4682B4" font-family="sans-serif" font-size="14" lengthAdjust="spacing" textLength="31.7598" x="1150.25" y="838.9833">&#1051;&#1072;&#1088;&#1089;</text><text fill="#4682B4" font-family="sans-serif" font-size="14" lengthAdjust="spacing" textLength="3.8896" x="1182.0098" y="838.9833">&#160;</text><text fill="#4682B4" font-family="sans-serif" font-size="14" lengthAdjust="spacing" textLength="39.7852" x="1185.8994" y="838.9833">&#1041;&#1100;&#1105;&#1088;&#1085;</text></g><!--entity vestegor--><g class="entity" data-entity="vestegor" data-source-line="48" data-uid="ent0025" id="entity_vestegor"><ellipse cx="65.2085" cy="364.8759" fill="#B8860B" filter="url(#f1p8kx52hdpfja)" rx="8" ry="8" style="stroke:#A80036;stroke-width:2;"/><path d="M65.2085,372.8759 L65.2085,399.8759 M52.2085,380.8759 L78.2085,380.8759 M65.2085,399.8759 L52.2085,414.8759 M65.2085,399.8759 L78.2085,414.8759" fill="none" filter="url(#f1p8kx52hdpfja)" style="stroke:#A80036;stroke-width:2;"/><text fill="#4682B4" font-family="sans-serif" font-size="14" lengthAdjust="spacing" textLength="25.3203" x="17.21" y="436.9833">&#1055;&#1080;&#1074;</text><text fill="#4682B4" font-family="sans-serif" font-size="14" lengthAdjust="spacing" textLength="3.8896" x="42.5303" y="436.9833">&#160;</text><text fill="#4682B4" font-family="sans-serif" font-size="14" lengthAdjust="spacing" textLength="66.7871" x="46.42" y="436.9833">&#1042;&#1077;&#1089;&#1090;&#1077;&#1088;&#1075;&#1086;&#1088;</text></g><g class="entity" data-entity="GMN26" data-source-line="49" data-uid="ent0027" id="entity_GMN26"><path d="M6,475.1059 L6,554.2699 A0,0 0 0 0 6,554.2699 L124.4238,554.2699 A0,0 0 0 0 124.4238,554.2699 L124.4238,485.1059 L114.4238,475.1059 L69.21,475.1059 L65.21,440.8259 L61.21,475.1059 L6,475.1059 A0,0 0 0 0 6,475.1059" fill="#FBFB77" filter="url(#f1p8kx52hdpfja)" style="stroke:#A80036;stroke-width:1;"/><path d="M114.4238,475.1059 L114.4238,485.1059 L124.4238,485.1059 L114.4238,475.1059" fill="#FBFB77" style="stroke:#A80036;stroke-width:1;"/><text fill="#4682B4" font-family="sans-serif" font-size="13" lengthAdjust="spacing" textLength="48.4453" x="12" y="494.1342">&#1044;&#1072;&#1090;&#1089;&#1082;&#1072;&#1103;</text><text fill="#4682B4" font-family="sans-serif" font-size="13" lengthAdjust="spacing" textLength="3.6118" x="60.4453" y="494.1342">&#160;</text><text fill="#4682B4" font-family="sans-serif" font-size="13" lengthAdjust="spacing" textLength="45.3667" x="64.0571" y="494.1342">&#1087;&#1072;&#1088;&#1090;&#1080;&#1103;,</text><text fill="#4682B4" font-family="sans-serif" font-size="13" lengthAdjust="spacing" textLength="62.626" x="12" y="511.4252">&#1076;&#1086;&#1082;&#1083;&#1072;&#1076;&#1095;&#1080;&#1082;</text><text fill="#4682B4" font-family="sans-serif" font-size="13" lengthAdjust="spacing" textLength="3.6118" x="74.626" y="511.4252">&#160;</text><text fill="#4682B4" font-family="sans-serif" font-size="13" lengthAdjust="spacing" textLength="14.2695" x="78.2378" y="511.4252">&#1087;&#1086;</text><text fill="#4682B4" font-family="sans-serif" font-size="13" lengthAdjust="spacing" textLength="57.0337" x="12" y="528.7162">&#1087;&#1088;&#1072;&#1074;&#1086;&#1074;&#1086;&#1081;</text><text fill="#4682B4" font-family="sans-serif" font-size="13" lengthAdjust="spacing" textLength="55.25" x="12" y="546.0072">&#1087;&#1086;&#1083;&#1080;&#1090;&#1080;&#1082;&#1077;</text></g><!--reverse link he to wife--><g class="link" data-entity-1="he" data-entity-2="wife" data-source-line="15" data-uid="lnk5" id="link_he_wife"><path d="M536.6085,722.8214 C596.3885,708.2114 696.4,683.7759 737.3,673.7859" fill="none" id="he-backto-wife" style="stroke:#A80036;stroke-width:1;"/><polygon fill="#A80036" points="530.78,724.2459,540.4723,725.9948,535.637,723.0588,538.5731,718.2235,530.78,724.2459" style="stroke:#A80036;stroke-width:1;"/><text fill="#4682B4" font-family="sans-serif" font-size="13" lengthAdjust="spacing" textLength="6.9063" x="579.47" y="675.3942">&#1074;</text><text fill="#4682B4" font-family="sans-serif" font-size="13" lengthAdjust="spacing" textLength="3.6118" x="586.3763" y="675.3942">&#160;</text><text fill="#4682B4" font-family="sans-serif" font-size="13" lengthAdjust="spacing" textLength="56.4053" x="589.9881" y="675.3942">&#1087;&#1088;&#1086;&#1094;&#1077;&#1089;&#1089;&#1077;</text><text fill="#4682B4" font-family="sans-serif" font-size="13" lengthAdjust="spacing" textLength="49.3721" x="588.2456" y="692.6852">&#1088;&#1072;&#1079;&#1074;&#1086;&#1076;&#1072;</text></g><!--link anker to shooting--><g class="link" data-entity-1="anker" data-entity-2="shooting" data-source-line="24" data-uid="lnk12" id="link_anker_shooting"><path d="M90.03,639.6859 C128.49,639.6859 205.2,639.6859 257.07,639.6859" fill="none" id="anker-shooting" style="stroke:#A80036;stroke-width:1;"/></g><!--link shooting to paralized--><g class="link" data-entity-1="shooting" data-entity-2="paralized" data-source-line="25" data-uid="lnk13" id="link_shooting_paralized"><path d="M348.5,619.3459 C384.38,599.3559 437.8,569.5759 466.36,553.6559" fill="none" id="shooting-paralized" style="stroke:#A80036;stroke-width:1;"/></g><!--link shooting to he--><g class="link" data-entity-1="shooting" data-entity-2="he" data-source-line="26" data-uid="lnk14" id="link_shooting_he"><path d="M348.92,659.8359 C376.56,674.9159 414.42,695.5859 443.36,711.3859" fill="none" id="shooting-he" style="stroke:#A80036;stroke-width:1;"/></g><!--reverse link caged to secretary--><g class="link" data-entity-1="caged" data-entity-2="secretary" data-source-line="32" data-uid="lnk17" id="link_caged_secretary"><path d="M114.7269,151.6121 C158.2869,164.1221 219.85,181.7959 264.42,194.5959" fill="none" id="caged-backto-secretary" style="stroke:#A80036;stroke-width:1;"/><polygon fill="#A80036" points="108.96,149.9559,116.5062,156.2847,113.7657,151.336,118.7145,148.5956,108.96,149.9559" style="stroke:#A80036;stroke-width:1;"/><text fill="#4682B4" font-family="sans-serif" font-size="13" lengthAdjust="spacing" textLength="71.9507" x="155.42" y="160.3842">&#1089;&#1077;&#1082;&#1088;&#1077;&#1090;&#1072;&#1088;&#1096;&#1072;</text></g><!--reverse link baggensen to secretary--><g class="link" data-entity-1="baggensen" data-entity-2="secretary" data-source-line="34" data-uid="lnk18" id="link_baggensen_secretary"><path d="M120.4433,261.3323 C163.9133,249.0323 221.46,232.7459 264.12,220.6759" fill="none" id="baggensen-backto-secretary" style="stroke:#A80036;stroke-width:1;"/><polygon fill="#A80036" points="114.67,262.9659,124.4191,264.3644,119.4811,261.6045,122.2409,256.6666,114.67,262.9659" style="stroke:#A80036;stroke-width:1;"/><text fill="#4682B4" font-family="sans-serif" font-size="13" lengthAdjust="spacing" textLength="48.6357" x="166.92" y="228.0042">&#1089;&#1074;&#1072;&#1090;&#1072;&#1083;&#1072;</text></g><!--link murders to moira--><g class="link" data-entity-1="murders" data-entity-2="moira" data-source-line="40" data-uid="lnk21" id="link_murders_moira"><path d="M834.19,799.6859 C876.96,799.6859 927.24,799.6859 957.31,799.6859" fill="none" id="murders-moira" style="stroke:#A80036;stroke-width:1;"/><text fill="#4682B4" font-family="sans-serif" font-size="13" lengthAdjust="spacing" textLength="62.8989" x="864.69" y="795.7142">&#1085;&#1072;&#1095;&#1072;&#1083;&#1100;&#1085;&#1080;&#1082;</text></g><!--link he to murders--><g class="link" data-entity-1="he" data-entity-2="murders" data-source-line="42" data-uid="lnk22" id="link_he_murders"><path d="M530.78,745.1259 C571.18,754.9959 632.6,770.0059 680.8,781.7859" fill="none" id="he-murders" style="stroke:#A80036;stroke-width:1;"/></g><!--reverse link moira to lars--><g class="link" data-entity-1="moira" data-entity-2="lars" data-source-line="46" data-uid="lnk24" id="link_moira_lars"><path d="M1018.66,799.6859 C1053.9,799.6859 1110.12,799.6859 1149.91,799.6859" fill="none" id="moira-backto-lars" style="stroke:#A80036;stroke-width:1;"/><polygon fill="#A80036" points="1012.66,799.6859,1021.66,803.6859,1017.66,799.6859,1021.66,795.6859,1012.66,799.6859" style="stroke:#A80036;stroke-width:1;"/><text fill="#4682B4" font-family="sans-serif" font-size="13" lengthAdjust="spacing" textLength="76.6162" x="1043.25" y="795.7142">&#1079;&#1072;&#1084;&#1077;&#1089;&#1090;&#1080;&#1090;&#1077;&#1083;&#1100;</text></g><rect fill="none" height="30.6211" rx="7.5" ry="7.5" style="stroke:#000000;stroke-width:1;" width="43.9102" x="587.3872" y="872.7635"/><text fill="#4682B4" font-family="sans-serif" font-size="14" lengthAdjust="spacing" textLength="31.9102" x="593.3872" y="893.8709">2.3%</text><!--SRC=[RLFRJjj047tVhrWGbLgfn59vYsY-eNzGBSx6jl0biZSW-aI2UbCH55JrWQ9MhTJd6aX4C2NymkmVzSmwJeg48iVUtJDdvvoPMLahp5wiNoaJofToDJIcNxGzBrUxhI0ouM1hKEZSprAZKzFoiyJBOhszuVLZbPf14gz7gHyFkhhmSjqhl52hBd-gRfG6NWJ0gX0hSunSNjL0MWmHmaGcrfA-qeJkx4UQqXsLaYubLNHB4pl2Uo8I5QMzN2LQ-g7AbMzqNeXO1phjohPyqTfu8aIRpe7VvnX4WUERFGBP5Nupkz-Mgf2-2dHNohMUJbIiN_VppAWWIwF2SFWPbGY_bNHkJ_1HkP0GgJy6FaMcJ5qwr6xKqmsjGCZc-dgzrtPIxa4ti- -Gsj0EQIAnBEcQBcb6OogPxhUxUqnJHzU7nZXwWrpTtIBDZ9PRcJ5P0i9xXorXpnGaCz2Kq7bdFz4DKtt6ec8d79LAjtKkDpUxCBtJcVE9f_GJBi4hkhM7T47bCyOMOPOPL0PmlOEQTpf2rF6GqnoA1GgRYqGVx8QQy_Y5jAuWbaxSnvKhy93_NM9RAa3v2fqsEN7zMDYqbiCLF8DhRnswq7wkZSht5YwBkfZizFAmBTqDLTq6J6S_iC7Bonx1mp_6mi-IdVcEnPYTOQTdhbQkREX6x3TsJ-sHj0UmRaetE1xHfRCm6UHTz2OSZD82hJqmKPQoZuswoXxOeQG_AD6CBlxp8ycYN0dH421DjyCT12_iUquGjSBDL0dkCKRKO6R_viI2-SGUklQjMMF5npKJI-SrKrw3xg_hnn6aZEf6O9uVu4V7dixFUA2MyxEZ2wE3B5yKuM5ZVc4Z8Qd2-tZUfux_-Bbqrl58bpI668YexNMpKRfHuEV6xN9hSw2RVV4F]--></g></svg>