<svg xmlns="http://www.w3.org/2000/svg" xmlns:xlink="http://www.w3.org/1999/xlink" contentStyleType="text/css" data-diagram-type="DESCRIPTION" height="1319px" preserveAspectRatio="none" style="width:1598px;height:1319px;" version="1.1" viewBox="0 0 1598 1319" width="1598px" zoomAndPan="magnify"><title>&#1046;&#1077;&#1085;&#1097;&#1080;&#1085;&#1072; &#1074; &#1082;&#1083;&#1077;&#1090;&#1082;&#1077;</title><defs><filter height="300%" id="f1ki4kzytgzo2f" width="300%" x="-1" y="-1"><feGaussianBlur result="blurOut" stdDeviation="2"/><feColorMatrix in="blurOut" result="blurOut2" type="matrix" values="0 0 0 0 0 0 0 0 0 0 0 0 0 0 0 0 0 0 .4 0"/><feOffset dx="4" dy="4" in="blurOut2" result="blurOut3"/><feBlend in="SourceGraphic" in2="blurOut3" mode="normal"/></filter></defs><g><text fill="#4682B4" font-family="sans-serif" font-size="14" font-weight="bold" lengthAdjust="spacing" textLength="127.2783" x="726.035" y="25.1074">&#1046;&#1077;&#1085;&#1097;&#1080;&#1085;&#1072; &#1074; &#1082;&#1083;&#1077;&#1090;&#1082;&#1077;</text><rect fill="none" height="1242.2307" style="stroke:#A80036;stroke-width:1;" width="1592.3483" x="0" y="39.6211"/><path d="M75.3584,39.6211 L75.3584,51.2422 L65.3584,61.2422 L0,61.2422" fill="none" style="stroke:#A80036;stroke-width:1;"/><text fill="#4682B4" font-family="sans-serif" font-size="14" lengthAdjust="spacing" textLength="65.3584" x="3" y="55.7285">characters</text><!--entity caged--><g class="entity" data-entity="caged" data-source-line="13" data-uid="ent0002" id="entity_caged"><ellipse cx="350.5304" cy="463.2433" fill="#FFFF00" filter="url(#f1ki4kzytgzo2f)" rx="8" ry="8" style="stroke:#A80036;stroke-width:2;"/><path d="M350.5304,471.2433 L350.5304,498.2433 M337.5304,479.2433 L363.5304,479.2433 M350.5304,498.2433 L337.5304,513.2433 M350.5304,498.2433 L363.5304,513.2433" fill="none" filter="url(#f1ki4kzytgzo2f)" style="stroke:#A80036;stroke-width:2;"/><text fill="#4682B4" font-family="sans-serif" font-size="14" lengthAdjust="spacing" textLength="55.6309" x="322.715" y="535.3507">&#1052;&#1077;&#1088;&#1077;&#1090;&#1090;&#1072;</text><text fill="#4682B4" font-family="sans-serif" font-size="14" lengthAdjust="spacing" textLength="53.2041" x="323.9284" y="553.9718">&#1051;&#1102;&#1085;&#1075;&#1075;&#1086;&#1088;</text><text fill="#4682B4" font-family="sans-serif" font-size="14" font-style="italic" lengthAdjust="spacing" textLength="84.8408" x="308.11" y="449.7296">&#171;protagonist&#187;</text></g><!--entity he--><g class="entity" data-entity="he" data-source-line="15" data-uid="ent0003" id="entity_he"><ellipse cx="610.7604" cy="913.5533" fill="#00FF00" filter="url(#f1ki4kzytgzo2f)" rx="8" ry="8" style="stroke:#A80036;stroke-width:2;"/><path d="M610.7604,921.5533 L610.7604,948.5533 M597.7604,929.5533 L623.7604,929.5533 M610.7604,948.5533 L597.7604,963.5533 M610.7604,948.5533 L623.7604,963.5533" fill="none" filter="url(#f1ki4kzytgzo2f)" style="stroke:#A80036;stroke-width:2;"/><text fill="#4682B4" font-family="sans-serif" font-size="14" lengthAdjust="spacing" textLength="31.8965" x="576.1877" y="985.6607">&#1050;&#1072;&#1088;&#1083;</text><text fill="#4682B4" font-family="sans-serif" font-size="14" lengthAdjust="spacing" textLength="3.8896" x="608.0841" y="985.6607">&#160;</text><text fill="#4682B4" font-family="sans-serif" font-size="14" lengthAdjust="spacing" textLength="33.3594" x="611.9738" y="985.6607">&#1052;&#1105;&#1088;&#1082;</text><text fill="#4682B4" font-family="sans-serif" font-size="14" font-style="italic" lengthAdjust="spacing" textLength="84.8408" x="568.34" y="900.0396">&#171;protagonist&#187;</text></g><!--entity wife--><g class="entity" data-entity="wife" data-source-line="17" data-uid="ent0004" id="entity_wife"><ellipse cx="350.5286" cy="904.2422" fill="#B8860B" filter="url(#f1ki4kzytgzo2f)" rx="8" ry="8" style="stroke:#A80036;stroke-width:2;"/><path d="M350.5286,912.2422 L350.5286,939.2422 M337.5286,920.2422 L363.5286,920.2422 M350.5286,939.2422 L337.5286,954.2422 M350.5286,939.2422 L363.5286,954.2422" fill="none" filter="url(#f1ki4kzytgzo2f)" style="stroke:#A80036;stroke-width:2;"/><text fill="#4682B4" font-family="sans-serif" font-size="14" lengthAdjust="spacing" textLength="35.1572" x="332.95" y="976.3496">&#1042;&#1080;&#1075;&#1075;&#1072;</text></g><!--entity paralized--><g class="entity" data-entity="paralized" data-source-line="20" data-uid="ent0006" id="entity_paralized"><ellipse cx="610.7613" cy="1033.9322" fill="#228B22" filter="url(#f1ki4kzytgzo2f)" rx="8" ry="8" style="stroke:#A80036;stroke-width:2;"/><path d="M610.7613,1041.9322 L610.7613,1068.9322 M597.7613,1049.9322 L623.7613,1049.9322 M610.7613,1068.9322 L597.7613,1083.9322 M610.7613,1068.9322 L623.7613,1083.9322" fill="none" filter="url(#f1ki4kzytgzo2f)" style="stroke:#A80036;stroke-width:2;"/><text fill="#4682B4" font-family="sans-serif" font-size="14" lengthAdjust="spacing" textLength="40.8994" x="590.3116" y="1106.0396">&#1061;&#1072;&#1088;&#1076;&#1080;</text><text fill="#4682B4" font-family="sans-serif" font-size="14" lengthAdjust="spacing" textLength="75.7627" x="572.88" y="1124.6607">&#1061;&#1077;&#1085;&#1085;&#1080;&#1085;&#1075;&#1089;&#1077;&#1085;</text></g><g class="entity" data-entity="GMN7" data-source-line="21" data-uid="ent0008" id="entity_GMN7"><path d="M731.59,1062.4022 L731.59,1072.0522 L649.11,1076.0522 L731.59,1080.0522 L731.59,1089.6932 A0,0 0 0 0 731.59,1089.6932 L854.4572,1089.6932 A0,0 0 0 0 854.4572,1089.6932 L854.4572,1072.4022 L844.4572,1062.4022 L731.59,1062.4022 A0,0 0 0 0 731.59,1062.4022" fill="#FBFB77" filter="url(#f1ki4kzytgzo2f)" style="stroke:#A80036;stroke-width:1;"/><path d="M844.4572,1062.4022 L844.4572,1072.4022 L854.4572,1072.4022 L844.4572,1062.4022" fill="#FBFB77" style="stroke:#A80036;stroke-width:1;"/><text fill="#4682B4" font-family="sans-serif" font-size="13" lengthAdjust="spacing" textLength="101.8672" x="737.59" y="1081.4305">&#1087;&#1072;&#1088;&#1072;&#1083;&#1080;&#1079;&#1086;&#1074;&#1072;&#1085;&#1085;&#1099;&#1081;</text></g><!--entity anker--><g class="entity" data-entity="anker" data-source-line="23" data-uid="ent0010" id="entity_anker"><ellipse cx="70.0584" cy="1189.5533" fill="#228B22" rx="8" ry="8" style="stroke:#808080;stroke-width:2;"/><path d="M70.0584,1197.5533 L70.0584,1224.5533 M57.0584,1205.5533 L83.0584,1205.5533 M70.0584,1224.5533 L57.0584,1239.5533 M70.0584,1224.5533 L83.0584,1239.5533" fill="none" style="stroke:#808080;stroke-width:2;"/><text fill="#4682B4" font-family="sans-serif" font-size="14" lengthAdjust="spacing" textLength="38.7666" x="50.6751" y="1257.6607">&#1040;&#1085;&#1082;&#1077;&#1088;</text><text fill="#4682B4" font-family="sans-serif" font-size="14" font-style="italic" lengthAdjust="spacing" textLength="46.7168" x="46.7" y="1176.0396">&#171;dead&#187;</text></g><g class="entity" data-entity="shooting" data-source-line="25" data-uid="ent0011" id="entity_shooting"><ellipse cx="350.5341" cy="1076.0558" fill="#C9FFC9" filter="url(#f1ki4kzytgzo2f)" rx="66.0941" ry="27.3536" style="stroke:#A80036;stroke-width:1;"/><text fill="#4682B4" font-family="sans-serif" font-size="14" font-style="italic" lengthAdjust="spacing" textLength="49.8203" x="320.0971" y="1069.8444">&#171;event&#187;</text><text fill="#4682B4" font-family="sans-serif" font-size="14" lengthAdjust="spacing" textLength="84.4854" x="302.7646" y="1088.4655">&#1055;&#1077;&#1088;&#1077;&#1089;&#1090;&#1088;&#1077;&#1083;&#1082;&#1072;</text></g><!--entity baggensen--><g class="entity" data-entity="baggensen" data-source-line="31" data-uid="ent0015" id="entity_baggensen"><ellipse cx="350.5309" cy="324.2422" fill="#228B22" filter="url(#f1ki4kzytgzo2f)" rx="8" ry="8" style="stroke:#A80036;stroke-width:2;"/><path d="M350.5309,332.2422 L350.5309,359.2422 M337.5309,340.2422 L363.5309,340.2422 M350.5309,359.2422 L337.5309,374.2422 M350.5309,359.2422 L363.5309,374.2422" fill="none" filter="url(#f1ki4kzytgzo2f)" style="stroke:#A80036;stroke-width:2;"/><text fill="#4682B4" font-family="sans-serif" font-size="14" lengthAdjust="spacing" textLength="29.2305" x="301.36" y="396.3496">&#1058;&#1072;&#1075;&#1077;</text><text fill="#4682B4" font-family="sans-serif" font-size="14" lengthAdjust="spacing" textLength="3.8896" x="330.5905" y="396.3496">&#160;</text><text fill="#4682B4" font-family="sans-serif" font-size="14" lengthAdjust="spacing" textLength="65.2217" x="334.4801" y="396.3496">&#1041;&#1072;&#1075;&#1075;&#1077;&#1085;&#1089;&#1077;&#1085;</text></g><!--entity secretary--><g class="entity" data-entity="secretary" data-source-line="33" data-uid="ent0016" id="entity_secretary"><ellipse cx="610.7604" cy="339.2422" fill="#B8860B" filter="url(#f1ki4kzytgzo2f)" rx="8" ry="8" style="stroke:#A80036;stroke-width:2;"/><path d="M610.7604,347.2422 L610.7604,374.2422 M597.7604,355.2422 L623.7604,355.2422 M610.7604,374.2422 L597.7604,389.2422 M610.7604,374.2422 L623.7604,389.2422" fill="none" filter="url(#f1ki4kzytgzo2f)" style="stroke:#A80036;stroke-width:2;"/><text fill="#4682B4" font-family="sans-serif" font-size="14" lengthAdjust="spacing" textLength="66.0898" x="564.3" y="411.3496">&#1052;&#1072;&#1088;&#1080;&#1072;&#1085;&#1085;&#1072;</text><text fill="#4682B4" font-family="sans-serif" font-size="14" lengthAdjust="spacing" textLength="3.8896" x="630.3898" y="411.3496">&#160;</text><text fill="#4682B4" font-family="sans-serif" font-size="14" lengthAdjust="spacing" textLength="22.9414" x="634.2795" y="411.3496">&#1050;&#1086;&#1093;</text></g><g class="entity" data-entity="murders" data-source-line="39" data-uid="ent0019" id="entity_murders"><ellipse cx="1101.0579" cy="1006.056" fill="#F8E7C0" filter="url(#f1ki4kzytgzo2f)" rx="78.6079" ry="52.0738" style="stroke:#A80036;stroke-width:1;"/><text fill="#4682B4" font-family="sans-serif" font-size="14" font-style="italic" lengthAdjust="spacing" textLength="74.7168" x="1053.6892" y="982.9281">&#171;institution&#187;</text><text fill="#4682B4" font-family="sans-serif" font-size="14" lengthAdjust="spacing" textLength="41.4258" x="1060.7063" y="1001.5492">&#1054;&#1090;&#1076;&#1077;&#1083;</text><text fill="#4682B4" font-family="sans-serif" font-size="14" lengthAdjust="spacing" textLength="3.8896" x="1102.1321" y="1001.5492">&#160;</text><text fill="#4682B4" font-family="sans-serif" font-size="14" lengthAdjust="spacing" textLength="15.3672" x="1106.0217" y="1001.5492">&#1087;&#1086;</text><text fill="#4682B4" font-family="sans-serif" font-size="14" lengthAdjust="spacing" textLength="102.7578" x="1039.6687" y="1020.1703">&#1088;&#1072;&#1089;&#1089;&#1083;&#1077;&#1076;&#1086;&#1074;&#1072;&#1085;&#1080;&#1102;</text><text fill="#4682B4" font-family="sans-serif" font-size="14" lengthAdjust="spacing" textLength="51.5088" x="1065.2932" y="1038.7914">&#1091;&#1073;&#1080;&#1081;&#1089;&#1090;&#1074;</text></g><!--entity moira--><g class="entity" data-entity="moira" data-source-line="41" data-uid="ent0020" id="entity_moira"><ellipse cx="1333.0088" cy="963.9322" fill="#228B22" filter="url(#f1ki4kzytgzo2f)" rx="8" ry="8" style="stroke:#A80036;stroke-width:2;"/><path d="M1333.0088,971.9322 L1333.0088,998.9322 M1320.0088,979.9322 L1346.0088,979.9322 M1333.0088,998.9322 L1320.0088,1013.9322 M1333.0088,998.9322 L1346.0088,1013.9322" fill="none" filter="url(#f1ki4kzytgzo2f)" style="stroke:#A80036;stroke-width:2;"/><text fill="#4682B4" font-family="sans-serif" font-size="14" lengthAdjust="spacing" textLength="47.3594" x="1309.3291" y="1036.0396">&#1052;&#1072;&#1088;&#1082;&#1091;&#1089;</text><text fill="#4682B4" font-family="sans-serif" font-size="14" lengthAdjust="spacing" textLength="54.5576" x="1305.73" y="1054.6607">&#1071;&#1082;&#1086;&#1073;&#1089;&#1077;&#1085;</text></g><!--entity lars--><g class="entity" data-entity="lars" data-source-line="46" data-uid="ent0022" id="entity_lars"><ellipse cx="1543.3473" cy="908.2422" fill="#228B22" filter="url(#f1ki4kzytgzo2f)" rx="8" ry="8" style="stroke:#A80036;stroke-width:2;"/><path d="M1543.3473,916.2422 L1543.3473,943.2422 M1530.3473,924.2422 L1556.3473,924.2422 M1543.3473,943.2422 L1530.3473,958.2422 M1543.3473,943.2422 L1556.3473,958.2422" fill="none" filter="url(#f1ki4kzytgzo2f)" style="stroke:#A80036;stroke-width:2;"/><text fill="#4682B4" font-family="sans-serif" font-size="14" lengthAdjust="spacing" textLength="31.7598" x="1505.63" y="980.3496">&#1051;&#1072;&#1088;&#1089;</text><text fill="#4682B4" font-family="sans-serif" font-size="14" lengthAdjust="spacing" textLength="3.8896" x="1537.3898" y="980.3496">&#160;</text><text fill="#4682B4" font-family="sans-serif" font-size="14" lengthAdjust="spacing" textLength="39.7852" x="1541.2794" y="980.3496">&#1041;&#1100;&#1105;&#1088;&#1085;</text></g><!--entity vestegor--><g class="entity" data-entity="vestegor" data-source-line="50" data-uid="ent0024" id="entity_vestegor"><ellipse cx="350.5285" cy="82.2422" fill="#B8860B" filter="url(#f1ki4kzytgzo2f)" rx="8" ry="8" style="stroke:#A80036;stroke-width:2;"/><path d="M350.5285,90.2422 L350.5285,117.2422 M337.5285,98.2422 L363.5285,98.2422 M350.5285,117.2422 L337.5285,132.2422 M350.5285,117.2422 L363.5285,132.2422" fill="none" filter="url(#f1ki4kzytgzo2f)" style="stroke:#A80036;stroke-width:2;"/><text fill="#4682B4" font-family="sans-serif" font-size="14" lengthAdjust="spacing" textLength="25.3203" x="302.53" y="154.3496">&#1055;&#1080;&#1074;</text><text fill="#4682B4" font-family="sans-serif" font-size="14" lengthAdjust="spacing" textLength="3.8896" x="327.8503" y="154.3496">&#160;</text><text fill="#4682B4" font-family="sans-serif" font-size="14" lengthAdjust="spacing" textLength="66.7871" x="331.74" y="154.3496">&#1042;&#1077;&#1089;&#1090;&#1077;&#1088;&#1075;&#1086;&#1088;</text></g><g class="entity" data-entity="GMN25" data-source-line="51" data-uid="ent0026" id="entity_GMN25"><path d="M551.55,75.4722 L551.55,111.0522 L398.89,115.0522 L551.55,119.0522 L551.55,154.6363 A0,0 0 0 0 551.55,154.6363 L669.9738,154.6363 A0,0 0 0 0 669.9738,154.6363 L669.9738,85.4722 L659.9738,75.4722 L551.55,75.4722 A0,0 0 0 0 551.55,75.4722" fill="#FBFB77" filter="url(#f1ki4kzytgzo2f)" style="stroke:#A80036;stroke-width:1;"/><path d="M659.9738,75.4722 L659.9738,85.4722 L669.9738,85.4722 L659.9738,75.4722" fill="#FBFB77" style="stroke:#A80036;stroke-width:1;"/><text fill="#4682B4" font-family="sans-serif" font-size="13" lengthAdjust="spacing" textLength="48.4453" x="557.55" y="94.5005">&#1044;&#1072;&#1090;&#1089;&#1082;&#1072;&#1103;</text><text fill="#4682B4" font-family="sans-serif" font-size="13" lengthAdjust="spacing" textLength="3.6118" x="605.9953" y="94.5005">&#160;</text><text fill="#4682B4" font-family="sans-serif" font-size="13" lengthAdjust="spacing" textLength="45.3667" x="609.6071" y="94.5005">&#1087;&#1072;&#1088;&#1090;&#1080;&#1103;,</text><text fill="#4682B4" font-family="sans-serif" font-size="13" lengthAdjust="spacing" textLength="62.626" x="557.55" y="111.7915">&#1076;&#1086;&#1082;&#1083;&#1072;&#1076;&#1095;&#1080;&#1082;</text><text fill="#4682B4" font-family="sans-serif" font-size="13" lengthAdjust="spacing" textLength="3.6118" x="620.176" y="111.7915">&#160;</text><text fill="#4682B4" font-family="sans-serif" font-size="13" lengthAdjust="spacing" textLength="14.2695" x="623.7878" y="111.7915">&#1087;&#1086;</text><text fill="#4682B4" font-family="sans-serif" font-size="13" lengthAdjust="spacing" textLength="57.0337" x="557.55" y="129.0825">&#1087;&#1088;&#1072;&#1074;&#1086;&#1074;&#1086;&#1081;</text><text fill="#4682B4" font-family="sans-serif" font-size="13" lengthAdjust="spacing" textLength="55.25" x="557.55" y="146.3736">&#1087;&#1086;&#1083;&#1080;&#1090;&#1080;&#1082;&#1077;</text></g><g class="entity" data-entity="q" data-source-line="53" data-uid="ent0028" id="entity_q"><ellipse cx="793.018" cy="998.0484" fill="#F8E7C0" filter="url(#f1ki4kzytgzo2f)" rx="56.218" ry="29.5262" style="stroke:#A80036;stroke-width:1;"/><text fill="#4682B4" font-family="sans-serif" font-size="14" font-style="italic" lengthAdjust="spacing" textLength="74.7168" x="755.6596" y="994.2778">&#171;institution&#187;</text><text fill="#4682B4" font-family="sans-serif" font-size="14" lengthAdjust="spacing" textLength="41.4258" x="764.9154" y="1012.8989">&#1054;&#1090;&#1076;&#1077;&#1083;</text><text fill="#4682B4" font-family="sans-serif" font-size="14" lengthAdjust="spacing" textLength="3.8896" x="806.3412" y="1012.8989">&#160;</text><text fill="#4682B4" font-family="sans-serif" font-size="14" lengthAdjust="spacing" textLength="10.8896" x="810.2309" y="1012.8989">Q</text></g><!--entity body--><g class="entity" data-entity="body" data-source-line="59" data-uid="ent0031" id="entity_body"><ellipse cx="70.0552" cy="1054.5533" fill="#228B22" rx="8" ry="8" style="stroke:#808080;stroke-width:2;"/><path d="M70.0552,1062.5533 L70.0552,1089.5533 M57.0552,1070.5533 L83.0552,1070.5533 M70.0552,1089.5533 L57.0552,1104.5533 M70.0552,1089.5533 L83.0552,1104.5533" fill="none" style="stroke:#808080;stroke-width:2;"/><text fill="#4682B4" font-family="sans-serif" font-size="14" lengthAdjust="spacing" textLength="36.0459" x="25.02" y="1122.6607">&#1043;&#1077;&#1086;&#1088;&#1075;</text><text fill="#4682B4" font-family="sans-serif" font-size="14" lengthAdjust="spacing" textLength="3.8896" x="61.0659" y="1122.6607">&#160;</text><text fill="#4682B4" font-family="sans-serif" font-size="14" lengthAdjust="spacing" textLength="50.1348" x="64.9555" y="1122.6607">&#1052;&#1072;&#1076;&#1089;&#1077;&#1085;</text><text fill="#4682B4" font-family="sans-serif" font-size="14" font-style="italic" lengthAdjust="spacing" textLength="46.7168" x="46.6968" y="1041.0396">&#171;dead&#187;</text></g><!--entity brother--><g class="entity" data-entity="brother" data-source-line="62" data-uid="ent0033" id="entity_brother"><ellipse cx="70.0584" cy="371.2422" fill="#228B22" filter="url(#f1ki4kzytgzo2f)" rx="8" ry="8" style="stroke:#A80036;stroke-width:2;"/><path d="M70.0584,379.2422 L70.0584,406.2422 M57.0584,387.2422 L83.0584,387.2422 M70.0584,406.2422 L57.0584,421.2422 M70.0584,406.2422 L83.0584,421.2422" fill="none" filter="url(#f1ki4kzytgzo2f)" style="stroke:#A80036;stroke-width:2;"/><text fill="#4682B4" font-family="sans-serif" font-size="14" lengthAdjust="spacing" textLength="39.7168" x="50.2" y="443.3496">&#1059;&#1092;&#1092;&#1077;</text></g><!--entity help--><g class="entity" data-entity="help" data-source-line="66" data-uid="ent0035" id="entity_help"><ellipse cx="70.0571" cy="511.5558" fill="#B8860B" filter="url(#f1ki4kzytgzo2f)" rx="8" ry="8" style="stroke:#A80036;stroke-width:2;"/><path d="M70.0571,519.5558 L70.0571,546.5558 M57.0571,527.5558 L83.0571,527.5558 M70.0571,546.5558 L57.0571,561.5558 M70.0571,546.5558 L83.0571,561.5558" fill="none" filter="url(#f1ki4kzytgzo2f)" style="stroke:#A80036;stroke-width:2;"/><text fill="#228B22" font-family="times new roman" font-size="18" font-style="italic" lengthAdjust="spacing" textLength="114.5742" x="12.77" y="584.5958">&#1076;&#1086;&#1084;&#1088;&#1072;&#1073;&#1086;&#1090;&#1085;&#1080;&#1094;&#1072;</text><text fill="#228B22" font-family="times new roman" font-size="18" font-style="italic" lengthAdjust="spacing" textLength="83.9883" x="28.063" y="497.6622">&#171;unnamed&#187;</text></g><!--entity new--><g class="entity" data-entity="new" data-source-line="69" data-uid="ent0037" id="entity_new"><ellipse cx="70.0641" cy="913.5558" fill="#228B22" filter="url(#f1ki4kzytgzo2f)" rx="8" ry="8" style="stroke:#A80036;stroke-width:2;"/><path d="M70.0641,921.5558 L70.0641,948.5558 M57.0641,929.5558 L83.0641,929.5558 M70.0641,948.5558 L57.0641,963.5558 M70.0641,948.5558 L83.0641,963.5558" fill="none" filter="url(#f1ki4kzytgzo2f)" style="stroke:#A80036;stroke-width:2;"/><text fill="#228B22" font-family="times new roman" font-size="18" font-style="italic" lengthAdjust="spacing" textLength="72.7559" x="33.6862" y="986.5958">&#1083;&#1102;&#1073;&#1086;&#1074;&#1085;&#1080;&#1082;</text><text fill="#228B22" font-family="times new roman" font-size="18" font-style="italic" lengthAdjust="spacing" textLength="83.9883" x="28.07" y="899.6622">&#171;unnamed&#187;</text></g><!--entity tenant--><g class="entity" data-entity="tenant" data-source-line="73" data-uid="ent0039" id="entity_tenant"><ellipse cx="70.0555" cy="753.9322" fill="#228B22" filter="url(#f1ki4kzytgzo2f)" rx="8" ry="8" style="stroke:#A80036;stroke-width:2;"/><path d="M70.0555,761.9322 L70.0555,788.9322 M57.0555,769.9322 L83.0555,769.9322 M70.0555,788.9322 L57.0555,803.9322 M70.0555,788.9322 L83.0555,803.9322" fill="none" filter="url(#f1ki4kzytgzo2f)" style="stroke:#A80036;stroke-width:2;"/><text fill="#4682B4" font-family="sans-serif" font-size="14" lengthAdjust="spacing" textLength="49.1641" x="45.4734" y="826.0396">&#1052;&#1086;&#1088;&#1090;&#1077;&#1085;</text><text fill="#4682B4" font-family="sans-serif" font-size="14" lengthAdjust="spacing" textLength="56.7109" x="41.7" y="844.6607">&#1061;&#1086;&#1083;&#1083;&#1072;&#1085;&#1085;</text></g><!--entity stepson--><g class="entity" data-entity="stepson" data-source-line="76" data-uid="ent0040" id="entity_stepson"><ellipse cx="70.061" cy="633.2422" fill="#228B22" filter="url(#f1ki4kzytgzo2f)" rx="8" ry="8" style="stroke:#A80036;stroke-width:2;"/><path d="M70.061,641.2422 L70.061,668.2422 M57.061,649.2422 L83.061,649.2422 M70.061,668.2422 L57.061,683.2422 M70.061,668.2422 L83.061,683.2422" fill="none" filter="url(#f1ki4kzytgzo2f)" style="stroke:#A80036;stroke-width:2;"/><text fill="#4682B4" font-family="sans-serif" font-size="14" lengthAdjust="spacing" textLength="48.002" x="46.06" y="705.3496">&#1049;&#1077;&#1089;&#1087;&#1077;&#1088;</text></g><g class="entity" data-entity="home" data-source-line="79" data-uid="ent0041" id="entity_home"><ellipse cx="350.5294" cy="796.0551" fill="#E6E6FA" filter="url(#f1ki4kzytgzo2f)" rx="67.4094" ry="40.1629" style="stroke:#A80036;stroke-width:1;"/><text fill="#4682B4" font-family="sans-serif" font-size="14" font-style="italic" lengthAdjust="spacing" textLength="63.8271" x="313.8631" y="780.6227">&#171;location&#187;</text><text fill="#4682B4" font-family="sans-serif" font-size="14" lengthAdjust="spacing" textLength="25.5801" x="327.323" y="799.2438">&#1076;&#1086;&#1084;</text><text fill="#4682B4" font-family="sans-serif" font-size="14" lengthAdjust="spacing" textLength="3.8896" x="352.9031" y="799.2438">&#160;</text><text fill="#4682B4" font-family="sans-serif" font-size="14" lengthAdjust="spacing" textLength="7.4375" x="356.7928" y="799.2438">&#1074;</text><text fill="#4682B4" font-family="sans-serif" font-size="14" lengthAdjust="spacing" textLength="84.8203" x="303.3665" y="817.8648">&#1056;&#1105;&#1085;&#1085;&#1077;&#1093;&#1086;&#1083;&#1100;&#1090;&#1077;</text></g><g class="entity" data-entity="group" data-source-line="85" data-uid="ent0045" id="entity_group"><ellipse cx="1101.0585" cy="1152.0507" fill="#F8E7C0" filter="url(#f1ki4kzytgzo2f)" rx="69.9785" ry="40.9485" style="stroke:#A80036;stroke-width:1;"/><text fill="#4682B4" font-family="sans-serif" font-size="14" font-style="italic" lengthAdjust="spacing" textLength="74.7168" x="1057.7298" y="1138.2333">&#171;institution&#187;</text><text fill="#4682B4" font-family="sans-serif" font-size="14" lengthAdjust="spacing" textLength="86.5977" x="1051.7894" y="1156.8544">&#1054;&#1087;&#1077;&#1088;&#1072;&#1090;&#1080;&#1074;&#1085;&#1072;&#1103;</text><text fill="#4682B4" font-family="sans-serif" font-size="14" lengthAdjust="spacing" textLength="42.8408" x="1073.6678" y="1175.4755">&#1075;&#1088;&#1091;&#1087;&#1087;&#1072;</text></g><!--entity viggo--><g class="entity" data-entity="viggo" data-source-line="90" data-uid="ent0047" id="entity_viggo"><ellipse cx="793.0186" cy="1134.2422" fill="#228B22" filter="url(#f1ki4kzytgzo2f)" rx="8" ry="8" style="stroke:#A80036;stroke-width:2;"/><path d="M793.0186,1142.2422 L793.0186,1169.2422 M780.0186,1150.2422 L806.0186,1150.2422 M793.0186,1169.2422 L780.0186,1184.2422 M793.0186,1169.2422 L806.0186,1184.2422" fill="none" filter="url(#f1ki4kzytgzo2f)" style="stroke:#A80036;stroke-width:2;"/><text fill="#4682B4" font-family="sans-serif" font-size="14" lengthAdjust="spacing" textLength="35.1572" x="754.17" y="1206.3496">&#1042;&#1080;&#1075;&#1075;&#1086;</text><text fill="#4682B4" font-family="sans-serif" font-size="14" lengthAdjust="spacing" textLength="3.8896" x="789.3272" y="1206.3496">&#160;</text><text fill="#4682B4" font-family="sans-serif" font-size="14" lengthAdjust="spacing" textLength="38.6504" x="793.2169" y="1206.3496">&#1041;&#1088;&#1080;&#1085;&#1082;</text></g><!--entity piter--><g class="entity" data-entity="piter" data-source-line="91" data-uid="ent0048" id="entity_piter"><ellipse cx="1333.0133" cy="1109.9322" fill="#228B22" filter="url(#f1ki4kzytgzo2f)" rx="8" ry="8" style="stroke:#A80036;stroke-width:2;"/><path d="M1333.0133,1117.9322 L1333.0133,1144.9322 M1320.0133,1125.9322 L1346.0133,1125.9322 M1333.0133,1144.9322 L1320.0133,1159.9322 M1333.0133,1144.9322 L1346.0133,1159.9322" fill="none" filter="url(#f1ki4kzytgzo2f)" style="stroke:#A80036;stroke-width:2;"/><text fill="#4682B4" font-family="sans-serif" font-size="14" lengthAdjust="spacing" textLength="39.8672" x="1313.0797" y="1182.0396">&#1055;&#1080;&#1090;&#1077;&#1088;</text><text fill="#4682B4" font-family="sans-serif" font-size="14" lengthAdjust="spacing" textLength="58.6865" x="1303.67" y="1200.6607">&#1042;&#1077;&#1089;&#1090;&#1077;&#1074;&#1080;&#1075;</text></g><!--entity police_secretary--><g class="entity" data-entity="police_secretary" data-source-line="96" data-uid="ent0051" id="entity_police_secretary"><ellipse cx="1543.3541" cy="1048.5558" fill="#B8860B" filter="url(#f1ki4kzytgzo2f)" rx="8" ry="8" style="stroke:#A80036;stroke-width:2;"/><path d="M1543.3541,1056.5558 L1543.3541,1083.5558 M1530.3541,1064.5558 L1556.3541,1064.5558 M1543.3541,1083.5558 L1530.3541,1098.5558 M1543.3541,1083.5558 L1556.3541,1098.5558" fill="none" filter="url(#f1ki4kzytgzo2f)" style="stroke:#A80036;stroke-width:2;"/><text fill="#228B22" font-family="times new roman" font-size="18" font-style="italic" lengthAdjust="spacing" textLength="63.9053" x="1511.4015" y="1121.5958">&#1076;&#1077;&#1074;&#1091;&#1096;&#1082;&#1072;</text><text fill="#228B22" font-family="times new roman" font-size="18" font-style="italic" lengthAdjust="spacing" textLength="83.9883" x="1501.36" y="1034.6622">&#171;unnamed&#187;</text></g><!--entity mp--><g class="entity" data-entity="mp" data-source-line="99" data-uid="ent0053" id="entity_mp"><ellipse cx="350.5281" cy="203.2422" fill="#228B22" filter="url(#f1ki4kzytgzo2f)" rx="8" ry="8" style="stroke:#A80036;stroke-width:2;"/><path d="M350.5281,211.2422 L350.5281,238.2422 M337.5281,219.2422 L363.5281,219.2422 M350.5281,238.2422 L337.5281,253.2422 M350.5281,238.2422 L363.5281,253.2422" fill="none" filter="url(#f1ki4kzytgzo2f)" style="stroke:#A80036;stroke-width:2;"/><text fill="#4682B4" font-family="sans-serif" font-size="14" lengthAdjust="spacing" textLength="29.3535" x="310.22" y="275.3496">&#1050;&#1091;&#1088;&#1090;</text><text fill="#4682B4" font-family="sans-serif" font-size="14" lengthAdjust="spacing" textLength="3.8896" x="339.5735" y="275.3496">&#160;</text><text fill="#4682B4" font-family="sans-serif" font-size="14" lengthAdjust="spacing" textLength="47.373" x="343.4632" y="275.3496">&#1061;&#1072;&#1085;&#1089;&#1077;&#1085;</text></g><g class="entity" data-entity="GMN54" data-source-line="100" data-uid="ent0055" id="entity_GMN54"><path d="M550.94,205.1122 L550.94,232.0522 L391.31,236.0522 L550.94,240.0522 L550.94,266.9852 A0,0 0 0 0 550.94,266.9852 L670.5889,266.9852 A0,0 0 0 0 670.5889,266.9852 L670.5889,215.1122 L660.5889,205.1122 L550.94,205.1122 A0,0 0 0 0 550.94,205.1122" fill="#FBFB77" filter="url(#f1ki4kzytgzo2f)" style="stroke:#A80036;stroke-width:1;"/><path d="M660.5889,205.1122 L660.5889,215.1122 L670.5889,215.1122 L660.5889,205.1122" fill="#FBFB77" style="stroke:#A80036;stroke-width:1;"/><text fill="#4682B4" font-family="sans-serif" font-size="13" lengthAdjust="spacing" textLength="98.6489" x="556.94" y="224.1405">&#1050;&#1086;&#1085;&#1089;&#1077;&#1088;&#1074;&#1072;&#1090;&#1080;&#1074;&#1085;&#1072;&#1103;</text><text fill="#4682B4" font-family="sans-serif" font-size="13" lengthAdjust="spacing" textLength="45.3667" x="556.94" y="241.4315">&#1087;&#1072;&#1088;&#1090;&#1080;&#1103;,</text><text fill="#4682B4" font-family="sans-serif" font-size="13" lengthAdjust="spacing" textLength="3.6118" x="602.3067" y="241.4315">&#160;</text><text fill="#4682B4" font-family="sans-serif" font-size="13" lengthAdjust="spacing" textLength="48.6484" x="605.9185" y="241.4315">&#1073;&#1099;&#1074;&#1096;&#1080;&#1081;</text><text fill="#4682B4" font-family="sans-serif" font-size="13" lengthAdjust="spacing" textLength="89.7495" x="556.94" y="258.7225">&#1074;&#1080;&#1094;&#1077;-&#1082;&#1086;&#1084;&#1080;&#1089;&#1089;&#1072;&#1088;</text></g><g class="entity" data-entity="volketing" data-source-line="102" data-uid="ent0057" id="entity_volketing"><ellipse cx="70.0598" cy="286.048" fill="#F8E7C0" filter="url(#f1ki4kzytgzo2f)" rx="64.0598" ry="29.1758" style="stroke:#A80036;stroke-width:1;"/><text fill="#4682B4" font-family="sans-serif" font-size="14" font-style="italic" lengthAdjust="spacing" textLength="74.7168" x="29.6621" y="281.5412">&#171;institution&#187;</text><text fill="#4682B4" font-family="sans-serif" font-size="14" lengthAdjust="spacing" textLength="74.874" x="29.5835" y="300.1623">&#1060;&#1086;&#1083;&#1100;&#1082;&#1077;&#1090;&#1080;&#1085;&#1075;</text></g><!--entity secretary2--><g class="entity" data-entity="secretary2" data-source-line="109" data-uid="ent0061" id="entity_secretary2"><ellipse cx="610.7649" cy="476.2422" fill="#B8860B" filter="url(#f1ki4kzytgzo2f)" rx="8" ry="8" style="stroke:#A80036;stroke-width:2;"/><path d="M610.7649,484.2422 L610.7649,511.2422 M597.7649,492.2422 L623.7649,492.2422 M610.7649,511.2422 L597.7649,526.2422 M610.7649,511.2422 L623.7649,526.2422" fill="none" filter="url(#f1ki4kzytgzo2f)" style="stroke:#A80036;stroke-width:2;"/><text fill="#4682B4" font-family="sans-serif" font-size="14" lengthAdjust="spacing" textLength="24.8965" x="576.24" y="548.3496">&#1057;&#1105;&#1089;</text><text fill="#4682B4" font-family="sans-serif" font-size="14" lengthAdjust="spacing" textLength="3.8896" x="601.1365" y="548.3496">&#160;</text><text fill="#4682B4" font-family="sans-serif" font-size="14" lengthAdjust="spacing" textLength="40.2637" x="605.0261" y="548.3496">&#1053;&#1086;&#1088;&#1091;&#1087;</text></g><!--entity ??????? ????--><g class="entity" data-entity="&#1044;&#1101;&#1085;&#1080;&#1077;&#1083;&#1100; &#1061;&#1077;&#1081;&#1083;" data-source-line="114" data-uid="ent0064" id="entity_&#1044;&#1101;&#1085;&#1080;&#1077;&#1083;&#1100; &#1061;&#1077;&#1081;&#1083;"><ellipse cx="70.0644" cy="146.2422" fill="#228B22" filter="url(#f1ki4kzytgzo2f)" rx="8" ry="8" style="stroke:#A80036;stroke-width:2;"/><path d="M70.0644,154.2422 L70.0644,181.2422 M57.0644,162.2422 L83.0644,162.2422 M70.0644,181.2422 L57.0644,196.2422 M70.0644,181.2422 L83.0644,196.2422" fill="none" filter="url(#f1ki4kzytgzo2f)" style="stroke:#A80036;stroke-width:2;"/><text fill="#4682B4" font-family="sans-serif" font-size="14" lengthAdjust="spacing" textLength="55.4258" x="23.85" y="218.3496">&#1044;&#1101;&#1085;&#1080;&#1077;&#1083;&#1100;</text><text fill="#4682B4" font-family="sans-serif" font-size="14" lengthAdjust="spacing" textLength="3.8896" x="79.2758" y="218.3496">&#160;</text><text fill="#4682B4" font-family="sans-serif" font-size="14" lengthAdjust="spacing" textLength="33.1133" x="83.1654" y="218.3496">&#1061;&#1077;&#1081;&#1083;</text></g><!--link wife to he--><g class="link" data-entity-1="wife" data-entity-2="he" data-source-line="18" data-uid="lnk5" id="link_wife_he"><path d="M368.47,937.0522 C408.31,937.0522 502.9,937.0522 560.85,937.0522" fill="none" id="wife-to-he" style="stroke:#A80036;stroke-width:1;"/><polygon fill="#A80036" points="566.85,937.0522,557.85,933.0522,561.85,937.0522,557.85,941.0522,566.85,937.0522" style="stroke:#A80036;stroke-width:1;"/><text fill="#4682B4" font-family="sans-serif" font-size="13" lengthAdjust="spacing" textLength="6.9063" x="451.44" y="916.0805">&#1074;</text><text fill="#4682B4" font-family="sans-serif" font-size="13" lengthAdjust="spacing" textLength="3.6118" x="458.3463" y="916.0805">&#160;</text><text fill="#4682B4" font-family="sans-serif" font-size="13" lengthAdjust="spacing" textLength="56.4053" x="461.9581" y="916.0805">&#1087;&#1088;&#1086;&#1094;&#1077;&#1089;&#1089;&#1077;</text><text fill="#4682B4" font-family="sans-serif" font-size="13" lengthAdjust="spacing" textLength="49.3721" x="460.2156" y="933.3715">&#1088;&#1072;&#1079;&#1074;&#1086;&#1076;&#1072;</text></g><!--link anker to shooting--><g class="link" data-entity-1="anker" data-entity-2="shooting" data-source-line="27" data-uid="lnk12" id="link_anker_shooting"><path d="M94.8,1199.5422 C141.76,1176.7822 247.07,1125.7222 306.54,1096.8922" fill="none" id="anker-shooting" style="stroke:#A80036;stroke-width:1;"/></g><!--link shooting to paralized--><g class="link" data-entity-1="shooting" data-entity-2="paralized" data-source-line="28" data-uid="lnk13" id="link_shooting_paralized"><path d="M417.03,1076.0522 C466.34,1076.0522 532.15,1076.0522 572.71,1076.0522" fill="none" id="shooting-paralized" style="stroke:#A80036;stroke-width:1;"/></g><!--link shooting to he--><g class="link" data-entity-1="shooting" data-entity-2="he" data-source-line="29" data-uid="lnk14" id="link_shooting_he"><path d="M391.88,1054.3322 C439.54,1028.6722 518.48,986.1822 567.12,960.0022" fill="none" id="shooting-he" style="stroke:#A80036;stroke-width:1;"/></g><!--reverse link caged to secretary--><g class="link" data-entity-1="caged" data-entity-2="secretary" data-source-line="35" data-uid="lnk17" id="link_caged_secretary"><path d="M399.5788,472.9752 C446.4188,450.4852 515.96,417.0922 564.01,394.0222" fill="none" id="caged-backto-secretary" style="stroke:#A80036;stroke-width:1;"/><polygon fill="#A80036" points="394.17,475.5722,404.0146,475.2825,398.6774,473.408,400.5519,468.0708,394.17,475.5722" style="stroke:#A80036;stroke-width:1;"/><text fill="#4682B4" font-family="sans-serif" font-size="13" lengthAdjust="spacing" textLength="48.3945" x="460.7181" y="394.7305">&#1073;&#1099;&#1074;&#1096;&#1072;&#1103;</text><text fill="#4682B4" font-family="sans-serif" font-size="13" lengthAdjust="spacing" textLength="71.9507" x="448.94" y="412.0215">&#1089;&#1077;&#1082;&#1088;&#1077;&#1090;&#1072;&#1088;&#1096;&#1072;</text></g><!--reverse link baggensen to secretary--><g class="link" data-entity-1="baggensen" data-entity-2="secretary" data-source-line="37" data-uid="lnk18" id="link_baggensen_secretary"><path d="M406.0899,360.2197 C453.1399,362.9497 517.94,366.7222 564.01,369.3922" fill="none" id="baggensen-backto-secretary" style="stroke:#A80036;stroke-width:1;"/><polygon fill="#A80036" points="400.1,359.8722,408.8532,364.3868,405.0916,360.1618,409.3166,356.4002,400.1,359.8722" style="stroke:#A80036;stroke-width:1;"/><text fill="#4682B4" font-family="sans-serif" font-size="13" lengthAdjust="spacing" textLength="48.6357" x="460.44" y="358.7905">&#1089;&#1074;&#1072;&#1090;&#1072;&#1083;&#1072;</text></g><!--link murders to moira--><g class="link" data-entity-1="murders" data-entity-2="moira" data-source-line="43" data-uid="lnk21" id="link_murders_moira"><path d="M1179.91,1006.0522 C1223.43,1006.0522 1274.9,1006.0522 1305.42,1006.0522" fill="none" id="murders-moira" style="stroke:#A80036;stroke-width:1;"/><text fill="#4682B4" font-family="sans-serif" font-size="13" lengthAdjust="spacing" textLength="62.8989" x="1210.67" y="1002.0805">&#1085;&#1072;&#1095;&#1072;&#1083;&#1100;&#1085;&#1080;&#1082;</text></g><!--reverse link moira to lars--><g class="link" data-entity-1="moira" data-entity-2="lars" data-source-line="48" data-uid="lnk23" id="link_moira_lars"><path d="M1366.1274,996.0343 C1402.8074,984.5843 1463.65,965.6022 1505.3,952.6122" fill="none" id="moira-backto-lars" style="stroke:#A80036;stroke-width:1;"/><polygon fill="#A80036" points="1360.4,997.8222,1370.1831,998.9587,1365.1729,996.3323,1367.7992,991.3221,1360.4,997.8222" style="stroke:#A80036;stroke-width:1;"/><text fill="#4682B4" font-family="sans-serif" font-size="13" lengthAdjust="spacing" textLength="76.6162" x="1393.36" y="959.9605">&#1079;&#1072;&#1084;&#1077;&#1089;&#1090;&#1080;&#1090;&#1077;&#1083;&#1100;</text></g><!--link q to murders--><g class="link" data-entity-1="q" data-entity-2="murders" data-source-line="56" data-uid="lnk29" id="link_q_murders"><path d="M849.44,999.5022 C897.67,1000.7622 956.1041,1002.2886 1010.0341,1003.6986" fill="none" id="q-to-murders" style="stroke:#A80036;stroke-width:1;"/><polygon fill="none" points="1022.03,1004.0122,1016.1366,999.8567,1010.0341,1003.6986,1015.9275,1007.854,1022.03,1004.0122" style="stroke:#A80036;stroke-width:1;"/><text fill="#4682B4" font-family="sans-serif" font-size="13" lengthAdjust="spacing" textLength="106.9009" x="885.45" y="979.6705">&#1072;&#1076;&#1084;&#1080;&#1085;&#1080;&#1089;&#1090;&#1088;&#1072;&#1090;&#1080;&#1074;&#1085;&#1086;</text><text fill="#4682B4" font-family="sans-serif" font-size="13" lengthAdjust="spacing" textLength="76.832" x="900.4844" y="996.9615">&#1087;&#1086;&#1076;&#1095;&#1080;&#1085;&#1103;&#1077;&#1090;&#1089;&#1103;</text></g><!--link he to q--><g class="link" data-entity-1="he" data-entity-2="q" data-source-line="57" data-uid="lnk30" id="link_he_q"><path d="M654.48,951.5122 C681.76,960.7422 717.13,972.7122 745.18,982.2022" fill="none" id="he-q" style="stroke:#A80036;stroke-width:1;"/></g><!--link body to shooting--><g class="link" data-entity-1="body" data-entity-2="shooting" data-source-line="60" data-uid="lnk32" id="link_body_shooting"><path d="M115.49,1076.0522 C160.94,1076.0522 232.06,1076.0522 283.98,1076.0522" fill="none" id="body-shooting" style="stroke:#A80036;stroke-width:1;"/><text fill="#4682B4" font-family="sans-serif" font-size="13" lengthAdjust="spacing" textLength="26.7236" x="195.62" y="1072.0805">&#1090;&#1088;&#1091;&#1087;</text></g><!--link brother to caged--><g class="link" data-entity-1="brother" data-entity-2="caged" data-source-line="64" data-uid="lnk34" id="link_brother_caged"><path d="M90.2,410.3722 C134.56,425.0322 239.5928,459.7301 301.0428,480.0301" fill="none" id="brother-to-caged" style="stroke:#A80036;stroke-width:1;"/><polygon fill="#A80036" points="306.74,481.9122,299.4489,475.291,301.9924,480.3438,296.9395,482.8872,306.74,481.9122" style="stroke:#A80036;stroke-width:1;"/><text fill="#4682B4" font-family="sans-serif" font-size="13" lengthAdjust="spacing" textLength="27.8599" x="195.12" y="432.4605">&#1073;&#1088;&#1072;&#1090;</text></g><!--link help to caged--><g class="link" data-entity-1="help" data-entity-2="caged" data-source-line="67" data-uid="lnk36" id="link_help_caged"><path d="M127.75,527.1122 C180.86,519.6722 253.1181,509.5549 301.0681,502.8349" fill="none" id="help-to-caged" style="stroke:#A80036;stroke-width:1;"/><polygon fill="#A80036" points="307.01,502.0022,297.5419,499.29,302.0584,502.6961,298.6523,507.2126,307.01,502.0022" style="stroke:#A80036;stroke-width:1;"/><text fill="#4682B4" font-family="sans-serif" font-size="13" lengthAdjust="spacing" textLength="87.9595" x="165.12" y="505.8105">&#1076;&#1086;&#1084;&#1088;&#1072;&#1073;&#1086;&#1090;&#1085;&#1080;&#1094;&#1072;</text></g><!--link new to wife--><g class="link" data-entity-1="new" data-entity-2="wife" data-source-line="71" data-uid="lnk38" id="link_new_wife"><path d="M113.35,937.0522 C175.73,937.0522 283.66,937.0522 326.57,937.0522" fill="none" id="new-to-wife" style="stroke:#A80036;stroke-width:1;"/><polygon fill="#A80036" points="332.57,937.0522,323.57,933.0522,327.57,937.0522,323.57,941.0522,332.57,937.0522" style="stroke:#A80036;stroke-width:1;"/><text fill="#4682B4" font-family="sans-serif" font-size="13" lengthAdjust="spacing" textLength="37.9209" x="190.12" y="933.0805">&#1085;&#1086;&#1074;&#1099;&#1081;</text></g><!--link home to he--><g class="link" data-entity-1="home" data-entity-2="he" data-source-line="81" data-uid="lnk42" id="link_home_he"><path d="M401.01,823.0722 C449.05,849.3022 521.21,888.7022 566.87,913.6322" fill="none" id="home-he" style="stroke:#A80036;stroke-width:1;"/><text fill="#4682B4" font-family="sans-serif" font-size="13" lengthAdjust="spacing" textLength="36.0483" x="466.44" y="845.8005">&#1078;&#1080;&#1074;&#1077;&#1090;</text></g><!--link stepson to home--><g class="link" data-entity-1="stepson" data-entity-2="home" data-source-line="82" data-uid="lnk43" id="link_stepson_home"><path d="M94.32,676.9122 C138.57,697.5722 230.4232,740.4442 291.2832,768.8542" fill="none" id="stepson-to-home" style="stroke:#A80036;stroke-width:1;"/><polygon fill="#A80036" points="296.72,771.3922,290.2568,763.9607,292.1893,769.2772,286.8728,771.2098,296.72,771.3922" style="stroke:#A80036;stroke-width:1;"/><text fill="#4682B4" font-family="sans-serif" font-size="13" lengthAdjust="spacing" textLength="50.21" x="183.62" y="707.8405">&#1087;&#1072;&#1089;&#1099;&#1085;&#1086;&#1082;</text></g><!--link tenant to home--><g class="link" data-entity-1="tenant" data-entity-2="home" data-source-line="83" data-uid="lnk44" id="link_tenant_home"><path d="M98.78,796.0522 C141.36,796.0522 218.09,796.0522 276.86,796.0522" fill="none" id="tenant-to-home" style="stroke:#A80036;stroke-width:1;"/><polygon fill="#A80036" points="282.86,796.0522,273.86,792.0522,277.86,796.0522,273.86,800.0522,282.86,796.0522" style="stroke:#A80036;stroke-width:1;"/><text fill="#4682B4" font-family="sans-serif" font-size="13" lengthAdjust="spacing" textLength="38.2192" x="189.62" y="792.0805">&#1078;&#1080;&#1083;&#1077;&#1094;</text></g><!--reverse link murders to group--><g class="link" data-entity-1="murders" data-entity-2="group" data-source-line="87" data-uid="lnk46" id="link_murders_group"><path d="M1101.06,1070.3822 C1101.06,1087.8222 1101.06,1093.2622 1101.06,1110.7022" fill="none" id="murders-backto-group" style="stroke:#A80036;stroke-width:1;"/><polygon fill="none" points="1101.06,1058.3822,1097.06,1064.3822,1101.06,1070.3822,1105.06,1064.3822,1101.06,1058.3822" style="stroke:#A80036;stroke-width:1;"/></g><!--link viggo to group--><g class="link" data-entity-1="viggo" data-entity-2="group" data-source-line="93" data-uid="lnk49" id="link_viggo_group"><path d="M832.16,1165.1822 C881.84,1162.7422 969.57,1158.4422 1031.06,1155.4322" fill="none" id="viggo-group" style="stroke:#A80036;stroke-width:1;"/><text fill="#4682B4" font-family="sans-serif" font-size="13" lengthAdjust="spacing" textLength="62.8989" x="907.45" y="1153.3605">&#1085;&#1072;&#1095;&#1072;&#1083;&#1100;&#1085;&#1080;&#1082;</text></g><!--link group to piter--><g class="link" data-entity-1="group" data-entity-2="piter" data-source-line="94" data-uid="lnk50" id="link_group_piter"><path d="M1171.37,1152.0522 C1215.54,1152.0522 1270.44,1152.0522 1303.28,1152.0522" fill="none" id="group-piter" style="stroke:#A80036;stroke-width:1;"/></g><!--reverse link moira to police_secretary--><g class="link" data-entity-1="moira" data-entity-2="police_secretary" data-source-line="97" data-uid="lnk52" id="link_moira_police_secretary"><path d="M1366.1201,1016.2234 C1401.2701,1027.3534 1458.14,1045.3722 1499.95,1058.6222" fill="none" id="moira-backto-police_secretary" style="stroke:#A80036;stroke-width:1;"/><polygon fill="#A80036" points="1360.4,1014.4122,1367.7727,1020.9424,1365.1667,1015.9215,1370.1876,1013.3156,1360.4,1014.4122" style="stroke:#A80036;stroke-width:1;"/><text fill="#4682B4" font-family="sans-serif" font-size="13" lengthAdjust="spacing" textLength="71.9507" x="1395.86" y="1021.5805">&#1089;&#1077;&#1082;&#1088;&#1077;&#1090;&#1072;&#1088;&#1096;&#1072;</text></g><!--link volketing to mp--><g class="link" data-entity-1="volketing" data-entity-2="mp" data-source-line="104" data-uid="lnk58" id="link_volketing_mp"><path d="M130.12,275.4522 C184.24,265.7322 262.88,251.6122 309.84,243.1722" fill="none" id="volketing-mp" style="stroke:#A80036;stroke-width:1;"/></g><!--link volketing to vestegor--><g class="link" data-entity-1="volketing" data-entity-2="vestegor" data-source-line="105" data-uid="lnk59" id="link_volketing_vestegor"><path d="M109.2,262.6322 C159.39,231.8122 247.63,177.6222 302.08,144.1822" fill="none" id="volketing-vestegor" style="stroke:#A80036;stroke-width:1;"/></g><!--link volketing to caged--><g class="link" data-entity-1="volketing" data-entity-2="caged" data-source-line="107" data-uid="lnk60" id="link_volketing_caged"><path d="M109.1,309.5422 C146.7,333.2722 205.36,371.6622 253.12,409.0522 C271.41,423.3622 290.58,440.2422 306.98,455.3022" fill="none" id="volketing-caged" style="stroke:#A80036;stroke-width:1;"/></g><!--reverse link caged to secretary2--><g class="link" data-entity-1="caged" data-entity-2="secretary2" data-source-line="111" data-uid="lnk62" id="link_caged_secretary2"><path d="M399.9569,505.705 C416.6769,508.685 430.18,510.5922 447.94,512.0522 C480.27,514.7122 488.5,512.6022 520.94,512.0522 C539.14,511.7422 559.44,511.0822 576.03,510.4622" fill="none" id="caged-backto-secretary2" style="stroke:#A80036;stroke-width:1;"/><polygon fill="#A80036" points="394.05,504.6522,402.2085,510.1693,398.9724,505.5295,403.6122,502.2934,394.05,504.6522" style="stroke:#A80036;stroke-width:1;"/><text fill="#4682B4" font-family="sans-serif" font-size="13" lengthAdjust="spacing" textLength="35.585" x="467.1229" y="491.0805">&#1085;&#1086;&#1074;&#1072;&#1103;</text><text fill="#4682B4" font-family="sans-serif" font-size="13" lengthAdjust="spacing" textLength="71.9507" x="448.94" y="508.3715">&#1089;&#1077;&#1082;&#1088;&#1077;&#1090;&#1072;&#1088;&#1096;&#1072;</text></g><!--link volketing to baggensen--><g class="link" data-entity-1="volketing" data-entity-2="baggensen" data-source-line="112" data-uid="lnk63" id="link_volketing_baggensen"><path d="M126.74,300.2522 C177.69,313.2422 252.33,332.2722 300.92,344.6622" fill="none" id="volketing-baggensen" style="stroke:#A80036;stroke-width:1;"/></g><!--link paralized to q--><g class="link" data-entity-1="paralized" data-entity-2="q" data-source-line="116" data-uid="lnk65" id="link_paralized_q"><path d="M649.11,1059.8922 C678.19,1047.3022 718.59,1029.8222 749.02,1016.6622" fill="none" id="paralized-q" style="stroke:#A80036;stroke-width:1;"/></g><rect fill="none" height="30.6211" rx="7.5" ry="7.5" style="stroke:#000000;stroke-width:1;" width="43.9102" x="767.7191" y="1273.1607"/><text fill="#4682B4" font-family="sans-serif" font-size="14" lengthAdjust="spacing" textLength="31.9102" x="773.7191" y="1294.2681">8.0%</text><!--SRC=[dLRRRjj647tVhzW4AT82bTMcBu6WwXlQBmWOQKKIfhWoITbmdomdSLFKZUCqAD34RNfzBYrRZIpPyY_i_b7Fp9AYv4iB589XSJbpTkRCcHdTkPTcsv7wmii2-Rcy6sHPFstKwuctjUQ7MJ1uF4XLqjPnfk9ihQrxTHsfzS_g_SYBiq4lgeLnEnfqL5fFL3Uj1yhhq5Ul4yP-FOJ1NI7k53QokgeqMICJ8TBrCEvxYTUJNZlJIRCvY6ElfpgjLXStf-5NIdxwy3-isZhIYUpgHAMPdoWL2v65MQIa-S6CpONznapCXScb6KapDJCpjhluFnOzBuox05Mo7G2ydQaa5P7oLToH3VbmxPCFX6YO8zZla0-yWF7MlW3O2JvpkzEGNYhRdgywKjxhgfuNgKVzH6UUh-CmpSZzZSdXFfFco1xYovHT0Z1oa_4hH4hGELjjXLrLmWf-gDLQvDlWL2u1DxTx26reXsOiyPYRzsPavkRKv0Jt9zzzQYOINy44FiJ42PcR2xw3M8t0SiS596ATAPc4Vf3Xaalspq7P1C1pGES4OhyrPmJ_4WzJOeUHl7XT9RBPxA2-hLO19puqxmh-Xc0G_m4sDVb7v946McUG0fpK9aJMQWdXK6grnKkniCBX8jgLqq1HDByXk1FGO0xvomcNlahqiUUZiAcAoyYeifJUn2L5jNq3Ff-nTQhQYSgyP7l1lt1bRb9eYvVWw1XiZEnpG1r8lcxgr4BOT2n4TVDLPzY3Kh85ApcHzJCUJeaa8d_E9UNgGhGuBoimiI-aVMAE4ViPyMf6p6Tla7GWOT0PnYawO925EYPIorIdzeaTIlCNAZ17u1KvFHqcNabC2ODWtJco13tsQmhJxhE8fe9GttAIG3oq-wnkXnPvy2x1684IvrD0lGVCkTC34jcbPEq-eRq3BcJzgdX7ggcQR1EzhNoqULcF5Q6-9XQHpvJBu7JBy0SVI-QDsZutfyW1iJjkkNzoRXVwE-DJaZevydnOgSUNJF76TNBlbtpf6bvJXhW86KwuK4xrEMEES39trxX8Bkm13vQXFH0Ru5ilIlY_OG8Q4dA3-FmUSS-9H4dbX-rIC-ZEzjLMvREbnYDzubBex9BGVhTFxLCpTkwOMW7QjAXn-KZJoNK9zmN7IwvKW7Cc-nW1xN92UyMC2rJKbqlpV55VVh62U0iCtJ33K3xcGh8u6JbMMwl0BbWw9bYUfwnik9KJxOW8OqrUqCWaESpSU618R4BilX89zZ-ILb69SWP2e_rKBqOC1CH1yxZ-nHxod1dRPmICZi4zBAf0OmKrcv5kUwMe-8X76yNuDrST9HRb1Rm8oAQOqaDaG9bCHH7ZiW6vqzRROqMxS9Uqn2rpuYfDO1oJd-X1_xhObxJE5kA-Cwoakxp6vZGPTbZ2hYQReU_hWXrkUDVdIqsFYE3hLbEOLHfpdhNYsfj7KX5ApNawvG4GG-yvJGO7ggEmhHvLK_WcxLL3wvfvuvOXZqMFUw0Tqas-idbw_HjsAoyRPmQeqTLoh4wmSiTCQ4gDMFRZ6W_nSvuDGxAculxXbCLRUTVjUgxcfexMLR5ghrIqUaNplh_wN4xTAsRSafJphvZw6Fy_STj0Fgkxyy6_Biy7Y-wxVNUktBhOetJpQ_iTLvstX_jvSsPcZL8krSyQDmt_0G00]--></g></svg>