<svg xmlns="http://www.w3.org/2000/svg" xmlns:xlink="http://www.w3.org/1999/xlink" contentStyleType="text/css" data-diagram-type="DESCRIPTION" height="982px" preserveAspectRatio="none" style="width:1290px;height:982px;" version="1.1" viewBox="0 0 1290 982" width="1290px" zoomAndPan="magnify"><title>&#1046;&#1077;&#1085;&#1097;&#1080;&#1085;&#1072; &#1074; &#1082;&#1083;&#1077;&#1090;&#1082;&#1077;</title><defs><filter height="300%" id="f1is3c9yk2vfwz" width="300%" x="-1" y="-1"><feGaussianBlur result="blurOut" stdDeviation="2"/><feColorMatrix in="blurOut" result="blurOut2" type="matrix" values="0 0 0 0 0 0 0 0 0 0 0 0 0 0 0 0 0 0 .4 0"/><feOffset dx="4" dy="4" in="blurOut2" result="blurOut3"/><feBlend in="SourceGraphic" in2="blurOut3" mode="normal"/></filter></defs><g><text fill="#4682B4" font-family="sans-serif" font-size="14" font-weight="bold" lengthAdjust="spacing" textLength="127.2783" x="572.2031" y="25.1074">&#1046;&#1077;&#1085;&#1097;&#1080;&#1085;&#1072; &#1074; &#1082;&#1083;&#1077;&#1090;&#1082;&#1077;</text><rect fill="none" height="905.2296" style="stroke:#A80036;stroke-width:1;" width="1284.6846" x="0" y="39.6211"/><path d="M75.3584,39.6211 L75.3584,51.2422 L65.3584,61.2422 L0,61.2422" fill="none" style="stroke:#A80036;stroke-width:1;"/><text fill="#4682B4" font-family="sans-serif" font-size="14" lengthAdjust="spacing" textLength="65.3584" x="3" y="55.7285">characters</text><!--entity caged--><g class="entity" data-entity="caged" data-source-line="10" data-uid="ent0002" id="entity_caged"><ellipse cx="279.5204" cy="221.2433" fill="#FFFF00" filter="url(#f1is3c9yk2vfwz)" rx="8" ry="8" style="stroke:#A80036;stroke-width:2;"/><path d="M279.5204,229.2433 L279.5204,256.2433 M266.5204,237.2433 L292.5204,237.2433 M279.5204,256.2433 L266.5204,271.2433 M279.5204,256.2433 L292.5204,271.2433" fill="none" filter="url(#f1is3c9yk2vfwz)" style="stroke:#A80036;stroke-width:2;"/><text fill="#4682B4" font-family="sans-serif" font-size="14" lengthAdjust="spacing" textLength="55.6309" x="251.705" y="293.3507">&#1052;&#1077;&#1088;&#1077;&#1090;&#1090;&#1072;</text><text fill="#4682B4" font-family="sans-serif" font-size="14" lengthAdjust="spacing" textLength="53.2041" x="252.9184" y="311.9718">&#1051;&#1102;&#1085;&#1075;&#1075;&#1086;&#1088;</text><text fill="#4682B4" font-family="sans-serif" font-size="14" font-style="italic" lengthAdjust="spacing" textLength="84.8408" x="237.1" y="207.7296">&#171;protagonist&#187;</text></g><!--entity he--><g class="entity" data-entity="he" data-source-line="12" data-uid="ent0003" id="entity_he"><ellipse cx="540.0504" cy="828.5533" fill="#00FF00" filter="url(#f1is3c9yk2vfwz)" rx="8" ry="8" style="stroke:#A80036;stroke-width:2;"/><path d="M540.0504,836.5533 L540.0504,863.5533 M527.0504,844.5533 L553.0504,844.5533 M540.0504,863.5533 L527.0504,878.5533 M540.0504,863.5533 L553.0504,878.5533" fill="none" filter="url(#f1is3c9yk2vfwz)" style="stroke:#A80036;stroke-width:2;"/><text fill="#4682B4" font-family="sans-serif" font-size="14" lengthAdjust="spacing" textLength="31.8965" x="505.4777" y="900.6607">&#1050;&#1072;&#1088;&#1083;</text><text fill="#4682B4" font-family="sans-serif" font-size="14" lengthAdjust="spacing" textLength="3.8896" x="537.3741" y="900.6607">&#160;</text><text fill="#4682B4" font-family="sans-serif" font-size="14" lengthAdjust="spacing" textLength="33.3594" x="541.2638" y="900.6607">&#1052;&#1105;&#1088;&#1082;</text><text fill="#4682B4" font-family="sans-serif" font-size="14" font-style="italic" lengthAdjust="spacing" textLength="84.8408" x="497.63" y="815.0396">&#171;protagonist&#187;</text></g><!--entity wife--><g class="entity" data-entity="wife" data-source-line="14" data-uid="ent0004" id="entity_wife"><ellipse cx="808.0886" cy="848.2422" fill="#B8860B" filter="url(#f1is3c9yk2vfwz)" rx="8" ry="8" style="stroke:#A80036;stroke-width:2;"/><path d="M808.0886,856.2422 L808.0886,883.2422 M795.0886,864.2422 L821.0886,864.2422 M808.0886,883.2422 L795.0886,898.2422 M808.0886,883.2422 L821.0886,898.2422" fill="none" filter="url(#f1is3c9yk2vfwz)" style="stroke:#A80036;stroke-width:2;"/><text fill="#4682B4" font-family="sans-serif" font-size="14" lengthAdjust="spacing" textLength="35.1572" x="790.51" y="920.3496">&#1042;&#1080;&#1075;&#1075;&#1072;</text></g><!--entity paralized--><g class="entity" data-entity="paralized" data-source-line="17" data-uid="ent0006" id="entity_paralized"><ellipse cx="540.0413" cy="607.9322" fill="#228B22" filter="url(#f1is3c9yk2vfwz)" rx="8" ry="8" style="stroke:#A80036;stroke-width:2;"/><path d="M540.0413,615.9322 L540.0413,642.9322 M527.0413,623.9322 L553.0413,623.9322 M540.0413,642.9322 L527.0413,657.9322 M540.0413,642.9322 L553.0413,657.9322" fill="none" filter="url(#f1is3c9yk2vfwz)" style="stroke:#A80036;stroke-width:2;"/><text fill="#4682B4" font-family="sans-serif" font-size="14" lengthAdjust="spacing" textLength="40.8994" x="519.5916" y="680.0396">&#1061;&#1072;&#1088;&#1076;&#1080;</text><text fill="#4682B4" font-family="sans-serif" font-size="14" lengthAdjust="spacing" textLength="75.7627" x="502.16" y="698.6607">&#1061;&#1077;&#1085;&#1085;&#1080;&#1085;&#1075;&#1089;&#1077;&#1085;</text></g><g class="entity" data-entity="GMN7" data-source-line="18" data-uid="ent0008" id="entity_GMN7"><path d="M478.61,737.4022 L478.61,764.6932 A0,0 0 0 0 478.61,764.6932 L601.4772,764.6932 A0,0 0 0 0 601.4772,764.6932 L601.4772,747.4022 L591.4772,737.4022 L544.05,737.4022 L540.05,702.5022 L536.05,737.4022 L478.61,737.4022 A0,0 0 0 0 478.61,737.4022" fill="#FBFB77" filter="url(#f1is3c9yk2vfwz)" style="stroke:#A80036;stroke-width:1;"/><path d="M591.4772,737.4022 L591.4772,747.4022 L601.4772,747.4022 L591.4772,737.4022" fill="#FBFB77" style="stroke:#A80036;stroke-width:1;"/><text fill="#4682B4" font-family="sans-serif" font-size="13" lengthAdjust="spacing" textLength="101.8672" x="484.61" y="756.4305">&#1087;&#1072;&#1088;&#1072;&#1083;&#1080;&#1079;&#1086;&#1074;&#1072;&#1085;&#1085;&#1099;&#1081;</text></g><!--entity anker--><g class="entity" data-entity="anker" data-source-line="20" data-uid="ent0010" id="entity_anker"><ellipse cx="65.2084" cy="612.5533" fill="#228B22" rx="8" ry="8" style="stroke:#808080;stroke-width:2;"/><path d="M65.2084,620.5533 L65.2084,647.5533 M52.2084,628.5533 L78.2084,628.5533 M65.2084,647.5533 L52.2084,662.5533 M65.2084,647.5533 L78.2084,662.5533" fill="none" style="stroke:#808080;stroke-width:2;"/><text fill="#4682B4" font-family="sans-serif" font-size="14" lengthAdjust="spacing" textLength="38.7666" x="45.8251" y="680.6607">&#1040;&#1085;&#1082;&#1077;&#1088;</text><text fill="#4682B4" font-family="sans-serif" font-size="14" font-style="italic" lengthAdjust="spacing" textLength="46.7168" x="41.85" y="599.0396">&#171;dead&#187;</text></g><g class="entity" data-entity="shooting" data-source-line="22" data-uid="ent0011" id="entity_shooting"><ellipse cx="279.5241" cy="701.0558" fill="#C9FFC9" filter="url(#f1is3c9yk2vfwz)" rx="66.0941" ry="27.3536" style="stroke:#A80036;stroke-width:1;"/><text fill="#4682B4" font-family="sans-serif" font-size="14" font-style="italic" lengthAdjust="spacing" textLength="49.8203" x="249.0871" y="694.8444">&#171;event&#187;</text><text fill="#4682B4" font-family="sans-serif" font-size="14" lengthAdjust="spacing" textLength="84.4854" x="231.7546" y="713.4655">&#1055;&#1077;&#1088;&#1077;&#1089;&#1090;&#1088;&#1077;&#1083;&#1082;&#1072;</text></g><!--entity baggensen--><g class="entity" data-entity="baggensen" data-source-line="28" data-uid="ent0015" id="entity_baggensen"><ellipse cx="279.5209" cy="82.2422" fill="#228B22" filter="url(#f1is3c9yk2vfwz)" rx="8" ry="8" style="stroke:#A80036;stroke-width:2;"/><path d="M279.5209,90.2422 L279.5209,117.2422 M266.5209,98.2422 L292.5209,98.2422 M279.5209,117.2422 L266.5209,132.2422 M279.5209,117.2422 L292.5209,132.2422" fill="none" filter="url(#f1is3c9yk2vfwz)" style="stroke:#A80036;stroke-width:2;"/><text fill="#4682B4" font-family="sans-serif" font-size="14" lengthAdjust="spacing" textLength="29.2305" x="230.35" y="154.3496">&#1058;&#1072;&#1075;&#1077;</text><text fill="#4682B4" font-family="sans-serif" font-size="14" lengthAdjust="spacing" textLength="3.8896" x="259.5805" y="154.3496">&#160;</text><text fill="#4682B4" font-family="sans-serif" font-size="14" lengthAdjust="spacing" textLength="65.2217" x="263.4701" y="154.3496">&#1041;&#1072;&#1075;&#1075;&#1077;&#1085;&#1089;&#1077;&#1085;</text></g><!--entity secretary--><g class="entity" data-entity="secretary" data-source-line="30" data-uid="ent0016" id="entity_secretary"><ellipse cx="540.0504" cy="151.2422" fill="#B8860B" filter="url(#f1is3c9yk2vfwz)" rx="8" ry="8" style="stroke:#A80036;stroke-width:2;"/><path d="M540.0504,159.2422 L540.0504,186.2422 M527.0504,167.2422 L553.0504,167.2422 M540.0504,186.2422 L527.0504,201.2422 M540.0504,186.2422 L553.0504,201.2422" fill="none" filter="url(#f1is3c9yk2vfwz)" style="stroke:#A80036;stroke-width:2;"/><text fill="#4682B4" font-family="sans-serif" font-size="14" lengthAdjust="spacing" textLength="66.0898" x="493.59" y="223.3496">&#1052;&#1072;&#1088;&#1080;&#1072;&#1085;&#1085;&#1072;</text><text fill="#4682B4" font-family="sans-serif" font-size="14" lengthAdjust="spacing" textLength="3.8896" x="559.6798" y="223.3496">&#160;</text><text fill="#4682B4" font-family="sans-serif" font-size="14" lengthAdjust="spacing" textLength="22.9414" x="563.5695" y="223.3496">&#1050;&#1086;&#1093;</text></g><g class="entity" data-entity="murders" data-source-line="36" data-uid="ent0019" id="entity_murders"><ellipse cx="808.0879" cy="622.056" fill="#F8E7C0" filter="url(#f1is3c9yk2vfwz)" rx="78.6079" ry="52.0738" style="stroke:#A80036;stroke-width:1;"/><text fill="#4682B4" font-family="sans-serif" font-size="14" font-style="italic" lengthAdjust="spacing" textLength="74.7168" x="760.7192" y="598.9281">&#171;institution&#187;</text><text fill="#4682B4" font-family="sans-serif" font-size="14" lengthAdjust="spacing" textLength="41.4258" x="767.7363" y="617.5492">&#1054;&#1090;&#1076;&#1077;&#1083;</text><text fill="#4682B4" font-family="sans-serif" font-size="14" lengthAdjust="spacing" textLength="3.8896" x="809.1621" y="617.5492">&#160;</text><text fill="#4682B4" font-family="sans-serif" font-size="14" lengthAdjust="spacing" textLength="15.3672" x="813.0517" y="617.5492">&#1087;&#1086;</text><text fill="#4682B4" font-family="sans-serif" font-size="14" lengthAdjust="spacing" textLength="102.7578" x="746.6987" y="636.1703">&#1088;&#1072;&#1089;&#1089;&#1083;&#1077;&#1076;&#1086;&#1074;&#1072;&#1085;&#1080;&#1102;</text><text fill="#4682B4" font-family="sans-serif" font-size="14" lengthAdjust="spacing" textLength="51.5088" x="772.3232" y="654.7914">&#1091;&#1073;&#1080;&#1081;&#1089;&#1090;&#1074;</text></g><!--entity moira--><g class="entity" data-entity="moira" data-source-line="38" data-uid="ent0020" id="entity_moira"><ellipse cx="1037.9688" cy="579.9322" fill="#FEFECE" filter="url(#f1is3c9yk2vfwz)" rx="8" ry="8" style="stroke:#A80036;stroke-width:2;"/><path d="M1037.9688,587.9322 L1037.9688,614.9322 M1024.9688,595.9322 L1050.9688,595.9322 M1037.9688,614.9322 L1024.9688,629.9322 M1037.9688,614.9322 L1050.9688,629.9322" fill="none" filter="url(#f1is3c9yk2vfwz)" style="stroke:#A80036;stroke-width:2;"/><text fill="#4682B4" font-family="sans-serif" font-size="14" lengthAdjust="spacing" textLength="47.3594" x="1014.2891" y="652.0396">&#1052;&#1072;&#1088;&#1082;&#1091;&#1089;</text><text fill="#4682B4" font-family="sans-serif" font-size="14" lengthAdjust="spacing" textLength="54.5576" x="1010.69" y="670.6607">&#1071;&#1082;&#1086;&#1073;&#1089;&#1077;&#1085;</text></g><!--entity lars--><g class="entity" data-entity="lars" data-source-line="43" data-uid="ent0022" id="entity_lars"><ellipse cx="1240.9673" cy="589.2422" fill="#FEFECE" filter="url(#f1is3c9yk2vfwz)" rx="8" ry="8" style="stroke:#A80036;stroke-width:2;"/><path d="M1240.9673,597.2422 L1240.9673,624.2422 M1227.9673,605.2422 L1253.9673,605.2422 M1240.9673,624.2422 L1227.9673,639.2422 M1240.9673,624.2422 L1253.9673,639.2422" fill="none" filter="url(#f1is3c9yk2vfwz)" style="stroke:#A80036;stroke-width:2;"/><text fill="#4682B4" font-family="sans-serif" font-size="14" lengthAdjust="spacing" textLength="31.7598" x="1203.25" y="661.3496">&#1051;&#1072;&#1088;&#1089;</text><text fill="#4682B4" font-family="sans-serif" font-size="14" lengthAdjust="spacing" textLength="3.8896" x="1235.0098" y="661.3496">&#160;</text><text fill="#4682B4" font-family="sans-serif" font-size="14" lengthAdjust="spacing" textLength="39.7852" x="1238.8994" y="661.3496">&#1041;&#1100;&#1105;&#1088;&#1085;</text></g><!--entity vestegor--><g class="entity" data-entity="vestegor" data-source-line="47" data-uid="ent0024" id="entity_vestegor"><ellipse cx="65.2085" cy="342.2422" fill="#B8860B" filter="url(#f1is3c9yk2vfwz)" rx="8" ry="8" style="stroke:#A80036;stroke-width:2;"/><path d="M65.2085,350.2422 L65.2085,377.2422 M52.2085,358.2422 L78.2085,358.2422 M65.2085,377.2422 L52.2085,392.2422 M65.2085,377.2422 L78.2085,392.2422" fill="none" filter="url(#f1is3c9yk2vfwz)" style="stroke:#A80036;stroke-width:2;"/><text fill="#4682B4" font-family="sans-serif" font-size="14" lengthAdjust="spacing" textLength="25.3203" x="17.21" y="414.3496">&#1055;&#1080;&#1074;</text><text fill="#4682B4" font-family="sans-serif" font-size="14" lengthAdjust="spacing" textLength="3.8896" x="42.5303" y="414.3496">&#160;</text><text fill="#4682B4" font-family="sans-serif" font-size="14" lengthAdjust="spacing" textLength="66.7871" x="46.42" y="414.3496">&#1042;&#1077;&#1089;&#1090;&#1077;&#1088;&#1075;&#1086;&#1088;</text></g><g class="entity" data-entity="GMN25" data-source-line="48" data-uid="ent0026" id="entity_GMN25"><path d="M6,452.8222 L6,549.2773 A0,0 0 0 0 6,549.2773 L124.4238,549.2773 A0,0 0 0 0 124.4238,549.2773 L124.4238,462.8222 L114.4238,452.8222 L69.21,452.8222 L65.21,418.2122 L61.21,452.8222 L6,452.8222 A0,0 0 0 0 6,452.8222" fill="#FBFB77" filter="url(#f1is3c9yk2vfwz)" style="stroke:#A80036;stroke-width:1;"/><path d="M114.4238,452.8222 L114.4238,462.8222 L124.4238,462.8222 L114.4238,452.8222" fill="#FBFB77" style="stroke:#A80036;stroke-width:1;"/><text fill="#4682B4" font-family="sans-serif" font-size="13" lengthAdjust="spacing" textLength="73.9502" x="12" y="471.8505">&#1092;&#1086;&#1083;&#1100;&#1082;&#1077;&#1090;&#1080;&#1085;&#1075;,</text><text fill="#4682B4" font-family="sans-serif" font-size="13" lengthAdjust="spacing" textLength="48.4453" x="12" y="489.1415">&#1044;&#1072;&#1090;&#1089;&#1082;&#1072;&#1103;</text><text fill="#4682B4" font-family="sans-serif" font-size="13" lengthAdjust="spacing" textLength="3.6118" x="60.4453" y="489.1415">&#160;</text><text fill="#4682B4" font-family="sans-serif" font-size="13" lengthAdjust="spacing" textLength="45.3667" x="64.0571" y="489.1415">&#1087;&#1072;&#1088;&#1090;&#1080;&#1103;,</text><text fill="#4682B4" font-family="sans-serif" font-size="13" lengthAdjust="spacing" textLength="62.626" x="12" y="506.4325">&#1076;&#1086;&#1082;&#1083;&#1072;&#1076;&#1095;&#1080;&#1082;</text><text fill="#4682B4" font-family="sans-serif" font-size="13" lengthAdjust="spacing" textLength="3.6118" x="74.626" y="506.4325">&#160;</text><text fill="#4682B4" font-family="sans-serif" font-size="13" lengthAdjust="spacing" textLength="14.2695" x="78.2378" y="506.4325">&#1087;&#1086;</text><text fill="#4682B4" font-family="sans-serif" font-size="13" lengthAdjust="spacing" textLength="57.0337" x="12" y="523.7236">&#1087;&#1088;&#1072;&#1074;&#1086;&#1074;&#1086;&#1081;</text><text fill="#4682B4" font-family="sans-serif" font-size="13" lengthAdjust="spacing" textLength="55.25" x="12" y="541.0146">&#1087;&#1086;&#1083;&#1080;&#1090;&#1080;&#1082;&#1077;</text></g><g class="entity" data-entity="q" data-source-line="50" data-uid="ent0028" id="entity_q"><ellipse cx="808.088" cy="774.0484" fill="#F8E7C0" filter="url(#f1is3c9yk2vfwz)" rx="56.218" ry="29.5262" style="stroke:#A80036;stroke-width:1;"/><text fill="#4682B4" font-family="sans-serif" font-size="14" font-style="italic" lengthAdjust="spacing" textLength="74.7168" x="770.7296" y="770.2778">&#171;institution&#187;</text><text fill="#4682B4" font-family="sans-serif" font-size="14" lengthAdjust="spacing" textLength="41.4258" x="779.9854" y="788.8989">&#1054;&#1090;&#1076;&#1077;&#1083;</text><text fill="#4682B4" font-family="sans-serif" font-size="14" lengthAdjust="spacing" textLength="3.8896" x="821.4112" y="788.8989">&#160;</text><text fill="#4682B4" font-family="sans-serif" font-size="14" lengthAdjust="spacing" textLength="10.8896" x="825.3009" y="788.8989">Q</text></g><!--entity body--><g class="entity" data-entity="body" data-source-line="55" data-uid="ent0031" id="entity_body"><ellipse cx="65.2152" cy="747.5533" fill="#228B22" rx="8" ry="8" style="stroke:#808080;stroke-width:2;"/><path d="M65.2152,755.5533 L65.2152,782.5533 M52.2152,763.5533 L78.2152,763.5533 M65.2152,782.5533 L52.2152,797.5533 M65.2152,782.5533 L78.2152,797.5533" fill="none" style="stroke:#808080;stroke-width:2;"/><text fill="#4682B4" font-family="sans-serif" font-size="14" lengthAdjust="spacing" textLength="36.0459" x="20.18" y="815.6607">&#1043;&#1077;&#1086;&#1088;&#1075;</text><text fill="#4682B4" font-family="sans-serif" font-size="14" lengthAdjust="spacing" textLength="3.8896" x="56.2259" y="815.6607">&#160;</text><text fill="#4682B4" font-family="sans-serif" font-size="14" lengthAdjust="spacing" textLength="50.1348" x="60.1155" y="815.6607">&#1052;&#1072;&#1076;&#1089;&#1077;&#1085;</text><text fill="#4682B4" font-family="sans-serif" font-size="14" font-style="italic" lengthAdjust="spacing" textLength="46.7168" x="41.8568" y="734.0396">&#171;dead&#187;</text></g><!--entity brother--><g class="entity" data-entity="brother" data-source-line="58" data-uid="ent0033" id="entity_brother"><ellipse cx="65.2084" cy="221.2422" fill="#228B22" filter="url(#f1is3c9yk2vfwz)" rx="8" ry="8" style="stroke:#A80036;stroke-width:2;"/><path d="M65.2084,229.2422 L65.2084,256.2422 M52.2084,237.2422 L78.2084,237.2422 M65.2084,256.2422 L52.2084,271.2422 M65.2084,256.2422 L78.2084,271.2422" fill="none" filter="url(#f1is3c9yk2vfwz)" style="stroke:#A80036;stroke-width:2;"/><text fill="#4682B4" font-family="sans-serif" font-size="14" lengthAdjust="spacing" textLength="39.7168" x="45.35" y="293.3496">&#1059;&#1092;&#1092;&#1077;</text></g><!--reverse link he to wife--><g class="link" data-entity-1="he" data-entity-2="wife" data-source-line="15" data-uid="lnk5" id="link_he_wife"><path d="M589.7546,857.3627 C649.5346,863.8827 749.41,874.7622 790.31,879.2222" fill="none" id="he-backto-wife" style="stroke:#A80036;stroke-width:1;"/><polygon fill="#A80036" points="583.79,856.7122,592.3032,861.6644,588.7605,857.2543,593.1706,853.7116,583.79,856.7122" style="stroke:#A80036;stroke-width:1;"/><text fill="#4682B4" font-family="sans-serif" font-size="13" lengthAdjust="spacing" textLength="6.9063" x="632.48" y="841.2905">&#1074;</text><text fill="#4682B4" font-family="sans-serif" font-size="13" lengthAdjust="spacing" textLength="3.6118" x="639.3863" y="841.2905">&#160;</text><text fill="#4682B4" font-family="sans-serif" font-size="13" lengthAdjust="spacing" textLength="56.4053" x="642.9981" y="841.2905">&#1087;&#1088;&#1086;&#1094;&#1077;&#1089;&#1089;&#1077;</text><text fill="#4682B4" font-family="sans-serif" font-size="13" lengthAdjust="spacing" textLength="49.3721" x="641.2556" y="858.5815">&#1088;&#1072;&#1079;&#1074;&#1086;&#1076;&#1072;</text></g><!--link anker to shooting--><g class="link" data-entity-1="anker" data-entity-2="shooting" data-source-line="24" data-uid="lnk12" id="link_anker_shooting"><path d="M89.74,641.4822 C122.46,651.8022 182.56,670.7722 226.18,684.5322" fill="none" id="anker-shooting" style="stroke:#A80036;stroke-width:1;"/></g><!--link shooting to paralized--><g class="link" data-entity-1="shooting" data-entity-2="paralized" data-source-line="25" data-uid="lnk13" id="link_shooting_paralized"><path d="M339.83,689.3522 C389.77,679.5022 459.64,665.7122 501.99,657.3622" fill="none" id="shooting-paralized" style="stroke:#A80036;stroke-width:1;"/></g><!--link shooting to he--><g class="link" data-entity-1="shooting" data-entity-2="he" data-source-line="26" data-uid="lnk14" id="link_shooting_he"><path d="M318.94,723.4922 C366.49,751.2622 447.18,798.3922 496.53,827.2222" fill="none" id="shooting-he" style="stroke:#A80036;stroke-width:1;"/></g><!--reverse link caged to secretary--><g class="link" data-entity-1="caged" data-entity-2="secretary" data-source-line="32" data-uid="lnk17" id="link_caged_secretary"><path d="M329.0014,240.9239 C375.9014,228.2239 445.14,209.4822 493.24,196.4522" fill="none" id="caged-backto-secretary" style="stroke:#A80036;stroke-width:1;"/><polygon fill="#A80036" points="323.21,242.4922,332.9426,244.0008,328.0362,241.1853,330.8516,236.2789,323.21,242.4922" style="stroke:#A80036;stroke-width:1;"/><text fill="#4682B4" font-family="sans-serif" font-size="13" lengthAdjust="spacing" textLength="71.9507" x="376.61" y="204.7205">&#1089;&#1077;&#1082;&#1088;&#1077;&#1090;&#1072;&#1088;&#1096;&#1072;</text></g><!--reverse link baggensen to secretary--><g class="link" data-entity-1="baggensen" data-entity-2="secretary" data-source-line="34" data-uid="lnk18" id="link_baggensen_secretary"><path d="M334.9371,129.5793 C382.0371,142.1493 447.12,159.5222 493.24,171.8222" fill="none" id="baggensen-backto-secretary" style="stroke:#A80036;stroke-width:1;"/><polygon fill="#A80036" points="329.14,128.0322,336.8042,134.2176,333.9709,129.3215,338.8671,126.4881,329.14,128.0322" style="stroke:#A80036;stroke-width:1;"/><text fill="#4682B4" font-family="sans-serif" font-size="13" lengthAdjust="spacing" textLength="48.6357" x="388.11" y="137.3705">&#1089;&#1074;&#1072;&#1090;&#1072;&#1083;&#1072;</text></g><!--link murders to moira--><g class="link" data-entity-1="murders" data-entity-2="moira" data-source-line="40" data-uid="lnk21" id="link_murders_moira"><path d="M887.19,622.0522 C929.97,622.0522 980.25,622.0522 1010.31,622.0522" fill="none" id="murders-moira" style="stroke:#A80036;stroke-width:1;"/><text fill="#4682B4" font-family="sans-serif" font-size="13" lengthAdjust="spacing" textLength="62.8989" x="917.69" y="618.0805">&#1085;&#1072;&#1095;&#1072;&#1083;&#1100;&#1085;&#1080;&#1082;</text></g><!--reverse link moira to lars--><g class="link" data-entity-1="moira" data-entity-2="lars" data-source-line="45" data-uid="lnk23" id="link_moira_lars"><path d="M1071.66,622.0522 C1106.9,622.0522 1163.13,622.0522 1202.91,622.0522" fill="none" id="moira-backto-lars" style="stroke:#A80036;stroke-width:1;"/><polygon fill="#A80036" points="1065.66,622.0522,1074.66,626.0522,1070.66,622.0522,1074.66,618.0522,1065.66,622.0522" style="stroke:#A80036;stroke-width:1;"/><text fill="#4682B4" font-family="sans-serif" font-size="13" lengthAdjust="spacing" textLength="76.6162" x="1096.25" y="618.0805">&#1079;&#1072;&#1084;&#1077;&#1089;&#1090;&#1080;&#1090;&#1077;&#1083;&#1100;</text></g><!--reverse link murders to q--><g class="link" data-entity-1="murders" data-entity-2="q" data-source-line="52" data-uid="lnk29" id="link_murders_q"><path d="M808.09,692.4222 C808.09,715.8122 808.09,724.5122 808.09,744.3822" fill="none" id="murders-backto-q" style="stroke:#A80036;stroke-width:1;"/><polygon fill="none" points="808.09,674.4222,802.09,692.4222,814.09,692.4222,808.09,674.4222" style="stroke:#A80036;stroke-width:1;"/><text fill="#4682B4" font-family="sans-serif" font-size="13" lengthAdjust="spacing" textLength="106.9009" x="734.09" y="706.3505">&#1072;&#1076;&#1084;&#1080;&#1085;&#1080;&#1089;&#1090;&#1088;&#1072;&#1090;&#1080;&#1074;&#1085;&#1086;</text><text fill="#4682B4" font-family="sans-serif" font-size="13" lengthAdjust="spacing" textLength="76.832" x="749.1244" y="723.6415">&#1087;&#1086;&#1076;&#1095;&#1080;&#1085;&#1103;&#1077;&#1090;&#1089;&#1103;</text></g><!--link he to q--><g class="link" data-entity-1="he" data-entity-2="q" data-source-line="53" data-uid="lnk30" id="link_he_q"><path d="M583.58,836.1722 C598.62,830.7822 615.72,824.8922 631.48,820.0522 C673.2,807.2322 721.18,794.8222 756.43,786.1222" fill="none" id="he-q" style="stroke:#A80036;stroke-width:1;"/></g><!--link body to shooting--><g class="link" data-entity-1="body" data-entity-2="shooting" data-source-line="56" data-uid="lnk32" id="link_body_shooting"><path d="M110.72,754.7922 C144.52,743.9722 191.09,729.0522 226.59,717.6822" fill="none" id="body-shooting" style="stroke:#A80036;stroke-width:1;"/><text fill="#4682B4" font-family="sans-serif" font-size="13" lengthAdjust="spacing" textLength="26.7236" x="155.92" y="729.0405">&#1090;&#1088;&#1091;&#1087;</text></g><!--link brother to caged--><g class="link" data-entity-1="brother" data-entity-2="caged" data-source-line="60" data-uid="lnk34" id="link_brother_caged"><path d="M85.43,254.0522 C119.21,254.0522 184.02,254.0522 229.85,254.0522" fill="none" id="brother-to-caged" style="stroke:#A80036;stroke-width:1;"/><polygon fill="#A80036" points="235.85,254.0522,226.85,250.0522,230.85,254.0522,226.85,258.0522,235.85,254.0522" style="stroke:#A80036;stroke-width:1;"/><text fill="#4682B4" font-family="sans-serif" font-size="13" lengthAdjust="spacing" textLength="27.8599" x="155.42" y="250.0805">&#1073;&#1088;&#1072;&#1090;</text></g><rect fill="none" height="30.6211" rx="7.5" ry="7.5" style="stroke:#000000;stroke-width:1;" width="43.9102" x="613.8872" y="935.8496"/><text fill="#4682B4" font-family="sans-serif" font-size="14" lengthAdjust="spacing" textLength="31.9102" x="619.8872" y="956.957">5.2%</text><!--SRC=[RLJRJjj047tVhrWGbLgfIQHMVObelg7zWcg9Dx65By7UWAZwG83UL0I5Ldq0LAHMVQx9HGJJc5_O_QEUMST9Q94LPIypPsREdDcbbKHj-_A5K2v_pfTTfJf9lLQBnLQrxIctkzPDPDoCGYL3LMr6GItovVhJMiSNeUe6ViKBctxNaKajbgsavahXq58uNjYkUJ1OPcnfQiFdeKgJAfamfZpbIww_wP6Uc8zwh2SwvRhFTQPlzCZiud_40k65hLW4aZTT4Okcad72VDcMeSFh_5droGF6wleSzZla0ozWd9b3W0tmvMQdpaN2cw8j7SvNMZ8GldpLYICbsb7e9OhSJtKAznkkpyqn5fbrSP7wVSOdo9IWKskrvRLa2SlWibgf56TrMyeju7Bp3gdrJ4-FEBQflj9zdUkXJWdkbuqzr6EE9PZ0HqmCo5nFR8mE2lUzroZ09iJ2I4c-5YaL1OXoQm5IS3O6SWxib53C9trD-9-noOWU2oN2THdprLK7dMWqfdZieRwO4jW3XVW7MARJH-IHk56aq3GuoKt8eT5Wh411fUKbcrdXS9RkdLDNKZO_aDm0FEXZknZOtiyhNHDjT3QHOPaPjPRA6nT5KNDFGUXRQvt8PYoLYBTd3M15dwa9yyiwjn6oGY44PpuGz_DWzzY3HR854IdnynsR8V52VEUsZRQZ42hEIzB7vf2RFNs9TA-9Ijst50RTs85imQ0N9b1zLtbHI3oMrMLcp_Iu_WtIStsvm4SGUR5Wh0H0clQ4n0Kkp7jAq1nOoMICyCviUS0wDWTMomMEBp0rhF2bOcbF85S0-5Eq7SdlKe7cW70kW0ZvdaplI1ppOTgKYPBjA9xHlYX8iuyQAAdCicsr_9ZhhyGdAeEipD5Kj3Re4Iw9GHhwL0zH4sefMBRJazfXeT-rFIMTMrnw7UvqvgKbU-D_ccVylwdW6cKZ3ieUsuuLYayjP1ydUH6bI6HYZkohqZD7DDnWReFO-O9uEL72gO6mNL1mv6p_Er_sR65QI6482gNS4jfFim_IHeKxtXeNipMLVxcjL1hJ9mpPNnRvihy0]--></g></svg>