<svg xmlns="http://www.w3.org/2000/svg" xmlns:xlink="http://www.w3.org/1999/xlink" contentStyleType="text/css" data-diagram-type="DESCRIPTION" height="1213px" preserveAspectRatio="none" style="width:1384px;height:1213px;" version="1.1" viewBox="0 0 1384 1213" width="1384px" zoomAndPan="magnify"><title>&#1046;&#1077;&#1085;&#1097;&#1080;&#1085;&#1072; &#1074; &#1082;&#1083;&#1077;&#1090;&#1082;&#1077;</title><defs><filter height="300%" id="fq387wa88snsm" width="300%" x="-1" y="-1"><feGaussianBlur result="blurOut" stdDeviation="2"/><feColorMatrix in="blurOut" result="blurOut2" type="matrix" values="0 0 0 0 0 0 0 0 0 0 0 0 0 0 0 0 0 0 .4 0"/><feOffset dx="4" dy="4" in="blurOut2" result="blurOut3"/><feBlend in="SourceGraphic" in2="blurOut3" mode="normal"/></filter></defs><g><text fill="#4682B4" font-family="sans-serif" font-size="14" font-weight="bold" lengthAdjust="spacing" textLength="127.2783" x="619.2331" y="25.1074">&#1046;&#1077;&#1085;&#1097;&#1080;&#1085;&#1072; &#1074; &#1082;&#1083;&#1077;&#1090;&#1082;&#1077;</text><rect fill="none" height="1136.2307" style="stroke:#A80036;stroke-width:1;" width="1378.7446" x="0" y="39.6211"/><path d="M75.3584,39.6211 L75.3584,51.2422 L65.3584,61.2422 L0,61.2422" fill="none" style="stroke:#A80036;stroke-width:1;"/><text fill="#4682B4" font-family="sans-serif" font-size="14" lengthAdjust="spacing" textLength="65.3584" x="3" y="55.7285">characters</text><!--entity caged--><g class="entity" data-entity="caged" data-source-line="13" data-uid="ent0002" id="entity_caged"><ellipse cx="340.8304" cy="221.2433" fill="#FFFF00" filter="url(#fq387wa88snsm)" rx="8" ry="8" style="stroke:#A80036;stroke-width:2;"/><path d="M340.8304,229.2433 L340.8304,256.2433 M327.8304,237.2433 L353.8304,237.2433 M340.8304,256.2433 L327.8304,271.2433 M340.8304,256.2433 L353.8304,271.2433" fill="none" filter="url(#fq387wa88snsm)" style="stroke:#A80036;stroke-width:2;"/><text fill="#4682B4" font-family="sans-serif" font-size="14" lengthAdjust="spacing" textLength="55.6309" x="313.015" y="293.3507">&#1052;&#1077;&#1088;&#1077;&#1090;&#1090;&#1072;</text><text fill="#4682B4" font-family="sans-serif" font-size="14" lengthAdjust="spacing" textLength="53.2041" x="314.2284" y="311.9718">&#1051;&#1102;&#1085;&#1075;&#1075;&#1086;&#1088;</text><text fill="#4682B4" font-family="sans-serif" font-size="14" font-style="italic" lengthAdjust="spacing" textLength="84.8408" x="298.41" y="207.7296">&#171;protagonist&#187;</text></g><!--entity he--><g class="entity" data-entity="he" data-source-line="15" data-uid="ent0003" id="entity_he"><ellipse cx="602.6804" cy="816.5533" fill="#00FF00" filter="url(#fq387wa88snsm)" rx="8" ry="8" style="stroke:#A80036;stroke-width:2;"/><path d="M602.6804,824.5533 L602.6804,851.5533 M589.6804,832.5533 L615.6804,832.5533 M602.6804,851.5533 L589.6804,866.5533 M602.6804,851.5533 L615.6804,866.5533" fill="none" filter="url(#fq387wa88snsm)" style="stroke:#A80036;stroke-width:2;"/><text fill="#4682B4" font-family="sans-serif" font-size="14" lengthAdjust="spacing" textLength="31.8965" x="568.1077" y="888.6607">&#1050;&#1072;&#1088;&#1083;</text><text fill="#4682B4" font-family="sans-serif" font-size="14" lengthAdjust="spacing" textLength="3.8896" x="600.0041" y="888.6607">&#160;</text><text fill="#4682B4" font-family="sans-serif" font-size="14" lengthAdjust="spacing" textLength="33.3594" x="603.8938" y="888.6607">&#1052;&#1105;&#1088;&#1082;</text><text fill="#4682B4" font-family="sans-serif" font-size="14" font-style="italic" lengthAdjust="spacing" textLength="84.8408" x="560.26" y="803.0396">&#171;protagonist&#187;</text></g><!--entity wife--><g class="entity" data-entity="wife" data-source-line="17" data-uid="ent0004" id="entity_wife"><ellipse cx="870.7186" cy="867.2422" fill="#B8860B" filter="url(#fq387wa88snsm)" rx="8" ry="8" style="stroke:#A80036;stroke-width:2;"/><path d="M870.7186,875.2422 L870.7186,902.2422 M857.7186,883.2422 L883.7186,883.2422 M870.7186,902.2422 L857.7186,917.2422 M870.7186,902.2422 L883.7186,917.2422" fill="none" filter="url(#fq387wa88snsm)" style="stroke:#A80036;stroke-width:2;"/><text fill="#4682B4" font-family="sans-serif" font-size="14" lengthAdjust="spacing" textLength="35.1572" x="853.14" y="939.3496">&#1042;&#1080;&#1075;&#1075;&#1072;</text></g><!--entity paralized--><g class="entity" data-entity="paralized" data-source-line="20" data-uid="ent0006" id="entity_paralized"><ellipse cx="602.6713" cy="936.9322" fill="#228B22" filter="url(#fq387wa88snsm)" rx="8" ry="8" style="stroke:#A80036;stroke-width:2;"/><path d="M602.6713,944.9322 L602.6713,971.9322 M589.6713,952.9322 L615.6713,952.9322 M602.6713,971.9322 L589.6713,986.9322 M602.6713,971.9322 L615.6713,986.9322" fill="none" filter="url(#fq387wa88snsm)" style="stroke:#A80036;stroke-width:2;"/><text fill="#4682B4" font-family="sans-serif" font-size="14" lengthAdjust="spacing" textLength="40.8994" x="582.2216" y="1009.0396">&#1061;&#1072;&#1088;&#1076;&#1080;</text><text fill="#4682B4" font-family="sans-serif" font-size="14" lengthAdjust="spacing" textLength="75.7627" x="564.79" y="1027.6607">&#1061;&#1077;&#1085;&#1085;&#1080;&#1085;&#1075;&#1089;&#1077;&#1085;</text></g><g class="entity" data-entity="GMN7" data-source-line="21" data-uid="ent0008" id="entity_GMN7"><path d="M541.24,1066.4022 L541.24,1093.6932 A0,0 0 0 0 541.24,1093.6932 L664.1072,1093.6932 A0,0 0 0 0 664.1072,1093.6932 L664.1072,1076.4022 L654.1072,1066.4022 L606.68,1066.4022 L602.68,1031.5022 L598.68,1066.4022 L541.24,1066.4022 A0,0 0 0 0 541.24,1066.4022" fill="#FBFB77" filter="url(#fq387wa88snsm)" style="stroke:#A80036;stroke-width:1;"/><path d="M654.1072,1066.4022 L654.1072,1076.4022 L664.1072,1076.4022 L654.1072,1066.4022" fill="#FBFB77" style="stroke:#A80036;stroke-width:1;"/><text fill="#4682B4" font-family="sans-serif" font-size="13" lengthAdjust="spacing" textLength="101.8672" x="547.24" y="1085.4305">&#1087;&#1072;&#1088;&#1072;&#1083;&#1080;&#1079;&#1086;&#1074;&#1072;&#1085;&#1085;&#1099;&#1081;</text></g><!--entity anker--><g class="entity" data-entity="anker" data-source-line="23" data-uid="ent0010" id="entity_anker"><ellipse cx="65.2084" cy="948.5533" fill="#228B22" rx="8" ry="8" style="stroke:#808080;stroke-width:2;"/><path d="M65.2084,956.5533 L65.2084,983.5533 M52.2084,964.5533 L78.2084,964.5533 M65.2084,983.5533 L52.2084,998.5533 M65.2084,983.5533 L78.2084,998.5533" fill="none" style="stroke:#808080;stroke-width:2;"/><text fill="#4682B4" font-family="sans-serif" font-size="14" lengthAdjust="spacing" textLength="38.7666" x="45.8251" y="1016.6607">&#1040;&#1085;&#1082;&#1077;&#1088;</text><text fill="#4682B4" font-family="sans-serif" font-size="14" font-style="italic" lengthAdjust="spacing" textLength="46.7168" x="41.85" y="935.0396">&#171;dead&#187;</text></g><g class="entity" data-entity="shooting" data-source-line="25" data-uid="ent0011" id="entity_shooting"><ellipse cx="340.8341" cy="971.0558" fill="#C9FFC9" filter="url(#fq387wa88snsm)" rx="66.0941" ry="27.3536" style="stroke:#A80036;stroke-width:1;"/><text fill="#4682B4" font-family="sans-serif" font-size="14" font-style="italic" lengthAdjust="spacing" textLength="49.8203" x="310.3971" y="964.8444">&#171;event&#187;</text><text fill="#4682B4" font-family="sans-serif" font-size="14" lengthAdjust="spacing" textLength="84.4854" x="293.0646" y="983.4655">&#1055;&#1077;&#1088;&#1077;&#1089;&#1090;&#1088;&#1077;&#1083;&#1082;&#1072;</text></g><!--entity baggensen--><g class="entity" data-entity="baggensen" data-source-line="31" data-uid="ent0015" id="entity_baggensen"><ellipse cx="340.8309" cy="82.2422" fill="#228B22" filter="url(#fq387wa88snsm)" rx="8" ry="8" style="stroke:#A80036;stroke-width:2;"/><path d="M340.8309,90.2422 L340.8309,117.2422 M327.8309,98.2422 L353.8309,98.2422 M340.8309,117.2422 L327.8309,132.2422 M340.8309,117.2422 L353.8309,132.2422" fill="none" filter="url(#fq387wa88snsm)" style="stroke:#A80036;stroke-width:2;"/><text fill="#4682B4" font-family="sans-serif" font-size="14" lengthAdjust="spacing" textLength="29.2305" x="291.66" y="154.3496">&#1058;&#1072;&#1075;&#1077;</text><text fill="#4682B4" font-family="sans-serif" font-size="14" lengthAdjust="spacing" textLength="3.8896" x="320.8905" y="154.3496">&#160;</text><text fill="#4682B4" font-family="sans-serif" font-size="14" lengthAdjust="spacing" textLength="65.2217" x="324.7801" y="154.3496">&#1041;&#1072;&#1075;&#1075;&#1077;&#1085;&#1089;&#1077;&#1085;</text></g><!--entity secretary--><g class="entity" data-entity="secretary" data-source-line="33" data-uid="ent0016" id="entity_secretary"><ellipse cx="602.6804" cy="131.2422" fill="#B8860B" filter="url(#fq387wa88snsm)" rx="8" ry="8" style="stroke:#A80036;stroke-width:2;"/><path d="M602.6804,139.2422 L602.6804,166.2422 M589.6804,147.2422 L615.6804,147.2422 M602.6804,166.2422 L589.6804,181.2422 M602.6804,166.2422 L615.6804,181.2422" fill="none" filter="url(#fq387wa88snsm)" style="stroke:#A80036;stroke-width:2;"/><text fill="#4682B4" font-family="sans-serif" font-size="14" lengthAdjust="spacing" textLength="66.0898" x="556.22" y="203.3496">&#1052;&#1072;&#1088;&#1080;&#1072;&#1085;&#1085;&#1072;</text><text fill="#4682B4" font-family="sans-serif" font-size="14" lengthAdjust="spacing" textLength="3.8896" x="622.3098" y="203.3496">&#160;</text><text fill="#4682B4" font-family="sans-serif" font-size="14" lengthAdjust="spacing" textLength="22.9414" x="626.1995" y="203.3496">&#1050;&#1086;&#1093;</text></g><g class="entity" data-entity="murders" data-source-line="39" data-uid="ent0019" id="entity_murders"><ellipse cx="870.7179" cy="641.056" fill="#F8E7C0" filter="url(#fq387wa88snsm)" rx="78.6079" ry="52.0738" style="stroke:#A80036;stroke-width:1;"/><text fill="#4682B4" font-family="sans-serif" font-size="14" font-style="italic" lengthAdjust="spacing" textLength="74.7168" x="823.3492" y="617.9281">&#171;institution&#187;</text><text fill="#4682B4" font-family="sans-serif" font-size="14" lengthAdjust="spacing" textLength="41.4258" x="830.3663" y="636.5492">&#1054;&#1090;&#1076;&#1077;&#1083;</text><text fill="#4682B4" font-family="sans-serif" font-size="14" lengthAdjust="spacing" textLength="3.8896" x="871.7921" y="636.5492">&#160;</text><text fill="#4682B4" font-family="sans-serif" font-size="14" lengthAdjust="spacing" textLength="15.3672" x="875.6817" y="636.5492">&#1087;&#1086;</text><text fill="#4682B4" font-family="sans-serif" font-size="14" lengthAdjust="spacing" textLength="102.7578" x="809.3287" y="655.1703">&#1088;&#1072;&#1089;&#1089;&#1083;&#1077;&#1076;&#1086;&#1074;&#1072;&#1085;&#1080;&#1102;</text><text fill="#4682B4" font-family="sans-serif" font-size="14" lengthAdjust="spacing" textLength="51.5088" x="834.9532" y="673.7914">&#1091;&#1073;&#1080;&#1081;&#1089;&#1090;&#1074;</text></g><!--entity moira--><g class="entity" data-entity="moira" data-source-line="41" data-uid="ent0020" id="entity_moira"><ellipse cx="1116.3188" cy="598.9322" fill="#FEFECE" filter="url(#fq387wa88snsm)" rx="8" ry="8" style="stroke:#A80036;stroke-width:2;"/><path d="M1116.3188,606.9322 L1116.3188,633.9322 M1103.3188,614.9322 L1129.3188,614.9322 M1116.3188,633.9322 L1103.3188,648.9322 M1116.3188,633.9322 L1129.3188,648.9322" fill="none" filter="url(#fq387wa88snsm)" style="stroke:#A80036;stroke-width:2;"/><text fill="#4682B4" font-family="sans-serif" font-size="14" lengthAdjust="spacing" textLength="47.3594" x="1092.6391" y="671.0396">&#1052;&#1072;&#1088;&#1082;&#1091;&#1089;</text><text fill="#4682B4" font-family="sans-serif" font-size="14" lengthAdjust="spacing" textLength="54.5576" x="1089.04" y="689.6607">&#1071;&#1082;&#1086;&#1073;&#1089;&#1077;&#1085;</text></g><!--entity lars--><g class="entity" data-entity="lars" data-source-line="46" data-uid="ent0022" id="entity_lars"><ellipse cx="1335.0273" cy="608.2422" fill="#FEFECE" filter="url(#fq387wa88snsm)" rx="8" ry="8" style="stroke:#A80036;stroke-width:2;"/><path d="M1335.0273,616.2422 L1335.0273,643.2422 M1322.0273,624.2422 L1348.0273,624.2422 M1335.0273,643.2422 L1322.0273,658.2422 M1335.0273,643.2422 L1348.0273,658.2422" fill="none" filter="url(#fq387wa88snsm)" style="stroke:#A80036;stroke-width:2;"/><text fill="#4682B4" font-family="sans-serif" font-size="14" lengthAdjust="spacing" textLength="31.7598" x="1297.31" y="680.3496">&#1051;&#1072;&#1088;&#1089;</text><text fill="#4682B4" font-family="sans-serif" font-size="14" lengthAdjust="spacing" textLength="3.8896" x="1329.0698" y="680.3496">&#160;</text><text fill="#4682B4" font-family="sans-serif" font-size="14" lengthAdjust="spacing" textLength="39.7852" x="1332.9594" y="680.3496">&#1041;&#1100;&#1105;&#1088;&#1085;</text></g><!--entity vestegor--><g class="entity" data-entity="vestegor" data-source-line="50" data-uid="ent0024" id="entity_vestegor"><ellipse cx="65.2085" cy="417.2422" fill="#B8860B" filter="url(#fq387wa88snsm)" rx="8" ry="8" style="stroke:#A80036;stroke-width:2;"/><path d="M65.2085,425.2422 L65.2085,452.2422 M52.2085,433.2422 L78.2085,433.2422 M65.2085,452.2422 L52.2085,467.2422 M65.2085,452.2422 L78.2085,467.2422" fill="none" filter="url(#fq387wa88snsm)" style="stroke:#A80036;stroke-width:2;"/><text fill="#4682B4" font-family="sans-serif" font-size="14" lengthAdjust="spacing" textLength="25.3203" x="17.21" y="489.3496">&#1055;&#1080;&#1074;</text><text fill="#4682B4" font-family="sans-serif" font-size="14" lengthAdjust="spacing" textLength="3.8896" x="42.5303" y="489.3496">&#160;</text><text fill="#4682B4" font-family="sans-serif" font-size="14" lengthAdjust="spacing" textLength="66.7871" x="46.42" y="489.3496">&#1042;&#1077;&#1089;&#1090;&#1077;&#1088;&#1075;&#1086;&#1088;</text></g><g class="entity" data-entity="GMN25" data-source-line="51" data-uid="ent0026" id="entity_GMN25"><path d="M6,527.8222 L6,624.2773 A0,0 0 0 0 6,624.2773 L124.4238,624.2773 A0,0 0 0 0 124.4238,624.2773 L124.4238,537.8222 L114.4238,527.8222 L69.21,527.8222 L65.21,493.2122 L61.21,527.8222 L6,527.8222 A0,0 0 0 0 6,527.8222" fill="#FBFB77" filter="url(#fq387wa88snsm)" style="stroke:#A80036;stroke-width:1;"/><path d="M114.4238,527.8222 L114.4238,537.8222 L124.4238,537.8222 L114.4238,527.8222" fill="#FBFB77" style="stroke:#A80036;stroke-width:1;"/><text fill="#4682B4" font-family="sans-serif" font-size="13" lengthAdjust="spacing" textLength="73.9502" x="12" y="546.8505">&#1092;&#1086;&#1083;&#1100;&#1082;&#1077;&#1090;&#1080;&#1085;&#1075;,</text><text fill="#4682B4" font-family="sans-serif" font-size="13" lengthAdjust="spacing" textLength="48.4453" x="12" y="564.1415">&#1044;&#1072;&#1090;&#1089;&#1082;&#1072;&#1103;</text><text fill="#4682B4" font-family="sans-serif" font-size="13" lengthAdjust="spacing" textLength="3.6118" x="60.4453" y="564.1415">&#160;</text><text fill="#4682B4" font-family="sans-serif" font-size="13" lengthAdjust="spacing" textLength="45.3667" x="64.0571" y="564.1415">&#1087;&#1072;&#1088;&#1090;&#1080;&#1103;,</text><text fill="#4682B4" font-family="sans-serif" font-size="13" lengthAdjust="spacing" textLength="62.626" x="12" y="581.4325">&#1076;&#1086;&#1082;&#1083;&#1072;&#1076;&#1095;&#1080;&#1082;</text><text fill="#4682B4" font-family="sans-serif" font-size="13" lengthAdjust="spacing" textLength="3.6118" x="74.626" y="581.4325">&#160;</text><text fill="#4682B4" font-family="sans-serif" font-size="13" lengthAdjust="spacing" textLength="14.2695" x="78.2378" y="581.4325">&#1087;&#1086;</text><text fill="#4682B4" font-family="sans-serif" font-size="13" lengthAdjust="spacing" textLength="57.0337" x="12" y="598.7236">&#1087;&#1088;&#1072;&#1074;&#1086;&#1074;&#1086;&#1081;</text><text fill="#4682B4" font-family="sans-serif" font-size="13" lengthAdjust="spacing" textLength="55.25" x="12" y="616.0146">&#1087;&#1086;&#1083;&#1080;&#1090;&#1080;&#1082;&#1077;</text></g><g class="entity" data-entity="q" data-source-line="53" data-uid="ent0028" id="entity_q"><ellipse cx="870.718" cy="793.0484" fill="#F8E7C0" filter="url(#fq387wa88snsm)" rx="56.218" ry="29.5262" style="stroke:#A80036;stroke-width:1;"/><text fill="#4682B4" font-family="sans-serif" font-size="14" font-style="italic" lengthAdjust="spacing" textLength="74.7168" x="833.3596" y="789.2778">&#171;institution&#187;</text><text fill="#4682B4" font-family="sans-serif" font-size="14" lengthAdjust="spacing" textLength="41.4258" x="842.6154" y="807.8989">&#1054;&#1090;&#1076;&#1077;&#1083;</text><text fill="#4682B4" font-family="sans-serif" font-size="14" lengthAdjust="spacing" textLength="3.8896" x="884.0412" y="807.8989">&#160;</text><text fill="#4682B4" font-family="sans-serif" font-size="14" lengthAdjust="spacing" textLength="10.8896" x="887.9309" y="807.8989">Q</text></g><!--entity body--><g class="entity" data-entity="body" data-source-line="58" data-uid="ent0031" id="entity_body"><ellipse cx="65.2152" cy="1083.5533" fill="#228B22" rx="8" ry="8" style="stroke:#808080;stroke-width:2;"/><path d="M65.2152,1091.5533 L65.2152,1118.5533 M52.2152,1099.5533 L78.2152,1099.5533 M65.2152,1118.5533 L52.2152,1133.5533 M65.2152,1118.5533 L78.2152,1133.5533" fill="none" style="stroke:#808080;stroke-width:2;"/><text fill="#4682B4" font-family="sans-serif" font-size="14" lengthAdjust="spacing" textLength="36.0459" x="20.18" y="1151.6607">&#1043;&#1077;&#1086;&#1088;&#1075;</text><text fill="#4682B4" font-family="sans-serif" font-size="14" lengthAdjust="spacing" textLength="3.8896" x="56.2259" y="1151.6607">&#160;</text><text fill="#4682B4" font-family="sans-serif" font-size="14" lengthAdjust="spacing" textLength="50.1348" x="60.1155" y="1151.6607">&#1052;&#1072;&#1076;&#1089;&#1077;&#1085;</text><text fill="#4682B4" font-family="sans-serif" font-size="14" font-style="italic" lengthAdjust="spacing" textLength="46.7168" x="41.8568" y="1070.0396">&#171;dead&#187;</text></g><!--entity brother--><g class="entity" data-entity="brother" data-source-line="61" data-uid="ent0033" id="entity_brother"><ellipse cx="65.2084" cy="155.2422" fill="#228B22" filter="url(#fq387wa88snsm)" rx="8" ry="8" style="stroke:#A80036;stroke-width:2;"/><path d="M65.2084,163.2422 L65.2084,190.2422 M52.2084,171.2422 L78.2084,171.2422 M65.2084,190.2422 L52.2084,205.2422 M65.2084,190.2422 L78.2084,205.2422" fill="none" filter="url(#fq387wa88snsm)" style="stroke:#A80036;stroke-width:2;"/><text fill="#4682B4" font-family="sans-serif" font-size="14" lengthAdjust="spacing" textLength="39.7168" x="45.35" y="227.3496">&#1059;&#1092;&#1092;&#1077;</text></g><!--entity help--><g class="entity" data-entity="help" data-source-line="65" data-uid="ent0035" id="entity_help"><ellipse cx="65.2071" cy="295.5558" fill="#B8860B" filter="url(#fq387wa88snsm)" rx="8" ry="8" style="stroke:#A80036;stroke-width:2;"/><path d="M65.2071,303.5558 L65.2071,330.5558 M52.2071,311.5558 L78.2071,311.5558 M65.2071,330.5558 L52.2071,345.5558 M65.2071,330.5558 L78.2071,345.5558" fill="none" filter="url(#fq387wa88snsm)" style="stroke:#A80036;stroke-width:2;"/><text fill="#228B22" font-family="times new roman" font-size="18" font-style="italic" lengthAdjust="spacing" textLength="114.5742" x="7.92" y="368.5958">&#1076;&#1086;&#1084;&#1088;&#1072;&#1073;&#1086;&#1090;&#1085;&#1080;&#1094;&#1072;</text><text fill="#228B22" font-family="times new roman" font-size="18" font-style="italic" lengthAdjust="spacing" textLength="83.9883" x="23.213" y="281.6622">&#171;unnamed&#187;</text></g><!--entity new--><g class="entity" data-entity="new" data-source-line="68" data-uid="ent0037" id="entity_new"><ellipse cx="1116.3241" cy="876.5558" fill="#228B22" filter="url(#fq387wa88snsm)" rx="8" ry="8" style="stroke:#A80036;stroke-width:2;"/><path d="M1116.3241,884.5558 L1116.3241,911.5558 M1103.3241,892.5558 L1129.3241,892.5558 M1116.3241,911.5558 L1103.3241,926.5558 M1116.3241,911.5558 L1129.3241,926.5558" fill="none" filter="url(#fq387wa88snsm)" style="stroke:#A80036;stroke-width:2;"/><text fill="#228B22" font-family="times new roman" font-size="18" font-style="italic" lengthAdjust="spacing" textLength="72.7559" x="1079.9462" y="949.5958">&#1083;&#1102;&#1073;&#1086;&#1074;&#1085;&#1080;&#1082;</text><text fill="#228B22" font-family="times new roman" font-size="18" font-style="italic" lengthAdjust="spacing" textLength="83.9883" x="1074.33" y="862.6622">&#171;unnamed&#187;</text></g><!--entity tenant--><g class="entity" data-entity="tenant" data-source-line="72" data-uid="ent0039" id="entity_tenant"><ellipse cx="65.2155" cy="668.9322" fill="#228B22" filter="url(#fq387wa88snsm)" rx="8" ry="8" style="stroke:#A80036;stroke-width:2;"/><path d="M65.2155,676.9322 L65.2155,703.9322 M52.2155,684.9322 L78.2155,684.9322 M65.2155,703.9322 L52.2155,718.9322 M65.2155,703.9322 L78.2155,718.9322" fill="none" filter="url(#fq387wa88snsm)" style="stroke:#A80036;stroke-width:2;"/><text fill="#4682B4" font-family="sans-serif" font-size="14" lengthAdjust="spacing" textLength="49.1641" x="40.6334" y="741.0396">&#1052;&#1086;&#1088;&#1090;&#1077;&#1085;</text><text fill="#4682B4" font-family="sans-serif" font-size="14" lengthAdjust="spacing" textLength="56.7109" x="36.86" y="759.6607">&#1061;&#1086;&#1083;&#1083;&#1072;&#1085;&#1085;</text></g><!--entity stepson--><g class="entity" data-entity="stepson" data-source-line="75" data-uid="ent0040" id="entity_stepson"><ellipse cx="65.211" cy="808.2422" fill="#228B22" filter="url(#fq387wa88snsm)" rx="8" ry="8" style="stroke:#A80036;stroke-width:2;"/><path d="M65.211,816.2422 L65.211,843.2422 M52.211,824.2422 L78.211,824.2422 M65.211,843.2422 L52.211,858.2422 M65.211,843.2422 L78.211,858.2422" fill="none" filter="url(#fq387wa88snsm)" style="stroke:#A80036;stroke-width:2;"/><text fill="#4682B4" font-family="sans-serif" font-size="14" lengthAdjust="spacing" textLength="48.002" x="41.21" y="880.3496">&#1049;&#1077;&#1089;&#1087;&#1077;&#1088;</text></g><g class="entity" data-entity="home" data-source-line="78" data-uid="ent0041" id="entity_home"><ellipse cx="340.8294" cy="840.0551" fill="#E6E6FA" filter="url(#fq387wa88snsm)" rx="67.4094" ry="40.1629" style="stroke:#A80036;stroke-width:1;"/><text fill="#4682B4" font-family="sans-serif" font-size="14" font-style="italic" lengthAdjust="spacing" textLength="63.8271" x="304.1631" y="824.6227">&#171;location&#187;</text><text fill="#4682B4" font-family="sans-serif" font-size="14" lengthAdjust="spacing" textLength="25.5801" x="317.623" y="843.2438">&#1076;&#1086;&#1084;</text><text fill="#4682B4" font-family="sans-serif" font-size="14" lengthAdjust="spacing" textLength="3.8896" x="343.2031" y="843.2438">&#160;</text><text fill="#4682B4" font-family="sans-serif" font-size="14" lengthAdjust="spacing" textLength="7.4375" x="347.0928" y="843.2438">&#1074;</text><text fill="#4682B4" font-family="sans-serif" font-size="14" lengthAdjust="spacing" textLength="84.8203" x="293.6665" y="861.8648">&#1056;&#1105;&#1085;&#1085;&#1077;&#1093;&#1086;&#1083;&#1100;&#1090;&#1077;</text></g><!--reverse link he to wife--><g class="link" data-entity-1="he" data-entity-2="wife" data-source-line="18" data-uid="lnk5" id="link_he_wife"><path d="M651.9498,855.4901 C666.9898,860.0701 678.35,863.2322 694.11,867.0522 C751.69,881.0122 821.1,892.5122 852.64,897.4522" fill="none" id="he-backto-wife" style="stroke:#A80036;stroke-width:1;"/><polygon fill="#A80036" points="646.21,853.7422,653.6544,860.1905,650.9931,855.1988,655.9849,852.5375,646.21,853.7422" style="stroke:#A80036;stroke-width:1;"/><text fill="#4682B4" font-family="sans-serif" font-size="13" lengthAdjust="spacing" textLength="6.9063" x="695.11" y="846.0805">&#1074;</text><text fill="#4682B4" font-family="sans-serif" font-size="13" lengthAdjust="spacing" textLength="3.6118" x="702.0163" y="846.0805">&#160;</text><text fill="#4682B4" font-family="sans-serif" font-size="13" lengthAdjust="spacing" textLength="56.4053" x="705.6281" y="846.0805">&#1087;&#1088;&#1086;&#1094;&#1077;&#1089;&#1089;&#1077;</text><text fill="#4682B4" font-family="sans-serif" font-size="13" lengthAdjust="spacing" textLength="49.3721" x="703.8856" y="863.3715">&#1088;&#1072;&#1079;&#1074;&#1086;&#1076;&#1072;</text></g><!--link anker to shooting--><g class="link" data-entity-1="anker" data-entity-2="shooting" data-source-line="27" data-uid="lnk12" id="link_anker_shooting"><path d="M90.02,970.1422 C130.71,970.2822 215.01,970.5922 274.4,970.8122" fill="none" id="anker-shooting" style="stroke:#A80036;stroke-width:1;"/></g><!--link shooting to paralized--><g class="link" data-entity-1="shooting" data-entity-2="paralized" data-source-line="28" data-uid="lnk13" id="link_shooting_paralized"><path d="M407.07,973.0622 C456.83,974.5922 523.58,976.6422 564.57,977.9122" fill="none" id="shooting-paralized" style="stroke:#A80036;stroke-width:1;"/></g><!--link shooting to he--><g class="link" data-entity-1="shooting" data-entity-2="he" data-source-line="29" data-uid="lnk14" id="link_shooting_he"><path d="M383.87,949.8622 C431.99,925.6022 510.38,886.0722 558.83,861.6522" fill="none" id="shooting-he" style="stroke:#A80036;stroke-width:1;"/></g><!--reverse link caged to secretary--><g class="link" data-entity-1="caged" data-entity-2="secretary" data-source-line="35" data-uid="lnk17" id="link_caged_secretary"><path d="M390.4094,237.228 C437.6894,220.848 507.75,196.5822 556.08,179.8422" fill="none" id="caged-backto-secretary" style="stroke:#A80036;stroke-width:1;"/><polygon fill="#A80036" points="384.74,239.1922,394.5535,240.0256,389.4645,237.5554,391.9347,232.4664,384.74,239.1922" style="stroke:#A80036;stroke-width:1;"/><text fill="#4682B4" font-family="sans-serif" font-size="13" lengthAdjust="spacing" textLength="71.9507" x="439.24" y="191.7605">&#1089;&#1077;&#1082;&#1088;&#1077;&#1090;&#1072;&#1088;&#1096;&#1072;</text></g><!--reverse link baggensen to secretary--><g class="link" data-entity-1="baggensen" data-entity-2="secretary" data-source-line="37" data-uid="lnk18" id="link_baggensen_secretary"><path d="M396.296,125.3243 C443.746,134.2743 509.51,146.6722 555.96,155.4322" fill="none" id="baggensen-backto-secretary" style="stroke:#A80036;stroke-width:1;"/><polygon fill="#A80036" points="390.4,124.2122,398.5026,129.811,395.3134,125.1389,399.9855,121.9497,390.4,124.2122" style="stroke:#A80036;stroke-width:1;"/><text fill="#4682B4" font-family="sans-serif" font-size="13" lengthAdjust="spacing" textLength="48.6357" x="450.74" y="129.7505">&#1089;&#1074;&#1072;&#1090;&#1072;&#1083;&#1072;</text></g><!--link murders to moira--><g class="link" data-entity-1="murders" data-entity-2="moira" data-source-line="43" data-uid="lnk21" id="link_murders_moira"><path d="M949.8,641.0522 C997.53,641.0522 1055.6,641.0522 1088.73,641.0522" fill="none" id="murders-moira" style="stroke:#A80036;stroke-width:1;"/><text fill="#4682B4" font-family="sans-serif" font-size="13" lengthAdjust="spacing" textLength="62.8989" x="980.33" y="637.0805">&#1085;&#1072;&#1095;&#1072;&#1083;&#1100;&#1085;&#1080;&#1082;</text></g><!--reverse link moira to lars--><g class="link" data-entity-1="moira" data-entity-2="lars" data-source-line="48" data-uid="lnk23" id="link_moira_lars"><path d="M1149.89,641.0522 C1188.32,641.0522 1253.56,641.0522 1297.08,641.0522" fill="none" id="moira-backto-lars" style="stroke:#A80036;stroke-width:1;"/><polygon fill="#A80036" points="1143.89,641.0522,1152.89,645.0522,1148.89,641.0522,1152.89,637.0522,1143.89,641.0522" style="stroke:#A80036;stroke-width:1;"/><text fill="#4682B4" font-family="sans-serif" font-size="13" lengthAdjust="spacing" textLength="76.6162" x="1190.31" y="637.0805">&#1079;&#1072;&#1084;&#1077;&#1089;&#1090;&#1080;&#1090;&#1077;&#1083;&#1100;</text></g><!--reverse link murders to q--><g class="link" data-entity-1="murders" data-entity-2="q" data-source-line="55" data-uid="lnk29" id="link_murders_q"><path d="M870.72,711.4222 C870.72,734.8122 870.72,743.5122 870.72,763.3822" fill="none" id="murders-backto-q" style="stroke:#A80036;stroke-width:1;"/><polygon fill="none" points="870.72,693.4222,864.72,711.4222,876.72,711.4222,870.72,693.4222" style="stroke:#A80036;stroke-width:1;"/><text fill="#4682B4" font-family="sans-serif" font-size="13" lengthAdjust="spacing" textLength="106.9009" x="796.72" y="725.3505">&#1072;&#1076;&#1084;&#1080;&#1085;&#1080;&#1089;&#1090;&#1088;&#1072;&#1090;&#1080;&#1074;&#1085;&#1086;</text><text fill="#4682B4" font-family="sans-serif" font-size="13" lengthAdjust="spacing" textLength="76.832" x="811.7544" y="742.6415">&#1087;&#1086;&#1076;&#1095;&#1080;&#1085;&#1103;&#1077;&#1090;&#1089;&#1103;</text></g><!--link he to q--><g class="link" data-entity-1="he" data-entity-2="q" data-source-line="56" data-uid="lnk30" id="link_he_q"><path d="M646.42,832.5022 C692.84,824.3022 767.02,811.1922 817.01,802.3622" fill="none" id="he-q" style="stroke:#A80036;stroke-width:1;"/></g><!--link body to shooting--><g class="link" data-entity-1="body" data-entity-2="shooting" data-source-line="59" data-uid="lnk32" id="link_body_shooting"><path d="M110.48,1083.3722 C162.05,1058.1122 246.67,1016.6822 297.43,991.8122" fill="none" id="body-shooting" style="stroke:#A80036;stroke-width:1;"/><text fill="#4682B4" font-family="sans-serif" font-size="13" lengthAdjust="spacing" textLength="26.7236" x="185.92" y="1018.1405">&#1090;&#1088;&#1091;&#1087;</text></g><!--link brother to caged--><g class="link" data-entity-1="brother" data-entity-2="caged" data-source-line="63" data-uid="lnk34" id="link_brother_caged"><path d="M85.45,192.6922 C129.12,203.2222 230.7874,227.7448 291.1274,242.3048" fill="none" id="brother-to-caged" style="stroke:#A80036;stroke-width:1;"/><polygon fill="#A80036" points="296.96,243.7122,289.1494,237.7127,292.0995,242.5394,287.2728,245.4895,296.96,243.7122" style="stroke:#A80036;stroke-width:1;"/><text fill="#4682B4" font-family="sans-serif" font-size="13" lengthAdjust="spacing" textLength="27.8599" x="185.42" y="205.4305">&#1073;&#1088;&#1072;&#1090;</text></g><!--link help to caged--><g class="link" data-entity-1="help" data-entity-2="caged" data-source-line="66" data-uid="lnk36" id="link_help_caged"><path d="M122.91,305.5822 C174.72,293.2722 244.3624,276.7288 291.2624,265.5888" fill="none" id="help-to-caged" style="stroke:#A80036;stroke-width:1;"/><polygon fill="#A80036" points="297.1,264.2022,287.4192,262.3903,292.2353,265.3577,289.268,270.1738,297.1,264.2022" style="stroke:#A80036;stroke-width:1;"/><text fill="#4682B4" font-family="sans-serif" font-size="13" lengthAdjust="spacing" textLength="87.9595" x="155.42" y="274.8505">&#1076;&#1086;&#1084;&#1088;&#1072;&#1073;&#1086;&#1090;&#1085;&#1080;&#1094;&#1072;</text></g><!--reverse link wife to new--><g class="link" data-entity-1="wife" data-entity-2="new" data-source-line="70" data-uid="lnk38" id="link_wife_new"><path d="M894.46,900.0522 C932.08,900.0522 1018.28,900.0522 1072.86,900.0522" fill="none" id="wife-backto-new" style="stroke:#A80036;stroke-width:1;"/><polygon fill="#A80036" points="888.46,900.0522,897.46,904.0522,893.46,900.0522,897.46,896.0522,888.46,900.0522" style="stroke:#A80036;stroke-width:1;"/><text fill="#4682B4" font-family="sans-serif" font-size="13" lengthAdjust="spacing" textLength="37.9209" x="992.83" y="896.0805">&#1085;&#1086;&#1074;&#1099;&#1081;</text></g><!--link home to he--><g class="link" data-entity-1="home" data-entity-2="he" data-source-line="80" data-uid="lnk42" id="link_home_he"><path d="M408.41,840.0522 C455.78,840.0522 518.01,840.0522 558.9,840.0522" fill="none" id="home-he" style="stroke:#A80036;stroke-width:1;"/><text fill="#4682B4" font-family="sans-serif" font-size="13" lengthAdjust="spacing" textLength="36.0483" x="456.74" y="836.0805">&#1078;&#1080;&#1074;&#1077;&#1090;</text></g><!--link stepson to home--><g class="link" data-entity-1="stepson" data-entity-2="home" data-source-line="81" data-uid="lnk43" id="link_stepson_home"><path d="M89.54,840.9622 C129.73,840.8222 207.45,840.5344 266.98,840.3144" fill="none" id="stepson-to-home" style="stroke:#A80036;stroke-width:1;"/><polygon fill="#A80036" points="272.98,840.2922,263.9653,836.3255,267.98,840.3107,263.9948,844.3254,272.98,840.2922" style="stroke:#A80036;stroke-width:1;"/><text fill="#4682B4" font-family="sans-serif" font-size="13" lengthAdjust="spacing" textLength="50.21" x="173.92" y="836.4605">&#1087;&#1072;&#1089;&#1099;&#1085;&#1086;&#1082;</text></g><!--link tenant to home--><g class="link" data-entity-1="tenant" data-entity-2="home" data-source-line="82" data-uid="lnk44" id="link_tenant_home"><path d="M93.95,724.1322 C139.2,745.4622 224.1728,785.5238 281.8528,812.7138" fill="none" id="tenant-to-home" style="stroke:#A80036;stroke-width:1;"/><polygon fill="#A80036" points="287.28,815.2722,280.8447,807.8165,282.7573,813.1402,277.4336,815.0528,287.28,815.2722" style="stroke:#A80036;stroke-width:1;"/><text fill="#4682B4" font-family="sans-serif" font-size="13" lengthAdjust="spacing" textLength="38.2192" x="179.92" y="748.8005">&#1078;&#1080;&#1083;&#1077;&#1094;</text></g><rect fill="none" height="30.6211" rx="7.5" ry="7.5" style="stroke:#000000;stroke-width:1;" width="43.9102" x="660.9172" y="1167.1607"/><text fill="#4682B4" font-family="sans-serif" font-size="14" lengthAdjust="spacing" textLength="31.9102" x="666.9172" y="1188.2681">6.9%</text><!--SRC=[XLNXRXj54Fw_Jx6jYaGb70iX8MePFmCy0ThShNsdtDswT-j6GVoeqpQ0Y1fI419jH168tvoJc3gNsdc5tJVYcxaxsu4YP4MvsvtvPkQRR-Rkt2liGQ8_KpQIdygxaRNZejVjvcf_PnJRQB8xANGUcCpgpEu49ksQHEzzr1qdAhEJDEd4MP1CGbrqSpqikf5M8JsgCCv6tHW6TuMuqzZ8JQZMP8TCX2ZsucoiSfLA5LYJz_kJB5Ef3WU38I8NyPTQVlZ9_rW59Z6v79fS5tQKQvq9OMERQEb-SdEtzD-wXLkwKhfpwIftxUR-4F_d8bLnDWIeba44yC3gl1297kaib3tvySw3zuJekJFOFoOVU07ZbNyEi0lyLlvnJwf21cgaGodl3NMg4lt5E3TMZKmM5vRSNxeIxjVIdVbJF5Ji4e6HTnc_GAO4NRBLVZpKBQo0Ix_JgSzwNCeDu5R-2AbD_TJD9LvBzyQTkvMxT2N1_S6nBzr2uX5Cu4TCN92vMt8COZK1os6TaCYCrNBNM6jIHBbXW1ASBO2y0dP9AFuxTqNut-Eb8deOIcLxEfVzVeW63mODddZVlMu8d892_0TOvShxv554nbXe0Kxw4LGs60XHew3IzbAihN2uJlVMQQGfcz-Gt0LuSAVySC6ztrIwgqReRA6pDZDgBPMtg8kYvhu4eS_Okj11hgtA3zOD47MVgGcRovxa25Mj48Bptn3tcs3li0UBP0iYIkBd5xnS4Y_4zuhRo1s5K77UahxmpwL_ucP8zugeTETCOJh9GyWM3CPP0TLFR6mouh6jhl9F_5IwFq7woiss-4XDd2iXMW2aoISaBd3XlwO4_J5BfXA4zuhB0zQfFsOjrpY9mjI8sfUAfNS2UGE0jtNRaVmX5UYF2USr427V5yqTYMCpJ8ymmtg4SMvftnQaVueQAAcAsMOjVo3TZyGdAeEi_4aZMWvwWajYa8Q-T9Ue2RNKBFFqb3miz7V5fwHpngNjSAipdpFP3_zDyvh_hpguHjc8Wx8NtB5QyIL3dkDaLKUf4rdw4zugKtz2mmtc7X8xFo3UYYYHr43ORYdOX0V_d2y-sveMKXY2GYatXFQxVmhIvhKxTas4sMhatxvsEeDcXI7xMPqlkH9nRvca6H8wv8AEciqKwMGijxRmrfR2nIt4_u2X2DTOfJDk08kCaJEzVnkuJfRN7gcBxbcXS6lNq1aHnWfRqgAZDbxNCysG-7xXYzKYmVvdKXuwqIukA6vScFLUGECvQLwol_fJNWvp_wpM7iLXCKG67uv-Fp61QiN0HxoFACU_kEjeiMW3435iqwpMAIgWIYhHvBXjGExqhJeIVmC0]--></g></svg>