<svg xmlns="http://www.w3.org/2000/svg" xmlns:xlink="http://www.w3.org/1999/xlink" contentStyleType="text/css" data-diagram-type="DESCRIPTION" height="1471px" preserveAspectRatio="none" style="width:1404px;height:1471px;" version="1.1" viewBox="0 0 1404 1471" width="1404px" zoomAndPan="magnify"><title>&#1046;&#1077;&#1085;&#1097;&#1080;&#1085;&#1072; &#1074; &#1082;&#1083;&#1077;&#1090;&#1082;&#1077;</title><defs><filter height="300%" id="f1mzzfu3tu2jxn" width="300%" x="-1" y="-1"><feGaussianBlur result="blurOut" stdDeviation="2"/><feColorMatrix in="blurOut" result="blurOut2" type="matrix" values="0 0 0 0 0 0 0 0 0 0 0 0 0 0 0 0 0 0 .4 0"/><feOffset dx="4" dy="4" in="blurOut2" result="blurOut3"/><feBlend in="SourceGraphic" in2="blurOut3" mode="normal"/></filter></defs><g><text fill="#4682B4" font-family="sans-serif" font-size="14" font-weight="bold" lengthAdjust="spacing" textLength="127.2783" x="629.36" y="25.1074">&#1046;&#1077;&#1085;&#1097;&#1080;&#1085;&#1072; &#1074; &#1082;&#1083;&#1077;&#1090;&#1082;&#1077;</text><rect fill="none" height="1394.2307" style="stroke:#A80036;stroke-width:1;" width="1398.9983" x="0" y="39.6211"/><path d="M75.3584,39.6211 L75.3584,51.2422 L65.3584,61.2422 L0,61.2422" fill="none" style="stroke:#A80036;stroke-width:1;"/><text fill="#4682B4" font-family="sans-serif" font-size="14" lengthAdjust="spacing" textLength="65.3584" x="3" y="55.7285">characters</text><!--entity caged--><g class="entity" data-entity="caged" data-source-line="13" data-uid="ent0002" id="entity_caged"><ellipse cx="350.5304" cy="463.2433" fill="#FFFF00" filter="url(#f1mzzfu3tu2jxn)" rx="8" ry="8" style="stroke:#A80036;stroke-width:2;"/><path d="M350.5304,471.2433 L350.5304,498.2433 M337.5304,479.2433 L363.5304,479.2433 M350.5304,498.2433 L337.5304,513.2433 M350.5304,498.2433 L363.5304,513.2433" fill="none" filter="url(#f1mzzfu3tu2jxn)" style="stroke:#A80036;stroke-width:2;"/><text fill="#4682B4" font-family="sans-serif" font-size="14" lengthAdjust="spacing" textLength="55.6309" x="322.715" y="535.3507">&#1052;&#1077;&#1088;&#1077;&#1090;&#1090;&#1072;</text><text fill="#4682B4" font-family="sans-serif" font-size="14" lengthAdjust="spacing" textLength="53.2041" x="323.9284" y="553.9718">&#1051;&#1102;&#1085;&#1075;&#1075;&#1086;&#1088;</text><text fill="#4682B4" font-family="sans-serif" font-size="14" font-style="italic" lengthAdjust="spacing" textLength="84.8408" x="308.11" y="449.7296">&#171;protagonist&#187;</text></g><!--entity he--><g class="entity" data-entity="he" data-source-line="15" data-uid="ent0003" id="entity_he"><ellipse cx="612.3704" cy="996.5533" fill="#00FF00" filter="url(#f1mzzfu3tu2jxn)" rx="8" ry="8" style="stroke:#A80036;stroke-width:2;"/><path d="M612.3704,1004.5533 L612.3704,1031.5533 M599.3704,1012.5533 L625.3704,1012.5533 M612.3704,1031.5533 L599.3704,1046.5533 M612.3704,1031.5533 L625.3704,1046.5533" fill="none" filter="url(#f1mzzfu3tu2jxn)" style="stroke:#A80036;stroke-width:2;"/><text fill="#4682B4" font-family="sans-serif" font-size="14" lengthAdjust="spacing" textLength="31.8965" x="577.7977" y="1068.6607">&#1050;&#1072;&#1088;&#1083;</text><text fill="#4682B4" font-family="sans-serif" font-size="14" lengthAdjust="spacing" textLength="3.8896" x="609.6941" y="1068.6607">&#160;</text><text fill="#4682B4" font-family="sans-serif" font-size="14" lengthAdjust="spacing" textLength="33.3594" x="613.5838" y="1068.6607">&#1052;&#1105;&#1088;&#1082;</text><text fill="#4682B4" font-family="sans-serif" font-size="14" font-style="italic" lengthAdjust="spacing" textLength="84.8408" x="569.95" y="983.0396">&#171;protagonist&#187;</text></g><!--entity wife--><g class="entity" data-entity="wife" data-source-line="17" data-uid="ent0004" id="entity_wife"><ellipse cx="880.4086" cy="933.2422" fill="#B8860B" filter="url(#f1mzzfu3tu2jxn)" rx="8" ry="8" style="stroke:#A80036;stroke-width:2;"/><path d="M880.4086,941.2422 L880.4086,968.2422 M867.4086,949.2422 L893.4086,949.2422 M880.4086,968.2422 L867.4086,983.2422 M880.4086,968.2422 L893.4086,983.2422" fill="none" filter="url(#f1mzzfu3tu2jxn)" style="stroke:#A80036;stroke-width:2;"/><text fill="#4682B4" font-family="sans-serif" font-size="14" lengthAdjust="spacing" textLength="35.1572" x="862.83" y="1005.3496">&#1042;&#1080;&#1075;&#1075;&#1072;</text></g><!--entity paralized--><g class="entity" data-entity="paralized" data-source-line="20" data-uid="ent0006" id="entity_paralized"><ellipse cx="612.3713" cy="775.9322" fill="#228B22" filter="url(#f1mzzfu3tu2jxn)" rx="8" ry="8" style="stroke:#A80036;stroke-width:2;"/><path d="M612.3713,783.9322 L612.3713,810.9322 M599.3713,791.9322 L625.3713,791.9322 M612.3713,810.9322 L599.3713,825.9322 M612.3713,810.9322 L625.3713,825.9322" fill="none" filter="url(#f1mzzfu3tu2jxn)" style="stroke:#A80036;stroke-width:2;"/><text fill="#4682B4" font-family="sans-serif" font-size="14" lengthAdjust="spacing" textLength="40.8994" x="591.9216" y="848.0396">&#1061;&#1072;&#1088;&#1076;&#1080;</text><text fill="#4682B4" font-family="sans-serif" font-size="14" lengthAdjust="spacing" textLength="75.7627" x="574.49" y="866.6607">&#1061;&#1077;&#1085;&#1085;&#1080;&#1085;&#1075;&#1089;&#1077;&#1085;</text></g><g class="entity" data-entity="GMN7" data-source-line="21" data-uid="ent0008" id="entity_GMN7"><path d="M550.94,905.4022 L550.94,932.6932 A0,0 0 0 0 550.94,932.6932 L673.8072,932.6932 A0,0 0 0 0 673.8072,932.6932 L673.8072,915.4022 L663.8072,905.4022 L616.37,905.4022 L612.37,870.5022 L608.37,905.4022 L550.94,905.4022 A0,0 0 0 0 550.94,905.4022" fill="#FBFB77" filter="url(#f1mzzfu3tu2jxn)" style="stroke:#A80036;stroke-width:1;"/><path d="M663.8072,905.4022 L663.8072,915.4022 L673.8072,915.4022 L663.8072,905.4022" fill="#FBFB77" style="stroke:#A80036;stroke-width:1;"/><text fill="#4682B4" font-family="sans-serif" font-size="13" lengthAdjust="spacing" textLength="101.8672" x="556.94" y="924.4305">&#1087;&#1072;&#1088;&#1072;&#1083;&#1080;&#1079;&#1086;&#1074;&#1072;&#1085;&#1085;&#1099;&#1081;</text></g><!--entity anker--><g class="entity" data-entity="anker" data-source-line="23" data-uid="ent0010" id="entity_anker"><ellipse cx="70.0584" cy="678.5533" fill="#228B22" rx="8" ry="8" style="stroke:#808080;stroke-width:2;"/><path d="M70.0584,686.5533 L70.0584,713.5533 M57.0584,694.5533 L83.0584,694.5533 M70.0584,713.5533 L57.0584,728.5533 M70.0584,713.5533 L83.0584,728.5533" fill="none" style="stroke:#808080;stroke-width:2;"/><text fill="#4682B4" font-family="sans-serif" font-size="14" lengthAdjust="spacing" textLength="38.7666" x="50.6751" y="746.6607">&#1040;&#1085;&#1082;&#1077;&#1088;</text><text fill="#4682B4" font-family="sans-serif" font-size="14" font-style="italic" lengthAdjust="spacing" textLength="46.7168" x="46.7" y="665.0396">&#171;dead&#187;</text></g><g class="entity" data-entity="shooting" data-source-line="25" data-uid="ent0011" id="entity_shooting"><ellipse cx="350.5341" cy="831.0558" fill="#C9FFC9" filter="url(#f1mzzfu3tu2jxn)" rx="66.0941" ry="27.3536" style="stroke:#A80036;stroke-width:1;"/><text fill="#4682B4" font-family="sans-serif" font-size="14" font-style="italic" lengthAdjust="spacing" textLength="49.8203" x="320.0971" y="824.8444">&#171;event&#187;</text><text fill="#4682B4" font-family="sans-serif" font-size="14" lengthAdjust="spacing" textLength="84.4854" x="302.7646" y="843.4655">&#1055;&#1077;&#1088;&#1077;&#1089;&#1090;&#1088;&#1077;&#1083;&#1082;&#1072;</text></g><!--entity baggensen--><g class="entity" data-entity="baggensen" data-source-line="31" data-uid="ent0015" id="entity_baggensen"><ellipse cx="350.5309" cy="324.2422" fill="#228B22" filter="url(#f1mzzfu3tu2jxn)" rx="8" ry="8" style="stroke:#A80036;stroke-width:2;"/><path d="M350.5309,332.2422 L350.5309,359.2422 M337.5309,340.2422 L363.5309,340.2422 M350.5309,359.2422 L337.5309,374.2422 M350.5309,359.2422 L363.5309,374.2422" fill="none" filter="url(#f1mzzfu3tu2jxn)" style="stroke:#A80036;stroke-width:2;"/><text fill="#4682B4" font-family="sans-serif" font-size="14" lengthAdjust="spacing" textLength="29.2305" x="301.36" y="396.3496">&#1058;&#1072;&#1075;&#1077;</text><text fill="#4682B4" font-family="sans-serif" font-size="14" lengthAdjust="spacing" textLength="3.8896" x="330.5905" y="396.3496">&#160;</text><text fill="#4682B4" font-family="sans-serif" font-size="14" lengthAdjust="spacing" textLength="65.2217" x="334.4801" y="396.3496">&#1041;&#1072;&#1075;&#1075;&#1077;&#1085;&#1089;&#1077;&#1085;</text></g><!--entity secretary--><g class="entity" data-entity="secretary" data-source-line="33" data-uid="ent0016" id="entity_secretary"><ellipse cx="612.3704" cy="393.2422" fill="#B8860B" filter="url(#f1mzzfu3tu2jxn)" rx="8" ry="8" style="stroke:#A80036;stroke-width:2;"/><path d="M612.3704,401.2422 L612.3704,428.2422 M599.3704,409.2422 L625.3704,409.2422 M612.3704,428.2422 L599.3704,443.2422 M612.3704,428.2422 L625.3704,443.2422" fill="none" filter="url(#f1mzzfu3tu2jxn)" style="stroke:#A80036;stroke-width:2;"/><text fill="#4682B4" font-family="sans-serif" font-size="14" lengthAdjust="spacing" textLength="66.0898" x="565.91" y="465.3496">&#1052;&#1072;&#1088;&#1080;&#1072;&#1085;&#1085;&#1072;</text><text fill="#4682B4" font-family="sans-serif" font-size="14" lengthAdjust="spacing" textLength="3.8896" x="631.9998" y="465.3496">&#160;</text><text fill="#4682B4" font-family="sans-serif" font-size="14" lengthAdjust="spacing" textLength="22.9414" x="635.8895" y="465.3496">&#1050;&#1086;&#1093;</text></g><g class="entity" data-entity="murders" data-source-line="39" data-uid="ent0019" id="entity_murders"><ellipse cx="880.4079" cy="1225.056" fill="#F8E7C0" filter="url(#f1mzzfu3tu2jxn)" rx="78.6079" ry="52.0738" style="stroke:#A80036;stroke-width:1;"/><text fill="#4682B4" font-family="sans-serif" font-size="14" font-style="italic" lengthAdjust="spacing" textLength="74.7168" x="833.0392" y="1201.9281">&#171;institution&#187;</text><text fill="#4682B4" font-family="sans-serif" font-size="14" lengthAdjust="spacing" textLength="41.4258" x="840.0563" y="1220.5492">&#1054;&#1090;&#1076;&#1077;&#1083;</text><text fill="#4682B4" font-family="sans-serif" font-size="14" lengthAdjust="spacing" textLength="3.8896" x="881.4821" y="1220.5492">&#160;</text><text fill="#4682B4" font-family="sans-serif" font-size="14" lengthAdjust="spacing" textLength="15.3672" x="885.3717" y="1220.5492">&#1087;&#1086;</text><text fill="#4682B4" font-family="sans-serif" font-size="14" lengthAdjust="spacing" textLength="102.7578" x="819.0187" y="1239.1703">&#1088;&#1072;&#1089;&#1089;&#1083;&#1077;&#1076;&#1086;&#1074;&#1072;&#1085;&#1080;&#1102;</text><text fill="#4682B4" font-family="sans-serif" font-size="14" lengthAdjust="spacing" textLength="51.5088" x="844.6432" y="1257.7914">&#1091;&#1073;&#1080;&#1081;&#1089;&#1090;&#1074;</text></g><!--entity moira--><g class="entity" data-entity="moira" data-source-line="41" data-uid="ent0020" id="entity_moira"><ellipse cx="1126.0188" cy="1179.9322" fill="#228B22" filter="url(#f1mzzfu3tu2jxn)" rx="8" ry="8" style="stroke:#A80036;stroke-width:2;"/><path d="M1126.0188,1187.9322 L1126.0188,1214.9322 M1113.0188,1195.9322 L1139.0188,1195.9322 M1126.0188,1214.9322 L1113.0188,1229.9322 M1126.0188,1214.9322 L1139.0188,1229.9322" fill="none" filter="url(#f1mzzfu3tu2jxn)" style="stroke:#A80036;stroke-width:2;"/><text fill="#4682B4" font-family="sans-serif" font-size="14" lengthAdjust="spacing" textLength="47.3594" x="1102.3391" y="1252.0396">&#1052;&#1072;&#1088;&#1082;&#1091;&#1089;</text><text fill="#4682B4" font-family="sans-serif" font-size="14" lengthAdjust="spacing" textLength="54.5576" x="1098.74" y="1270.6607">&#1071;&#1082;&#1086;&#1073;&#1089;&#1077;&#1085;</text></g><!--entity lars--><g class="entity" data-entity="lars" data-source-line="46" data-uid="ent0022" id="entity_lars"><ellipse cx="1350.0073" cy="1124.2422" fill="#228B22" filter="url(#f1mzzfu3tu2jxn)" rx="8" ry="8" style="stroke:#A80036;stroke-width:2;"/><path d="M1350.0073,1132.2422 L1350.0073,1159.2422 M1337.0073,1140.2422 L1363.0073,1140.2422 M1350.0073,1159.2422 L1337.0073,1174.2422 M1350.0073,1159.2422 L1363.0073,1174.2422" fill="none" filter="url(#f1mzzfu3tu2jxn)" style="stroke:#A80036;stroke-width:2;"/><text fill="#4682B4" font-family="sans-serif" font-size="14" lengthAdjust="spacing" textLength="31.7598" x="1312.29" y="1196.3496">&#1051;&#1072;&#1088;&#1089;</text><text fill="#4682B4" font-family="sans-serif" font-size="14" lengthAdjust="spacing" textLength="3.8896" x="1344.0498" y="1196.3496">&#160;</text><text fill="#4682B4" font-family="sans-serif" font-size="14" lengthAdjust="spacing" textLength="39.7852" x="1347.9394" y="1196.3496">&#1041;&#1100;&#1105;&#1088;&#1085;</text></g><!--entity vestegor--><g class="entity" data-entity="vestegor" data-source-line="50" data-uid="ent0024" id="entity_vestegor"><ellipse cx="350.5285" cy="82.2422" fill="#B8860B" filter="url(#f1mzzfu3tu2jxn)" rx="8" ry="8" style="stroke:#A80036;stroke-width:2;"/><path d="M350.5285,90.2422 L350.5285,117.2422 M337.5285,98.2422 L363.5285,98.2422 M350.5285,117.2422 L337.5285,132.2422 M350.5285,117.2422 L363.5285,132.2422" fill="none" filter="url(#f1mzzfu3tu2jxn)" style="stroke:#A80036;stroke-width:2;"/><text fill="#4682B4" font-family="sans-serif" font-size="14" lengthAdjust="spacing" textLength="25.3203" x="302.53" y="154.3496">&#1055;&#1080;&#1074;</text><text fill="#4682B4" font-family="sans-serif" font-size="14" lengthAdjust="spacing" textLength="3.8896" x="327.8503" y="154.3496">&#160;</text><text fill="#4682B4" font-family="sans-serif" font-size="14" lengthAdjust="spacing" textLength="66.7871" x="331.74" y="154.3496">&#1042;&#1077;&#1089;&#1090;&#1077;&#1088;&#1075;&#1086;&#1088;</text></g><g class="entity" data-entity="GMN25" data-source-line="51" data-uid="ent0026" id="entity_GMN25"><path d="M553.16,75.4722 L553.16,111.0522 L398.89,115.0522 L553.16,119.0522 L553.16,154.6363 A0,0 0 0 0 553.16,154.6363 L671.5838,154.6363 A0,0 0 0 0 671.5838,154.6363 L671.5838,85.4722 L661.5838,75.4722 L553.16,75.4722 A0,0 0 0 0 553.16,75.4722" fill="#FBFB77" filter="url(#f1mzzfu3tu2jxn)" style="stroke:#A80036;stroke-width:1;"/><path d="M661.5838,75.4722 L661.5838,85.4722 L671.5838,85.4722 L661.5838,75.4722" fill="#FBFB77" style="stroke:#A80036;stroke-width:1;"/><text fill="#4682B4" font-family="sans-serif" font-size="13" lengthAdjust="spacing" textLength="48.4453" x="559.16" y="94.5005">&#1044;&#1072;&#1090;&#1089;&#1082;&#1072;&#1103;</text><text fill="#4682B4" font-family="sans-serif" font-size="13" lengthAdjust="spacing" textLength="3.6118" x="607.6053" y="94.5005">&#160;</text><text fill="#4682B4" font-family="sans-serif" font-size="13" lengthAdjust="spacing" textLength="45.3667" x="611.2171" y="94.5005">&#1087;&#1072;&#1088;&#1090;&#1080;&#1103;,</text><text fill="#4682B4" font-family="sans-serif" font-size="13" lengthAdjust="spacing" textLength="62.626" x="559.16" y="111.7915">&#1076;&#1086;&#1082;&#1083;&#1072;&#1076;&#1095;&#1080;&#1082;</text><text fill="#4682B4" font-family="sans-serif" font-size="13" lengthAdjust="spacing" textLength="3.6118" x="621.786" y="111.7915">&#160;</text><text fill="#4682B4" font-family="sans-serif" font-size="13" lengthAdjust="spacing" textLength="14.2695" x="625.3978" y="111.7915">&#1087;&#1086;</text><text fill="#4682B4" font-family="sans-serif" font-size="13" lengthAdjust="spacing" textLength="57.0337" x="559.16" y="129.0825">&#1087;&#1088;&#1072;&#1074;&#1086;&#1074;&#1086;&#1081;</text><text fill="#4682B4" font-family="sans-serif" font-size="13" lengthAdjust="spacing" textLength="55.25" x="559.16" y="146.3736">&#1087;&#1086;&#1083;&#1080;&#1090;&#1080;&#1082;&#1077;</text></g><g class="entity" data-entity="q" data-source-line="53" data-uid="ent0028" id="entity_q"><ellipse cx="880.408" cy="1073.0484" fill="#F8E7C0" filter="url(#f1mzzfu3tu2jxn)" rx="56.218" ry="29.5262" style="stroke:#A80036;stroke-width:1;"/><text fill="#4682B4" font-family="sans-serif" font-size="14" font-style="italic" lengthAdjust="spacing" textLength="74.7168" x="843.0496" y="1069.2778">&#171;institution&#187;</text><text fill="#4682B4" font-family="sans-serif" font-size="14" lengthAdjust="spacing" textLength="41.4258" x="852.3054" y="1087.8989">&#1054;&#1090;&#1076;&#1077;&#1083;</text><text fill="#4682B4" font-family="sans-serif" font-size="14" lengthAdjust="spacing" textLength="3.8896" x="893.7312" y="1087.8989">&#160;</text><text fill="#4682B4" font-family="sans-serif" font-size="14" lengthAdjust="spacing" textLength="10.8896" x="897.6209" y="1087.8989">Q</text></g><!--entity body--><g class="entity" data-entity="body" data-source-line="58" data-uid="ent0031" id="entity_body"><ellipse cx="70.0552" cy="813.5533" fill="#228B22" rx="8" ry="8" style="stroke:#808080;stroke-width:2;"/><path d="M70.0552,821.5533 L70.0552,848.5533 M57.0552,829.5533 L83.0552,829.5533 M70.0552,848.5533 L57.0552,863.5533 M70.0552,848.5533 L83.0552,863.5533" fill="none" style="stroke:#808080;stroke-width:2;"/><text fill="#4682B4" font-family="sans-serif" font-size="14" lengthAdjust="spacing" textLength="36.0459" x="25.02" y="881.6607">&#1043;&#1077;&#1086;&#1088;&#1075;</text><text fill="#4682B4" font-family="sans-serif" font-size="14" lengthAdjust="spacing" textLength="3.8896" x="61.0659" y="881.6607">&#160;</text><text fill="#4682B4" font-family="sans-serif" font-size="14" lengthAdjust="spacing" textLength="50.1348" x="64.9555" y="881.6607">&#1052;&#1072;&#1076;&#1089;&#1077;&#1085;</text><text fill="#4682B4" font-family="sans-serif" font-size="14" font-style="italic" lengthAdjust="spacing" textLength="46.7168" x="46.6968" y="800.0396">&#171;dead&#187;</text></g><!--entity brother--><g class="entity" data-entity="brother" data-source-line="61" data-uid="ent0033" id="entity_brother"><ellipse cx="70.0584" cy="397.2422" fill="#228B22" filter="url(#f1mzzfu3tu2jxn)" rx="8" ry="8" style="stroke:#A80036;stroke-width:2;"/><path d="M70.0584,405.2422 L70.0584,432.2422 M57.0584,413.2422 L83.0584,413.2422 M70.0584,432.2422 L57.0584,447.2422 M70.0584,432.2422 L83.0584,447.2422" fill="none" filter="url(#f1mzzfu3tu2jxn)" style="stroke:#A80036;stroke-width:2;"/><text fill="#4682B4" font-family="sans-serif" font-size="14" lengthAdjust="spacing" textLength="39.7168" x="50.2" y="469.3496">&#1059;&#1092;&#1092;&#1077;</text></g><!--entity help--><g class="entity" data-entity="help" data-source-line="65" data-uid="ent0035" id="entity_help"><ellipse cx="70.0571" cy="537.5558" fill="#B8860B" filter="url(#f1mzzfu3tu2jxn)" rx="8" ry="8" style="stroke:#A80036;stroke-width:2;"/><path d="M70.0571,545.5558 L70.0571,572.5558 M57.0571,553.5558 L83.0571,553.5558 M70.0571,572.5558 L57.0571,587.5558 M70.0571,572.5558 L83.0571,587.5558" fill="none" filter="url(#f1mzzfu3tu2jxn)" style="stroke:#A80036;stroke-width:2;"/><text fill="#228B22" font-family="times new roman" font-size="18" font-style="italic" lengthAdjust="spacing" textLength="114.5742" x="12.77" y="610.5958">&#1076;&#1086;&#1084;&#1088;&#1072;&#1073;&#1086;&#1090;&#1085;&#1080;&#1094;&#1072;</text><text fill="#228B22" font-family="times new roman" font-size="18" font-style="italic" lengthAdjust="spacing" textLength="83.9883" x="28.063" y="523.6622">&#171;unnamed&#187;</text></g><!--entity new--><g class="entity" data-entity="new" data-source-line="68" data-uid="ent0037" id="entity_new"><ellipse cx="1126.0141" cy="942.5558" fill="#228B22" filter="url(#f1mzzfu3tu2jxn)" rx="8" ry="8" style="stroke:#A80036;stroke-width:2;"/><path d="M1126.0141,950.5558 L1126.0141,977.5558 M1113.0141,958.5558 L1139.0141,958.5558 M1126.0141,977.5558 L1113.0141,992.5558 M1126.0141,977.5558 L1139.0141,992.5558" fill="none" filter="url(#f1mzzfu3tu2jxn)" style="stroke:#A80036;stroke-width:2;"/><text fill="#228B22" font-family="times new roman" font-size="18" font-style="italic" lengthAdjust="spacing" textLength="72.7559" x="1089.6362" y="1015.5958">&#1083;&#1102;&#1073;&#1086;&#1074;&#1085;&#1080;&#1082;</text><text fill="#228B22" font-family="times new roman" font-size="18" font-style="italic" lengthAdjust="spacing" textLength="83.9883" x="1084.02" y="928.6622">&#171;unnamed&#187;</text></g><!--entity tenant--><g class="entity" data-entity="tenant" data-source-line="72" data-uid="ent0039" id="entity_tenant"><ellipse cx="70.0555" cy="961.9322" fill="#228B22" filter="url(#f1mzzfu3tu2jxn)" rx="8" ry="8" style="stroke:#A80036;stroke-width:2;"/><path d="M70.0555,969.9322 L70.0555,996.9322 M57.0555,977.9322 L83.0555,977.9322 M70.0555,996.9322 L57.0555,1011.9322 M70.0555,996.9322 L83.0555,1011.9322" fill="none" filter="url(#f1mzzfu3tu2jxn)" style="stroke:#A80036;stroke-width:2;"/><text fill="#4682B4" font-family="sans-serif" font-size="14" lengthAdjust="spacing" textLength="49.1641" x="45.4734" y="1034.0396">&#1052;&#1086;&#1088;&#1090;&#1077;&#1085;</text><text fill="#4682B4" font-family="sans-serif" font-size="14" lengthAdjust="spacing" textLength="56.7109" x="41.7" y="1052.6607">&#1061;&#1086;&#1083;&#1083;&#1072;&#1085;&#1085;</text></g><!--entity stepson--><g class="entity" data-entity="stepson" data-source-line="75" data-uid="ent0040" id="entity_stepson"><ellipse cx="70.061" cy="1101.2422" fill="#228B22" filter="url(#f1mzzfu3tu2jxn)" rx="8" ry="8" style="stroke:#A80036;stroke-width:2;"/><path d="M70.061,1109.2422 L70.061,1136.2422 M57.061,1117.2422 L83.061,1117.2422 M70.061,1136.2422 L57.061,1151.2422 M70.061,1136.2422 L83.061,1151.2422" fill="none" filter="url(#f1mzzfu3tu2jxn)" style="stroke:#A80036;stroke-width:2;"/><text fill="#4682B4" font-family="sans-serif" font-size="14" lengthAdjust="spacing" textLength="48.002" x="46.06" y="1173.3496">&#1049;&#1077;&#1089;&#1087;&#1077;&#1088;</text></g><g class="entity" data-entity="home" data-source-line="78" data-uid="ent0041" id="entity_home"><ellipse cx="350.5294" cy="1020.0551" fill="#E6E6FA" filter="url(#f1mzzfu3tu2jxn)" rx="67.4094" ry="40.1629" style="stroke:#A80036;stroke-width:1;"/><text fill="#4682B4" font-family="sans-serif" font-size="14" font-style="italic" lengthAdjust="spacing" textLength="63.8271" x="313.8631" y="1004.6227">&#171;location&#187;</text><text fill="#4682B4" font-family="sans-serif" font-size="14" lengthAdjust="spacing" textLength="25.5801" x="327.323" y="1023.2438">&#1076;&#1086;&#1084;</text><text fill="#4682B4" font-family="sans-serif" font-size="14" lengthAdjust="spacing" textLength="3.8896" x="352.9031" y="1023.2438">&#160;</text><text fill="#4682B4" font-family="sans-serif" font-size="14" lengthAdjust="spacing" textLength="7.4375" x="356.7928" y="1023.2438">&#1074;</text><text fill="#4682B4" font-family="sans-serif" font-size="14" lengthAdjust="spacing" textLength="84.8203" x="303.3665" y="1041.8648">&#1056;&#1105;&#1085;&#1085;&#1077;&#1093;&#1086;&#1083;&#1100;&#1090;&#1077;</text></g><g class="entity" data-entity="group" data-source-line="84" data-uid="ent0045" id="entity_group"><ellipse cx="880.4085" cy="1356.0507" fill="#F8E7C0" filter="url(#f1mzzfu3tu2jxn)" rx="69.9785" ry="40.9485" style="stroke:#A80036;stroke-width:1;"/><text fill="#4682B4" font-family="sans-serif" font-size="14" font-style="italic" lengthAdjust="spacing" textLength="74.7168" x="837.0798" y="1342.2333">&#171;institution&#187;</text><text fill="#4682B4" font-family="sans-serif" font-size="14" lengthAdjust="spacing" textLength="86.5977" x="831.1394" y="1360.8544">&#1054;&#1087;&#1077;&#1088;&#1072;&#1090;&#1080;&#1074;&#1085;&#1072;&#1103;</text><text fill="#4682B4" font-family="sans-serif" font-size="14" lengthAdjust="spacing" textLength="42.8408" x="853.0178" y="1379.4755">&#1075;&#1088;&#1091;&#1087;&#1087;&#1072;</text></g><!--entity viggo--><g class="entity" data-entity="viggo" data-source-line="88" data-uid="ent0047" id="entity_viggo"><ellipse cx="612.3686" cy="1323.2422" fill="#228B22" filter="url(#f1mzzfu3tu2jxn)" rx="8" ry="8" style="stroke:#A80036;stroke-width:2;"/><path d="M612.3686,1331.2422 L612.3686,1358.2422 M599.3686,1339.2422 L625.3686,1339.2422 M612.3686,1358.2422 L599.3686,1373.2422 M612.3686,1358.2422 L625.3686,1373.2422" fill="none" filter="url(#f1mzzfu3tu2jxn)" style="stroke:#A80036;stroke-width:2;"/><text fill="#4682B4" font-family="sans-serif" font-size="14" lengthAdjust="spacing" textLength="35.1572" x="573.52" y="1395.3496">&#1042;&#1080;&#1075;&#1075;&#1086;</text><text fill="#4682B4" font-family="sans-serif" font-size="14" lengthAdjust="spacing" textLength="3.8896" x="608.6772" y="1395.3496">&#160;</text><text fill="#4682B4" font-family="sans-serif" font-size="14" lengthAdjust="spacing" textLength="38.6504" x="612.5669" y="1395.3496">&#1041;&#1088;&#1080;&#1085;&#1082;</text></g><!--entity piter--><g class="entity" data-entity="piter" data-source-line="89" data-uid="ent0048" id="entity_piter"><ellipse cx="1126.0133" cy="1318.9322" fill="#228B22" filter="url(#f1mzzfu3tu2jxn)" rx="8" ry="8" style="stroke:#A80036;stroke-width:2;"/><path d="M1126.0133,1326.9322 L1126.0133,1353.9322 M1113.0133,1334.9322 L1139.0133,1334.9322 M1126.0133,1353.9322 L1113.0133,1368.9322 M1126.0133,1353.9322 L1139.0133,1368.9322" fill="none" filter="url(#f1mzzfu3tu2jxn)" style="stroke:#A80036;stroke-width:2;"/><text fill="#4682B4" font-family="sans-serif" font-size="14" lengthAdjust="spacing" textLength="39.8672" x="1106.0797" y="1391.0396">&#1055;&#1080;&#1090;&#1077;&#1088;</text><text fill="#4682B4" font-family="sans-serif" font-size="14" lengthAdjust="spacing" textLength="58.6865" x="1096.67" y="1409.6607">&#1042;&#1077;&#1089;&#1090;&#1077;&#1074;&#1080;&#1075;</text></g><!--entity police_secretary--><g class="entity" data-entity="police_secretary" data-source-line="94" data-uid="ent0051" id="entity_police_secretary"><ellipse cx="1350.0041" cy="1264.5558" fill="#B8860B" filter="url(#f1mzzfu3tu2jxn)" rx="8" ry="8" style="stroke:#A80036;stroke-width:2;"/><path d="M1350.0041,1272.5558 L1350.0041,1299.5558 M1337.0041,1280.5558 L1363.0041,1280.5558 M1350.0041,1299.5558 L1337.0041,1314.5558 M1350.0041,1299.5558 L1363.0041,1314.5558" fill="none" filter="url(#f1mzzfu3tu2jxn)" style="stroke:#A80036;stroke-width:2;"/><text fill="#228B22" font-family="times new roman" font-size="18" font-style="italic" lengthAdjust="spacing" textLength="63.9053" x="1318.0515" y="1337.5958">&#1076;&#1077;&#1074;&#1091;&#1096;&#1082;&#1072;</text><text fill="#228B22" font-family="times new roman" font-size="18" font-style="italic" lengthAdjust="spacing" textLength="83.9883" x="1308.01" y="1250.6622">&#171;unnamed&#187;</text></g><!--entity mp--><g class="entity" data-entity="mp" data-source-line="97" data-uid="ent0053" id="entity_mp"><ellipse cx="350.5281" cy="203.2422" fill="#228B22" filter="url(#f1mzzfu3tu2jxn)" rx="8" ry="8" style="stroke:#A80036;stroke-width:2;"/><path d="M350.5281,211.2422 L350.5281,238.2422 M337.5281,219.2422 L363.5281,219.2422 M350.5281,238.2422 L337.5281,253.2422 M350.5281,238.2422 L363.5281,253.2422" fill="none" filter="url(#f1mzzfu3tu2jxn)" style="stroke:#A80036;stroke-width:2;"/><text fill="#4682B4" font-family="sans-serif" font-size="14" lengthAdjust="spacing" textLength="29.3535" x="310.22" y="275.3496">&#1050;&#1091;&#1088;&#1090;</text><text fill="#4682B4" font-family="sans-serif" font-size="14" lengthAdjust="spacing" textLength="3.8896" x="339.5735" y="275.3496">&#160;</text><text fill="#4682B4" font-family="sans-serif" font-size="14" lengthAdjust="spacing" textLength="47.373" x="343.4632" y="275.3496">&#1061;&#1072;&#1085;&#1089;&#1077;&#1085;</text></g><g class="entity" data-entity="GMN54" data-source-line="98" data-uid="ent0055" id="entity_GMN54"><path d="M552.55,205.1122 L552.55,232.0522 L391.28,236.0522 L552.55,240.0522 L552.55,266.9852 A0,0 0 0 0 552.55,266.9852 L672.1989,266.9852 A0,0 0 0 0 672.1989,266.9852 L672.1989,215.1122 L662.1989,205.1122 L552.55,205.1122 A0,0 0 0 0 552.55,205.1122" fill="#FBFB77" filter="url(#f1mzzfu3tu2jxn)" style="stroke:#A80036;stroke-width:1;"/><path d="M662.1989,205.1122 L662.1989,215.1122 L672.1989,215.1122 L662.1989,205.1122" fill="#FBFB77" style="stroke:#A80036;stroke-width:1;"/><text fill="#4682B4" font-family="sans-serif" font-size="13" lengthAdjust="spacing" textLength="98.6489" x="558.55" y="224.1405">&#1050;&#1086;&#1085;&#1089;&#1077;&#1088;&#1074;&#1072;&#1090;&#1080;&#1074;&#1085;&#1072;&#1103;</text><text fill="#4682B4" font-family="sans-serif" font-size="13" lengthAdjust="spacing" textLength="45.3667" x="558.55" y="241.4315">&#1087;&#1072;&#1088;&#1090;&#1080;&#1103;,</text><text fill="#4682B4" font-family="sans-serif" font-size="13" lengthAdjust="spacing" textLength="3.6118" x="603.9167" y="241.4315">&#160;</text><text fill="#4682B4" font-family="sans-serif" font-size="13" lengthAdjust="spacing" textLength="48.6484" x="607.5285" y="241.4315">&#1073;&#1099;&#1074;&#1096;&#1080;&#1081;</text><text fill="#4682B4" font-family="sans-serif" font-size="13" lengthAdjust="spacing" textLength="89.7495" x="558.55" y="258.7225">&#1074;&#1080;&#1094;&#1077;-&#1082;&#1086;&#1084;&#1080;&#1089;&#1089;&#1072;&#1088;</text></g><g class="entity" data-entity="volketing" data-source-line="100" data-uid="ent0057" id="entity_volketing"><ellipse cx="70.0598" cy="175.048" fill="#F8E7C0" filter="url(#f1mzzfu3tu2jxn)" rx="64.0598" ry="29.1758" style="stroke:#A80036;stroke-width:1;"/><text fill="#4682B4" font-family="sans-serif" font-size="14" font-style="italic" lengthAdjust="spacing" textLength="74.7168" x="29.6621" y="170.5412">&#171;institution&#187;</text><text fill="#4682B4" font-family="sans-serif" font-size="14" lengthAdjust="spacing" textLength="74.874" x="29.5835" y="189.1623">&#1060;&#1086;&#1083;&#1100;&#1082;&#1077;&#1090;&#1080;&#1085;&#1075;</text></g><!--reverse link he to wife--><g class="link" data-entity-1="he" data-entity-2="wife" data-source-line="18" data-uid="lnk5" id="link_he_wife"><path d="M662.0002,1010.179 C721.7802,998.049 821.74,977.7622 862.63,969.4522" fill="none" id="he-backto-wife" style="stroke:#A80036;stroke-width:1;"/><polygon fill="#A80036" points="656.12,1011.3722,665.7357,1013.5026,661.0201,1010.3779,664.1448,1005.6624,656.12,1011.3722" style="stroke:#A80036;stroke-width:1;"/><text fill="#4682B4" font-family="sans-serif" font-size="13" lengthAdjust="spacing" textLength="6.9063" x="704.81" y="967.2405">&#1074;</text><text fill="#4682B4" font-family="sans-serif" font-size="13" lengthAdjust="spacing" textLength="3.6118" x="711.7163" y="967.2405">&#160;</text><text fill="#4682B4" font-family="sans-serif" font-size="13" lengthAdjust="spacing" textLength="56.4053" x="715.3281" y="967.2405">&#1087;&#1088;&#1086;&#1094;&#1077;&#1089;&#1089;&#1077;</text><text fill="#4682B4" font-family="sans-serif" font-size="13" lengthAdjust="spacing" textLength="49.3721" x="713.5856" y="984.5315">&#1088;&#1072;&#1079;&#1074;&#1086;&#1076;&#1072;</text></g><!--link anker to shooting--><g class="link" data-entity-1="anker" data-entity-2="shooting" data-source-line="27" data-uid="lnk12" id="link_anker_shooting"><path d="M94.8,711.2222 C141.56,733.2122 246.19,782.4422 305.79,810.4722" fill="none" id="anker-shooting" style="stroke:#A80036;stroke-width:1;"/></g><!--link shooting to paralized--><g class="link" data-entity-1="shooting" data-entity-2="paralized" data-source-line="28" data-uid="lnk13" id="link_shooting_paralized"><path d="M416.43,827.8022 C466.18,825.3122 533.08,821.9722 574.16,819.9122" fill="none" id="shooting-paralized" style="stroke:#A80036;stroke-width:1;"/></g><!--link shooting to he--><g class="link" data-entity-1="shooting" data-entity-2="he" data-source-line="29" data-uid="lnk14" id="link_shooting_he"><path d="M384.44,854.9922 C431.28,889.0622 517.21,951.5622 568.83,989.1122" fill="none" id="shooting-he" style="stroke:#A80036;stroke-width:1;"/></g><!--reverse link caged to secretary--><g class="link" data-entity-1="caged" data-entity-2="secretary" data-source-line="35" data-uid="lnk17" id="link_caged_secretary"><path d="M400.2334,482.9311 C447.5134,470.1911 517.45,451.3522 565.78,438.3322" fill="none" id="caged-backto-secretary" style="stroke:#A80036;stroke-width:1;"/><polygon fill="#A80036" points="394.44,484.4922,404.1708,486.0128,399.2678,483.1913,402.0893,478.2883,394.44,484.4922" style="stroke:#A80036;stroke-width:1;"/><text fill="#4682B4" font-family="sans-serif" font-size="13" lengthAdjust="spacing" textLength="71.9507" x="448.94" y="446.7205">&#1089;&#1077;&#1082;&#1088;&#1077;&#1090;&#1072;&#1088;&#1096;&#1072;</text></g><!--reverse link baggensen to secretary--><g class="link" data-entity-1="baggensen" data-entity-2="secretary" data-source-line="37" data-uid="lnk18" id="link_baggensen_secretary"><path d="M405.8989,371.4924 C453.3389,384.0924 519.21,401.5822 565.65,413.9122" fill="none" id="baggensen-backto-secretary" style="stroke:#A80036;stroke-width:1;"/><polygon fill="#A80036" points="400.1,369.9522,407.7716,376.1284,404.9325,371.2357,409.8252,368.3965,400.1,369.9522" style="stroke:#A80036;stroke-width:1;"/><text fill="#4682B4" font-family="sans-serif" font-size="13" lengthAdjust="spacing" textLength="48.6357" x="460.44" y="379.3705">&#1089;&#1074;&#1072;&#1090;&#1072;&#1083;&#1072;</text></g><!--link murders to moira--><g class="link" data-entity-1="murders" data-entity-2="moira" data-source-line="43" data-uid="lnk21" id="link_murders_moira"><path d="M959.5,1224.0922 C1007.23,1223.5022 1065.29,1222.7822 1098.42,1222.3822" fill="none" id="murders-moira" style="stroke:#A80036;stroke-width:1;"/><text fill="#4682B4" font-family="sans-serif" font-size="13" lengthAdjust="spacing" textLength="62.8989" x="990.02" y="1219.0505">&#1085;&#1072;&#1095;&#1072;&#1083;&#1100;&#1085;&#1080;&#1082;</text></g><!--reverse link moira to lars--><g class="link" data-entity-1="moira" data-entity-2="lars" data-source-line="48" data-uid="lnk23" id="link_moira_lars"><path d="M1159.5484,1212.5266 C1199.1084,1200.9466 1267.51,1180.9122 1312.17,1167.8422" fill="none" id="moira-backto-lars" style="stroke:#A80036;stroke-width:1;"/><polygon fill="#A80036" points="1153.79,1214.2122,1163.5513,1215.5227,1158.5886,1212.8075,1161.3038,1207.8449,1153.79,1214.2122" style="stroke:#A80036;stroke-width:1;"/><text fill="#4682B4" font-family="sans-serif" font-size="13" lengthAdjust="spacing" textLength="76.6162" x="1200.01" y="1175.9605">&#1079;&#1072;&#1084;&#1077;&#1089;&#1090;&#1080;&#1090;&#1077;&#1083;&#1100;</text></g><!--link q to murders--><g class="link" data-entity-1="q" data-entity-2="murders" data-source-line="55" data-uid="lnk29" id="link_q_murders"><path d="M880.41,1102.8322 C880.41,1122.7122 880.41,1137.3822 880.41,1160.7422" fill="none" id="q-to-murders" style="stroke:#A80036;stroke-width:1;"/><polygon fill="none" points="880.41,1172.7422,884.41,1166.7422,880.41,1160.7422,876.41,1166.7422,880.41,1172.7422" style="stroke:#A80036;stroke-width:1;"/><text fill="#4682B4" font-family="sans-serif" font-size="13" lengthAdjust="spacing" textLength="106.9009" x="806.41" y="1134.8105">&#1072;&#1076;&#1084;&#1080;&#1085;&#1080;&#1089;&#1090;&#1088;&#1072;&#1090;&#1080;&#1074;&#1085;&#1086;</text><text fill="#4682B4" font-family="sans-serif" font-size="13" lengthAdjust="spacing" textLength="76.832" x="821.4444" y="1152.1015">&#1087;&#1086;&#1076;&#1095;&#1080;&#1085;&#1103;&#1077;&#1090;&#1089;&#1103;</text></g><!--link he to q--><g class="link" data-entity-1="he" data-entity-2="q" data-source-line="56" data-uid="lnk30" id="link_he_q"><path d="M656.12,1028.5622 C702.82,1037.8722 777.65,1052.7822 827.65,1062.7422" fill="none" id="he-q" style="stroke:#A80036;stroke-width:1;"/></g><!--link body to shooting--><g class="link" data-entity-1="body" data-entity-2="shooting" data-source-line="59" data-uid="lnk32" id="link_body_shooting"><path d="M115.49,834.4122 C160.94,833.7622 232.06,832.7422 283.98,831.9922" fill="none" id="body-shooting" style="stroke:#A80036;stroke-width:1;"/><text fill="#4682B4" font-family="sans-serif" font-size="13" lengthAdjust="spacing" textLength="26.7236" x="195.62" y="828.4905">&#1090;&#1088;&#1091;&#1087;</text></g><!--link brother to caged--><g class="link" data-entity-1="brother" data-entity-2="caged" data-source-line="63" data-uid="lnk34" id="link_brother_caged"><path d="M90.2,434.5922 C134.56,445.1022 239.4519,469.9579 300.9019,484.5279" fill="none" id="brother-to-caged" style="stroke:#A80036;stroke-width:1;"/><polygon fill="#A80036" points="306.74,485.9122,298.9056,479.9437,301.8749,484.7587,297.06,487.7279,306.74,485.9122" style="stroke:#A80036;stroke-width:1;"/><text fill="#4682B4" font-family="sans-serif" font-size="13" lengthAdjust="spacing" textLength="27.8599" x="195.12" y="449.3105">&#1073;&#1088;&#1072;&#1090;</text></g><!--link help to caged--><g class="link" data-entity-1="help" data-entity-2="caged" data-source-line="66" data-uid="lnk36" id="link_help_caged"><path d="M127.75,547.8222 C180.86,535.4222 253.2173,518.5369 301.1673,507.3369" fill="none" id="help-to-caged" style="stroke:#A80036;stroke-width:1;"/><polygon fill="#A80036" points="307.01,505.9722,297.3361,504.1241,302.1411,507.1095,299.1557,511.9144,307.01,505.9722" style="stroke:#A80036;stroke-width:1;"/><text fill="#4682B4" font-family="sans-serif" font-size="13" lengthAdjust="spacing" textLength="87.9595" x="165.12" y="514.9605">&#1076;&#1086;&#1084;&#1088;&#1072;&#1073;&#1086;&#1090;&#1085;&#1080;&#1094;&#1072;</text></g><!--reverse link wife to new--><g class="link" data-entity-1="wife" data-entity-2="new" data-source-line="70" data-uid="lnk38" id="link_wife_new"><path d="M904.16,966.0522 C941.78,966.0522 1027.98,966.0522 1082.55,966.0522" fill="none" id="wife-backto-new" style="stroke:#A80036;stroke-width:1;"/><polygon fill="#A80036" points="898.16,966.0522,907.16,970.0522,903.16,966.0522,907.16,962.0522,898.16,966.0522" style="stroke:#A80036;stroke-width:1;"/><text fill="#4682B4" font-family="sans-serif" font-size="13" lengthAdjust="spacing" textLength="37.9209" x="1002.52" y="962.0805">&#1085;&#1086;&#1074;&#1099;&#1081;</text></g><!--link home to he--><g class="link" data-entity-1="home" data-entity-2="he" data-source-line="80" data-uid="lnk42" id="link_home_he"><path d="M418.11,1020.0522 C465.47,1020.0522 527.71,1020.0522 568.59,1020.0522" fill="none" id="home-he" style="stroke:#A80036;stroke-width:1;"/><text fill="#4682B4" font-family="sans-serif" font-size="13" lengthAdjust="spacing" textLength="36.0483" x="466.44" y="1016.0805">&#1078;&#1080;&#1074;&#1077;&#1090;</text></g><!--link stepson to home--><g class="link" data-entity-1="stepson" data-entity-2="home" data-source-line="81" data-uid="lnk43" id="link_stepson_home"><path d="M94.32,1124.5322 C137.98,1106.6522 227.7273,1069.9155 288.7173,1044.9455" fill="none" id="stepson-to-home" style="stroke:#A80036;stroke-width:1;"/><polygon fill="#A80036" points="294.27,1042.6722,284.4255,1042.3804,289.6428,1044.5666,287.4566,1049.7839,294.27,1042.6722" style="stroke:#A80036;stroke-width:1;"/><text fill="#4682B4" font-family="sans-serif" font-size="13" lengthAdjust="spacing" textLength="50.21" x="183.62" y="1056.2105">&#1087;&#1072;&#1089;&#1099;&#1085;&#1086;&#1082;</text></g><!--link tenant to home--><g class="link" data-entity-1="tenant" data-entity-2="home" data-source-line="82" data-uid="lnk44" id="link_tenant_home"><path d="M98.78,1005.6422 C141.43,1008.0922 218.3598,1012.5189 277.1598,1015.8889" fill="none" id="tenant-to-home" style="stroke:#A80036;stroke-width:1;"/><polygon fill="#A80036" points="283.15,1016.2322,274.3936,1011.7238,278.1582,1015.9461,273.9359,1019.7107,283.15,1016.2322" style="stroke:#A80036;stroke-width:1;"/><text fill="#4682B4" font-family="sans-serif" font-size="13" lengthAdjust="spacing" textLength="38.2192" x="189.62" y="1005.7105">&#1078;&#1080;&#1083;&#1077;&#1094;</text></g><!--link group to murders--><g class="link" data-entity-1="group" data-entity-2="murders" data-source-line="86" data-uid="lnk46" id="link_group_murders"><path d="M880.41,1314.8622 C880.41,1302.3422 880.41,1301.8322 880.41,1289.3222" fill="none" id="group-to-murders" style="stroke:#A80036;stroke-width:1;"/><polygon fill="none" points="880.41,1277.3222,876.41,1283.3222,880.41,1289.3222,884.41,1283.3222,880.41,1277.3222" style="stroke:#A80036;stroke-width:1;"/></g><!--link viggo to group--><g class="link" data-entity-1="viggo" data-entity-2="group" data-source-line="91" data-uid="lnk49" id="link_viggo_group"><path d="M651.49,1356.0522 C692.72,1356.0522 759.35,1356.0522 809.94,1356.0522" fill="none" id="viggo-group" style="stroke:#A80036;stroke-width:1;"/><text fill="#4682B4" font-family="sans-serif" font-size="13" lengthAdjust="spacing" textLength="62.8989" x="706.81" y="1352.0805">&#1085;&#1072;&#1095;&#1072;&#1083;&#1100;&#1085;&#1080;&#1082;</text></g><!--link group to piter--><g class="link" data-entity-1="group" data-entity-2="piter" data-source-line="92" data-uid="lnk50" id="link_group_piter"><path d="M950.57,1357.4722 C998.82,1358.4622 1060.71,1359.7322 1096.31,1360.4622" fill="none" id="group-piter" style="stroke:#A80036;stroke-width:1;"/></g><!--reverse link moira to police_secretary--><g class="link" data-entity-1="moira" data-entity-2="police_secretary" data-source-line="95" data-uid="lnk52" id="link_moira_police_secretary"><path d="M1159.5412,1231.7221 C1197.4812,1243.0021 1261.52,1262.0422 1306.56,1275.4322" fill="none" id="moira-backto-police_secretary" style="stroke:#A80036;stroke-width:1;"/><polygon fill="#A80036" points="1153.79,1230.0122,1161.2769,1236.4112,1158.5827,1231.4371,1163.5567,1228.7429,1153.79,1230.0122" style="stroke:#A80036;stroke-width:1;"/><text fill="#4682B4" font-family="sans-serif" font-size="13" lengthAdjust="spacing" textLength="71.9507" x="1202.51" y="1241.3105">&#1089;&#1077;&#1082;&#1088;&#1077;&#1090;&#1072;&#1088;&#1096;&#1072;</text></g><!--link volketing to mp--><g class="link" data-entity-1="volketing" data-entity-2="mp" data-source-line="102" data-uid="lnk58" id="link_volketing_mp"><path d="M128.42,187.6122 C182.55,199.4722 262.3,216.9422 309.76,227.3422" fill="none" id="volketing-mp" style="stroke:#A80036;stroke-width:1;"/></g><!--link volketing to vestegor--><g class="link" data-entity-1="volketing" data-entity-2="vestegor" data-source-line="103" data-uid="lnk59" id="link_volketing_vestegor"><path d="M128.42,162.6922 C179.85,151.6122 254.39,135.5522 302.41,125.2022" fill="none" id="volketing-vestegor" style="stroke:#A80036;stroke-width:1;"/></g><rect fill="none" height="30.6211" rx="7.5" ry="7.5" style="stroke:#000000;stroke-width:1;" width="43.9102" x="671.0441" y="1425.1607"/><text fill="#4682B4" font-family="sans-serif" font-size="14" lengthAdjust="spacing" textLength="31.9102" x="677.0441" y="1446.2681">6.9%</text><!--SRC=[XLLjRjj64Fs_fzW4AT02bOMYGD4AgixGdY2WgHL9cEBAvCg6-yjo4ZT5WxXEYW9DZARen-zIijN8iYrVOVT6VJDBMfBje10CaykPDpDltim-U5IOlLHz4vXOVYqVniOCYbQpcGUx6r5Yuk7ci51vg3EZChCHwdvJfshhy-OW3J8pxAUD90lJOLSLpLprYcQiWYuz1jqaYve931uAyQ2oaSjGjSa6cGXHR2NP8CY3lWn2e_DsUvXbGLzrEvqU8XV9Tqf-zkN_M8KwrRdiwLmL9igLoeGmYKcLjB_OgRroFzYPlRAbj1Dfv_R2Jjq1_az5FqYo7a2L36E0XqRbXKXLfBAkRCalDhxwI8YMFO7zFld02nXltKk0dUAtSFij6HGo32BLbV9HJ_M3L3qUvDe4aSwImf3x6rl2_KBQ4tUCXpcxn63aFkDNo9IWIxRQJNggXXLmQJSQ_gp5fLm3Rk4EaTh8ZUnKuhMqx-t4BkoPBGdkRuvzPcSIZs02FsBYbCpj5SSWLbEmtFK9YKmR9JUrCRgFADSCK8Ap6P0Nm2u9nVrepmd_9xpCYHw62h8jbSjskui6TpeLdlZOlgi87852_0VOt9QVa4SHQssW1JYf7QYiqn72ew3I-gEuiSBXJRfhfx6YRFv0SgVWmHxpmodtVbdfPX2XiuNAwioejLJUp1T5pNq3Gf-nTQ72N9aWtxjfWF1zfYOiFxOaHvXxXH2SUqxSBuFTOmyMoHP4bCJFRtWv8rw8xmMtaJiAeUAy9dtcNahtn8wHxZbHQITCON-OTo5RC9Xa1LG_D8dEYCUwkhbxuaRI_WFI5tQymaTV9tbGSr7385b_ZkQ34VSzfUbUi73cWb3VSf50F7OlMD4UBGtWNOCn0XNEfu1w3vXBBm4KSa35kXU4zWwuaFAhwXi9PJbOEvXd5M6qwnQmEFCaYWqmVoOMKG_4v8uggJByqQUIUQDHB-qPQa3kdbkUcP97XFxE-PJKJOwy4zRwyIrJl7sNt6tPq3VKKu68Wm9dt2Ulyv8X9pXP-2W-aIjtnBjav8vefC7HDl7m6l4MLBoaji5sHRUwktTxglXiPKP8LmWAVLmJsf_kgNjgfzuT6oR6H5MzgLyRZKwrk93zsETBhaJS9PCqHa87ND1XjOzYbGxaokvTsKtui8Ru0HYAS845EkO6iAWOELExwy0-MLvsf2Fwpeg4MxryJeWmrj8LhJTguuMVP8R4hOLxgaQ2_Q-aCNIYNbVGrg3GDzi0ZUUaURN-xevv9KpTCmA6qX67nH1hN1VjTgh3e1O37_4MeXp_vQwZnQ8EGCImJRLGHwY0AfcBAiTL0tAd6-gGbUZJNT4II_tKTvh0EASeryF1NP7wuwLGLo-O1StlFWlMTs0dYI9TSS5ZwQTnPJGH7xx-qaZCKb7U4_NxUFSkZYgLXlVqEWCWLjDpcbyFgjCaL8-Nk_8-fIrNontp3wrYNC680wMGIigrAw4_MBtrgiN2ju0t0zJaDldhUsQCNauGPqQxPC8YdpPurLxo9XYHDRNoBwyZlYuF_2tClTlHwPQgxi1R_Lj-egqyaEi7zN8K_m40]--></g></svg>