<svg xmlns="http://www.w3.org/2000/svg" xmlns:xlink="http://www.w3.org/1999/xlink" contentStyleType="text/css" data-diagram-type="DESCRIPTION" height="1057px" preserveAspectRatio="none" style="width:1350px;height:1057px;" version="1.1" viewBox="0 0 1350 1057" width="1350px" zoomAndPan="magnify"><title>&#1046;&#1077;&#1085;&#1097;&#1080;&#1085;&#1072; &#1074; &#1082;&#1083;&#1077;&#1090;&#1082;&#1077;</title><defs><filter height="300%" id="f1hdov45dujwz2" width="300%" x="-1" y="-1"><feGaussianBlur result="blurOut" stdDeviation="2"/><feColorMatrix in="blurOut" result="blurOut2" type="matrix" values="0 0 0 0 0 0 0 0 0 0 0 0 0 0 0 0 0 0 .4 0"/><feOffset dx="4" dy="4" in="blurOut2" result="blurOut3"/><feBlend in="SourceGraphic" in2="blurOut3" mode="normal"/></filter></defs><g><text fill="#4682B4" font-family="sans-serif" font-size="14" font-weight="bold" lengthAdjust="spacing" textLength="127.2783" x="602.2031" y="25.1074">&#1046;&#1077;&#1085;&#1097;&#1080;&#1085;&#1072; &#1074; &#1082;&#1083;&#1077;&#1090;&#1082;&#1077;</text><rect fill="none" height="980.2296" style="stroke:#A80036;stroke-width:1;" width="1344.6846" x="0" y="39.6211"/><path d="M75.3584,39.6211 L75.3584,51.2422 L65.3584,61.2422 L0,61.2422" fill="none" style="stroke:#A80036;stroke-width:1;"/><text fill="#4682B4" font-family="sans-serif" font-size="14" lengthAdjust="spacing" textLength="65.3584" x="3" y="55.7285">characters</text><!--entity caged--><g class="entity" data-entity="caged" data-source-line="13" data-uid="ent0002" id="entity_caged"><ellipse cx="339.5204" cy="221.2433" fill="#FFFF00" filter="url(#f1hdov45dujwz2)" rx="8" ry="8" style="stroke:#A80036;stroke-width:2;"/><path d="M339.5204,229.2433 L339.5204,256.2433 M326.5204,237.2433 L352.5204,237.2433 M339.5204,256.2433 L326.5204,271.2433 M339.5204,256.2433 L352.5204,271.2433" fill="none" filter="url(#f1hdov45dujwz2)" style="stroke:#A80036;stroke-width:2;"/><text fill="#4682B4" font-family="sans-serif" font-size="14" lengthAdjust="spacing" textLength="55.6309" x="311.705" y="293.3507">&#1052;&#1077;&#1088;&#1077;&#1090;&#1090;&#1072;</text><text fill="#4682B4" font-family="sans-serif" font-size="14" lengthAdjust="spacing" textLength="53.2041" x="312.9184" y="311.9718">&#1051;&#1102;&#1085;&#1075;&#1075;&#1086;&#1088;</text><text fill="#4682B4" font-family="sans-serif" font-size="14" font-style="italic" lengthAdjust="spacing" textLength="84.8408" x="297.1" y="207.7296">&#171;protagonist&#187;</text></g><!--entity he--><g class="entity" data-entity="he" data-source-line="15" data-uid="ent0003" id="entity_he"><ellipse cx="600.0504" cy="903.5533" fill="#00FF00" filter="url(#f1hdov45dujwz2)" rx="8" ry="8" style="stroke:#A80036;stroke-width:2;"/><path d="M600.0504,911.5533 L600.0504,938.5533 M587.0504,919.5533 L613.0504,919.5533 M600.0504,938.5533 L587.0504,953.5533 M600.0504,938.5533 L613.0504,953.5533" fill="none" filter="url(#f1hdov45dujwz2)" style="stroke:#A80036;stroke-width:2;"/><text fill="#4682B4" font-family="sans-serif" font-size="14" lengthAdjust="spacing" textLength="31.8965" x="565.4777" y="975.6607">&#1050;&#1072;&#1088;&#1083;</text><text fill="#4682B4" font-family="sans-serif" font-size="14" lengthAdjust="spacing" textLength="3.8896" x="597.3741" y="975.6607">&#160;</text><text fill="#4682B4" font-family="sans-serif" font-size="14" lengthAdjust="spacing" textLength="33.3594" x="601.2638" y="975.6607">&#1052;&#1105;&#1088;&#1082;</text><text fill="#4682B4" font-family="sans-serif" font-size="14" font-style="italic" lengthAdjust="spacing" textLength="84.8408" x="557.63" y="890.0396">&#171;protagonist&#187;</text></g><!--entity wife--><g class="entity" data-entity="wife" data-source-line="17" data-uid="ent0004" id="entity_wife"><ellipse cx="868.0886" cy="923.2422" fill="#B8860B" filter="url(#f1hdov45dujwz2)" rx="8" ry="8" style="stroke:#A80036;stroke-width:2;"/><path d="M868.0886,931.2422 L868.0886,958.2422 M855.0886,939.2422 L881.0886,939.2422 M868.0886,958.2422 L855.0886,973.2422 M868.0886,958.2422 L881.0886,973.2422" fill="none" filter="url(#f1hdov45dujwz2)" style="stroke:#A80036;stroke-width:2;"/><text fill="#4682B4" font-family="sans-serif" font-size="14" lengthAdjust="spacing" textLength="35.1572" x="850.51" y="995.3496">&#1042;&#1080;&#1075;&#1075;&#1072;</text></g><!--entity paralized--><g class="entity" data-entity="paralized" data-source-line="20" data-uid="ent0006" id="entity_paralized"><ellipse cx="600.0413" cy="682.9322" fill="#228B22" filter="url(#f1hdov45dujwz2)" rx="8" ry="8" style="stroke:#A80036;stroke-width:2;"/><path d="M600.0413,690.9322 L600.0413,717.9322 M587.0413,698.9322 L613.0413,698.9322 M600.0413,717.9322 L587.0413,732.9322 M600.0413,717.9322 L613.0413,732.9322" fill="none" filter="url(#f1hdov45dujwz2)" style="stroke:#A80036;stroke-width:2;"/><text fill="#4682B4" font-family="sans-serif" font-size="14" lengthAdjust="spacing" textLength="40.8994" x="579.5916" y="755.0396">&#1061;&#1072;&#1088;&#1076;&#1080;</text><text fill="#4682B4" font-family="sans-serif" font-size="14" lengthAdjust="spacing" textLength="75.7627" x="562.16" y="773.6607">&#1061;&#1077;&#1085;&#1085;&#1080;&#1085;&#1075;&#1089;&#1077;&#1085;</text></g><g class="entity" data-entity="GMN7" data-source-line="21" data-uid="ent0008" id="entity_GMN7"><path d="M538.61,812.4022 L538.61,839.6932 A0,0 0 0 0 538.61,839.6932 L661.4772,839.6932 A0,0 0 0 0 661.4772,839.6932 L661.4772,822.4022 L651.4772,812.4022 L604.05,812.4022 L600.05,777.5022 L596.05,812.4022 L538.61,812.4022 A0,0 0 0 0 538.61,812.4022" fill="#FBFB77" filter="url(#f1hdov45dujwz2)" style="stroke:#A80036;stroke-width:1;"/><path d="M651.4772,812.4022 L651.4772,822.4022 L661.4772,822.4022 L651.4772,812.4022" fill="#FBFB77" style="stroke:#A80036;stroke-width:1;"/><text fill="#4682B4" font-family="sans-serif" font-size="13" lengthAdjust="spacing" textLength="101.8672" x="544.61" y="831.4305">&#1087;&#1072;&#1088;&#1072;&#1083;&#1080;&#1079;&#1086;&#1074;&#1072;&#1085;&#1085;&#1099;&#1081;</text></g><!--entity anker--><g class="entity" data-entity="anker" data-source-line="23" data-uid="ent0010" id="entity_anker"><ellipse cx="65.2084" cy="687.5533" fill="#228B22" rx="8" ry="8" style="stroke:#808080;stroke-width:2;"/><path d="M65.2084,695.5533 L65.2084,722.5533 M52.2084,703.5533 L78.2084,703.5533 M65.2084,722.5533 L52.2084,737.5533 M65.2084,722.5533 L78.2084,737.5533" fill="none" style="stroke:#808080;stroke-width:2;"/><text fill="#4682B4" font-family="sans-serif" font-size="14" lengthAdjust="spacing" textLength="38.7666" x="45.8251" y="755.6607">&#1040;&#1085;&#1082;&#1077;&#1088;</text><text fill="#4682B4" font-family="sans-serif" font-size="14" font-style="italic" lengthAdjust="spacing" textLength="46.7168" x="41.85" y="674.0396">&#171;dead&#187;</text></g><g class="entity" data-entity="shooting" data-source-line="25" data-uid="ent0011" id="entity_shooting"><ellipse cx="339.5241" cy="776.0558" fill="#C9FFC9" filter="url(#f1hdov45dujwz2)" rx="66.0941" ry="27.3536" style="stroke:#A80036;stroke-width:1;"/><text fill="#4682B4" font-family="sans-serif" font-size="14" font-style="italic" lengthAdjust="spacing" textLength="49.8203" x="309.0871" y="769.8444">&#171;event&#187;</text><text fill="#4682B4" font-family="sans-serif" font-size="14" lengthAdjust="spacing" textLength="84.4854" x="291.7546" y="788.4655">&#1055;&#1077;&#1088;&#1077;&#1089;&#1090;&#1088;&#1077;&#1083;&#1082;&#1072;</text></g><!--entity baggensen--><g class="entity" data-entity="baggensen" data-source-line="31" data-uid="ent0015" id="entity_baggensen"><ellipse cx="339.5209" cy="82.2422" fill="#228B22" filter="url(#f1hdov45dujwz2)" rx="8" ry="8" style="stroke:#A80036;stroke-width:2;"/><path d="M339.5209,90.2422 L339.5209,117.2422 M326.5209,98.2422 L352.5209,98.2422 M339.5209,117.2422 L326.5209,132.2422 M339.5209,117.2422 L352.5209,132.2422" fill="none" filter="url(#f1hdov45dujwz2)" style="stroke:#A80036;stroke-width:2;"/><text fill="#4682B4" font-family="sans-serif" font-size="14" lengthAdjust="spacing" textLength="29.2305" x="290.35" y="154.3496">&#1058;&#1072;&#1075;&#1077;</text><text fill="#4682B4" font-family="sans-serif" font-size="14" lengthAdjust="spacing" textLength="3.8896" x="319.5805" y="154.3496">&#160;</text><text fill="#4682B4" font-family="sans-serif" font-size="14" lengthAdjust="spacing" textLength="65.2217" x="323.4701" y="154.3496">&#1041;&#1072;&#1075;&#1075;&#1077;&#1085;&#1089;&#1077;&#1085;</text></g><!--entity secretary--><g class="entity" data-entity="secretary" data-source-line="33" data-uid="ent0016" id="entity_secretary"><ellipse cx="600.0504" cy="131.2422" fill="#B8860B" filter="url(#f1hdov45dujwz2)" rx="8" ry="8" style="stroke:#A80036;stroke-width:2;"/><path d="M600.0504,139.2422 L600.0504,166.2422 M587.0504,147.2422 L613.0504,147.2422 M600.0504,166.2422 L587.0504,181.2422 M600.0504,166.2422 L613.0504,181.2422" fill="none" filter="url(#f1hdov45dujwz2)" style="stroke:#A80036;stroke-width:2;"/><text fill="#4682B4" font-family="sans-serif" font-size="14" lengthAdjust="spacing" textLength="66.0898" x="553.59" y="203.3496">&#1052;&#1072;&#1088;&#1080;&#1072;&#1085;&#1085;&#1072;</text><text fill="#4682B4" font-family="sans-serif" font-size="14" lengthAdjust="spacing" textLength="3.8896" x="619.6798" y="203.3496">&#160;</text><text fill="#4682B4" font-family="sans-serif" font-size="14" lengthAdjust="spacing" textLength="22.9414" x="623.5695" y="203.3496">&#1050;&#1086;&#1093;</text></g><g class="entity" data-entity="murders" data-source-line="39" data-uid="ent0019" id="entity_murders"><ellipse cx="868.0879" cy="697.056" fill="#F8E7C0" filter="url(#f1hdov45dujwz2)" rx="78.6079" ry="52.0738" style="stroke:#A80036;stroke-width:1;"/><text fill="#4682B4" font-family="sans-serif" font-size="14" font-style="italic" lengthAdjust="spacing" textLength="74.7168" x="820.7192" y="673.9281">&#171;institution&#187;</text><text fill="#4682B4" font-family="sans-serif" font-size="14" lengthAdjust="spacing" textLength="41.4258" x="827.7363" y="692.5492">&#1054;&#1090;&#1076;&#1077;&#1083;</text><text fill="#4682B4" font-family="sans-serif" font-size="14" lengthAdjust="spacing" textLength="3.8896" x="869.1621" y="692.5492">&#160;</text><text fill="#4682B4" font-family="sans-serif" font-size="14" lengthAdjust="spacing" textLength="15.3672" x="873.0517" y="692.5492">&#1087;&#1086;</text><text fill="#4682B4" font-family="sans-serif" font-size="14" lengthAdjust="spacing" textLength="102.7578" x="806.6987" y="711.1703">&#1088;&#1072;&#1089;&#1089;&#1083;&#1077;&#1076;&#1086;&#1074;&#1072;&#1085;&#1080;&#1102;</text><text fill="#4682B4" font-family="sans-serif" font-size="14" lengthAdjust="spacing" textLength="51.5088" x="832.3232" y="729.7914">&#1091;&#1073;&#1080;&#1081;&#1089;&#1090;&#1074;</text></g><!--entity moira--><g class="entity" data-entity="moira" data-source-line="41" data-uid="ent0020" id="entity_moira"><ellipse cx="1097.9688" cy="654.9322" fill="#FEFECE" filter="url(#f1hdov45dujwz2)" rx="8" ry="8" style="stroke:#A80036;stroke-width:2;"/><path d="M1097.9688,662.9322 L1097.9688,689.9322 M1084.9688,670.9322 L1110.9688,670.9322 M1097.9688,689.9322 L1084.9688,704.9322 M1097.9688,689.9322 L1110.9688,704.9322" fill="none" filter="url(#f1hdov45dujwz2)" style="stroke:#A80036;stroke-width:2;"/><text fill="#4682B4" font-family="sans-serif" font-size="14" lengthAdjust="spacing" textLength="47.3594" x="1074.2891" y="727.0396">&#1052;&#1072;&#1088;&#1082;&#1091;&#1089;</text><text fill="#4682B4" font-family="sans-serif" font-size="14" lengthAdjust="spacing" textLength="54.5576" x="1070.69" y="745.6607">&#1071;&#1082;&#1086;&#1073;&#1089;&#1077;&#1085;</text></g><!--entity lars--><g class="entity" data-entity="lars" data-source-line="46" data-uid="ent0022" id="entity_lars"><ellipse cx="1300.9673" cy="664.2422" fill="#FEFECE" filter="url(#f1hdov45dujwz2)" rx="8" ry="8" style="stroke:#A80036;stroke-width:2;"/><path d="M1300.9673,672.2422 L1300.9673,699.2422 M1287.9673,680.2422 L1313.9673,680.2422 M1300.9673,699.2422 L1287.9673,714.2422 M1300.9673,699.2422 L1313.9673,714.2422" fill="none" filter="url(#f1hdov45dujwz2)" style="stroke:#A80036;stroke-width:2;"/><text fill="#4682B4" font-family="sans-serif" font-size="14" lengthAdjust="spacing" textLength="31.7598" x="1263.25" y="736.3496">&#1051;&#1072;&#1088;&#1089;</text><text fill="#4682B4" font-family="sans-serif" font-size="14" lengthAdjust="spacing" textLength="3.8896" x="1295.0098" y="736.3496">&#160;</text><text fill="#4682B4" font-family="sans-serif" font-size="14" lengthAdjust="spacing" textLength="39.7852" x="1298.8994" y="736.3496">&#1041;&#1100;&#1105;&#1088;&#1085;</text></g><!--entity vestegor--><g class="entity" data-entity="vestegor" data-source-line="50" data-uid="ent0024" id="entity_vestegor"><ellipse cx="65.2085" cy="417.2422" fill="#B8860B" filter="url(#f1hdov45dujwz2)" rx="8" ry="8" style="stroke:#A80036;stroke-width:2;"/><path d="M65.2085,425.2422 L65.2085,452.2422 M52.2085,433.2422 L78.2085,433.2422 M65.2085,452.2422 L52.2085,467.2422 M65.2085,452.2422 L78.2085,467.2422" fill="none" filter="url(#f1hdov45dujwz2)" style="stroke:#A80036;stroke-width:2;"/><text fill="#4682B4" font-family="sans-serif" font-size="14" lengthAdjust="spacing" textLength="25.3203" x="17.21" y="489.3496">&#1055;&#1080;&#1074;</text><text fill="#4682B4" font-family="sans-serif" font-size="14" lengthAdjust="spacing" textLength="3.8896" x="42.5303" y="489.3496">&#160;</text><text fill="#4682B4" font-family="sans-serif" font-size="14" lengthAdjust="spacing" textLength="66.7871" x="46.42" y="489.3496">&#1042;&#1077;&#1089;&#1090;&#1077;&#1088;&#1075;&#1086;&#1088;</text></g><g class="entity" data-entity="GMN25" data-source-line="51" data-uid="ent0026" id="entity_GMN25"><path d="M6,527.8222 L6,624.2773 A0,0 0 0 0 6,624.2773 L124.4238,624.2773 A0,0 0 0 0 124.4238,624.2773 L124.4238,537.8222 L114.4238,527.8222 L69.21,527.8222 L65.21,493.2122 L61.21,527.8222 L6,527.8222 A0,0 0 0 0 6,527.8222" fill="#FBFB77" filter="url(#f1hdov45dujwz2)" style="stroke:#A80036;stroke-width:1;"/><path d="M114.4238,527.8222 L114.4238,537.8222 L124.4238,537.8222 L114.4238,527.8222" fill="#FBFB77" style="stroke:#A80036;stroke-width:1;"/><text fill="#4682B4" font-family="sans-serif" font-size="13" lengthAdjust="spacing" textLength="73.9502" x="12" y="546.8505">&#1092;&#1086;&#1083;&#1100;&#1082;&#1077;&#1090;&#1080;&#1085;&#1075;,</text><text fill="#4682B4" font-family="sans-serif" font-size="13" lengthAdjust="spacing" textLength="48.4453" x="12" y="564.1415">&#1044;&#1072;&#1090;&#1089;&#1082;&#1072;&#1103;</text><text fill="#4682B4" font-family="sans-serif" font-size="13" lengthAdjust="spacing" textLength="3.6118" x="60.4453" y="564.1415">&#160;</text><text fill="#4682B4" font-family="sans-serif" font-size="13" lengthAdjust="spacing" textLength="45.3667" x="64.0571" y="564.1415">&#1087;&#1072;&#1088;&#1090;&#1080;&#1103;,</text><text fill="#4682B4" font-family="sans-serif" font-size="13" lengthAdjust="spacing" textLength="62.626" x="12" y="581.4325">&#1076;&#1086;&#1082;&#1083;&#1072;&#1076;&#1095;&#1080;&#1082;</text><text fill="#4682B4" font-family="sans-serif" font-size="13" lengthAdjust="spacing" textLength="3.6118" x="74.626" y="581.4325">&#160;</text><text fill="#4682B4" font-family="sans-serif" font-size="13" lengthAdjust="spacing" textLength="14.2695" x="78.2378" y="581.4325">&#1087;&#1086;</text><text fill="#4682B4" font-family="sans-serif" font-size="13" lengthAdjust="spacing" textLength="57.0337" x="12" y="598.7236">&#1087;&#1088;&#1072;&#1074;&#1086;&#1074;&#1086;&#1081;</text><text fill="#4682B4" font-family="sans-serif" font-size="13" lengthAdjust="spacing" textLength="55.25" x="12" y="616.0146">&#1087;&#1086;&#1083;&#1080;&#1090;&#1080;&#1082;&#1077;</text></g><g class="entity" data-entity="q" data-source-line="53" data-uid="ent0028" id="entity_q"><ellipse cx="868.088" cy="849.0484" fill="#F8E7C0" filter="url(#f1hdov45dujwz2)" rx="56.218" ry="29.5262" style="stroke:#A80036;stroke-width:1;"/><text fill="#4682B4" font-family="sans-serif" font-size="14" font-style="italic" lengthAdjust="spacing" textLength="74.7168" x="830.7296" y="845.2778">&#171;institution&#187;</text><text fill="#4682B4" font-family="sans-serif" font-size="14" lengthAdjust="spacing" textLength="41.4258" x="839.9854" y="863.8989">&#1054;&#1090;&#1076;&#1077;&#1083;</text><text fill="#4682B4" font-family="sans-serif" font-size="14" lengthAdjust="spacing" textLength="3.8896" x="881.4112" y="863.8989">&#160;</text><text fill="#4682B4" font-family="sans-serif" font-size="14" lengthAdjust="spacing" textLength="10.8896" x="885.3009" y="863.8989">Q</text></g><!--entity body--><g class="entity" data-entity="body" data-source-line="58" data-uid="ent0031" id="entity_body"><ellipse cx="65.2152" cy="822.5533" fill="#228B22" rx="8" ry="8" style="stroke:#808080;stroke-width:2;"/><path d="M65.2152,830.5533 L65.2152,857.5533 M52.2152,838.5533 L78.2152,838.5533 M65.2152,857.5533 L52.2152,872.5533 M65.2152,857.5533 L78.2152,872.5533" fill="none" style="stroke:#808080;stroke-width:2;"/><text fill="#4682B4" font-family="sans-serif" font-size="14" lengthAdjust="spacing" textLength="36.0459" x="20.18" y="890.6607">&#1043;&#1077;&#1086;&#1088;&#1075;</text><text fill="#4682B4" font-family="sans-serif" font-size="14" lengthAdjust="spacing" textLength="3.8896" x="56.2259" y="890.6607">&#160;</text><text fill="#4682B4" font-family="sans-serif" font-size="14" lengthAdjust="spacing" textLength="50.1348" x="60.1155" y="890.6607">&#1052;&#1072;&#1076;&#1089;&#1077;&#1085;</text><text fill="#4682B4" font-family="sans-serif" font-size="14" font-style="italic" lengthAdjust="spacing" textLength="46.7168" x="41.8568" y="809.0396">&#171;dead&#187;</text></g><!--entity brother--><g class="entity" data-entity="brother" data-source-line="61" data-uid="ent0033" id="entity_brother"><ellipse cx="65.2084" cy="155.2422" fill="#228B22" filter="url(#f1hdov45dujwz2)" rx="8" ry="8" style="stroke:#A80036;stroke-width:2;"/><path d="M65.2084,163.2422 L65.2084,190.2422 M52.2084,171.2422 L78.2084,171.2422 M65.2084,190.2422 L52.2084,205.2422 M65.2084,190.2422 L78.2084,205.2422" fill="none" filter="url(#f1hdov45dujwz2)" style="stroke:#A80036;stroke-width:2;"/><text fill="#4682B4" font-family="sans-serif" font-size="14" lengthAdjust="spacing" textLength="39.7168" x="45.35" y="227.3496">&#1059;&#1092;&#1092;&#1077;</text></g><!--entity help--><g class="entity" data-entity="help" data-source-line="65" data-uid="ent0035" id="entity_help"><ellipse cx="65.2071" cy="295.5558" fill="#B8860B" filter="url(#f1hdov45dujwz2)" rx="8" ry="8" style="stroke:#A80036;stroke-width:2;"/><path d="M65.2071,303.5558 L65.2071,330.5558 M52.2071,311.5558 L78.2071,311.5558 M65.2071,330.5558 L52.2071,345.5558 M65.2071,330.5558 L78.2071,345.5558" fill="none" filter="url(#f1hdov45dujwz2)" style="stroke:#A80036;stroke-width:2;"/><text fill="#228B22" font-family="times new roman" font-size="18" font-style="italic" lengthAdjust="spacing" textLength="114.5742" x="7.92" y="368.5958">&#1076;&#1086;&#1084;&#1088;&#1072;&#1073;&#1086;&#1090;&#1085;&#1080;&#1094;&#1072;</text><text fill="#228B22" font-family="times new roman" font-size="18" font-style="italic" lengthAdjust="spacing" textLength="83.9883" x="23.213" y="281.6622">&#171;unnamed&#187;</text></g><!--reverse link he to wife--><g class="link" data-entity-1="he" data-entity-2="wife" data-source-line="18" data-uid="lnk5" id="link_he_wife"><path d="M649.7546,932.3627 C709.5346,938.8827 809.41,949.7622 850.31,954.2222" fill="none" id="he-backto-wife" style="stroke:#A80036;stroke-width:1;"/><polygon fill="#A80036" points="643.79,931.7122,652.3032,936.6644,648.7605,932.2543,653.1706,928.7116,643.79,931.7122" style="stroke:#A80036;stroke-width:1;"/><text fill="#4682B4" font-family="sans-serif" font-size="13" lengthAdjust="spacing" textLength="6.9063" x="692.48" y="916.2905">&#1074;</text><text fill="#4682B4" font-family="sans-serif" font-size="13" lengthAdjust="spacing" textLength="3.6118" x="699.3863" y="916.2905">&#160;</text><text fill="#4682B4" font-family="sans-serif" font-size="13" lengthAdjust="spacing" textLength="56.4053" x="702.9981" y="916.2905">&#1087;&#1088;&#1086;&#1094;&#1077;&#1089;&#1089;&#1077;</text><text fill="#4682B4" font-family="sans-serif" font-size="13" lengthAdjust="spacing" textLength="49.3721" x="701.2556" y="933.5815">&#1088;&#1072;&#1079;&#1074;&#1086;&#1076;&#1072;</text></g><!--link anker to shooting--><g class="link" data-entity-1="anker" data-entity-2="shooting" data-source-line="27" data-uid="lnk12" id="link_anker_shooting"><path d="M89.9,714.8822 C132.41,725.3422 222.71,747.5622 281.98,762.1422" fill="none" id="anker-shooting" style="stroke:#A80036;stroke-width:1;"/></g><!--link shooting to paralized--><g class="link" data-entity-1="shooting" data-entity-2="paralized" data-source-line="28" data-uid="lnk13" id="link_shooting_paralized"><path d="M399.83,764.3522 C449.77,754.5022 519.64,740.7122 561.99,732.3622" fill="none" id="shooting-paralized" style="stroke:#A80036;stroke-width:1;"/></g><!--link shooting to he--><g class="link" data-entity-1="shooting" data-entity-2="he" data-source-line="29" data-uid="lnk14" id="link_shooting_he"><path d="M378.94,798.4922 C426.49,826.2622 507.18,873.3922 556.53,902.2222" fill="none" id="shooting-he" style="stroke:#A80036;stroke-width:1;"/></g><!--reverse link caged to secretary--><g class="link" data-entity-1="caged" data-entity-2="secretary" data-source-line="35" data-uid="lnk17" id="link_caged_secretary"><path d="M388.8763,237.2192 C435.7763,220.8892 505.14,196.7422 553.24,180.0022" fill="none" id="caged-backto-secretary" style="stroke:#A80036;stroke-width:1;"/><polygon fill="#A80036" points="383.21,239.1922,393.0248,240.0103,387.932,237.5481,390.3942,232.4552,383.21,239.1922" style="stroke:#A80036;stroke-width:1;"/><text fill="#4682B4" font-family="sans-serif" font-size="13" lengthAdjust="spacing" textLength="71.9507" x="436.61" y="191.7605">&#1089;&#1077;&#1082;&#1088;&#1077;&#1090;&#1072;&#1088;&#1096;&#1072;</text></g><!--reverse link baggensen to secretary--><g class="link" data-entity-1="baggensen" data-entity-2="secretary" data-source-line="37" data-uid="lnk18" id="link_baggensen_secretary"><path d="M395.0352,125.3886 C442.1352,134.3086 507.12,146.6322 553.24,155.3722" fill="none" id="baggensen-backto-secretary" style="stroke:#A80036;stroke-width:1;"/><polygon fill="#A80036" points="389.14,124.2722,397.2385,129.877,394.0527,125.2026,398.7271,122.0167,389.14,124.2722" style="stroke:#A80036;stroke-width:1;"/><text fill="#4682B4" font-family="sans-serif" font-size="13" lengthAdjust="spacing" textLength="48.6357" x="448.11" y="129.7505">&#1089;&#1074;&#1072;&#1090;&#1072;&#1083;&#1072;</text></g><!--link murders to moira--><g class="link" data-entity-1="murders" data-entity-2="moira" data-source-line="43" data-uid="lnk21" id="link_murders_moira"><path d="M947.19,697.0522 C989.97,697.0522 1040.25,697.0522 1070.31,697.0522" fill="none" id="murders-moira" style="stroke:#A80036;stroke-width:1;"/><text fill="#4682B4" font-family="sans-serif" font-size="13" lengthAdjust="spacing" textLength="62.8989" x="977.69" y="693.0805">&#1085;&#1072;&#1095;&#1072;&#1083;&#1100;&#1085;&#1080;&#1082;</text></g><!--reverse link moira to lars--><g class="link" data-entity-1="moira" data-entity-2="lars" data-source-line="48" data-uid="lnk23" id="link_moira_lars"><path d="M1131.66,697.0522 C1166.9,697.0522 1223.13,697.0522 1262.91,697.0522" fill="none" id="moira-backto-lars" style="stroke:#A80036;stroke-width:1;"/><polygon fill="#A80036" points="1125.66,697.0522,1134.66,701.0522,1130.66,697.0522,1134.66,693.0522,1125.66,697.0522" style="stroke:#A80036;stroke-width:1;"/><text fill="#4682B4" font-family="sans-serif" font-size="13" lengthAdjust="spacing" textLength="76.6162" x="1156.25" y="693.0805">&#1079;&#1072;&#1084;&#1077;&#1089;&#1090;&#1080;&#1090;&#1077;&#1083;&#1100;</text></g><!--reverse link murders to q--><g class="link" data-entity-1="murders" data-entity-2="q" data-source-line="55" data-uid="lnk29" id="link_murders_q"><path d="M868.09,767.4222 C868.09,790.8122 868.09,799.5122 868.09,819.3822" fill="none" id="murders-backto-q" style="stroke:#A80036;stroke-width:1;"/><polygon fill="none" points="868.09,749.4222,862.09,767.4222,874.09,767.4222,868.09,749.4222" style="stroke:#A80036;stroke-width:1;"/><text fill="#4682B4" font-family="sans-serif" font-size="13" lengthAdjust="spacing" textLength="106.9009" x="794.09" y="781.3505">&#1072;&#1076;&#1084;&#1080;&#1085;&#1080;&#1089;&#1090;&#1088;&#1072;&#1090;&#1080;&#1074;&#1085;&#1086;</text><text fill="#4682B4" font-family="sans-serif" font-size="13" lengthAdjust="spacing" textLength="76.832" x="809.1244" y="798.6415">&#1087;&#1086;&#1076;&#1095;&#1080;&#1085;&#1103;&#1077;&#1090;&#1089;&#1103;</text></g><!--link he to q--><g class="link" data-entity-1="he" data-entity-2="q" data-source-line="56" data-uid="lnk30" id="link_he_q"><path d="M643.58,911.1722 C658.62,905.7822 675.72,899.8922 691.48,895.0522 C733.2,882.2322 781.18,869.8222 816.43,861.1222" fill="none" id="he-q" style="stroke:#A80036;stroke-width:1;"/></g><!--link body to shooting--><g class="link" data-entity-1="body" data-entity-2="shooting" data-source-line="59" data-uid="lnk32" id="link_body_shooting"><path d="M110.57,832.9722 C157.44,821.2722 231.47,802.7822 282.38,790.0722" fill="none" id="body-shooting" style="stroke:#A80036;stroke-width:1;"/><text fill="#4682B4" font-family="sans-serif" font-size="13" lengthAdjust="spacing" textLength="26.7236" x="185.92" y="796.0205">&#1090;&#1088;&#1091;&#1087;</text></g><!--link brother to caged--><g class="link" data-entity-1="brother" data-entity-2="caged" data-source-line="63" data-uid="lnk34" id="link_brother_caged"><path d="M85.36,192.6922 C128.76,203.2122 229.6689,227.6686 289.7689,242.2386" fill="none" id="brother-to-caged" style="stroke:#A80036;stroke-width:1;"/><polygon fill="#A80036" points="295.6,243.6522,287.7958,237.6443,290.7408,242.4742,285.9109,245.4191,295.6,243.6522" style="stroke:#A80036;stroke-width:1;"/><text fill="#4682B4" font-family="sans-serif" font-size="13" lengthAdjust="spacing" textLength="27.8599" x="185.42" y="207.3105">&#1073;&#1088;&#1072;&#1090;</text></g><!--link help to caged--><g class="link" data-entity-1="help" data-entity-2="caged" data-source-line="66" data-uid="lnk36" id="link_help_caged"><path d="M122.96,305.5022 C174.4,293.2222 243.2439,276.7951 289.8339,265.6751" fill="none" id="help-to-caged" style="stroke:#A80036;stroke-width:1;"/><polygon fill="#A80036" points="295.67,264.2822,285.9873,262.4809,290.8066,265.443,287.8445,270.2623,295.67,264.2822" style="stroke:#A80036;stroke-width:1;"/><text fill="#4682B4" font-family="sans-serif" font-size="13" lengthAdjust="spacing" textLength="87.9595" x="155.42" y="272.9605">&#1076;&#1086;&#1084;&#1088;&#1072;&#1073;&#1086;&#1090;&#1085;&#1080;&#1094;&#1072;</text></g><rect fill="none" height="30.6211" rx="7.5" ry="7.5" style="stroke:#000000;stroke-width:1;" width="43.9102" x="643.8872" y="1010.8496"/><text fill="#4682B4" font-family="sans-serif" font-size="14" lengthAdjust="spacing" textLength="31.9102" x="649.8872" y="1031.957">5.7%</text><!--SRC=[XLJjQXD15Fq_Jp5A1GNJ829AY7a6VGAPxawoItTdukwafUAFfgrLiLYhuWzR51H_k_q8fccRliBC6tdkRBP9jI9Bo7pSU-wzvvuxr-PoivB8Hy94_26_7XdJpHlrUYQMvpknYNeBlLncWLP6AZCVwBIk4xbujzvDX3AzDAd5AaXweSphcMpdzKYAa9OYZ5Md7iFWEcFN9ZPy6geocISJnlB5M7L59b8k0gEpPhEdb4Xbs6gr4JcFdqb-vy5_h0ATw8otTIPpqycaL8oPs2IIsqzsOC_SQpkqPxRWze3RaJsn0xU6_m5BHQpQ09KyY00U69dbB94TgKBUuFVcxzzWh67tOBzAFl02ngvx2x13V6Etsk0Yvu7eo93pkRPCHIAVT3DjH4UhE3Va_jaMS3_XTi_jO37oBX4OkShuFJ8bwC9RBSTjMS4ok3HhjVAiuKiv1zpORIArlklR0SUsiB_iWHtR8riGt0yV-yWEEPPW0XynSKZczip785OJi1oM2J6bZUGBsXYT8igv1oZ0sH38Os0NXEBUs6F2VuVDYEZnK48joemtco4Qt6fDyDXD-tL2O1yKuXzW8rlS8eyyqjf02t2IIr1PgyLOYO9AgqjsOON3YtGldKQIilc6v0x1WztnYqFV-scb2wA3pkPILPbHQwcyOLaKDVSp27tXhNCPPDA8REMY0QpiCpLXUjdWFiAeL0Z1kLV4_JJO5VPWaMn1H47yVC7cY7WXliU-ZRwZ42hEAzA7xYrtwtOVwHuJbVR0KvZsiX2o1OEnog7wdecr8XwhwaPktVMv_GdIntP_XezKnvbWh090clw4n0Kkt4jAq6rvoOmOuUtwye2ruxQybakSH61gMEbBnTAUG7u1uBHiEv9VemBT5k5y1IBa-tvoH-AO3jCIPbXsCCuLxRE2T1keWP8QURQzbczp-v7uH6MGbTkUYDO7tSObCKX3NzWZr8HQIfRzz1H-MEXtx4z9vnwNNeTBdNdioNxwDyqN_3-luHfb8mxA7lgEbOelFEG1JiPbb3AHCxVjNvM-swRX1dDFYPqFY3ScIZWr4BOp2jRXof_pvSzcfeKKXg1GoZcXVNSR86rGkkEjYJ1R4_bNsrgjDNd2aFr-cI-v4d6ddgHz9BJc2zgSl4oHJBfyvXMUUQLmSGdn7p3iDm00]--></g></svg>