<svg xmlns="http://www.w3.org/2000/svg" xmlns:xlink="http://www.w3.org/1999/xlink" contentStyleType="text/css" data-diagram-type="DESCRIPTION" height="976px" preserveAspectRatio="none" style="width:1382px;height:976px;" version="1.1" viewBox="0 0 1382 976" width="1382px" zoomAndPan="magnify"><title>&#1046;&#1077;&#1085;&#1097;&#1080;&#1085;&#1072; &#1074; &#1082;&#1083;&#1077;&#1090;&#1082;&#1077;</title><defs><filter height="300%" id="fpg4se15ia7hd" width="300%" x="-1" y="-1"><feGaussianBlur result="blurOut" stdDeviation="2"/><feColorMatrix in="blurOut" result="blurOut2" type="matrix" values="0 0 0 0 0 0 0 0 0 0 0 0 0 0 0 0 0 0 .4 0"/><feOffset dx="4" dy="4" in="blurOut2" result="blurOut3"/><feBlend in="SourceGraphic" in2="blurOut3" mode="normal"/></filter></defs><g><text fill="#4682B4" font-family="sans-serif" font-size="14" font-weight="bold" lengthAdjust="spacing" textLength="127.2783" x="617.9181" y="25.1074">&#1046;&#1077;&#1085;&#1097;&#1080;&#1085;&#1072; &#1074; &#1082;&#1083;&#1077;&#1090;&#1082;&#1077;</text><rect fill="none" height="898.2432" style="stroke:#A80036;stroke-width:1;" width="1376.1146" x="0" y="39.6211"/><path d="M75.3584,39.6211 L75.3584,51.2422 L65.3584,61.2422 L0,61.2422" fill="none" style="stroke:#A80036;stroke-width:1;"/><text fill="#4682B4" font-family="sans-serif" font-size="14" lengthAdjust="spacing" textLength="65.3584" x="3" y="55.7285">characters</text><!--entity caged--><g class="entity" data-entity="caged" data-source-line="13" data-uid="ent0002" id="entity_caged"><ellipse cx="339.5204" cy="221.2433" fill="#FFFF00" filter="url(#fpg4se15ia7hd)" rx="8" ry="8" style="stroke:#A80036;stroke-width:2;"/><path d="M339.5204,229.2433 L339.5204,256.2433 M326.5204,237.2433 L352.5204,237.2433 M339.5204,256.2433 L326.5204,271.2433 M339.5204,256.2433 L352.5204,271.2433" fill="none" filter="url(#fpg4se15ia7hd)" style="stroke:#A80036;stroke-width:2;"/><text fill="#4682B4" font-family="sans-serif" font-size="14" lengthAdjust="spacing" textLength="55.6309" x="311.705" y="293.3507">&#1052;&#1077;&#1088;&#1077;&#1090;&#1090;&#1072;</text><text fill="#4682B4" font-family="sans-serif" font-size="14" lengthAdjust="spacing" textLength="53.2041" x="312.9184" y="311.9718">&#1051;&#1102;&#1085;&#1075;&#1075;&#1086;&#1088;</text><text fill="#4682B4" font-family="sans-serif" font-size="14" font-style="italic" lengthAdjust="spacing" textLength="84.8408" x="297.1" y="207.7296">&#171;protagonist&#187;</text></g><!--entity he--><g class="entity" data-entity="he" data-source-line="15" data-uid="ent0003" id="entity_he"><ellipse cx="600.0504" cy="638.5533" fill="#00FF00" filter="url(#fpg4se15ia7hd)" rx="8" ry="8" style="stroke:#A80036;stroke-width:2;"/><path d="M600.0504,646.5533 L600.0504,673.5533 M587.0504,654.5533 L613.0504,654.5533 M600.0504,673.5533 L587.0504,688.5533 M600.0504,673.5533 L613.0504,688.5533" fill="none" filter="url(#fpg4se15ia7hd)" style="stroke:#A80036;stroke-width:2;"/><text fill="#4682B4" font-family="sans-serif" font-size="14" lengthAdjust="spacing" textLength="31.8965" x="565.4777" y="710.6607">&#1050;&#1072;&#1088;&#1083;</text><text fill="#4682B4" font-family="sans-serif" font-size="14" lengthAdjust="spacing" textLength="3.8896" x="597.3741" y="710.6607">&#160;</text><text fill="#4682B4" font-family="sans-serif" font-size="14" lengthAdjust="spacing" textLength="33.3594" x="601.2638" y="710.6607">&#1052;&#1105;&#1088;&#1082;</text><text fill="#4682B4" font-family="sans-serif" font-size="14" font-style="italic" lengthAdjust="spacing" textLength="84.8408" x="557.63" y="625.0396">&#171;protagonist&#187;</text></g><!--entity wife--><g class="entity" data-entity="wife" data-source-line="17" data-uid="ent0004" id="entity_wife"><ellipse cx="868.0886" cy="689.2422" fill="#B8860B" filter="url(#fpg4se15ia7hd)" rx="8" ry="8" style="stroke:#A80036;stroke-width:2;"/><path d="M868.0886,697.2422 L868.0886,724.2422 M855.0886,705.2422 L881.0886,705.2422 M868.0886,724.2422 L855.0886,739.2422 M868.0886,724.2422 L881.0886,739.2422" fill="none" filter="url(#fpg4se15ia7hd)" style="stroke:#A80036;stroke-width:2;"/><text fill="#4682B4" font-family="sans-serif" font-size="14" lengthAdjust="spacing" textLength="35.1572" x="850.51" y="761.3496">&#1042;&#1080;&#1075;&#1075;&#1072;</text></g><!--entity paralized--><g class="entity" data-entity="paralized" data-source-line="20" data-uid="ent0006" id="entity_paralized"><ellipse cx="600.0413" cy="758.9322" fill="#228B22" filter="url(#fpg4se15ia7hd)" rx="8" ry="8" style="stroke:#A80036;stroke-width:2;"/><path d="M600.0413,766.9322 L600.0413,793.9322 M587.0413,774.9322 L613.0413,774.9322 M600.0413,793.9322 L587.0413,808.9322 M600.0413,793.9322 L613.0413,808.9322" fill="none" filter="url(#fpg4se15ia7hd)" style="stroke:#A80036;stroke-width:2;"/><text fill="#4682B4" font-family="sans-serif" font-size="14" lengthAdjust="spacing" textLength="40.8994" x="579.5916" y="831.0396">&#1061;&#1072;&#1088;&#1076;&#1080;</text><text fill="#4682B4" font-family="sans-serif" font-size="14" lengthAdjust="spacing" textLength="75.7627" x="562.16" y="849.6607">&#1061;&#1077;&#1085;&#1085;&#1080;&#1085;&#1075;&#1089;&#1077;&#1085;</text></g><g class="entity" data-entity="GMN7" data-source-line="21" data-uid="ent0008" id="entity_GMN7"><path d="M538.61,888.4122 L538.61,915.7032 A0,0 0 0 0 538.61,915.7032 L661.4772,915.7032 A0,0 0 0 0 661.4772,915.7032 L661.4772,898.4122 L651.4772,888.4122 L604.05,888.4122 L600.05,853.5122 L596.05,888.4122 L538.61,888.4122 A0,0 0 0 0 538.61,888.4122" fill="#FBFB77" filter="url(#fpg4se15ia7hd)" style="stroke:#A80036;stroke-width:1;"/><path d="M651.4772,888.4122 L651.4772,898.4122 L661.4772,898.4122 L651.4772,888.4122" fill="#FBFB77" style="stroke:#A80036;stroke-width:1;"/><text fill="#4682B4" font-family="sans-serif" font-size="13" lengthAdjust="spacing" textLength="101.8672" x="544.61" y="907.4405">&#1087;&#1072;&#1088;&#1072;&#1083;&#1080;&#1079;&#1086;&#1074;&#1072;&#1085;&#1085;&#1099;&#1081;</text></g><!--entity anker--><g class="entity" data-entity="anker" data-source-line="23" data-uid="ent0010" id="entity_anker"><ellipse cx="65.2084" cy="687.5533" fill="#228B22" rx="8" ry="8" style="stroke:#808080;stroke-width:2;"/><path d="M65.2084,695.5533 L65.2084,722.5533 M52.2084,703.5533 L78.2084,703.5533 M65.2084,722.5533 L52.2084,737.5533 M65.2084,722.5533 L78.2084,737.5533" fill="none" style="stroke:#808080;stroke-width:2;"/><text fill="#4682B4" font-family="sans-serif" font-size="14" lengthAdjust="spacing" textLength="38.7666" x="45.8251" y="755.6607">&#1040;&#1085;&#1082;&#1077;&#1088;</text><text fill="#4682B4" font-family="sans-serif" font-size="14" font-style="italic" lengthAdjust="spacing" textLength="46.7168" x="41.85" y="674.0396">&#171;dead&#187;</text></g><g class="entity" data-entity="shooting" data-source-line="25" data-uid="ent0011" id="entity_shooting"><ellipse cx="339.5241" cy="776.0558" fill="#C9FFC9" filter="url(#fpg4se15ia7hd)" rx="66.0941" ry="27.3536" style="stroke:#A80036;stroke-width:1;"/><text fill="#4682B4" font-family="sans-serif" font-size="14" font-style="italic" lengthAdjust="spacing" textLength="49.8203" x="309.0871" y="769.8444">&#171;event&#187;</text><text fill="#4682B4" font-family="sans-serif" font-size="14" lengthAdjust="spacing" textLength="84.4854" x="291.7546" y="788.4655">&#1055;&#1077;&#1088;&#1077;&#1089;&#1090;&#1088;&#1077;&#1083;&#1082;&#1072;</text></g><!--entity baggensen--><g class="entity" data-entity="baggensen" data-source-line="31" data-uid="ent0015" id="entity_baggensen"><ellipse cx="339.5209" cy="82.2422" fill="#228B22" filter="url(#fpg4se15ia7hd)" rx="8" ry="8" style="stroke:#A80036;stroke-width:2;"/><path d="M339.5209,90.2422 L339.5209,117.2422 M326.5209,98.2422 L352.5209,98.2422 M339.5209,117.2422 L326.5209,132.2422 M339.5209,117.2422 L352.5209,132.2422" fill="none" filter="url(#fpg4se15ia7hd)" style="stroke:#A80036;stroke-width:2;"/><text fill="#4682B4" font-family="sans-serif" font-size="14" lengthAdjust="spacing" textLength="29.2305" x="290.35" y="154.3496">&#1058;&#1072;&#1075;&#1077;</text><text fill="#4682B4" font-family="sans-serif" font-size="14" lengthAdjust="spacing" textLength="3.8896" x="319.5805" y="154.3496">&#160;</text><text fill="#4682B4" font-family="sans-serif" font-size="14" lengthAdjust="spacing" textLength="65.2217" x="323.4701" y="154.3496">&#1041;&#1072;&#1075;&#1075;&#1077;&#1085;&#1089;&#1077;&#1085;</text></g><!--entity secretary--><g class="entity" data-entity="secretary" data-source-line="33" data-uid="ent0016" id="entity_secretary"><ellipse cx="600.0504" cy="131.2422" fill="#B8860B" filter="url(#fpg4se15ia7hd)" rx="8" ry="8" style="stroke:#A80036;stroke-width:2;"/><path d="M600.0504,139.2422 L600.0504,166.2422 M587.0504,147.2422 L613.0504,147.2422 M600.0504,166.2422 L587.0504,181.2422 M600.0504,166.2422 L613.0504,181.2422" fill="none" filter="url(#fpg4se15ia7hd)" style="stroke:#A80036;stroke-width:2;"/><text fill="#4682B4" font-family="sans-serif" font-size="14" lengthAdjust="spacing" textLength="66.0898" x="553.59" y="203.3496">&#1052;&#1072;&#1088;&#1080;&#1072;&#1085;&#1085;&#1072;</text><text fill="#4682B4" font-family="sans-serif" font-size="14" lengthAdjust="spacing" textLength="3.8896" x="619.6798" y="203.3496">&#160;</text><text fill="#4682B4" font-family="sans-serif" font-size="14" lengthAdjust="spacing" textLength="22.9414" x="623.5695" y="203.3496">&#1050;&#1086;&#1093;</text></g><g class="entity" data-entity="murders" data-source-line="39" data-uid="ent0019" id="entity_murders"><ellipse cx="868.0879" cy="463.056" fill="#F8E7C0" filter="url(#fpg4se15ia7hd)" rx="78.6079" ry="52.0738" style="stroke:#A80036;stroke-width:1;"/><text fill="#4682B4" font-family="sans-serif" font-size="14" font-style="italic" lengthAdjust="spacing" textLength="74.7168" x="820.7192" y="439.9281">&#171;institution&#187;</text><text fill="#4682B4" font-family="sans-serif" font-size="14" lengthAdjust="spacing" textLength="41.4258" x="827.7363" y="458.5492">&#1054;&#1090;&#1076;&#1077;&#1083;</text><text fill="#4682B4" font-family="sans-serif" font-size="14" lengthAdjust="spacing" textLength="3.8896" x="869.1621" y="458.5492">&#160;</text><text fill="#4682B4" font-family="sans-serif" font-size="14" lengthAdjust="spacing" textLength="15.3672" x="873.0517" y="458.5492">&#1087;&#1086;</text><text fill="#4682B4" font-family="sans-serif" font-size="14" lengthAdjust="spacing" textLength="102.7578" x="806.6987" y="477.1703">&#1088;&#1072;&#1089;&#1089;&#1083;&#1077;&#1076;&#1086;&#1074;&#1072;&#1085;&#1080;&#1102;</text><text fill="#4682B4" font-family="sans-serif" font-size="14" lengthAdjust="spacing" textLength="51.5088" x="832.3232" y="495.7914">&#1091;&#1073;&#1080;&#1081;&#1089;&#1090;&#1074;</text></g><!--entity moira--><g class="entity" data-entity="moira" data-source-line="41" data-uid="ent0020" id="entity_moira"><ellipse cx="1113.6888" cy="420.9322" fill="#FEFECE" filter="url(#fpg4se15ia7hd)" rx="8" ry="8" style="stroke:#A80036;stroke-width:2;"/><path d="M1113.6888,428.9322 L1113.6888,455.9322 M1100.6888,436.9322 L1126.6888,436.9322 M1113.6888,455.9322 L1100.6888,470.9322 M1113.6888,455.9322 L1126.6888,470.9322" fill="none" filter="url(#fpg4se15ia7hd)" style="stroke:#A80036;stroke-width:2;"/><text fill="#4682B4" font-family="sans-serif" font-size="14" lengthAdjust="spacing" textLength="47.3594" x="1090.0091" y="493.0396">&#1052;&#1072;&#1088;&#1082;&#1091;&#1089;</text><text fill="#4682B4" font-family="sans-serif" font-size="14" lengthAdjust="spacing" textLength="54.5576" x="1086.41" y="511.6607">&#1071;&#1082;&#1086;&#1073;&#1089;&#1077;&#1085;</text></g><!--entity lars--><g class="entity" data-entity="lars" data-source-line="46" data-uid="ent0022" id="entity_lars"><ellipse cx="1332.3973" cy="430.2422" fill="#FEFECE" filter="url(#fpg4se15ia7hd)" rx="8" ry="8" style="stroke:#A80036;stroke-width:2;"/><path d="M1332.3973,438.2422 L1332.3973,465.2422 M1319.3973,446.2422 L1345.3973,446.2422 M1332.3973,465.2422 L1319.3973,480.2422 M1332.3973,465.2422 L1345.3973,480.2422" fill="none" filter="url(#fpg4se15ia7hd)" style="stroke:#A80036;stroke-width:2;"/><text fill="#4682B4" font-family="sans-serif" font-size="14" lengthAdjust="spacing" textLength="31.7598" x="1294.68" y="502.3496">&#1051;&#1072;&#1088;&#1089;</text><text fill="#4682B4" font-family="sans-serif" font-size="14" lengthAdjust="spacing" textLength="3.8896" x="1326.4398" y="502.3496">&#160;</text><text fill="#4682B4" font-family="sans-serif" font-size="14" lengthAdjust="spacing" textLength="39.7852" x="1330.3294" y="502.3496">&#1041;&#1100;&#1105;&#1088;&#1085;</text></g><!--entity vestegor--><g class="entity" data-entity="vestegor" data-source-line="50" data-uid="ent0024" id="entity_vestegor"><ellipse cx="65.2085" cy="417.2422" fill="#B8860B" filter="url(#fpg4se15ia7hd)" rx="8" ry="8" style="stroke:#A80036;stroke-width:2;"/><path d="M65.2085,425.2422 L65.2085,452.2422 M52.2085,433.2422 L78.2085,433.2422 M65.2085,452.2422 L52.2085,467.2422 M65.2085,452.2422 L78.2085,467.2422" fill="none" filter="url(#fpg4se15ia7hd)" style="stroke:#A80036;stroke-width:2;"/><text fill="#4682B4" font-family="sans-serif" font-size="14" lengthAdjust="spacing" textLength="25.3203" x="17.21" y="489.3496">&#1055;&#1080;&#1074;</text><text fill="#4682B4" font-family="sans-serif" font-size="14" lengthAdjust="spacing" textLength="3.8896" x="42.5303" y="489.3496">&#160;</text><text fill="#4682B4" font-family="sans-serif" font-size="14" lengthAdjust="spacing" textLength="66.7871" x="46.42" y="489.3496">&#1042;&#1077;&#1089;&#1090;&#1077;&#1088;&#1075;&#1086;&#1088;</text></g><g class="entity" data-entity="GMN25" data-source-line="51" data-uid="ent0026" id="entity_GMN25"><path d="M6,527.8322 L6,624.2873 A0,0 0 0 0 6,624.2873 L124.4238,624.2873 A0,0 0 0 0 124.4238,624.2873 L124.4238,537.8322 L114.4238,527.8322 L69.21,527.8322 L65.21,493.2222 L61.21,527.8322 L6,527.8322 A0,0 0 0 0 6,527.8322" fill="#FBFB77" filter="url(#fpg4se15ia7hd)" style="stroke:#A80036;stroke-width:1;"/><path d="M114.4238,527.8322 L114.4238,537.8322 L124.4238,537.8322 L114.4238,527.8322" fill="#FBFB77" style="stroke:#A80036;stroke-width:1;"/><text fill="#4682B4" font-family="sans-serif" font-size="13" lengthAdjust="spacing" textLength="73.9502" x="12" y="546.8605">&#1092;&#1086;&#1083;&#1100;&#1082;&#1077;&#1090;&#1080;&#1085;&#1075;,</text><text fill="#4682B4" font-family="sans-serif" font-size="13" lengthAdjust="spacing" textLength="48.4453" x="12" y="564.1515">&#1044;&#1072;&#1090;&#1089;&#1082;&#1072;&#1103;</text><text fill="#4682B4" font-family="sans-serif" font-size="13" lengthAdjust="spacing" textLength="3.6118" x="60.4453" y="564.1515">&#160;</text><text fill="#4682B4" font-family="sans-serif" font-size="13" lengthAdjust="spacing" textLength="45.3667" x="64.0571" y="564.1515">&#1087;&#1072;&#1088;&#1090;&#1080;&#1103;,</text><text fill="#4682B4" font-family="sans-serif" font-size="13" lengthAdjust="spacing" textLength="62.626" x="12" y="581.4425">&#1076;&#1086;&#1082;&#1083;&#1072;&#1076;&#1095;&#1080;&#1082;</text><text fill="#4682B4" font-family="sans-serif" font-size="13" lengthAdjust="spacing" textLength="3.6118" x="74.626" y="581.4425">&#160;</text><text fill="#4682B4" font-family="sans-serif" font-size="13" lengthAdjust="spacing" textLength="14.2695" x="78.2378" y="581.4425">&#1087;&#1086;</text><text fill="#4682B4" font-family="sans-serif" font-size="13" lengthAdjust="spacing" textLength="57.0337" x="12" y="598.7336">&#1087;&#1088;&#1072;&#1074;&#1086;&#1074;&#1086;&#1081;</text><text fill="#4682B4" font-family="sans-serif" font-size="13" lengthAdjust="spacing" textLength="55.25" x="12" y="616.0246">&#1087;&#1086;&#1083;&#1080;&#1090;&#1080;&#1082;&#1077;</text></g><g class="entity" data-entity="q" data-source-line="53" data-uid="ent0028" id="entity_q"><ellipse cx="868.088" cy="615.0484" fill="#F8E7C0" filter="url(#fpg4se15ia7hd)" rx="56.218" ry="29.5262" style="stroke:#A80036;stroke-width:1;"/><text fill="#4682B4" font-family="sans-serif" font-size="14" font-style="italic" lengthAdjust="spacing" textLength="74.7168" x="830.7296" y="611.2778">&#171;institution&#187;</text><text fill="#4682B4" font-family="sans-serif" font-size="14" lengthAdjust="spacing" textLength="41.4258" x="839.9854" y="629.8989">&#1054;&#1090;&#1076;&#1077;&#1083;</text><text fill="#4682B4" font-family="sans-serif" font-size="14" lengthAdjust="spacing" textLength="3.8896" x="881.4112" y="629.8989">&#160;</text><text fill="#4682B4" font-family="sans-serif" font-size="14" lengthAdjust="spacing" textLength="10.8896" x="885.3009" y="629.8989">Q</text></g><!--entity body--><g class="entity" data-entity="body" data-source-line="58" data-uid="ent0031" id="entity_body"><ellipse cx="65.2152" cy="822.5533" fill="#228B22" rx="8" ry="8" style="stroke:#808080;stroke-width:2;"/><path d="M65.2152,830.5533 L65.2152,857.5533 M52.2152,838.5533 L78.2152,838.5533 M65.2152,857.5533 L52.2152,872.5533 M65.2152,857.5533 L78.2152,872.5533" fill="none" style="stroke:#808080;stroke-width:2;"/><text fill="#4682B4" font-family="sans-serif" font-size="14" lengthAdjust="spacing" textLength="36.0459" x="20.18" y="890.6607">&#1043;&#1077;&#1086;&#1088;&#1075;</text><text fill="#4682B4" font-family="sans-serif" font-size="14" lengthAdjust="spacing" textLength="3.8896" x="56.2259" y="890.6607">&#160;</text><text fill="#4682B4" font-family="sans-serif" font-size="14" lengthAdjust="spacing" textLength="50.1348" x="60.1155" y="890.6607">&#1052;&#1072;&#1076;&#1089;&#1077;&#1085;</text><text fill="#4682B4" font-family="sans-serif" font-size="14" font-style="italic" lengthAdjust="spacing" textLength="46.7168" x="41.8568" y="809.0396">&#171;dead&#187;</text></g><!--entity brother--><g class="entity" data-entity="brother" data-source-line="61" data-uid="ent0033" id="entity_brother"><ellipse cx="65.2084" cy="155.2422" fill="#228B22" filter="url(#fpg4se15ia7hd)" rx="8" ry="8" style="stroke:#A80036;stroke-width:2;"/><path d="M65.2084,163.2422 L65.2084,190.2422 M52.2084,171.2422 L78.2084,171.2422 M65.2084,190.2422 L52.2084,205.2422 M65.2084,190.2422 L78.2084,205.2422" fill="none" filter="url(#fpg4se15ia7hd)" style="stroke:#A80036;stroke-width:2;"/><text fill="#4682B4" font-family="sans-serif" font-size="14" lengthAdjust="spacing" textLength="39.7168" x="45.35" y="227.3496">&#1059;&#1092;&#1092;&#1077;</text></g><!--entity help--><g class="entity" data-entity="help" data-source-line="65" data-uid="ent0035" id="entity_help"><ellipse cx="65.2071" cy="295.5558" fill="#B8860B" filter="url(#fpg4se15ia7hd)" rx="8" ry="8" style="stroke:#A80036;stroke-width:2;"/><path d="M65.2071,303.5558 L65.2071,330.5558 M52.2071,311.5558 L78.2071,311.5558 M65.2071,330.5558 L52.2071,345.5558 M65.2071,330.5558 L78.2071,345.5558" fill="none" filter="url(#fpg4se15ia7hd)" style="stroke:#A80036;stroke-width:2;"/><text fill="#228B22" font-family="times new roman" font-size="18" font-style="italic" lengthAdjust="spacing" textLength="114.5742" x="7.92" y="368.5958">&#1076;&#1086;&#1084;&#1088;&#1072;&#1073;&#1086;&#1090;&#1085;&#1080;&#1094;&#1072;</text><text fill="#228B22" font-family="times new roman" font-size="18" font-style="italic" lengthAdjust="spacing" textLength="83.9883" x="23.213" y="281.6622">&#171;unnamed&#187;</text></g><!--entity new--><g class="entity" data-entity="new" data-source-line="68" data-uid="ent0037" id="entity_new"><ellipse cx="1113.6841" cy="698.5558" fill="#228B22" filter="url(#fpg4se15ia7hd)" rx="8" ry="8" style="stroke:#A80036;stroke-width:2;"/><path d="M1113.6841,706.5558 L1113.6841,733.5558 M1100.6841,714.5558 L1126.6841,714.5558 M1113.6841,733.5558 L1100.6841,748.5558 M1113.6841,733.5558 L1126.6841,748.5558" fill="none" filter="url(#fpg4se15ia7hd)" style="stroke:#A80036;stroke-width:2;"/><text fill="#228B22" font-family="times new roman" font-size="18" font-style="italic" lengthAdjust="spacing" textLength="72.7559" x="1077.3062" y="771.5958">&#1083;&#1102;&#1073;&#1086;&#1074;&#1085;&#1080;&#1082;</text><text fill="#228B22" font-family="times new roman" font-size="18" font-style="italic" lengthAdjust="spacing" textLength="83.9883" x="1071.69" y="684.6622">&#171;unnamed&#187;</text></g><!--entity tenant--><g class="entity" data-entity="tenant" data-source-line="72" data-uid="ent0039" id="entity_tenant"><ellipse cx="339.5155" cy="494.9322" fill="#228B22" filter="url(#fpg4se15ia7hd)" rx="8" ry="8" style="stroke:#A80036;stroke-width:2;"/><path d="M339.5155,502.9322 L339.5155,529.9322 M326.5155,510.9322 L352.5155,510.9322 M339.5155,529.9322 L326.5155,544.9322 M339.5155,529.9322 L352.5155,544.9322" fill="none" filter="url(#fpg4se15ia7hd)" style="stroke:#A80036;stroke-width:2;"/><text fill="#4682B4" font-family="sans-serif" font-size="14" lengthAdjust="spacing" textLength="49.1641" x="314.9334" y="567.0396">&#1052;&#1086;&#1088;&#1090;&#1077;&#1085;</text><text fill="#4682B4" font-family="sans-serif" font-size="14" lengthAdjust="spacing" textLength="56.7109" x="311.16" y="585.6607">&#1061;&#1086;&#1083;&#1083;&#1072;&#1085;&#1085;</text></g><!--entity stepson--><g class="entity" data-entity="stepson" data-source-line="76" data-uid="ent0041" id="entity_stepson"><ellipse cx="339.521" cy="634.2422" fill="#228B22" filter="url(#fpg4se15ia7hd)" rx="8" ry="8" style="stroke:#A80036;stroke-width:2;"/><path d="M339.521,642.2422 L339.521,669.2422 M326.521,650.2422 L352.521,650.2422 M339.521,669.2422 L326.521,684.2422 M339.521,669.2422 L352.521,684.2422" fill="none" filter="url(#fpg4se15ia7hd)" style="stroke:#A80036;stroke-width:2;"/><text fill="#4682B4" font-family="sans-serif" font-size="14" lengthAdjust="spacing" textLength="48.002" x="315.52" y="706.3496">&#1049;&#1077;&#1089;&#1087;&#1077;&#1088;</text></g><!--reverse link he to wife--><g class="link" data-entity-1="he" data-entity-2="wife" data-source-line="18" data-uid="lnk5" id="link_he_wife"><path d="M649.3198,677.5001 C664.3598,682.0801 675.71,685.2322 691.48,689.0522 C749.06,703.0222 818.47,714.5222 850.01,719.4522" fill="none" id="he-backto-wife" style="stroke:#A80036;stroke-width:1;"/><polygon fill="#A80036" points="643.58,675.7522,651.0244,682.2005,648.3631,677.2088,653.3549,674.5475,643.58,675.7522" style="stroke:#A80036;stroke-width:1;"/><text fill="#4682B4" font-family="sans-serif" font-size="13" lengthAdjust="spacing" textLength="6.9063" x="692.48" y="668.0805">&#1074;</text><text fill="#4682B4" font-family="sans-serif" font-size="13" lengthAdjust="spacing" textLength="3.6118" x="699.3863" y="668.0805">&#160;</text><text fill="#4682B4" font-family="sans-serif" font-size="13" lengthAdjust="spacing" textLength="56.4053" x="702.9981" y="668.0805">&#1087;&#1088;&#1086;&#1094;&#1077;&#1089;&#1089;&#1077;</text><text fill="#4682B4" font-family="sans-serif" font-size="13" lengthAdjust="spacing" textLength="49.3721" x="701.2556" y="685.3715">&#1088;&#1072;&#1079;&#1074;&#1086;&#1076;&#1072;</text></g><!--link anker to shooting--><g class="link" data-entity-1="anker" data-entity-2="shooting" data-source-line="27" data-uid="lnk12" id="link_anker_shooting"><path d="M89.9,714.8822 C132.41,725.3422 222.71,747.5622 281.98,762.1422" fill="none" id="anker-shooting" style="stroke:#A80036;stroke-width:1;"/></g><!--link shooting to paralized--><g class="link" data-entity-1="shooting" data-entity-2="paralized" data-source-line="28" data-uid="lnk13" id="link_shooting_paralized"><path d="M404.42,782.2322 C453.92,787.0222 520.76,793.4822 561.83,797.4622" fill="none" id="shooting-paralized" style="stroke:#A80036;stroke-width:1;"/></g><!--link shooting to he--><g class="link" data-entity-1="shooting" data-entity-2="he" data-source-line="29" data-uid="lnk14" id="link_shooting_he"><path d="M385.85,756.0722 C433.92,734.8722 509.3,701.6322 556.35,680.8822" fill="none" id="shooting-he" style="stroke:#A80036;stroke-width:1;"/></g><!--reverse link caged to secretary--><g class="link" data-entity-1="caged" data-entity-2="secretary" data-source-line="35" data-uid="lnk17" id="link_caged_secretary"><path d="M388.8767,237.2203 C435.7767,220.9003 505.14,196.7522 553.24,180.0022" fill="none" id="caged-backto-secretary" style="stroke:#A80036;stroke-width:1;"/><polygon fill="#A80036" points="383.21,239.1922,393.0247,240.0122,387.9323,237.549,390.3955,232.4566,383.21,239.1922" style="stroke:#A80036;stroke-width:1;"/><text fill="#4682B4" font-family="sans-serif" font-size="13" lengthAdjust="spacing" textLength="71.9507" x="436.61" y="191.7605">&#1089;&#1077;&#1082;&#1088;&#1077;&#1090;&#1072;&#1088;&#1096;&#1072;</text></g><!--reverse link baggensen to secretary--><g class="link" data-entity-1="baggensen" data-entity-2="secretary" data-source-line="37" data-uid="lnk18" id="link_baggensen_secretary"><path d="M395.035,125.3899 C442.135,134.3199 507.12,146.6322 553.24,155.3722" fill="none" id="baggensen-backto-secretary" style="stroke:#A80036;stroke-width:1;"/><polygon fill="#A80036" points="389.14,124.2722,397.2374,129.8787,394.0525,125.2036,398.7276,122.0187,389.14,124.2722" style="stroke:#A80036;stroke-width:1;"/><text fill="#4682B4" font-family="sans-serif" font-size="13" lengthAdjust="spacing" textLength="48.6357" x="448.11" y="129.7505">&#1089;&#1074;&#1072;&#1090;&#1072;&#1083;&#1072;</text></g><!--link murders to moira--><g class="link" data-entity-1="murders" data-entity-2="moira" data-source-line="43" data-uid="lnk21" id="link_murders_moira"><path d="M947.17,463.0522 C994.9,463.0522 1052.97,463.0522 1086.1,463.0522" fill="none" id="murders-moira" style="stroke:#A80036;stroke-width:1;"/><text fill="#4682B4" font-family="sans-serif" font-size="13" lengthAdjust="spacing" textLength="62.8989" x="977.69" y="459.0805">&#1085;&#1072;&#1095;&#1072;&#1083;&#1100;&#1085;&#1080;&#1082;</text></g><!--reverse link moira to lars--><g class="link" data-entity-1="moira" data-entity-2="lars" data-source-line="48" data-uid="lnk23" id="link_moira_lars"><path d="M1147.26,463.0522 C1185.69,463.0522 1250.93,463.0522 1294.45,463.0522" fill="none" id="moira-backto-lars" style="stroke:#A80036;stroke-width:1;"/><polygon fill="#A80036" points="1141.26,463.0522,1150.26,467.0522,1146.26,463.0522,1150.26,459.0522,1141.26,463.0522" style="stroke:#A80036;stroke-width:1;"/><text fill="#4682B4" font-family="sans-serif" font-size="13" lengthAdjust="spacing" textLength="76.6162" x="1187.68" y="459.0805">&#1079;&#1072;&#1084;&#1077;&#1089;&#1090;&#1080;&#1090;&#1077;&#1083;&#1100;</text></g><!--reverse link murders to q--><g class="link" data-entity-1="murders" data-entity-2="q" data-source-line="55" data-uid="lnk29" id="link_murders_q"><path d="M868.09,533.4222 C868.09,556.8122 868.09,565.5222 868.09,585.3922" fill="none" id="murders-backto-q" style="stroke:#A80036;stroke-width:1;"/><polygon fill="none" points="868.09,515.4222,862.09,533.4222,874.09,533.4222,868.09,515.4222" style="stroke:#A80036;stroke-width:1;"/><text fill="#4682B4" font-family="sans-serif" font-size="13" lengthAdjust="spacing" textLength="106.9009" x="794.09" y="547.3605">&#1072;&#1076;&#1084;&#1080;&#1085;&#1080;&#1089;&#1090;&#1088;&#1072;&#1090;&#1080;&#1074;&#1085;&#1086;</text><text fill="#4682B4" font-family="sans-serif" font-size="13" lengthAdjust="spacing" textLength="76.832" x="809.1244" y="564.6515">&#1087;&#1086;&#1076;&#1095;&#1080;&#1085;&#1103;&#1077;&#1090;&#1089;&#1103;</text></g><!--link he to q--><g class="link" data-entity-1="he" data-entity-2="q" data-source-line="56" data-uid="lnk30" id="link_he_q"><path d="M643.79,654.5022 C690.2,646.3022 764.38,633.2022 814.38,624.3722" fill="none" id="he-q" style="stroke:#A80036;stroke-width:1;"/></g><!--link body to shooting--><g class="link" data-entity-1="body" data-entity-2="shooting" data-source-line="59" data-uid="lnk32" id="link_body_shooting"><path d="M110.57,832.9822 C157.44,821.2722 231.47,802.7922 282.38,790.0722" fill="none" id="body-shooting" style="stroke:#A80036;stroke-width:1;"/><text fill="#4682B4" font-family="sans-serif" font-size="13" lengthAdjust="spacing" textLength="26.7236" x="185.92" y="796.0205">&#1090;&#1088;&#1091;&#1087;</text></g><!--link brother to caged--><g class="link" data-entity-1="brother" data-entity-2="caged" data-source-line="63" data-uid="lnk34" id="link_brother_caged"><path d="M85.36,192.7022 C128.76,203.2122 229.6687,227.6795 289.7687,242.2395" fill="none" id="brother-to-caged" style="stroke:#A80036;stroke-width:1;"/><polygon fill="#A80036" points="295.6,243.6522,287.7948,237.6456,290.7406,242.4749,285.9112,245.4207,295.6,243.6522" style="stroke:#A80036;stroke-width:1;"/><text fill="#4682B4" font-family="sans-serif" font-size="13" lengthAdjust="spacing" textLength="27.8599" x="185.42" y="207.3205">&#1073;&#1088;&#1072;&#1090;</text></g><!--link help to caged--><g class="link" data-entity-1="help" data-entity-2="caged" data-source-line="66" data-uid="lnk36" id="link_help_caged"><path d="M122.96,305.5122 C174.4,293.2322 243.2439,276.7951 289.8339,265.6751" fill="none" id="help-to-caged" style="stroke:#A80036;stroke-width:1;"/><polygon fill="#A80036" points="295.67,264.2822,285.9873,262.4809,290.8066,265.443,287.8445,270.2623,295.67,264.2822" style="stroke:#A80036;stroke-width:1;"/><text fill="#4682B4" font-family="sans-serif" font-size="13" lengthAdjust="spacing" textLength="87.9595" x="155.42" y="272.9605">&#1076;&#1086;&#1084;&#1088;&#1072;&#1073;&#1086;&#1090;&#1085;&#1080;&#1094;&#1072;</text></g><!--reverse link wife to new--><g class="link" data-entity-1="wife" data-entity-2="new" data-source-line="70" data-uid="lnk38" id="link_wife_new"><path d="M891.83,722.0522 C929.45,722.0522 1015.65,722.0522 1070.23,722.0522" fill="none" id="wife-backto-new" style="stroke:#A80036;stroke-width:1;"/><polygon fill="#A80036" points="885.83,722.0522,894.83,726.0522,890.83,722.0522,894.83,718.0522,885.83,722.0522" style="stroke:#A80036;stroke-width:1;"/><text fill="#4682B4" font-family="sans-serif" font-size="13" lengthAdjust="spacing" textLength="37.9209" x="990.19" y="718.0805">&#1085;&#1086;&#1074;&#1099;&#1081;</text></g><!--link tenant to he--><g class="link" data-entity-1="tenant" data-entity-2="he" data-source-line="74" data-uid="lnk40" id="link_tenant_he"><path d="M368.18,550.4322 C413.25,572.2222 497.4381,612.9308 550.7881,638.7208" fill="none" id="tenant-to-he" style="stroke:#A80036;stroke-width:1;"/><polygon fill="#A80036" points="556.19,641.3322,549.828,633.8139,551.6884,639.1561,546.3462,641.0164,556.19,641.3322" style="stroke:#A80036;stroke-width:1;"/><text fill="#4682B4" font-family="sans-serif" font-size="13" lengthAdjust="spacing" textLength="38.2192" x="453.11" y="580.7105">&#1078;&#1080;&#1083;&#1077;&#1094;</text></g><!--link stepson to he--><g class="link" data-entity-1="stepson" data-entity-2="he" data-source-line="78" data-uid="lnk42" id="link_stepson_he"><path d="M363.92,666.6022 C407.42,665.7622 495.3211,664.0577 550.3911,662.9977" fill="none" id="stepson-to-he" style="stroke:#A80036;stroke-width:1;"/><polygon fill="#A80036" points="556.39,662.8822,547.3147,659.0561,551.3909,662.9784,547.4686,667.0546,556.39,662.8822" style="stroke:#A80036;stroke-width:1;"/><text fill="#4682B4" font-family="sans-serif" font-size="13" lengthAdjust="spacing" textLength="50.21" x="447.11" y="659.8405">&#1087;&#1072;&#1089;&#1099;&#1085;&#1086;&#1082;</text></g><rect fill="none" height="30.6211" rx="7.5" ry="7.5" style="stroke:#000000;stroke-width:1;" width="43.9102" x="659.6022" y="929.7032"/><text fill="#4682B4" font-family="sans-serif" font-size="14" lengthAdjust="spacing" textLength="31.9102" x="665.6022" y="950.8106">6.9%</text><!--SRC=[XLNXRXj54Fw_Jx6jYWGIZeMG4BMCdm6U06tkrhvJxcxTktMZ87xKQGcWHarJ45BRY4eWVdDEOkfSQkSLTj-8R-RkR0UAa6NvTc_ccvbllXdVkLVOWqH_gMmalv1t8sl7HQ_RpTN-pYYsqMHtKkWyC9dLcTq9JDerYTxxj3jEL6OdQTA9io2PXBhevdfOT2EjGdfKOPoDkZ4CxWfnfx6Hcr2joGwP257inTbOvIgLAh0cx_SdMQPI7Gu6GqGkuc-q_EJp_x4AJ69oEJIvBkmerpeJmiOsqTBzukPkwNzq2xTqfNJdqbNksitz8Nxd8bLnDWIeba44yC3gl1297kaib3tvsSxz3uJekJFOFo8VU07ZjNy6i0jyLlvHJwf21cgaGodl3NMg4ltrE3TMZKmM5vRSNxaIxjVIdVbJF5Ji4e6Hznc_GAO4NRBLVZpKBQo0Ix_JgUzwNCeDu5R-2AbD_TJD9OwbU-lEtSfTkfBW_k3ObsuXyGWcy24cBiZSBJa6iPg0vR1EI6J6Qhbhh3KfejmmG0dE5a1U0Ria5F_KNH7-SnmgeeUXLBQdSzdlXsZmOD3WYG_TcuR0AIZ4By0gLtv47aLaZ8KMuAGVGcM3WH0r2YfjNugr5IxNwTwwZJHbynkIkm0FxfGVBhZtcqftrGYTBNJMPaQjfV8MTL7Kt5SWz3ksBdIGQwloWtK3HDrdQiBcPKzoXAfM2C7v7uZxJR3ts8D5iWKH9V7pAmwNn0lnlU8sSaSXLDotf2_yC-aVkndIlI8gtJbJc4xo4B85Wt5MGFKJ6vkCU6ohg_nZFvNkJv2-ShCjFb8Jvqg85W1fyWs92rpuxob1VyoIgGJXlURoW7NgZrdBDKwYC3MYzgLYwKmWRm7mhcuxaZ-a0lqnuRm18kJxedb7ujWCqqFCi1vXd5lQjmNfdw06IgfYjbdB7qltC_69oY0hVzA8beEUu2KnI4DVkalKX5fgbdbwIXuM-bxnBUcSSMaxtEhCLqpsWt_JlER_smvUesp4GTaBxbYj-98Xpt6pggFKYIpz2M-LgJ-XuGPp3uYTdn1lHPH8QY1ijnHimeD_pXVVRKqBAGn1ePGRGllTFm5fyzeTkoR2R3NoRu-Tpg1POSX-LkTBhaJSEoPfXeGEkQ2ZPZD5EXdBhIsyjQNmuXRYVy1GX6kiqXatW4N6o9dUlmrS9yjhZzH5xrcXS6lNq1aHnWfRqgAZDbxNCysG-F_2FrQBr9menuWtwL-8JVy9HmJraaI99hKx3M8S5sQzCjhZnlk6X_Kf9rI9lm40]--></g></svg>